<svg xmlns="http://www.w3.org/2000/svg" viewBox="0 0 1500 1500" width="1500" height="1500"><defs><clipPath id="clip-path-id-viewbox-item-0"><path d="M0 0h86.562v89.504H0z"/></clipPath></defs><g clip-path="url(#clip-path-id-viewbox-item-0)" transform="matrix(16.82031 0 0 16.82606 24 -3)"><g fill="#8cab59"><path d="M58.562 6c.1.2-.1.3-.2.4.5-.1 1.3-.4 1.3-1.1-.7.4-.7.1-1.4.6-.4-.1-.5-.5-.4-.7-.2.1-.5-.4-.8-.1.1.8.7 1 1.5.9zM63.662 7.5h-.4.4c0 .1 0 0 0 0zM63.862 7.7c.1.1.2.1.3.2-.2-.1-.3-.2-.3-.2zM26.362 4c.2.1.4.2.5.3-.2-.3.7-.8-.5-.3zM63.862 7.7c-.1 0-.1-.1-.2-.1-.1.1-.1.1-.1.2.1-.1.2-.2.3-.1zM62.662 84.3c.3-.1.7-.2 1.1-.4 0 0-.3.1-.5.2l-.6.2zM59.662 85.5c-.3-.1-.5-.2-.7-.2 0 .1-.1.1-.1.2h.8z"/><path d="M85.762 48.9c0 .1.1.1.2.3.2-1.4-.3-2.8-.3-4.1.7-.5.3 1.1.9.6-.2-1-.5-1.9-.8-2.9-.3-.9-.7-1.8-.8-2.8v.4c-1.1 0 .2-1.4-.4-2.2.1.2.6.1.5.1-.2-1.3-1-2.4-1.8-4.1l.3.1c0-.8-.6-1.9-.7-2.7-.3-.1-.5-.6-.7-.2.3-1.5-.5-2.4-1.2-3.3-.4-.5-.7-.9-1-1.4s-.5-1-.5-1.6c.1.2.5.4.4.2l-1.2-1.5c-.3.4-.1.4-.2.9-.4-.1-.8-.4-1-.8.7.5.6-.4.7-.8-.1.1-.3.1-.4.2.2-1.3-.9.4-1.1-1l.2-.1c-.4-.3-.9-.5-1.1-1 .3-.5.5.3.9.1-.5-.6-1.7-.6-1.6-1.5.3.2.6.5.9.7.1-1-.1-1-.3-1.5v.1l-.6-1.2.1.4c-1.7.2-1.4-1.3-2.9-1.7 1.4.3.5-.2 1-.5-.1-.4-.3-.8-.1-.8-.8-.1-.4-1-1.5-1.1.1-.2-.4-.5 0-.7-.7-.5-.1.4-.3.5-1.3-.4-1.5-2.5-3.5-3-.7-.4-1.2-.4-1.7-.5-.4 0-.8-.1-1.2-.2-.1-.1-.3-.2-.4-.3.1-.3.7-.2.7-.2-.4-.7-.9-1-1.6-1.2.2-.1.2-.3.1-.6-.5-.2-.7.4-1.2-.2.2-.1.5-.3.9-.4-.7-.2-1.5-.2-2.1-.4 0-.4.6-.2.9-.3-.8-.3-1.9-.8-2.4-.4l.3.4c-.3-.1.1-.5.3-.5.8 0 .8.6.7.8l-.5-.1c-.1 1.3 1.8.8 2.6 1.4l-.6.4c-2.1-1.3-4.3-2.5-6.6-3.4h-.1c.2-.3.3-.5.5-.8 0 .1.1.2.2.2l.5-.5-.6-.1c.1-.4-.1-.8-.7-1.4l-1.3.2-.2-.5s.2.1.5.1c.2.1.5.1.5.1-.4-.6-.8-.3-1.3-.2 0-.3-.1-.5-.3-.6 0 0-.3.1-.7.3-.3.1-.6.3-.6.3 0-.4.7-.6 0-1-.6.3.3.9-.6 1-.4-.5-.2-.8-.9-.6 0-.3.1-.4.4-.4-.6.1-1.5-.2-1.9.3-.2-.3-.7-.4-1.1-.4-.4-.1-.7-.2-.6-.6-.2.2-1.1.6-1.6.6 1-1-1.9-.2-1.6-1.3-.4.4-1 .5-1.7.6-.7 0-1.5 0-2.1.4.1-.1.2-.2.3-.2-.7 0-.9-.3-1.4-.5 0 .8-1.1 1.1-1.6 1.6-.9-.7.4-1 .1-1.7.1.6-1.4.8-1.1 1.3-.7-.4-.6-.1-1-.7 0 1-.6.3-1 1-1-.3-.4-.8-1.4-.3-.6-.2.3-.7.3-.7-1.1.2-.3.8-.5 1.3-1.2.5-.7-.4-1.2-.6-.7.4-1.1 1.2-1.7 1.4-.1-.1-.2-.1-.1-.3-.3.4-.9.6-1.5.9-.6.2-1.2.6-1.5 1.1-.1 0-.2-.1-.2-.1.3.3.5.6.5.9-.4.2-.6.8-1 .4.3-.1.2-.3.3-.5l-.4.4c-.7-.4.5-.5.3-1-.8.6-1.5 1.6-2.2 1.8-.5-.5 1.4-1 .3-1.1l1.2-.3c-1.3-.6.7-.3-.6-.9-1.5.5-1.4 1.1-2.8 1.7-.1.5.4.4.3.9-1.4 1.7-2.4-.4-3.2 1.3 0 .6.4 1.4-.8 1.8l-.2-.8c-1.2 1 .1 1.4-1.4 2.1 0-.4.7-1 .4-.9-1.2.3-.2.8-.8 1.3l-.6-.4c-1 1.2-1.8 2.9-2.7 4.3-.1-.2-.1-.6-.5-.4-1 1.9-2.7 3.8-4.1 5.4l.1 1c-.1.2-.4.2-.4-.1-.6.6.3.2.3.7-.2.4-.6.4-.6 0-.1.4-.1.8-.3 1.3-.1.2-.1.5-.2.7l-.1.4c0 .1-.1.3-.1.3v.1l-.1.2-.2.3c-.1.2-.3.4-.4.6-.3.4-.6.8-.9 1v-.3c-.8.9.4 1.7-.5 2.5V29c-.7 1.1-1.1 2.4-1.6 3.6-.2.6-.5 1.2-.7 1.7-.1.3-.3.5-.4.8-.1.2-.3.5-.4.5.2.1.2.3.1.5s-.2.5-.4.7c-.3.5-.5 1 0 1.3-.5.5-.8.7-1.1.9-.1.1-.3.2-.5.4l-.1.1v.1l-.1.1c-.1.1-.1.3-.2.4-.2.4-.3 1-.2 1.7.1.7.4 1.1.8 1.3.1.1.2.1.3.2l-.6.3.1.7c.1-.2.3-.5.5-.4.2 1-.7 2.4-1 2.4l.2 1.2.2 1.2c-.2-.1-.3-.5-.5-.8.6 1.3-.7.2-.1 1.4.1-.2.4.1.5.1-.4.6-.4 1.9-.2 2.9l-.4-.2c0 1.8.4 3.7.6 5.7.1-.7.9-.7 1-.1l-.6.3c.4.3.2-.6.8.1 0 .7-.7.6-.9.2l.4.9c-.2.1-.3-.1-.6-.1.5.3-.4 1.7.4 2.1l-.2.1c.4 2 .9 2.8 1.4 4.4.5-.1.6.5 1.2.8.2 1.2.3 2.6 1 3.9.7.8.6.1 1.1.3-.4.3.3 1.5-.4 1.1.5.7.8 1.2 1.2 1.7.4.5.8 1 1.7 1.7 0-.3-.1-.6.2-.6.3.3.4.8.2 1l-.1-.1c.5.4 1 .9 1.4 1.4.4.6.8 1.2 1.1 1.8.4.6.8 1.2 1.2 1.6.4.5 1 .8 1.5.8h-.1l1 .4c.5.2 1 .3 1 .3.7.6-.7 0-.3.7 2.3.5 3 1.9 4.9 2.1.3 1 1.5 1.4 2.8 1.8 1.3.3 2.6.6 3.4 1.3v-.4c.6-.2.5.4.8.5 0-.3-.4-.4-.1-.6 4 .5 8.2 2 12.4 2.3 1.5.1.8-1.8 2.8-1l-.5.7c3-.9 6.3-.4 9.1-1.6-.1.2-.1.4-.4.4.7.4 2.3-.4 2.2-.8.5-.1.2.3.5.5.7.2 1.4-1 1.9-.6.1.1-.1.2-.2.3.3-.3 1.9-.4 1.4-.9 1.2 0 2-.8 2.9-.8.4-.8 1.9-.4 1.8-1.2.2.9 2.1 0 2.6-.7-.1.3.7 0 .6.5.8-.3 1.4-.8 1-1.2 1.9.3 2.3-2.1 3.7-1.3 1.9-1.6 3.5-3.2 5.1-4.7.3.4-.2.8-.7 1.2-.5.4-.9.7-.6 1.1 1.5-1.5 1.9-2.9 3.6-4.1.5-.3.1.5 0 .7 1.3-1.7 2.9-2.8 3.7-4.6.1.1 0 .3-.1.5.2-.3.6-.6.3-.8l-.1.4c-.8.1-.1-1.9-.4-2.1.6 1.2 1.2-1.3 1.9.3.1-.2.1-.6-.2-.7.3-.3.5-.3.5.2.5-1.2-.1-1.1.5-2.1.2.1.1.3.3.6 0-.7-.1-1.4.5-2.2.1.1.3.1.1.3.7-1.6.3-3.1 1.2-4.7.7.8.5-.5 1.2-.4l.1-1-.5.3c.3-.8-.2-1.7.2-2.4l.2.7.2-1.6-.5.9c-.2-.9-.9-.1-.5-1.2 0 .2.2-.8.7-1.2-.2-.5-.4-.9-.2-1.5.3-.1.8.2 1 .1-.6-.5 0-2.1-.6-2.6.1.2.5.2.6.1l-.2-.2c-.1-.1-.3-.2-.3-.2.2-.4.2-.5.5-.4 0-1.8-1-.2-.6-1.6zm-5.7-21c-.1.1-.2.2-.4.2l-.3-.6c.2 0 .5.1.7.4zm-12.3-15.8l-.1.5c-.2-.2-.4-.3-.6-.5.2 0 .4-.1.7 0zm-4.7-3.2h.6c0 .2 0 .4-.1.5-.3-.2-.5-.4-.8-.5h.3zm-49.1 6.2c-.1.1-.1.2-.3.4.2-.2.3-.3.3-.4zm-.9 1.4c.2.1.3.2.2.4 0-.2-.4.2-.7.3.2-.2.3-.4.5-.7z"/><path d="M78.162 23.1s.1-.1 0-.2v.2zM75.462 19.1l-.3-.7c.2.4.3.6.3.7zM73.362 16.1c-.1 0-.2.1-.2.1l.2-.1zM79.662 71.4l-.1.1c-.1.3 0 .1.1-.1zM85.462 54.5c.1.2.1.4.2.6.1-.3.1-.5-.2-.6zM63.862 83.9s0-.1 0 0h-.1.1zM85.662 55.1c-.1.2-.2.5-.2.8.2-.3.2-.5.2-.8zM60.662 5.7s-.1 0 0 0l.1.1-.1-.1zM60.562 5.7h-.2c.1 0 .2.1.2 0zM59.962 5.6s.5 0 .4.1c-.1-.1-.3-.2-.4-.1zM66.162 9.4c-.3-.2-.5-.9-1-1.1l-.1.1c.4 0 .6 1.1 1.1 1zM86.262 46.9l.3-.5-.5-.2c0-.1.2.7.2.7z"/></g></g><g><defs><clipPath id="clip-path-id-viewbox-item-1"><path d="M0 0h98.478v69.918H0z"/></clipPath></defs><g clip-path="url(#clip-path-id-viewbox-item-1)" transform="matrix(10.69274 0 0 10.59813 227 374)"><g fill="#eb7e44"><path d="M98.239 63.218c.2-.1.3-.5.2-1.2l-.5-1.1.1-.4.2 1c.1-.6-.2-.9-.4-1.2.1 0 .1-.2.1-.2s.1 0 .1-.2c0 0-.1-.3-.3-.6-.2-.3-.3-.6-.3-.6.2-.2.5.5.4-.3-.3-.5-.3.6-.6-.3.1-.6.3-.5-.1-1.1.1-.1.2 0 .3.2-.3-.6-.5-1.6-.9-1.8v-.5c0-.2-.1-.4-.1-.6-.1-.4-.1-.7.1-.7-.1-.2-.5-.9-.7-1.4.7.8-.4-2 .2-1.8-.6-.6-.7-2.5-1.3-3.7.1.1.2.2.2.3-.1-.7 0-1 0-1.4-.4 0-.7-1.1-1.1-1.6.2-.9.6.4.9.1-.3.1-.6-1.4-.8-1.1.1-.7 0-.6.2-1-.5 0-.2-.6-.7-1.1 0-1 .4-.4 0-1.4 0-.5.4.4.4.4-.3-1.1-.5-.4-.7-.6-.4-1.2.1-.7.2-1.1-.3-.8-.8-1.3-1-1.9 0-.1 0-.2.1-.1-.5-.8-.8-2.5-1.5-3.3v-.2c-.1.2-.3.3-.4.3-.2-.5-.5-.8-.4-1 .1.3.2.3.3.4l-.3-.4c.2-.6.4.6.6.5-.4-.9-1.2-1.9-1.4-2.7.3-.3.8 1.6.7.6l.3 1.2c.2-1.1.2.7.5-.3-.5-1.5-.8-1.6-1.4-3.1-.3-.2-.2.2-.5 0-1.3-1.9 0-2-1.3-3.3-.4-.3-.9-.2-1.3-1.3l.5.1c-.9-1.3-.9-.4-1.7-1.9.3.1.8.9.7.7-.4-1-.6-.5-1.1-1.1l.2-.3c-.6-.6-1.2-1.2-1.9-1.8-.3-.3-.7-.6-1.1-.9l-.6-.4-.5-.4c.1 0 .1-.1.2-.1s0-.1 0-.2c0 0-.3-.3-.4-.5-.2-.2-.3-.5-.5-.7-.2-.3-.5-.6-.9-.8-.2-.1-.4-.2-.5-.3 0 0-.1 0-.1-.1 0 0 0-.1-.1-.1v-.1l-.1-.2c-.1-.3-.2-.5-.3-.7-.1-.2 0-.2 0-.3 0 0 .1-.2.3-.5v-.5-.5c.1-.2.2-.3.2-.1.3-.9-.2-.1-.2-.5.1-.5.3-.7.3-.3.1-.8.1-2.1-.2-3.3-.1-.3-.1-.6-.2-.9 0-.1-.1-.3-.2-.5s-.1-.3-.2-.5c-.4-.6-.8-1-1.2-1.3l.4.2c-.7-.5-1.2-.5-1.7-.5-.5.1-.9.1-1.7.3l.3-.2c-.2.1-.4.2-.7.3-.2.1-.3.2-.4.3-.3.2-.6.4-.8.6-.5.4-1.1.9-1.6 1.3-1 .9-2 1.7-2.8 2.3 0 .1-.1.3-.3.5l-.3.3-.2.2-.1.1c-.1.1-.2.2-.2.3-.1 0-.1.1-.1.2-.1-.1-.2-.1-.2-.2 0 0-.2-.1-.3-.2-.2-.1-.3-.2-.5-.3-.3-.2-.7-.4-1.7-.7-.5-.2-.9.1-1.6 0l.1-.3-1 .1-.4-.5-.7-.1c.3.1.5.3.5.3-1-.1-2.4-.8-2.4-.9l-2.5-.3c.1-.1.3-.1.5-.1-.9 0 0-.4-1.1-.3.1.1-.1.2-.2.2-.6-.3-1.9-.5-2.9-.6l.2-.2c-1.8-.3-3.9-.4-6-.6.7.2.5.5-.1.5l-.2-.3c-.4.2.6.2-.2.4-.8-.1-.5-.4 0-.5l-.9.1c-.1-.1.2-.1.2-.3-.4.2-1.6-.4-2.2 0l-.1-.1c-2.1 0-3 .2-4.7.3 0 .3-.7.3-1.2.6-.8 0-1.7.1-2.6.2H33.439c-.2 0-.4.1-.7.1-1 .3-.3.3-.7.6 0-.1-.1-.1-.3-.1H31.439c-.1 0-.1-.1 0-.2h-.1l-.1.1-.1-.1-.1-.1c0-.1-.1-.1-.2-.3-.2-.4-.5-.9-.8-1.5 0 .3.1.5-.1.4-.2-.4-.2-.9-.1-.9l.1.1c-.3-.5-.6-1.2-.8-1.8-.1-.3-.2-.7-.3-1-.1-.2-.1-.4-.3-.6-.1-.2-.3-.4-.4-.6-.7-.9-1.9-1.2-2.8-1.1-.9.1-1.7.6-2.1 1.2l.1-.1s-.5.5-.8 1.2-.3 1.4-.3 1.4c-.1.6-.1.4-.1.2 0-.1-.1-.2-.1-.3 0-.1-.1 0-.1.2.2 1.3.2 2.1.2 2.9s-.1 1.6.1 2.5c-.2.3-.3.7-.4 1.1 0 .2-.1.4-.1.6-.1.2 0 .1-.1.2 0 0-.2.2-.4.3-.2.2-.6.3-.9.4-.6.3-1.2.5-1.8.5l.2.1c-.4.3-.6.1-1 .2.1.1.6-.1.3.1-.5.2-1.1.5-1.6.9-.5.3-.9.7-1.4 1-.9.7-1.7 1.5-2.6 2.3-1.6 1.6-3 3.5-4.1 5.6-.4.8-.2 1.1-.2 1.4.1.3 0 .7-.4 1.6l-.2-.7c-.3 1.7-.6 3.4-.8 5.1-.1 1.7 0 3.4.4 5-.1-.2-.2-.2-.3-.5-.1.4.1 1 .2 1.5.2.5.4 1 .5.9.1.5-.1.2-.2.5.1.7.8 1.6.8 2 0 .1-.1-.2-.2-.3.3.4.8 2 .9 1.5.4 1.2 1.2 2 1.6 2.9.3.2.6.6.8 1 .3.4.5.7.8.7-.1.1-.1.4.2.7.1.1.1.2.2.3l.2.2.1.1c0 .1.1.1.1.3-.1-.3-.3.6-.4.3-.1.8-.2 1.6.1 1.5-.8 1.4-.1 3.1-1 3.9-.2 2-.4 3.9-.6 5.7v-.1c0 .2-.1.5-.1.7v-.1c0 .3-.1.6-.1.9-.2-.1-.1-.4-.1-.8 0-.2.1-.5.1-.7v.1c.1-.5.1-1-.1-1 0 .4-.1.7-.1 1v-.1c0 .3-.1.5-.1.7v-.1c0 .5 0 1-.1 1.5 0 .3 0 .6.1 1 .1.3.2.7.3.8v.9c0 .4-.1.3-.1 0-.1-.2-.1-.4-.1-.5v.4c0 .1 0 .4.1.5.1.4.2.7.3 1 .3.6.7 1.2 1.4 1.6.3.2.8.3 1.1.4.2 0 .5.1.7.1.5 0 1 .1 1.4.1 0 0-.2.1-.4.1.4 0 .9.2.8 0h-.4c-.6-.4 1.6-.4 1.6-.6-.7.5 1.8.4.8 1 .2 0 .6-.1.5-.2.4.1.5.2.1.3 1.3 0 .9-.2 2.1-.1 0 .1-.3.1-.4.2.6-.1 1.3-.2 2.3 0-.1.1 0 .1-.3.1 1.8.2 3-.2 5 .2-.6.4.6.2.7.6h1l-.4-.2c.9.1 1.7-.1 2.5.1l-.7.1 1.7.1-1-.2c.9-.1-.1-.5 1.1-.3-.2 0 .9.1 1.4.3.5-.1.9-.2 1.6 0 .2.1-.2.4-.1.5.5-.3 2.1.1 2.7-.2-.2.1-.2.3-.2.3l.4-.2c.4.1.5.2.4.3 1.3.1-.4-.5 1.1-.2-.1 0-.1.1-.3.1 1.5.2 2.9 0 4.3.2.4.4-1.2 0-.8.4 2 0 4.2-.3 6.1-.1l-.4-.1c.3-.5 1.4.3 2.4.1-.2 0-.3.3-.3.2 1.3.1 2.7-.1 4.7-.2l-.3.1c.8.1 2.1.1 2.9.1.3-.1.7-.1.4-.3 2.6.7 5-.4 7.3.1-.3 0-.7.1-.4.1l2-.2c-.2-.2-.3-.1-.7-.3.2-.1.8-.3 1.3-.3-.9.2 0 .4.4.5-.1-.1.1-.2 0-.2 1 .4.2-.5 1.6-.2l-.1.1c.5-.1 1-.3 1.6-.3.2.3-.6.1-.6.4.8-.1 1.5-.6 2.3-.3-.3.1-.8.1-1.2.2.8.3.9.2 1.5.2h-.1l1.4.1-.3-.1c1-.8 2-.2 3.3-.8-1.3.5-.2.3-.3.6.3.1.9.1.7.2.6-.3 1.1.1 1.9-.3 0 .1.7 0 .6.2.8-.1-.2-.2-.1-.3 1.2-.4 3 .2 4.8-.4 1.4-.3 1.8-.6 2.9-.9h.4c.2.1-.5.4-.5.4.8.1 1.4 0 2.1-.2-.1.1 0 .2.3.2.6-.1.4-.4 1.2-.3-.1.1-.3.3-.6.5l2.1-.6c.2.1-.4.3-.7.4.8-.2 2.1-.4 2.4-.7h-.5c.2 0 .1.2-.1.3-.7.3-1 0-1.1-.1l.5-.1c-.6-.5-2.1.3-3.1.4l.3-.4c1.2-.1 2.3-.2 3.5-.4 1.6-.2 2.8-1.4 2.4-3.2v-.1c.2 0 .3.1.5 0v.4l.4.3s0-.2-.1-.4c.9 0 .9-.2.9-.2zm-63.9-54.9c-.1-.2-.2-.4-.1-.6l.1.6zm-.1 0c.1 0 .1.1 0 0 .1.1.1.1 0 0 0 .1 0 0 0 0zm46.6 9.2c.2.1.3.2.4.3 0 0-.1-.1-.2-.1 0-.1-.1-.1-.2-.2zm-.6-.8c0 .1-.2.1-.3-.1.1 0 0-.1 0-.2-.1-.2-.2-.4-.4-.5.2.2.5.5.7.8zm-16.8 52.1c0-.1-.1-.2 0-.2h.7c0 .1-.2.2-.7.2zm21.6-1.1l-.3-.2c.3 0 .6-.1.9-.1-.1.1-.2.2-.6.3zm5.7-.4c-.1-.1-.3-.1-.2-.2.3 0 .7-.1 1-.1l-.8.3zM96.939 66.118c-.2 0-.1-.1-.1-.2-.3.4-.8.9-.3 1.1.4-.5.6-.5.7-1.2.3-.4.5-.6.6-.5 0-.2.3-.7.1-1-.3.5-.5 1.1-1 1.8zM91.439 67.818c.1 0 .2-.1.4-.1l-.4.1c.1-.1.1-.1 0 0z"/><path d="M96.639 53.518c-.1 0-.1.1 0 0-.1.1 0 .1 0 0zM91.239 67.718h-.3c.1.1.2.1.3 0zM91.139 32.118c0 .2-.1.3-.1.4.1-.1.5.9.1-.4zM91.439 67.618c0 .1-.1.1-.2.1h.2c.1 0 .1-.1 0-.1zM12.739 47.118c-.1 0-.1 0 0 0l-.1.3.1-.3s0 .1 0 0zM10.839 44.818c0-.2-.1-.5-.2-.7l-.1-.1.3.8zM95.139 66.818c-.1 0 0 0 0 0zM56.639 7.918h-.3c.1.1.2.1.3 0zM62.339 9.318v.1h.2zM68.939 69.018s.1 0 .2.1c-.1-.1-.1-.1-.2-.1zM74.039 68.818l.7.1c-.3 0-.5 0-.7-.1zM77.939 68.818c0-.1.1-.1.1-.1l-.1.1zM15.439 66.918h0zM34.039 68.218c-.2 0-.4.1-.6.1.4 0 .6 0 .6-.1zM12.639 47.618v-.1.1zM33.439 68.318c-.3 0-.6-.1-.9-.1.4.1.7.1.9.1zM95.139 67.418h-.2.2zM95.439 67.318c-.1 0-.2 0-.2.1l.2-.1zM95.939 67.118l-.5.2c.2 0 .4-.1.5-.2zM88.239 68.018c.4 0 1 .1 1.5 0v-.1c-.2.2-1.2-.1-1.5.1zM42.639 69.118l.3-.2h-.8z"/></g><g fill="#f6eaea"><path d="M29.539 20.818c0 .2.1.2.2.1v.2c.1-.1.2-.3.2-.5-.1.2-.1.1-.2.4v-.2c-.1-.1-.2-.2-.2 0zM30.339 20.718zM27.039 19.718v.2c0-.2.1-.2 0-.2zM30.339 20.718s0 .1 0 0zM26.739 26.718v-.2.2z"/><path d="M31.739 23.518c-.1 0-.1-.1-.2 0 .6-.3-.3-.4.1-.7h.1l-.1-.2c-.2.1-.1 0-.2.1-.1 0-.2 0-.2-.1.1 0 .3-.1.4-.1h-.2c.3-.2-.3.1-.2-.1h.1c-.1 0-.2 0-.2-.1.2-.1.1 0 .3 0 0-.1-.4 0-.2-.1.1 0 .1 0 .1.1.2-.2.1-.1.1-.2v-.2.1c-.5.1-.2-.1-.5-.1.3-.1.2-.1.4-.2 0-.1.1-.1.1-.2-.2 0 .1-.2-.2-.1.1 0 0-.1.1-.2-.1 0-.1.1-.2.1-.3.1 0-.4-.3-.3-.2 0-.4.1-.5.2 0-.1.2-.2.2-.2 0-.1-.1-.2-.2-.1 0 0 .1-.1.1-.2-.1 0-.2.2-.2.1s.1-.2.2-.2c-.1 0-.2.1-.3.1 0-.1.1-.2.2-.2-.1 0-.3 0-.3.2v.1s0-.2.1-.2c.1-.1.1.1 0 .2h-.1c-.1.4.2 0 .3.1l-.2.2c-.2-.1-.4-.2-.6-.2 0-.1.1-.3.1-.4v.1l.1-.2-.1.1V20.218l-.1.2v-.2h.1c0-.2-.1 0-.1.1v-.2l-.1.3c0-.1.1-.3 0-.3-.1.1 0 .3-.1.4 0-.2 0-.3-.1-.2 0-.1 0-.1.1-.2-.1.1-.1 0-.2.2 0-.2-.2 0-.1-.3 0 .1-.1.2-.2.2.1-.4-.2 0-.1-.5-.1.3-.2.1-.4.3v-.1c-.1 0-.1-.1-.1-.2-.1.3-.2.3-.2.5 0-.3.1-.3.1-.6 0 .2-.2.2-.2.4v-.3c-.1.4-.1.1-.1.3 0-.2 0-.3-.1-.2 0-.1.1-.2.1-.2-.1 0-.1.3-.1.4-.1.1 0-.2 0-.4-.1.1-.2.3-.2.3v-.1c-.1.2-.2 0-.3.2v-.1c0 .1 0 .3-.1.4 0 0-.1.2-.1 0 0 0 0-.1.1-.1l-.1.1c0-.3.1-.1.1-.3-.1.1-.2.3-.3.2 0-.3.2-.1.1-.3l.1.1c0-.4.1 0 .1-.4-.1-.1-.2.1-.3 0-.1.1 0 .2-.1.3-.2.2 0-.7-.2-.3-.1.2-.1.5-.2.3l.1-.3c-.1 0-.1.4-.2.2 0-.1.1-.1.1-.1 0-.2-.1.2-.2.1v-.3c-.1 0-.3.2-.5.2 0-.1.1-.2 0-.2-.2.1-.5-.1-.7-.2l-.1.2v-.1c-.1-.1 0 .1 0 .2 0 0-.1-.1-.1-.2-.1.2-.3.5-.6.3v-.1c-.2 0 0 .5-.2.3-.3 0-.5.3-.8.2.2.3-.3.1-.1.4-.3-.1-.3-.2-.6-.1-.1 0 .1.3.1.3l-.2-.1.1.2-.3-.1v.1s.1 0 .2.1c0 .1-.3.1-.4.1v.4c-.1 0-.1-.1-.1-.2.1.2-.2-.1-.1.1.1 0 .1.1.2.1-.2 0-.2.2-.2.3l-.1-.1c-.1.2-.1.5-.1.7.1-.1.4 0 .4 0h-.2c.1.1.1-.1.3 0 0 .1-.3 0-.4 0l.1.1h-.2c.1 0-.3.2 0 .2h-.1c0 .2.1.3.1.5.2 0 .2.1.3.1 0 .1-.2.3-.1.5.1.1.2 0 .3 0-.2.1-.1.2-.3.2.1.2.1.2.4.4l.1-.1s0 .1-.1.2c.2.1.1.2.1.4s0 .4.2.3h.3c0 .1-.2 0-.2.2.4 0 .3.3.6.3-.1.3 0 .4.2.4s.3.1.4.3v-.1c.1-.1 0 .1.1.1v-.2c.1 0 .3 0 .4.1.1 0 .2.1.3.1.2.1.3.3.5.3.1.1.2-.7.3-.3l-.1.2c.3-.3.5.1.8-.1 0 .1 0 .1-.1.1 0 .2.2 0 .2-.1v.2c0 .1.2-.2.2 0v.1c0-.1.2 0 .2-.2.1.1.2-.1.3.1.1-.2.1.1.2-.2-.1.3.1.3.2.1v.2c.1 0 .1 0 .2-.2.1.4.3-.3.3.2.2-.1.4-.2.7-.3 0 .3-.2 0-.3.4.2-.1.4-.4.6-.3.1 0 0 .1-.1.2.2-.1.4 0 .6-.2v.1s.1 0 .1-.1c-.1-.2.1-.5.1-.6 0 .4.2.1.2.6v-.2s.1.1.1.2c.1-.1 0-.3.1-.3v.2c0-.2 0-.3.2-.3v.1c.2-.1.1-.5.4-.4.1.3.1.1.2.3l.1-.1-.1-.1c.1 0 0-.3.2-.2v.1l.1-.1h-.1c0-.2-.2-.3-.1-.3 0 0 .1 0 .2.1 0-.1-.1-.2 0-.2.1.1.2.2.2.3-.1-.2.1-.2 0-.4 0 .1.1.2.2.2l-.1-.2c.1 0 .1 0 .2.1.1-.1-.3-.2-.1-.2v.1c.2-.1.1-.3.2-.4.3.1 0 .1.2.2.1-.2-.1-.5 0-.7-.4-.1.2-.1.1-.2l.2.1c.1-.1 0-.3-.1-.5h.1c-.3 0-.3-.1-.3-.2zm-1.3-1.9c0-.1 0-.1 0 0 0-.1 0-.1.1-.2 0 0 0 .1-.1.2zm-.2-.5c0 .1-.1.1-.1.2h-.1l.2-.2zm-4.8-1.3c.1 0 .1 0 0 0 .1 0 .1 0 0 0zm-.1 0v.1-.1zm5.9 3.3s-.1 0 0 0c.1-.1.1-.1.2 0h-.2zM22.339 20.618zM31.339 21.718c-.1 0-.1 0 0 0z"/><path d="M29.139 26.618s-.1 0 0 0c-.1.1-.1.1 0 0zM30.639 25.518v0zM27.139 26.718zM30.539 25.718c.1 0 .1 0 0 0 0-.1 0-.1 0 0zM30.039 20.518zM29.939 20.518zM30.639 20.918s0-.2-.1-.2c.1 0 0 .3.1.2zM31.239 25.118h.2l-.2-.1zM67.339 23.318v.2c.1-.1.1-.3.1-.5-.1.1-.1 0-.1.3-.1.1-.1-.1-.1-.1 0 .1-.1-.1-.1.1.1.1.1.1.2 0zM68.039 23.018s-.1 0 0 0c-.1 0-.1 0 0 0zM64.239 22.618v.2c0-.2.1-.2 0-.2zM68.039 23.018c-.1 0-.1.1 0 0zM65.139 29.718v-.1c-.1 0-.1 0 0 .1z"/><path d="M69.939 26.018h.1c.1-.1 0-.2.1-.3-.1 0-.1-.1-.2 0 .3-.2.2-.3.1-.4s-.2-.2-.1-.4h.1l-.2-.2c-.2.1-.1.1-.2.2h-.2c.1 0 .3-.1.3-.2 0 0-.1 0-.2.1.2-.2-.3.1-.2-.1h.1c-.1 0-.2 0-.2-.1.2-.1.1 0 .2-.1-.1-.1-.4.1-.3-.1h.2c.2-.2.1-.2.1-.2v-.2.1c-.5.3-.2-.1-.6 0 .3-.1.1-.1.3-.3 0-.1 0-.2.1-.2-.2.1 0-.2-.2-.1 0-.1-.1-.1.1-.2-.1 0-.1.1-.1.2-.2.1-.1-.4-.5-.3-.2 0-.3.2-.5.3 0-.1.1-.2.1-.2 0-.1-.1-.1-.2-.1v-.2c-.1 0-.1.2-.2.1 0-.1.1-.2.1-.3-.1 0-.2.2-.3.2 0-.1.1-.2.1-.3-.1 0-.3.1-.3.3v.1-.2c.1-.1.1.1.1.2h-.1c0 .4.2 0 .3 0l-.1.2c-.2-.1-.5-.1-.7-.1v-.4s0 .1 0 0v-.2l-.1.1c0-.1 0-.3-.1-.4l-.1.2v-.2h.1c-.1-.2-.1 0-.1.1v-.2l-.1.3v-.3.4c-.1-.2 0-.3-.1-.2v-.2c-.1.1-.1 0-.2.2-.1-.2-.2.1-.2-.3 0 .1-.1.3-.1.3.1-.4-.2 0-.2-.4-.1.4-.2.2-.4.4v-.1c-.1 0-.1-.1-.1-.2 0 .3-.1.4-.2.5-.1-.3 0-.3 0-.6 0 .2-.1.2-.1.4-.1-.2-.1-.1-.1-.3 0 .4-.1.1-.1.3-.1-.2 0-.3-.1-.2v-.2c-.1 0 0 .3-.1.4s-.1-.2-.1-.3c-.1.1-.1.3-.2.3v-.1c-.1.2-.2 0-.3.3v-.1.4s-.1.2-.1 0v-.1.1c0-.3.1-.1.1-.3-.1.1-.2.3-.3.2 0-.3.2-.1.1-.3l.1.1c-.1-.4.1 0 0-.4-.1-.1-.2.1-.4.1v.4c-.2.3-.3-.6-.4-.2 0 .2 0 .5-.1.4v-.3c-.2 0 0 .4-.2.3 0-.1.1-.1.1-.2-.2-.2 0 .2-.1.2l-.1-.2c-.1.1-.2.1-.2.2-.1.1-.1.2-.1.2 0-.1-.1-.1-.1-.2v.1c-.1 0-.1-.1-.3-.2l-.1.2s-.1-.1 0-.1c-.1-.1 0 .1 0 .2 0 0-.1-.1-.1-.2-.1.2-.4.5-.6.3v-.1c-.2 0 0 .5-.2.3-.3 0-.5.4-.9.2.2.3-.3.1-.1.4-.3 0-.3-.1-.6 0-.1 0 .1.3.1.4l-.2-.1.1.2-.3-.1v.1h.2c0 .2-.3.2-.4.1v.4c-.1 0-.1-.1-.1-.2.2.2-.2-.1-.1.2.1 0 .1.1.2.1-.2 0-.2.2-.2.3l-.1-.1c-.1.2 0 .5 0 .8.1-.1.4-.1.4 0h-.2c.2 0 .1-.1.3 0 0 .1-.3.1-.4 0l.1.1h-.2c.2 0-.2.2 0 .3h-.1c0 .3.1.4.2.6h.4c0 .1-.1.4 0 .5s.2 0 .3 0c-.2.1-.1.2-.2.2.1.2.2.2.4.4 0-.1.1-.1.1-.1.1 0 0 .1-.1.2.2 0 .2.2.2.5 0 .2.1.4.3.3h.4c.1.1-.1.1-.1.2.4-.1.4.3.7.1 0 .3.2.3.3.3.1 0 .3-.1.3.1v-.1c.1-.1 0 .1.1.1v-.2c.4-.1.7.3 1.3.5.2 0 .1-.7.3-.4l-.1.2c.4-.3.8-.1 1.1-.4v.1c.1.1.3-.1.2-.2.1 0 .1.1.1.2.1.1.1-.3.2-.2v.1c.1-.1.1 0 0-.2 0 0 0-.1 0 0 0-.2.1.1.1-.2 0 .3.2.3.3.1 0 .1.1.1.1.2.1 0 .1-.1.1-.3.2.4.2-.4.4.2.2-.2.4-.3.6-.4 0 .3-.2.1-.2.4.2-.2.3-.5.5-.4.1 0 0 .1 0 .2.2-.2.4 0 .6-.2v.1s.1 0 .1-.1c-.1-.2.1-.5 0-.6 0 .4.2.1.2.6v-.2s.1.1.1.2c.1-.1 0-.3.2-.3v.2c0-.2 0-.3.2-.3v.1c.2-.1.1-.5.4-.4.1.3.1.1.3.3l.1-.1-.1-.1c.1 0 0-.3.2-.2v.1l.1-.2h-.1c0-.2-.2-.3-.1-.3 0 0 .1-.1.2 0 0-.1-.1-.2 0-.2l.3.3c-.1-.2.1-.2 0-.4 0 .1.1.1.2.2l-.1-.2c.1 0 .1 0 .2.1.1-.1-.3-.2-.1-.2v.1c.2-.1.1-.3.2-.4.3.1 0 .1.2.2.1-.2-.1-.6 0-.7-.4-.1.2-.1.1-.2l.2.1c-.1 0-.2-.2-.3-.4zm-1.5-2.3l-.1.2h-.1c.1-.1.1-.2.2-.2zm-.5-.3c0 .1 0 .1-.1.2h-.1l.2-.2zm-5.5-.1zm-.1.1c0 .1.1.1 0 .1.1 0 0 0 0-.1zm7.1 2c0-.1 0-.1 0 0 .1-.1.1-.1.2-.1 0 0-.1 0-.2.1zM59.339 24.418l.1.1-.1-.1zM69.239 23.818c0 .1 0 .1 0 0zM67.339 29.218s0 .1 0 0c0 .1 0 .1 0 0z"/><path d="M68.939 28.018v.1c.1 0 .1 0 0-.1zM65.539 29.718h-.1z"/><path d="M68.939 28.218s.1 0 0 0c0-.1 0-.1 0 0zM67.639 22.918zM67.539 23.018c0-.1 0-.1 0 0zM68.339 23.218s0-.2-.1-.2v.1c0-.1 0 .2.1.1zM69.639 27.518h.2l-.2-.1z"/></g><g fill="#db5d43"><path d="M56.539 39.218c-.1.2-.2.1-.3.4-.1.1-.2.1-.2 0 0 .1-.2.1-.2.2.2 0 .3-.1.5-.3.1 0 0 .1 0 .1.2-.1.3-.3.2-.4zM58.039 39.618h-.1.1zM48.439 40.118v.2c0-.2.3-.1 0-.2zM58.139 39.718c-.1 0-.1 0 0 0-.1 0-.1 0 0 0zM37.139 43.718c-.1 0-.1-.1-.2-.1l.2.1z"/><path d="M58.239 40.518s0-.1-.1-.1c0-.1.2 0 .2 0 0-.2-.2-.4-.4-.5.1 0 .1-.1 0-.1-.2-.1-.2 0-.3-.1.1 0 .2-.1.3-.1-.2-.1-.4-.1-.7-.2 0-.1.2-.1.3-.1-.3-.1-.7-.1-.8.1h.2c-.1 0 0-.1 0-.1.2-.1.3.1.3.2h-.2c.1.1.2.2.3.2.2 0 .4.1.5.2l-.2.1c-.5-.4-1.3-.5-1.9.1 0-.1-.1-.1-.2-.2h.1v-.2l-.1.2c-.1-.1-.2-.1-.4 0l-.1.3h-.1l.2-.2c-.2 0-.2.1-.2.2h-.2l-.1.3c-.1-.1 0-.2-.2-.2-.1.2.2.1.1.3-.2 0-.2-.1-.3 0v-.1c-.1.1-.3.2-.3.3-.2-.1-.4.2-.5 0 0 .1-.2.2-.3.3.2-.3-.5.1-.5-.2-.1.2-.6.2-.9.3 0 0 .1-.1.1 0-.2 0-.2-.1-.3-.2 0 .2-.3.2-.5.3-.2-.2.2-.2.1-.4 0 .2-.4.1-.3.2-.1-.1-.1-.1-.2-.3-.1.2-.2 0-.3.1-.2-.2 0-.2-.3-.2-.1-.1.1-.1.1-.1-.2-.1-.2.1-.3.2-.3 0-.1-.2-.2-.3-.2 0-.4.1-.5 0v-.1c-.3 0-.6-.2-.9-.2v-.1c0 .1-.1.2-.1.2-.1-.1-.3 0-.2-.1h.1-.1c0-.2.2 0 .2-.1-.2-.1-.6-.1-.7-.3.1-.2.4.2.3 0l.2.2c0-.3.1.1.1-.2-.3-.2-.4-.2-.7-.4-.1 0-.1.1-.2.1-.5-.2 0-.6-.4-.7-.2 0-.3.1-.4-.2h.2c-.2-.3-.3 0-.5-.4.1 0 .2.2.2.1 0-.3-.2-.1-.3-.2l.1-.1c-.1-.2-.2-.3-.4-.5l-.3-.6c.1 0 .1.1.1 0-.1-.2-.1-.5-.1-.8v-.6c0-.2-.1-.4-.2-.6l-.3-.2v-.1c-.2-.3-.1 0-.2 0-.1-.1-.1-.2 0-.2-.5-.3-1.4-.4-2-.4l.1-.1c-.2 0-.3.1-.4.2-.1.1-.1.2-.3.3v-.1c-.4.2-.6.7-.7 1.1-.1.3-.2.6-.4.8.1.2-.4.5-.1.7-.3.2-.3.1-.7.5-.1.1 0 .3-.1.4l-.1-.1v.3h-.2l-.1.1h.2c-.1.2-.5.3-.6.3l-.2.2-.2.2c0-.1 0-.1.1-.2-.2.3-.1-.1-.3.2v.1c-.2 0-.5.1-.6.2v-.1c-.4.1-.8.3-1.3.3.2 0 .2.2 0 .3l-.1-.2c-.1.1.2 0 0 .2-.2 0-.1-.2 0-.2l-.2.1v-.1c-.1.1-.3-.2-.5 0-.4-.1-.7 0-1-.2-.1.1-.2 0-.3.1-.3-.2-.5-.4-.8-.6-.2-.1-.1.1-.3.1.1-.1-.2-.3 0-.3-.4-.2-.4-.3-.9-.6v.1c-.1-.1-.1-.2-.1-.2-.3-.2-.4-.5-.5-.8-.2-.4-.6-.8-1-.8h-.8c-.3 0 .2-.1 0-.2-.4.1-.7.2-.9.3-.3.1-.5.3-.7.5-.3.1-.6.5-.6 1.1s.3 1 .4 1.4l.1-.1c.2.1.1.2.1.3 0-.1 0-.2.1-.1.7.9 1.4 1.9 2.4 2.7.4.3.5-.2.8.2l-.2.1c.4.2.8.3 1.2.6.4.2.8.4 1.3.4-.1 0-.1.1-.2.1.1.2.7.2.7.1.1 0 0 .1.1.2.2.1.5-.1.6.1h-.1c.1 0 .6.1.5-.1.3.1.6 0 .9.1.2-.1.6.1.6-.2 0 .2.6.1.8 0-.1.1.2 0 .1.1.2-.1.4-.1.4-.3.5.2.8-.4 1.1-.2.3-.2.6-.4.9-.5.3-.2.5-.4.8-.6.1.2-.6.4-.4.6.5-.4.7-.7 1.1-1.1.1-.1 0 .1 0 .2l.6-.6.2-.2s.1-.1.1-.2v.1s.1 0 0-.2V40.518c0-.1.1-.4.1-.4-.1.4.2.4 0 .8 0 0 .1 0 .1-.1v.2c.1 0 .1-.1.2 0 0 0-.1 0-.1.1.1 0 .3.1.4.3 0 0 0 .1-.1 0 .3.4.7.4 1 .9-.3.1.1.2 0 .3l.2.2v-.1c.2.2.5.2.6.4h-.2l.4.2-.2-.2c.3.1.1-.2.3 0-.1 0 .2.2.2.3.1 0 .3 0 .4.2 0 .1-.1.2-.1.2.2-.1.5.3.7.2-.1 0-.1.1-.1.1l.1-.1c.1.1.1.1 0 .2.3.2 0-.3.3 0h-.1c.3.2.7.2 1.1.4 0 .2-.3-.1-.3.1.5.2 1.1.1 1.6.3h-.1c.1-.2.4.2.6.1-.1 0-.1.1-.1.1.4.1.7 0 1.3 0l-.1.1c.2.1.6.1.8.1.1-.1.2-.1.1-.2.8.3 1.3-.4 2-.2-.1 0-.2.1-.1.1l.5-.2c-.1-.1-.1 0-.2-.1 0-.1.2-.2.3-.2-.2.1.1.2.2.2v-.1c.3.1 0-.2.3-.3v.1l.3-.3c.1.1-.1.1-.1.2.2-.1.3-.4.5-.4-.1.1-.2.1-.2.2.3 0 .3 0 .4-.1l.3-.2h-.1c0-.4.4-.4.5-.8-.1.4 0 .1.1.3.1 0 .2-.1.2 0 0-.2.3-.1.3-.4 0 0 .1-.1.2 0 .1-.2-.1 0-.1-.1.1-.2.2-.3.4-.5s.3-.5.2-.8c.6-.8.5-.9.3-1.1zm-.2-.5c0 .1 0 .1-.1.1l-.2-.2c.1.1.3.1.3.1zm-12.4-3.1v.1c.1 0 .1 0 0-.1zm-.1-.5v.2h-.1c.1 0 .1-.1.1-.2zm8.3 8.2v-.1h.2c-.1 0-.1.1-.2.1zm4.5-3.1v-.2s.1.1.1.2h-.1zM40.339 37.818v-.1zM57.439 43.218s0-.1 0 0zM43.139 40.918c0 .1 0 0 0 0zM46.339 43.218h-.2.2zM38.439 43.618zM56.939 39.218c0-.1 0 0 0 0zM56.739 39.218h.2-.2zM58.439 40.118c.1 0 .1.4.2.5 0-.2 0-.4-.2-.5z"/><path d="M48.139 44.318l.1.1.1-.1zM63.639 32.618v.1c0-.1.1-.2 0-.4v.3c0 .1 0 0 0 0s0-.1 0 0 0 .1 0 0zM63.939 32.418zM62.339 32.718c-.1 0-.1-.1 0 0-.1 0-.1 0 0 0zM63.939 32.418zM65.039 35.918c-.1 0-.1 0 0 0-.1 0-.1 0 0 0zM63.739 32.518z"/><path d="M62.639 32.518c-.1-.1-.1-.2-.1-.1-.1-.1-.1-.2-.1-.2-.1.1 0 .2.2.3-.1.1-.2-.1-.2-.2 0 .1.1.2 0 .2v-.1c.1.1-.1.1 0 .3l.2.2s.1.1 0 0v-.1.1c-.1-.1 0-.1-.1-.2 0 .1.1.2 0 .2-.1-.1 0-.1-.1-.2h.1l-.2-.2c-.1 0 0 .1-.1.1l.2.2c.1.2-.4-.2-.2 0 .1.1.2.2.1.2l-.1-.1c-.1 0 .2.2.1.2-.1-.1 0-.1 0-.1-.2 0 .1.1.1.1l-.1-.1c0 .1.1.2.1.3l-.1-.1c0 .1-.1.2-.2.3l.1.1h-.1c-.1 0 .1 0 .1.1h-.1c.1.1.2.2.1.3-.1 0 .3.1.2.1-.1.1.1.2-.2.3.2 0-.1.1.2.1-.1.1-.2.1-.3.2h.2-.2.2l-.2.1h.1c.1 0-.1.1-.2.2l.2.1h-.1c.2 0-.2.1 0 .1h.1c-.1.1-.1.1 0 .1h-.1c0 .1.1.1.2.2 0-.1.2-.1.2-.1l-.1.1c.1 0 0-.1.2-.1 0 0-.1.1-.2.1h.1s-.1 0-.1.1c.1 0-.1.2.1.1.1.1.1.1.2.1.1-.1.1 0 .2-.1v.2c.1 0 .1-.1.2-.1-.1.1 0 .1-.1.2h.2c0-.1 0-.1.1-.1v.1c.2-.1.1.5.3.3l.1-.1s-.1.1 0 .2c.2-.2.2.1.3 0 0 .4.2 0 .3.2v-.1 0c.2-.1.4.1.6.2.1 0-.1-.5.1-.3v.2c.1-.2.3-.1.4-.3v.1c.1.1.1-.1.1-.1l.1.1c.1 0 0-.2.1-.1 0-.1.1 0 0-.1.1 0 0-.1.1-.1-.1-.1.1 0 0-.2.2.2.2.1.1 0 0 .1.1 0 .1.1 0 0 0-.1-.1-.2.3.1-.1-.2.2-.1 0-.2-.1-.3-.1-.4.2.1 0 .1.2.2 0-.1-.2-.3-.1-.3 0 0 .1 0 .1.1 0-.1.1-.2 0-.3h.1l-.1-.1c-.1 0-.3-.1-.4-.1.3.1.1-.1.4.1h-.1.1c0-.1-.2-.1-.1-.1h.1c-.1 0-.2-.1-.1-.1h.1c0-.1-.2-.1-.1-.2h.3-.2l-.1-.1h.1v-.1H65.939l.1-.1h-.1.2c-.2 0 0-.1-.2-.1h.2-.1.1c0-.1-.2.1-.1 0h.1c0-.1-.1-.1-.1-.2.2-.1.1 0 .2 0-.1-.1-.3-.1-.3-.2-.2.1.1-.1 0-.1 0 0 .1-.1.1 0 0-.1-.1-.1-.2-.1h.1v-.1c-.1 0-.1 0-.1.1.2-.3-.3 0-.1-.3h.1-.1c-.1.1 0 .1-.1.1s-.1.1-.1.1c.1 0 .1-.1.2-.2l-.1.1c.1-.2-.2.2-.1 0 0 0-.1.1-.1 0 .1-.1.1 0 .1-.1l-.1.1h.1c.1-.1 0-.1 0-.1v-.1c-.2.3-.1 0-.3.2.1-.2.1-.1.1-.2v-.1c-.1.1 0-.1-.1 0v-.1s0 .1-.1.1c-.1.1-.1-.2-.2 0-.1.1-.1.2-.2.3v-.1c0-.1 0-.1-.1 0v-.1s0 .2-.1.1c0-.1 0-.1.1-.2 0 0-.1.1-.1.2v-.2l-.1.1v.1c0 .3.1 0 .1 0v.2h-.3v-.4c0-.1 0-.2-.1-.3v.1-.1c0-.1 0 0-.1.1v-.1.3c0-.1 0-.2-.1-.1v-.1c0 .1-.1 0-.1.2 0-.1-.1 0-.1-.2v.2c0-.3-.1 0-.2-.3 0 .2-.1.1-.1.3 0 0 0-.1 0 0l-.1-.1c.1.2 0 .2.1.4l-.2-.4c-.5-.6-.6-.5-.6-.4v-.2c0 .2-.1.1 0 .2zm-.7.9zm0 .1h.1-.1zm2.8-.4c0 .1-.1.1 0 0l-.1.1s0-.1.1-.1zm-.7-.4v0zm-.2 0v.1-.1zM63.739 32.618v-.1.1zM61.539 34.718zM64.439 32.618zM65.239 34.118zM65.139 35.818zM63.739 32.318zM63.739 32.418zM64.039 32.418s0-.1 0 0c0-.1 0 .1 0 0zM65.239 33.718h.1-.1zM64.639 38.118c0 .2 0 .1-.1.3v-.1.1c0 .1 0 .1.1 0V38.118zM64.839 38.118s0 .1 0 0zM63.139 38.418c0 .1.1.1 0 0zM64.839 38.218zM65.939 41.718s-.1-.1 0 0c-.1-.1-.1 0 0 0zM64.639 38.318zM64.639 38.418v-.1.1z"/><path d="M66.439 40.018h-.1l-.1-.1h.1v-.1H66.039l.1-.1h-.1.2c-.2 0 0-.1-.2-.1h.2-.1.1c0-.1-.2.1-.1 0h.1c0-.1-.1-.1-.1-.2.2-.1.1 0 .2 0-.1-.1-.3-.1-.3-.2-.2.1.1-.1 0-.1 0 0 .1-.1.1 0 0-.1-.1-.1-.2-.1h.1v-.1c-.1 0-.1 0-.1.1.2-.3-.3 0-.1-.3h.1-.1c-.1.1 0 .1-.1.1s-.1.1-.1.1c.1 0 .1-.1.2-.2l-.1.1c.1-.2-.2.2-.1 0 0 0-.1.1-.1 0 .1-.1.1 0 .1-.1l-.1.1h.1c.1-.1 0-.1 0-.1v-.1c-.2.3-.1 0-.3.2.1-.2.1-.1.1-.2v-.1c-.1.1 0-.1-.1 0v-.1s0 .1-.1.1c-.1.1-.1-.2-.2 0-.1.1-.1.2-.2.3v-.1c0-.1 0-.1-.1 0v-.1s0 .2-.1.1c0-.1 0-.1.1-.2 0 0-.1.1-.1.2v-.2l-.1.1v.1c0 .3.1 0 .1 0v.2h-.3v-.4c0-.1 0-.2-.1-.3v.1-.1c0-.1 0 0-.1.1v-.1.3c0-.1 0-.2-.1-.1v-.1c0 .1-.1 0-.1.2 0-.1-.1 0-.1-.2v.2c0-.3-.1 0-.2-.3 0 .2-.1.1-.1.3 0 0 0-.1 0 0l-.1-.1c.1.2 0 .2.1.4l-.2-.4c.1.1 0 .2.1.3-.1-.1 0 0-.1-.2.1.2 0 .1 0 .2-.1-.1-.1-.2-.1-.1-.1-.1-.1-.2-.1-.2-.1 0 .1.2.1.3 0 .1-.1-.1-.2-.2 0 .1.1.2 0 .2v-.1c.1.1-.1.1 0 .3l.2.2s.1.1 0 0v-.1.1c-.1-.1 0-.1-.1-.2 0 .1.1.2 0 .2-.1-.1 0-.1-.1-.2h.1l-.2-.2c-.1 0 0 .1-.1.1l.2.2c.1.2-.4-.2-.2 0 .1.1.2.2.1.2l-.1-.1c-.1 0 .2.2.1.2-.1-.1 0-.1 0-.1-.2 0 .1.1.1.1l-.1-.1c0 .1.1.2.1.3l-.1-.1c0 .1-.1.2-.2.3l.1.1h-.1c-.1 0 .1 0 .1.1h-.1c.1.1.2.2.1.3-.1 0 .3.1.2.1-.1.1.1.2-.2.3.2 0-.1.1.2.1-.1.1-.2.1-.3.2h.2-.2.2l-.2.1h.1c.1 0-.1.1-.2.2l.2.1h-.1c.2 0-.2.1 0 .1h.1c-.1.1-.1.1 0 .1h-.1c0 .1.1.1.2.2 0-.1.2-.1.2-.1l-.1.1c.1 0 0-.1.2-.1 0 0-.1.1-.2.1h.1s-.1 0-.1.1c.1 0-.1.2.1.1.1.1.1.1.2.1.1-.1.1 0 .2-.1v.2c.1 0 .1-.1.2-.1-.1.1 0 .1-.1.2h.2c0-.1 0-.1.1-.1v.1c.2-.1.1.5.3.3l.1-.1s-.1.1 0 .2c.2-.2.2.1.3 0 0 .4.2 0 .3.2v-.1 0c.2-.1.4.1.6.2.1 0-.1-.5.1-.3v.2c.1-.2.3-.1.4-.3v.1c.1.1.1-.1.1-.1l.1.1c.1 0 0-.2.1-.1 0-.1.1 0 0-.1.1 0 0-.1.1-.1-.1-.1.1 0 0-.2.2.2.2.1.1 0 0 .1.1 0 .1.1 0 0 0-.1-.1-.2.3.1-.1-.2.2-.1 0-.2-.1-.3-.1-.4.2.1 0 .1.2.2 0-.1-.2-.3-.1-.3 0 0 .1 0 .1.1 0-.1.1-.2 0-.3h.1l-.1-.1c-.1 0-.3-.1-.4-.1.3.1.1-.1.4.1h-.1.1c0-.1-.2-.1-.1-.1h.1c-.1 0-.2-.1-.1-.1h.1c0-.1-.2-.1-.1-.2-.3-.6-.4-.7-.3-.7zm-3.6-.8zm0 .1s0-.1 0 0h.1-.1zm2.8-.4l-.1.1.1-.1zm-.6-.4v.1c-.1 0-.1-.1 0-.1zm-.2-.1v.1-.1zM62.439 40.518h.1-.1zM65.339 38.418zM66.139 39.818s.1 0 0 0c.1 0 .1 0 0 0zM66.139 41.518zM64.739 38.118zM64.639 38.118zM64.939 38.118s0 .2 0 0c0 .1 0 0 0 0zM66.239 39.518h.1-.2zM68.239 33.718v.1c0-.1.1-.2.1-.4-.1.2-.1.1-.1.3 0 0-.1 0 0 0-.1-.1-.1-.1 0 0-.1.1 0 .1 0 0zM68.439 33.418s0 .1 0 0zM66.739 33.718s.1 0 0 0c0 0 .1-.1 0 0zM68.539 33.518s-.1 0 0 0c-.1 0-.1 0 0 0-.1 0-.1 0 0 0zM69.439 37.118s-.1-.1 0 0c-.1-.1-.1-.1 0 0z"/><path d="M70.139 35.418h-.1l-.1-.1h.1v-.1H69.739l.1-.1h-.1.2c-.2 0-.1-.1-.2-.1h.2-.1.1c0-.1-.2.1-.1 0h.1c0-.1-.1-.1-.1-.2.2-.1.1 0 .2 0-.1-.1-.3-.1-.3-.2-.2.1.1-.1 0-.1 0 0 .1-.1.1 0 0-.1-.1-.1-.2-.1h.1v-.1c-.1 0-.1 0-.1.1.2-.3-.3 0-.1-.3h.1-.1c-.1.1 0 .1-.1.1s-.1.1-.1.1c.1 0 .1-.1.2-.2l-.1.1c.1-.2-.2.2-.1 0 0 0-.1.1-.1 0 .1-.1.1 0 .1-.1 0 0-.2.2-.1 0h.1c.1-.1 0-.1 0-.1v-.1c-.2.3-.1 0-.3.2.1-.2.1-.1.1-.2v-.1c-.1.1 0-.1-.1 0v-.1s0 .1-.1.1c-.1.1 0-.2-.2-.1-.1.1-.1.2-.2.3 0-.1.1-.1.1-.1 0-.1 0-.1-.1 0v-.1s0 .2-.1.1c0-.1 0-.1.1-.2 0 0-.1.1-.1.2 0-.1 0-.1.1-.2l-.1.1v.1c0 .3.1 0 .1 0v.2h-.3v-.4-.3.1-.1.3c0-.1 0-.2-.1-.1v-.1c0 .1-.1 0-.1.2 0-.1-.1 0-.1-.2v.2c0-.3-.1 0-.1-.3 0 .2-.1.1-.1.3 0 0 0-.1 0 0l-.1-.1c.1.2 0 .2 0 .4-.1-.2-.1-.2-.1-.4.1.1 0 .2.1.3-.1-.1 0 0-.1-.2.1.2 0 .1 0 .2-.1-.1-.1-.2-.1-.1-.1-.1-.1-.2-.1-.2-.1 0 .1.2.1.3 0 .1-.1-.1-.2-.2v.1c0 .1-.1.1 0 .2l.2.2s0 .1 0 0v-.1.1c-.1-.1 0-.1-.1-.2v.2c-.1-.1 0-.1-.1-.2h.1l-.2-.2c-.1 0 0 .1-.1.1.1.1.1.1.1.2 0 .2-.4-.3-.2 0 .1.1.2.2.1.2l-.1-.1c-.1 0 .2.2 0 .2-.1-.1 0-.1 0-.1-.1-.1.1.1 0 .1l-.1-.1v.3l-.1-.1c0 .1-.1.2-.3.2l.1.1h-.1c-.1 0 .1 0 .1.1h-.1c.1.1.2.3 0 .3-.1 0 .3.1.1.1-.1.1.1.2-.2.4.2 0-.1.1.2.1-.1.1-.2.1-.3.2h.2-.2.2l-.2.1s.1 0 .1-.1c.1 0-.1.1-.1.2l.2.1h-.1c.2 0-.1.1 0 .1h.1c-.1.1-.1.1 0 .1h-.1c0 .1.1.1.2.2 0-.1.2-.1.2-.1l-.1.1c.1 0 0-.1.2-.1 0 0-.1.1-.2.1h.1s-.1 0-.1.1c.1 0-.1.2.1.1.1.1.1.1.2.1.1-.1.1 0 .2-.1v.2c.1 0 .1-.1.2-.1-.1.1 0 .1-.1.2.1 0 .1.1.2 0 0 0 0-.1.1-.1v.1c.2-.1.1.5.3.3l.1-.1s-.1.1-.1.2c.2-.2.2.1.3 0 0 .4.2 0 .3.3v-.1 0h.3c.1.1.2.1.4.1.1 0 0-.5.1-.3v.2c.1-.2.3-.1.4-.3v.1c.1.1.1 0 .1-.1 0 0 0 .1.1.1s0-.2.1-.1c0-.1.1 0 0-.1.1 0 .1-.1.1-.1-.1-.1.1 0 0-.2.1.2.2.1.1 0 0 .1.1 0 .1.1 0 0 0-.1-.1-.2.2.1-.1-.3.2 0v-.4c.2.1 0 .1.2.2 0-.1-.2-.3-.1-.3l.1.1c0-.1.1-.2 0-.3h.1l-.1-.1c-.1 0-.3-.2-.3-.2.3.1.1-.1.4.1 0 0-.1 0-.1-.1h.1c0-.1-.1-.1-.1-.1h.1c-.1-.1-.2-.1-.1-.1h.1c0-.1-.2-.2-.1-.2-.4-.1-.6-.2-.4-.2zm-3.8-1.1s0 .1 0 0c0 .1 0 0 0 0zm0 .1h.1c0 .1-.1.1-.1 0zm3-.2c-.1.1-.1.1 0 0l-.1.1s0-.1.1-.1zm-.7-.4v.1-.1zm-.2-.1v.1-.1zM69.839 35.218z"/><path d="M68.339 33.718v-.1s-.1 0 0 .1zM68.339 33.618zM65.939 35.718zM69.039 33.718zM70.039 36.018c0 .1 0 .1 0 0zM69.839 35.218c.1 0 .1 0 0 0zM69.639 36.918zM68.339 33.418zM68.339 33.518c0-.1 0-.1 0 0zM68.639 33.518s0-.1 0 0c0-.1-.1.1 0 0zM69.839 34.918l.1-.1h-.1zM25.039 30.918v.1c0-.1.1-.2.1-.4-.1.2-.1.1-.1.3 0 0 0-.1 0 0 0-.1-.1-.2 0 0-.1.1 0 .1 0 0zM25.339 30.618c-.1 0-.1 0 0 0zM23.539 30.818c.1.1.1.1 0 0 .1.1.1 0 0 0zM25.339 30.618c-.1.1-.1.1 0 0 0 .1 0 0 0 0zM26.239 34.318c0-.1-.1-.1 0 0-.1-.1-.1-.1 0 0zM25.139 30.818s0-.1 0 0z"/><path d="M26.939 32.618h-.1l-.1-.1h.1v-.1H26.539l.1-.1h-.1.2c-.2 0-.1-.1-.2-.1h.2-.1.1c0-.1-.2.1-.1 0h.1c0-.1-.1-.1-.1-.2.2-.1.1 0 .2 0-.1-.1-.3-.1-.3-.2-.2.1.1-.1 0-.1 0 0 .1-.1.1 0 0-.1-.1-.1-.2-.1h.1v-.1c-.1 0-.1 0-.1.1.2-.3-.3 0-.1-.3h.1-.1c-.1.1 0 .1-.1.1s-.1.1-.1.1c.1 0 .1-.1.2-.2l-.1.1c.1-.2-.2.2-.1 0 0 0-.1.1-.1 0 .1-.1.1 0 .1-.1 0 0-.2.2-.1 0h.1c.1-.1 0-.1 0-.1v-.1c-.2.3-.1 0-.3.2.1-.2.1-.1.1-.2v-.1c-.1.1 0-.1-.1 0v-.1s0 .1-.1.1c-.1.1 0-.2-.2-.1-.1.1-.1.2-.2.3 0-.1.1-.1.1-.1 0-.1 0-.1-.1 0v-.1s0 .2-.1.1c0-.1 0-.1.1-.2 0 0-.1.1-.1.2 0-.1 0-.1.1-.2l-.1.1v.1c0 .3.1 0 .1 0v.2h-.3v-.4-.3.1-.1.3c0-.1 0-.2-.1-.1v-.1c0 .1-.1 0-.1.2 0-.1-.1 0-.1-.2v.2c0-.3-.1 0-.1-.3 0 .2-.1.1-.1.3 0 0 0-.1 0 0l-.1-.1c.1.2 0 .2 0 .4-.1-.2-.1-.2-.1-.4.1.1 0 .2.1.3-.1-.1 0 0-.1-.2.1.2 0 .1 0 .2-.1-.1-.1-.2-.1-.1-.1-.1-.1-.2-.1-.2-.1 0 .1.2.1.3 0 .1-.1-.1-.2-.2v.1c0 .1-.1.1 0 .2l.2.2s0 .1 0 0v-.1.1c-.1-.1 0-.1-.1-.2v.2c-.1-.1 0-.1-.1-.2h.1l-.2-.2c-.1 0 0 .1-.1.1.1.1.1.1.1.2 0 .2-.4-.3-.2 0 .1.1.2.2.1.2l-.1-.1c-.1 0 .2.2 0 .2-.1-.1 0-.1 0-.1-.1-.1.1.1 0 .1l-.1-.1v.3l-.1-.1c0 .1-.1.2-.3.2l.1.1h-.1c-.1 0 .1 0 .1.1h-.1c.1.1.2.3 0 .3-.1 0 .3.1.1.1-.1.1.1.2-.2.4.2 0-.1.1.2.1-.1.1-.2.1-.3.2h.2-.2.2l-.2.1s.1 0 .1-.1c.1 0-.1.1-.1.2l.2.1h-.1c.2 0-.1.1 0 .1h.1c-.1.1-.1.1 0 .1h-.1c0 .1.1.1.2.2 0-.1.2-.1.2-.1l-.1.1c.1 0 0-.1.2-.1 0 0-.1.1-.2.1h.1s-.1 0-.1.1c.1 0-.1.2.1.1.1.1.1.1.2.1.1-.1.1 0 .2-.1v.2c.1 0 .1-.1.2-.1-.1.1 0 .1-.1.2.1 0 .1.1.2 0 0 0 0-.1.1-.1v.1c.2-.1.1.5.3.3l.1-.1s-.1.1-.1.2c.2-.2.2.1.3 0 0 .4.2 0 .3.3v-.1 0h.3c.1.1.2.1.4.1.1 0 0-.5.1-.3v.2c.1-.2.3-.1.4-.3v.1c.1.1.1 0 .1-.1 0 0 0 .1.1.1s0-.2.1-.1c0-.1.1 0 0-.1.1 0 .1-.1.1-.1-.1-.1.1 0 0-.2.1.2.2.1.1 0 0 .1.1 0 .1.1 0 0 0-.1-.1-.2.2.1-.1-.3.2 0v-.4c.2.1 0 .1.2.2 0-.1-.2-.3-.1-.3l.1.1c0-.1.1-.2 0-.3h.1l-.1-.1c-.1 0-.3-.2-.3-.2.3.1.1-.1.4.1 0 0-.1 0-.1-.1h.1c0-.1-.1-.1-.1-.1h.1c-.1-.1-.2-.1-.1-.1h.1c0-.1-.2-.2-.1-.2-.4-.1-.6-.2-.4-.2zm-3.7-1.1zm-.1.1h0zm3-.2s-.1.1 0 0l-.1.1s0-.1.1-.1zm-.7-.4v.1-.1zm-.2-.1v.1-.1zM25.139 30.918v-.1.1zM22.739 32.918zM25.839 30.918zM26.839 33.218c0 .1 0 0 0 0zM26.639 32.418c.1 0 .1 0 0 0zM26.439 34.118zM25.139 30.618zM25.139 30.718c0-.1 0-.1 0 0zM25.439 30.718s0-.1 0 0c0-.1 0 .1 0 0zM26.739 32.018h-.1zM20.239 31.018v.1c0-.1.1-.2 0-.4v.3c-.1.1-.1 0 0 0-.1 0-.1-.1 0 0-.1.1-.1.1 0 0zM20.439 30.818zM18.739 31.118s.1 0 0 0c0 0 .1-.1 0 0zM20.439 30.818zM21.539 34.318s-.1 0 0 0c-.1 0-.1 0 0 0zM20.239 31.018v-.1.1zM20.239 30.918z"/><path d="M19.439 34.518s-.1.1 0 .2c.2-.2.2.1.3 0 0 .4.2 0 .3.2v-.1 0c.2-.1.4.1.6.2.1 0-.1-.5.1-.3v.2c.1-.2.3-.1.4-.3v.1c.1.1.1-.1.1-.1l.1.1c.1 0 0-.2.1-.1 0-.1.1 0 0-.1.1 0 0-.1.1-.1-.1-.1.1 0 0-.2.2.2.2.1.1 0 0 .1.1 0 .1.1 0 0 0-.1-.1-.2.3.1-.1-.2.2-.1 0-.2-.1-.3-.1-.4.2.1 0 .1.2.2 0-.1-.2-.3-.1-.3 0 0 .1 0 .1.1 0-.1.1-.2 0-.3h.1l-.1-.1c-.1 0-.3-.1-.4-.1.3.1.1-.1.4.1h-.1.1c0-.1-.2-.1-.1-.1h.1c-.1 0-.2-.1-.1-.1h.1c0-.1-.2-.1-.1-.2h.3-.2l-.1-.1h.1v-.1H21.639l.1-.1h-.1.2c-.2 0 0-.1-.2-.1h.2-.1.1c0-.1-.2.1-.1 0h.1c0-.1-.1-.1-.1-.2.2-.1.1 0 .2 0-.1-.1-.3-.1-.3-.2-.2.1.1-.1 0-.1 0 0 .1-.1.1 0 0-.1-.1-.1-.2-.1h.1v-.1c-.1 0-.1 0-.1.1.2-.3-.3 0-.1-.3h.1-.1c-.1.1 0 .1-.1.1s-.1.1-.1.1c.1 0 .1-.1.2-.2l-.1.1c.1-.2-.2.2-.1 0 0 0-.1.1-.1 0 .1-.1.1 0 .1-.1l-.1.1h.1c.1-.1 0-.1 0-.1v-.1c-.2.3-.1 0-.3.2.1-.2.1-.1.1-.2v-.1c-.1.1 0-.1-.1 0v-.1s0 .1-.1.1c-.1.1-.1-.2-.2 0-.1.1-.1.2-.2.3v-.1c0-.1 0-.1-.1 0v-.1s0 .2-.1.1c0-.1 0-.1.1-.2 0 0-.1.1-.1.2v-.2l-.1.1v.1c0 .3.1 0 .1 0v.2h-.3v-.4c0-.1 0-.2-.1-.3v.1-.1c0-.1 0 0-.1.1v-.1.3c0-.1 0-.2-.1-.1v-.1c0 .1-.1 0-.1.2 0-.1-.1 0-.1-.2v.2c0-.3-.1 0-.2-.3 0 .2-.1.1-.1.3 0 0 0-.1 0 0l-.1-.1c.1.2 0 .2.1.4l-.2-.4c.1.1 0 .2.1.3-.1-.1 0 0-.1-.2.1.2 0 .1 0 .2-.1-.1-.1-.2-.1-.1-.1-.1-.1-.2-.1-.2-.1 0 .1.2.1.3 0 .1-.1-.1-.2-.2 0 .1.1.2 0 .2v-.1c.1.1-.1.1 0 .3l.2.2s.1.1 0 0v-.1.1c-.1-.1 0-.1-.1-.2 0 .1.1.2 0 .2-.1-.1 0-.1-.1-.2h.1l-.2-.2c-.1 0 0 .1-.1.1l.2.2c.1.2-.4-.2-.2 0 .1.1.2.2.1.2l-.1-.1c-.1 0 .2.2.1.2-.1-.1 0-.1 0-.1-.2 0 .1.1.1.1l-.1-.1c0 .1.1.2.1.3l-.1-.1c0 .1-.1.2-.2.3l.1.1h-.1c-.1 0 .1 0 .1.1h-.1c.1.1.2.2.1.3-.1 0 .3.1.2.1-.1.1.1.2-.2.3.2 0-.1.1.2.1-.1.1-.2.1-.3.2h.2-.2.2l-.2.1h.1c.1 0-.1.1-.2.2l.2.1h-.1c.2 0-.2.1 0 .1h.1c-.1.1-.1.1 0 .1h-.1c0 .1.1.1.2.2 0-.1.2-.1.2-.1l-.1.1c.1 0 0-.1.2-.1 0 0-.1.1-.2.1h.1s-.1 0-.1.1c.1 0-.1.2.1.1.1.1.1.1.2.1.1-.1.1 0 .2-.1v.2c.1 0 .1-.1.2-.1-.1.1 0 .1-.1.2h.2c0-.1 0-.1.1-.1v.1c.2-.1.1.5.3.3l-.4-.8zm-1-2.7zm0 .1h.1-.1zm2.8-.4s0 .1 0 0l-.1.1c.1 0 .1-.1.1-.1zm-.6-.4v.1c-.1 0 0 0 0-.1zm-.2-.1v.1-.1zM18.039 33.118h.1-.1zM20.939 31.018z"/><path d="M21.739 32.518s.1 0 0 0c.1 0 .1-.1 0 0zM21.739 34.118v.1zM20.339 30.718zM20.239 30.818zM20.539 30.818s0-.1 0 0c0-.1 0 .1 0 0zM21.839 32.118h.1-.2zM23.639 37.618c0 .2 0 .1-.1.3v-.1.1c0 .1 0 .1.1 0v.1c-.1-.1 0-.3 0-.4zM23.839 37.618zM22.039 37.918c.1.1.1.1 0 0 .1 0 .1 0 0 0zM23.839 37.618s0 .1 0 0zM24.939 41.318c-.1-.1-.1-.1 0 0-.1-.1-.1-.1 0 0zM23.639 37.918v-.1.1zM23.639 37.718z"/><path d="M22.339 38.218s.1.1 0 0c-.2-.1-.1-.1-.2-.2 0 .1.1.2 0 .2-.1-.1 0-.1-.1-.2h.1l-.2-.2c-.1 0 0 .1-.1.1l.2.2c.1.2-.4-.2-.3 0 .1.1.2.2.1.2l-.1-.1c-.1 0 .2.2.1.2-.1-.1 0-.1 0-.1-.2 0 .1.1.1.1l-.1-.1v.3l-.1-.1c0 .1-.1.2-.2.3l.1.1h-.1c-.1 0 .1 0 .1.1h-.1c.1.1.2.2.1.3-.1.1.3.1.2.1-.1.1.1.2-.2.3.2 0-.1.1.2.1-.1.1-.2.1-.3.2h.2-.2.2l-.2.1s.1 0 .1-.1c.1 0-.1.1-.1.2l.2.1h-.1c.2 0-.1.1 0 .1h.1c-.1.1-.1.1 0 .1h-.1c0 .1.1.1.2.2 0-.1.2-.1.2-.1l-.1.1c.1 0 0-.1.2-.1 0 0-.1.1-.2.1h.1s-.1 0-.1.1c.1 0-.1.2.1.1.1.1.1.1.2.1.1-.1.1 0 .2-.1v.2c.1 0 .1-.1.2-.1-.1.1 0 .1-.1.2h.2s0-.1.1-.1v.1c.2-.1.1.5.3.3l.1-.1s-.1.1-.1.2c.2-.2.2.1.3 0 0 .4.2 0 .3.3v-.1 0c.2-.1.4.1.7.1.1 0-.1-.5.1-.3v.2c.1-.2.3-.1.4-.3v.1c.1.1.1-.1.1-.1l.1.1c.1 0 0-.2.1-.1 0-.1.1 0 0-.1.1 0 0-.1.1-.1-.1-.1.1 0 0-.2.2.2.2.1.1 0 0 .1.1 0 .1.1 0 0 0-.1-.1-.2.3.1-.1-.2.2-.1 0-.2 0-.3-.1-.4.2.1 0 .1.2.2 0-.1-.2-.3-.1-.3 0 0 .1 0 .1.1 0-.1.1-.2 0-.3h.1l-.1-.1c-.2 0-.3-.1-.4-.2.3.1.1-.1.4.1h-.1.1c0-.1-.2-.1-.1-.1h.1c-.1 0-.2-.1-.1-.1h.1c0-.1-.2-.1-.2-.2h.3-.2l-.1-.1h.1v-.1H25.339l.1-.1c-.1 0-.1 0-.1-.1h.2c-.2 0-.1-.1-.2-.1h.2-.1.1c0-.1-.2.1-.1 0h.1c0-.1-.1-.1-.1-.2.2-.1.1 0 .2 0-.1-.1-.3-.1-.3-.2-.2.1.1-.1 0-.1 0 0 .1-.1.1 0 0-.1-.1-.1-.2-.1h.1v-.1c-.1 0-.1 0-.1.1.2-.3-.3 0-.1-.3h.1-.1c-.1.1 0 .1-.1.1s-.1.1-.1.1c.1 0 .1-.1.2-.2l-.1.1c.1-.2-.2.2-.1 0 0 0-.1.1-.1 0 .1-.1.1 0 .1-.1 0 0-.2.2-.1 0h.1c.1-.1 0-.1 0-.1v-.1c-.2.3-.1 0-.3.2.1-.2.1-.1.1-.2v-.1c-.1.1 0-.1-.1 0v-.1s0 .1-.1.1c-.1.1 0-.2-.2-.1-.1.1-.1.2-.2.3 0-.1.1-.2.1-.2 0-.1 0-.1-.1 0v-.1s0 .2-.1.1c0-.1 0-.1.1-.2 0 0-.1.1-.1.2 0-.1 0-.1.1-.2l-.1.1v.1c0 .3.1 0 .1 0v.2h-.3v-.4c0-.1 0-.2-.1-.3v.1-.1c0-.1 0 0-.1.1v-.1 0c0 .1.1.2 0 .3 0-.1 0-.2-.1-.1v-.1c0 .1-.1 0-.1.2-.1-.1-.1.1-.1-.2v.2c0-.3-.1 0-.2-.3 0 .2-.1.1-.1.3 0 0 0-.1 0 0l-.1-.1c.1.2 0 .2.1.4l-.2-.4c.1.1 0 .2.1.3-.1-.1 0 0-.1-.2.1.2 0 .1 0 .2-.1-.1-.1-.2-.1-.1l-.1-.1c-.1 0 .1.2.1.3 0 .1-.1-.1-.2-.2 0 .1.1.2 0 .2v-.1c.1.1-.1.1 0 .2-.3 0-.2.1-.2.1zm-.6.5zm0 .1s0-.1 0 0h.1-.1zm2.9-.4s-.1 0 0 0l-.1.1c0-.1.1-.1.1-.1zm-.6-.4v.1c-.1-.1-.1-.1 0-.1zm-.2-.1v.1-.1zM21.339 40.018h.1-.1zM24.339 37.818c0 .1 0 .1 0 0z"/><path d="M25.139 39.418c.1 0 .1 0 0 0 .1 0 .1-.1 0 0zM25.139 41.118h-.1zM23.639 37.618zM23.639 37.618zM23.939 37.718c0-.1 0-.2 0 0 0-.2 0 0 0 0zM25.239 39.018h.1-.2zM94.539 46.418s0-.1-.1-.1c-.1.1-.1.2 0 .3h-.1c.1.1.3.1.4 0-.2 0-.1-.1-.3-.1l.1-.1zM95.039 47.518c0-.1 0-.1 0 0zM89.439 45.818s.1 0 .1.1c-.1-.1.1-.2-.1-.1zM95.039 47.518s-.1 0 0 0zM82.739 56.618l-.1-.1.1.1z"/><path d="M95.639 50.318c-.4-.1-.1-.3-.4-.5.3.2.1 0 .3 0 0-.1.1-.2.1-.1-.1-.1.1-.2-.1-.3 0 0 0-.1.1-.1-.1-.1-.1.1-.1.1-.2-.2.1-.6-.2-.8-.1-.2-.3-.3-.4-.4v-.1c.1-.1.2 0 .2 0 0-.2 0-.3-.1-.4 0 0 .1 0 .1-.1s-.2 0-.2-.2h.2l-.3-.3c.1-.1.1 0 .2.1-.1-.1-.2-.3-.3-.3v.1s.1-.1.1 0c.1.1 0 .2 0 .2l-.1-.1c-.3.2.1.3.2.5h-.2c-.1-.5-.3-1-.3-1.4h.2v.1h.2l-.1-.1c.1 0 .2-.1.2-.3l-.2-.2v-.1l.1.2c0-.2-.1-.2-.2-.3v-.2l-.4-.1c0-.1.2 0 .1-.2-.2 0 0 .2-.2.2 0-.2 0-.2-.1-.2 0-.1.1-.1.1-.1h-.1-.1c0-.2-.4-.2-.3-.4h-.4c.3-.2-.5-.1-.4-.4-.2.2-.7.2-.9.4v-.1c-.2.1-.2 0-.4 0 .1.2 0 .3-.1.5-.2-.1 0-.2-.2-.4.1.1-.1.3 0 .4-.2 0-.1 0-.3-.1.1.2-.1.1-.1.3-.2 0-.2-.2-.3 0-.1 0 0-.2 0-.2-.2.1 0 .2 0 .3-.2.2-.2-.1-.3-.1-.1.1-.1.3-.2.4v-.1c-.1.2-.4.2-.4.5l.2.2c-.1 0-.1.2-.2.1v-.1l-.1.1c-.2-.1.1-.1 0-.2-.1.1-.2.4-.4.4-.1-.1.2-.2 0-.2h.2c-.3-.2.1 0-.2-.2-.3.1-.2.2-.5.3 0 .1.1.1.1.2-.3.3-.5-.2-.6.1 0 .1.1.3-.2.3v-.2c-.2.1 0 .3-.3.3 0-.1.2-.2.1-.2-.2-.1-.1.2-.2.2l-.1-.1c-.2.1-.5.4-.7.6 0-.1 0-.1-.1-.1-.3.2-.8.3-1.1.4l-.1.2s-.1 0-.1-.1c-.2 0 0 .1 0 .2-.1 0-.1 0-.1-.1-.2.2-.6.5-.9.5v-.1c-.2 0-.1.4-.3.3-.5.1-.9.4-1.3.3 0 .2-.5.1-.4.3-.3-.1-.2-.1-.6-.1-.1 0-.1.2-.2.3l-.1-.1-.1.2-.1-.1-.1.1s.1 0 .1.1c-.2.1-.5 0-.5 0l-.4.3c0-.1.1-.1.1-.2-.2.2-.1-.1-.2.1v.1c-.1-.1-.4 0-.5.1v-.1c-.3.1-.6.3-1 .4.1 0 .2.2.1.2l-.1-.1c0 .1.1 0 0 .2-.1 0-.2-.1-.1-.2l-.1.1v-.1c0 .1-.3 0-.4.2-.3.1-.5.3-.7.4.1.1-.1.2-.1.3-.2.1-.5.1-.7.2-.1.2 0 .1 0 .2-.1-.1-.3.1-.2-.1-.3.2-.3.2-.6.6.1 0 .1 0 .1.1s-.2.1-.2 0c-.1.2-.4.2-.7.5-.3.2-.5.6-.4.9l.1.5c0 .2-.1-.1-.2 0 .3.5.2.8.5 1.2-.1.2.2.5.6.7.2.1.5.1.6.3v-.1c.1 0 .1.1.1.1 0-.1-.1-.1 0-.1.8.2 1.5.6 2.3.8.3.1.2-.4.6-.2l-.1.2c.6-.1 1.2.1 1.8-.1 0 0 0 .1-.1.1.1.1.4 0 .4-.1.1 0 0 .1.1.1.1.1.3-.2.4 0l-.1.1c.1-.1.4 0 .3-.1.2.1.4-.1.6 0 .1-.2.4 0 .4-.2 0 .2.4.1.5 0 0 .1.1.1.1.2.2 0 .3-.1.2-.2.3.2.5-.3.7 0 .4-.2.8-.3 1.2-.5 0 .2-.4.1-.4.3.4-.2.5-.4.9-.4.1 0 0 .1-.1.2.4-.2.7-.1 1-.3 0 0 0 .1-.1.1.1 0 .2 0 .1-.1h-.1c-.1-.1.2-.4.2-.4 0 .3.3 0 .2.4 0 0 .1-.1.1-.2.1 0 .1 0 .1.1.2-.1.1-.2.3-.2v.1c.1-.1.2-.2.4-.2v.1c.3-.1.5-.4.8-.4 0 .2.1 0 .2.2l.2-.1-.1-.1c.2 0 .3-.2.4-.2l-.1.1.3-.1h-.2c.1-.1-.1-.2.1-.2h.3c.1-.1.1-.2.3-.1 0 .1 0 .2.1.2 0-.2.4-.1.4-.3v.2-.1c.1 0 .1 0 .1.1.2 0-.1-.2.2-.2v.1c.3 0 .5-.2.7-.2.1.2-.2.1-.1.2.3-.1.7-.4 1-.5h-.1c0-.3.3 0 .4-.1v.1c.2 0 .5-.2.7-.5v.1c.2 0 .4-.2.5-.3 0-.1.1-.1 0-.2.3 0 .5-.3.5-.5.1-.2.1-.5.3-.6v.1s.1-.4 0-.4-.1 0-.2.1c-.1-.1-.1-.2-.1-.3 0 .2.2 0 .3 0h-.1c.2-.2-.2-.1-.1-.3h.1c0-.1-.1-.2-.1-.3.1 0 .1.1.2.1 0-.2-.2-.3-.1-.4 0 .1 0 .1.1.2.2-.1.1-.2.1-.3l.4-.8zm-.6-1.7l-.1.1v-.1h.1zm-.2-.9l-.1.1v-.2l.1.1zm-8-.3zm-.2.1v.1h-.2c.1 0 .1 0 .2-.1zm8.2 4.9c0-.1.1-.1 0 0 .1-.1.1 0 .1.1 0-.1 0-.1-.1-.1z"/><path d="M81.539 49.218v.1l.1-.1zM95.539 49.818zM87.239 55.718c-.1.1-.1.1 0 0zM90.339 54.618c0 .1-.1.1 0 0 0 .1 0 .1 0 0zM83.639 56.618h-.1zM94.839 46.818zM94.839 46.818zM95.139 48.018c0-.1.1-.2 0-.3.1.1-.1.3 0 .3zM91.839 54.518v-.1h-.1zM22.339 50.318c.1.2 0 .1.2.3 0 .1-.1.1-.1 0 0 0-.1.1 0 .1.2 0 .2-.1.1-.2 0 0 .1 0 .1.1-.1-.1-.1-.3-.3-.3zM22.939 49.718zM20.939 54.918h.1c-.1 0-.1-.2-.1 0zM22.939 49.718s0 .1 0 0zM24.139 61.618c-.1 0-.1 0-.1.1 0-.1 0-.1.1-.1z"/><path d="M25.639 51.418c-.1 0-.1-.1-.1-.2.1.1.2 0 .2-.1h-.1c.2-.2-.2 0-.1-.2h.1l-.2-.2c.1-.1.1 0 .2 0 0-.1-.3-.1-.3-.3.1 0 .1.1.1.1.1-.2 0-.2 0-.3l-.1-.2v.1c-.3.1-.3-.2-.6-.1.3-.1.1-.1.2-.2 0-.1-.1-.1 0-.2-.2.1-.1-.2-.3-.1 0 0-.1 0 0-.1-.1 0 0 .1 0 .1-.2.1-.4-.3-.8-.1-.2.1-.3.2-.4.4-.1-.1 0-.2 0-.2-.1 0-.2 0-.3.1 0 0 0-.1-.1-.1-.1.1 0 .2-.1.2v-.2c-.1.1-.1.2-.2.4-.1 0 0-.1 0-.2-.1.1-.2.3-.1.4h.1l-.1-.1c0-.2.2-.1.2-.1v.1c.3.1.2-.2.3-.3v.2c-.3.2-.5.4-.6.8-.1 0-.2-.1-.2-.1l-.1-.1v.1c-.1 0-.2 0-.3.1l.1.2h-.1v-.1c-.1 0 0 .1 0 .2h-.1l.2.2c-.1 0-.2-.1-.2 0 .1.1.2 0 .2.1-.1 0-.2 0-.1.1-.1 0-.1 0-.1-.1 0 .1 0 .2.1.3-.1 0 0 .3-.2.2l.1.2c-.2-.2-.1.3-.3.2.2.2 0 .4.1.6v-.1c0 .1-.1.1-.2.1.2.1.2.2.3.3-.2.1-.2-.1-.4-.1.2 0 .1.2.2.2-.1.1-.1.1-.2.1.2.1 0 .1.2.2-.1.1-.2 0-.2.1-.1.1-.1-.1-.1-.1 0 .1.2.1.3.2 0 .2-.2 0-.3.1 0 .1.2.2.1.3h-.1c.1.1-.1.3.1.5h.3c0 .1.1.1 0 .1 0 0 0-.1-.1-.1v.1c-.2 0 0-.1-.2-.1 0 .1.1.3.1.4-.2 0 0-.2-.2-.1l.1-.1c-.3.1 0-.1-.3 0-.1.2 0 .2-.1.4.1.1.1 0 .2.1.1.3-.5.1-.3.4.1.1.3.1.2.3l-.2-.1c-.1.2.2.2.1.4-.1-.1 0-.2-.1-.1-.2.1.1.1.1.2h-.2c0 .2.1.5.1.7 0 0-.1-.1-.2 0 0 .3-.1.6-.3.9l.1.1h-.1c-.1.1.1 0 .1.1s-.1.1-.1 0c.1.2.2.6 0 .8-.1.2.3.2.1.4-.1.3 0 .8-.3 1 .2.1-.1.3.1.4-.2.2-.2.1-.3.4 0 .1.2.1.2.2h-.2l.1.1h-.2v.1l.1-.1c.1.1-.1.3-.2.3l.1.3c-.1 0-.1-.1-.1-.1.1.2-.2 0 0 .2h.1c-.1.1-.1.3-.1.4h-.1v.8c.1-.1.2-.1.2 0h-.2c.1.1.1-.1.2 0 0 .1-.2.1-.2 0v.1h-.1c.1.1-.2.2 0 .3v.6c.1 0 .1.1.2.2-.1.2-.2.3-.2.6.1.2.1.1.2.1-.1 0-.1.3-.2.2.1.3.1.4.4.8 0-.1 0-.1.1-.1v.2c.2.1.3.4.5.6s.4.4.6.3l.4-.1c.2 0-.1.1 0 .2.4-.2.6 0 .9-.3.2.1.4 0 .6-.2.2-.2.3-.4.5-.5h-.1c0-.1.1-.1.2-.1-.1 0-.1.1-.1 0 .1-.2.1-.4.2-.6 0-.2.1-.3.1-.5.1-.3.2-.6.2-.8 0-.2-.4-.2-.2-.4l.2.1c-.2-.4.1-.9 0-1.3 0 0 .1 0 .1.1.1-.1 0-.3-.1-.3 0-.1.1 0 .1 0 .1-.1-.1-.2 0-.3-.1-.1 0-.3-.1-.2.1-.1 0-.3.1-.4-.1-.1.1-.3-.1-.3.2 0 .2-.2.1-.4.1 0 .1-.1.2 0 0-.1 0-.2-.1-.2.3-.2-.2-.4.2-.5-.1-.3-.1-.7-.1-1 .2 0 0 .3.2.4-.1-.3-.2-.5-.1-.8 0-.1.1.1.1.1 0-.3.1-.5 0-.8l.1.1s.1-.1 0-.1v.1c-.2.1-.3-.2-.3-.3.3.1.1-.2.5 0l-.1-.1s.1-.1.1 0c0-.2-.1-.1-.1-.3 0 0 .1 0 .1.1-.1-.1-.2-.2-.1-.3h.1c0-.2-.2-.4 0-.7.2.1.1-.1.3 0v-.1h-.1c0-.1-.1-.2 0-.3l.1.1v-.2l-.1.1c-.1-.1-.2 0-.1-.2 0 0 0-.1.1-.2 0-.1-.1-.1 0-.2.1 0 .2.1.2.1-.1-.1 0-.3-.1-.4l.1.1-.1-.1h.1c.1-.2-.2 0-.1-.2v.1c.1-.2 0-.4.1-.6.2 0 0 .2.2.1 0-.3-.1-.6 0-.8-.2-.1.2-.2.1-.3l.1.1c.1-.2 0-.4 0-.6h.1c.1-.1.1-.3.2-.4-.1 0 0-.1-.1-.1.5-.3 0-.6.4-.9v.1-.3c-.6-.4-.6-.3-.6-.3zm-1.6-1.5h-.1s0-.1.1-.1c-.1 0-.1 0 0 .1zm-.9 0l.1.1s-.1 0-.1.1v-.2zm-2.5 7.3zm0 .2c.1 0 .1.1 0 0 .1 0 0 .1 0 .1v-.1zm4.7-5.5s0-.1 0 0c.1-.1.1 0 .1 0h-.1z"/><path d="M19.739 61.518h.1l-.1-.1zM25.039 49.918zM24.439 58.218c.1.1 0 .1 0 0zM24.639 55.718c0 .1 0 .1 0 0 .1.1.1.1 0 0zM24.239 60.918v.1zM22.439 50.118zM22.439 50.218zM23.439 49.518c-.1 0-.2-.1-.3 0 .1 0 .3.1.3 0zM24.939 54.718h.1l-.1-.1zM32.339 54.118c0 .1-.1.1-.1 0 0 0-.1.1 0 .1.2.1.2 0 .1-.1.1 0 .1 0 0 0 0-.1 0-.2-.2-.2l.2.2zM32.539 53.318s0 .1 0 0c0 .1 0 0 0 0zM31.239 57.818h.1c0-.1 0-.2-.1 0zM32.639 53.318s-.1 0 0 0c0 0 0 .1 0 0zM35.139 62.518s0 .1 0 0c-.1.1 0 .1 0 0zM32.339 53.818z"/><path d="M35.639 55.118c-.1 0 0-.1-.2-.1.2-.1.1-.3.1-.5-.1-.1-.2-.2-.1-.4 0 0 .1.1.1 0l-.2-.2c-.1.1 0 .1-.1.2-.1 0-.2 0-.2-.1.1 0 .2-.1.2-.2 0 0-.1 0-.1.1.1-.2-.2.1-.2-.1-.1 0-.2 0-.2-.1.1-.1.1 0 .2-.1-.1-.1-.3.1-.3-.1h.2c0-.2 0-.2-.1-.2l-.1-.1v.1c-.3.2-.3-.1-.5.1.2-.2.1-.1.1-.2s-.1-.1 0-.2c-.1.1-.1-.1-.3 0 0 0-.1 0-.1-.1-.1 0 0 .1 0 .1-.2.1-.4-.2-.6 0-.2.1-.2.3-.2.4-.1 0 0-.2 0-.2-.1 0-.2 0-.2.1 0 0 0-.1-.1-.1-.1.1.1.2 0 .2 0-.1-.1-.1-.1-.2 0 .1 0 .2-.1.3-.1 0-.1-.1-.1-.2 0 .1-.1.2 0 .3 0-.1.1-.1.1 0v.1c.3.1.1-.2.2-.3l.1.2c-.2.2-.3.4-.4.8-.1 0-.2 0-.2-.1l-.2-.1v.1c-.1 0-.2 0-.3.1l.1.2h-.1v-.1c-.1 0 0 .1 0 .2h-.1l.2.2c-.1 0-.2-.1-.2 0 .1.1.2 0 .3.1-.1 0-.2 0-.1.1-.1 0-.1 0-.1-.1.1.1 0 .2.1.2-.1 0 0 .2-.2.2 0 0 .2.1.2.2-.2-.1-.1.2-.3.1.2.1.1.3.2.5 0 0-.1 0 0 0 0 .1-.1.1-.2.1.2 0 .2.2.3.3-.2.1-.2-.1-.4-.1.2 0 .1.2.3.2-.1.1-.1.1-.2.1.2 0 0 .1.2.2-.1.1-.2 0-.2.1-.1 0-.2-.1-.2-.1 0 .1.2.1.3.1 0 .1-.1 0-.2.1 0 .1.2.2.2.3h-.1c.1.1 0 .3.1.4h.3c0 .1.1.1 0 .1l-.1-.1v.1c-.2 0-.1-.1-.2-.1 0 .1.2.3.1.3-.2 0 0-.2-.2-.1l.1-.1c-.3.1 0-.1-.3 0-.1.2.1.2 0 .4.1 0 .1 0 .2.1.1.3-.4.1-.2.3.1.1.3.1.2.2l-.2-.1c0 .2.3.1.1.3-.1 0 0-.1-.1-.1-.2.1.1.1.1.2h-.2c0 .2.1.4.1.6 0 0-.1-.1-.2 0 .1.3-.1.5-.2.8l.1.1h-.1c-.1.1.1 0 .1.1s-.1.1-.1 0c.1.2.2.5.1.6-.1.1.3.2.1.3-.1.3 0 .6-.2.8.2.1-.1.3.2.3-.2.2-.2.1-.3.3 0 .1.2.1.2.2h-.2l.2.1-.2.1v.1l.1-.1c.1.1-.1.3-.2.3l.1.3c-.1 0-.1-.1-.1-.1.2.1-.2 0 0 .2h.1c-.1.1-.1.2-.1.3h-.1v.6c0-.1.2-.1.3 0h-.2c.1 0 .1-.1.2 0 0 .1-.2.1-.2 0l.1.1h-.1c.1 0-.2.2 0 .2v.3c0 .1.1.2.1.3.1 0 .1.1.3.1 0 .2 0 .4.1.6.1.1.1 0 .2 0-.1.1.1.2-.1.2.2.2.3.2.6.3v-.1c.1 0 .1.1 0 .2.2 0 .3.2.5.3.2.1.4.2.5.1l.3-.2c.1 0-.1.1 0 .2.3-.3.5-.1.7-.4.2.1.4 0 .5-.2s.2-.4.4-.5h-.1c0-.1.1-.1.1-.1h-.1c.1-.3.2-.6.2-.9.1-.2.1-.5.2-.7 0-.2-.5-.1-.2-.3l.2.1c-.2-.3 0-.7-.1-1 0 0 .1 0 .1.1.1-.1 0-.3-.1-.3 0-.1.1 0 .1 0 .1-.1-.1-.2 0-.2-.1 0 0-.2-.1-.2.1-.1-.1-.2 0-.3-.2-.1.1-.2-.1-.2.2 0 .2-.2.1-.3.1 0 .1-.1.2 0 0-.1 0-.2-.2-.2.3-.2-.2-.4.2-.4-.1-.3-.2-.5-.2-.8.2 0 0 .3.2.3-.1-.2-.3-.4-.2-.6 0-.1.1 0 .1.1-.1-.2.1-.4 0-.7h.1s0-.1-.1-.1c-.2.1-.3-.2-.4-.2.3.1.1-.2.5 0l-.1-.1h.1c0-.2-.2-.1-.1-.2 0 0 .1 0 .1.1-.1-.1-.2-.2-.1-.3h.1c0-.2-.2-.4-.1-.6.2.1.1-.1.3 0v-.1h-.1c0-.1-.1-.2 0-.3l.1.1v-.2l-.1.1c-.1-.1-.2 0-.2-.1 0 0 0-.1.1-.1-.1-.1-.1-.1-.1-.2h.2c-.1-.1 0-.2-.2-.3h.2l-.1-.1h.1c0-.1-.2 0-.1-.1.1-.2 0-.3.1-.5.2 0 0 .1.2.1 0-.2-.1-.5-.1-.7-.3-.1.2-.1.1-.3 0 0 .1.1.1 0 .1-.1 0-.3-.1-.5h.1v-.4zm-4.3 4.6c-.1 0-.1 0 0 0-.1 0-.1 0 0 0zm-.1.3v-.1h.1l-.1.1zm2.2-6.8v.1h-.1c.1 0 .1 0 .1-.1zm-.6.3s.1 0 0 0c.1.1 0 .1 0 .2v-.2zm2.5 1c-.1 0-.1 0 0 0 0-.1.1-.1.1 0h-.1z"/><path d="M32.439 53.918s-.1 0-.1-.1c0 0 0 .1.1.1zM30.839 63.218zM34.339 53.118zM35.239 59.818zM35.139 57.718c0 .1 0 .1 0 0 0 .1.1 0 0 0zM35.239 62.018zM32.239 53.718zM32.239 53.818zM33.039 53.118h-.2c-.1 0 .1.1.2 0zM35.339 56.918l.1-.1h-.1zM52.439 65.518c-.1 0-.1 0 0 0zM51.839 61.618h-.1c.1 0 .1.1.1 0zM52.339 65.618c0-.1 0-.1 0 0 0-.1 0 0 0 0zM47.439 61.018c.1 0 .1-.1 0 0 .1-.1.1-.1 0 0z"/><path d="M52.339 66.318c-.1-.2-.2-.2-.3-.4h.2c.1-.1 0-.2 0-.2s.1 0 .1-.1-.2 0-.1-.1h.2c-.1-.1-.2-.1-.3-.2.1-.1.1 0 .2 0-.1-.1-.2-.2-.3-.2v.1l.1-.1c.1 0 0 .1 0 .2h-.1c-.2.2.1.2.2.3h-.2c-.1-.3-.2-.5-.5-.7h.2c0 .1 0 .2.1.2 0 0-.1 0-.1.1.1 0 .2 0 .4-.2-.2 0-.1 0-.3.1v-.1c.1 0 .2-.1.3-.2l-.2-.1.1-.1v.1c.1-.1 0-.1-.1-.1.1 0 .1 0 .1-.1l-.2-.1c.1 0 .2 0 .2-.1-.1 0-.2.1-.3 0 .1-.1.2-.1.1-.1h.1c-.1 0 0-.1-.2-.2.1-.1-.1-.2.2-.2-.1 0-.2-.1-.2-.1.3.1 0-.2.3-.2-.2-.1-.1-.3-.3-.4 0 0 .1 0 0 0 0-.1.1-.1.1-.2-.2 0-.2-.1-.4-.2.2-.1.2 0 .4 0-.2 0-.2-.2-.3-.1.1-.1.1-.1.2-.1-.2 0 0-.1-.2-.1.1-.1.2 0 .1-.1.1-.1.2 0 .2 0 0-.1-.2 0-.3-.1s.1-.1.2-.1c-.1-.1-.2-.1-.2-.2h.1c-.2-.1 0-.3-.2-.4h-.3c0-.1-.1-.1 0-.1h.1l-.1-.1c.2-.1.1.1.2.1-.1-.1-.2-.2-.2-.3.2 0 .1.2.2.1l-.1.1c.3-.1 0 .1.3 0 0-.2-.1-.2-.1-.4h-.2c-.2-.2.4-.2.2-.4-.1 0-.3 0-.2-.2h.2c0-.2-.3-.1-.2-.2.1 0 .1.1.1.1.1-.1-.1-.1-.1-.1h.2c0-.2-.2-.3-.2-.5h.2c-.1-.2 0-.5.1-.7h.1c0-.1-.1 0-.2 0 0 0 .1-.1.1 0-.1-.1-.3-.4-.2-.6 0-.1-.3-.1-.2-.2 0-.3-.1-.6.1-.8-.2 0 .1-.3-.2-.3.1-.2.2-.1.3-.4 0-.1-.2-.1-.2-.1h.2l-.2-.1.2-.1v-.1l-.1.1c-.1-.1.1-.3.1-.3l-.2-.3c.1 0 .1 0 .2.1-.2-.1.1-.1-.1-.2h-.1c.1-.1 0-.3-.2-.4h.1c-.1-.3-.4-.4-.7-.6.1.1-.1.2-.1.2l.1-.2c-.1.1 0 .1-.1.1-.1-.1 0-.2.1-.2h-.1l.1-.1c-.1.1-.2-.2-.3-.1-.3-.1-.4-.1-.7-.1 0 .1-.1.1-.2.2-.2 0-.4-.2-.6-.1-.1.1 0 .1-.1.2 0-.1-.2 0-.2-.2-.2.1-.3.2-.5.4.1 0 .1 0 .1.1h-.2c-.1.2-.3.3-.4.5-.2.2-.3.4-.2.5l.1.3c0 .1-.1-.1-.2 0 .2.3 0 .4.2.6-.4.2.1.5-.1.8h.1c.1 0 0 .1-.1.1.1 0 .1-.1.1 0 .1.4 0 .9-.1 1.4 0 .2.5.1.3.3h-.2c.2.3.1.7.3 1h-.1c-.1.1 0 .3.1.2 0 .1-.1 0-.1.1-.1.1.2.2.1.2h-.1c.1 0 0 .2.1.2-.1.1.1.2 0 .3.2 0-.1.2.2.2-.2 0-.2.2 0 .3-.1 0-.1.1-.2.1 0 .1.1.2.2.1-.3.2.2.3-.1.4.1.2.2.5.3.7-.2 0 0-.3-.3-.2.1.2.3.3.3.6 0 .1-.1 0-.1 0 .1.2 0 .4.1.6h-.1s0 .1.1.1c.1-.1.3.1.4.1-.3-.1-.1.2-.4.1 0 0 .1.1.1 0 0 0-.1.1-.1 0 .1.1.2.1.2.2h-.1c.1.1.2.1.2.2h-.1c0 .2.3.3.2.5-.2 0-.1.1-.2.1l.1.1.1-.1c0 .1.2.2.1.3l-.1-.1.1.2.1-.1c.1.1.2 0 .2.1 0 0 0 .1-.1.2.1 0 .1.1.1.2h-.2c.2 0 .1.2.3.2h-.2.1c0 .1 0 .1-.1.1 0 .1.2-.1.2.1h-.1c0 .2.2.3.2.4-.2.1-.1-.1-.2 0 .1.2.4.4.5.6.2-.1 0 .2.2.2l-.1.1c.1.2.3.2.6.2h-.1c.1.1.2.1.3.2 0-.1.1 0 .1-.1.1.2.3.2.4.1.1-.1.3-.1.4 0 0 0-.1.1 0 .1l.2-.1c0-.1-.1-.1-.1-.1 0-.1.1-.1.1-.2-.1.1.1.2.1.2v-.1c.2.1-.1-.2.1-.2v.1c0-.1.1-.1.1-.2.1.1 0 .1 0 .2.1-.1 0-.3.2-.2 0 .1-.1.1-.1.1.2.1.2 0 .2 0l.2-.1h-.1c-.2-.3.1-.2 0-.5.1.2.1.1.2.2.1 0 .1-.1.2 0-.1-.1.1-.1 0-.2 0 0 0-.1.1 0 0-.1-.1 0-.1 0-.1-.6.3-.7.1-1zm-.9-6.6zm.7 6h-.1v-.1l.1.1zm-.7-6.2c-.1.1-.1.1 0 0-.1.1 0 0 0 0zm-1 8.2c.1.1 0 .1 0 .1v-.1zm1.6-1.4c.1-.1.1-.1.1 0h-.1z"/><path d="M51.439 56.318h-.1l.1.1zM52.039 67.218zM47.839 63.618zM48.339 65.618c-.1 0-.1 0 0 0zM47.539 61.518zM52.239 65.118s-.1 0 0 0zM52.439 66.018s.1-.1.1-.2c0 0-.2.1-.1.2zM48.439 66.518v.1h.1zM64.239 67.518c.1.1.2.2.3.2-.1-.2-.1-.2-.3-.2.1-.1.1-.1.2-.1 0 0 0-.1-.1-.1-.1.1-.1.2 0 .3l-.1-.1zM64.239 68.418c0-.1 0-.1 0 0 0-.1 0-.1 0 0zM64.439 63.118s-.1 0-.1.1c.1-.1.1 0 .1-.1zM64.139 68.418c.1-.1 0-.1 0 0 0-.1.1 0 0 0zM59.839 57.918c.1 0 .1 0 0 0l.1-.1-.1.1z"/><path d="M64.539 66.518c.1 0 .2 0 .2-.1-.1 0-.2.1-.2.1 0-.2.1-.1 0-.2h.1c-.1-.1 0-.2-.2-.2.1-.1-.1-.2.2-.3-.1 0-.2-.1-.2-.2.3.1 0-.3.3-.2-.2-.1-.1-.3-.3-.5 0 0 .1 0 0 0 0-.1.1-.1.1-.2-.2 0-.3-.1-.4-.2.2-.1.2 0 .4 0-.2 0-.2-.2-.3-.1.1-.1.1-.1.2-.1-.2 0 0-.1-.2-.1.1-.1.2 0 .1-.2.1-.1.2 0 .2 0 0-.1-.2-.1-.3-.1-.1-.2.1-.1.2-.1l-.2-.2h.1c-.2-.1 0-.3-.2-.4h-.3c0-.1-.1-.1 0-.1l.1.1-.1-.1c.2-.1.1.1.2.1-.1-.1-.2-.3-.2-.4.2 0 .1.2.2.1l-.1.2c.3-.1 0 .1.3 0 0-.2-.1-.2-.1-.4h-.2c-.2-.3.4-.2.2-.4-.1 0-.3-.1-.2-.2h.2c0-.2-.3-.1-.2-.3.1 0 .1.1.1.1.1-.1-.1-.1-.1-.2h.2c0-.2-.2-.4-.2-.6h.2c-.1-.3 0-.6.1-.9l-.2-.1h.1c.1-.1-.1 0-.2 0 0-.1.1-.1.1 0-.1-.2-.3-.5-.1-.7.1-.2-.3-.2-.2-.3.1-.3-.1-.7.1-1-.2 0 .1-.3-.2-.3.1-.2.2-.1.3-.4 0-.1-.2-.1-.2-.2h.2l-.2-.1.2-.1v-.1l-.1.1c-.1-.1.1-.3.2-.3l-.1-.3c.1 0 .1.1.1.1-.2-.2.2 0 0-.2h-.1c.1-.1.1-.2 0-.4h.1c0-.2-.1-.5-.1-.7 0 .1-.2.1-.3 0h.2c-.1 0-.1.1-.2 0 0-.1.2-.1.2 0l-.1-.1h.1c-.1 0 .2-.2 0-.3 0-.3-.1-.4-.1-.6-.1 0-.1-.1-.2-.2 0-.2.1-.5 0-.7-.2-.1-.1 0-.2 0 .1-.1 0-.3.1-.2-.2-.2-.3-.3-.7-.4v.1c-.1 0-.1-.1-.1-.2-.2 0-.4-.2-.6-.3-.2-.1-.5-.2-.6-.1l-.3.2c-.2 0 .1-.1-.1-.2-.3.3-.6.2-.8.5-.2-.1-.4.1-.5.4-.1.2-.2.5-.3.6h.1c.1.1-.1.1-.1.2.1 0 .1-.1.1 0 0 .4 0 .6-.1.9s-.1.6-.2.8c0 .2.5.1.3.4l-.2-.1c.2.4 0 .8.2 1.2 0 0-.1 0-.1-.1-.1.1 0 .3.1.3 0 .1-.1 0-.1.1-.1.1.2.2 0 .3.1.1 0 .3.1.2-.1.2.1.3 0 .4.2.1-.1.3.2.3-.2 0-.2.3-.1.4-.1 0-.1.1-.2.1 0 .1.1.2.2.2-.3.2.2.4-.1.5l.3.9c-.2 0 0-.3-.3-.3.1.3.3.4.3.7 0 .1-.1 0-.1-.1.1.3 0 .5.1.8h-.1s0 .1.1.1c.1-.1.3.2.4.2-.3-.1-.1.2-.4.1l.1.1s-.1.1-.1 0c.1.2.2.1.2.3h-.1c.1.1.2.1.2.3h-.1c0 .2.3.4.2.6-.2-.1-.1.1-.3.1l.1.1.1-.1c0 .1.1.2.1.3l-.1-.1.1.2.1-.1c.1.1.2 0 .2.1 0 0 0 .1-.1.2.1.1.1.1.1.2h-.2c.2 0 .1.3.2.3h-.2.1c0 .1-.1.1-.1.1 0 .2.2-.1.1.1h-.1c0 .2.1.4.1.5-.2.1-.1-.1-.2-.1.1.3.3.5.2.8.3 0-.1.2 0 .3h-.1c0 .2.1.3.2.6h-.1c-.1.1 0 .3 0 .4.1 0 .1.1.2 0-.4.4.2.6.1 1 0 0-.1-.1-.1 0l.2.3c.1-.1 0-.1.1-.2.1 0 .1 0 .2.1-.1-.1-.2.1-.2.2 0 0 .1 0 .1-.1-.1.2.2-.1.2.1h-.1c.1 0 .2 0 .2.1-.1.1-.1 0-.2.1.1.1.3 0 .3.1h-.2c0 .2 0 .2.1.2l.1.2v-.1c.3-.3.3.1.5-.1-.2.2-.1.1-.1.3 0 .1.1.1.1.2.1-.1.2.1.3 0 0 0 .1 0 .1.1.1 0 0-.1 0-.1.2-.1.5.2.7-.1.2-.2.2-.3.2-.5.1 0 0 .2 0 .2.1 0 .2-.1.2-.2l.1.1c.1-.1-.1-.2 0-.2 0 0 .1.1.1.2.1-.1 0-.3 0-.4.1 0 .1.1.1.2 0-.1.1-.4-.1-.4l-.1.1s.1 0 .1.1c.1.1-.1.1-.1.1v-.1c-.3-.1-.1.3-.2.4l-.1-.1c.2-.2.3-.5.3-1h.2v.1h.2v-.1c.1 0 .2-.1.3-.2l-.2-.1.1-.1v.1c.1-.1 0-.1-.1-.2.1 0 .1 0 .1-.1l.4-1.1zm-.5-5.6zm0-.3v.1s-.1 0 0-.1c-.1.1 0 0 0 0zm-3 6.6h.1v.1c0-.1 0-.1-.1-.1zm2.2 1.4l-.1-.1h.1c.1 0 0 0 0 .1zm.7-.3s-.1 0-.1-.1l.1-.1v.2zM64.139 56.818v.1zM62.239 68.818zM60.139 61.118z"/><path d="M60.639 63.518s0-.1 0 0c-.1-.1-.1 0 0 0zM59.839 58.518zM64.539 67.818zM64.539 67.718zM63.739 68.718c.1 0 .2 0 .2-.1.1.1-.2 0-.2.1zM60.639 64.518l-.1.1h.1zM39.539 7.418v.1c.1-.1.2-.2.2-.4-.2.2-.2.1-.2.3-.1 0-.1-.1-.1-.1s-.1 0-.1.1.1.1.2 0zM40.339 7.418c-.1 0-.1 0 0 0-.1 0-.1 0 0 0zM35.639 7.418l.1.1c-.1-.1 0-.1-.1-.1zM40.339 7.418c-.1 0-.1 0 0 0-.1 0 0 0 0 0zM39.339 18.618h-.1c-.1.1 0 .1.1 0z"/><path d="M33.939 13.718h.1c-.1.1-.1.2 0 .3h-.1c0 .2.1.4.1.6 0-.1.2-.1.3 0h-.2c.1 0 .1-.1.2 0 0 .1-.2.1-.2 0l.1.1h-.1c.1 0-.2.2 0 .2 0 .2.1.3.1.5.1 0 .1.1.2.1 0 .1-.1.3-.1.5.1.1.1 0 .2.1-.1 0-.1.2-.2.1 0 .2 0 .3.2.5l.1-.1s0 .1-.1.1c.2.2-.3.7.1.9l.2.2c0 .1-.1 0-.2.1.3.2.1.4.4.6-.2.4.4.5.4.9l.1-.1c.1 0 0 .1 0 .1 0-.1 0-.1.1-.1l.6.6c.2.2.6.5.9.5.3 0 .2-.4.5-.3l-.1.2c.5-.2 1-.3 1.3-.7v.1c.2 0 .3-.3.2-.3h.1c.1 0 0-.3.1-.3v.1c0-.1.2-.3 0-.3.1-.1.1-.2.1-.2 0-.1 0-.1.1-.2-.1-.1.1-.2-.1-.3.2.1.2-.2.2-.3h.2c0-.1 0-.2-.1-.2.3-.1-.1-.4.2-.4 0-.3-.1-.6 0-.8.2.1 0 .3.2.3 0-.3-.2-.4-.1-.6 0-.1.1.1.1.1 0-.3.1-.4.1-.7v.1s.1-.1 0-.1c-.2 0-.3-.2-.3-.3.3.1.1-.2.5 0l-.1-.1h.1c0-.2-.1-.1-.1-.3 0 0 .1 0 .1.1-.1-.1-.2-.2-.1-.3h.1c0-.2-.2-.4 0-.6.2.1.1-.1.3 0v-.1h-.1c0-.1-.1-.2 0-.3l.1.1v-.2l-.1.1c-.1-.1-.2 0-.2-.2 0 0 0-.1.1-.1 0-.1-.1-.1 0-.2.1 0 .2.1.2.1-.1-.1 0-.2-.1-.3 0 0 .1.1.2 0l-.1-.1h.1c.1-.1-.2 0-.1-.1.1-.2 0-.3.1-.5.2 0 0 .1.2.1 0-.2-.1-.5 0-.7-.3-.1.2-.1.1-.3 0 0 .1.1.1 0 .1-.1 0-.3 0-.5h.1c.1-.1.1-.2.1-.3-.1 0 0-.1-.1-.1.4-.2-.1-.6.3-.8 0 0 0 .1.1.1v-.2h-.2c-.1 0-.1-.1-.1-.2.1.1.2 0 .3 0h-.1c.2-.1-.2-.1-.1-.2h.1c0-.1-.1-.1-.1-.2.1 0 .1.1.2.1 0-.1-.2-.2-.1-.3 0 0 0 .1.1.1.2-.1.1-.1.2-.1l.1-.1c-.3-.2 0-.3-.3-.4.2.1.1 0 .3 0l.1-.1c-.1-.1.1-.2-.1-.2 0 0 0-.1.1-.1-.1-.1-.1 0-.1 0-.2-.1.1-.4-.2-.6-.2-.1-.3-.1-.5-.1 0-.1.2-.1.2-.1 0-.1-.1-.2-.2-.2l.1-.1c-.1 0-.1.1-.2 0 0 0 .1-.1.2-.1h-.3c0-.1.1-.1.2-.1-.1 0-.3 0-.4.1v.1s0-.1.1-.1c.1-.1.1.1.1.1h-.1c-.1.3.2.1.4.2l-.1.1c-.2-.2-.5-.3-.8-.2v-.4h-.1c0-.1-.1-.2-.1-.3l-.1.2-.1-.1h.1c-.1-.1-.1 0-.1.1 0-.1 0-.1-.1-.1l-.1.2c0-.1 0-.2-.1-.2 0 .1.1.2 0 .3-.1-.1-.1-.2-.1-.1v-.1c-.1.1-.2.1-.2.2-.1-.1-.2.1-.2-.2 0 .1-.1.2-.1.2.1-.3-.2 0-.2-.3 0 .2-.3.2-.4.3v-.1c-.1 0-.1-.1-.2-.1 0 .2-.1.3-.1.4-.1-.2 0-.2-.1-.4 0 .2-.1.2-.1.3-.1-.1-.1 0-.2-.2 0 .2-.1.1-.1.2-.1-.1-.1-.2-.1-.1v-.2.3c-.1.1 0-.1-.1-.2 0 0 0 .1-.1.1s-.1.1-.1.1v-.1c-.1.2-.4 0-.5.3 0 .1.1.2.1.2-.1 0-.1.1-.1 0v-.1.1c-.1-.1.1-.1 0-.2-.1.1-.2.3-.3.3-.1-.1.2-.2 0-.2h.2c-.2-.2.1 0-.1-.2-.2 0-.2.2-.4.3 0 .1.1.1.1.2-.1.3-.5-.2-.5.2 0 .1.2.3 0 .3l-.1-.2c-.1.2.2.2-.1.4-.1-.1 0-.2 0-.2-.2.1 0 .1 0 .2h-.2c-.1.2 0 .5 0 .7 0 0-.1-.1-.2 0 .1.3-.1.5-.2.8l.1.1h-.1c-.1.1.1 0 .1.1s-.1.1-.1 0c.1.2.2.5.1.6-.1.1.3.2.2.3-.1.3.1.6-.2.8.2 0-.1.3.2.3-.1.2-.2.1-.3.4 0 .1.2.1.2.2h-.2l.2.1-.2.1v.1l.1-.1c.1.1-.1.3-.2.3l.1.3c-.1 0-.1 0-.1-.1-.9.7-1.2.6-1 .7zm6.5-3.1s0-.1 0 0c.1-.1.1 0 .1 0h-.1zm.1-2.4s0 .1 0 0c-.1.1-.1 0-.1 0h.1zm-.3-.5s0 .1-.1.1c0 0-.1 0-.1-.1h.2zm-6 1.7s0-.1 0 0c0-.1 0-.1 0 0zm0 .1c.1 0 .1 0 0 0 .1 0 0 .1 0 .1v-.1zM33.939 12.918zM41.039 9.018s-.1 0 0 0zM39.839 15.918zM40.039 13.818zM39.439 18.118zM39.839 7.118zM39.739 7.218s0-.1 0 0z"/><path d="M40.639 7.818s0-.2-.1-.2c0-.1 0 .2.1.2zM40.339 13.018l.1-.1h-.1zM48.139 7.418v.1c.1-.1.1-.2.1-.4-.1.1-.1.1-.1.3-.1 0-.1 0-.1-.1 0 0-.1 0-.1.1h.2zM48.739 7.118s0 .1 0 0zM45.239 9.718h.1c-.1 0-.1-.2-.1 0zM48.839 7.218c-.1 0-.1 0 0 0-.1 0-.1 0 0 0zM50.439 16.818h-.1.1zM48.339 7.318c0-.1 0-.1 0 0 0-.1 0-.1 0 0 0-.1 0 0 0 0zM48.339 7.418v-.1.1z"/><path d="M44.139 17.318c0 .3 0 .3.1.6.1 0 .1.1.3.1 0 .2-.1.4 0 .6.1.1.1 0 .2 0-.1.1 0 .2-.1.2.1.2.2.3.4.4 0-.1 0-.1.1-.1v.2c.2.1.2.3.4.4.1.2.2.4.4.3h.3c.1.1-.1.1 0 .2.4-.1.5.2.8 0 .2.4.7-.1 1 .1v-.1c0-.1.1 0 .2 0 0-.1-.1-.1-.1-.1.5-.3 1.1-.5 1.6-.9.2-.2-.3-.4 0-.4l.1.1c0-.4.4-.7.4-1.1l.1.1c.1 0 .1-.3 0-.3h.1c.1 0-.1-.2.1-.2v.1c0-.1.1-.2-.1-.2.1-.1 0-.3.1-.3-.1-.1.1-.2-.1-.3.2.1.2-.2.2-.3h.2c0-.1 0-.2-.1-.2.3-.1-.1-.4.3-.4v-.8c.2.1-.1.3.2.3 0-.3-.2-.4 0-.7l.1.1c0-.3.2-.4.1-.7v.1s.1-.1 0-.1c-.2 0-.2-.2-.3-.3.3.2.1-.2.5 0 0 0 0-.1-.1-.1h.1c0-.2-.1-.1-.1-.3 0 0 .1 0 .1.1-.1-.1-.1-.2-.1-.3h.1c0-.2-.2-.4 0-.6.2.1.1-.1.3 0v-.1h-.1c0-.1-.1-.2 0-.3l.1.1v-.2l-.1.1c-.1-.1-.2-.1-.1-.2 0 0 0-.1.1-.1 0-.1-.1-.1 0-.2.1 0 .2.1.2.1-.1-.1 0-.2-.1-.3l.1.1-.1-.1h.1c.1-.1-.2 0-.1-.2s0-.3.1-.5c.2 0 0 .1.2.1 0-.2-.1-.5 0-.7-.3-.1.2-.1 0-.3 0 0 .1.1.1 0 0-.2 0-.3-.1-.6h.1c.1-.1 0-.3 0-.4-.1 0-.1-.1-.2 0 .2-.2.1-.4-.1-.5-.1-.1-.3-.2-.2-.4h.1l-.2-.2c-.1.1 0 .1-.1.2h-.2c.1 0 .1-.1.1-.2 0 0-.1 0-.1.1 0-.2-.2.2-.2 0h-.2c0-.1.1 0 .1-.1-.1-.1-.3.1-.3 0h.2c0-.2 0-.2-.1-.2l-.1-.1v.1c-.2.3-.2 0-.5.1.2-.2.1-.1.1-.3 0-.1-.1-.1 0-.1-.1.1-.1-.1-.2 0 0 0-.1 0 0-.1-.1 0 0 .1 0 .1-.2.1-.3-.3-.5-.1-.2.1-.2.2-.4.3 0-.1.1-.1.1-.1-.1-.1-.1-.1-.2 0v-.1c-.1 0-.1.2-.1.1s.1-.1.1-.2c-.1 0-.2.1-.3.1 0-.1.1-.1.1-.2-.1 0-.1 0-.2.1.1-.1.1.1.1.1h-.1c0 .3.2 0 .3 0l-.1.2c-.3 0-.6-.1-.9-.1v-.2l.1-.2h-.1c0-.1 0-.2-.1-.3l-.2.1-.1-.1h.1c-.1-.1-.1 0-.2.1 0-.1-.1-.1-.1-.1s-.1.2-.1.3c0-.1 0-.2-.1-.2-.1.1.1.2 0 .3-.1-.1-.1-.2-.2 0v-.1c-.1.1-.2.1-.2.3-.2 0-.1.1-.2-.1 0 .1-.1.2-.1.3 0-.3-.3.2-.4 0 .1.2-.2.4-.2.6v-.1c-.1.1-.1.1-.2.1.2.1.2.3.3.4-.2.1-.2-.1-.4-.2.1.1.1.2.2.2h-.2c.2.1 0 .1.2.2-.1.1-.2 0-.2.1-.1 0-.1-.1-.1-.1 0 .1.2.1.3.2 0 .2-.1 0-.3.1 0 .1.2.2.1.3h-.1c.1.1-.1.3.1.4h.2c0 .1.1.1 0 .1l-.1-.1v.1c-.2 0 0-.1-.2-.1 0 .1.1.3.1.4-.2 0 0-.2-.2-.1l.1-.1c-.3 0 0-.1-.3-.1-.1.2 0 .2-.1.4.1.1.1 0 .2.1.1.3-.5.1-.3.3.1.1.3.1.2.2l-.2-.1c-.1.2.2.2.1.3-.1 0 0-.1-.1-.1-.2.1.1.1.1.2h-.2c0 .2.1.4 0 .6 0 0-.1-.1-.2 0 0 .3-.1.5-.3.7l.1.1h-.1c-.1.1.1 0 .1.1s-.1.1-.1 0c.1.2.2.5 0 .7-.1.1.3.2.1.3-.1.3 0 .6-.3.8.2.1-.1.3.2.3-.2.2-.2.1-.3.3 0 .1.2.1.2.2h-.2l.2.1h-.2v.1l.1-.1c.1.1-.1.3-.2.3l.1.3c-.1 0-.1-.1-.1-.1.2.2-.2 0 0 .2h.1c-.1.1-.1.2-.1.3h-.1c0 .2.1.4.1.7 0-.1.2-.1.3 0h-.2c.1 0 .1-.1.2 0 0 .1-.2.1-.2 0l.1.1h-.1c-.1.1-.3.3-.1.3zm7.4-8.6s-.1 0-.1.1v-.1h.1zm-2.1-1.2v.1h-.1l.1-.1zm-.6-.1v.1h-.1l.1-.1zm-3.8 4.2zm-.1.2c.1 0 .1 0 0 0 .1 0 .1 0 0 0zM44.139 15.118h.1-.1zM50.239 7.518zM51.139 14.118zM51.439 12.018zM50.639 16.318c-.1 0-.1 0 0 0zM48.339 7.118zM48.239 7.118c.1 0 .1 0 0 0z"/><path d="M49.139 7.218s-.1-.1-.2-.1c.1 0 .1.2.2.1zM51.739 11.218l.1-.1h-.1zM59.539 9.018zM55.539 10.318h.1s0-.1-.1 0zM59.539 9.018c0 .1 0 .1 0 0 0 .1 0 0 0 0zM60.139 18.418h-.1.1z"/><path d="M59.739 19.118c.1 0 0-.2.1-.2v.1c0-.1.1-.2 0-.2.1-.1.1-.2.2-.3-.1-.1.2-.2 0-.3.2.1.3-.1.2-.2 0 .1.1 0 .2 0 0-.1 0-.2-.1-.2.3 0 0-.4.3-.3 0-.3 0-.6.1-.8.2.1-.1.2.1.3 0-.2-.1-.4 0-.6.1 0 .1.1.1.1 0-.2.2-.4.2-.6v.1s.1-.1 0-.1c-.2 0-.2-.3-.3-.3.2.2.2-.1.4.1 0 0 0-.1-.1-.1 0 0 .1 0 .1.1 0-.2-.1-.2 0-.3 0 0 0 .1.1.1-.1-.1-.1-.2 0-.3 0 0 .1 0 0 .1.1-.2-.1-.4.1-.6.2.1.1 0 .3 0v-.1h-.1v-.3.1-.2l-.1.1c0-.1-.2-.1-.1-.2 0 0 0-.1.2-.1 0-.1-.1-.1 0-.2.1 0 .2.1.2.1-.1-.1 0-.2-.1-.4l.1.1-.1-.1h.1c.1-.1-.2 0-.1-.2.1-.1 0-.3.1-.4.2 0 0 .1.2.1 0-.2-.1-.5 0-.7-.3-.1.2-.1.1-.3 0 0 .1.1.1 0 0-.2 0-.3-.1-.6h.1c.1-.1 0-.3 0-.4-.1 0-.1-.1-.2 0 .2-.2 0-.4-.1-.5s-.3-.2-.2-.4h.1s-.2-.2-.2-.1c-.1.1 0 .1-.1.2h-.2c.1 0 .1-.1.1-.2 0 0-.1 0-.1.1.1-.2-.2.1-.2 0h-.2c.1-.1.1 0 .2-.1-.1-.1-.3.1-.3 0h.2c0-.2 0-.2-.1-.2l-.1-.1v.1c-.3.2-.2-.1-.5.1.2-.1.1-.1.1-.2s-.1-.1 0-.2c-.1.1-.1-.1-.2 0 0 0-.1 0 0-.1-.1 0 0 .1 0 .1-.2.1-.3-.3-.5-.1-.2 0-.3.2-.4.2 0-.1.1-.1.1-.1-.1-.1-.1-.1-.2 0v-.1c-.1 0-.1.2-.1.1s.1-.1.1-.2c-.1 0-.2.1-.3.1 0-.1.1-.1.1-.2-.1 0-.1 0-.2.1.1-.1.1.1.1.1h-.1c0 .3.2 0 .3 0l-.1.2c-.3 0-.6-.1-.9-.1l.1-.1c0 .1.1.1.2 0v.1c.1-.1.1-.2.1-.4-.1.2-.1.1-.2.3l-.1-.1c.1-.1.1-.2.1-.4h-.2v-.1l.1.1c0-.1-.1-.1-.2 0v-.1l-.2.1c0-.1.1-.1 0-.2-.1.1 0 .2-.1.2 0-.1 0-.2-.1-.1 0-.1 0-.1.1-.1-.1 0-.2 0-.3.1-.1-.1-.3 0-.2-.2l-.2.2c.1-.3-.3 0-.3-.3-.1.2-.4.2-.5.4v-.1h-.3c.1.2 0 .3 0 .5-.2 0-.1-.2-.3-.3.1.1-.1.3.1.3h-.3c.2.2 0 .1.1.3-.2.1-.2-.1-.2.1-.1 0-.1-.1-.1-.1-.1.2.1.2.2.2 0 .2-.2 0-.3.1 0 .1.1.3.1.3h-.1c.1.1-.1.3.1.4h.3c0 .1.1.1 0 .1l-.1-.1v.1c-.2 0 0-.1-.2-.1 0 .1.1.3.1.3-.2 0 0-.2-.2-.1l.1-.1c-.3 0 0-.1-.3 0-.1.2 0 .2 0 .4.1.1.1 0 .2.1.1.3-.5.1-.3.3.1.1.3.1.2.2l-.2-.1c-.1.2.2.2.1.3-.1 0 0-.1-.1-.1-.2.1.1.1.1.2h-.2c0 .2.1.4.1.6 0 0-.1-.1-.2 0 0 .3-.1.5-.3.7l.1.1h-.1c-.1.1.1 0 .1.1s-.1 0-.1 0c.1.2.2.5 0 .6-.1.1.3.2.1.3-.1.3-.1.6-.3.8.2.1-.2.2.1.3-.2.1-.2.1-.4.3 0 .1.2.1.2.2h-.2l.1.1h-.2v.1h.1c0 .1-.2.2-.2.2l.1.3c-.1 0-.1-.1-.1-.1.1.2-.2 0 0 .2h.1c-.1 0-.1.2-.1.3h-.1c-.1.2 0 .4 0 .7.1-.1.2 0 .2 0h-.2c.1.1.1-.1.2 0 0 .1-.2 0-.2 0v.1h-.1c.1 0-.2.2 0 .3 0 .2.1.4.1.6.1 0 .1.1.2.1 0 .1-.1.3-.1.5.1.1.1 0 .2.1-.1 0-.1.2-.2.1.1.2.1.3.3.5 0 0 0-.1.1-.1 0 0 0 .1-.1.1.1.1.2.3.2.5.1.2.1.4.3.4l.3.1c.1.1-.1 0-.1.2.4 0 .5.3.8.2.1.4.7.1 1 .2v-.1c.1-.1.1 0 .1 0 0-.1-.1-.1-.1-.1.5-.2 1.1-.2 1.6-.5.2-.1-.2-.4.1-.4l.1.2c.2-.4.6-.6.7-1 0 0 .1.1 0 .1.1 0 .2-.2.1-.3.6-.6.7-.5.7-.5zm2.4-8.3s-.1 0-.1.1v-.1c0-.1 0-.1.1 0zm-2-1.3v0zm-.6-.2v.1h-.1l.1-.1zm-4.2 2.9zm0 .2c.1 0 .1 0 0 0 .1 0 0 0 0 0z"/><path d="M59.139 9.318v-.1c0-.1-.1 0 0 .1zM59.139 9.118zM54.339 15.518h.1-.1zM61.039 9.518s-.1 0 0 0zM61.239 15.918zM61.839 13.918s0 .1 0 0c0 .1 0 0 0 0zM60.439 17.918zM59.139 8.918s0 .1 0 0zM59.039 9.018zM59.939 9.118l-.1-.1c-.1 0 0 .2.1.1zM62.339 13.118l-.1-.1v.1z"/></g><g fill="#bfaf9c"><path d="M90.139 25.318v.1c.1-.1.2-.2.1-.4-.1.2-.1.1-.1.3-.1.1-.2 0-.2-.1 0 0-.1 0-.1.1.1.1.2.1.3 0zM91.139 25.118zM84.739 27.018c.1 0 .1 0 0 0 .1 0 .2-.1 0 0zM91.139 25.118s0 .1 0 0zM79.439 33.518l-.1-.1.1.1zM77.339 29.618zM92.239 27.418c0-.1 0-.1 0 0zM83.339 31.918c-.1.1-.1.1 0 0zM85.939 30.518c0 .1 0 .1 0 0 0 .1.1.1 0 0zM80.239 33.218h-.1zM90.439 24.918s0 .1 0 0zM90.339 25.018zM91.739 25.518c0-.1-.1-.2-.2-.2 0-.1 0 .2.2.2zM87.339 30.218v-.1l-.1.1zM90.039 32.718c-.1.1-.1.1-.2.3-.1 0-.1 0-.1-.1 0 0-.1 0-.1.1.1.1.2.1.3 0v.1c0-.1.1-.2.1-.4zM90.939 33.118c0-.1-.1-.1 0 0-.1 0-.1 0 0 0zM84.639 33.518c0-.1.1-.2-.1-.1.1 0 .1 0 .1.1zM90.939 33.118c-.1 0-.1 0 0 0zM78.439 38.618l-.1-.1.1.1zM77.139 34.418v.1-.1zM91.639 35.418c-.1 0-.1-.1 0 0zM82.239 37.918c-.1 0 0 0 0 0zM85.039 37.118c-.1.1-.1.1 0 0-.1.1 0 .1 0 0zM79.139 38.518zM90.339 32.718c-.1 0-.1 0 0 0zM90.239 32.718s-.1 0 0 0zM91.139 33.318c.1 0 0 .2.2.2 0 0 0-.2-.2-.2zM86.339 37.018l-.1.1h.1zM92.239 42.818c.1 0 .3-.1.3-.2-.2.1-.2 0-.3.1-.1 0-.1-.1-.1-.2 0 0-.1-.1-.2 0 .1.2.2.2.3.3.1 0 0 0 0 0zM93.139 43.318c0 .1 0 .1 0 0zM86.639 41.418c0-.1.2-.1 0-.1v.1zM93.239 43.418c-.1 0-.1 0 0 0-.1 0-.1 0 0 0zM77.339 44.318c0-.1-.1-.1-.1-.1l.1.1z"/><path d="M93.039 43.118c-.1-.1-.3-.3-.5-.2v.1l.1-.1c.2 0 .1.2.1.2l-.1-.1c-.2.2.3.3.3.5h-.2c-.1-.4-.4-.7-1-.9 0-.1.1-.2.1-.2v.1l.1-.1h-.1c0-.1 0-.2-.1-.3l-.2.1v-.1h.2c-.1-.1-.1-.1-.2 0 0-.1 0-.1-.1-.1l-.2.2c0-.1.1-.2 0-.2-.1.1 0 .2-.1.3-.1-.1 0-.2-.2-.1 0-.1 0-.1.1-.1-.1 0-.3 0-.3.1-.1-.1-.3 0-.3-.2 0 0-.2.1-.3.1.2-.2-.3-.1-.2-.3-.2.2-.5 0-.7.1 0 0 0-.1.1 0-.1 0-.1-.1-.2-.2 0 .2-.2.2-.3.3-.1-.2.1-.2.1-.4 0 .2-.3.1-.2.3-.1-.1-.1-.1-.1-.2 0 .2-.1 0-.2.2-.2-.1 0-.2-.2-.2-.1-.1.1-.2.1-.2-.2 0-.1.2-.2.3-.2 0-.1-.1-.2-.2-.1 0-.3.2-.4.2v-.1c-.2.1-.4 0-.6.1v.3c-.1 0-.2.1-.2 0 0 0 .1 0 .1-.1h-.1c-.1-.2.1-.1.1-.2-.2 0-.4.2-.5.1 0-.2.3 0 .1-.2l.2.1c-.1-.3.1 0 0-.3-.3-.1-.3.1-.6 0-.1.1 0 .1-.1.2-.4.1-.3-.4-.5-.2-.1.1-.1.3-.3.2l.1-.2c-.2 0-.2.3-.4.1.1-.1.2 0 .2-.1-.2-.2-.1.1-.3.1v-.2c-.3 0-.6.1-.9.1 0 0 .1-.1 0-.2-.4 0-.8-.1-1.1-.2l-.2.1v-.1c-.1-.1 0 .1-.1.1s-.1-.1 0-.1c-.3.1-.7.2-1 0h.1c-.2-.1-.3.3-.4.1-.4-.1-.9-.1-1.2-.4-.1.2-.4-.2-.5.1-.2-.2-.1-.2-.5-.4-.1 0-.2.1-.3.1v-.2l-.2.1v-.2h-.1l.1.1c-.2 0-.4-.2-.4-.3h-.4c0-.1.1-.1.2-.1-.2.1 0-.2-.2-.1 0 0 0 .1-.1.1-.1-.1-.3-.2-.5-.2l.1-.1c-.3-.1-.6-.1-.9-.2.1.1 0 .3-.1.2v-.2c-.1.1.1.1-.1.2-.1-.1 0-.2.1-.2h-.2s0-.1.1-.1c-.1.1-.2-.2-.3-.1-.1 0-.1 0-.2-.1.1-.1 0-.4.3-.2l-.1.2c.5-.3 1-.1 1.4-.4 0 0 0 .1-.1.1.1.1.4 0 .4-.1.1 0 0 .1.1.1.1.1.2-.2.3-.1v.1c.1-.1.3 0 .2-.2.2 0 .3-.1.5 0 .1-.2.3 0 .3-.2 0 .2.3.1.4 0 0 .1.1.1.1.2.1 0 .2-.1.2-.2.3.2.4-.3.6 0 .4-.2.7-.3 1-.4 0 .2-.4.1-.3.3.3-.1.5-.4.8-.4.1 0 0 .1-.1.1.3-.1.6-.1.9-.2l-.1.1c.1 0 .1 0 .1-.1h-.1c-.1-.1.2-.3.2-.4-.1.3.3 0 .2.4l.1-.1c.1 0 .1 0 0 .1.2-.1.1-.2.3-.2v.1c.1-.1.2-.2.3-.2v.1c.3-.1.4-.3.7-.3-.1.2.1.1.2.2l.1-.1-.1-.1c.1 0 .2-.2.4-.1l-.1.1.3-.1h-.2c.1-.1-.1-.2.1-.2 0 0 .1 0 .2.1.1-.1.1-.1.2-.1v.2c0-.2.3-.1.4-.3v.2-.1c.1 0 .1 0 .1.1.2 0-.1-.2.1-.2v.1c.2 0 .4-.2.6-.1.1.2-.2.1-.1.2.3-.1.6-.3.9-.3h-.1c0-.3.2.1.4-.1v.1c.2 0 .4-.1.7-.3v.1h.4c0-.1.1-.1 0-.2.5.3.7-.3 1.1-.1l-.1.1.3-.1c0-.1-.1-.1-.1-.1 0-.1.1-.1.2-.2-.1.1 0 .2.1.2v-.1c.2.2 0-.2.2-.2v.1l.2-.2c.1.1-.1.1 0 .2.1-.1.1-.3.3-.3 0 .1-.1.1-.1.2.2.1.2 0 .3 0l.2-.1h-.1c-.1-.4.2-.3 0-.7.1.3.1.1.2.1s.1-.1.2-.1c-.1-.1.1-.2 0-.4 0 0 0-.1.1-.1 0-.2-.1 0-.1 0-.2-.2.1-.6-.2-.8-.2-.2-.4-.2-.5-.3 0-.1.2 0 .2 0 0-.2-.1-.2-.2-.3l.1-.1c-.1-.1-.2.1-.2 0 0 0 .1-.1.2-.1h-.4c0-.1.1-.1.2-.1-.2 0-.4-.1-.5.1l.1.1v-.1c.2-.1.2.1.1.2h-.1c0 .3.3.1.5.2l-.1.1c-.3-.2-.7-.3-1.2-.2v-.2h.1v-.2l-.1.1c0-.1-.1-.2-.2-.2l-.1.2-.1-.1h.1c-.1-.1-.1 0-.2.1 0-.1-.1-.1-.1-.1l-.1.2c0-.1 0-.2-.1-.2-.1.1.1.2 0 .3-.1-.1-.1-.2-.2-.1v-.1c-.1.1-.2.1-.2.2-.1-.1-.3.1-.3-.1 0 .1-.1.2-.2.2.1-.3-.3 0-.3-.2-.1.3-.4.2-.5.3v-.1c-.1 0-.2-.1-.2-.1 0 .2-.1.3-.2.4-.2-.2 0-.2 0-.4 0 .2-.2.2-.1.3-.1-.1-.1 0-.2-.2 0 .2-.1.1-.1.2-.2-.1-.1-.2-.2-.1-.1-.1 0-.2 0-.2-.2 0 0 .2-.1.3-.2.1-.1-.1-.2-.2-.1.1-.2.3-.3.3v-.1c-.1.2-.4.1-.5.3 0 .1.1.2.1.2-.1 0-.1.1-.2 0 0 0 0-.1.1-.1l-.1.1c-.1-.2.1-.1.1-.2-.1.1-.3.3-.4.2-.1-.2.3-.1.1-.2h.2c-.2-.2.1 0-.1-.3-.2 0-.2.1-.5.1v.2c-.3.2-.3-.4-.5-.1 0 .1 0 .3-.2.3v-.2c-.2 0-.1.3-.3.2 0-.1.2-.1.1-.1-.2-.1-.1.1-.2.1l-.1-.2c-.2.1-.5.2-.8.3v-.2c-.3.1-.7.1-1.1 0l-.1.2s-.1-.1 0-.1c-.1 0 0 .1 0 .2-.1 0-.1-.1-.1-.1-.2.2-.6.4-.9.2-.2 0-.2.3-.4.2-.4 0-.8.2-1.2 0 0 .2-.4 0-.4.3-.2-.1-.2-.2-.5-.2-.1 0-.1.2-.2.2v-.2l-.1.2-.1-.2-.1.1.1.1c-.1.1-.4-.1-.4-.1l-.4.2h.1c.3-.1 0-.5.4-.4v.2c.4-.3 1-.3 1.4-.6v.1c.1.1.4-.1.3-.2.1 0 0 .1.1.1s.2-.2.3-.1v.1c0-.1.3-.1.2-.2.2 0 .3-.2.5-.1 0-.2.3 0 .3-.3.1.2.4.1.4-.1 0 .1.1 0 .1.1.1 0 .2-.1.2-.2.3.2.4-.4.7-.1.3-.3.7-.5 1-.6.1.2-.4.2-.3.4.3-.2.4-.5.8-.5.1 0 0 .1 0 .2.3-.2.6-.2.9-.4v.1c.1 0 .1 0 .1-.1-.1-.1.1-.4.1-.5 0 .3.3 0 .3.4 0 0 .1-.1 0-.2.1 0 .1 0 .1.1.2-.1.1-.2.3-.3v.1c.1-.1.1-.3.3-.3v.1c.3-.1.4-.4.7-.4 0 .2.1 0 .2.2l.1-.1-.1-.1c.1-.1.2-.2.3-.2l-.6-.3.2-.1h-.2c.1-.1-.1-.2.1-.2 0 0 .1-.1.2 0 0-.1.1-.2.2-.2l.1.2c0-.2.3-.2.3-.4v.2-.1c.1 0 .1 0 .1.1.2-.1-.1-.2.1-.2v.1c.2 0 .4-.3.6-.3.1.1-.2.1 0 .2.3-.2.5-.5.8-.5h-.1c-.1-.3.3 0 .4-.1v.1c.2 0 .4-.2.6-.4v.1H89.239v-.1c0 .1.1.1.1.1.1 0 .1 0 .2.1.1 0 .2 0 .4-.1s.4-.2.6-.2c0 0-.1.1 0 .1l.3-.3c-.1-.1-.1 0-.2 0 0-.1 0-.2.1-.2 0 .2.1.1.2.1 0 0 0-.1-.1-.1.3 0-.1-.2.1-.2v.1c0-.1 0-.2.1-.2.1.1 0 .1.1.2.1-.1 0-.4.2-.4 0 .1-.1.1-.1.2.2 0 .2 0 .3-.1l.2-.2h-.1c-.2-.3.2-.4 0-.7.1.3.1.1.2.1.1-.1.1-.1.2-.1-.1-.1.1-.2 0-.4 0 0 0-.1.1-.1-.1-.2-.1.1-.1 0-.1-.1-.1-.3-.1-.4 0-.2-.1-.4-.3-.4-.2-.2-.4-.1-.6-.2 0-.1.2-.1.2-.1-.1-.1-.2-.2-.3-.2v-.1c-.1 0-.1.1-.2 0 0 0 .1-.1.2-.1-.1 0-.3 0-.4.1 0-.1.1-.1.2-.2-.2 0-.4 0-.5.2h.1c-.1 0 0-.1 0-.1.1-.1.2.1.2.1h-.1c.1.3.4 0 .5.1l-.1.1c-.4-.1-.8-.2-1.3 0 0-.1-.1-.2-.1-.2h.1v-.2l-.1.1c-.1-.1-.1-.2-.3-.2l-.1.2-.1-.1.1-.1c-.1-.1-.1 0-.2.1l-.1-.1-.1.3c-.1-.1 0-.2-.1-.2 0 .1.2.2.1.3-.1-.1-.1-.2-.2 0v-.1c-.1.1-.2.1-.2.3-.1-.1-.3.2-.4 0 0 .1-.1.2-.2.3 0-.3-.3.1-.4-.2 0 .3-.3.3-.5.5v-.1h-.3c.1.2-.1.3-.1.4-.2-.1 0-.2-.1-.4.1.1-.2.2-.1.3-.1-.1-.1 0-.2-.1.1.2-.1.1-.1.2-.2-.1-.1-.2-.3-.1-.1 0 0-.2 0-.2-.2.1 0 .2 0 .3-.2.1-.1-.1-.2-.1-.1.1-.1.3-.2.3v-.1c-.1.2-.4.2-.5.4.1.1.1.2.1.2-.1 0-.1.2-.2.1v-.1l-.1.1c-.1-.1.1-.1 0-.2-.1.1-.2.3-.4.3-.1-.1.2-.2 0-.2h.2c-.2-.2.1 0-.1-.2-.2 0-.2.2-.5.2 0 .1.1.1.1.2-.3.3-.4-.3-.6 0 0 .1 0 .3-.2.3v-.2c-.2.1 0 .3-.3.3 0-.1.2-.1.1-.1-.2-.1-.1.1-.2.2l-.1-.1c-.2.1-.5.3-.7.5 0-.1 0-.1-.1-.1-.3.2-.7.2-1.1.3l-.1.2s-.1 0-.1-.1c-.1 0 0 .1 0 .2-.1 0-.1 0-.1-.1-.2.2-.5.5-.8.4v-.1c-.2 0-.1.4-.3.3-.4.1-.8.4-1.2.3 0 .2-.4 0-.4.3-.3-.1-.2-.1-.6-.1-.1 0-.1.2-.2.3l-.1-.1-.1.2-.1-.1-.1.1s.1 0 .1.1c-.1.1-.4 0-.4-.1l-.3.2c0-.1 0-.1.1-.2-.2.2-.1-.1-.2.1v.1c-.1-.1-.3 0-.5.1v-.1l-.9.3c.1 0 .2.2.1.2l-.1-.1c0 .1.1 0 0 .2-.1 0-.1-.2-.1-.2l-.1.1v-.1c0 .1-.3-.1-.3.1-.3.1-.4.2-.7.3 0 .1-.1.1-.1.3-.2 0-.4 0-.7.1-.2.1 0 .1-.1.2-.1-.1-.3 0-.2-.1-.3.2-.5.3-.7.8h.1c0 .1-.1.1-.2.1-.1.3-.2.5-.3.8-.1.3-.1.6 0 .8l.3.4c.1.2-.1-.1-.1.1.4.3.4.7.9.8 0 .1.1.2.2.2h-.1c-.2.1 0 .1-.1.2-.1-.1-.3 0-.2-.1-.2.1-.3.2-.4.2-.1.1-.2.2-.3.4h.1c0 .1-.2.1-.2 0-.1.3-.3.4-.4.7-.2.2-.3.5-.1.7l.2.4c0 .2-.1-.1-.2.1.3.4.2.8.7 1-.3.1-.6.3-.6.6l-.1.5c-.1.2 0-.2-.2 0 .1.5-.2.8 0 1.2-.2.2-.1.5.1.8s.4.5.6.7v-.1c.1 0 .1.1.1.2 0-.1-.1-.1 0-.1.5.2.8.3 1.1.5.3.2.7.4 1 .5.2.1.3-.4.5-.1l-.1.1c.6 0 1.1.3 1.6.3l-.1.1c.1.1.4.1.4 0 .1 0 0 .1 0 .2.1.1.3-.1.3.1h-.1c.1 0 .3.1.3-.1.2.1.4 0 .5.2.1-.1.3.2.4-.1-.1.2.3.3.4.2-.1.1.1.1 0 .2.1 0 .3 0 .3-.1.2.3.6-.1.6.3h1.2c-.1.2-.4-.1-.4.2.4 0 .6-.2 1-.1.1 0-.1.1-.1.1.4 0 .7.1 1 0l-.1.1c.1 0 .1.1.1-.1h-.1c-.1-.2.3-.3.3-.4-.1.3.3.1.1.5l.1-.1c.1 0 .1.1 0 .1.2 0 .2-.1.4-.1 0 0 0 .1-.1.1.1-.1.2-.2.4-.1v.1c.3 0 .5-.2.8-.1-.1.2.1.1.1.3h.2l-.1-.1c.2 0 .3-.1.4 0l-.1.1h.3l-.2-.1c.2-.1 0-.2.2-.2 0 0 .2 0 .2.1.1-.1.2-.1.3-.1v.2c.1-.2.4 0 .5-.2v.2l.1-.1c.1 0 .1.1.1.1.2 0-.1-.2.2-.1h-.1c.2.1.5 0 .7 0 .1.2-.2 0-.1.2.3 0 .7-.2 1-.1h-.1c.1-.3.2.2.4 0l-.1.1c.2.1.5 0 .8-.1v.1c.1.1.3.1.5.1.1-.1.1 0 .1-.1.4.4.9-.1 1.2.3h-.1.3c0-.1 0-.1-.1-.2.1-.1.2-.1.2-.1-.2 0 0 .2 0 .3v-.1c.1.2.1-.2.3 0v.1c.1 0 .2-.1.3 0 0 .1-.1 0-.1.1.1 0 .3-.2.4 0h-.2c.1.2.1.1.3.2l.3.1h-.1c.1-.2.2-.2.3-.2.1 0 .2 0 .3-.2-.1.3 0 .1.1.3h.2c.1-.2.3-.1.3-.3 0 0 .1-.1.2 0 .1-.2-.1 0-.1-.1 0-.3.5-.4.4-.9 0-.3-.2-.4-.3-.6v-.1c.1 0 .2.1.2.1.1-.1 0-.3-.1-.4.1 0 .1 0 .1-.1-.1-.1-.2 0-.2-.2h.2c-.1-.1-.3-.2-.4-.3.9-.9 1-.9 1.1-.8zm-9.4-1.8c.1 0 .1 0 0 0 .1 0 .1 0 0 0zm-.2-.1c0 .1 0 .1 0 0 0 .1-.1 0-.2 0h.2zm6-4.9v-.1h.1c-.1 0-.1 0-.1.1zm1.9-2.2s0 .1 0 0h-.1.1zm-.5-.7s0 .1-.1.1l-.1-.1h.2zm-16.1 1.6v-.1h.1s0 .1-.1.1zm-.1-.1c.1 0 .2 0 .1.1-.1 0-.2-.1-.1-.1zm7.4-.9zm-.3 0c.1.1.1.1 0 0 0 .1-.1 0-.1 0 0 .1.1 0 .1 0zm-5.7.7s-.1 0 0 0c-.1 0 0 0 0 0zm14.3-5.7v-.1h.1c0-.1 0 0-.1.1zm1.5-2.9l-.1.1s0-.1-.1-.1h.2zm-.7-.7v.1s-.1 0-.1-.1c0 .1.1 0 .1 0zm-8.8 2.7c-.1 0-.1.1 0 0-.1.1-.1 0 0 0zm-.3.2v.1s-.1 0-.1-.1h.1zm7.6 17v-.1h.1c0 .1 0 .1-.1.1zm3.2-.7h-.1v-.1c.1 0 .1 0 .1.1zm0-.9v-.2c.1 0 .2.1.2.1-.1.1-.2.1-.2.1zM78.539 40.118v.1-.1zM92.139 45.818s0-.1 0 0z"/><path d="M81.639 44.918c-.1.1-.1.1 0 0zM84.739 44.918s-.1 0-.1.1c.1 0 .1 0 .1-.1zM78.139 44.518zM92.839 42.718c-.1 0-.1 0 0 0zM92.639 42.618c.1.1 0 0 0 0zM93.339 43.818c.1 0-.1.2-.1.3 0-.1.1-.2.1-.3zM86.139 45.218l.1-.1h-.1zM17.039 26.518c0 .2.1.2.2.2l-.1.1c.1 0 .3-.1.3-.2-.2.1-.1 0-.3.1-.1 0 0-.1 0-.1-.1 0-.1-.1-.1-.1zM17.839 27.218zM13.539 24.118v.1c.1 0 .2 0 0-.1zM17.839 27.318zM6.839 25.318v-.1.1z"/><path d="M17.739 27.018c-.1-.1-.3-.3-.4-.2v.1l.1-.1c.2 0 0 .2 0 .2h-.1c-.2.2.2.2.2.4h-.2c-.1-.3-.3-.6-.7-.8 0-.1.1-.1.1-.2v.1l.1-.1h-.1c0-.1.1-.2 0-.3l-.2.1v-.1l.1.1c0-.1-.1-.1-.2 0v-.1l-.2.1c0-.1.1-.1.1-.2-.1.1 0 .2-.2.2 0-.1.1-.2-.1-.2 0-.1.1-.1.1-.1-.1 0-.2-.1-.3 0 0-.1-.2-.1-.1-.3 0 0-.2.1-.3.1.2-.2-.2-.1 0-.4-.2.2-.3-.1-.5 0h.1c-.1-.1-.1-.1-.1-.2-.1.2-.3.1-.4.2 0-.2.2-.2.2-.3-.1.1-.2 0-.3.2v-.2c-.1.2-.1 0-.2.1 0-.2.1-.2-.1-.2 0-.1.1-.1.1-.1-.1-.1-.1.1-.2.2-.2 0 0-.2 0-.3-.1 0-.3.1-.3.1v-.1c-.2.1-.3-.2-.5-.1 0 .1-.1.2-.1.2-.1 0-.2 0-.1-.1h.1-.1c0-.2.1 0 .2-.1-.1 0-.3 0-.4-.1.1-.2.2.1.2-.1l.1.1c0-.3.1.1.1-.2-.1-.1-.2 0-.4-.2-.1.1-.1.1-.1.2-.3 0 0-.5-.3-.4-.1.1-.2.2-.3.1l.1-.1c-.2-.1-.2.2-.3 0h.1c0-.2-.1 0-.2 0l.1-.2c-.2-.1-.4-.1-.7-.2l.1-.1c-.3-.1-.5-.3-.7-.5l-.2.1v-.1c-.1-.1-.1.1-.1.1-.1 0 0-.1 0-.1-.2 0-.6 0-.7-.3h.1c-.1-.1-.3.2-.4 0-.3-.2-.7-.3-.8-.6-.1.2-.2-.2-.4 0-.1-.2 0-.2-.2-.5-.1 0-.2.1-.3.1l.1-.1-.2.1v-.2h-.1v.1c-.1 0-.2-.3-.2-.3h-.3c0-.1.1 0 .1-.1-.2.1.1-.2-.1-.1l-.1.1c0-.1-.2-.2-.3-.2l.1-.1c-.2-.1-.4-.2-.7-.3.1.1-.1.2-.1.2l.1-.2c-.1.1 0 .1-.1.2-.1-.1 0-.2.1-.2h-.1l.1-.1c-.1.1-.1-.2-.2-.1-.2-.1-.3-.1-.5-.2-.1.1-.2 0-.3.1-.2-.1-.4-.3-.6-.3-.2.1-.1.1-.1.2 0-.1-.3-.1-.1-.2-.3.1-.4.1-.7.3.1 0 .1 0 .1.1h-.2c-.1.2-.4.3-.6.4-.2.1-.4.3-.4.5v.4c-.1.1-.1-.1-.2 0 .1.4-.1.6 0 .9-.2.2-.1.4.1.6.1.2.3.4.4.6v-.1c.1 0 0 .1.1.2v-.1c.4.2.5.3.8.5l.6.6c.2.1.3-.3.4 0l-.1.1c.4 0 .7.4 1.1.5 0 0-.1.1-.1 0 0 .1.3.2.3.1v.1c0 .1.3 0 .2.1h-.1c.1 0 .2.1.2 0 .1.1.3.1.3.2.1-.1.2.2.3 0-.1.2.1.3.3.2-.1 0 0 .1 0 .2.1 0 .2.1.2 0 0 .3.5 0 .4.4.3 0 .6.1.9.2-.1.2-.3-.1-.4.1.3.1.5 0 .7.1 0 .1-.1.1-.1.1.3.1.4.3.7.3h-.1s.1.1.1 0h-.1c0-.2.3-.2.4-.2-.2.2.2.2-.1.4 0 0 .1 0 .1-.1 0 0 0 .1-.1.1.2 0 .2-.1.3 0 0 0-.1 0-.1.1.1 0 .2-.1.3 0 0 0 0 .1-.1 0 .2.1.5 0 .6.2-.2.2 0 .1 0 .3h.1v-.1c.1.1.3 0 .3.1h-.1l.2.1-.1-.1c.1 0 .1-.2.2-.1 0 0 .1.1.1.2h.2c0 .1-.1.2-.1.2.1-.1.3.1.4 0l-.1.1.1-.1v.1c.1.1.1-.2.2 0h-.1c.1.1.4.1.5.3 0 .2-.2 0-.2.1.2.1.6.1.8.2.2-.2.1.2.3.2l-.1.1c.1.1.3.1.6.2h-.1c.1.1.2.2.3.2s.1 0 .1-.1c.1.5.6.1.9.5h-.1.3c0-.1 0-.1-.1-.2 0-.1.1-.1.2-.1-.1.1 0 .2 0 .2v-.1c.2.2 0-.2.2-.1v.1c.1 0 .1-.1.2-.1.1.1-.1.1 0 .2.1 0 .1-.3.3-.2 0 .1-.1.1-.1.1.2.1.2.1.3 0h.2-.1c-.1-.4.2-.2.2-.5 0 .3.1.1.2.2h.2c0-.1.2-.1.1-.3 0 0 .1-.1.2 0 0-.1-.1 0-.1-.1 0-.2.4-.3.2-.7-.1-.2-.2-.3-.3-.4h.2c.1-.1 0-.2 0-.3 0 0 .1 0 .1-.1s-.2 0-.2-.1h.2c-.1-.1-.2-.1-.3-.2.6-.8.7-.7.8-.7zm-6.2-3.8zm-.2-.1c0 .1 0 .1 0 0 0 0-.1 0-.1-.1l.1.1zm4 6.2s0-.1.1-.1h.1c-.1.1-.2.1-.2.1zm2.1-1.1v-.1s.1 0 .1.1h-.1zm.1-.7v-.1c.1 0 .2.1.2.1h-.2zM8.139 21.018zM17.339 29.218s-.1 0 0 0zM9.739 26.718z"/><path d="M12.039 27.618c-.1 0-.1 0 0 0-.1 0-.1.1 0 0zM7.439 25.618h-.1zM17.639 26.718zM17.439 26.718c.1 0 .1 0 0 0zM17.939 27.818c0-.1.1-.2.1-.2s-.2.2-.1.2zM12.839 28.218v.1l.1-.1zM14.839 31.118c0 .1.1.2.2.1v.1c.1-.1.2-.1.2-.3-.1.1-.1 0-.3.2-.1 0-.1-.1 0-.1 0 0 0-.1-.1 0zM15.939 31.518s-.1-.1 0 0zM11.139 29.918v.1c0-.1.2-.1 0-.1zM15.939 31.518c-.1 0-.1 0 0 0-.1 0 0 0 0 0zM5.439 32.818v-.1.1z"/><path d="M.339 29.718c.2.3.1.6.3.8-.1.2 0 .4.2.6s.4.3.5.5v-.1c.1 0 .1.1.1.1v-.1c.4.1.6.2.8.3.2.1.5.3.7.4s.2-.4.4-.1l-.1.1c.4-.1.7.2 1.2.2 0 0 0 .1-.1.1 0 .1.3.1.3 0 .1 0 0 .1 0 .1.1.1.2-.1.2 0 .1 0 .2.1.2-.1.1.1.3 0 .4.1.1-.1.2.1.3-.1-.1.2.2.2.3.2 0 .1.1.1 0 .2.1 0 .2 0 .2-.1.1.3.4-.1.4.3h.9c-.1.2-.3-.1-.3.2.3 0 .5-.2.7-.1.1 0-.1.1-.1.1.3 0 .5.1.7.1h-.1s.1.1.1 0c0-.2.2-.3.3-.3-.1.3.2.1 0 .5 0 0 .1 0 .1-.1v.1c.2 0 .1-.1.3-.1 0 0 0 .1-.1.1.1-.1.2-.2.3-.1v.1c.2 0 .4-.2.6 0-.1.2.1.1 0 .3h.1v-.1c.1 0 .2-.1.3 0l-.1.1h.2l-.1-.1c.1-.1 0-.2.2-.2 0 0 .1 0 .1.1.1 0 .1-.1.2 0 0 .1-.1.2-.1.2.1-.1.3 0 .4-.1 0 0-.1.1 0 .1l.1-.1v.1c.1.1 0-.2.2-.1s.4 0 .5.1c0 .2-.2 0-.1.2.2 0 .5-.1.8 0 .1-.3.1.2.3.1l-.1.1c.1.1.3 0 .6 0v.1c.1.1.2.1.3.1 0-.1.1 0 .1-.1.1.2.3.2.5.1.2 0 .3-.1.5 0l-.1.1.3-.1-.1-.1c0-.1.1-.1.1-.2-.1.1.1.2.2.2v-.1c.2.1-.1-.2.1-.2v.1c0-.1 0-.2.1-.2.1.1 0 .1 0 .2.1-.1 0-.3.1-.3 0 .1-.1.1-.1.2h.2l.2-.1h-.1c-.2-.3.1-.3 0-.5.1.2.1.1.2.2.1 0 .1-.1.2 0-.1-.1.1-.1 0-.3.1 0 0-.1.1 0 0-.1-.1 0-.1 0-.1-.2.3-.4 0-.7-.1-.2-.3-.2-.4-.3.1-.1.2 0 .2 0 0-.1 0-.2-.1-.3 0 0 .1 0 .1-.1-.1-.1-.2.1-.2-.1.1 0 .1-.1.2-.1-.1-.1-.3-.1-.4-.1 0-.1.1-.1.2-.1-.1-.1-.3-.1-.4 0v.1s0-.1.1-.1c.2 0 .1.1.1.2h-.1c-.1.3.2.1.3.3l-.2.1c-.2-.2-.4-.4-.8-.5 0-.1 0-.2.1-.2l.1-.2h-.1c0-.1 0-.2-.1-.3l-.2.1v-.1h.1c0-.1-.1 0-.2 0v-.1l-.2.2c0-.1.1-.2 0-.2-.1.1 0 .2-.1.3 0-.1 0-.2-.1-.1 0-.1 0-.1.1-.1-.1.1-.2 0-.2.1 0-.1-.2 0-.2-.2l-.2.1c.2-.2-.2-.1-.1-.3-.1.2-.3 0-.5.1 0 0 0-.1 0 0-.1 0-.1-.1-.1-.2-.1.2-.2.2-.3.3-.1-.2.1-.2.1-.4 0 .2-.2.1-.2.3-.1-.1-.1-.1-.1-.2-.1.2-.1 0-.2.2-.1-.1 0-.2-.1-.2 0-.1.1-.1.1-.1-.1 0-.1.2-.1.3-.2 0 0-.1-.1-.3-.1 0-.2.2-.3.2v-.1c-.1.1-.3-.1-.5.1v.3c-.1 0-.1.1-.1 0l.1-.1h-.1c0-.2.1 0 .1-.2-.1 0-.3.1-.4.1 0-.2.2 0 .1-.2l.1.1c0-.3.1 0 0-.3-.2-.1-.2 0-.4-.1-.1.1 0 .1-.1.2-.3.1-.1-.5-.3-.3-.1.1-.1.3-.3.2l.1-.2c-.2-.1-.2.2-.3.1.1-.1.2 0 .1-.1-.1-.2-.1.1-.2.1v-.2h-.6s.1-.1 0-.2c-.3 0-.5-.2-.8-.3l-.1.1v-.1c-.1-.1 0 .1-.1.1s-.1-.1 0-.1c-.2.1-.6.1-.7-.1-.1-.1-.2.2-.3.1-.3-.1-.7-.1-.8-.4-.1.2-.3-.2-.4.1-.1-.2-.1-.2-.3-.4-.1 0-.2.1-.2.2v-.1l-.2.1v-.2h-.1v.1c-.1 0-.3-.2-.2-.3h-.3c0-.1.1-.1.1-.1-.2.1 0-.2-.2-.1 0 0 0 .1-.1.1 0-.1-.2-.2-.3-.2l.1-.1c-.2-.1-.4-.1-.7-.2.1.1 0 .2-.1.2v-.2c-.1.1.1.1-.1.2-.1 0 0-.2.1-.2h-.1s0-.1.1-.1c-.1.1-.1-.2-.2-.1-.1 0-.2-.1-.3-.1s-.2 0-.4-.1c0 .1-.1.1-.2.2-.2-.1-.4-.2-.7-.1-.1.1 0 .1-.1.2-.1-.1-.3 0-.2-.1-.1.1-.2.1-.3.2s-.1.2-.2.3h.1c0 .1-.1.1-.2 0 0 .2-.2.3-.4.5s-.3.4-.2.6c0 0 0 .1.1.2 0 .1.1.2.1.2.2-.1.2-.4.1-.2zm13.9 4.4s.1 0 0 0c.1 0 .1.1 0 .1v-.1zm1.7-1.7h-.1v-.1c0 .1 0 .1.1.1zm-.2-.7l-.1.1s0-.1-.1-.1h.2zm-6.7-2.1s.1 0 0 0c.1 0 0 0 0 0zm-.1 0s-.1.1 0 0c0 .1-.1 0-.1 0 0-.1 0 0 .1 0zM5.439 28.318h.1zM15.939 33.418zM8.439 33.518z"/><path d="M10.739 33.718s-.1 0 0 0c-.1.1 0 .1 0 0zM6.039 33.018zM15.439 31.018c0 .1 0 .1 0 0zM15.339 31.118c.1 0 0-.1 0 0zM16.139 32.018v-.2c0-.1-.1.1 0 .2zM11.739 34.018h-.1l.1.1zM15.339 35.418l-.2.2c-.1 0-.1-.1-.1-.1s-.1 0-.1.1c.1.1.1.1.3 0v.1c0-.1.2-.2.1-.3zM16.139 35.718c-.1 0-.1 0 0 0-.1 0-.1 0 0 0zM10.839 35.518c0-.1.1-.1 0-.1v.1zM16.139 35.718c-.1 0-.1 0 0 0-.1 0 0 0 0 0zM5.739 39.918s-.1-.1 0 0l-.1-.1.1.1z"/><path d="M16.739 37.218c0-.1-.1 0-.1 0-.2-.2.2-.5-.1-.7-.2-.2-.3-.2-.5-.2 0-.1.2 0 .2 0 0-.1-.1-.2-.2-.2l.1-.1c-.1-.1-.2.1-.2 0 0 0 .1-.1.2-.1-.1-.1-.3 0-.4 0 0-.1.1-.1.2-.1-.1 0-.3-.1-.4 0l.1.1s0-.1.1-.1c.1-.1.1.1.1.1h-.1c-.1.3.3.1.4.2l-.1.1c-.2-.2-.5-.3-.9-.3v-.4h-.1c0-.1-.1-.2-.2-.3l-.1.2-.1-.1h.1c-.1-.1-.1 0-.2.1 0-.1 0-.1-.1-.1l-.1.2c0-.1.1-.2 0-.2-.1.1.1.2 0 .3-.1-.1-.1-.2-.1-.1v-.1c-.1.1-.2 0-.2.2-.1-.1-.2 0-.3-.2 0 .1-.1.2-.2.2.1-.3-.3 0-.2-.3-.1.2-.3.1-.5.3 0 0 0-.1 0 0-.1 0-.1-.1-.2-.1 0 .2-.1.2-.2.4-.1-.2.1-.2 0-.4 0 .2-.2.2-.1.3-.1-.1-.1-.1-.1-.2 0 .2-.1 0-.1.2-.1-.1 0-.2-.2-.1-.1-.1 0-.2 0-.2-.1 0-.1.2-.1.3-.2.1-.1-.1-.1-.2l-.2.2v-.1c-.1.2-.3 0-.4.2v.3c-.1 0-.1.1-.1 0l.1-.1-.1.1c-.1-.2.1-.1.1-.2-.1.1-.3.2-.4.2 0-.2.2-.1.1-.2l.2.1c-.1-.3.1 0 0-.3-.2 0-.2.1-.4.1v.2c-.3.2-.2-.4-.4-.2 0 .1-.1.3-.2.2v-.2c-.2 0-.1.3-.3.2 0-.1.1-.1.1-.1-.1-.1-.1.1-.2.1v-.2c-.2 0-.4.2-.6.2v-.2c-.3.1-.6 0-.9-.1l-.1.2v-.1c-.1 0 0 .1 0 .2-.1 0-.1-.1 0-.1-.2.1-.5.3-.7.2-.2-.1-.2.3-.3.2-.3 0-.7.1-1-.1 0 .2-.3-.1-.3.2-.2-.1-.1-.2-.4-.3-.1 0-.1.2-.2.2v-.2l-.1.2-.1-.2h-.1l.1.1c-.1.1-.3-.1-.3-.2l-.3.1c0-.1.1-.1.1-.1-.2.2 0-.2-.2 0v.1c-.1-.1-.3-.1-.4 0v-.1c-.2 0-.5.1-.7.1.1 0 .1.2 0 .3v-.2c0 .1.1.1 0 .2-.1 0-.1-.2 0-.2l-.1.1v-.1c0 .1-.2-.2-.3 0-.3 0-.4.1-.6.1 0 .1-.1.1-.2.2-.2 0-.5 0-.7.1-.1.2 0 .1 0 .2-.1-.1-.3.1-.2-.1-.2.2-.3.3-.4.7h.1c0 .1-.1.1-.2.1 0 .2-.2.4-.3.6s-.2.5-.1.6l.2.3c0 .2-.1-.1-.2.1.3.3.2.6.5.8-.1.2.1.4.4.5.2.1.5.1.7.3v-.1c.1-.1.1.1.2.1 0-.1-.1-.1 0-.1h.9c.3 0 .6.1.8.1s.1-.5.3-.3l-.1.2c.4-.2.8 0 1.2-.2 0 0 0 .1-.1.1.1.1.3 0 .3-.1.1 0 0 .1.1.1.1.1.2-.2.3 0v.1c.1-.1.3 0 .2-.1.2.1.3-.1.4 0 .1-.2.3.1.3-.2 0 .2.3.2.4.1 0 .1.1.1.1.2.1 0 .2-.1.2-.2.2.3.4-.2.5.1l.9-.3c0 .2-.3 0-.3.3.3-.1.4-.3.7-.3.1 0 0 .1-.1.1.3-.1.5 0 .8-.1v.1s.1 0 .1-.1c-.1-.1.2-.3.2-.4-.1.3.2.1.1.4l.1-.1s.1.1 0 .1c.2-.1.1-.2.3-.2v.1c.1-.1.1-.2.3-.2v.1c.2 0 .4-.3.6-.2-.1.2.1.1.1.3l.1-.1-.1-.1c.1 0 .2-.1.3-.1l-.1.1h.2l-.1-.1c.1-.1 0-.2.1-.2 0 0 .1 0 .2.1.1-.1.1-.1.2-.1v.2c0-.2.3-.1.3-.2v.2-.1c.1 0 .1.1.1.1.2 0-.1-.2.1-.1v.1c.2 0 .4-.1.5 0 .1.2-.2.1-.1.2.3 0 .5-.3.8-.2 0-.3.2.1.3 0v.1c.2 0 .3-.1.6-.2v.1c.1.1.3 0 .4 0 0-.1.1-.1 0-.2.3.4.6-.2 1 0 0 0-.1.1 0 .1l.3-.2c-.1-.1-.1 0-.2-.1 0-.1.1-.1.1-.2-.1.1.1.2.2.2 0 0 0-.1-.1-.1.2.1-.1-.2.1-.2v.1c0-.1 0-.2.1-.2.1.1 0 .1.1.2.1-.1 0-.3.1-.3v.2c.2 0 .2 0 .2-.1l.2-.1h-.1c-.3-.3.1-.3-.1-.5.2.2.1.1.3.1.1 0 .1-.1.2-.1-.1-.1.1-.2 0-.3-1-.9-1.1-1-1-1zm-.7-1.2s0 .1-.1.1l-.1-.1h.2zm-7.4-.3zm-.2 0s0 .1 0 0c0 .1-.1 0-.1 0h.1zm6.5 3.1v-.1h.1s0 .1-.1.1zm1.3-2.1v-.1h.1c0 .1 0 .1-.1.1zM4.639 35.618v.1-.1zM16.639 37.718c-.1 0-.1 0 0 0zM8.939 39.618c-.1 0 0 0 0 0zM11.239 39.118s0 .1 0 0c0 .1 0 .1 0 0zM6.339 39.918zM15.539 35.418zM15.539 35.418s-.1 0 0 0zM16.439 36.118c0-.1 0-.2-.1-.2.1 0 0 .2.1.2z"/><path d="M12.339 39.318v-.2l-.1.1z"/></g><g fill="#66454d"><path d="M50.639 29.318c0 .1 0 .2.2.2l-.1.1c.1 0 .2-.1.3-.2-.2.1-.1 0-.3.1v-.1c0-.1 0-.2-.1-.1zM51.439 29.918zM47.239 27.218v.1s.1 0 0-.1zM51.439 29.918zM42.939 37.218s-.1 0 0 0l-.1-.1.1.1z"/><path d="M51.639 31.318c-.1-.2.2-.4 0-.7-.1-.2-.3-.2-.4-.3.1-.1.2 0 .2 0 0-.1 0-.2-.1-.3 0 0 .1 0 .1-.1s-.2 0-.2-.1h.2c-.1-.1-.2-.1-.3-.1.1-.1.1 0 .2 0-.1-.1-.2-.2-.4-.1v.1l.1-.1c.1 0 0 .1 0 .2h-.1c-.2.2.2.2.2.3h-.2c-.1-.3-.3-.5-.6-.7l.2-.2v.1l.1-.1h-.1c.1-.1.1-.2 0-.3h-.2v-.1l.1.1c0-.1-.1-.1-.2 0v-.1l-.2.1c0-.1.2-.1.1-.2-.1.1-.1.2-.2.2 0-.1.1-.2-.1-.2 0-.1.1-.1.1-.1-.1 0-.2-.1-.3 0 0-.1-.2-.1-.1-.3 0 0-.2.1-.3.1.2-.2-.2-.1-.1-.4-.2.2-.3-.1-.5 0h.1c-.1-.1-.1-.1-.1-.2-.1.2-.2.2-.3.2 0-.2.1-.2.2-.4-.1.1-.2.1-.3.2v-.2c-.1.2-.1 0-.2.1-.1-.2 0-.2-.1-.2 0-.1.1-.1.1-.1-.1-.1-.1.1-.2.2-.2 0 0-.2-.1-.3-.1 0-.2.2-.3.1v-.1c-.1.1-.3-.1-.5.1v.2c-.1 0-.1.1-.1 0l.1-.1h-.1c0-.2.1 0 .1-.2-.1 0-.3.1-.4.1 0-.2.2 0 .1-.2l.1.1c0-.3.1 0 0-.3-.2-.1-.2 0-.4-.1-.1.1 0 .1-.1.2-.3.1-.1-.5-.4-.3-.1.1-.1.3-.2.2l.1-.2c-.2 0-.1.3-.3.1 0-.1.2 0 .1-.1-.1-.2-.1.1-.2.1v-.2c-.2 0-.4.1-.6.1 0 0 .1-.1 0-.2-.3.1-.6 0-.9-.1l-.1.2v-.1c-.1-.1 0 .1 0 .2-.1 0-.1-.1 0-.1-.2.1-.5.3-.7.2-.2 0-.1.3-.3.2-.3 0-.7.2-.9 0 0 .2-.3 0-.3.3-.2-.1-.2-.2-.5-.2-.1 0 0 .2-.1.3v-.1l-.1.2-.1-.1-.1.1s.1 0 .1.1c-.1.1-.4.1-.4 0l-.2.3v-.2c-.1.2-.1-.1-.2.1 0 0 0 .1.1.1-.1 0-.3.1-.3.2l-.1-.1c-.2.2-.3.5-.5.7.1-.1.2 0 .2.1h-.2c.1.1.1-.1.2.1-.1.1-.2 0-.2-.1v.2l-.1-.1c.1.1-.3.2-.1.3-.1.4 0 .4 0 .7.1 0 .1.1.2.2-.1.1-.2.3-.2.5.1.1.1 0 .2.1-.1 0-.1.2-.2.1 0 .2 0 .3.1.5.1 0 .1-.1.1 0l-.1.1c.2.3-.3.7 0 1l.2.2c0 .1-.1-.1-.2 0 .2.2 0 .4.2.6-.3.3.2.6 0 .9h.1c.1 0 0 .1 0 .1.1 0 .1-.1.1-.1.1.2.2.5.2.8s.1.6.2.9c.1.2.4-.2.5.2h-.2c.5.2.8.7 1.3.7l-.1.1c0 .2.3.1.4 0 .1 0 0 .1 0 .2.1.1.3-.1.3 0h-.1c.1 0 .3.1.2-.1.2.1.3 0 .4 0 .1-.2.3.1.3-.2 0 .2.1.2.1.1v-.1.2s.2 0 .2-.1c.2.3.5-.1.6.2.4-.1.7-.2 1-.3 0 .2-.3.1-.3.3.3-.1.4-.4.7-.4.1 0 0 .1 0 .1.2-.2.5-.1.7-.3v.1s.1 0 .1-.1c-.1-.1.1-.4 0-.4 0 .3.2 0 .3.4v-.1s.1 0 .1.1c.1-.1 0-.2.2-.2v.1c0-.1.1-.2.2-.3v.1c.2-.1.2-.4.5-.4 0 .2.1 0 .2.2l.1-.1-.1-.1c.1-.1.1-.2.2-.2v.1l.2-.1h-.1c0-.1-.1-.2 0-.2 0 0 .1-.1.2 0 0-.1 0-.2.1-.2l.1.2c0-.2.2-.2.2-.4l.1.1v-.1c.1 0 .1 0 .1.1.1-.1-.2-.2 0-.2v.1c.2-.1.2-.3.4-.3.2.1-.1.1.1.2.2-.2.3-.5.5-.6-.2-.2.2 0 .2-.2l.1.1c.1-.1.2-.3.3-.5v.1c.1 0 .2-.2.3-.2 0-.1 0-.1-.1-.1.5 0 .2-.6.7-.6v.1l.1-.2c-.1-.1-.1 0-.2 0v-.2c0 .1.2.1.2.1s-.1 0-.1-.1c.2 0-.2-.1 0-.2v-.2c.1 0 0 .1.1.1 0-.1-.1-.3 0-.3v.2c.2 0 .2 0 .2-.1l.1-.1h-.1c-.3-.2 0-.3-.1-.5.2.2.1.1.3.1.1 0 .1-.1.2-.1-.2.1.1 0-.1-.2.1.1 0 0 .1 0 0-.1-.1 0-.1 0zm-.4-1.2l-.1.1v-.1h.1zm-6.2-2.9c0-.1.1-.1 0 0 .1-.1 0 0 0 0zm-.1 0s0 .1 0 0c0 .1-.1 0-.1 0h.1zm5.4 5.9c.1 0 .1 0 0 0 .1.1 0 0 0 0zm1-2.3s-.1 0 0 0c0-.1.1-.1.1 0h-.1zM41.139 27.418zM51.539 31.718zM46.039 36.818c-.1.1-.1 0 0 0z"/><path d="M47.839 35.518c0 .1 0 .1 0 0 0 .1.1.1 0 0zM43.239 37.218zM51.139 29.518zM51.639 30.418c0-.1.1-.2 0-.2 0-.1-.1.1 0 .2zM48.739 35.118h.1v-.1zM66.739 25.418c-.2 0-.1 0-.3.1 0 0 0-.1.1-.1h-.1c-.1.1-.1.1 0 .1h-.1c.1 0 .3 0 .4-.1zM66.839 25.618zM65.639 23.918v0zM66.839 25.718s-.1 0 0 0zM63.539 28.718v-.1.1z"/><path d="M66.839 26.218h.1c0-.1 0 0-.1 0-.2-.1.2-.2-.1-.3-.1-.1-.2 0-.3-.1h.2c.1-.1 0-.1 0-.1h.2-.2.2-.1c.1 0 0 .1-.1.1-.3.1.1.1.1.1h-.2c0-.1-.1-.2-.1-.3.1 0 .1-.1.2-.1l.2-.1h-.1c.1-.1.2-.1.2-.2h-.2l.1-.1c.1-.1 0 0-.1 0 .1 0 .1-.1.1-.1l-.2.1c.1 0 .2-.1.2-.1-.1 0-.2.1-.3.1.1-.1.2-.1.1-.1h.1c-.1 0-.1-.1-.2 0 .1-.1-.1-.1.1-.2h-.2c.2-.1-.1-.1.2-.3-.2.1-.2-.1-.3 0v-.2c-.1.1-.2.1-.3.2.1-.2.2-.2.3-.3-.1.1-.2.1-.2.2 0-.1 0-.1.1-.2-.2.2-.1 0-.2.1 0-.1.1-.2 0-.2 0-.1.1-.1.1-.1-.1 0-.1.1-.2.2-.1 0 0-.1.1-.2-.1 0-.2.1-.2.1v-.1c-.1.1-.1-.1-.3.1 0 .1-.1.2-.1.2s-.1.1 0 0l.1-.1c0-.2.1 0 .1-.2-.1 0-.2.1-.2.1 0-.2.1 0 .1-.2v.1c0-.3 0 0 .1-.3-.1-.1-.1 0-.2 0 0 .1 0 .1-.1.2s.1-.4-.1-.2c-.1.1-.1.3-.2.2l.1-.2c-.1 0-.1.3-.2.1 0-.1.1 0 .1-.1 0-.2-.1.1-.1.1v-.2c-.1 0-.2.1-.3.1v-.2c-.1.1-.3 0-.4-.1v.2-.1c-.1-.1 0 .1 0 .2v-.1c-.1.1-.2.3-.3.2-.1 0 0 .3-.1.2-.2 0-.2.2-.4 0 .1.2-.2 0 0 .3-.1-.1-.2-.1-.3-.1l.1.2-.1-.1.1.2-.1-.1v.1s.1 0 .1.1-.2 0-.2 0v.2s0-.1-.1-.1c.1.2-.1-.1-.1.1l.1.1c-.1 0-.1 0-.1.1l-.1-.1c-.1.1-.1.2-.1.3.1 0 .2.1.2.1l-.2-.1c.1.1.1 0 .2.1l-.2-.1v.1s-.1 0-.1-.1c.1.1-.2 0 0 .1v.3c.1 0 .1.1.2.1-.1.1-.2.1-.2.2.1.1.1 0 .2.1-.1 0-.1.1-.2 0 0 .1 0 .1.1.1h.1-.1c.2.1-.4.3-.2.4l.1.1c0 .1-.1 0-.2 0 .2.1 0 .2.1.3-.4.2.1.3-.1.4h.1c.1 0 0 .1 0 .1.1 0 .1-.1.1-.1.2.2.1.5.2.8 0 .1.4-.2.3 0l-.1.1c.3 0 .3.3.5.3l-.1.1c0 .1.1.1.2 0 0 0 0 .1-.1.1 0 .1.2-.1.1 0 .1 0 .1.1.1-.1 0 .1.1 0 .1.1.1-.1.1.1.2-.1-.1.2 0 .2.1.1v.2s.1 0 .1-.1c0 .3.2-.2.2.2.2-.1.3-.1.4-.2 0 .2-.1 0-.2.2.1-.1.2-.3.3-.2v.1c.1-.1.2 0 .3-.1v.1s.1 0 0-.1 0-.3 0-.4c0 .3.1.1.1.4v-.1.1c.1-.1 0-.2.1-.2v.1c0-.1 0-.2.1-.2v.1c.1 0 .1-.3.2-.2.1.2.1.1.1.2v-.1l-.1-.1s0-.2.1-.1v.1l.1-.1h-.1c0-.1-.1-.2 0-.2l.1.1v-.1l.1.2c-.1-.1.1-.1 0-.2l.1.1-.1-.1s.1 0 .1.1c.1 0-.2-.2 0-.1.1 0 0-.2.1-.2.1.1 0 .1.1.2.1-.1 0-.3.1-.3-.2-.2.1 0 .1-.1l.1.1c.1 0 0-.2 0-.3h.1c.1 0 .1-.1.1-.1-.1 0 0-.1-.1-.1.4 0-.1-.3.2-.3h.1v-.1h-.2c-.1 0-.1-.1-.1-.1.1.1.2 0 .2 0h-.1c.2 0-.2-.1-.1-.1h.1l-.1-.1c.1 0 .1 0 .2.1 0 0-.2-.1-.1-.1l.1.1c.2 0 .1 0 .2-.1l.1-.1c-.3-.1-.1-.1-.3-.2.2.1.1 0 .3 0-.3 0-.2 0-.3-.1 0 .1.2 0 0 0zm-.3-.4h-.1.1zm-1.8-1.9zm-.1 0c0 .1 0 .1 0 0 0 .1 0 0 0 0zm1.9 3.1h-.1c0-.1.1 0 .1 0zm0-1h.1-.1zM66.639 25.518z"/><path d="M66.539 25.618h.1c0-.1-.1-.1-.1 0zM62.939 24.218h.1zM66.939 26.318c-.1 0-.1 0 0 0zM65.039 28.718c-.1.1-.1 0 0 0zM65.739 28.118c.1.1.1.1 0 0zM63.839 28.818h-.1zM66.839 25.518s-.1 0 0 0zM66.739 25.518s0-.1 0 0zM66.839 25.818s.1-.1 0 0c.1-.1-.1 0 0 0zM66.139 27.918l.1.1-.1-.1zM28.839 22.018c-.2 0-.1 0-.3.1 0 0 0-.1.1-.1h-.1c-.1.1-.1.1 0 .1h-.1c.1.1.2 0 .4-.1zM28.939 22.318s-.1 0 0 0zM27.539 20.618v.1s.1 0 0-.1zM28.939 22.318c-.1 0-.1 0 0 0-.1 0 0 0 0 0zM25.739 25.518v-.1.1z"/><path d="M29.039 22.818h-.1c-.2 0 .2-.2-.1-.2-.1-.1-.3 0-.3-.1h.2c.1-.1 0-.1 0-.1s.1 0 .1-.1h-.1.2-.2.2-.1c.1 0 0 .1-.1.1-.3.1.1.1.1.1h-.2c0-.1-.1-.2-.1-.3.1 0 .1-.1.2-.1l.2-.1h-.1c.1-.1.2-.1.2-.2h-.2l.1-.1c.1-.1 0-.1-.1 0l.1-.1-.2.1c.1-.1.2-.1.2-.1-.1 0-.2.1-.2.1.1-.1.1-.1 0-.1l.1-.1c-.1 0-.1-.1-.2 0 .1-.1-.1-.1.1-.2l-.2.1c.2-.1-.1-.1.1-.3-.2.1-.2 0-.3 0v-.2c-.1.2-.2.1-.3.2.1-.2.2-.2.2-.3-.1.1-.2.1-.2.2 0-.1 0-.1.1-.2-.1.2-.1 0-.2.1 0-.1.1-.2 0-.2 0-.1.1-.1.1-.1-.1 0-.1.1-.2.2-.1 0 0-.1.1-.2-.1 0-.2.2-.2.1v-.1c-.1.1-.1 0-.3.1 0 .1-.1.2-.1.2s-.1.1 0 0v-.1c0-.2.1 0 .1-.2-.1 0-.2.2-.2.1 0-.2.1 0 .1-.2v.1c0-.3 0 0 .1-.3-.1-.1-.1.1-.2 0 0 .1 0 .1-.1.2s0-.4-.1-.2c0 .1-.1.3-.1.2v-.2c-.1 0-.1.3-.2.1 0-.1.1-.1.1-.1 0-.2-.1.1-.1.1v-.2c-.1 0-.2.1-.3.2v-.2c-.1.1-.3 0-.4-.1v.2-.1c-.1 0 0 .1 0 .2 0 0-.1-.1 0-.1-.1.1-.2.3-.3.2-.1 0 0 .3-.1.2-.2 0-.2.2-.4 0 .1.2-.2 0 0 .2-.2-.1-.2-.1-.3-.1l.1.2-.1-.1.1.2-.1-.1v.1s.1 0 .1.1-.2 0-.2 0v.2s0-.1-.1-.1c.1.2-.1-.1-.1.1l.1.1c-.1 0-.1 0-.1.1l-.1-.1c-.1.1-.1.2-.1.3.1 0 .2.1.2.1h-.2c.1.1.1 0 .2.1 0 0-.2 0-.2-.1v.1s-.1 0-.1-.1c.1.1-.2 0 0 .1v.3c.1 0 .1.1.2.1 0 0-.1.1-.2.1h.2-.2c0 .1 0 .1.1.3h.1-.1c.2.1-.4.3-.1.4l.1.1c0 .1-.1 0-.2 0 .2.1 0 .2.2.3-.3.2.1.3-.1.5h.1c.1 0 0 .1 0 .1.1 0 .1-.1.1-.1.2.2.1.5.3.8.1.1.4-.3.3-.1l-.1.1c.3 0 .3.3.5.2l-.1.1c0 .1.1.1.2 0v.1c0 .1.2-.1.1 0 0 0 .1.1.1-.1 0 .1.1 0 .2.1.1-.1.1.1.2-.1-.1.2.1.2.1.1v.2s.1 0 .1-.1c0 .3.2-.2.2.2.2-.1.3-.2.4-.2 0 .2-.1 0-.1.3.1-.1.2-.3.3-.2v.1c.1-.1.2 0 .3-.1v.1s.1 0 0-.1 0-.3 0-.4c0 .3.1 0 .2.4v-.1.1c.1-.1 0-.2.1-.2v.1c0-.1 0-.2.1-.2v.1c.1-.1 0-.3.2-.3.1.2.1 0 .2.2v-.1l-.1-.1s0-.2.1-.1v.1l.1-.1h-.1c0-.1-.1-.2-.1-.2l.1.1v-.1s.1.2.2.2c-.1-.1.1-.1 0-.2l.1.1-.1-.1s.1 0 .1.1c.1 0-.2-.2-.1-.1.1 0 0-.2.1-.2.2.1 0 .1.1.2v-.4c-.2-.2.1 0 .1-.1l.1.1c.1 0 0-.2 0-.3h.1c.1 0 .1-.1.1-.1-.1 0 0-.1-.1-.1.4 0-.1-.3.2-.3h.1v-.1h-.2c-.1 0-.1-.1-.1-.1.1.1.2 0 .2 0h-.1c.2 0-.2 0-.1-.1h.1l-.1-.1h.2s-.2-.1-.1-.1l.1.1c.2 0 .1 0 .1-.1l.1-.1c-.3-.1-.1-.1-.3-.2.2.1.1 0 .3 0h.1c-.1 0 .1-.1-.1-.1-.4.2-.5.2-.4.2zm-.4-.4h-.1.1zm-2-1.7zm-.1 0c0 .1 0 .1 0 0 0 .1 0 0 0 0zm2.1 2.9h-.1.1zm-.1-.9h.1-.1z"/><path d="M28.539 22.218h.1s0-.1-.1 0z"/><path d="M28.639 22.218c.1 0 .1 0 0 0 .1 0 .1-.1 0 0 .1-.1.1 0 0 0zM24.939 21.118v-.1zM28.939 23.018zM27.139 25.518zM27.939 24.818zM26.039 25.618zM28.839 22.118zM28.739 22.118c.1 0 .1 0 0 0zM28.939 22.418s.1 0 0 0c.1-.1-.1 0 0 0zM28.339 24.618z"/></g></g></g></svg>