<?xml version="1.0"?><svg fill="#000000" xmlns="http://www.w3.org/2000/svg"  viewBox="0 0 50 50" >    <path d="M 5 4 C 4.448 4 4 4.447 4 5 L 4 45 C 4 45.553 4.448 46 5 46 L 24 46 C 24.552 46 25 45.553 25 45 L 25 35.5 L 25 14.5 L 25 5 C 25 4.447 24.552 4 24 4 L 5 4 z M 25 14.5 C 25 20.29 29.71 25 35.5 25 C 41.29 25 46 20.29 46 14.5 C 46 8.71 41.29 4 35.5 4 C 29.71 4 25 8.71 25 14.5 z M 35.5 25 C 29.71 25 25 29.71 25 35.5 C 25 41.29 29.71 46 35.5 46 C 41.29 46 46 41.29 46 35.5 C 46 29.71 41.29 25 35.5 25 z"/></svg>