<svg version="1.1" id="Capa_1" xmlns="http://www.w3.org/2000/svg" x="0" y="0" width="800" height="600" viewBox="0 0 800 600" xml:space="preserve"><g fill="#b1d07a"><path d="M557.9 352.9c-.2-.3 0-1.3-.4-1.8-.4 1.2-.3 2.5 0 4-.2.3-.3 0-.4-.1.2 1 .5 2.3 1.2 1.7-.4-1.1-.2-1.4-.8-2.5-.1-.8.1-1.4.4-1.3zM551.5 365.1c.3-.2.5-.3.7-.5-.2.1-.4.3-.7.4v.1zM556.1 329.6c-.1 0-.1 0 0 0 0 .1 0 .1 0 0zM551 365.3c-.2.1-.5.2-.7.3.4-.2.6-.3.7-.3zM548.7 286.4c.1.1.2.1 0-.1-.1-.2-.5-.8-1.3-1.4.3.4.4.8.4 1 .1-.3.7.2.9.5zM551.4 364.9c0 .2-.1.3-.4.4.2-.1.3-.2.5-.2 0-.2 0-.2-.1-.2zM353.3 377.6c.3.1.7.2 1.2.3.4.1.9.1 1.3.2l-1.2-.2c-.6-.1-1.3-.3-1.3-.3zM442.3 287.8c-.2 0-.4 0-.5.1l.5-.1zM344.9 373.7c.1.1.3.3.5.4.3.3.7.6.7.6-.3-.4-.7-.8-1-1.2-.1 0-.2-.1-.3-.1-.1.1 0 .2.1.3zM413 375.8h-.2c.1.1.2.1.2 0zM434.5 287.9c.1 0 .2-.1.3-.1-.1.1-.2.1-.3.1zM556.7 358.7s-.1.1-.1.2c0 0 .1-.1.1-.2z"/><path d="M556.7 358.7c.2-.2.4.2.3.6-.1.8-.5 1.3-.8 1.6-.3.3-.6.3-.7.3 0 0 .6-1 .5-1-.8.2-1.3 1.1-2.1 2s-1.9 1.9-3 2.3c0 0 .1-.3.3-.5.1-.1.1-.2.2-.3.9-.4 1.7-.9 2.4-1.6 3.7-3.2 3.5-8 2.8-12.4v-.2c.3.1.6.2.9.2v.6l.7.5-.3-1.3c.3-.3.6-.9.6-2.4l-.9-2.2.3-.8.3 2c.2-1.2-.2-1.8-.6-2.6.2-.2.3-.6.3-1l-1.2-2.2c.3-.3.8.9.8-.6-.5-1-.6 1.1-1.1-.6.2-1.2.6-.9.1-2.1.2-.2.4 0 .6.5-.4-1.1-.6-3.1-1.1-3.6.3-1.2-.7-3.9.1-3.9-.3-.3-1-1.9-1.2-3 1.3 1.8-.6-4 .6-3.6-1.1-1.3-1.2-5.1-2.1-7.6.1.1.3.4.3.6-.1-1.4.1-1.9.1-2.9-.8-.1-1.3-2.3-1.9-3.4.4-1.9 1 .9 1.6.3-.6.2-1.1-3-1.5-2.3.2-1.4 0-1.2.5-2-.9-.1-.3-1.2-1.1-2.3.1-2 .8-.6.2-2.7.1-1.1.7.8.7.8-.3-2.2-.8-.9-1.3-1.3-.6-2.6.3-1.3.5-2.2-.4-1.6-1.2-2.7-1.4-4 .1-.1.1-.3.3-.1-.4-.8-.6-2.1-.8-3.4-.1-.7-.2-1.3-.4-1.9-.1-.2-.2-.8-.4-1.2-.2-.4-.5-.8-.8-1-.1-.2-.1-.3-.1-.4.1.6-.2.8-.5.9-.8-1-1.9-1-2.1-1.6.7.3.8.2 1.2.3 0 0-.3-.2-.6-.3l-.6-.2c-.4-.5 0-.4.6-.2s1.2.7 1.3.5c-1-.7-2.3-1.1-3.6-1-1.2.2-2.3.4-3.2.3-.4-.6 3.6-.4 1.5-.8l1.6.1c.4 0 .8.1 1.2.2-.6-.4-.9-.5-.8-.5 0-.1.4 0 .7 0 .3.1.6.1.7.1.1 0 0-.2-.7-.6-.4-.1-.8-.1-1-.1-2.7 0-3.2.5-6.1.4-.7.4.3.5-.4.9-4.4.8-3.6-1.4-6.8-.5-.8.5-1.1 1.3-3.5.9l.8-.7c-3.1.1-1.7 1.1-4.9.8.6-.3 2.4-.3 1.9-.4-2.1-.5-1.4.5-3 .5l-.4-.6c-3.2.2-6.8.8-10.4 1.1.2-.2.8-.4-.1-.6-4.5.5-9.7.3-14.1.1l-1.6.6c-.4 0-.7-.2-.3-.3-1.7-.1-.1.4-.9.6-1 .1-1.3-.3-.7-.5-3 .6-8.5 1.4-11.7.9l.6-.2c-2.5-.1-2.7 1.2-5 .8l.4-.1c-5.4 0-11.3.7-15.4.1-.7.8-5.3-.1-5.6 1-3.1-.4-2.2-.6-6.5-.8-1.2 0-1.7.8-3.1.9l-.1-.6-1.9.7-1.1-.6-1.3.2c.5 0 1.1.2 1.1.4-2.1.3-5.1-.2-5.2-.5l-4.9.7c.1-.2.6-.3 1.1-.4-1.8.4-.2-.7-2.4-.1.3.1-.2.3-.2.5-1.2-.3-4-.2-6 0l.4-.4c-3.7.1-7.7.5-11.8.7 1.5.1 1.2.8 0 .9l-.5-.6c-.8.4 1.3.2-.3.7-1.5 0-1.1-.6-.2-.9l-1.9.3c-.1-.2.3-.3.4-.5-.7.4-3.2-.5-4.3.2l-.1-.2c-4.1.2-6 .5-9.3.6 0 .5-1.4.5-2.3.9-2.5-.1-5.2-.4-8.2-.2-2.1.3-.6.5-1.5.8-.2-.5-3.1-.3-1.6-.7-3.5.2-4.5.3-9 .9.5.2 1 .2.8.4-.8.1-1.9-.1-1.8-.4l.2-.1c-5 .9-11.7-.9-15.7.3l.2-.1-4.1.7c-1.9 0 1.1-.4-.3-.6-4.5 1-7.1.2-10.8.9-.4-.2-.8-.3-1.3-.3-.2 0-.5-.1-.8-.1-.4 0-.8 0-1.3.1-.9.2-2 .6-2.8 1.4s-1.4 1.7-1.7 2.7c-.2.5-.3 1-.3 1.4 0 .3 0 .4-.1.6v.5c-.1.7-.1 1.4-.1 2.1s-.1 1.4-.1 2v1.2c0 .1-.1.3-.1.4l.3-.2c.3 1-.2 1.2-.3 2 .3-.1.3-1.1.5-.5.4 8.5-.2 17.6 0 26.3.1 3.2 1.8 1.7 1.3 5.8l-.7-1.1c.6 3.2.9 6.5 1.2 9.7.3 3.3.6 6.5 1.2 9.6-.2-.4-.4-.3-.4-1-.3 1.4.5 4.9.8 4.9.1 1-.3.3-.4.9-.1 1.4 1 3.4.8 4.2 0 .1-.1-.1-.2-.3.2.5.4 1.4.6 2.1.3.9.6 1.5.7.9.4 1.3 1 2.5 1.8 3.5s1.7 1.8 2.4 2.7c.4.1.8.3 1.2.6.2.1.4.3.6.5.2.1.5.3.7.4.4.3.9.5 1.2.6.4.1.7.1.8 0-.3.3.8 1 2.1 1.3.7.2 1.4.3 2.1.4s1.3.1 1.7 0c-.6.2 1.3.4.7.7 1.8.2 3.5.1 3.2-.4 3.3 1.1 6.4-.9 8.3.3 2.5-.4 4.9-.7 7.2-.9 2.4-.2 4.7-.4 6.9-.6-.1.8-5 .2-4.8 1.1 4.3-.5 6.8-1.2 11.1-1.1 1.1.1-.6.4-1 .5 4.3-.5 8.3-.1 12.1-.7 0 .1-.4.2-.8.2.8 0 1.8.1 1.7-.3l-.7.1c-1.2-.5 3-1.2 3.1-1.5-1.2 1.1 3.8.2 1.8 1.6.5-.1 1.1-.3 1-.5.7.1 1 .2.2.5 2.7-.3 1.7-.7 4.2-.7 0 .2-.5.3-.7.5 1.2-.4 2.5-.8 4.5-.7-.1.1.1.2-.3.3 3.4-.2 5.9-1.2 9.7-1-1.1.9 1.3.2 1.6.9l2.1-.3-.9-.3c1.8-.1 3.4-.6 5-.5l-1.4.3 3.4-.3-2-.2c1.8-.4-.2-.9 2.2-.8-.5.1 1.8-.1 2.8.3.9-.3 1.8-.5 3.2-.4.4.2-.2.8 0 .9.9-.6 4.3-.4 5.4-1.1-.4.2-.4.5-.2.6l.7-.5c.9.1 1 .2.9.5 2.6 0-.9-.8 2.2-.6-.2.1-.1.1-.6.2 3.1 0 5.9-.6 8.7-.6.9.7-2.4.3-1.5.8 4-.4 8.3-1.3 12.2-1.4h-.7c.5-1 2.9.3 4.9-.3-.5.1-.6.6-.5.5 2.7 0 5.5-.6 9.5-1.2l-.5.3c1.6.1 4.2-.2 5.9-.2.5-.3 1.5-.3.8-.7 5.4 1 9.9-1.6 14.7-.8-.6 0-1.3.3-.9.3l3.9-.6c-.3-.4-.5-.2-1.4-.5.5-.3 1.6-.6 2.6-.7-1.8.4.1.7.9.9-.1-.1.1-.3 0-.4 2.1.6.3-.9 3.1-.6l-.1.2c1-.2 2-.6 3.1-.6.5.5-1.1.3-1.1.7 1.6-.2 3.1-1.2 4.6-.8-.7.2-1.6.3-2.3.5 1.6.5 1.8.3 3 .3h-.1 2.7l-.7-.1c1.9-1.5 4.1-.6 6.7-1.7-2.5 1.1-.4.5-.5 1.1.7.1 1.8.2 1.5.3 1.2-.6 2.2.1 3.9-.7.1.2 1.4-.1 1.1.4 1.6-.3-.4-.3-.3-.5 2.5-.9 6.1.2 9.7-1 2.8-.6 3.6-1.1 5.9-1.7.3 0 .6-.1.9-.1.2.1.1.2-.2.4-.3.2-.8.3-.8.3 1.7.1 2.9-.2 4.3-.9-.3.3.1.3.6.3 1.2-.6.6-.9 2.2-1.5-.1.3-.3.8-.8 1.3 1.4-.9 2.5-2.1 3.3-3.5.5-.1-.2 1.1-.6 1.6.7-.7 1.4-1.7 1.8-2.7.4-1 .5-1.9.4-2.2-.2 0-.4.5-.6.8zm-45-73.1c-.2 0-.5 0-1.1.1.5-.1.9-.1 1.1-.1zm-3.5.2c.2.2 0 .4-.4.4.2-.1-.8-.2-1.4-.3.5 0 1.1-.1 1.8-.1zm-13.3 84.1c-.1-.1-.1-.3-.1-.4.5 0 .9-.1 1.4-.1-.1.2-.5.3-1.3.5zm43.4-3.9l-.6-.4c.6-.1 1.1-.1 1.7-.2-.1.2-.4.4-1.1.6zm12.3-2c-.2.2-.5.3-.6.5-.2.1-.3.2-.3.2-.3 0-.6-.2-.5-.4.7-.2 1.3-.4 2-.7-.2.1-.4.2-.6.4zM434.3 287.9h.2-.2zM339.5 364.4c0-.1-.1-.2-.1-.3 0 .1.1.2.1.3z"/><path d="M446.5 287.4v.1l.4-.1zM505.8 369.6s.1.1.3.1c0-.1-.1-.1-.3-.1zM516.1 368.8l1.5.1c-.6-.1-1.1-.1-1.5-.1zM524 368.4c.1-.1.1-.2.1-.2l-.1.2zM398.3 376.6h-.3c-.7.2-.3.1.3 0zM435.7 374.1l-1.2.3c.7 0 1.2 0 1.2-.3zM356.1 378.2h-.3.3zM432.8 374.4c.7.1 1.2 0 1.7-.1-.5.1-1.2 0-1.7.1zM557.7 359.3s-.1 0 0 0l-.2.4.2-.4zM557.8 358.8c-.1.2-.1.4-.1.5 0-.1.1-.5.1-.5zM557.9 358.2c-.1.3-.1.5-.1.5.1-.3.3-.8.2-1-.1 0-.1.3-.1.5zM544.6 366.5c.8 0 2 .2 3.1-.1l.1-.2c-.5.4-2.5-.1-3.2.3zM453.1 373.9l.5-.4-1.6.2z"/></g><g fill="#8cab5a"><path d="M356.1 307.5c-.1-.2 0-1.1-.3-1.4-.1.9 0 2 .3 3.2 0 .3-.1 0-.2 0 .2.8.6 1.7.8 1.1-.4-.8-.3-1-.7-1.8-.1-.7-.1-1.2.1-1.1zM357.5 318.2c0-.2-.1-.4-.1-.6 0 .2.1.4.1.6zM371.4 305.3s-.1 0 0 0zM357.5 318.6c0 .2 0 .4.1.6 0-.3 0-.5-.1-.6zM407.5 305.1c-.3-.1-.4-.2-.5-.2.1.2-1.6.2.5.2zM357.4 318.2c.1.1.1.2.1.3 0-.1 0-.2-.1-.3.1 0 0 0 0 0zM479.4 350.7h1.9-1.9zM492.3 305.4c.2 0 .3 0 .4-.1l-.4.1zM486.9 350.5c.3.1.7.1 1.1.1.1 0 .2 0 .2-.1h-1.3zM433.1 353.2h0zM356.4 312.3v-.2.2zM495.6 350.2h.2-.2zM498.8 305.1c-.1 0-.2 0-.4.1.1 0 .2 0 .4-.1zM488.8 305.7v-.1l-.3.1zM361.1 355.1v-.3.3zM360.3 346.8v-1.2c-.1.5 0 .9 0 1.2zM359.7 340.3l-.1-.1.1.1zM445.2 352.4h.2c.6-.1.2-.1-.2 0zM414.7 354.6c.3-.1.6-.1 1-.2-.6 0-1 0-1 .2zM479.2 350.7h.2-.2zM415.6 354.4c.4 0 1 0 1.4-.1-.5 0-.9 0-1.4.1zM356.9 312.2l.1.3-.1-.3zM356.9 312.2l-.1-.3c.1.1.1.2.1.3zM356.8 311.8c0-.3 0-.6-.1-.7l.1.7zM357.9 321.2c.1.3-.1 1.9.1 2.4 0-.6.1-1.6-.1-2.4zM400.1 355.3l1.3-.2-.9-.1z"/><path d="M551.4 353.1c.1-.2.2-.8.1-2.2l-.6-2.1.1-.7.3 1.8c0-1-.3-1.6-.5-2.3.1-.2.1-.5.1-.9l-.8-2c.1-.3.5.9.3-.5-.4-.9-.2 1-.6-.6 0-1 .2-.8-.1-1.9.1-.2.2.1.3.5-.3-1-.5-2.8-.9-3.3.1-1.1-.7-3.5-.3-3.5-.2-.3-.6-1.8-.8-2.8.8 1.7-.6-3.6 0-3.2-.7-1.2-1-4.7-1.7-6.9.1.1.2.4.2.6-.2-1.3-.1-1.7-.2-2.6-.4-.1-.8-2.1-1.2-3.2.1-1.7.6.9.8.3-.3.1-.8-2.7-.9-2.1 0-1.3-.1-1.1.1-1.7-.5-.1-.3-1.1-.7-2.1-.1-1.8.3-.5-.1-2.4 0-.9.4.7.4.7-.3-2-.5-.9-.8-1.3-.5-2.3.1-1.1.1-2-.3-1.5-.9-2.5-1-3.6 0-.1 0-.3.1-.1-.5-1.5-.8-4.6-1.5-6.4v-.3c-.1.3-.3.4-.4.4-.2-.9-.5-1.6-.3-2 .1.5.2.6.3.8l-.3-.9c.2-.9.3 1.2.6 1.2-.1-.4-.2-.9-.3-1.4s-.4-1.1-.8-1.5c-.8-.9-1.7-1.2-2.5-1.5-.1-.2.8 0 1.5.4.3.2.6.4.7.4.1 0 0-.1-.4-.5 0 0 .6.4 1 1 .2.3.4.6.4.9.1.2.1.4.1.4 0-.5-.1-.7 0-.7l.2.4c.1.4.3 1 .2-.2-.3-1-1-1.6-1.5-2s-1-.6-1.5-.7-1-.2-1.6-.2-1.4.1-2 .2c-.6.3.3.2-.3.5-3.9 1-3.3-.3-6.1.6-.7.3-1 .8-3.1.9l.7-.5c-2.7.4-1.5.8-4.4.9.5-.2 2.1-.4 1.7-.4-1.9 0-1.3.4-2.7.5l-.3-.3c-1.5.2-3 .5-4.5.7-1.6.3-3.2.5-4.8.7.2-.1.7-.3-.1-.3-2 .3-4.2.5-6.4.6-1.1.1-2.2.1-3.2.2h-3.1l-1.5.4c-.4 0-.7-.1-.3-.2-1.5 0-.1.2-.8.3-.9.1-1.2-.1-.6-.2-1.4.2-3.3.5-5.2.6-2 .1-3.9.2-5.4.1l.6-.1c-2.2 0-2.5.6-4.6.5l.4-.1c-4.9 0-10.2.3-13.9-.1-.7.4-4.8-.2-5.1.4-2.8-.3-2-.4-5.9-.6-1 0-1.6.3-2.9.4v-.3l-1.8.3-.9-.4-1.2.1c.5 0 1 .1.9.2-1.9.1-4.6-.3-4.6-.4l-4.5.2c.1-.1.5-.1 1-.2-1.7.1-.1-.3-2.2-.1.3.1-.2.2-.2.2-1.1-.2-3.6-.3-5.4-.2l.4-.2c-3.3-.1-7-.1-10.7-.2 1.3.1 1 .5-.1.5l-.4-.3c-.7.2 1.1.1-.3.3-1.4-.1-.9-.4-.1-.4l-1.7.1c-.1-.1.3-.1.4-.2-.7.2-2.9-.4-3.9-.1l-.1-.1c-3.7-.1-5.4 0-8.5-.1-.1.3-1.3.2-2.2.4-2.2-.1-4.7-.4-7.4-.4-1.9.1-.6.2-1.4.4-.1-.2-2.8-.2-1.4-.4-3.2 0-4.1 0-8.2.2.4.1.9.1.7.2-.7 0-1.7-.1-1.6-.2h.2c-4.6.4-10.6-.7-14.2 0h.2l-3.8.4c-1.7 0 1-.2-.3-.3-2 .3-3.7.3-5.2.3s-3 .1-4.6.3c-1.3-.3-3.6-.2-6.1 0l-.9.1c-.3 0-.7.1-1.1.2-.8.2-1.5.6-2.1 1.1s-1 1.1-1.3 1.8c-.1.3-.3.6-.3.9l-.1.2v.1h.2v.1c.1 0-.6.2-1 .9.1-.1 1-1 .5-.4-.4.5-.7 1.2-.8 1.8-.1.3-.1.6-.1.9v.9c.1 1 .2 1.9.3 2.9.2 2 .4 3.9.5 5.9.3 4 .6 8 .9 11.9.3 2.9 1 1.5 1 5.2l-.4-1c1 5.7 1.2 11.8 2.1 17.5-.1-.3-.2-.3-.3-.9-.1 1.2.4 4.4.6 4.4.1.9-.1.2-.2.8 0 1.2.6 3 .4 3.6 0 .1-.1-.1-.1-.3.2 1 .3 3.3.5 2.6 0 1.1.2 2.1.3 3 .1.5.1.9.2 1.4 0 .2 0 .5.1.7 0 .2 0 .5.1.8.3.6.6 1.7 1.3 2.5.7.8 1.6 1.2 1.9 1.1-.1.1.2.3.6.4.2.1.5.1.9.1h.8c1.1-.1 2.4-.2 3.1-.4-.4.2 1.2 0 .7.3 1.5-.1 2.9-.3 2.7-.5 2.9.3 5.7-.8 7.3-.3 4.5-.5 8.8-1 12.9-1.4-.1.4-4.5.3-4.3.8 3.9-.4 6.1-.9 10-1.1 1 0-.6.2-.9.3 3.9-.4 7.5-.4 11-.9 0 0-.4.1-.7.2.7-.1 1.6 0 1.5-.2l-.7.1c-1.1-.2 2.7-.7 2.8-.9-1.1.6 3.4-.1 1.6.7.4-.1 1-.2.9-.3.7 0 .9.1.2.2 2.4-.2 1.6-.4 3.8-.5 0 .1-.4.2-.7.3 1.1-.2 2.2-.5 4.1-.5-.1.1 0 .1-.2.1 3.1-.2 5.3-.8 8.8-.8-1 .5 1.2.1 1.4.4l1.9-.2-.8-.1c1.7-.1 3.1-.4 4.6-.4l-1.2.2 3.1-.2h-1.8c1.7-.3-.2-.4 2-.4-.4.1 1.7-.1 2.5.1.8-.2 1.7-.3 2.9-.3.3.1-.2.4 0 .5.8-.3 3.9-.3 4.9-.6-.3.1-.3.3-.2.3l.7-.3c.8 0 .9.1.8.2 2.3-.1-.8-.4 2-.3-.2 0-.1.1-.6.1 2.8 0 5.3-.4 7.9-.4.8.3-2.2.2-1.3.4 3.7-.2 7.6-.7 11.1-.8h-.7c.5-.5 2.6.1 4.4-.2-.4.1-.6.3-.4.2 2.4 0 5-.3 8.6-.6l-.5.1c1.4.1 3.8-.1 5.3-.1.5-.1 1.3-.2.8-.3 4.8.6 9.1-.7 13.3-.2-.5 0-1.2.1-.8.1l3.6-.2c-.3-.2-.5-.1-1.2-.3.5-.1 1.5-.3 2.4-.3-1.6.2 0 .3.7.4-.1-.1.1-.1.1-.2 1.9.3.3-.4 2.9-.3l-.1.1c1-.1 1.8-.3 2.9-.2.4.2-1 .1-1.1.3 1.5-.1 2.9-.5 4.2-.3-.6.1-1.5.1-2.1.2 1.4.3 1.6.2 2.7.2h-.1l2.5.1-.6-.1c1.8-.7 3.7-.2 6.2-.7-2.4.5-.4.2-.6.5.6.1 1.6.1 1.3.2 1.2-.3 1.9.1 3.6-.2.1.1 1.2 0 1 .2 1.5-.1-.4-.2-.2-.3 2.3-.4 5.5.3 8.8-.2 2.5-.2 3.2-.5 5.2-.7h1.1c.2.1-1 .3-1 .3 1.5.1 2.6.1 3.9-.1-.3.1 0 .1.4.2 1.1 0 .7-.3 2.2-.2-.2.1-.6.3-1.1.4 1.3-.1 2.6-.3 3.9-.4.4.2-.8.3-1.3.4 1.5-.1 3.9-.2 4.4-.5l-.7-.1c.2.1 0 .2-.4.2-1.3.2-1.9-.1-1.9-.2l1-.1c-1-.5-3.8.1-5.8.1l.6-.3c2.7 0 5.3-.1 8-.1 2.6 0 4-2.3 3.6-4.7v-.2c.2.1.3.2.5.2v.6l.3.6v-.7c-.6.3-.7 0-.7 0zm-48.9-2.8c.3-.1.3-.2.8-.2-1.1-.2-4 .1-4 .3-.8 0-.2-.2-.7-.2-1.1-.1-2.7.4-3.3.2-.1 0 .1-.1.3-.1-.9.1-3 .1-2.4.3-1.9-.1-3.7.2-5.2.1-1 .3-3.3 0-3.6.4.1-.4-3.4-.2-4.6 0 .4-.1-1.1-.1-.6-.3-1.4.1-2.7.2-2.4.4-2.6-.4-5.1.6-6.6 0-4.1.4-7.9.7-11.6.9.1-.4 4.1-.2 3.9-.6-3.5.3-5.5.8-9 .8-.9 0 .5-.2.8-.3-3.5.3-6.8.3-9.9.6 0 0 .3-.1.7-.1-.6 0-1.4 0-1.4.2l.6-.1c1 .2-2.4.7-2.5.8 1-.6-3.1 0-1.5-.8-.4.1-.9.2-.8.3-.6 0-.8-.1-.2-.2-2.2.2-1.4.4-3.4.5 0-.1.4-.1.6-.3-1 .2-2 .5-3.7.5.1-.1 0-.1.2-.1-2.8.2-4.8.7-7.9.7.9-.5-1.1-.1-1.3-.4l-1.7.2.7.1c-1.5.1-2.8.4-4.1.4l1.1-.2-2.8.2h1.6c-1.5.3.2.4-1.8.4.4-.1-1.5.1-2.3-.1-.7.2-1.5.3-2.6.3-.3-.1.2-.4 0-.5-.7.3-3.5.3-4.4.6.3-.1.3-.3.2-.3l-.6.3c-.7 0-.8-.1-.7-.2-2.1.1.7.4-1.8.4.2 0 .1-.1.5-.1-2.5.1-4.8.4-7.1.5-.7-.3 2-.2 1.2-.5-3.3.3-6.8.8-10 1h.6c-.4.5-2.4-.1-4 .2.4-.1.5-.3.4-.2-2.2.1-4.4.4-7.7.8l.4-.2c-1.3 0-3.4.2-4.8.2-.4.2-1.2.2-.7.3-2.2-.2-4.2 0-6.2.3-1 .1-2 .3-2.9.3-.5 0-1 .1-1.4.1h-.7c-.2 0-.3 0-.5-.1.1 0 .3-.1.4-.1.2 0 .2-.1.1-.1l-.9.1-.2-1.1c-.2.3-.1.3-.2 1-.1-.1-.2-.4-.2-.7-.1-.4-.1-.8-.2-1.2.3 1.4.3 0 .4-.7-.1.1-.1-.1-.2 0 .2-1.7-.5-.2-.4-2.6l.1.1c-.1-.9-.4-1.6-.4-2.6.2-.4.2.9.4.9-.1-1.3-.7-2.5-.6-3.7.1.5.2 1.3.3 1.9.2-1.3.1-1.5 0-2.4v.1l-.1-2.2v.6c-.8-1.6-.5-3.3-1.1-5.5.6 2.1.3.3.6.5 0-.6 0-1.4.1-1.2-.3-1 0-1.8-.5-3.2.1-.1-.1-1.1.1-.9-.2-1.3-.1.3-.2.2-.5-2-.1-4.9-.9-7.9-.4-2.4-.7-2.9-1.1-4.9 0-.2 0-.4-.1-.7.1-.4.4.8.4.8 0-1.3-.1-2.3-.4-3.5.1.2.1 0 .2-.4-.1-1-.4-.6-.4-1.9.1.2.3.5.5.9-.2-1.2-.5-2.3-.7-3.5.1-.3.3.7.5 1.1-.2-1.3-.5-3.5-.8-3.9v.7c0-.2.2 0 .3.3.3 1.1.1 1.7 0 1.8l-.1-.9c-.4.9.4 3.4.6 5.2l-.4-.6c-.4-4.2-.9-8.3-1.3-12.5.1.1.3.2.7.2l.1.1v-.1c.3.1.7.1 1.2.1l1.9-.4.6.2-1.6.1c.9.2 1.5 0 2.1-.2.2.1.4.2.8.2l1.9-.5c.2.2-.8.4.4.4.9-.2-.9-.3.6-.5.9.2.7.3 1.7.1.2.1-.1.2-.5.3.9-.2 2.5-.1 3-.4 1 .2 3.2-.1 3.1.3.3-.1 1.7-.4 2.6-.4-1.6.5 3.3-.1 2.9.5 1.2-.5 4.3-.2 6.4-.5-.1 0-.3.1-.5.1 1.2 0 1.5.2 2.3.2.1-.4 2-.5 3-.7 1.5.3-.9.4-.4.8-.1-.3 2.5-.3 2-.5 1.1.2 1 .1 1.5.4.2-.5 1-.1 2-.3 1.6.2.4.4 2.2.3.8.1-.7.3-.7.3 1.8 0 .8-.3 1.2-.5 2.1-.1 1 .3 1.7.4 1.3-.1 2.4-.4 3.4-.4.1.1.3.1 0 .1 1.4-.3 4.2.1 5.9-.3.1 0 .2.1.2.1-.3-.2-.3-.4-.2-.5.8 0 1.5-.2 1.8 0-.5 0-.5.1-.8.1l.8-.1c.8.3-1.2.1-1.2.3 1.6-.1 3.6-.3 4.8-.2.3.3-3 .1-1.3.4l-1.9-.2c1.5.5-1.2-.1.2.5 2.6.1 2.9-.1 5.4 0 .6-.2-.2-.3.4-.4 3.6-.2 2.8.9 5.5.5.7-.2 1-.6 2.9-.3l-.7.3c2.5.1 1.4-.5 4-.2-.5.1-2 .1-1.6.1 1.7.3 1.2-.2 2.5-.1l.3.3c2.6 0 5.6-.1 8.5-.1-.2.1-.7.2 0 .3 3.7-.1 7.9.2 11.5.4l1.4-.3c.3 0 .6.1.2.2 1.4.1.1-.2.7-.3.8 0 1 .2.5.2 2.5-.2 7-.4 9.6-.1l-.5.1c2 .1 2.3-.6 4.1-.3h-.4c4.4.2 9.2-.2 12.6.2.6-.4 4.3.1 4.6-.5 2.5.2 1.8.3 5.3.4.9 0 1.4-.4 2.5-.5v.3l.8-.2.8-.2.9.3 1.1-.1c-.4 0-.9-.1-.9-.2 1.7-.2 4.2 0 4.2.1l4-.5c-.1.1-.5.2-.9.2 1.5-.2.1.3 2 0-.3 0 .1-.2.2-.2 1 .1 3.2-.1 4.9-.3l-.3.2c3-.2 6.3-.6 9.6-1-1.2 0-1-.3 0-.5l.4.3c.6-.3-1 0 .2-.4 1.2-.1.9.2.2.4l1.5-.3c.1.1-.3.2-.3.3.6-.3 2.7 0 3.5-.4l.1.1c.8-.1 1.6-.2 2.2-.3l1.8-.3c1.1-.2 2.2-.4 3.5-.6 0-.3 1.1-.4 1.9-.7.5 0 1-.1 1.5-.2.3 0 .5 0 .8-.1h.5v.4l.1.4c.1.3.1.6.2.9.4 1.6.3.4.6 1.2-.2.2.2 2.5-.2 1.3.5 2.8.7 3.6 1.5 7.2 0-.4 0-.9.1-.6.2.6.2 1.5 0 1.4l-.1-.2c1.1 4 1 9.5 2 12.6l-.1-.2.8 3.3c.2 1.5-.3-.9-.3.3 1 3.5 1 5.7 1.7 8.6-.1 1.2.2 3.2.7 5.4.2 1.1.4 2.2.6 3.2.1.5.2 1 .2 1.5 0 .2 0 .5.1.7v.5c0 .1 0 0 0 0h.1l.1-.1c.2.3-.1.2-.1.2.2.1.1-.1.3.1v.2h-9c-3.5 0-7-.1-10.4-.1-2.6 0-1.5.9-4.7.6l.9-.3c-4.7 1.1-10.2.8-15.3 1.3zM440 305.4h-1.5c-.1-.1 0-.2.4-.2-.2.1.6.1 1.1.2zm-3.5-.1h-.9.9zm-81.2-.6h.2c0 .1-.1.2-.2.3.1-.1.1-.2 0-.3zm1.6 15.1c-.1-.6-.1-1.1-.2-1.7l.4 1.3c0 .3-.1.5-.2.4zm1 9.4c0-.5-.1-.9-.1-1.4.1.1.2.3.3.9l-.2.5zm7.4 29c.1-.1.4-.2 1.1-.3 0 .1.1.1.1.2-.4 0-.8.1-1.2.1zM512 294.8c-.2 0-.5.1-1 .1.4-.1.7-.1 1-.1zm-3.2.3c.1.1 0 .2-.4.2.2-.1-.7 0-1.3-.1.5 0 1.1-.1 1.7-.1zm-21.2 64.1h1.3c-.1.1-.5.2-1.2.2-.1 0-.1-.1-.1-.2zm39.5-.7l-.5-.2h1.5c-.1 0-.4.1-1 .2zm10.4-.2c-.2-.1-.4-.1-.4-.2h1.8l-1.4.2z"/><path d="M549 357.8c-.3.1-.1-.1 0-.2-.7.6-1.9.8-1.2 1.1.5-.2.8-.3 1.1-.5s.6-.4.8-.8c.6-.5 1-1 1-.8.1-.3.6-1.2.5-1.6-.5.8-1.1 2-2.2 2.8zM538.8 358.8c.3 0 .5 0 .7-.1-.2.1-.4.1-.7.1.1 0 0 0 0 0zM548.9 335.4c0 .1 0 .1 0 0zM538.4 358.8h-.6.6zM541.8 295.9c0 .3-.1.5-.1.6.1-.2.5 1.7.1-.6zM538.8 358.7c-.1.1-.2.1-.4.1.2 0 .3 0 .4-.1.1.1.1 0 0 0zM361.9 367.2l-2.1.1c.6 0 1.4 0 2.1-.1zM448.6 296.5h.5c-.2-.1-.4-.1-.5 0zM352.9 363.9c.1.4.3.9.3.9-.1-.5-.2-.9-.3-1.4 0-.1-.1-.2-.1-.3-.1-.1 0 .4.1.8zM351.8 354.8c0-.1 0-.2-.1-.3 0 .1 0 .2.1.3zM442.1 296.2h.3-.3zM441.9 296.2h0zM545.8 358.2h-.2.2zM413.4 363.3h-.2.2zM453 296.4v.1l.3-.1zM497.6 359.4s.1 0 .3.1c-.1 0-.2-.1-.3-.1zM506.9 359.2l1.3.1c-.5 0-1-.1-1.3-.1zM514.1 359.2c.1 0 .1-.1.1-.1l-.1.1zM400 364.3h-.3c-.6.1-.2.1.3 0zM433.9 361.8c-.4.1-.7.1-1.1.2.6 0 1.1-.1 1.1-.2zM362.2 367.2h-.2.2zM432.8 362c-.5 0-1.1 0-1.6.1.7 0 1.2-.1 1.6-.1zM545.6 358.8h-.3.3zM546 358.7h-.4.4zM546.8 358.6l-.8.1c.3 0 .6 0 .8-.1zM532.8 358.9c.7 0 1.7.2 2.7.1l.1-.1c-.4.1-2.1-.2-2.8 0zM449.6 361.4l.5-.2-1.4.1z"/></g><path d="M640 110.1c.2.4-.2.2-.3.2.5.4 1 1 1.4 1.2.4.3.6.3.5-.2-1.1-.9-1.1-1.3-2.4-2-.7-.8-1.2-1.6-.9-1.6-.3-.2-1.1-1.4-1.8-1.5.9 1.2 2.1 2.5 3.5 3.9zM644.3 125.5c.1.1.1.1 0 0 .1-.4.2-.7.2-1.1 0 .4-.1.8-.2 1.1zM611.8 95.5c-.1.1 0 .1 0 0 .1.1.1 0 0 0zM644.2 126.3c-.1.4-.2.7-.3 1 .1-.4.2-.7.3-1zM557.4 95.3c.4.1.6.2.8.4-.2-.4 2.4-.5-.8-.4z" fill="#f6eaea"/><path d="M644.2 125.6c.1.2.1.4 0 .7.1-.3.1-.5.2-.8-.1 0-.1-.1-.2.1zM409.8 164.3l-2.8-.1c.8 0 1.8.1 2.8.1zM398.5 164.2c-.5-.2-1-.3-1.6-.3-.1 0-.3.1-.3.1l1.9.2zM479.4 161.8h-.2.2zM462.4 162.7zM385.6 164h-.4c.1.1.2.1.4 0zM463.4 162.6l-.9.1c-.1 0-.1 0-.1-.1 0 .1-.5.2-1 .2.9 0 2.2.1 2-.2z" fill="#f6eaea"/><path d="M643.8 117.8c.1-.7.6 1.2.8 2-.1-.7-.3-1.4-.4-2.1-.2-.7-.4-1.5-.7-2.1-.5-1.3-1.2-2.2-1.5-2.5l.4 1.1c-.1-.3.3-.1.5.3.2.5.4.9.6 1.2.1.4.2.7.2 1 .1.5 0 .8 0 .9l-.5-1.5c-.1.5 0 1.1.2 1.7.1.7.3 1.5.4 2.3.2.9.2 1.8.2 2.7 0 .5-.1.9-.1 1.4 0 .4-.2.9-.3 1.2 0 0 0-.4-.1-.7 0-.2 0-.3-.1-.4 1.4-7.8-3.7-15.5-8.9-19.5-.1-.1-.2-.1-.2-.2.2-.1.5-.2.6-.4.1.2.3.3.6.6h.4c.2 0 .4.1.4.1l-.2-.2c-.1-.1-.3-.2-.5-.3-.4-.2-.7-.5-.7-.5 0-.2-.2-.4-.4-.8-.2-.2-.4-.5-.7-.7-.3-.3-.7-.6-1.1-.9l-.4-.2c-.3-.1-.6-.2-1-.4-.4-.1-.7-.3-1-.4s-.4-.2-.4-.2l-.4-.4-.4-.4s.1.1.4.2c.2.1.5.2.8.4.6.3 1.1.6 1.1.6-1.2-1-2.1-1.2-3.1-1.4-.2-.3-.5-.6-1.1-.8 0 0-.2 0-.5-.1-.3 0-.6-.1-1-.1s-.7-.1-1-.1h-.5c-.3-.4 1.4-.2-.5-.9-1.4-.1 1.1 1-1.1.6-1.3-.7-.9-.8-2.5-.9-.2-.2.2-.3.8-.2-1.5-.1-3.9-.6-4.6-.3-1.4-.6-4.9-.4-4.7-1.1-.5.1-2.6.4-3.9.4 2.5-.7-4.9-.3-4.3-1.1-1.8.7-6.5.1-9.7.5.2-.1.5-.2.8-.1-1.8-.1-2.3-.3-3.4-.5-.2.6-3 .7-4.5 1.1-2.2-.6 1.3-.7.7-1.3.1.5-3.8.5-3.1.9-1.7-.4-1.4-.2-2.3-.7-.3.8-1.6.1-2.9.6-2.4-.4-.6-.7-3.3-.5-1.3-.2 1.1-.5 1.1-.5-2.7 0-1.3.6-1.9.9-3.2.2-1.5-.4-2.6-.7-2 .2-3.6.7-5.1.7-.1-.1-.4-.1-.1-.2-2.1.5-6.3.1-8.8.7-.2 0-.3-.1-.3-.1.4.3.5.6.4.8-1.2 0-2.2.4-2.7 0 .7 0 .8-.1 1.2-.3l-1.3.2c-1.1-.5 1.7-.2 1.7-.6-2.5.2-5.4.7-7.3.6-.4-.5 4.4-.2 1.9-.7l2.9.2c-2.2-.8 1.8 0-.3-.8-3.9-.1-4.3.3-8.2.2-.9.3.3.4-.6.7-5.5.6-4.3-1.3-8.3-.5-1 .4-1.5 1-4.3.7l1-.6c-3.7 0-2.1.9-6.1.5.7-.2 2.9-.2 2.4-.3-2.5-.4-1.8.4-3.7.4l-.4-.5c-1.5.1-3.1.2-4.7.3-1.2-.1-1.8 0-2.3.2-1.5.1-3.1.2-4.7.3l1.3-.4h-2.1c-.1 0-.2 0-.3-.1-.4 0-.9 0-1.3.1-6.7 0-13.6-.6-20.1-.3.5-.1.5-.3 1.2-.2-1.6-.4-6-.1-6 .2-1.2-.1-.3-.3-1-.4-1.6-.3-4.1.4-5 0-.1 0 .1-.1.4-.1-1.4.1-4.5-.1-3.6.3-2.9-.3-5.5.1-7.8-.2-1.5.5-4.9-.3-5.4.4.2-.7-5-.6-6.9-.3.6-.2-1.6-.2-.9-.5-2.1 0-4 .1-3.6.5-3.8-.8-7.7.7-9.9-.3-6.2.4-11.9.8-17.5 1.1.2-.7 6.1-.2 5.9-.9-5.3.4-8.3 1-13.6 1-1.4-.1.8-.3 1.2-.5-5.3.4-10.2.2-14.9.8.8.4-3.4 1-3.9 1.3 1.3-.9-4.7 0-2.2-1.3-.6.1-1.4.3-1.2.5-.9 0-1.2-.1-.3-.4-3.3.3-2.1.6-5.1.7 0-.2.6-.2.9-.4-1.5.4-3 .7-5.6.7.1-.1-.1-.2.4-.2-4.2.3-7.3 1.1-11.9 1.1 1.4-.7-1.6-.1-1.9-.7l-2.6.3 1 .2c-2.2.1-4.2.7-6.2.6l1.7-.3-4.2.4 2.4.1c-2.3.4.3.7-2.7.7.6-.1-2.2.1-3.4-.1-1.1.3-2.2.5-3.9.5-.4-.2.3-.7 0-.8-1.1.6-5.3.5-6.6 1.1.5-.2.5-.5.3-.5l-.9.5c-1 0-1.2-.1-1-.4-3.1.2 1 .7-2.7.6.3-.1.1-.1.8-.2-3.7.1-7.2.8-10.6.9-1-.5 3-.4 1.8-.8-4.9.5-10.2 1.5-15 1.8h.9c-.6.9-3.6-.1-6 .5.6-.1.8-.5.6-.4-3.3.2-6.7.8-11.6 1.7l.6-.3c-1.9 0-5.1.5-7.2.7-.6.3-1.8.4-1 .6-6.5-.3-12.2 2.4-17.9 2.5.7-.1 1.6-.5 1.1-.4l-4.8 1.1c.4.3.7.1 1.7.2-.6.3-1.9.8-3.1 1 2.1-.7-.1-.6-1.1-.6.2.1-.1.3 0 .4-2.6-.1-.3.8-3.8 1.1l.2-.2c-1.3.4-2.4.9-3.8 1.2-.6-.3 1.3-.5 1.4-.9-1.9.5-3.7 1.7-5.5 1.8.8-.3 2-.6 2.8-1-2 0-2.2.2-3.6.5h.1l-3.3.7.9-.1c-2.2 1.7-4.9 1.6-7.9 3.4 3-1.7.4-.5.6-1.1-.9.1-2.1.4-1.8.2-1.4.9-2.6.6-4.6 1.9-.1-.1-1.6.6-1.4.1-1.9.9.5.1.4.3-2.9 1.6-7.3 2.2-11.3 4.9-1.8 1-2.8 1.9-3.7 2.8l-1.4 1.4c-.3.4-.7.8-1 1.2-.3.3-.5.6-.8.9-.2.1-.2-.1 0-.5s.6-.9.6-.9c-1.6 1.5-2.6 3.1-3.2 5.3.1-.5-.2-.1-.5.5-.4 1.9.1 1.3-.3 3.7-.2-.4-.3-1-.3-2-.3 2.3.1 4.5.7 6.6-.1.7-.6-1.2-.8-2 .1.7.3 1.4.4 2.1.2.7.4 1.5.7 2.1.5 1.3 1.2 2.2 1.5 2.5l-.4-1.1c.1.3-.3.1-.5-.3-.2-.5-.4-.9-.6-1.2-.1-.4-.2-.7-.2-1-.1-.5 0-.8 0-.9l.5 1.5c.1-.5 0-1.1-.2-1.7-.1-.7-.3-1.5-.4-2.3-.2-.9-.2-1.8-.2-2.7 0-.5.1-.9.1-1.4 0-.4.2-.9.3-1.2 0 0 0 .4.1.7 0 .2 0 .3.1.4-1.4 7.8 3.7 15.5 8.9 19.5.1.1.2.1.2.2-.2.1-.5.2-.6.4-.1-.2-.3-.3-.6-.6h-.4c-.2 0-.4-.1-.4-.1l.2.2c.1.1.3.2.5.3.4.2.7.5.7.5 0 .2.2.4.4.8.2.2.4.5.7.7.3.3.7.6 1.1.9l.4.2c.3.1.6.2 1 .4.4.1.7.3 1 .4.3.1.4.2.4.2l.4.4.4.4s-.1-.1-.4-.2c-.2-.1-.5-.2-.8-.4-.6-.3-1.1-.6-1.1-.6 1.2 1 2.1 1.2 3.1 1.4.2.3.5.6 1.1.8 0 0 .2 0 .5.1.3 0 .6.1 1 .1s.7.1 1 .1h.5c.3.4-1.4.2.5.9 1.4.1-1.1-1 1.1-.6 1.3.7.9.8 2.5.9.2.2-.2.3-.8.2 1.5.1 3.9.6 4.6.3 1.4.6 4.9.4 4.7 1.1.5-.1 2.6-.4 3.9-.4-2.5.7 4.9.3 4.3 1.1 1.8-.7 6.5-.1 9.7-.5-.2.1-.5.2-.8.1 1.8.1 2.3.3 3.4.5.2-.6 3-.7 4.5-1.1 2.2.6-1.3.7-.7 1.3-.1-.5 3.8-.5 3.1-.9 1.7.4 1.4.2 2.3.7.3-.8 1.6-.1 2.9-.6 2.4.4.6.7 3.3.5 1.3.2-1.1.5-1.1.5 2.7 0 1.3-.6 1.9-.9 3.2-.2 1.5.4 2.6.7 2-.2 3.6-.7 5.1-.7.1.1.4.1.1.2 2.1-.5 6.3-.1 8.8-.7.2 0 .3.1.3.1-.4-.3-.5-.6-.4-.8 1.2 0 2.2-.4 2.7 0-.7 0-.8.1-1.2.3l1.3-.2c1.1.5-1.7.2-1.7.6 2.5-.2 5.4-.7 7.3-.6.4.5-4.4.2-1.9.7l-2.9-.2c2.2.8-1.8 0 .3.8 3.9.1 4.3-.3 8.2-.2.9-.3-.3-.4.6-.7 5.5-.6 4.3 1.3 8.3.5 1-.4 1.5-1 4.3-.7l-1 .6c3.7 0 2.1-.9 6.1-.5-.7.2-2.9.2-2.4.3 2.5.4 1.8-.4 3.7-.4l.4.5c1.5-.1 3.1-.2 4.7-.3 1.2.1 1.8 0 2.3-.2 1.5-.1 3.1-.2 4.7-.3l-1.3.4h2.1c.1 0 .2 0 .3.1.4 0 .9 0 1.3-.1 6.7 0 13.6.6 20.1.3-.5.1-.5.3-1.2.2 1.6.4 6 .1 6-.2 1.2.1.3.3 1 .4 1.6.3 4.1-.4 5 0 .1 0-.1.1-.4.1 1.4-.1 4.5.1 3.6-.3 2.9.3 5.5-.1 7.8.2 1.5-.5 4.9.3 5.4-.4-.2.7 5 .6 6.9.3-.6.2 1.6.2.9.5 2.1 0 4-.1 3.6-.5 3.8.8 7.7-.7 9.9.3 6.2-.4 11.9-.8 17.5-1.1-.2.7-6.1.2-5.9.9 5.3-.4 8.3-1 13.6-1 1.4.1-.8.3-1.2.5 5.3-.4 10.2-.2 14.9-.8-.8-.4 3.4-1 3.9-1.3-1.3.9 4.7 0 2.2 1.3.6-.1 1.4-.3 1.2-.5.9 0 1.2.1.3.4 3.3-.3 2.1-.6 5.1-.7 0 .2-.6.2-.9.4 1.5-.4 3-.7 5.6-.7-.1.1.1.2-.4.2 4.2-.3 7.3-1.1 11.9-1.1-1.4.7 1.6.1 1.9.7l2.6-.3-1-.2c2.2-.1 4.2-.7 6.2-.6l-1.7.3 4.2-.4-2.4-.1c2.3-.4-.3-.7 2.7-.7-.6.1 2.2-.1 3.4.1 1.1-.3 2.2-.5 3.9-.5.4.2-.3.7 0 .8 1.1-.6 5.3-.5 6.6-1.1-.5.2-.5.5-.3.5l.9-.5c1 0 1.2.1 1 .4 3.1-.2-1-.7 2.7-.6-.3.1-.1.1-.8.2 3.7-.1 7.2-.8 10.6-.9 1 .5-3 .4-1.8.8 4.9-.5 10.2-1.5 15-1.8h-.9c.6-.9 3.6.1 6-.5-.6.1-.8.5-.6.4 3.3-.2 6.7-.8 11.6-1.7l-.6.3c1.9 0 5.1-.5 7.2-.7.6-.3 1.8-.4 1-.6 6.5.3 12.2-2.4 17.9-2.5-.7.1-1.6.5-1.1.4l4.8-1.1c-.4-.3-.7-.1-1.7-.2.6-.3 1.9-.8 3.1-1-2.1.7.1.6 1.1.6-.2-.1.1-.3 0-.4 2.6.1.3-.8 3.8-1.1l-.2.2c1.3-.4 2.4-.9 3.8-1.2.6.3-1.3.5-1.4.9 1.9-.5 3.7-1.7 5.5-1.8-.8.3-2 .6-2.8 1 2 0 2.2-.2 3.6-.5h-.1l3.3-.7-.9.1c2.2-1.7 4.9-1.6 7.9-3.4-3 1.7-.4.5-.6 1.1.9-.1 2.1-.4 1.8-.2 1.4-.9 2.6-.6 4.6-1.9.1.1 1.6-.6 1.4-.1 1.9-.9-.5-.1-.4-.3 2.9-1.6 7.3-2.2 11.3-4.9 1.8-1 2.8-1.9 3.7-2.8l1.4-1.4c.3-.4.7-.8 1-1.2.3-.3.5-.6.8-.9.2-.1.2.1 0 .5s-.6.9-.6.9c1.6-1.5 2.6-3.1 3.2-5.3-.1.5.2.1.5-.5.4-1.9-.1-1.3.3-3.7.2.4.3 1 .3 2 .3-2.2-.1-4.5-.7-6.6zm-355.9-10.9c.1.1.1.2.1.4l-1.8.3c.2-.2.6-.4 1.7-.7zm-52 14.9h.8c-.7.3-1.3.6-2 .9.1-.1.4-.4 1.2-.9zm-11.6 11.4c0-.4.1-.8.2-1.1.1-.3.1-.5.1-.5.2-.3.5-.6.5-.4-.4.9-.7 1.8-.9 2.8.1-.2.1-.5.1-.8zm355.4 19c-.1-.1-.1-.2-.1-.4l1.8-.3c-.1.2-.6.4-1.7.7zm52.1-14.9h-.8c.7-.3 1.3-.6 2-.9-.1.1-.4.4-1.2.9zm11.3-10.3c-.1.3-.1.5-.1.5-.2.3-.5.6-.5.4.4-.9.7-1.8.9-2.8 0 .2-.1.5-.1.8 0 .4-.1.8-.2 1.1z" fill="#f6eaea"/><path d="M642.4 114.3c0 .1.1.2.1.4l-.1-.4zM593.5 150.2h-.4.4zM605.5 147.3l1.8-.3c-.8.1-1.3.2-1.8.3zM615.1 144.6c.1-.1.1-.2.1-.2l-.1.2zM461.4 162.9h-.4c-.9.1-.3.1.4 0zM507.3 159.6l-1.5.3c.8 0 1.5-.1 1.5-.3zM410.1 164.3h-.3.3zM505.8 159.9c-.7 0-1.5 0-2.1.1.8.1 1.5 0 2.1-.1zM643.2 114.1c0 .1 0 0 0 0-.1 0 .2.5.2.5l-.2-.5zM643.1 114.1l-.3-.5c.2.2.3.5.3.5zM642.8 113.6c-.2-.4-.4-.9-.7-1.1 0 0 .2.3.3.5.3.3.4.6.4.6zM642.2 130.5v0zM640.8 132.4c-.6.6-1.4 1.1-1.7 1.6.8-.6 2.2-1.6 3-3v-.2c0 .3-.6 1-1.3 1.6zM528.5 158.7l.6-.4-1.9.3zM227.7 149c-.2-.4.2-.2.3-.2-.5-.4-1-1-1.4-1.2-.4-.3-.6-.3-.5.2 1.1.9 1.1 1.3 2.4 2 .7.8 1.2 1.6.9 1.6.3.2 1.1 1.4 1.8 1.5-1-1.2-2.2-2.5-3.5-3.9zM223.3 133.5c-.1.4-.2.8-.1 1.2-.1-.4 0-.8.1-1.2zM255.9 163.6c0-.1 0-.1 0 0-.1-.1-.2 0 0 0zM223.5 132.8c.1-.4.2-.7.3-1-.2.4-.3.7-.3 1zM310.2 163.9c-.4-.1-.6-.2-.8-.4.3.3-2.4.4.8.4zM223.5 133.5c-.1-.2-.1-.4 0-.7-.1.3-.1.5-.2.8 0 0 .1.1.2-.1zM457.8 94.8l2.8.1c-.7 0-1.7-.1-2.8-.1zM469.1 94.9c.5.2 1 .3 1.6.3.1 0 .3-.1.3-.1l-1.9-.2zM404.2 96.5l.9-.1c.1 0 .1 0 .1.1 0-.1.5-.2 1-.2-.9 0-2.1-.1-2 .2zM388.2 97.3h.2-.2zM225.3 144.8c0-.1-.1-.2-.1-.4l.1.4zM482.1 95.1h.4c-.2-.1-.3-.1-.4 0zM405.2 96.4zM274.2 108.9h.4-.4zM262.1 111.8l-1.8.3c.8-.1 1.4-.2 1.8-.3zM252.6 114.5c-.1.1-.1.2-.1.2l.1-.2zM406.2 96.2h.4c.9-.1.3-.1-.4 0zM360.4 99.5l1.5-.3c-.9 0-1.5.1-1.5.3zM457.5 94.8h.3-.3zM361.8 99.2c.7 0 1.5 0 2.1-.1-.8 0-1.4 0-2.1.1zM224.4 145c0-.1.1 0 0 0 .1 0-.2-.5-.2-.5l.2.5zM224.5 145l.3.5c-.1-.2-.2-.4-.3-.5zM224.8 145.5c.2.4.4.9.7 1.1 0 0-.2-.3-.3-.5l-.4-.6zM225.5 128.7v-.2c-.1 0-.1.1 0 .2zM226.8 126.7c.6-.6 1.4-1.1 1.7-1.6-.8.6-2.2 1.6-3 3v.2c.1-.3.7-1 1.3-1.6zM339.1 100.4l-.6.4 1.9-.3z" fill="#f6eaea"/><path d="M279.7 133.6v.2c0-.1.1-.3.1-.6-.1.3-.1.2-.1.4-.1.1-.1-.1-.1-.2 0 .1-.1-.1-.1.1 0 .3.1.3.2.1zM280.2 133.2s0 .1 0 0c0 .1 0 .1 0 0zM276.7 133.3s.1.1.1.2c-.1-.2 0-.3-.1-.2zM280.2 133.3zM281.1 140.7l-.1-.1v.1h.1z" fill="#a5937a"/><path d="M283.1 137.6c0-.1-.2-.2-.1-.2l.1.2v-.3l-.1.1c-.1-.1-.4 0-.3-.1 0 0 0-.1.2-.1-.1 0-.2-.1-.1-.1h.4c-.2 0-.1-.2-.3-.2h.2-.2c.1 0 .1 0 .2-.1 0-.1-.4.1-.2-.1h.1c.1-.1-.2-.2-.1-.4.3-.1.1.1.3 0-.1-.2-.4-.3-.4-.4-.4.1.1-.2-.1-.2 0 0 .2-.1.2 0 0-.1-.2-.2-.4-.3h.1c.1-.1 0-.2 0-.3-.1 0-.1 0-.2.1.2-.3.1-.3-.1-.3-.1 0-.3 0-.2-.3h.1l-.2-.1c-.1.1-.1.1-.1.2-.1.1-.2.1-.2.1.1 0 .2-.2.3-.3l-.1.1c.2-.3-.3.2-.2 0l.1-.1c-.1 0-.2.1-.2 0 .1-.2.1 0 .2-.2-.1 0-.3.2-.3 0h.1c.1-.2.1-.2 0-.2v-.2.1c-.4.4-.2 0-.5.2.3-.2.1-.2.2-.4 0-.1 0-.2.1-.2-.1.1 0-.2-.2 0 0-.1-.1 0 0-.2-.1 0 0 .1-.1.2-.2.2-.1-.4-.4-.1-.2.1-.3.3-.4.4 0-.1.1-.2.1-.2 0-.1-.1-.1-.2 0v-.2c-.1 0-.1.3-.1.1 0-.1.1-.2.1-.3l-.2.2c0-.1.1-.2.1-.3-.1 0-.2.1-.2.3v.1-.2c.1-.2.1.1.1.2 0 .4.2 0 .3 0l-.1.3c-.2 0-.4-.1-.6-.1v-.4s0 .1 0 0v-.3l-.1.1c0-.2 0-.3-.1-.4l-.1.2v-.2h.1c0-.2-.1 0-.1.1v-.2l-.1.3v-.4.4c0-.2 0-.3-.1-.2v-.2c0 .1-.1 0-.1.2 0-.2-.2.1-.1-.3 0 .1-.1.3-.1.3.1-.4-.2 0-.1-.5 0 .4-.2.2-.3.4v-.1c-.1 0-.1-.1-.2-.2 0 .3-.1.4-.1.6-.1-.3 0-.4-.1-.6 0 .2-.1.3-.1.5-.1-.2-.1-.1-.1-.3.1.4-.1.1-.1.3-.1-.2-.1-.3-.2-.2-.1-.1 0-.3 0-.3-.1 0 0 .3 0 .5-.1.1-.1-.2-.2-.3-.1.1 0 .4-.1.4v-.1c0 .2-.2.1-.2.4v-.1c.1.1.1.3.2.4 0 0 0 .2-.1 0v-.1.1c-.2-.2 0-.1-.1-.3 0 .1 0 .4-.1.3-.1-.2.1-.1-.1-.3h.1c-.3-.3.1 0-.2-.4-.2 0-.1.2-.3.2 0 .1.1.2.2.3 0 .3-.5-.5-.4-.1.1.2.2.4.1.4l-.1-.3c-.1.1.2.4 0 .3-.1-.1 0-.1 0-.2-.2-.1.1.2 0 .2l-.2-.2c-.1.1-.1.4-.2.5l-.2-.2c0 .2-.3.3-.6.4l.1.2s-.1 0-.1-.1c-.1 0 .1.1.2.2 0 0-.1 0-.2-.1.1.2.2.5-.1.6l-.1-.1c-.1.1.4.3.2.3-.2.2 0 .5-.4.7.3.1-.2.3.3.3-.2.1-.3.1-.5.3 0 .1.3.1.3.1h-.2l.3.1-.3.1.1.1s.1-.1.2-.1c.1.1-.1.3-.2.3 0 0 .1 0 .1.1.1 0 .1.1.1.1h-.2c.3.1-.2.1 0 .1h.2c-.1.1-.1.2 0 .3h-.2c0 .2.2.3.3.5 0-.1.3-.2.3-.2l-.2.1c.2 0 .1-.1.3-.1 0 .1-.2.2-.3.2h.1c-.1 0-.1 0-.2.1.2 0-.1.3.1.2h-.1c.1.2.2.2.3.3.2-.1.2 0 .3-.1 0 .1 0 .3.1.4.2 0 .2-.1.3-.2-.1.1 0 .2-.2.3.1.1.2.1.5.1 0-.1 0-.1.1-.2v.2c.2 0 .2.1.3.3 0 .2.1.3.3.2 0 0 .1 0 .1-.1.1 0 .1-.1.1-.1.1.1-.1.1-.1.3.3-.2.3.2.6 0 0 .6.5.1.6.4v-.1c.1-.1.1.1.1.1v-.2c.2-.1.4 0 .5.1.2.1.3.2.5.3.1 0 .1-.7.2-.4v.3c.2-.3.7 0 .9-.3v.1c.1.2.2 0 .2-.2.1 0 0 .1.1.2s.1-.3.2-.1v.1c0-.1.2 0 .1-.2.1.1.2-.2.3-.1 0-.2.2 0 .1-.3.1.3.3.2.3 0 0 .1.1.1.2.2.1 0 .1-.1 0-.3.4.3 0-.4.4-.1.1-.3.1-.5.2-.8.3.2-.1.2.1.4 0-.3-.1-.5.1-.6.1 0 .1.1.1.2 0-.2.3-.3.2-.6 0 0 0 .1.1.1 0 0 .1 0-.1-.1v.1c-.2-.1-.3-.4-.5-.4.4.3.2-.1.6.2 0 0-.1-.1-.2-.1 0 0 .1 0 .2.1 0-.2-.2-.2-.1-.3.1 0 .1.1.2.1-.1-.1-.2-.2-.1-.3 0 0 .1 0 0 .2.1-.3-.2-.5 0-.6.3.1.1 0 .4 0l-.1-.1-.3.7zm-1.1-2.7s-.1.1-.2.1c.1-.1.1-.1.2-.1zm-1.4-1v.2h-.1c0-.1 0-.2.1-.2zm-.4-.2v.2h-.1l.1-.2zm-4.6.7s-.1.1 0 0c-.1.1 0 0 0 0zm-.1.2c.1 0 .1.1.1.1l-.1-.1c-.1 0 0 0 0 0zM274.2 137.2zM281.3 133.8zM282.8 138.9c.1 0 .1 0 0 0z" fill="#a5937a"/><path d="M282.9 137.1s.1 0 .1.1c0-.1 0-.1-.1-.1zM281.6 140.5zM282.9 137.2c.1 0 .1 0 0 0zM279.9 133.2zM279.8 133.3c0-.1 0-.1 0 0zM280.5 133.4s0-.2-.1-.1v.1c0-.2 0 .1.1 0zM283 136.4l.1-.1h-.2zM297 133.6v.2c0-.1.1-.3.1-.6 0 .3 0 .2-.1.4-.1.1-.1-.1-.1-.2 0 .1 0-.1-.1.1.1.3.2.3.2.1zM297.5 133.2s0 .1 0 0c0 .1 0 .1 0 0zM294.2 133.9c.1 0 .1.1.2.1-.1-.1-.1-.2-.2-.1zM297.5 133.3zM299.6 140.1c-.1 0-.1-.1-.1-.1v.1h.1z" fill="#a5937a"/><path d="M300.4 136.9c0-.1-.2-.1-.1-.2h.1l-.1-.1-.1.1c-.2-.1-.4 0-.3-.1 0 0 0-.1.2-.1-.1 0-.2 0-.1-.1h.4c-.2 0-.1-.2-.3-.2h.2-.2c.1 0 .1-.1.2-.1 0-.1-.4.1-.2 0h.1c.1-.1-.2-.2-.1-.3.3-.1.1.1.3 0-.1-.2-.4-.2-.4-.4-.4.1.1-.2-.1-.2l.2-.1c0-.1-.2-.2-.4-.2h.1v-.2c-.1 0-.1 0-.2.1.2-.3.1-.3-.1-.3-.1 0-.3 0-.2-.2h.1-.2c-.1.1-.1.1-.1.2-.1.1-.2.1-.2.1.1 0 .2-.2.2-.3l-.1.1c.1-.3-.2.3-.2 0l.1-.1c-.1 0-.2.1-.2 0 .1-.2.1-.1.2-.2-.1 0-.3.3-.3.1.1 0 .1 0 .1-.1.1-.2 0-.2 0-.2v-.1.1c-.3.4-.2 0-.4.3.2-.2.1-.2.2-.4v-.2c-.1.1 0-.2-.2 0v-.2c-.1 0 0 .1-.1.2-.2.2-.1-.4-.4-.1-.1.1-.2.3-.3.4 0-.1.1-.2.1-.2 0-.1-.1-.1-.2 0v-.2s-.1.3-.1.2.1-.2.1-.3c-.1.1-.1.2-.2.3 0-.1.1-.2.1-.3-.1.1-.2.1-.2.3v.1-.2c.1-.2.1.1.1.2 0 .4.2-.1.2 0l-.1.3c-.2 0-.4-.1-.5-.1v-.4s0 .1 0 0v-.3l-.1.1c0-.2 0-.3-.1-.4l-.1.2v-.2h.1c-.1-.2-.1 0-.1.1 0-.1 0-.2-.1-.2l-.1.4c0-.1 0-.3-.1-.4 0 .2.1.3 0 .4-.1-.2-.1-.3-.1-.1v-.2c0 .1-.1.1-.1.3-.1-.2-.2.1-.2-.3 0 .1 0 .3-.1.3 0-.4-.2 0-.3-.4 0 .4-.2.2-.2.5v-.1c-.1 0-.1-.1-.2-.2.1.3 0 .4.1.6-.2-.2-.1-.3-.2-.6.1.2 0 .3.1.5-.1-.1-.1-.1-.2-.3.2.3 0 .1 0 .3-.2-.1-.2-.3-.2-.1-.1-.1-.1-.2-.1-.2-.1.1.1.3.2.4-.1.1-.2-.2-.3-.3 0 .1.1.4 0 .4 0 0-.1 0-.1-.1.1.2-.2.2-.1.4h-.1l.3.3s.1.2-.1.1c0 0 0-.1-.1-.1v.1c-.2-.2 0-.1-.2-.3 0 .1.1.3 0 .3-.2-.2 0-.2-.2-.3h.1c-.3-.2.1 0-.3-.3-.2 0 0 .2-.2.3.1.1.2.1.3.3.1.3-.6-.3-.4 0 .1.1.4.3.2.3l-.2-.2c-.1.1.3.3.1.3-.1-.1 0-.1-.1-.1-.2-.1.1.1.1.2l-.2-.1c-.1.1.1.4 0 .5-.1 0-.1-.1-.2-.1 0 .2-.2.4-.4.5l.2.1h-.1c-.1 0 .1 0 .2.1h-.2c.2.2.3.4.1.5h-.1c-.1.1.5.2.2.2-.1.2.1.4-.2.6.3 0-.1.2.3.2-.2.1-.3.1-.4.3 0 .1.3 0 .4.1h-.2.3l-.3.1h.1s.1-.1.2-.1c.1.1-.1.2-.2.3l.2.1h-.2c.3 0-.2.1 0 .1 0 0 .1 0 .2-.1-.1.1-.1.2 0 .3h-.2c0 .2.2.3.3.4 0-.1.3-.2.3-.2l-.2.1c.2-.1.1-.1.3-.1 0 .1-.2.2-.3.2h.1c-.1 0-.1 0-.2.1.2-.1-.1.3.1.2h-.1c.1.2.2.2.3.3.2-.1.2-.1.3-.2 0 .1 0 .3.1.4.1 0 .1-.1.3-.2-.1.2 0 .2-.2.3.1.1.2.1.4.1 0-.1 0-.1.1-.2v.2c.3-.2.2.8.5.5l.2-.1c.1.1-.1.1-.1.3.3-.3.3.2.5 0 0 .6.4 0 .6.4v-.1c.1-.1 0 .1.1.1v-.2c.4-.1.7.2 1.2.2.2 0-.1-.7.2-.4v.3c.2-.4.6-.2.7-.6v.1c.1.1.2-.1.1-.2 0 0 .1.1.1.2.1.1 0-.3.1-.1v.1c0-.1.2-.1 0-.2.1 0 .1-.2.2-.2-.1-.2.2 0 0-.3.2.3.3.1.3-.1.1.1.1 0 .2.1 0-.1 0-.2-.1-.3.4.1-.1-.4.4-.2v-.7c.3.2-.1.2.3.4 0-.2-.3-.5-.1-.6.1 0 .1.1.2.1-.1-.2.1-.3 0-.5 0 0 .1 0 .1.1 0 0 .1-.1-.1-.1s-.4-.2-.6-.3c.4.1.1-.1.7.1 0 0-.1-.1-.2-.1h.2c-.1-.1-.2-.1-.2-.2.1 0 .1 0 .2.1-.1-.1-.3-.1-.2-.2h.1c0-.1-.4-.3-.2-.4.3.1.1 0 .4-.1l-.1-.1.2.1zm-6.8-1.7zm0 .2h.2-.2zm5.6-.8l-.1.1s0-.1.1-.1zm-1.3-.8v.2h-.1c0-.1 0-.1.1-.2zm-.4-.1v.2h-.1l.1-.2zM292.9 137.8h.1zM298.5 133.6c0 .1 0 .1 0 0zM300.5 138c0 .1 0 0 0 0zM300.1 136.5h0zM299.9 139.8zM300.2 136.6c.1 0 .1 0 0 0zM297.2 133.2z" fill="#a5937a"/><path d="M297.1 133.3c.1-.1.1-.1 0 0zM297.8 133.3s0-.2-.1-.1v.1c0-.2 0 .1.1 0zM300.2 135.9l.1-.1h-.2zM320.2 131.3v.2c0-.1.1-.3.1-.6 0 .2 0 .1-.1.4-.1.1-.1-.1-.1-.2 0 .1 0-.1-.1.1.1.3.2.3.2.1zM320.7 130.9c0 .1 0 0 0 0zM317.4 131.5c.1 0 .1.1.2.1-.1-.1-.1-.2-.2-.1zM320.7 130.9c0 .1 0 .1 0 0 0 .1 0 0 0 0zM322.8 137.8c-.1 0-.1-.1-.1-.1v.1h.1z" fill="#a5937a"/><path d="M316.1 135.3c0 .1.3 0 .4.1h-.2.3l-.3.1h.1s.1-.1.2-.1c.1.1-.1.2-.2.3l.2.1h-.2c.3 0-.2.1 0 .1 0 0 .1 0 .2-.1-.1.1-.1.2 0 .3h-.2c0 .2.2.3.3.4 0-.1.3-.2.3-.2l-.2.1c.2-.1.1-.1.3-.1 0 .1-.2.2-.3.2h.1c-.1 0-.1 0-.2.1.1-.1-.1.3.1.2h-.1c.1.2.2.2.3.3.2-.1.2-.1.3-.2 0 .1 0 .3.1.4.1 0 .1-.1.3-.2-.1.2 0 .2-.2.3.1.1.2.1.4.1 0-.1 0-.1.1-.2v.2c.3-.2.2.8.5.5l.2-.1c.1.1-.1.1-.1.3.3-.3.3.2.5 0 0 .6.4 0 .6.4v-.1c.1-.1 0 .1.1.1v-.2c.4-.1.7.2 1.2.2.2 0-.1-.7.2-.4v.3c.2-.4.6-.2.7-.6v.1c.1.1.2-.1.1-.2 0 0 .1.1.1.2.1.1 0-.3.1-.1v.1c0-.1.2-.1 0-.2.1 0 .1-.2.2-.2-.1-.2.2 0 0-.3.2.3.3.1.3-.1.1.1.1 0 .2.1 0-.1 0-.2-.1-.3.4.1-.1-.4.4-.2v-.7c.3.2-.1.2.3.4 0-.2-.3-.5-.1-.6.1 0 .1.1.2.1-.1-.2.1-.3 0-.5 0 0 .1 0 .1.1 0 0 .1-.1-.1-.1s-.4-.2-.6-.3c.4.1.1-.1.7.1 0 0-.1-.1-.2-.1h.2c-.1-.1-.2-.1-.2-.2.1 0 .1 0 .2.1-.1-.1-.3-.1-.2-.2h.1c0-.1-.4-.3-.2-.4.3.1.1 0 .4-.1l-.1-.1h-.1c0-.1-.2-.1-.1-.2h.1l-.1-.1-.1.1c-.2-.1-.4 0-.3-.1 0 0 0-.1.2-.1-.1 0-.2 0-.1-.1h.4c-.2 0-.1-.2-.3-.2h.2-.2c.1 0 .1-.1.2-.1 0-.1-.4.1-.2 0h.1c.1-.1-.2-.2-.1-.3.3-.1.1.1.3 0-.1-.2-.4-.2-.4-.4-.4.1.1-.2-.1-.2l.2-.1c0-.1-.2-.2-.4-.2h.1v-.2c-.1 0-.1 0-.2.1.2-.3.1-.3-.1-.3-.1 0-.3 0-.2-.2h.1-.2c-.1.1-.1.1-.1.2-.1.1-.2.1-.2.1.1 0 .2-.2.2-.3l-.1.1c.1-.3-.2.3-.2 0l.1-.1c-.1 0-.2.1-.2 0 .1-.2.1-.1.2-.2-.1 0-.3.3-.3.1.1 0 .1 0 .1-.1.1-.2 0-.2 0-.2v-.1.1c-.3.4-.2 0-.4.3.2-.2.1-.2.2-.4v-.2c-.1.1 0-.2-.2 0v-.2c-.1 0 0 .1-.1.2-.2.2-.1-.4-.4-.1-.1.1-.2.3-.3.4 0-.1.1-.2.1-.2 0-.1-.1-.1-.2 0v-.2s-.1.3-.1.2.1-.2.1-.3c-.1.1-.1.2-.2.3 0-.1.1-.2.1-.3-.1.1-.2.1-.2.3v.1-.2c.1-.2.1.1.1.2 0 .4.2-.1.2 0l-.1.3c-.2 0-.4-.1-.5-.1v-.4s0 .1 0 0v-.3.3c0-.2 0-.3-.1-.4l-.1.2v-.2h.1c-.1-.2-.1 0-.1.1 0-.1 0-.2-.1-.2l-.1.4c0-.1 0-.3-.1-.4 0 .2.1.3 0 .4-.1-.2-.1-.3-.1-.1v-.2c0 .1-.1.1-.1.3-.1-.2-.2.1-.2-.3 0 .1 0 .3-.1.3 0-.4-.2 0-.3-.4 0 .4-.2.2-.2.5v-.1c-.1 0-.1-.1-.2-.2.1.3 0 .4.1.6-.2-.2-.1-.3-.2-.6.1.2 0 .3.1.5-.1-.1-.1-.1-.2-.3.2.3 0 .1 0 .3-.2-.1-.2-.3-.2-.1-.1-.1-.1-.2-.1-.2-.1.1.1.3.2.4-.1.1-.2-.2-.3-.3 0 .1.1.4 0 .4 0 0-.1 0-.1-.1.1.2-.2.2-.1.4h-.1l.3.3s.1.2-.1.1c0 0 0-.1-.1-.1v.1c-.2-.2 0-.1-.2-.3 0 .1.1.3 0 .3-.2-.2 0-.2-.2-.3h.1c-.3-.2.1 0-.3-.3-.2 0 0 .2-.2.3.1.1.2.1.3.3.1.3-.6-.3-.4 0 .1.1.4.3.2.3l-.2-.2c-.1.1.3.3.1.3-.1-.1 0-.1-.1-.1-.2-.1.1.1.1.2l-.2-.1c-.1.1.1.4 0 .5-.1 0-.1-.1-.2-.1 0 .2-.2.4-.4.5l.2.1h-.1c-.1 0 .1 0 .2.1h-.2c.2.2.3.4.1.5h-.1c-.1.1.5.2.2.2-.1.2.1.4-.2.6.3 0-.1.2.3.2 0 .1-.1 0-.2.2zm6.3-3l-.1.1c0-.1 0-.1.1-.1zm-1.3-.8v.2h-.1c0-.1 0-.2.1-.2zm-.4-.1v.2h-.1l.1-.2zm-3.9 1.5zm0 .1c.1 0 .1.1.1.1s-.1 0-.1-.1c0 .1 0 .1 0 0zM316.1 135.5h.1-.1zM321.7 131.3c0 .1 0 .1 0 0zM323.7 135.7c0 .1 0 0 0 0zM323.3 134.2h0zM323.1 137.4v.1zM323.4 134.3c.1 0 .1 0 0 0zM320.4 130.8c0 .1 0 .1 0 0z" fill="#a5937a"/><path d="M320.3 131c.1-.1.1-.1 0 0zM320.9 131s0-.2-.1-.1v.1c.1-.2.1.1.1 0zM323.4 133.6l.1-.1h-.2z" fill="#a5937a"/><path d="M201.7 153.7c-.4-.1-.3-.2-.7-.3-.1-.2-.1-.4.1-.4-.1 0-.1-.3-.3-.3-.1.3 0 .6.4.9 0 .1-.1.1-.2.1.1.1.5.2.7 0zM202.5 156c0-.1-.1-.1-.1-.2l.1.2zM197.4 140.2h-.3c.2.1 0 .6.3 0zM202.5 156.2v-.1h-.1l.1.1zM169.5 156.9l.2-.5c0 .1-.1.3-.2.5zM170.3 154.7c.1-.1.2-.1.3-.2v-.1l-.3.3z" fill="#db5d43"/><path d="M168.6 162.7v.2c0 .1 0 .2.1.3.1.2.1.4.2.6.1.4.3.8.5 1.3.1.3-.3-.1-.4-.2.7 1.2 1.9 2.1 3.1 2.1 0 0-.1.1-.3.1.2 0 .5.2.5 0h-.2c-.2-.3.8-.4.9-.6-.4.5.9.3.3.9.1 0 .3-.1.3-.2.2.1.2.1 0 .3.7 0 .5-.2 1.1-.1 0 .1-.1.1-.2.2.3-.1.7-.3 1.1-.1 0 .1 0 .1-.1.1.9.1 1.5-.3 2.4 0-.3.4.3.2.3.5l.5-.1-.2-.2c.4 0 .9-.2 1.2 0l-.3.1h.8l-.5-.2c.5-.2 0-.4.6-.3-.1 0 .4 0 .7.2.2-.1.5-.2.8-.1.1.1-.1.4 0 .5.2-.3 1.1-.1 1.3-.4-.1.1-.1.3-.1.3l.2-.2c.2.1.2.1.2.3.6 0-.2-.4.5-.3-.1 0 0 .1-.2.1.7.1 1.4-.2 2.1-.1.2.3-.6.1-.4.4 1-.1 2-.5 3-.5h-.2c.1-.5.7.2 1.2-.1-.1 0-.1.3-.1.2.7 0 1.3-.3 2.3-.6l-.1.1c.4.1 1-.1 1.4-.1.1-.1.3-.2.2-.3 1.4.5 2.3-.8 3.6-.6-.1 0-.3.2-.2.2 0 0 .2-.1.5-.2.2-.1.5-.2.5-.2-.1-.2-.2-.1-.4-.2.1-.2.3-.4.5-.4-.4.3.1.3.4.4-.1 0 0-.1-.1-.2.6.1-.1-.4.6-.5v.1c.2-.2.3-.4.6-.5.2.2-.2.2-.1.4.4-.2.4-.8.8-.8-.1.2-.3.3-.4.5.5 0 .5-.1.8-.3l.6-.4-.2.1c0-.4.1-.6.3-.9.2-.2.3-.5.3-.9 0 .8.1.2.4.4.2-.1.4-.3.4-.2-.1-.4.4-.5.2-1.1.1 0 .1-.4.3-.2 0-.5-.2.1-.3 0-.1-.4.1-.7.2-1.1.1-.4.2-.9 0-1.4-.2-.7-.5-.9-.7-1.5v-.2c.1-.2.3.2.3.2.1-.4 0-.7-.2-1.1.1.1.1 0 .2-.2-.1-.3-.4-.1-.3-.5.1 0 .3.1.4.2-.2-.3-.4-.6-.6-1 .1-.1.3.1.4.2-.2-.4-.5-1-.8-1v.3c-.1-.1.2-.1.3-.1.3.3.1.5 0 .6l-.1-.2c-.4.4.4 1 .5 1.5l-.4-.1c-.3-1.3-.8-2.5-1.4-3.7.1 0 .3 0 .4-.1v.1h.3l-.2-.2c.1-.1.2-.3.2-.7l-.4-.5.1-.2.2.5c.1-.3-.1-.4-.3-.6.1-.1.1-.2.1-.3l-.6-.4c.1-.1.4.1.4-.3-.3-.2-.3.4-.5 0 .1-.3.3-.3 0-.6.1-.1.2-.1.3 0-.2-.2-.4-.7-.6-.7.1-.4-.5-.9-.1-1-.1 0-.5-.3-.7-.5.7.2-.5-.9 0-1.1-.6-.1-.9-1-1.5-1.4.1 0 .2 0 .2.1-.2-.3-.2-.5-.3-.7-.3.2-.8-.2-1.1-.3-.1-.6.5-.1.7-.4-.2.2-.8-.4-.8-.1-.1-.2 0-.2 0-.3 0 0 0-.1.2-.2-.4.2-.1 0-.5 0 .1-.2.4-.1.3-.2H195.5c0-.2.4 0 .6 0-.1-.1-.3-.3 0-.6.1 0 .1 0 .1.1.1-.5.8-1.1.7-1.7h.1c-.2 0-.3-.1-.4-.2.1-.2 0-.5.3-.5-.1.1 0 .2 0 .3v-.3c.4-.1-.1.4.1.5.2-.5.2-1.2.4-1.5.3.1-.3.9.2.5 0 0-.1.1-.2.3l-.2.2c.7-.2-.2.3.5.2.5-.7.3-.9.7-1.7-.1-.2-.3 0-.4-.3 0-.6.3-.8.5-.9.2-.1.4-.3.3-.7-.2-.3-.5-.4-.3-1l.3.3c.1-.8-.5-.5-.2-1.3.1.2.1.6.1.5.3-.5-.2-.4-.2-.8l.3-.1c-.1-.9-.4-1.8-.7-2.7.1 0 .2.2.3-.1-.4-1.1-.8-2.5-1.3-3.6l-.5-.2c-.1-.1 0-.2.1-.2-.2-.4-.2.1-.4 0-.2-.2-.1-.4.1-.3-.3-.3-.9-.5-1.3-.9-.5-.3-.9-.7-1.2-1h.2c-.5-.4-.9.1-1.3-.4h.1c-1.2-.8-2.7-1-3.6-1.6-.3.3-1.3-.5-1.5.1-.7-.4-.5-.5-1.6-.7-.3 0-.5.3-.8.3v-.3l-.5.3-.3-.3-.3.1c.1 0 .3.1.3.2-.5.1-1.3-.2-1.3-.3l-.6.2-.6.2c0-.1.2-.2.4-.3-.6.4-.2-.3-.7 0 .1.1 0 .2 0 .2-.3-.1-1 0-1.5.2l.1-.2c-1 .2-1.9.6-2.9 1 .4-.1.4.3.2.4l-.2-.2c-.1.2.3 0 .1.3-.4.1-.4-.2-.2-.4l-.4.3c-.1-.1 0-.2 0-.3-.1.3-.9.1-1 .6l-.1-.1c-.9.6-1.3 1-2 1.5.2.2-.1.4-.2.7-.3.2-.5.4-.8.6s-.6.5-.8.8c-.2.5.1.3.1.5-.2-.1-.6.6-.5.1-.4.8-.6 1.1-.8 2.3.1-.1.2-.2.3-.1 0 .2-.2.4-.3.4v-.1c0 .7-.3 1.4-.6 2.1-.1.4-.2.7-.2 1.1 0 .3 0 .7.2.9v-.1s.1.3.2.5c.1.3.2.5.2.5 0 .5-.2-.3-.3.1.6 1.1.3 1.9.9 2.7-.2.5.1 1.1.5 1.7.4.6.8 1.2 1 1.7l.1-.1c.3.1.1.3.2.5.1-.1-.1-.3.1-.2.6.7 1.2 1.3 1.8 2l.5.5.2.2c.1.1 0 0 0 .1v.2h-.2l.1.1v.3c0 .2 0 .4-.4.7l-.1-.4c-.7 1.5-1.9 2.7-2.4 4.3 0-.1-.1-.2 0-.3-.4.2-.6 1.1-.4 1.2-.1.2-.2 0-.3.1-.3.2-.1.9-.4.9v-.2c0 .2-.4.9-.1.8-.4.5-.3 1.1-.6 1.5.2.4-.5.9-.1 1.1-.4-.2-.7.9-.6 1.3-.1-.2-.2.3-.3.1-.1.4-.1.8.1.8-.7.6 0 1.6-.7 1.9 0 .5 0 1-.1 1.5 0 .4 0 1.2.1 1.5v.7c-.1 0-.2-.1-.2-.3v-.4s0-.2-.1-.3c0-.1-.1-.2-.2-.2-.3.9-.2 1.2-.2 1.2zm26.8 3.7c0-.1-.1-.1-.1-.2.1 0 .2-.1.3-.1.1.1 0 .2-.2.3zm6.8-7.1s-.1.1-.2.1v-.4c.1.1.2.1.2.3zm-.4-3l.2.2c0 .1-.1.1-.2.1 0-.2-.1-.3-.1-.5 0 .1.1.1.1.2zm-3.5-25.1c0 .1.1.2.1.3 0-.1 0-.2-.1-.3zm-.3-1.1c.1.1.1.3.1.5-.1.1-.2 0-.2-.1.1.1.1-.2.1-.4z" fill="#db5d43"/><path fill="#db5d43" d="M185.7 122.2v.1l.1-.1zM200.4 164.5l.3-.2c-.2.1-.3.2-.3.2zM201.8 163c0-.1-.1-.1 0 0zM171.9 167.2c-.1-.1-.1-.1 0 0-.3-.1-.2 0 0 0zM181.1 167.7c-.1 0-.2.1-.3.1.1 0 .3 0 .3-.1zM169.5 156.9zM180.4 167.8c.2.1.3.1.4 0-.2 0-.3-.1-.4 0zM202 154.2s-.1 0 0 0zM201.7 153.9l.1.2c0-.1 0-.1-.1-.2zM202.7 157.7c0-.2.1-.5 0-.8h-.1c.2.1-.1.7.1.8zM185.4 167.9l-.4.1.3.1z"/><g><g fill="#f6eaea"><path d="M640 209.9c.2.4-.2.2-.3.2.5.4 1 1 1.4 1.2.4.3.6.3.5-.2-1.1-.9-1.1-1.3-2.4-2-.7-.8-1.2-1.6-.9-1.6-.3-.2-1.1-1.4-1.8-1.5.9 1.2 2.1 2.5 3.5 3.9zM644.3 225.4c.1 0 .1 0 0 0 .1-.4.2-.7.2-1.1 0 .4-.1.7-.2 1.1zM611.8 195.4c-.1 0 0 0 0 0 .1 0 .1 0 0 0zM644.2 226.1c-.1.4-.2.7-.3 1 .1-.4.2-.7.3-1zM557.4 195.1c.4.1.6.2.8.4-.2-.3 2.4-.5-.8-.4z"/><path d="M644.2 225.4c.1.2.1.4 0 .7.1-.3.1-.5.2-.8-.1 0-.1 0-.2.1zM409.8 264.1l-2.8-.1c.8.1 1.8.1 2.8.1zM398.5 264.1c-.5-.2-1-.3-1.6-.3-.1 0-.3.1-.3.1l1.9.2zM479.4 261.7h-.2.2zM462.4 262.5zM385.6 263.9h-.4.4zM463.4 262.4l-.9.1c-.1 0-.1 0-.1-.1 0 .1-.5.2-1 .2.9.1 2.2.1 2-.2z"/><path d="M643.8 217.6c.1-.7.6 1.2.8 2-.1-.7-.3-1.4-.4-2.1-.2-.7-.4-1.5-.7-2.1-.5-1.3-1.2-2.2-1.5-2.5l.4 1.1c-.1-.3.3-.1.5.3.2.5.4.9.6 1.2.1.4.2.7.2 1 .1.5 0 .8 0 .9l-.5-1.5c-.1.5 0 1.1.2 1.7.1.7.3 1.5.4 2.3.2.9.2 1.8.2 2.7 0 .5-.1.9-.1 1.4 0 .4-.2.9-.3 1.2 0 0 0-.4-.1-.7 0-.2 0-.3-.1-.4 1.4-7.8-3.7-15.5-8.9-19.5-.1-.1-.2-.1-.2-.2.2-.1.5-.2.6-.4.1.2.3.3.6.6h.4c.2 0 .4.1.4.1l-.2-.2c-.1-.1-.3-.2-.5-.3-.4-.2-.7-.5-.7-.5 0-.2-.2-.4-.4-.8-.2-.2-.4-.5-.7-.7-.3-.3-.7-.6-1.1-.9l-.4-.2c-.3-.1-.6-.2-1-.4-.4-.1-.7-.3-1-.4-.3-.1-.4-.2-.4-.2l-.4-.4-.4-.4s.1.1.4.2c.2.1.5.2.8.4.6.3 1.1.6 1.1.6-1.2-1-2.1-1.2-3.1-1.4-.2-.3-.5-.6-1.1-.8 0 0-.2 0-.5-.1-.3 0-.6-.1-1-.1s-.7-.1-1-.1h-.5c-.3-.4 1.4-.2-.5-.9-1.4-.1 1.1 1-1.1.6-1.3-.7-.9-.8-2.5-.9-.2-.2.2-.3.8-.2-1.5-.1-3.9-.6-4.6-.3-1.4-.6-4.9-.4-4.7-1.1-.5.1-2.6.4-3.9.4 2.5-.7-4.9-.3-4.3-1.1-1.8.7-6.5.1-9.7.5.2-.1.5-.2.8-.1-1.8-.1-2.3-.3-3.4-.5-.2.6-3 .7-4.5 1.1-2.2-.6 1.3-.7.7-1.3.1.5-3.8.5-3.1.9-1.7-.4-1.4-.2-2.3-.7-.3.8-1.6.1-2.9.6-2.4-.4-.6-.7-3.3-.5-1.3-.2 1.1-.5 1.1-.5-2.7 0-1.3.6-1.9.9-3.2.2-1.5-.4-2.6-.7-2 .2-3.6.7-5.1.7-.1-.1-.4-.1-.1-.2-2.1.5-6.3.1-8.8.7-.2 0-.3-.1-.3-.1.4.3.5.6.4.8-1.2 0-2.2.4-2.7 0 .7 0 .8-.1 1.2-.3l-1.3.2c-1.1-.5 1.7-.2 1.7-.6-2.5.2-5.4.7-7.3.6-.4-.5 4.4-.2 1.9-.7l2.9.2c-2.2-.8 1.8 0-.3-.8-3.9-.1-4.3.3-8.2.2-.9.3.3.4-.6.7-5.5.6-4.3-1.3-8.3-.5-1 .4-1.5 1-4.3.7l1-.6c-3.7 0-2.1.9-6.1.5.7-.2 2.9-.2 2.4-.3-2.5-.4-1.8.4-3.7.4l-.4-.5c-1.5.1-3.1.2-4.7.3-1.2-.1-1.8 0-2.3.2-1.5.1-3.1.2-4.7.3l1.3-.4h-2.1c-.1 0-.2 0-.3-.1-.4 0-.9 0-1.3.1-6.7 0-13.6-.6-20.1-.3.5-.1.5-.3 1.2-.2-1.6-.4-6-.1-6 .2-1.2-.1-.3-.3-1-.4-1.6-.3-4.1.4-5 0-.1 0 .1-.1.4-.1-1.4.1-4.5-.1-3.6.3-2.9-.3-5.5.1-7.8-.2-1.5.5-4.9-.3-5.4.4.2-.7-5-.6-6.9-.3.6-.2-1.6-.2-.9-.5-2.1 0-4 .1-3.6.5-3.8-.8-7.7.7-9.9-.3-6.2.4-11.9.8-17.5 1.1.2-.7 6.1-.2 5.9-.9-5.3.4-8.3 1-13.6 1-1.4-.1.8-.3 1.2-.5-5.3.4-10.2.2-14.9.8.8.4-3.4 1-3.9 1.3 1.3-.9-4.7 0-2.2-1.3-.6.1-1.4.3-1.2.5-.9 0-1.2-.1-.3-.4-3.3.3-2.1.6-5.1.7 0-.2.6-.2.9-.4-1.5.4-3 .7-5.6.7.1-.1-.1-.2.4-.2-4.2.3-7.3 1.1-11.9 1.1 1.4-.7-1.6-.1-1.9-.7l-2.6.3 1 .2c-2.2.1-4.2.7-6.2.6l1.7-.3-4.2.4 2.4.1c-2.3.4.3.7-2.7.7.6-.1-2.2.1-3.4-.1-1.1.3-2.2.5-3.9.5-.4-.2.3-.7 0-.8-1.1.6-5.3.5-6.6 1.1.5-.2.5-.5.3-.5l-.9.5c-1 0-1.2-.1-1-.4-3.1.2 1 .7-2.7.6.3-.1.1-.1.8-.2-3.7.1-7.2.8-10.6.9-1-.5 3-.4 1.8-.8-4.9.5-10.2 1.5-15 1.8h.9c-.6.9-3.6-.1-6 .5.6-.1.8-.5.6-.4-3.3.2-6.7.8-11.6 1.7l.6-.3c-1.9 0-5.1.5-7.2.7-.6.3-1.8.4-1 .6-6.5-.3-12.2 2.4-17.9 2.5.7-.1 1.6-.5 1.1-.4l-4.8 1.1c.4.3.7.1 1.7.2-.6.3-1.9.8-3.1 1 2.1-.7-.1-.6-1.1-.6.2.1-.1.3 0 .4-2.6-.1-.3.8-3.8 1.1l.2-.2c-1.3.4-2.4.9-3.8 1.2-.6-.3 1.3-.5 1.4-.9-1.9.5-3.7 1.7-5.5 1.8.8-.3 2-.6 2.8-1-2 0-2.2.2-3.6.5h.1l-3.3.7.9-.1c-2.2 1.7-4.9 1.6-7.9 3.4 3-1.7.4-.5.6-1.1-.9.1-2.1.4-1.8.2-1.4.9-2.6.6-4.6 1.9-.1-.1-1.6.6-1.4.1-1.9.9.5.1.4.3-2.9 1.6-7.3 2.2-11.3 4.9-1.8 1-2.8 1.9-3.7 2.8l-1.4 1.4c-.3.4-.7.8-1 1.2-.3.3-.5.6-.8.9-.2.1-.2-.1 0-.5s.6-.9.6-.9c-1.6 1.5-2.6 3.1-3.2 5.3.1-.5-.2-.1-.5.5-.4 1.9.1 1.3-.3 3.7-.2-.4-.3-1-.3-2-.3 2.3.1 4.5.7 6.6-.1.7-.6-1.2-.8-2 .1.7.3 1.4.4 2.1.2.7.4 1.5.7 2.1.5 1.3 1.2 2.2 1.5 2.5l-.4-1.1c.1.3-.3.1-.5-.3-.2-.5-.4-.9-.6-1.2-.1-.4-.2-.7-.2-1-.1-.5 0-.8 0-.9l.5 1.5c.1-.5 0-1.1-.2-1.7-.1-.7-.3-1.5-.4-2.3-.2-.9-.2-1.8-.2-2.7 0-.5.1-.9.1-1.4 0-.4.2-.9.3-1.2 0 0 0 .4.1.7 0 .2 0 .3.1.4-1.4 7.8 3.7 15.5 8.9 19.5.1.1.2.1.2.2-.2.1-.5.2-.6.4-.1-.2-.3-.3-.6-.6h-.4c-.2 0-.4-.1-.4-.1l.2.2c.1.1.3.2.5.3.4.2.7.5.7.5 0 .2.2.4.4.8.2.2.4.5.7.7.3.3.7.6 1.1.9l.4.2c.3.1.6.2 1 .4.4.1.7.3 1 .4s.4.2.4.2l.4.4.4.4s-.1-.1-.4-.2c-.2-.1-.5-.2-.8-.4-.6-.3-1.1-.6-1.1-.6 1.2 1 2.1 1.2 3.1 1.4.2.3.5.6 1.1.8 0 0 .2 0 .5.1.3 0 .6.1 1 .1s.7.1 1 .1h.5c.3.4-1.4.2.5.9 1.4.1-1.1-1 1.1-.6 1.3.7.9.8 2.5.9.2.2-.2.3-.8.2 1.5.1 3.9.6 4.6.3 1.4.6 4.9.4 4.7 1.1.5-.1 2.6-.4 3.9-.4-2.5.7 4.9.3 4.3 1.1 1.8-.7 6.5-.1 9.7-.5-.2.1-.5.2-.8.1 1.8.1 2.3.3 3.4.5.2-.6 3-.7 4.5-1.1 2.2.6-1.3.7-.7 1.3-.1-.5 3.8-.5 3.1-.9 1.7.4 1.4.2 2.3.7.3-.8 1.6-.1 2.9-.6 2.4.4.6.7 3.3.5 1.3.2-1.1.5-1.1.5 2.7 0 1.3-.6 1.9-.9 3.2-.2 1.5.4 2.6.7 2-.2 3.6-.7 5.1-.7.1.1.4.1.1.2 2.1-.5 6.3-.1 8.8-.7.2 0 .3.1.3.1-.4-.3-.5-.6-.4-.8 1.2 0 2.2-.4 2.7 0-.7 0-.8.1-1.2.3l1.3-.2c1.1.5-1.7.2-1.7.6 2.5-.2 5.4-.7 7.3-.6.4.5-4.4.2-1.9.7l-2.9-.2c2.2.8-1.8 0 .3.8 3.9.1 4.3-.3 8.2-.2.9-.3-.3-.4.6-.7 5.5-.6 4.3 1.3 8.3.5 1-.4 1.5-1 4.3-.7l-1 .6c3.7 0 2.1-.9 6.1-.5-.7.2-2.9.2-2.4.3 2.5.4 1.8-.4 3.7-.4l.4.5c1.5-.1 3.1-.2 4.7-.3 1.2.1 1.8 0 2.3-.2 1.5-.1 3.1-.2 4.7-.3l-1.3.4h2.1c.1 0 .2 0 .3.1.4 0 .9 0 1.3-.1 6.7 0 13.6.6 20.1.3-.5.1-.5.3-1.2.2 1.6.4 6 .1 6-.2 1.2.1.3.3 1 .4 1.6.3 4.1-.4 5 0 .1 0-.1.1-.4.1 1.4-.1 4.5.1 3.6-.3 2.9.3 5.5-.1 7.8.2 1.5-.5 4.9.3 5.4-.4-.2.7 5 .6 6.9.3-.6.2 1.6.2.9.5 2.1 0 4-.1 3.6-.5 3.8.8 7.7-.7 9.9.3 6.2-.4 11.9-.8 17.5-1.1-.2.7-6.1.2-5.9.9 5.3-.4 8.3-1 13.6-1 1.4.1-.8.3-1.2.5 5.3-.4 10.2-.2 14.9-.8-.8-.4 3.4-1 3.9-1.3-1.3.9 4.7 0 2.2 1.3.6-.1 1.4-.3 1.2-.5.9 0 1.2.1.3.4 3.3-.3 2.1-.6 5.1-.7 0 .2-.6.2-.9.4 1.5-.4 3-.7 5.6-.7-.1.1.1.2-.4.2 4.2-.3 7.3-1.1 11.9-1.1-1.4.7 1.6.1 1.9.7l2.6-.3-1-.2c2.2-.1 4.2-.7 6.2-.6l-1.7.3 4.2-.4-2.4-.1c2.3-.4-.3-.7 2.7-.7-.6.1 2.2-.1 3.4.1 1.1-.3 2.2-.5 3.9-.5.4.2-.3.7 0 .8 1.1-.6 5.3-.5 6.6-1.1-.5.2-.5.5-.3.5l.9-.5c1 0 1.2.1 1 .4 3.1-.2-1-.7 2.7-.6-.3.1-.1.1-.8.2 3.7-.1 7.2-.8 10.6-.9 1 .5-3 .4-1.8.8 4.9-.5 10.2-1.5 15-1.8h-.9c.6-.9 3.6.1 6-.5-.6.1-.8.5-.6.4 3.3-.2 6.7-.8 11.6-1.7l-.6.3c1.9 0 5.1-.5 7.2-.7.6-.3 1.8-.4 1-.6 6.5.3 12.2-2.4 17.9-2.5-.7.1-1.6.5-1.1.4l4.8-1.1c-.4-.3-.7-.1-1.7-.2.6-.3 1.9-.8 3.1-1-2.1.7.1.6 1.1.6-.2-.1.1-.3 0-.4 2.6.1.3-.8 3.8-1.1l-.2.2c1.3-.4 2.4-.9 3.8-1.2.6.3-1.3.5-1.4.9 1.9-.5 3.7-1.7 5.5-1.8-.8.3-2 .6-2.8 1 2 0 2.2-.2 3.6-.5h-.1l3.3-.7-.9.1c2.2-1.7 4.9-1.6 7.9-3.4-3 1.7-.4.5-.6 1.1.9-.1 2.1-.4 1.8-.2 1.4-.9 2.6-.6 4.6-1.9.1.1 1.6-.6 1.4-.1 1.9-.9-.5-.1-.4-.3 2.9-1.6 7.3-2.2 11.3-4.9 1.8-1 2.8-1.9 3.7-2.8l1.4-1.4c.3-.4.7-.8 1-1.2.3-.3.5-.6.8-.9.2-.1.2.1 0 .5s-.6.9-.6.9c1.6-1.5 2.6-3.1 3.2-5.3-.1.5.2.1.5-.5.4-1.9-.1-1.3.3-3.7.2.4.3 1 .3 2 .3-2.2-.1-4.5-.7-6.6zm-355.9-10.9c.1.1.1.2.1.4l-1.8.3c.2-.2.6-.4 1.7-.7zm-52 14.9h.8c-.7.3-1.3.6-2 .9.1-.1.4-.4 1.2-.9zm-11.6 11.5c0-.4.1-.8.2-1.1.1-.3.1-.5.1-.5.2-.3.5-.6.5-.4-.4.9-.7 1.8-.9 2.8.1-.3.1-.6.1-.8zM579.7 252c-.1-.1-.1-.2-.1-.4l1.8-.3c-.1.3-.6.5-1.7.7zm52.1-14.8h-.8c.7-.3 1.3-.6 2-.9-.1.1-.4.4-1.2.9zm11.3-10.4c-.1.3-.1.5-.1.5-.2.3-.5.6-.5.4.4-.9.7-1.8.9-2.8 0 .2-.1.5-.1.8 0 .4-.1.8-.2 1.1z"/><path d="M642.4 214.1c0 .1.1.2.1.4l-.1-.4zM593.5 250.1h-.4.4zM605.5 247.1l1.8-.3c-.8.1-1.3.2-1.8.3zM615.1 244.5c.1-.1.1-.2.1-.2l-.1.2zM461.4 262.7h-.4c-.9.2-.3.1.4 0zM507.3 259.4l-1.5.3c.8 0 1.5 0 1.5-.3zM410.1 264.1h-.3.3zM505.8 259.7c-.7 0-1.5 0-2.1.1.8.1 1.5 0 2.1-.1zM643.2 214c-.1 0 .2.5.2.5l-.2-.5zM643.1 213.9l-.3-.5c.2.3.3.5.3.5zM642.8 213.4c-.2-.4-.4-.9-.7-1.1 0 0 .2.3.3.5.3.3.4.6.4.6zM642.2 230.3v0zM640.8 232.2c-.6.6-1.4 1.1-1.7 1.6.8-.6 2.2-1.6 3-3v-.2c0 .3-.6 1-1.3 1.6zM528.5 258.5l.6-.4-1.9.3zM227.7 248.8c-.2-.4.2-.2.3-.2-.5-.4-1-1-1.4-1.2-.4-.3-.6-.3-.5.2 1.1.9 1.1 1.3 2.4 2 .7.8 1.2 1.6.9 1.6.3.2 1.1 1.4 1.8 1.5-1-1.2-2.2-2.5-3.5-3.9zM223.3 233.3c-.1.4-.2.8-.1 1.2-.1-.4 0-.7.1-1.2 0 .1 0 0 0 0zM255.9 263.4c-.1 0-.2 0 0 0zM223.5 232.6c.1-.4.2-.7.3-1-.2.4-.3.8-.3 1zM310.2 263.7c-.4-.1-.6-.2-.8-.4.3.3-2.4.5.8.4zM223.5 233.4c-.1-.2-.1-.4 0-.7-.1.3-.1.5-.2.8 0 0 .1 0 .2-.1zM457.8 194.7l2.8.1c-.7-.1-1.7-.1-2.8-.1zM469.1 194.7c.5.2 1 .3 1.6.3.1 0 .3-.1.3-.1l-1.9-.2zM404.2 196.3l.9-.1c.1 0 .1 0 .1.1 0-.1.5-.2 1-.2-.9 0-2.1-.1-2 .2zM388.2 197.1h.2-.2zM225.3 244.6c0-.1-.1-.2-.1-.4l.1.4zM482.1 194.9h.4-.4zM405.2 196.3zM274.2 208.7h.4-.4zM262.1 211.7l-1.8.3c.8-.1 1.4-.2 1.8-.3zM252.6 214.3c-.1.1-.1.2-.1.2l.1-.2zM406.2 196.1h.4c.9-.2.3-.1-.4 0zM360.4 199.3l1.5-.3c-.9.1-1.5.1-1.5.3zM457.5 194.7h.3-.3zM361.8 199c.7 0 1.5 0 2.1-.1-.8 0-1.4 0-2.1.1zM224.4 244.8s.1 0 0 0c.1 0-.2-.5-.2-.5l.2.5zM224.5 244.8l.3.5c-.1-.2-.2-.4-.3-.5zM224.8 245.4c.2.4.4.9.7 1.1 0 0-.2-.3-.3-.5-.2-.4-.4-.6-.4-.6zM225.5 228.5v-.2c-.1 0-.1.1 0 .2zM226.8 226.6c.6-.6 1.4-1.1 1.7-1.6-.8.6-2.2 1.6-3 3v.2c.1-.4.7-1 1.3-1.6zM339.1 200.2l-.6.4 1.9-.2z"/></g><path d="M279.8 233c-.1.2-.1.1-.1.4 0 0-.1-.1 0-.2 0 .1-.1-.1-.1.1s.1.2.2.1v.2c-.1-.1 0-.3 0-.6zM280.2 233.1zM276.7 233.1s.1.1.1.2c-.1-.2 0-.3-.1-.2zM280.2 233.1s0 .1 0 0zM281.1 240.5l-.1-.1v.1h.1z" fill="#a5937a"/><path d="M283.1 237.4c0-.1-.2-.2-.1-.2l.1.2v-.3l-.1.1c-.1-.1-.4 0-.3-.1 0 0 0-.1.2-.1-.1 0-.2-.1-.1-.1h.4c-.2 0-.1-.2-.3-.2h.2-.2c.1 0 .1 0 .2-.1 0-.1-.4.1-.2-.1h.1c.1-.1-.2-.2-.1-.4.3-.1.1.1.3 0-.1-.2-.4-.3-.4-.4-.4.1.1-.2-.1-.2 0 0 .2-.1.2 0 0-.1-.2-.2-.4-.3h.1c.1-.1 0-.2 0-.3-.1 0-.1 0-.2.1.2-.3.1-.3-.1-.3-.1 0-.3 0-.2-.3h.1l-.2-.1c-.1.1-.1.1-.1.2-.1.1-.2.1-.2.1.1 0 .2-.2.3-.3l-.1.1c.2-.3-.3.2-.2 0l.1-.1c-.1 0-.2.1-.2 0 .1-.2.1 0 .2-.2-.1 0-.3.2-.3 0h.1c.1-.2.1-.2 0-.2v-.2.1c-.4.4-.2 0-.5.2.3-.2.1-.2.2-.4 0-.1 0-.2.1-.2-.1.1 0-.2-.2 0 0-.1-.1 0 0-.2-.1 0 0 .1-.1.2-.2.2-.1-.4-.4-.1-.2.1-.3.3-.4.4 0-.1.1-.2.1-.2 0-.1-.1-.1-.2 0v-.2c-.1 0-.1.3-.1.1 0-.1.1-.2.1-.3l-.2.2c0-.1.1-.2.1-.3-.1 0-.2.1-.2.3v.1-.2c.1-.2.1.1.1.2 0 .4.2 0 .3 0l-.1.3c-.2 0-.4-.1-.6-.1v-.4s0 .1 0 0v-.3l-.1.1c0-.2 0-.3-.1-.4l-.1.2v-.2h.1c0-.2-.1 0-.1.1v-.2l-.1.3v-.4.4c0-.2 0-.3-.1-.2v-.2c0 .1-.1 0-.1.2 0-.2-.2.1-.1-.3 0 .1-.1.3-.1.3.1-.4-.2 0-.1-.5 0 .4-.2.2-.3.4v-.1c-.1 0-.1-.1-.2-.2 0 .3-.1.4-.1.6-.1-.3 0-.4-.1-.6 0 .2-.1.3-.1.5-.1-.2-.1-.1-.1-.3.1.4-.1.1-.1.3-.1-.2-.1-.3-.2-.2-.1-.1 0-.3 0-.3-.1 0 0 .3 0 .5-.1.1-.1-.2-.2-.3-.1.1 0 .4-.1.4v-.1c0 .2-.2.1-.2.4v-.1c.1.1.1.3.2.4 0 0 0 .2-.1 0v-.1.1c-.2-.2 0-.1-.1-.3 0 .1 0 .4-.1.3-.1-.2.1-.1-.1-.3h.1c-.3-.3.1 0-.2-.4-.2 0-.1.2-.3.2 0 .1.1.2.2.3 0 .3-.5-.5-.4-.1.1.2.2.4.1.4l-.1-.3c-.1.1.2.4 0 .3-.1-.1 0-.1 0-.2-.2-.1.1.2 0 .2l-.2-.2c-.1.1-.1.4-.2.5l-.2-.2c0 .2-.3.3-.6.4l.1.2s-.1 0-.1-.1c-.1 0 .1.1.2.2 0 0-.1 0-.2-.1.1.2.2.5-.1.6l-.1-.1c-.1.1.4.3.2.3-.2.2 0 .5-.4.7.3.1-.2.3.3.3-.2.1-.3.1-.5.3 0 .1.3.1.3.1h-.2l.3.1-.3.1.1.1s.1-.1.2-.1c.1.1-.1.3-.2.3 0 0 .1 0 .1.1.1 0 .1.1.1.1h-.2c.3.1-.2.1 0 .1h.2c-.1.1-.1.2 0 .3h-.2c0 .2.2.3.3.5 0-.1.3-.2.3-.2l-.2.1c.2 0 .1-.1.3-.1 0 .1-.2.2-.3.2h.1c-.1 0-.1 0-.2.1.2 0-.1.3.1.2h-.1c.1.2.2.2.3.3.2-.1.2 0 .3-.1 0 .1 0 .3.1.4.2 0 .2-.1.3-.2-.1.1 0 .2-.2.3.1.1.2.1.5.1 0-.1 0-.1.1-.2v.2c.2 0 .2.1.3.3 0 .2.1.3.3.2 0 0 .1 0 .1-.1.1 0 .1-.1.1-.1.1.1-.1.1-.1.3.3-.2.3.2.6 0 0 .6.5.1.6.4v-.1c.1-.1.1.1.1.1v-.2c.2-.1.4 0 .5.1.2.1.3.2.5.3.1 0 .1-.7.2-.4v.3c.2-.3.7 0 .9-.3v.1c.1.2.2 0 .2-.2.1 0 0 .1.1.2s.1-.3.2-.1v.1c0-.1.2 0 .1-.2.1.1.2-.2.3-.1 0-.2.2 0 .1-.3.1.3.3.2.3 0 0 .1.1.1.2.2.1 0 .1-.1 0-.3.4.3 0-.4.4-.1.1-.3.1-.5.2-.8.3.2-.1.2.1.4 0-.3-.1-.5.1-.6.1 0 .1.1.1.2 0-.2.3-.3.2-.6 0 0 0 .1.1.1 0 0 .1 0-.1-.1v.1c-.2-.1-.3-.4-.5-.4.4.3.2-.1.6.2 0 0-.1-.1-.2-.1 0 0 .1 0 .2.1 0-.2-.2-.2-.1-.3.1 0 .1.1.2.1-.1-.1-.2-.2-.1-.3 0 0 .1 0 0 .2.1-.3-.2-.5 0-.6.3.1.1 0 .4 0l-.1-.1-.3.7zm-1.1-2.7s-.1.1-.2.1c.1 0 .1-.1.2-.1zm-1.4-1v.2h-.1c0-.1 0-.2.1-.2zm-.4-.2v.2h-.1l.1-.2zm-4.6.8s-.1 0 0 0c-.1 0 0 0 0 0zm-.1.1c.1 0 .1.1.1.1-.1 0-.1 0-.1-.1-.1 0 0 0 0 0zM274.2 237zM281.3 233.6s0 .1 0 0zM282.8 238.7c.1.1.1 0 0 0z" fill="#a5937a"/><path d="M282.9 236.9s.1 0 .1.1c0 0 0-.1-.1-.1zM281.6 240.3zM282.9 237.1c.1-.1.1-.1 0 0 0-.1 0-.1 0 0zM279.9 233zM279.8 233.1c0-.1 0-.1 0 0zM280.5 233.2s0-.2-.1-.1v.1c0-.2 0 .1.1 0zM283 236.2h.1-.2zM297.1 233.1c-.1.2-.1.1-.1.4v-.2c0 .1 0-.1-.1.1 0 .2.1.2.1.1v.2c.1-.2.1-.4.1-.6zM297.5 233.1zM294.2 233.7c.1 0 .1.1.2.1-.1-.1-.1-.2-.2-.1zM297.5 233.1s0 .1 0 0zM299.6 239.9c-.1 0-.1-.1-.1-.1v.1h.1z" fill="#a5937a"/><path d="M300.6 236.8l-.2-.1c0-.1-.2-.1-.1-.2h.1l-.1-.1-.1.1c-.2-.1-.4 0-.3-.1 0 0 0-.1.2-.1-.1 0-.2 0-.1-.1h.4c-.2 0-.1-.2-.3-.2h.2-.2c.1 0 .1-.1.2-.1 0-.1-.4.1-.2 0h.1c.1-.1-.2-.2-.1-.3.3-.1.1.1.3 0-.1-.2-.4-.2-.4-.4-.4.1.1-.2-.1-.2l.2-.1c0-.1-.2-.2-.4-.2h.1v-.2c-.1 0-.1 0-.2.1.2-.3.1-.3-.1-.3-.1 0-.3 0-.2-.2h.1-.2c-.1.1-.1.1-.1.2-.1.1-.2.1-.2.1.1 0 .2-.2.2-.3l-.1.1c.1-.3-.2.3-.2 0l.1-.1c-.1 0-.2.1-.2 0 .1-.2.1-.1.2-.2-.1 0-.3.3-.3.1.1 0 .1 0 .1-.1.1-.2 0-.2 0-.2v-.1.1c-.3.4-.2 0-.4.3.2-.2.1-.2.2-.4v-.2c-.1.1 0-.2-.2 0v-.2c-.1 0 0 .1-.1.2-.2.2-.1-.4-.4-.1-.1.1-.2.3-.3.4 0-.1.1-.2.1-.2 0-.1-.1-.1-.2 0v-.2s-.1.3-.1.2.1-.2.1-.3c-.1.1-.1.2-.2.3 0-.1.1-.2.1-.3-.1.1-.2.1-.2.3v.1-.2c.1-.2.1.1.1.2 0 .4.2-.1.2 0l-.1.3c-.2 0-.4-.1-.5-.1v-.4s0 .1 0 0v-.3l-.1.1c0-.2 0-.3-.1-.4l-.1.2v-.2h.1c-.1-.2-.1 0-.1.1 0-.1 0-.2-.1-.2l-.1.4c0-.1 0-.3-.1-.4 0 .2.1.3 0 .4-.1-.2-.1-.3-.1-.1v-.2c0 .1-.1.1-.1.3-.1-.2-.2.1-.2-.3 0 .1 0 .3-.1.3 0-.4-.2 0-.3-.4 0 .4-.2.2-.2.5v-.1c-.1 0-.1-.1-.2-.2.1.3 0 .4.1.6-.2-.2-.1-.3-.2-.6.1.2 0 .3.1.5-.1-.1-.1-.1-.2-.3.2.3 0 .1 0 .3-.2-.1-.2-.3-.2-.1-.1-.1-.1-.2-.1-.2-.1.1.1.3.2.4-.1.1-.2-.2-.3-.3 0 .1.1.4 0 .4 0 0-.1 0-.1-.1.1.2-.2.2-.1.4h-.1l.3.3s.1.2-.1.1c0 0 0-.1-.1-.1v.1c-.2-.2 0-.1-.2-.3 0 .1.1.3 0 .3-.2-.2 0-.2-.2-.3h.1c-.3-.2.1 0-.3-.3-.2 0 0 .2-.2.3.1.1.2.1.3.3.1.3-.6-.3-.4 0 .1.1.4.3.2.3l-.2-.2c-.1.1.3.3.1.3-.1-.1 0-.1-.1-.1-.2-.1.1.1.1.2l-.2-.1c-.1.1.1.4 0 .5-.1 0-.1-.1-.2-.1 0 .2-.2.4-.4.5l.2.1h-.1c-.1 0 .1 0 .2.1h-.2c.2.2.3.4.1.5h-.1c-.1.1.5.2.2.2-.1.2.1.4-.2.6.3 0-.1.2.3.2-.2.1-.3.1-.4.3 0 .1.3 0 .4.1h-.2.3l-.3.1h.1s.1-.1.2-.1c.1.1-.1.2-.2.3l.2.1h-.2c.3 0-.2.1 0 .1 0 0 .1 0 .2-.1-.1.1-.1.2 0 .3h-.2c0 .2.2.3.3.4 0-.1.3-.2.3-.2l-.2.1c.2-.1.1-.1.3-.1 0 .1-.2.2-.3.2h.1c-.1 0-.1 0-.2.1.2-.1-.1.3.1.2h-.1c.1.2.2.2.3.3.2-.1.2-.1.3-.2 0 .1 0 .3.1.4.1 0 .1-.1.3-.2-.1.2 0 .2-.2.3.1.1.2.1.4.1 0-.1 0-.1.1-.2v.2c.3-.2.2.8.5.5l.2-.1c.1.1-.1.1-.1.3.3-.3.3.2.5 0 0 .6.4 0 .6.4v-.1c.1-.1 0 .1.1.1v-.2c.4-.1.7.2 1.2.2.2 0-.1-.7.2-.4v.3c.2-.4.6-.2.7-.6v.1c.1.1.2-.1.1-.2 0 0 .1.1.1.2.1.1 0-.3.1-.1v.1c0-.1.2-.1 0-.2.1 0 .1-.2.2-.2-.1-.2.2 0 0-.3.2.3.3.1.3-.1.1.1.1 0 .2.1 0-.1 0-.2-.1-.3.4.1-.1-.4.4-.2v-.7c.3.2-.1.2.3.4 0-.2-.3-.5-.1-.6.1 0 .1.1.2.1-.1-.2.1-.3 0-.5 0 0 .1 0 .1.1 0 0 .1-.1-.1-.1s-.4-.2-.6-.3c.4.1.1-.1.7.1 0 0-.1-.1-.2-.1h.2c-.1-.1-.2-.1-.2-.2.1 0 .1 0 .2.1-.1-.1-.3-.1-.2-.2h.1c0-.1-.4-.3-.2-.4.7.1.4 0 .7 0zm-7-1.8s0 .1 0 0c0 .1 0 0 0 0zm0 .2h.2-.2zm5.6-.7l-.1.1c0-.1 0-.1.1-.1zm-1.3-.9v.2h-.1c0-.1 0-.1.1-.2zm-.4-.1v.2h-.1l.1-.2zM292.9 237.6h.1zM298.5 233.5zM300.5 237.8s0 .1 0 0c0 .1 0 .1 0 0z" fill="#a5937a"/><path d="M300.1 236.4h.1s0-.1-.1 0zM299.9 239.6zM300.2 236.5c.1-.1.1-.1 0 0 0-.1 0-.1 0 0zM297.2 233zM297.1 233.1c.1-.1.1-.1 0 0zM297.8 233.2s0-.2-.1-.1v.1c0-.2 0 .1.1 0zM300.2 235.7l.1-.1-.2.1zM320.3 230.7c-.1.2-.1.1-.1.4v-.2c0 .1 0-.1-.1.1 0 .2.1.2.1.1v.2c.1-.1.1-.3.1-.6zM320.7 230.7s0 .1 0 0c0 .1 0 .1 0 0zM317.4 231.4c.1 0 .1.1.2.1-.1-.1-.1-.2-.2-.1zM320.7 230.8zM322.8 237.6c-.1 0-.1-.1-.1-.1v.1h.1z" fill="#a5937a"/><path d="M323.8 234.5l-.2-.1c0-.1-.2-.1-.1-.2h.1l-.1-.1-.1.1c-.2-.1-.4 0-.3-.1 0 0 0-.1.2-.1-.1 0-.2 0-.1-.1h.4c-.2 0-.1-.2-.3-.2h.2-.2c.1 0 .1-.1.2-.1 0-.1-.4.1-.2 0h.1c.1-.1-.2-.2-.1-.3.3-.1.1.1.3 0-.1-.2-.4-.2-.4-.4-.4.1.1-.2-.1-.2l.2-.1c0-.1-.2-.2-.4-.2h.1v-.2c-.1 0-.1 0-.2.1.2-.3.1-.3-.1-.3-.1 0-.3 0-.2-.2h.1-.2c-.1.1-.1.1-.1.2-.1.1-.2.1-.2.1.1 0 .2-.2.2-.3l-.1.1c.1-.3-.2.3-.2 0l.1-.1c-.1 0-.2.1-.2 0 .1-.2.1-.1.2-.2-.1 0-.3.3-.3.1.1 0 .1 0 .1-.1.1-.2 0-.2 0-.2v-.1.1c-.3.4-.2 0-.4.3.2-.2.1-.2.2-.4v-.2c-.1.1 0-.2-.2 0v-.2c-.1 0 0 .1-.1.2-.2.2-.1-.4-.4-.1-.1.1-.2.3-.3.4 0-.1.1-.2.1-.2 0-.1-.1-.1-.2 0v-.2s-.1.3-.1.2.1-.2.1-.3c-.1.1-.1.2-.2.3 0-.1.1-.2.1-.3-.1.1-.2.1-.2.3v.1-.2c.1-.2.1.1.1.2 0 .4.2-.1.2 0l-.1.3c-.2 0-.4-.1-.5-.1v-.4s0 .1 0 0v-.3l-.1.1c0-.2 0-.3-.1-.4l-.1.2v-.2h.1c-.1-.2-.1 0-.1.1 0-.1 0-.2-.1-.2l-.1.4c0-.1 0-.3-.1-.4 0 .2.1.3 0 .4-.1-.2-.1-.3-.1-.1v-.2c0 .1-.1.1-.1.3-.1-.2-.2.1-.2-.3 0 .1 0 .3-.1.3 0-.4-.2 0-.3-.4 0 .4-.2.2-.2.5v-.1c-.1 0-.1-.1-.2-.2.1.3 0 .4.1.6-.2-.2-.1-.3-.2-.6.1.2 0 .3.1.5-.1-.1-.1-.1-.2-.3.2.3 0 .1 0 .3-.2-.1-.2-.3-.2-.1-.1-.1-.1-.2-.1-.2-.1.1.1.3.2.4-.1.1-.2-.2-.3-.3 0 .1.1.4 0 .4 0 0-.1 0-.1-.1.1.2-.2.2-.1.4h-.1l.3.3s.1.2-.1.1c0 0 0-.1-.1-.1v.1c-.2-.2 0-.1-.2-.3 0 .1.1.3 0 .3-.2-.2 0-.2-.2-.3h.1c-.3-.2.1 0-.3-.3-.2 0 0 .2-.2.3.1.1.2.1.3.3.1.3-.6-.3-.4 0 .1.1.4.3.2.3l-.2-.2c-.1.1.3.3.1.3-.1-.1 0-.1-.1-.1-.2-.1.1.1.1.2l-.2-.1c-.1.1.1.4 0 .5-.1 0-.1-.1-.2-.1 0 .2-.2.4-.4.5l.2.1h-.1c-.1 0 .1 0 .2.1h-.2c.2.2.3.4.1.5h-.1c-.1.1.5.2.2.2-.1.2.1.4-.2.6.3 0-.1.2.3.2-.2.1-.3.1-.4.3 0 .1.3 0 .4.1h-.2.3l-.3.1h.1s.1-.1.2-.1c.1.1-.1.2-.2.3l.2.1h-.2c.3 0-.2.1 0 .1 0 0 .1 0 .2-.1-.1.1-.1.2 0 .3h-.2c0 .2.2.3.3.4 0-.1.3-.2.3-.2l-.2.1c.2-.1.1-.1.3-.1 0 .1-.2.2-.3.2h.1c-.1 0-.1 0-.2.1.1-.1-.1.3.1.2h-.1c.1.2.2.2.3.3.2-.1.2-.1.3-.2 0 .1 0 .3.1.4.1 0 .1-.1.3-.2-.1.2 0 .2-.2.3.1.1.2.1.4.1 0-.1 0-.1.1-.2v.2c.3-.2.2.8.5.5l.2-.1c.1.1-.1.1-.1.3.3-.3.3.2.5 0 0 .6.4 0 .6.4v-.1c.1-.1 0 .1.1.1v-.2c.4-.1.7.2 1.2.2.2 0-.1-.7.2-.4v.3c.2-.4.6-.2.7-.6v.1c.1.1.2-.1.1-.2 0 0 .1.1.1.2.1.1 0-.3.1-.1v.1c0-.1.2-.1 0-.2.1 0 .1-.2.2-.2-.1-.2.2 0 0-.3.2.3.3.1.3-.1.1.1.1 0 .2.1 0-.1 0-.2-.1-.3.4.1-.1-.4.4-.2v-.7c.3.2-.1.2.3.4 0-.2-.3-.5-.1-.6.1 0 .1.1.2.1-.1-.2.1-.3 0-.5 0 0 .1 0 .1.1 0 0 .1-.1-.1-.1s-.4-.2-.6-.3c.4.1.1-.1.7.1 0 0-.1-.1-.2-.1h.2c-.1-.1-.2-.1-.2-.2.1 0 .1 0 .2.1-.1-.1-.3-.1-.2-.2h.1c0-.1-.4-.3-.2-.4.7.1.4 0 .7 0zm-7-1.8zm0 .2h.2-.2zm5.6-.8l-.1.1s0-.1.1-.1zm-1.3-.8v.2h-.1c0-.1 0-.1.1-.2zm-.4-.1v.2h-.1l.1-.2zM316.1 235.3h.1-.1zM321.7 231.1c0 .1 0 .1 0 0zM323.7 235.5c0 .1 0 .1 0 0zM323.3 234h0zM323.1 237.3zM323.4 234.1c.1 0 .1 0 0 0zM320.4 230.7zM320.4 230.7z" fill="#a5937a"/><path d="M320.8 230.7c0-.1.1.2.1.1 0 0 0-.2-.1-.1zM323.4 233.4l.1-.1h-.2z" fill="#a5937a"/><g fill="#eb7e44"><path d="M210.9 235.1c.2.3.5.6.7.3-.3-.2-.2-.3-.6-.6-.1-.2 0-.4.2-.4-.1-.1 0-.4-.2-.5-.2.3-.2.7.1 1.1 0 .2-.1.1-.2.1zM212.1 238.2c0-.1-.1-.1-.1-.2l.1.2zM210.6 227.3s-.1.1 0 0c0 .1 0 .1 0 0zM199.5 219.6c.1.1.1.2.1.3 0-.2.7-.1-.1-.3zM212.1 238.3v-.1h-.1c.1 0 .1.1.1.1zM171.8 261.5l-.7-.2c.2.1.4.2.7.2zM169 260.8l-.3-.3h-.1l.4.3zM188.7 262z"/><path d="M213.1 245.8c-.3-.4.2-.7-.2-1.2.1 0 0-.4.2-.3-.1-.5-.1.1-.3.1-.4-.7.2-1.8-.4-2.9-.3-.8-.6-1-.8-1.7v-.2c.1-.2.3.2.3.2.1-.5 0-.8-.2-1.3.1.1.1 0 .2-.2-.1-.3-.4-.2-.3-.7.1.1.3.1.4.3-.1-.4-.4-.8-.5-1.2.1-.1.3.2.4.4-.1-.5-.3-1.2-.6-1.3v.3c0-.2.2-.1.3 0 .3.4 0 .6-.1.6l-.1-.3c-.5.4.3 1.2.3 1.8l-.3-.2c-.3-1.6-.5-3.2-.7-4.7v-.1h.4v.2l.3.1-.1-.4c.2-.1.3-.3.4-.7l-.4-.7.2-.3.1.6c.2-.4-.1-.6-.2-.8.1-.1.2-.2.2-.3l-.5-.6c.2-.1.4.2.4-.2-.3-.3-.3.4-.5-.1.1-.4.3-.3 0-.7.1-.1.2 0 .3.1-.2-.3-.3-.9-.6-1 .1-.4-.5-1.1-.1-1.3-.1-.1-.5-.5-.7-.8.4.2.2-.1.1-.5-.2-.3-.4-.7-.1-.8-.6-.2-1.2-1.3-2-1.7.1 0 .2 0 .2.1-.3-.4-.3-.5-.5-.8-.3.2-.9-.1-1.3-.2-.3-.6.5-.2.6-.5-.1.2-1-.3-1 0-.3-.4-.3-.3-.3-.7-.3.4-.4-.1-.8 0-.5-.5 0-.5-.6-.6-.2-.2.4-.2.4-.2-.6-.3-.4.2-.6.3-.8-.2-.3-.4-.5-.6-.5-.1-1 .1-1.3 0 0-.1-.1-.1 0-.1-.6.1-1.5-.4-2.2-.2 0 0 0-.1-.1-.1v.5c-.3-.1-.6.1-.6-.2.2.1.2 0 .3-.1h-.3c-.2-.4.4 0 .5-.2-.6-.1-1.3 0-1.8-.2 0-.3 1.1.2.5-.3l.7.3c-.4-.6.4.1.1-.5-.9-.3-1.1-.1-1.9-.4-.2.1 0 .3-.2.4-1.4 0-.8-1-1.9-.8-.3.2-.5.5-1.1.2l.3-.3c-.9-.2-.6.4-1.5 0 .2-.1.7 0 .6 0-.5-.4-.5.1-.9 0v-.3c-1-.1-2-.1-3.1-.2.1-.1.3-.2 0-.3-1.4-.1-2.8-.4-4.1-.8l-.5.2c-.1 0-.2-.1-.1-.2-.5-.1 0 .2-.3.3-.3 0-.4-.2-.2-.3-.5.1-1.1.1-1.8.1-.6 0-1.3 0-1.8-.2l.2-.1c-.7-.1-.8.5-1.5.2h.1c-.8-.1-1.6 0-2.4 0-.8 0-1.5 0-2.2-.1-.1.2-.5.2-.9.2s-.7.1-.8.3c-.9-.2-.7-.3-2-.3-.3 0-.5.4-.9.6l-.1-.3-.5.4-.4-.3-.4.1c.2 0 .4.1.4.1-.6.2-1.5.1-1.6 0l-1.4.6c0-.1.2-.2.4-.3-.7.5-.2-.3-.9.2.1 0 0 .2 0 .2-.4 0-1.2.2-1.7.5v-.2c-1.1.3-2.1 1-3.3 1.5.5-.1.5.2.2.4l-.3-.2c-.1.3.4-.1.1.4-.4.2-.4-.1-.2-.4l-.4.4c-.1-.1 0-.2 0-.3-.1.3-1 .2-1.1.7l-.1-.1c-.1.1-.3.2-.4.2-.1 0-.1.1-.2.1l-.1.1h.1c-.1.1-.2.1-.3.2-.1.1-.2.2-.3.2-.4.3-.8.8-1.1 1.1.2.2-.2.5-.2 1-.3.4-.6.8-.7 1.4-.2.5-.1 1.2.1 1.7.4.7.3.1.6.4-.1.2-.1.4-.3.3v.5c0 .2 0 .4.1.6.1.4.1.8.3 1.4.1-.2.1-.3.2-.2.1.2-.1.6-.2.5v-.1c.5 1.5-.4 3.5.2 4.6v-.1l.4 1.2c0 .6-.2-.3-.3.1.6 1.3.2 2.1.6 3.2-.6.9.5 3 .3 4.2l.2-.1c.2.3 0 .4 0 .6.1-.1.1-.3.2-.2.7 2.4.7 5.1 1.5 7.8.4 1 1 .2 1.1 1.5l-.4-.2c.6.9 1.1 1.7 1.7 2.6.6.9 1.3 1.6 2.2 2.2-.1 0-.2 0-.3-.1.1.5 1.2 1 1.3.9.2.2 0 .2.1.4.3.3 1.1.3 1.2.6h-.2c.3 0 1.1.6 1 .3.6.4 1.3.5 1.9.8.5-.1 1.2.5 1.4.1-.2.4 1.1.6 1.6.5-.2.1.4.2.1.3.5.1 1 .1.9-.1.8.7 1.9-.1 2.4.6 1.5 0 2.9 0 4.3-.1-.1.4-1.5-.1-1.5.4 1.3-.1 2.1-.4 3.3-.2.3.1-.2.2-.3.2 1.3-.1 2.5.1 3.6-.1 0 0-.1.1-.2.1.2 0 .5.1.5-.1l-.2.1c-.4-.3.9-.6.9-.7-.4.6 1.1.1.5.8.1 0 .3-.1.3-.3.2 0 .3.1.1.3.8-.1.5-.3 1.2-.3 0 .1-.1.1-.2.2.4-.2.7-.4 1.3-.3v.1c1-.1 1.7-.6 2.8-.5-.3.4.4.1.5.4l.6-.2-.3-.1c.5 0 1-.3 1.5-.3l-.4.2 1-.2-.6-.1c.5-.2-.1-.4.6-.4-.1 0 .5 0 .8.1.3-.1.5-.3.9-.2.1.1 0 .4 0 .5.2-.3 1.3-.2 1.6-.5-.1.1-.1.3-.1.3l.2-.3c.3 0 .3.1.3.2.8 0-.3-.4.6-.3-.1 0 0 .1-.2.1.9 0 1.7-.4 2.6-.4.3.3-.7.2-.4.4 1.2-.3 2.4-.8 3.5-1.1h-.2c0-.5.9 0 1.4-.4-.1.1-.1.3-.1.3.8-.2 1.5-.7 2.5-1.5l-.1.2c.5-.2 1.1-.7 1.5-1 0-.2.3-.4 0-.4.8-.3 1.3-1 1.6-1.7s.5-1.4 1-2c-.1.2 0 .4 0 .3 0 0 .1-.3.1-.6.1-.3.1-.6.1-.6-.2 0-.2.1-.4.3-.1-.2-.1-.5 0-.8 0 .5.3.1.5-.1-.1 0-.1-.1-.2-.1.5-.5-.4-.2 0-1l.1.1c0-.3-.1-.6-.1-1 .3-.1.1.3.3.4 0-.5-.4-1-.1-1.4.1.2 0 .5.1.7.3-.4.3-.5.3-.9l.2-.8-.1.2c-.6-.6-.1-1.2-.6-2 .4.8.2.1.5.2-.2.2-.2-.1-.1 0zm-1-3.8l-.2.2c0-.2 0-.3-.1-.5.1.1.2.1.3.3zm-.4-3.3c0 .1-.1.2-.2.1 0-.2-.1-.4-.1-.6l.3.5zm-22.6-21h.3c0 .1-.1.1-.3 0zm-.7-.1c0 .1 0 .2-.2.2.1 0-.2-.1-.4-.3.2.1.4.1.6.1zm22.7 37.1c-.1 0-.1 0-.2-.1.1-.1.1-.3.2-.4 0 .1.1.3 0 .5zM170 217h.2z"/><path d="M212.9 248.6l.1-.4c-.1.2-.1.3-.1.4zM213 246.2h-.1.1zM184.3 262.3c-.3.1-.1 0 0 0zM195.4 261.1c-.1.1-.2.1-.3.2.1 0 .3 0 .3-.2zM171.8 261.5zM194.5 261.3h.5c-.1 0-.3-.1-.5 0zM211.8 236v.1-.1zM211.6 235.7l.1.2c0-.1 0-.2-.1-.2zM212.4 240.1c0-.2.1-.6 0-.9h-.1c.2.2-.1.7.1.9zM200.5 260.9l.1-.2-.4.1z"/></g><path d="M203.3 224.3c.1 0 .3-.1.4-.3.1 0 0 .1 0 .2.2-.2.4-.5.2-.8-.2.3-.3.3-.4.7-.2.1-.4 0-.4-.1 0 .1-.3.1-.3.3.2.1.4.1.5 0zM206.7 224h-.2.2zM190 232.4c.1 0 .2.1.3.1-.2-.2.2-.5-.3-.1zM206.8 224.1l-.1-.1s-.1.1 0 .1h.1zM173.8 244.2l-.4-.4c.1.2.3.3.4.4zM172.2 242.8c0-.1 0-.2-.1-.3h-.1l.2.3z" fill="#db5d43"/><path d="M208.5 229c-.1-.4 0-.7.1-1.2v-.7c0-.2-.2-.5-.3-.7-.4-.7-.8-.7-1.2-1l-.1-.1c0-.2.4 0 .4 0-.1-.4-.4-.6-.7-.8.1 0 .1-.1.1-.3-.3-.2-.3.1-.6-.2.1-.1.3-.2.5-.2-.2-.1-.4-.1-.6-.1h-.6c-.1-.2.3-.2.5-.2-.2-.1-.6 0-.8 0-.3 0-.5.2-.5.3l.3.1c-.2 0-.1-.2 0-.3.4-.2.5.2.5.2h-.3c.1.3.3.3.6.3h.5c.2 0 .3.1.4.2 0 0-.1 0-.2.1 0 0-.1 0-.1.1-1-.6-2.2-.7-3.5.3-.1-.1-.1-.3-.2-.4 0 0 .1 0 .2-.1v-.3l-.2.3c-.1-.1-.4-.2-.7-.1l-.3.5-.3-.1.4-.3c-.3 0-.4.2-.4.4-.1-.1-.2-.1-.3-.1l-.2.6c-.2-.1 0-.4-.4-.3-.1.3.4.2.2.5-.3 0-.4-.2-.5.1-.1-.1-.1-.2 0-.3-.1.3-.5.5-.5.7-.4 0-.7.6-.9.2 0 .1-.2.5-.4.7.1-.7-.8.5-1 0 0 .6-.9.9-1.2 1.4 0 0 0-.1.1-.2-.3.2-.4.1-.7.2.2.3-.2.7-.3 1-.5-.1 0-.5-.3-.7.2.2-.4.7-.2.8-.4 0-.3.1-.6-.1.2.4-.2.2-.2.6-.5.1-.3-.3-.7.1-.3 0 0-.4 0-.4-.4.3 0 .4 0 .6-.4.4-.4 0-.6-.1-.3.3-.3.7-.6.8 0 0-.1 0-.1-.1-.2.4-1 .6-1.2 1.2h-.1c.2.1.3.2.3.4-.2.1-.2.4-.4.3.1-.1.1-.2.1-.2l-.1.2c-.4-.2.2-.3.1-.5-.3.3-.6.9-1 1-.2-.2.6-.5.1-.5l.5-.2c-.6-.2.3-.1-.3-.4-.7.3-.6.6-1.2.9 0 .2.2.2.1.4-.7.8-1.1-.2-1.5.5-.1.3.1.7-.5.8v-.4c-.7.4-.1.7-.9.9 0-.2.4-.4.3-.4-.6.1-.2.4-.5.6l-.2-.2c-.6.5-1.1 1.1-1.7 1.6 0-.1 0-.3-.2-.2l-.9.6c-.2.1-.3.1-.5.1h-.2c-.4-.2-.8-.5-1.2-.7-.4-.3-.8-.6-1-.9h.2c-.4-.4-.9 0-1.1-.5h.1c-.9-.9-2.1-1.5-2.6-2.5-.4.2-.8-.9-1.2-.5-.4-.7-.2-.6-.8-1.4-.2-.2-.5 0-.8-.1l.2-.2h-.5v-.4l-.3-.1c.1.1.1.3.1.3-.5-.2-.8-.9-.7-1l-1-.5c.1-.1.3 0 .4.1-.7-.2.1-.3-.5-.4 0 .1-.1.1-.2.1-.1-.3-.6-.7-1-.9l.2-.1c-.6-.6-1.4-1-2.2-1.7.2.3-.1.5-.3.4l.1-.3c-.3 0 .2.3-.3.2-.3-.3 0-.4.3-.4l-.4-.2c0-.1.1-.1.2-.1-.3 0-.4-.7-.8-.6v-.1c-.7-.6-1.1-.8-1.7-1.3-.2.2-.4 0-.7 0-.4-.4-1-1.1-1.8-1.3-.6 0-.2.2-.5.3 0-.3-.9-.3-.4-.5-.5 0-.9 0-1.2.1-.4.1-.7.2-1.3.6.2 0 .3 0 .3.1-.2.1-.5.1-.5 0v-.1c-.5.5-1.3.8-1.9 1.3-.3.3-.6.6-.8.9-.2.4-.3.7-.2 1.1v-.1.7l.2.6c0 .6-.2-.3-.3.1.3.7.5 1.2.8 1.6.1.2.3.4.4.6.2.2.4.4.6.4.1 1 1.8 1.4 2.3 2.4l.1-.2c.3 0 .2.2.3.4.1-.1-.1-.3.1-.3 1.6 1.1 3 2.7 4.4 4.1.5.5.9-.4 1.3.5l-.4.1c1.4.6 2.3 1.9 3.6 2.6-.1 0-.2.1-.3 0 .1.4.9.7 1 .6.2.2-.1.2 0 .3.2.3.7.3.7.5h-.2c.2 0 .6.6.7.3.3.4.8.6 1 1 .4 0 .6.7.9.5-.3.3.5.9.9 1-.2 0 .1.3-.1.3.3.3.7.4.7.2.3.9 1.4.6 1.4 1.4 1.1.5 2.2 1 3.4 1.2-.1.2-.4.1-.7 0s-.6-.2-.6 0c1.1.3 1.8.2 2.9.4.3.1-.2.2-.3.2 1.2-.1 2.3-.1 3.1-.6l-.2.2c.2-.1.4-.1.4-.3l-.2.1c-.4-.2.5-.8.5-.9-.1.6.9-.2.7.6.1-.1.2-.2.1-.3.2 0 .3 0 .2.2.5-.4.3-.4.8-.7 0 .1 0 .2-.1.3.2-.3.4-.6.8-.8 0 .1.1.1 0 .2.7-.4 1-1.1 1.8-1.5 0 .5.3-.1.6.2l.3-.4h-.3c.4-.2.5-.7.9-.8l-.2.3.6-.5-.4.1c.2-.4-.3-.3.2-.6-.1.1.4-.2.6-.2.1-.2.2-.4.5-.5.1 0 .2.4.2.4 0-.4.8-.6.8-1 0 .1.1.3.1.3v-.3c.2 0 .3 0 .3.1.5-.3-.4-.3.3-.5 0 0 0 .1-.1.2.6-.3 1.1-.9 1.7-1.1.4.2-.4.4-.1.5.8-.6 1.4-1.4 2.2-1.8l-.2.1c-.2-.5.7-.2.9-.6-.1.1 0 .3 0 .2.6-.3 1-.8 1.7-1.5v.2c.4-.1.8-.5 1.2-.7 0-.2.2-.3 0-.4 1.4-.1 1.7-1.7 2.9-1.8-.1.1-.2.3-.1.2l.7-.6c-.2-.1-.2 0-.4-.1 0-.2.2-.4.4-.5-.2.4.2.3.4.3-.1 0-.1-.1-.1-.2.6 0-.2-.4.5-.6v.1c.2-.2.3-.4.5-.6.2.1-.1.2 0 .4.3-.2.3-.8.7-.8-.1.2-.3.3-.3.4.5 0 .5-.1.7-.2 0 0 .1-.1.3-.1.1-.1.3-.2.3-.2l-.2.1c0-.4.1-.6.3-.8s.4-.4.4-.8c0 .7.1.2.3.4.2-.1.4-.3.4-.2-.1-.4.5-.5.2-1.1.1 0 .1-.4.3-.2-.2-.1-.4.5-.5.4zm-1.8-4.4c0 .1 0 .2-.1.2-.1-.1-.2-.2-.4-.3.2.1.5.1.5.1zm-23.1 12.5s-.1.1-.2.1c0 0 .1-.1.2-.1zm-.7.4c.1.1.1.2 0 .2 0-.1-.2 0-.4 0 .2-.1.3-.1.4-.2zm19.4-2.9s-.1-.1-.1-.2c.1-.1.2-.1.3-.2-.1.1-.1.2-.2.4zm5.6-7.4c0-.1-.1-.3-.1-.4.1 0 .2.1.3.2l-.2.2z" fill="#db5d43"/><path fill="#db5d43" d="M173.4 230.7l-.1.1h.1zM206.4 232l.3-.1c-.1 0-.2 0-.3.1zM208 230.6c-.1 0-.1-.1 0 0zM183.7 247.3c-.1 0-.1 0 0 0-.3.1-.2.1 0 0zM191 242.4c0 .1-.1.2-.2.3.2-.2.3-.2.2-.3zM173.9 244.3l-.1-.1z"/><path d="M190.9 242.6c-.1.1-.2.1-.3.2.1 0 .2-.1.3-.2zM204.6 223.3h.1-.1zM204.2 223.4l.3-.1c-.1.1-.2.1-.3.1zM207.9 225.3c-.1-.2-.1-.6-.4-.7h-.1c.3 0 .2.7.5.7zM194.3 240.5h.3v-.2z" fill="#db5d43"/></g><g><g fill="#bfaf9c"><path d="M394.5 323.6c.2.1.4.2.7.2-.3-.1-.2-.1-.5-.2 0-.1.1-.2.2-.1-.1 0 .1-.1-.1-.2-.2.1-.2.3 0 .4-.2-.1-.3-.1-.3-.1zM395.1 324.8zM394.5 316.3c-.1 0-.1.1-.2.1.2 0 .3.2.2-.1zM395.1 324.9s0-.1 0 0c0-.1-.1-.1-.1-.1l.1.1zM381.3 322.1c.1 0 .1-.1.2-.1h-.1l-.1.1z"/><path d="M395.1 322c.2 0 .3.1.4-.1-.2-.1-.4.1-.5 0 .2-.1.3-.1.2-.2h.2c-.1-.1-.1-.3-.3-.4.2-.1-.1-.4.3-.4-.1 0-.3-.2-.4-.3.5.1 0-.4.5-.4-.5-.1-.3-.5-.6-.8 0 0 .1 0 .1.1 0-.2.1-.2.2-.3-.4 0-.5-.2-.7-.3.3-.2.4 0 .8-.1-.3.1-.3-.3-.6-.2.2-.2.1-.1.4-.3-.5.1-.1-.1-.4-.2.2-.2.4-.1.2-.3.1-.1.3 0 .3 0 0-.2-.4 0-.6-.1-.1-.3.2-.2.4-.3-.1-.2-.5-.2-.5-.3h.1c-.3-.1-.1-.5-.5-.7h.1c-.2.1-.3.1-.5.1 0-.1-.3-.1 0-.2 0 .1.1 0 .2.1l-.1-.1c.3-.2.1.1.4.1-.2-.2-.5-.4-.4-.5.3-.1.2.3.4.1l-.1.3c.4-.3 0 .2.5-.1 0-.3-.2-.3-.2-.7-.2 0-.2.1-.4.1-.4-.4.7-.6.2-.8-.2 0-.6.1-.5-.2h.4c-.1-.3-.5 0-.4-.4.2 0 .2.2.2.1.2-.3-.2-.1-.3-.2l.3-.1c-.2-.3-.5-.6-.7-.9.1 0 .2 0 .3-.1-.3-.4-.4-1-.4-1.5h-.3l.1-.1c0-.2-.2.1-.3 0-.1-.1.1-.2.2-.2-.4-.2-.9-.6-.8-1h.1c-.1-.3-.6.1-.6-.3h.1c-.2-.6-.8-.9-.8-1.5-.3.2-.3-.6-.7-.2 0-.4.1-.4-.2-.9-.1-.1-.4.1-.6.1l.1-.2-.4.1.1-.4h-.2c.1 0 .1.2 0 .3-.3 0-.5-.4-.5-.6h-.7c0-.1.2-.1.3-.2-.4.2 0-.3-.4-.1 0 .1-.1.2-.1.2-.1-.2-.5-.2-.8-.2l.1-.2c-.5 0-1.1.2-1.6.4.2 0 .3.4.1.4l-.2-.3c0 .2.2.1.1.3-.2 0-.3-.3-.2-.4l-.2.2v-.3c0 .2-.5-.1-.5.3l-.1-.1c-.5.3-.6.5-.9.9.2.2 0 .3.1.5-.3.2-.7.3-.8.7 0 .3.2.2.2.4-.2-.1-.4.3-.4 0-.2.4-.2.6-.2 1.2.1 0 .2-.1.2 0s-.2.2-.3.2c.2.7-.8 1.2-.4 1.7l.2.4c-.1.2-.2-.1-.3 0 .4.5-.1.7.1 1.1-.7.3 0 1-.5 1.4h.2c.2.1-.1.1-.1.2.1 0 .2-.1.2 0 .2.9-.3 1.8-.5 2.7-.1.3.9.2.5.6l-.3-.1c.4.7 0 1.3.3 2-.1 0-.2 0-.2-.1-.2.1 0 .5.2.5 0 .1-.2 0-.3.1-.1.1.3.3.1.4 0 0-.1 0-.1-.1.1.1 0 .4.2.3-.1.2.1.5 0 .7.3.1-.1.4.3.5-.4 0-.3.4-.1.6-.1 0-.1.1-.3.1 0 .2.1.3.3.3-.5.3.4.6-.2.8.2.5.4 1 .5 1.5-.4 0-.1-.5-.5-.5.2.4.6.7.5 1.1-.1.1-.2-.1-.3-.1.2.4 0 1 .4 1.4 0 0-.1 0-.1-.1 0 .1 0 .2.2.2l-.1-.1c.2-.2.7.2.8.1-.6.1 0 .5-.7.5.1 0 .2.1.3 0 0 .1 0 .2-.2.1.3.3.4.1.5.3h-.3c.2 0 .5.1.6.3-.1 0-.1.1-.1 0 .3.3.8.2 1.1.6-.3.3.1.2-.1.5 0 0 .3.1.3 0v-.2c.2.1.5 0 .6.1l-.2.1.4.1-.2-.2c.3-.1.1-.4.4-.2-.1 0 .2.1.2.3.1-.1.2-.2.4-.1 0 .1-.1.4-.1.4.2-.3.5 0 .7-.3 0 .1-.1.3-.1.3l.1-.2c.1.1.1.1.1.3.3 0-.1-.4.3-.3 0 0 0 .1-.1.1.3.1.7-.2 1-.1.1.2 0 .2 0 .2-.1 0-.1.1-.1.2.1 0 .2-.1.2-.1 0-.1.1-.1.2-.1.2-.1.5-.1.7 0h-.1c.1-.5.3.3.5 0-.1 0-.1.3-.1.2.3.1.6-.2 1-.4v.1c.2.1.5 0 .7-.1 0-.1.1-.2 0-.3.4.2.6 0 .8-.2.2-.2.3-.5.7-.4 0 0-.1.2 0 .1l.3-.4c-.2-.1-.1-.1-.3-.1 0-.1 0-.3.1-.3 0 .2.2.3.4.3-.1 0-.1-.1-.1-.2.4.1-.3-.3.1-.4l.1.1c0-.1 0-.3.1-.4.2.1 0 .2.1.3.1-.1-.1-.6.2-.5 0 .1-.1.2-.1.3.3.1.3 0 .4-.1 0 0 .3-.1.3-.2h-.1c-.4-.6.2-.4 0-.9.2.4.2.2.4.3.1 0 .2-.1.3 0-.1-.2.3-.1.1-.5.1 0 .1-.1.3 0 0-.2-.2 0-.3-.1-.2-.4.6-.5.4-1-.1-.4-.3-.5-.4-.8v-.1c.1 0 .3.2.3.2.2-.1.2-.3.1-.5h.3c0-.1-.3-.1-.1-.3.1 0 .2.1.3.2 0-.2-.2-.3-.3-.5.2 0 .2.1.3.2-.1-.2-.1-.5-.3-.6l-.1.1c0-.1.2 0 .3 0 .2.2-.1.2-.2.2v-.1c-.5.1.1.4 0 .7l-.3-.1c.1-.5.1-1.1.1-1.6h.4s-.1 0 0 .1h.3-.6c.2 0 .4-.1.5-.3l-.3-.2.2-.1v.2c.2-.1 0-.2-.1-.3.1 0 .2-.1.2-.1l-.4-.2zm-2.1-9.2c.1.1.1.1 0 0 .1.1.1.1 0 0zm-.1-.4c0 .1 0 .1.1.2-.1 0-.2.1-.2 0 0 0 0-.1.1-.2zm-1.6 17.1c0-.1-.1-.1-.1-.2 0 0 .1 0 .1-.1.1.2.1.2 0 .3zm2.9-3.4h-.2c0-.1 0-.1.1-.2 0 0 0 .1.1.2zm.3-1.2h-.3v-.2l.3.2zM389.3 306.8v.1l.1-.1zM393.9 327.7c0-.1 0-.1 0 0z"/><path d="M381.8 327.6c0-.1 0-.1 0 0-.1-.2 0-.1 0 0zM385.3 330.3c-.1 0-.1.1-.2.1.1 0 .1 0 .2-.1zM381.3 323.1zM385.1 330.3c-.1 0-.1-.1-.2-.1.1.2.1.2.2.1zM395.2 324zM395.1 323.8l.1.1-.1-.1zM394.9 325.6c0-.1.3-.2.2-.3h-.1c.2 0-.2.1-.1.3zM387.2 330.8l.1-.2h-.2zM428.1 315.7c-.3 0-.2-.1-.6-.1-.1-.1.1-.2.2-.2-.1 0 0-.1-.2-.1-.2.2-.2.3.1.4-.1 0-.1 0-.2.1.2.1.5.1.7-.1zM428.4 316.7c0-.1 0-.1 0 0 0-.1 0 0 0 0zM426.1 308.9l-.2.2c.2-.1.3 0 .2-.2zM428.4 316.7h-.1.1zM416.5 325.9c-.1-.1-.1-.2-.1-.3-.1 0 .1.3.1.3zM415.9 324.7c.1-.1.1-.2.1-.2h-.1v.2z"/><path d="M429 321.5c-.2 0-.1.1-.3.1-.1-.1-.2-.2-.2-.3.1.2.3 0 .5-.1h-.2c.4-.2-.4 0-.2-.3h.1c-.1-.1-.2-.2-.2-.3.2-.1.1.1.3.1 0-.2-.5-.3-.3-.5.1.1.1.2.2.2.3-.2.2-.2.2-.3l.1-.3v.2c-.7-.1-.2-.4-.6-.6.4.2.2 0 .5 0 .1-.1.1-.2.2-.2-.2-.1.1-.3-.2-.4.1 0 0-.1.2-.2-.1-.2-.1.1-.3.1-.4-.2.2-.7-.3-1-.2-.2-.5-.3-.7-.5v-.1c.1-.1.3 0 .3 0 .1-.2 0-.3-.1-.4.1 0 .1 0 .2-.1-.1-.1-.3 0-.3-.2h.4c-.1-.1-.3-.2-.4-.3.1-.1.3 0 .4 0-.1-.1-.3-.4-.5-.4l-.1.1c0-.1.2-.1.3-.1.2.1 0 .2-.1.3l-.1-.1c-.5.2.2.4.2.6h-.3c-.1-.5-.3-1-.4-1.5.1 0 .3-.1.4-.1 0 0-.1 0 0 .1h.3l-.1-.1c.2-.1.3-.2.4-.4l-.3-.2.2-.1.1.2c.2-.2 0-.2-.2-.2.1-.1.2-.1.2-.2l-.5-.1c.2-.1.4 0 .4-.2-.2 0-.3.2-.5.1.2-.2.3-.2.1-.3.1-.1.2 0 .2 0-.2-.1-.1-.3-.4-.3.2-.2-.2-.4.2-.5-.1 0-.4-.1-.4-.2.5 0-.1-.4.4-.5-.5 0-.4-.4-.7-.6h.1c0-.2.1-.2.1-.4-.3.1-.5-.1-.8-.1.3-.3.4 0 .7-.2-.3.1-.4-.2-.6 0l.3-.3c-.4.1-.1-.1-.4-.1.1-.3.4-.2.2-.4.1-.1.3 0 .3 0-.1-.2-.4 0-.6.1-.2-.2.2-.2.3-.4-.1-.1-.5-.1-.5-.2l.1-.1c-.3-.1-.2-.5-.6-.5l.1-.1c-.1.1-.3.2-.4.2 0-.1-.3-.1-.1-.2 0 .1.1 0 .2 0l-.1-.1c.3-.2.2.1.4 0-.2-.1-.5-.3-.5-.4.3-.2.2.3.4 0v.3c.4-.4 0 .1.5-.2 0-.3-.3-.3-.3-.6-.2 0-.2.1-.4.1-.5-.3.6-.6.1-.8-.2 0-.6.1-.5-.2l.4-.1c-.1-.3-.5.1-.5-.3.2 0 .2.2.2.1.2-.3-.2 0-.3-.2l.3-.2-.9-.9c.1 0 .2 0 .2-.2-.2-.2-.4-.4-.6-.7-.2-.2-.4-.5-.7-.7l-.3.1v-.2c-.2-.2-.1.2-.2.2s-.1-.2 0-.3c-.5 0-1.2.2-1.5-.1l.1-.1c-.3-.1-.3.6-.6.3v-.1c-.7-.1-1.2.4-1.9.2.1.4-.7.2-.4.6-.4 0-.4-.2-1 0-.1.1.1.4 0 .6l-.2-.2.1.4-.3-.1v.2h.2c0 .3-.5.4-.7.3 0 0 0 .2-.1.3v.3c-.1-.1-.1-.2-.1-.3.1.4-.3-.1-.2.3.1 0 .1.1.2.1-.2.1-.3.4-.3.7l-.2-.1c-.2.5 0 1.1 0 1.4.1-.1.4-.1.5 0h-.3c.2.1.1-.1.3 0 0 .2-.3.1-.4 0l.1.2h-.3c.2.1-.3.3 0 .4h-.1c0 .4.1.6.1.9.3 0 .2.1.4.2-.1.2-.3.5-.3.8.1.2.2.1.4.2-.2 0-.2.3-.4.2 0 .4 0 .4.2.9.1 0 .1-.1.2-.1 0 .1-.1.2-.2.2.4.5-.7 1.1-.2 1.5l.3.4c0 .2-.2-.1-.3 0 .4.4-.1.7.2 1.1-.7.3 0 1-.4 1.4h.2c.2.1-.1.1-.1.2.1 0 .2-.1.2 0 .2.8-.3 1.7-.4 2.6 0 .3.9.2.5.6l-.3-.1c.4.6 0 1.3.3 1.9-.1 0-.2 0-.2-.1-.2.1 0 .5.2.5 0 .1-.2 0-.3.1-.1.2.3.4.1.5 0 0-.1 0-.1-.1.1.1 0 .5.3.4-.1.3.2.5.1.8.3.1.1.5.5.4-.4.2 0 .7.2.7-.1 0 0 .2-.2.3.2.2.3.3.5.1 0 .3.2.4.4.5.2.1.4.1.3.4.7.2 1.3.3 1.8.3-.1.4-.6-.1-.7.3.6 0 .9-.3 1.4-.1.1.1-.1.2-.1.2.3-.1.5 0 .8 0H421.3s.1-.1.2-.1c0 0 0 .1-.1.1 0 0 0 .1.1-.1 0-.3.3-.5.4-.6-.3.5.3.3-.1.9.1 0 .2-.1.2-.2.1.1.1.1 0 .3.3 0 .3-.2.5-.2 0 .1-.1.1-.1.2.2-.1.3-.3.6-.2 0 .1 0 .1-.1.1.4 0 .7-.4 1.1-.3-.1.4.2.1.2.5l.2-.1-.1-.2c.2 0 .3-.3.5-.2l-.1.2.4-.1-.2-.1c.2-.2-.1-.4.2-.4 0 0 .2 0 .3.1.1-.1.1-.3.3-.2.1.1.1.4.2.4 0-.3.4-.3.4-.6 0 .1.1.2.1.3v-.2c.1 0 .1 0 .2.2.3-.1-.3-.3.1-.3v.1c.3-.1.4-.5.7-.6.3.2-.1.2.1.4.2-.2.3-.4.4-.6l.3-.6h-.1c-.4-.3.4-.1.3-.4 0 .1.2.2.2.2.2-.2.2-.6.2-1l.1.1c.2-.1.2-.4.3-.6-.1-.1-.1-.2-.3-.2.4-.2.4-.5.3-.7-.1-.3-.2-.5.1-.7 0 .1.1.1.1.1v-.2c-.4.3-.4.2-.4.2zm-.8-3.4l-.2.1v-.2s.1 0 .2.1zm-.2-1.2c-.1 0-.1.1-.2.1 0-.1 0-.1-.1-.2l.3.1zm-3.8-11.2c0 .1.1.1 0 0 .1.1 0 .1 0 0zm-.3-.4c0 .1.1.1.1.2-.1.1-.1.1-.2.1.1 0 .1-.1.1-.3zm4.5 17.1v-.1c.1 0 .2.1.2.2-.1-.1-.2-.1-.2-.1zM417.2 305.3h.1zM429 319.4h-.1.1zM421.1 327.5c0 .1 0 .1 0 0zM425 327c0 .1-.1.1-.1.2.1 0 .1 0 .1-.2zM416.5 325.9zM424.9 327.2c-.1 0-.1 0-.2.1.1 0 .1-.1.2-.1zM428.3 315.9s-.1 0 0 0z"/><path d="M428.1 315.8c.1.1.1 0 0 0zM428.5 317.3c0-.1.1-.2.1-.3h-.1c.2 0-.1.3 0 .3zM426.7 326.5h.1v-.2zM453.1 305.7c-.1-.1 0-.2.1-.2-.1 0 0-.1-.2-.1-.1.2-.1.3.1.3 0 .1-.1.1-.1.1.2 0 .5 0 .7-.2-.4.1-.2.1-.6.1zM454.1 306.5h-.1.1zM446.9 303.2c.1 0 .1.1.2.2-.1-.2.1-.4-.2-.2zM454.1 306.6h-.1.1zM453.3 325.2l-.2-.2v.1l.2.1z"/><path d="M457.5 320.3c0-.1-.1-.1-.3-.1 0-.1.1-.1.3 0-.1-.3-.3-.2-.3-.4.1 0 .1 0 .2.1-.2-.1-.4-.2-.3-.4h.1c0-.3-.5-.5-.4-.9.4.1.1-.1.5-.2l-.1-.2-.2.1c0-.2-.3-.3-.2-.5l.2.1-.1-.3-.1.2c-.2-.2-.4.1-.4-.2 0 0 0-.2.2-.3-.1-.1-.2-.1-.2-.3.1 0 .4 0 .5-.1-.3 0-.1-.4-.5-.5h.3-.2c.1-.1.1-.1.2-.1 0-.2-.4.1-.3-.2h.1c0-.3-.2-.5-.2-.8.3-.1.1.2.4.1-.1-.4-.6-.7-.6-1.1v.1c-.5 0 .2-.3-.1-.5h.2c0-.3-.2-.5-.5-.8h.1c.1-.2 0-.4 0-.6-.1 0-.1-.1-.3 0 .6-.7-.6-.8-.2-1.4 0 .1.1.1.1 0l-.2-.3c-.2.1-.1.1-.2.2-.1 0-.3-.1-.3-.2.2.1.3-.1.4-.2-.1 0-.1 0-.2.1.3-.3-.4.1-.3-.2h.1c-.1-.1-.3-.1-.3-.2.2-.1.1.1.3 0-.1-.1-.5-.1-.3-.3.1 0 .1.1.2.2.2-.2.2-.2.2-.4v-.3l-.1.1c-.7 0-.2-.3-.7-.4.5.1.2 0 .5-.1.1-.1.1-.2.2-.2-.3 0 .1-.3-.3-.3.1 0 0-.1.2-.2-.1-.1-.1.1-.2.1-.4-.1.2-.7-.4-.8-.3-.2-.5-.2-.8-.3v-.1c.1-.1.3 0 .3 0 .1-.2 0-.3-.2-.4.1 0 .1-.1.2-.1-.1-.1-.3.1-.3-.1h.4c-.1-.1-.3-.1-.5-.2.1-.1.3 0 .4 0-.1-.1-.3-.3-.5-.3v.1l.2-.1c.2 0 0 .2-.1.3l-.1-.1c-.4.3.2.3.3.5l-.3.1c-.2-.5-.4-.9-.6-1.4.1-.1.3-.1.4-.2v.1l.3-.1-.1-.1c.2-.1.3-.2.3-.5 0 0-.1 0-.2-.1-.1 0-.2-.1-.2-.1l.1-.2.1.2c.1-.2-.1-.2-.3-.2.1-.1.1-.2.1-.2h-.5c.1-.1.3-.1.3-.3-.2 0-.2.4-.4.3 0-.2.2-.3-.1-.3.1-.1.1-.1.2-.1-.2 0-.4-.2-.5-.1 0-.3-.4-.2-.2-.5-.1.1-.4.2-.5.1.4-.4-.4-.2-.2-.7-.3.3-.7 0-1 .2l.1-.1c-.2-.1-.2-.2-.3-.3-.1.4-.3.4-.5.6-.2-.4.1-.4.1-.8 0 .3-.4.3-.3.5-.2-.2-.1-.1-.2-.4 0 .5-.1.1-.2.4-.2-.2-.1-.4-.3-.2-.1-.1.1-.3.1-.3-.3 0-.1.4-.1.6-.3.1-.2-.2-.3-.4-.2.1-.2.5-.4.5 0-.1-.1-.1-.1-.1-.1.3-.6.2-.6.7 0 0-.1 0-.1-.1.1.1.2.3.3.4-.1 0-.1.3-.2.1.1 0 0-.1 0-.2v.1c-.3-.2.1-.2 0-.4-.2.2-.2.6-.4.6-.2-.2.3-.3-.1-.4l.3-.1c-.5-.3.2-.1-.3-.4-.4.2-.3.4-.6.6.1.2.2.2.3.4-.1.6-.9-.2-.8.4.1.2.4.4.1.6l-.3-.3c-.2.4.4.4 0 .7-.1-.1 0-.3-.1-.3-.4.1.1.2.1.4h-.3v.6c.1.2.1.4.1.5-.1 0-.2-.1-.3 0 .1.5-.1.9-.4 1.3l.3.2s-.1.1-.2 0c-.1.2.2 0 .3.1 0 .1-.2.1-.2 0 .2.3.4.9.1 1.1l-.1-.1c-.1.2.5.3.3.5-.2.5 0 1.1-.4 1.4.4.1-.2.5.3.6-.3.3-.4.2-.6.6 0 .1.3.2.4.3h-.3l.3.2h-.1s-.1-.1-.1 0h-.2s.1 0 .1.1c0-.1.1 0 .2 0 .1.1-.3.5-.4.5 0 0 0 .2.1.3.1.2.1.3.1.3-.1 0-.2-.1-.2-.2.3.3-.3.1 0 .4h.2c-.2.1-.2.4-.1.6h-.2c0 .3.1.7.1 1.1.1-.1.4-.1.5 0h-.5c.2.1.1-.1.3 0 0 .1-.3.1-.4 0l.1.2h-.3c.2.1-.3.3 0 .4h-.1c0 .4.1.5.1.8.3 0 .2.1.4.2-.1.2-.3.5-.3.7.1.2.2.1.4.2-.2 0-.2.3-.4.1 0 .3 0 .4.2.8.1 0 .1-.1.2-.1 0 .1-.1.2-.2.1.2.2 0 .6-.2.9-.1.3-.2.7.1.9l.2.2.2.2c.1.2-.2-.1-.3.2.3.2.4.4.5.6s.2.4.4.5c-.1.4.1.6.4.8.3.2.7.3.8.6v-.2c.2-.1.1.1.2.2 0-.1-.1-.2 0-.2 1 .2 2 .7 3.2.6.2 0 .2-.2.2-.4 0-.1 0-.2.1-.2h.1v.1s0 .3.1.3c0-.2.1-.3.1-.2 0 0 .1.1.1 0 .2.1.4.2.6.2-.1 0-.1.1-.2.1.1.3.6.2.7.1.1.1 0 .2 0 .3.1.2.5-.2.5.1l-.1.1c.1-.1.5.1.4-.2.3.1.6-.1.8 0 .1-.3.5.1.5-.3.1.4.6.2.7 0 0 .1.2.1.2.3.2-.1.3-.2.2-.4.3.1.4 0 .5-.2s.2-.3.4-.1c.4-.5.7-1 .9-1.5.3.3-.3.5 0 .8.1-.3.1-.5.2-.7 0-.2.1-.4.2-.6.1-.1.1.1.2.2.1-.5.4-1 .3-1.5l.1.1c0-.1.1-.2-.1-.2v.1c-.3.1-.5-.4-.7-.4.8 0 .4-.5 1-.3zm-2.2-8.5c-.1 0-.1.1-.2.1v-.1c.1-.1.2-.1.2 0zm-1.3-3.9l-.2.1c0-.1 0-.1-.1-.2.1.1.2.1.3.1zm-.4-1s-.1.1-.2.1c0-.1-.1-.1-.1-.2l.3.1zm-8.5-.1v-.1.1zm0 .2c.1 0 .2 0 .2.1-.1 0-.1.1-.2.1v-.2zM444 312.8h.1-.1zM454.9 309h-.1.1zM457.5 321c0 .2 0 .1 0 0z"/><path d="M456.6 317.3c.1 0 .1.1.1.1.1-.1.1-.1-.1-.1zM454.4 324.9z"/><path d="M456.8 317.5v-.2c0 .1-.1.2 0 .2zM453.8 305.9zM453.7 305.9c0-.1 0-.1 0 0zM454.3 307.2c0-.1.1-.2 0-.3h-.1c.2-.1-.1.2.1.3zM456.6 315.7l.2-.1h-.3z"/></g><g fill="#eb7e44"><path d="M503 476.9c.5-.3.9-1 1.1-2.6L503 472l.5-.9.3 2c.4-1.2-.2-1.9-.6-2.7.3-.2.5-.6.6-1.1l-1.5-2.2c.5-.4 1.1.9 1.2-.7-.7-1-1 1.2-1.6-.6.4-1.2 1-1 .3-2.2.3-.2.6 0 .8.5-.6-1.1-.6-3.2-1.4-3.7.6-1.3-.8-4 .5-4.1-.3-.3-1.3-2-1.5-3.1 1.8 1.8-.5-4.1 1.1-3.8-1.5-1.3-1.4-5.3-2.6-7.8.1.1.4.4.4.6-.1-1.5.2-2 .3-3-1.1 0-1.7-2.3-2.6-3.4.7-2 1.5.9 2.4.2-.9.2-1.4-3-2-2.3.4-1.5.1-1.2.9-2.1-1.4 0-.4-1.3-1.5-2.3.3-2.1 1.2-.7.4-2.9.2-1.1 1 .8 1 .8-.4-2.3-1.2-.9-1.8-1.3-.8-2.6.5-1.4.9-2.4-.6-1.6-1.7-2.7-1.9-4 .2-.1.2-.4.4-.1-1.1-1.6-1-5.2-2.4-7.1.1-.2.1-.3.2-.3-.4.4-1 .6-1.3.6-.2-1-1-1.7-.4-2.2.1.6.4.6.6.9l-.5-1c.8-1.1.6 1.4 1.3 1.2-.7-2-1.9-4.2-1.9-5.9.9-.5 1 3.6 1.4 1.4l.1 2.5c1.1-2.1.2 1.5 1.4-.5-.3-3.3-1.1-3.5-1.5-6.7-.7-.6-.7.4-1.4-.2-1.8-4.4 1.7-4-.2-7.1-.8-.7-2-.9-1.8-3.4l1.2.6c-.5-3.1-1.9-1.5-1.8-4.9.5.5.8 2.4.9 1.9.4-2.3-.9-1.4-1.2-3l.9-.5c-.8-3.3-2.2-6.8-3.1-10.4.3.1.7.7.8-.2-1.4-4.5-2.1-9.9-2.7-14.4l-1.2-1.5c-.1-.4.2-.8.4-.4-.2-1.8-.5 0-1.1-.7-.3-1 .1-1.4.5-.9-.7-1.4-1.7-3.5-2.5-5.6s-1.5-4.3-1.6-6l.4.5c-.5-2.6-2.5-2.2-2.6-4.7l.3.4c-.8-2.7-1.9-5.4-3-8-1-2.6-2-5-2.4-7.3-.7-.1-1.2-1.5-1.8-2.7-.6-1.3-1.3-2.4-2.1-2.1-.6-1.6-.7-2.3-1-3.1-.1-.4-.3-.8-.6-1.4-.3-.6-.8-1.3-1.6-2.4-.5-.5-1-.7-1.6-.8-.6-.2-1.3-.2-2-.7l.5-.7s-.2 0-.4-.1-.6-.1-.9-.2l-1.2-.2s-.1-.4-.3-.7c-.2-.4-.4-.7-.4-.7l-.8-.2c-.2-.1-.4-.1-.6-.1h-.3c.7.2 1.2.9 1 1.1-.3-.1-.6-.2-1-.3-.3-.1-.7-.2-1-.3-.7-.2-1.4-.5-2-.6-.6-.2-1.2-.4-1.6-.6s-.6-.3-.7-.4c0 0-.4.1-1 .1-.6.1-1.3.3-2.1.5-1.5.5-2.9 1.1-2.9 1.1 0-.2.4-.5.9-.8-.8.4-.9.3-1.1.1-.2-.2-.4-.4-1.7.6.5 0 0 .6 0 .7-.4.1-.9.2-1.4.4-.5.2-1.1.5-1.7.9-1.1.8-2.2 1.7-3 2.7l-.1-.8c-.7.6-1.2 1.2-1.8 1.9-.3.3-.5.7-.8 1 0 .1 0 .1-.1.2-.1.2-.2.5-.3.8l-.3-.3v1.2c-.1.4-.2.6-.4.4l.2-1.2c-.2.2-.2.4-.1.6 0 .2 0 .4-.4.4-.5-.8.3-1.2.5-1.4h-.2l-.4-.2c.1-.2.4-.2.6-.4h-.2s-.1 0-.1-.1l-.1-.1c-.3-.3-.6-.8-.9-1.2-.7-.8-1.5-1.7-2.4-1.7v-.3c-4.6-3-9.2-2.6-13-.7.3.7-1.3 1.3-1.9 2.5-2.5 1.3-5.3 3.1-7.4 5.7-.6 1-.5 1.3-.4 1.4s.2.1.2.2c.1.1.1.2.1.4-.3-.2-.7.1-.9.1-.2.1-.3 0-.3-.4-.2.5-.4.8-.6 1.3-.2-.1-.4-.2-1.1-.7 0 .4.1.8-.1.9-.2-.1-.3-.4-.4-.7-.1-.3 0-.5.1-.6h.1c-.1 0-.2-.1-.2-.1l-.1-.1-.2-.2c-.3-.2-.6-.5-.8-.8-.6-.5-1.1-1.1-1.7-1.6-1.1-1.1-2.4-2.2-3.8-3.2-1.4-.9-3-1.7-4.6-2.1-.8-.2-1.6-.3-2.3-.3-.7 0-1.4.1-2.1.3l.3-.1s-.3 0-.8.2c-.5.1-1.1.2-1.7.5-.6.2-1.2.4-1.6.6s-.7.3-.7.3c-2.2.5 1.2-.9-.6-.9-.6.3-1.2.6-1.7.9l-1.5.9c-.5.3-1 .5-1.4.8-.5.3-.9.5-1.3.8-1.7 1-3.3 2.2-4.4 4.1-1 .3-1.9 1.1-2.8 2.1-.8 1.1-1.6 2.4-2.2 3.8-1.3 2.8-2.2 5.8-3.4 7.6l.5-.1c.1 1.2-.7 1.2-1 1.9.4 0 .7-1 .8-.3-1 4.5-2 9-2.9 13.6-.9 4.5-1.8 9.1-2.4 13.7-.3 3.3 2.4 2 1.1 6.1l-.9-1.2c.8 6.7-.4 13.7.5 20.2-.2-.4-.5-.4-.5-1-.7 1.4 0 5.1.6 5.1-.1 1-.5.2-.8.9-.4 1.4.9 3.4.2 4.2-.1.1-.1-.1-.2-.3.2 1.2 0 3.8.7 3-.3 2.5.5 4.7.1 6.6.9 1.2-.3 4.2 1 4.6-1.3-.1-.8 4.3-.1 5.8-.4-.5-.3 1.4-.9.8.1 1.8.5 3.4 1.1 3-1.3 3.4 1.7 6.4-.1 8.4 1.1 5.2 2 9.9 2.8 14.6-1.3 0-.7-5.2-2-4.8 1 4.4 2.3 6.8 2.6 11.3 0 1.2-.6-.6-.9-.9 1.1 4.4 1 8.6 2.2 12.4-.1 0-.3-.4-.5-.8.2.8.1 1.8.6 1.7l-.3-.7c.6-1.4 2.2 2.8 2.6 2.9-1.8-1.1.2 3.9-2.2 2.2.2.5.6 1.1.9.9 0 .8-.2 1-.7.4.7 2.7 1.2 1.6 1.6 4.1-.3 0-.5-.5-.8-.7.7 1.2 1.5 2.4 1.6 4.5-.2-.1-.3.1-.4-.2.8 3.5 2.5 5.8 2.7 9.7-1.4-.9-.1 1.4-1.1 1.8l.7 2.1.3-1c.4 1.9 1.4 3.4 1.4 5l-.7-1.3.9 3.3V498.5v.3-1.9c.8 1.6 1.2-.1 1.4 1.6v.5c-.1-.2-.1.1.1.6v-.1c.1.4.2.9.4 1.4.2.5.5 1 .7 1.4.6.3 1.3.3 1.9.4.7 0 1.3 0 2.1-.1.2.1.3.4.2.7v.3h.3-.3c0 .2 0 .3.1.4.1-.1.3-.3.5-.4 1.5 0 3.5.4 4.4-.1-.4.2-.5.7-.4.8l.9-.6c.8.3 1 .5.8.9 2.6.4-.7-1.4 2.4-.5-.3 0-.1.1-.7.2 1.6.3 3.1.3 4.6.4 1.5 0 3 0 4.4.3.8 1.1-2.6.1-1.6 1 4.2.1 8.8-.8 12.8-.5l-.8-.1c.6-1.5 3 .8 5.1 0-.5.1-.7.8-.5.7 2.8.2 5.7-.5 9.9-1.1l-.5.4c1.7.3 4.3-.1 6.1 0 .5-.4 1.5-.4.9-.9 5.6 1.8 10.2-2.1 15.2-.9-.6.1-1.3.5-.9.4l4-.9c-.4-.6-.6-.3-1.5-.7.5-.4 1.6-.9 2.6-1-1.8.7.2 1 1 1.3-.2-.2.1-.4 0-.6 2.3.8.2-1.3 3.2-1l-.1.4c1.1-.3 2-.9 3.2-1 .6.7-1.1.5-1.1 1.1 1.6-.3 3-1.9 4.6-1.4-.7.3-1.7.5-2.3.8 1.8.6 1.9.4 3.1.3h-.1l2.8-.1-.7-.1c1.7-2.3 4.1-1 6.7-2.8-2.5 1.7-.3.8-.4 1.6.7.1 1.9.2 1.6.5 1.2-.9 2.3.1 3.9-1.2.1.3 1.4-.2 1.2.5 1.7-.5-.5-.4-.4-.8 2.4-1.4 6.3 0 9.8-2 2.9-1 3.5-2 5.8-2.9.3-.1.6-.1.9-.2.3.1.1.4-.1.6-.3.3-.7.5-.7.5 1.7 0 3-.4 4.4-1.3-.2.3.2.4.8.5 1.2-.7.4-1.2 2.1-1.8-.1.4-.2 1.1-.6 1.7 1.4-1.1 2.4-2.6 3.3-4 .7-.1-.1 1.3-.4 1.9.7-.8 1.4-1.9 1.8-3s.5-2 .2-2.4c0 0-.3.5-.5.8.2-.2.6.3.5.7-.1.9-.5 1.4-.9 1.7-.4.2-.7.2-.9.2 0 0 .1-.3.3-.5.1-.3.2-.5.2-.5-1 .1-1.5 1-2.3 2-.7 1-1.8 2.2-2.9 2.6 0 0 .1-.4.2-.7 0-.2.1-.3.1-.5.9-.5 1.7-1 2.5-1.7 3.6-3.4 3.8-8.2 3.2-12.8v-.2c.4.1.9.2 1.3.1-.1.2-.1.4 0 .7l1 .5s-.1-.3-.2-.7c.4-.9.3-1.3.3-1.3zm-16.9-101.5c.1.4.2.8.3 1.1-.1-.2-.1-.5-.3-1.1zm-1-4.3c.1.5.2 1.2.4 1.9-.2.2-.5.1-.6-.3.2.1.2-.9.2-1.6zm-47.3 131.5c-.1-.2-.1-.4-.1-.7.5-.1 1-.1 1.5-.2-.1.4-.5.7-1.4.9zm44.4-6.9l-.7-.5 1.8-.3c-.1.1-.4.4-1.1.8zm12.5-3.3c-.4.5-.9.9-.9.9-.4-.1-.7-.3-.7-.6.7-.2 1.4-.5 2-.8 0 .1-.2.3-.4.5z"/><path d="M502.7 480.8c-.2-.3.2-1.4-.4-1.9-.6 1.2-.6 2.6-.2 4.1-.2.3-.4 0-.6-.1.3 1 .8 2.5 1.8 2-.6-1.3-.2-1.5-1.2-2.7-.2-.9.2-1.6.6-1.4zM496 494.1c.3-.2.5-.4.7-.6-.2.2-.5.3-.7.5v.1zM502.1 456.5h-.1c0 .1.1.1.1 0zM495.5 494.2c-.2.1-.5.2-.8.3.4-.1.6-.2.8-.3zM493.7 412.2c.5-.3 1.1 1.8.6-.8-.2.3-.4.6-.6.8zM495.8 493.7c0 .2-.1.4-.3.5.2-.1.3-.2.5-.3 0-.1-.1-.2-.2-.2zM360.9 420.4V418c-.1.6-.1 1.5 0 2.4zM456 310.2l.7.1c-.2-.1-.5-.1-.7-.1zM360.4 410.8c.3-.4.4-.9.5-1.4-.1-.1-.1-.2-.2-.3l-.3 1.7zM360.2 399.8c0-.1 0-.2-.1-.3 0 .1 0 .2.1.3zM446.5 310.1c.2-.1.5-.2.8-.4-.2.2-.5.3-.8.4zM376.2 502zM380.1 503.2h.3-.3zM500.9 487l.2-.2c-.1 0-.1 0-.2.2zM369.2 478.8c0-.1 0-.2-.1-.2.1.1.1.1.1.2zM461.7 312.5l-.1.2.5.1zM449.1 502.1c.1.1.2.1.3.2.1-.1-.1-.1-.3-.2zM459.7 500.7h1.5-1.5zM467.9 499.8c.1-.2.1-.3.1-.4l-.1.4zM366.2 463.8c0-.1 0-.2-.1-.3-.2-.7-.1-.3.1.3zM374.7 500.9c.4.9 1.2 1.5 1.5 1.1-.6-.3-1.1-.6-1.5-1.1zM360.9 420.6v-.3.3zM374.2 499.4c.1 0 .1.1 0 0v.2-.2zM374.1 499.6c0-.1 0-.1-.1-.2l.1.2z"/><path d="M374 498.6c0 .4.1.7.1.9.1.5.3.9.6 1.3-.2-.4-.3-.9-.5-1.4 0-.2-.1-.5-.2-.8zM502.6 487.6c-.1 0-.1-.1-.1-.1l-.1.5.2-.4zM502.5 487.3v-.3c-.1.2-.2.4-.1.5.1 0 .1-.1.1-.2zM502.7 486.5c0 .3-.1.6-.1.6.1-.4.3-.8.2-1.1 0-.1-.1.2-.1.5zM492.1 495.5c.1-.1.1-.2.1-.3l-.1.3zM488.9 496c.8-.1 2.1.2 3.2-.3l.1-.2c-.5.5-2.7-.1-3.3.5zM394.4 505.3l.5-.6-1.6.1z"/></g><path d="M426.8 377.5c.1.1 0 .3 0 .4.4-.3.8-.9.5-1.4-.4.6-.5.4-.8 1.1-.3.1-.6-.2-.6-.4-.1.2-.5-.1-.7.3.5.4 1 .4 1.6 0zM431.3 376.1c-.1 0-.2.1-.3.2.1 0 .2 0 .3-.2 0 .1 0 .1 0 0zM416.4 376.2c0 .1 0 .1 0 0 0 .1 0 0 0 0zM431.4 376.2h.3-.3zM398.4 378.8c.2.1.3.3.3.4-.1-.3.8-.6-.3-.4z" fill="#db5d43"/><path d="M431.3 376.4c0-.1.1-.2.2-.2h-.2c-.1.1-.1.2 0 .2zM419 416.1l-.9.2c.2 0 .6-.1.9-.2zM360.3 396.2c0 .1 0 .2.1.2l-.1-.2zM415.4 417.1c-.2-.1-.4-.2-.6-.2 0 0-.1.1-.1.2h.7z" fill="#db5d43"/><path d="M387.6 422.5c-.1-.3-.5-.2-.2-.5 3.4-.8 7.2-.5 10.7-.8 1.3-.1.4-1.8 2.2-1.3l-.3.7c2.4-1.2 5.3-1 7.7-2.2-.1.2-.1.4-.3.4.6.3 2-.4 1.9-.8.4 0 .2.3.4.4.6.1 1.2-.9 1.6-.5.1.1-.1.2-.2.2.3-.3 1.6-.3 1.2-.8 1 0 1.7-.7 2.6-.6.3-.7 1.7-.2 1.6-1 .2.8 1.8.2 2.3-.3-.1.3.6.1.5.5.7-.2 1.2-.5 1-.9 1.5.6 2.2-1.5 3.3-.5 1.8-1 3.6-1.9 5.2-2.7.2.8-1.9.7-1.6 1.5 1.6-.9 2.3-1.9 4-2.3.5 0-.1.4-.2.6 1.5-.9 3.2-1.1 4.5-2.1 0 .1-.1.2-.2.3.3-.1.7-.1.5-.5l-.2.2c-.7-.3.7-1.5.7-1.8-.1 1.2 1.5-.3 1.3 1.3.2-.1.3-.4.2-.6.3 0 .5.1.3.4 1-.6.4-.8 1.4-1.2.1.2-.1.3-.1.6.3-.5.7-1.1 1.5-1.2 0 .1.1.2-.1.3 1.3-.6 1.9-1.9 3.5-2.2-.1.9.6 0 1 .6l.7-.6-.5-.2c.7-.3 1.1-1.1 1.8-1.2l-.4.5.6-.4.6-.4-.8.2c.5-.7-.5-.7.5-1.1-.1.2.7-.4 1.2-.2.2-.4.4-.8 1-1 .2.1.3.7.5.8 0-.7 1.4-1.2 1.4-2 0 .2.2.5.3.5l-.1-.6c.4-.1.5-.1.6.2.9-.7-.8-.4.4-1 0 .1 0 .1-.1.3 1.1-.7 1.6-2 2.4-2.8.8.1-.5 1 .2 1 .5-.8.9-1.7 1.1-2.6.1-.5.3-.9.4-1.3s.2-.9.4-1.3l-.2.3c-.4-.2-.3-.5 0-.8s.6-.8.4-1.3c0 .2.5.3.4.3.2-.6.1-1.2 0-1.9-.2-.7-.4-1.4-.7-2.3l.3.2c.1-.4 0-.8-.1-1.3-.1-.2-.1-.5-.2-.7s-.2-.4-.2-.6c-.3-.1-.5-.5-.7-.1.1-1.4-.8-2.3-1.7-2.9-.9-.6-1.9-1-2.4-2 .2.1.6.1.5 0 0 0-.1 0-.3-.1-.2-.1-.4-.1-.6-.2s-.4-.2-.6-.2-.3-.1-.3-.1c-.1.4.1.3.2.8-.3.1-.8.1-1.2-.1.8 0 .3-.6.1-1 0 .1-.2.2-.2.4-.5-1-.5.8-1.4-.1l.1-.2c-.5 0-.9.1-1.4-.1-.1-.5.5-.1.7-.5-.7-.2-1.5.6-2-.1.3-.1.7 0 1 0-.5-.7-.6-.6-1.1-.8l-1.1-.5.3.2c-1.1 1.1-1.7-.1-2.9.6 1.2-.7.2-.4.4-1-.3-.2-.7-.4-.5-.6-.6.4-.9-.5-1.7.2 0-.2-.6-.1-.4-.5-.7.1.1.3.1.6-1.1.5-2.5-.9-4-.1-1.2.3-1.5.9-2.5 1.2h-.3c-.2-.3.4-.6.4-.6-.7-.3-1.2-.2-1.8 0 .1-.2 0-.3-.2-.5-.5.1-.3.7-1 .4.1-.2.2-.5.5-.8-.6.2-1.1.6-1.7.8-.2-.3.3-.5.5-.7-.7.2-1.7.4-1.9.9l.4.2c-.2 0-.2-.4 0-.5.6-.4.8.1.9.3l-.4.1c.5 1 1.7-.3 2.6-.2l-.3.6c-2.5.1-4.8.3-6.6.4h-.1c0-.3.1-.6.1-.9.1.1.1.1.3.1l.2-.6-.5.2c-.1-.4-.4-.7-1-.9l-.9.6-.3-.4.8-.1c-.5-.4-.8 0-1.1.3-.1-.2-.2-.4-.4-.4l-.9.9c-.1-.3.4-.7-.3-.8-.4.4.5.7-.2 1-.5-.4-.4-.7-.9-.3-.1-.2 0-.4.2-.5-.5.3-1.3.2-1.5.7-.5-.4-1.6.3-1.6-.6-.1.2-.8.7-1.2.8.7-1.1-1.6.1-1.5-1-.5.9-2.1.6-3.1 1.2.1-.1.1-.2.2-.2-.6 0-.8-.2-1.2-.4 0 .7-.9 1-1.3 1.5-.8-.6.3-.9 0-1.5.1.6-1.2.7-.9 1.2-.6-.4-.5-.1-.9-.7 0 .9-.5.2-.9.8-.9-.3-.3-.8-1.2-.4-.5-.2.3-.6.3-.6-.9.1-.3.7-.5 1.1-1 .4-.6-.4-1-.7-.6.3-1.1 1-1.6 1-.1-.1-.2-.1-.1-.3-.6.6-2.1.4-2.8 1.2-.1-.1-.1-.1-.1-.2.2.3.3.7.3.9-.4.1-.7.5-.9.1.2 0 .2-.2.3-.4l-.4.3c-.5-.6.5-.3.4-.8-.8.3-1.6 1-2.3 1-.2-.6 1.4-.5.5-.9l1 .1c-.9-.9.6 0-.3-1-1.3 0-1.4.6-2.7.6-.2.4.2.5 0 .9-1.7 1-1.7-1.3-2.9-.2-.3.5-.2 1.3-1.3 1.1l.2-.8c-1.2.2-.5 1.2-1.9.9.2-.3.9-.4.7-.5-.9-.4-.5.5-1.1.7l-.3-.6c-1.3.4-2.6 1.1-4 1.6 0-.2.2-.5-.1-.6-1.7.7-3.9.9-5.7.9l-.5.7c-.2 0-.3-.2-.2-.3-.7 0 .1.3-.2.6-.4.1-.6-.2-.4-.4-.5.4-1.3.8-2.1 1.2-.4.2-.8.3-1.2.4-.2 0-.4.1-.6.1h-.3s-.1 0-.1-.1v-.2c-.1 0-.1.1-.2.2 0 .1-.1.2-.1.2s0 .1-.1.1-.1.1-.2.1c-.3.1-.6.1-1.1 0l.2-.1c-.8 0-1.6.3-2.2.6-.5.2-.9.5-1.4.7-1 .5-2 .9-3 1.1.1.4-.5.7-1 1-.5.4-1 .8-.6 1.2-.7.4-1 .5-1.4.8-.3.2-.8.6-1.3 1.7-.2.6.4 1.1.4 1.7l-.6-.1.5 1-.4.2-.4.2.1.6c0-.2.3-.5.4-.5.2.9-.4 2.3-.7 2.3 0 0 .2.5.3 1.1l.4 1c-.2 0-.4-.4-.5-.6.7 1-.6.3.1 1.2.1-.1.3 0 .5 0-.3.5-.1 1.7.1 2.4l-.4-.1c0 .7.2 1.4.3 2.1.1.7.2 1.5.2 2.4.2-.6.9-.5.9 0l-.6.2c.4.3.2-.5.7.1-.1.6-.7.4-.9.1l.2.8c-.2 0-.3-.1-.5-.2.4.3-.6 1.4.1 1.8l-.2.1c.1 1.7.3 2.5.5 4 .5 0 .5.6 1 .9 0 1.1-.1 2.4.6 3.8.7.8.5.1 1 .3-.2.1-.1.5 0 .8s.2.5-.2.3c.6.8 1.1 1.2 1.7 1.6s1.4.7 2.7.8c-.2-.3-.5-.4-.3-.5.4 0 .9.4.8.6h-.1c.6-.1 1-.1 1.6-.1.3 0 .6 0 .9-.1l.5-.1h.2c.1 0 .1.1.2.1l.5.1c.4.1.7.1 1 .2.7.1 1.3 0 1.8-.3l-.1.1 1.7-.6c.8 0-.4.4.2.6 1.8-.9 2.9-.1 4.4-.7 1.3 1.3 4.1-.5 5.8.2l-.1-.3c.6.8.7 1.3 1 1.4zm66-40.7l-.3.3c-.1-.1-.3-.2-.4-.4.1-.1.3-.1.7.1zm-17.1-4.6l.2.4h-.7c.1-.1.3-.2.5-.4zm-4.6 0c.1.1.2.3.2.5h-.8l.6-.5zm-47.1 5.2c-.1 0-.2.1-.4.1.1-.1.3-.1.4-.1zm-1.4.4c.1.2.1.4-.1.4.1-.1-.4-.1-.7-.2.2-.1.5-.2.8-.2z" fill="#db5d43"/><path fill="#db5d43" d="M360.2 394.1l.2.1-.1-.3zM449.9 378.9c0-.1 0-.1-.1-.2 0 0 0 .1.1.2zM445.8 377.5l-.6-.3.6.3zM442.5 376.7c-.1.1-.1.2-.1.2l.1-.2zM435.2 410.1s-.1 0-.1.1c-.3.1-.1 0 .1-.1zM448.7 402.6c-.1.2-.2.3-.3.5.2-.1.4-.2.3-.5zM419.1 416.1h-.1.1zM448.4 403.1c-.2.1-.5.2-.6.4.2-.1.4-.3.6-.4zM428.2 376.2c0 .1 0 .1 0 0h.2-.2zM428 376.4c.1 0 .1 0 .2-.1l-.2.1zM427.7 376.5l.4-.2c-.2.1-.3.1-.4.2zM434 376.2c-.3 0-.8-.4-1.2-.3v.2c.1-.3.9.4 1.2.1zM454.8 398.4l-.2-.4-.3.6zM496.5 433.5c.4.4 1.1.7 1.5.3-.7-.3-.5-.4-1.3-.7-.2-.4 0-.7.2-.7-.2-.1-.1-.6-.5-.7-.3.6-.1 1.3.5 1.8 0 0-.2-.1-.4 0zM499.4 438.2c-.1-.1-.1-.2-.2-.3 0 .1.1.2.2.3zM488.8 423.4c0 .1 0 .1 0 0 .1 0 .1 0 0 0zM499.4 438.4c0 .1.1.2.1.3 0-.1 0-.2-.1-.3zM470.1 431.7c-.2-.3.7-.7-.4-.4l.4.4zM499.4 438.4c0-.1-.1-.1-.1-.2-.1 0-.2 0-.2.1.2 0 .3 0 .3.1zM435.2 477.2h-1.1c.3.1.7.1 1.1 0zM430.8 477.6c-.2-.2-.4-.3-.7-.3l-.1.1.8.2z"/><path d="M501.9 462.5c0-.2 0-.4-.1-.7-.1-.5-.1-1-.1-1-.4.1-.3.2-.6.6-.3-.2-.4-.8-.4-1.2.3.8.7 0 .9-.4-.1.1-.3-.1-.4 0 .8-1-.9-.2-.4-1.5l.2.1c-.1-.5-.4-1-.4-1.5.5-.2.3.5.7.5 0-.8-1-1.5-.5-2.2.2.3.2.8.3 1.1.5-.8.4-.9.5-1.4v.1s0-.3.1-.7c0-.3.1-.7.1-.7l-.1.3c-1.4-.9-.4-1.9-1.4-3.1.9 1.2.5.2 1.1.2.1-.3.2-.9.4-.7-.5-.6.2-1.1-.5-1.8.2-.1-.1-.7.4-.6-.3-.8-.3.2-.5.2-.8-1.1.3-3-.8-4.6-.6-1.3-1.2-1.6-1.8-2.7 0-.1 0-.2-.1-.3.2-.3.7.3.7.3.1-.8-.1-1.4-.5-2 .2.1.3-.1.4-.3-.2-.6-.7-.2-.7-1 .2.1.6.2.9.4-.3-.6-.8-1.2-1.2-1.8.3-.3.6.3.8.5-.4-.7-.8-1.9-1.4-2v.5c-.1-.3.4-.3.5-.1.6.5.1 1-.1 1.1l-.3-.5c-.9.8.7 1.9.9 2.9l-.7-.2c-.6-2.5-1.4-4.9-2.2-7.4v-.1c.3-.1.6-.1.9-.2v.3l.7.1-.4-.5c.1-.1.3-.2.3-.5v-.6c0-.1-.1-.3 0-.3 0 0 0-.1.1-.1h-.2c-.1 0-.1 0-.2-.1h-.1l-.1-.1.3-.6s0 .1.1.2c0 .1 0 .3.1.5v.1c.4 0 0-.8-.4-1.2.2-.2.2-.5.2-.8l-.2-.2c-.1-.1-.3-.2-.5-.4l-.8-.4c.1-.4 1 .2.4-.8-.4-.2-.4.1-.5.3-.1.2-.1.3-.6 0-.3-.8.1-.9-.9-1.1 0-.3.3-.3.6-.2-.4-.1-.9-.4-1.5-.5-.5-.1-1-.1-1.2.1-.2-.1-.5-.2-.8-.2s-.6 0-.9.1c-.6.1-1 .3-1.1-.1 0 .1-.1.2-.3.3l-.2.2c-.1.1-.1.1-.1.2-.2.3-.4.5-.6.6.4-1.3-1.7.8-1.9-.3-.2 1.1-2 1.4-2.9 2.3 0-.1.1-.3.2-.3-.6.2-.9 0-1.4 0 .2.7-.7 1.3-1.1 1.9-1-.3.1-1-.4-1.5.3.5-1.1 1.1-.7 1.4-.7-.2-.6 0-1.1-.4.2.9-.5.4-.8 1.1-1-.1-.5-.7-1.4-.1-.5-.1.2-.7.2-.7-1 .3-.2.8-.3 1.2-1.1.6-.7-.3-1.2-.5-.7.4-1 1.2-1.6 1.4-.1-.1-.2-.1-.1-.3-.6.8-2.3.8-3 1.7-.1 0-.1-.1-.2-.1.2.3.4.6.4.9-.4.1-.7.7-1 .3.3-.1.2-.2.3-.4l-.4.3c-.6-.5.6-.4.4-.9-.8.5-1.8 1.3-2.5 1.3-.3-.6 1.6-.7.5-.9l1.1-.1c-1.1-.7.7-.1-.4-.9-1.5.2-1.5.8-3 1-.2.4.2.5 0 .9-1.9 1.2-2-1.1-3.3.1-.3.5-.2 1.3-1.4 1.2l.2-.8c-1.4.3-.5 1.2-2.1 1.1.2-.3 1-.5.8-.5-1.1-.3-.6.6-1.3.7l-.3-.6c-1.5.5-3 1.3-4.6 1.8 0-.2.3-.5-.2-.6-2 .8-4.5 1-6.6 1.2l-.6.7c-.2 0-.4-.2-.2-.3-.8 0 0 .3-.3.7-.4.2-.7-.2-.4-.4-1.3.8-3.7 2-5.3 1.8l.2-.2c-1.2.1-1 1.4-2.2 1.2l.2-.1c-2.5.4-5.1 1.5-7.2 1.2-.2.9-2.5.3-2.4 1.4-1.5-.2-1.2-.5-3.3-.3-.5.1-.6.9-1.3 1.1l-.2-.6-.7.8-.6-.5-.6.3c.3 0 .6.1.6.3-.9.5-2.4.2-2.5-.1l-2.2 1c0-.2.4-.4.6-.6-1.1.9-.4-.5-1.3.3.2.1 0 .4 0 .5-.6-.2-1.9.1-2.8.5l.1-.4c-1.7.3-3.5 1.1-5.4 1.7.7 0 .8.7.2.9v-.7c-.3.5.6.1 0 .7-.7.1-.7-.5-.3-.8l-.8.4c-.1-.2.1-.3.1-.5-.2.5-1.6-.2-2 .6l-.1-.2c-1.9.5-2.7 1-4.2 1.5.1.5-.5.6-.8 1.1-1.2.2-2.5.1-4 .8-.9.6-.1.5-.4 1-.3-.4-1.6.3-1.1-.4-.8.4-1.3.8-1.9 1.2-.5.4-1.1.9-1.9 1.9.3 0 .6-.2.6.1-.3.3-.9.5-1 .3v-.1c-.7 1.2-2 2.3-2.9 3.7-.9 1.4-1.4 3.1-.9 4.3l-.1-.1s.2.6.3 1.2c.2.6.4 1.1.4 1.1.2 1.1-.5-.6-.6.3.7 1.2 1 2.1 1.4 3s.8 1.7 1.7 2.3c0 1.1 1 2.1 2.3 2.9s2.6 1.4 3.4 2.2v-.4c.6-.1.5.4.9.7 0-.3-.4-.5-.1-.5.5.2 1.1.3 1.6.5.5.1 1 .3 1.6.4 1 .3 2.1.6 3.2.9 2.1.6 4.3 1.1 6.4 1.4 1.6.2 1-1.7 2.9-.8l-.6.6c3.1-.6 6.3.1 9.3-.6-.2.1-.2.3-.5.3.6.4 2.4 0 2.4-.4.5 0 .1.3.4.5.7.2 1.6-.6 1.9-.2.1.1-.2.2-.3.2.4-.2 1.9 0 1.5-.5 1.1.2 2.1-.4 3.1-.1.5-.6 1.9.1 2.1-.7 0 .8 2 .5 2.7 0-.2.3.6.2.4.6.8-.1 1.5-.3 1.3-.7 1.6.8 2.9-1.1 3.9 0 2.3-.7 4.5-1.3 6.6-1.8 0 .8-2.4.4-2.1 1.3 2-.6 3.1-1.5 5.1-1.6.5 0-.2.4-.4.6 2-.6 3.9-.5 5.6-1.3 0 .1-.2.2-.3.3.3-.1.8 0 .7-.4l-.3.2c-.7-.5 1.2-1.4 1.2-1.7-.4 1.2 1.8 0 1.1 1.5.2-.1.5-.3.4-.6.4 0 .5.1.2.5 1.2-.4.7-.7 1.9-.9 0 .2-.2.3-.3.5.5-.4 1-.9 2-.9 0 .1.1.2-.2.3 1.7-.3 2.7-1.4 4.6-1.4-.4.9.7.2.9.8l.9-.4-.4-.3c.9-.1 1.5-.7 2.3-.6l-.6.4 1.6-.4-1-.1c.8-.5-.2-.9.9-.8-.2.1.9-.1 1.4.2.4-.3.8-.6 1.5-.5.2.2 0 .8.1.9.3-.6 2-.5 2.4-1.2-.2.2-.1.5 0 .6l.3-.5c.4.1.5.2.5.5 1.2-.1-.5-.8 1-.6-.1.1 0 .1-.3.2 1.5 0 2.7-.7 4.1-.6.5.6-1.1.3-.6.8 1.9-.4 3.8-1.3 5.7-1.4h-.4c.1-1 1.4.3 2.3-.2-.2.1-.2.6-.2.5 1.3 0 2.5-.5 4.4-1l-.2.3c.8.1 2 0 2.8 0 .2-.3.7-.3.4-.6.3.2.6.3.9.3.4.1.8 0 1.1-.1.7-.2 1.4-.6 1.9-1.2 1-1.1 1.2-2.5 1.8-3.7 0 .2.2.8.2.5.1-.3.1-.4.1-.6zm-2.3-18.1l-.4.4c0-.3-.1-.5-.1-.8.1 0 .3.1.5.4zm-1.1-5.3c-.1.2-.3.3-.4.3-.1-.3-.1-.6-.2-1l.6.7zm-44.3-2.8c-.1 0-.2.1-.5.2.2-.1.4-.2.5-.2zm-1.6.4c.1.2.1.4-.1.4.1-.1-.4-.1-.7-.2.1 0 .4-.1.8-.2zm47.4 28.4c-.1-.1-.3-.2-.4-.3.1-.2.3-.4.4-.6.2.2.3.5 0 .9z" fill="#db5d43"/><path fill="#db5d43" d="M424 442.8l.1.2.1-.2zM501.7 459.7s-.1.1-.1.2c.1-.1.1-.1.1-.2zM501.6 454.9l.1-.7c-.1.3-.1.6-.1.7zM501.5 451.1c-.1 0-.2 0-.2-.1l.2.1zM455 473.9h-.1c-.3.2-.1.2.1 0zM472.3 469.9c-.2.1-.3.2-.5.3.3 0 .6 0 .5-.3zM435.3 477.2h-.1.1zM471.8 470.2c-.3 0-.6 0-.8.1.3.1.6.1.8-.1zM498.6 434.7c-.1 0-.1 0 0 0v.2-.2zM498.5 434.7l-.1-.2c0 .1 0 .2.1.2zM498.1 434.2l.2.4c0-.2 0-.4-.2-.4zM500 441.3c0-.4.2-1 0-1.5h-.2c.4.2-.2 1.2.2 1.5zM480.5 469.5l.2-.5-.7.3z"/></g></svg>