<svg version="1.1" id="Capa_1" xmlns="http://www.w3.org/2000/svg" viewBox="0 0 800 600" xml:space="preserve"><g fill="#bfaf9c"><path d="M544.8 477.8c-.5-1.1-.6-2-.4-1.9-.3-.3-.6-1.8-1.2-2.2.3 1.6 1.1 3.4 2 5.2 0 .5-.2.1-.4 0 .7 1.2 1.4 2.8 1.8 1.8-.4-.7-.6-1.1-.8-1.5-.2-.4-.5-.8-1-1.4zM538 491.6c.4-.1.7-.2 1-.3-.3.1-.6.1-1 .3.1-.1.1 0 0 0zM531.7 445c-.1 0-.1.1 0 0 0 .2 0 .2 0 0zM537.4 491.7c-.3.1-.7.1-1 .2.5-.1.8-.2 1-.2zM503.3 389.3c.2-.4 1.6 2.3-.1-1 .1.5.1.8.1 1zM538 491.3c-.1.1-.3.2-.6.3.2-.1.5-.1.7-.1 0-.1 0-.1-.1-.2zM255.5 486.7c-.9-.8-1.5-1.8-1.5-1.8.6 1.2 2 2.4 3.4 3l-.6-.3c-.4-.2-.9-.6-1.3-.9zM408.9 293.4c-.3 0-.6 0-.8.1l.8-.1zM255.3 471.3l-1 2.1c.4-.5.7-1.1.9-1.7.1-.1.1-.3.1-.4z"/><path d="M546.3 483.2c-.1-.2-.1-.3-.2-.4 0 0-.1.7-.1 1.2 0-.1.1-.1.2-.1.1.1.2.4.2.8 0 1.2-.4 2-.8 2.4-.4.5-.7.6-.8.6 0 0 .2-.3.4-.7.2-.4.3-.8.3-.8-.4.3-.7.8-1.2 1.3s-1.1 1.1-1.8 1.5c-1.5.9-3.4 1.6-4.9 1.8l.6-.4c.1-.1.3-.2.4-.3 2.3-.5 4.8-1.1 6.1-3.2 2.8-4.3-1.4-11.2-3-15.2 0-.1-.1-.2-.1-.3.3 0 .6.2.9.1 0 .2.1.5.3.8l.8.5-.4-.8-.4-.8c.2-.4.1-1.3-.5-3.4 0 0-.4-.7-.9-1.5-.4-.7-.9-1.5-.9-1.5l-.1-1.1 1.2 2.6c-.3-1.6-1-2.4-1.7-3.4.1-.3 0-.8-.2-1.5l-2.1-2.7c.1-.5 1.2 1.1.4-1-1-1.3 0 1.6-1.3-.6-.4-1.6.1-1.3-1-2.9.1-.3.4 0 .8.6-.9-1.4-2-4-2.8-4.6-.4-1.7-2.6-5-1.9-5.2-.4-.4-1.8-2.4-2.6-3.8 2 2.1-2.5-5.2-1.4-4.9-1.6-1.5-3.7-6.6-5.7-9.7.1.2.4.5.5.8-.9-1.9-.9-2.5-1.4-3.8-.7 0-2.3-2.8-3.4-4.2-.6-2.6 1.4 1.1 1.5.1-.4.3-2.4-3.7-2.4-2.8-.5-1.9-.6-1.6-.5-2.7-.9.1-.9-1.6-2.1-2.8-.9-2.7.4-1-1.2-3.7-.4-1.4 1 .9 1 .9-1.4-2.8-1.2-1.1-1.8-1.5-1.8-3.3-.4-1.8-.7-3.1-1.2-2-2.5-3.4-3.3-5 0-.2-.1-.5.2-.2-1.5-2-3.3-6.6-5.1-8.9 0-.2-.1-.3 0-.4-.1.6-.3.8-.5.8-.6-1.3-1.5-2.2-1.4-2.8.4.8.6.8.8 1.1l-.8-1.3c-.1-1.5 1.1 1.7 1.5 1.5-1.5-2.5-3.4-5.3-4.2-7.4.3-.7 2.5 4.6 1.6 1.7l1.3 3.2c-.4-2.7.9 1.9.6-.7-1.9-4.1-2.5-4.4-4.4-8.5-.7-.8-.3.5-1-.3-3.3-5.5-1-5.1-3.7-9-.9-.9-1.7-1-2.9-4.2l1.1.7c-1.9-3.9-1.9-1.8-3.6-6.1.6.6 1.7 3 1.5 2.4-.9-2.9-1.3-1.7-2.3-3.8l.3-.7c-2.1-4.1-4.8-8.6-7.2-13.1.3.2.8.9.4-.3-3.1-5.7-6.1-12.5-8.6-18.3l-1.5-1.9c-.2-.5-.3-1 .1-.5-.9-2.3-.3 0-1-.9-.6-1.2-.6-1.8 0-1-1.2-1.9-2.7-4.4-4-7.2-1.4-2.8-2.7-5.7-3.6-7.8l.6.7c-.8-1.7-1.5-2.4-2.2-3.2-.7-.7-1.3-1.4-2.2-3l.5.5c-1.2-1.7-2.8-3.3-4.8-4.3-1.9-1.1-4-1.7-6-2s-3.9-.4-5.7-.5c-1.7-.1-3.4-.3-4.9-.5-1.1.7-7.7-.3-8.1.7-4.4-.4-3.2-.6-9.4-.7-1.7 0-2.4.7-4.5.9l-.1-.5-2.7.7-1.5-.5-1.9.2c.8 0 1.6.1 1.5.3-3 .4-7.3.1-7.4-.1l-7 .9c.1-.2.8-.3 1.5-.4-2.6.5-.3-.6-3.4.1.5.1-.2.3-.3.4-1.8-.2-5.7.2-8.6.6l.5-.4c-5.3.4-11 1.4-16.9 2.1 2.1-.1 1.7.5 0 .8l-.8-.4c-1.1.5 1.8 0-.4.7-2.2.2-1.6-.4-.3-.7l-2.6.6c-.2-.1.4-.3.6-.5-1 .5-4.7.1-6.1.9l-.2-.1c-5.8.9-8.5 1.4-13.3 2.5 0 .2-.5.4-1.1.7-.6.2-1.4.5-2.1.9-3.5.8-7.5 1.9-11.4 4.3-2.5 1.9-.6.8-1.6 1.8-.2-.1-1.2.5-1.9 1s-1.1.8-.4-.1c-1.9 1.6-3 2.9-4.1 4.3-1 1.4-2 2.9-3 5.5-.3.2-.5.5-.8.8.2-.2.4-.4.7-.5 0 0 0 .1-.1.1l.2-.2c.4-.2.7-.3.8-.3l-.3.3c-.7.4-1.3 1.1-1.6 1.6 0 .1-.1.1-.1.2l-.1.1-.2.2c-.1.1-.2.1-.2.1l.1-.3c-2.6 6.8-8.3 14.6-9.9 20.2l.1-.3-2.1 5.6c-1.2 2.5.4-1.6-.7.1-2 6.2-4.3 9.2-6.1 14.3-2.8 3.2-5.8 13.4-8.7 18.2l.4-.2c-.3 1.4-.8 1.5-1.3 2.5.3 0 .9-1.3.7-.4-4.5 11.3-10.2 22.9-15.1 34.4-1.8 4.2.4 3-2.3 8l.1-1.7c-2.8 8.8-6.9 17.5-9.5 26.1.1-.5-.1-.6.2-1.4-1 1.6-2.5 6.6-2.2 6.7-.5 1.3-.4.2-.8 1-.9 1.7-1.2 4.7-1.9 5.5-.1.1 0-.2 0-.5-.5 1.6-1.9 4.9-1.1 4-1.4 3.1-2 6.2-3.2 8.6-.1.9-.6 2.2-1.1 3.5-.4 1.3-.7 2.5-.4 2.9-.2-.1-.4.2-.5.9-.2.6-.3 1.6-.1 2.8.1 1.1.7 2.5 1.5 3.4.2.3.4.5.6.6.2.2.4.4.6.5.4.3.8.5 1.1.6-.4-.1 0 .2.5.5s1 .6.4.5c1.5.6 2.9.8 3.8.8s1.4-.1 1.2-.3c1.2.3 2.4.3 3.4.3s2.1-.1 3.1-.1c2-.1 3.8-.2 5 .4 7.2-.3 13.9-.4 20.4-.5-.2.7-7.2 0-6.9.7 6.2-.2 9.8-.8 15.9-.5 1.6.1-.9.3-1.4.4 6.2-.2 11.9.3 17.4 0 0 .1-.6.1-1.2.2 1.1 0 2.5.2 2.4-.2l-1.1.1c-1.7-.5 4.3-.9 4.5-1.2-1.9.9 5.4.3 2.5 1.5.7-.1 1.6-.2 1.4-.4 1.1.1 1.4.2.3.5 3.9-.1 2.5-.5 6-.4 0 .2-.7.2-1.1.4 1.8-.3 3.6-.6 6.5-.4-.2.1.1.2-.4.2 4.9 0 8.5-.7 14-.3-1.7.7 1.9.3 2.2.9l3-.1-1.2-.3c2.6.1 5-.3 7.2-.1l-2 .2h4.9l-2.8-.3c2.7-.3-.3-.8 3.2-.5-.7.1 2.6.1 4 .4 1.3-.2 2.7-.4 4.6-.2.5.2-.4.7-.1.8 1.3-.5 6.2 0 7.8-.6-.5.1-.6.4-.4.5l1.1-.4c1.2.2 1.4.2 1.2.5 3.7.1-1.1-.8 3.2-.4-.3 0-.2.1-.9.1 4.4.3 8.5-.1 12.5.2 1.2.6-3.5.1-2.2.6 5.8 0 12-.5 17.6-.1l-1-.1c.8-.8 4.1.6 7 .4-.7 0-.9.4-.7.3 3.8.4 7.8.2 13.7.4l-.7.2c2.2.4 5.9.5 8.4.8.7-.2 2.1 0 1.3-.4 7.4 1.8 14.4.4 21 1.9-.8 0-1.9.1-1.3.1l5.7.1c-.4-.4-.7-.3-1.9-.6.7-.2 2.3-.3 3.8-.2-2.6.1 0 .6 1.1.9-.2-.1.2-.2.1-.4 2.9.8.5-.7 4.6-.1l-.2.2c1.5 0 2.9-.2 4.6-.1.7.5-1.6.1-1.7.5 2.3.1 4.6-.7 6.6-.2-1 .1-2.4.1-3.4.1 2.3.6 2.5.5 4.2.6h-.2l3.9.3-1-.2c2.9-1.1 5.9-.1 9.8-.9-3.8.8-.6.4-.9.9 1 .1 2.5.3 2.1.4 1.8-.4 3.1.3 5.7-.4.1.2 2-.1 1.6.4 2.4-.3-.6-.2-.4-.5 3.6-.7 8.7.2 13.9-1.2 4-.7 5-1.3 8-2.1l1.8-.3c.2.2-1.5.7-1.5.7 2.3-.2 4-.5 6.1-1.1-.4.2.1.3.8.3 1.7-.4 1-.7 3.4-1.1-.3.3-.8.7-1.6 1.1 1-.3 2-.7 3.1-1.2 1-.5 2-1.3 2.7-2.3.3-.2.2.2-.2.7-.3.5-.9 1-1.3 1.3.6-.4 1.2-.9 1.8-1.6.3-.3.5-.7.7-1.1s.4-.8.4-1.2c0-.2.1-.4.1-.6s0-.4.1-.5v-.9c-.1-.2-.1-.4-.2-.6zM480 342.9l.7 1.4c-.2-.4-.4-.7-.7-1.4zm-1.6-3.2c0 .3-.3.1-.6-.4.2.3-.3-1.1-.6-2 .3.7.7 1.6 1.2 2.4zM321 318.9s0 .1-.1.1l.1-.1zm136.1 173.8c-.1-.1-.1-.3 0-.4.7 0 1.4.1 2.1.1-.2.2-.8.3-2.1.3zm61.6.3c.8-.1 1.7-.2 2.5-.3-.2.1-.6.3-1.6.6 0 0-.4-.1-.9-.3zm18.5-2.5c-.7.3-1.5.6-1.5.6-.4 0-.7-.1-.7-.3 1-.2 2-.4 2.9-.6-.1.1-.4.2-.7.3zM259.5 459.1c0-.2.1-.3.1-.4 0 .1-.1.2-.1.4zM339.7 489.4h-.3.3z"/><path d="M546 484c0 .1-.1.2-.1.4.1 0 .1-.2.1-.4zM397.5 294.1h.2c0-.1-.1 0-.2 0zM397.8 294c.2 0 .3-.1.5-.1-.3.1-.4.1-.5.1zM415 292.9l.1.1.5-.1zM472.8 494.2c.1 0 .2.1.4.1 0 0-.2 0-.4-.1zM487.5 494.9l2.1.2c-.9-.1-1.5-.1-2.1-.2zM498.9 495.3c.1-.1.2-.1.2-.2l-.2.2zM318.5 489.4h-.4c-1 .1-.3.1.4 0zM372.2 489.3c-.6.1-1.1.1-1.7.2 1 0 1.7 0 1.7-.2zM257.8 488.1c-.1-.1-.3-.1-.4-.2-.1 0 .4.2.4.2zM368 489.4c1 .1 1.8.1 2.5.1-.8-.1-1.7-.1-2.5-.1zM547 484.4s-.1 0 0 0l-.1.7.1-.7zM546.9 484.3v-.7.7zM546.7 482.2s.1.4.1.7c0 .2 0 .4.1.5v.2c0-.5 0-1.1-.2-1.4zM533.1 492.3l-.1.2c.1-.1.1-.1.1-.2zM532.9 492.6l.1-.2c-.7.4-3.4.2-4.4.7 1.1-.1 2.8-.1 4.3-.5zM397.1 490.4l.7-.4-2.2.1z"/></g><g fill="#f6eaea"><path d="M516.3 454.8c-.1-.2-.3-.4-.4-.5l-.2-.2c.1-.4-.1-1.1-1-2.6l-2-1.8-.2-.9s.3.4.7.9c.3.4.7.9.7.9-.5-1.2-1.2-1.7-1.9-2.3 0-.3-.1-.7-.3-1.1l-2.1-1.7c.1-.4 1.2.6.3-.9-1-.8.1 1.4-1.2-.2-.4-1.3 0-1.1-1.1-2.2 0-.3.3-.1.7.4-1-1-2-2.9-2.7-3.3-.4-1.4-2.5-3.8-1.8-4.1-.4-.3-1.7-1.7-2.3-2.8.9.8.4-.2-.3-1.4-.6-1.2-1.3-2.6-.8-2.6-1.5-1.1-3-5.2-4.6-7.7.1.1.4.4.4.6-.6-1.5-.6-2.1-.9-3.1-.7.1-1.8-2.3-2.7-3.4-.2-2.1 1.2.9 1.5 0-.5.3-1.8-3.1-1.9-2.3-.2-1.6-.3-1.3-.1-2.3-.9 0-.6-1.3-1.6-2.4-.4-2.3.5-.8-.6-3.1-.2-1.2.9.8.9.8-.9-2.4-1-.9-1.5-1.3-1.2-2.8-.1-1.5-.1-2.6-.8-1.7-1.8-2.9-2.3-4.3.1-.1 0-.4.2-.1-1.1-1.7-2.1-5.6-3.5-7.6v-.3c-.1.5-.4.6-.6.6-.4-1.1-1.1-1.8-.9-2.4.3.7.4.7.7.9l-.6-1.1c.1-1.2.8 1.5 1.2 1.3-1-2.1-2.5-4.5-3.1-6.2.4-.6 1.8 3.8 1.3 1.4 0 0 .2.7.4 1.3.2.7.4 1.3.4 1.3 0-2.3.6 1.6.7-.6-1.3-3.5-1.8-3.7-3.2-7.1-.6-.6-.3.4-.9-.2-.7-1.1-1-2-1.3-2.6-.2-.7-.3-1.1-.4-1.6-.1-.9-.1-1.7-1.4-3.2-.8-.7-1.6-.7-2.6-3.2l1 .5c-1.7-3.1-1.8-1.3-3.3-4.7.6.4 1.6 2.3 1.4 1.8-.8-2.3-1.2-1.3-2.2-2.9l.3-.6c-2.1-3.2-4.7-6.4-7.1-9.8.3.1.8.6.4-.3-3.2-4.2-6.2-9.3-8.7-13.7l-1.4-1.3c-.2-.4-.3-.8.1-.5-.9-1.7-.3.1-1-.6-.6-.9-.6-1.4-.1-.9-2.2-2.7-5.9-7.9-7.1-11.4l.5.6c-.6-1.3-1.2-1.9-1.7-2.5s-1-1.2-1.4-2.5l.3.4c-.4-.8-.8-1.7-1.2-2.5-.4-.9-.7-1.7-1.1-2.6-.2-.4-.4-.9-.6-1.3l-.1-.3c-.1-.1-.1-.3-.2-.4-.1-.3-.3-.5-.5-.8-.1-.1-.2-.2-.3-.4-.1-.1-.2-.3-.4-.4l-.9-.6c-.6-.3-1.3-.4-2-.4-.6 0-1.2.1-1.8.1-.6 0-1.1.1-1.7.1h-3.1c-.8.8-6.1.3-6.4 1.3-3.6-.1-2.6-.4-7.6-.3-1.3.1-1.9.8-3.5 1l-.1-.5-2.2.7-1.2-.5-1.5.3c.6 0 1.3.1 1.2.3-2.4.5-5.9.2-6-.1l-5.6 1c.1-.2.6-.3 1.2-.4-2.1.5-.2-.6-2.8.1.4.1-.2.3-.2.4-1.4-.2-4.6.1-6.9.5l.4-.4c-4.2.3-8.9 1-13.6 1.4 1.7 0 1.4.6 0 .8l-.6-.5c-.9.4 1.5.1-.3.6-1.8.1-1.2-.5-.2-.8l-2.1.4c-.1-.1.4-.3.5-.5-.8.4-3.8-.2-5 .5l-.1-.1c-4.7.4-6.9.9-10.6 1.2 0 .5-1.5.5-2.6.9-2.8 0-5.8-.4-9-.9-2.3-.2-.7.3-1.8.3 0-.2-.9-.5-1.4-.7-.6-.2-.9-.4-.1-.3-.3-.1-.6-.1-.8-.2-.3-.1-.8-.2-1.2-.2-.7 0-1.3.1-1.8.3-.6 0-1.3.2-1.9.4-.8.3-1.5.9-2 1.7l-.3.6c-.1.2-.2.5-.2.6l-.3.9c-.2.7-.5 1.4-.7 2.2.4-.5.7-1 .7-.7-.3.9-1 1.9-1.1 1.7l.1-.2c-1.6 5.6-6.1 12.1-7 16.7l.1-.3-1.3 4.7c-.9 2 .2-1.4-.7.1-1.2 5.1-3 7.6-4.1 11.8-2.3 2.7-4.1 11-6.4 14.9l.4-.1c-.1 1.2-.6 1.3-1 2 .3 0 .7-1.1.6-.4-3.1 9.3-7.3 18.8-10.9 28.2-1.3 3.4.7 2.5-1.5 6.6l-.1-1.4c-1.8 7.2-5 14.3-6.8 21.4 0-.5-.1-.5.1-1.2-.9 1.3-1.8 5.4-1.5 5.5-.4 1.1-.4.2-.7.8-.7 1.4-.8 3.8-1.4 4.5-.1.1 0-.1 0-.4-.3 1.3-1.4 4-.7 3.3-1.1 2.5-1.4 5-2.4 7 0 1.5-1.7 4.4-1.1 5-.7-.4-2 4.4-2.2 6.1 0-.6-.7 1.4-.8.6-.6 1.9-1 3.6-.5 3.4-.3.5-.5.9-.7 1.4-.5 1.3-.2 2.8.5 3.8s1.7 1.7 2.7 2c.5.2 1.1.2 1.5.2h.9c.6.1 1.1.2 1.5.4 5.8-.3 11.2-.5 16.5-.6-.2.7-5.8 0-5.6.8 5-.3 7.9-.8 12.8-.6 1.3.1-.7.3-1.2.4 5-.3 9.6.1 14-.3 0 .1-.5.1-.9.2.9 0 2 .1 1.9-.2l-.9.1c-1.4-.5 3.5-1 3.6-1.3-1.5 1 4.4.2 2 1.5.6-.1 1.3-.2 1.2-.5.9.1 1.1.2.3.5 3.1-.2 2-.6 4.8-.6 0 .2-.6.2-.9.4 1.4-.3 2.9-.6 5.3-.5-.1.1 0 .2-.3.2 4-.1 6.8-.9 11.2-.6-1.3.7 1.5.2 1.8.8l2.4-.2-1-.3c2.1 0 4-.5 5.8-.3l-1.6.3 4-.2-2.3-.2c2.1-.4-.2-.8 2.6-.6-.6.1 2.1 0 3.2.3 1-.2 2.1-.4 3.7-.3.4.2-.3.7 0 .8 1-.5 5-.2 6.3-.8-.4.1-.4.5-.3.5l.9-.4c1 .1 1.1.2 1 .4 3 0-1-.8 2.6-.5-.3 0-.1.1-.7.2 3.5.1 6.8-.4 10-.3 1 .6-2.8.2-1.7.7 4.7-.3 9.6-1 14.2-1.1h-.8c.6-.9 3.4.3 5.6-.2-.6.1-.7.5-.6.4 3.1 0 6.3-.5 11-.9l-.6.2c1.8.1 4.8-.1 6.8-.1.6-.3 1.7-.3 1-.6 6.1 1 11.5-1.3 17-.5-.6 0-1.5.3-1 .3l4.6-.5c-.4-.4-.6-.2-1.6-.4.6-.3 1.9-.5 3-.6-2 .4.1.6 1 .8-.2-.1.1-.3.1-.4 2.4.5.4-.8 3.7-.5l-.2.2c1.2-.2 2.3-.5 3.6-.5.6.4-1.3.3-1.4.7 1.9-.1 3.6-1.1 5.3-.7-.8.2-1.9.2-2.7.4 1.9.4 2.1.3 3.4.3h-.1 3.2l-.8-.1c2.2-1.3 4.7-.6 7.8-1.6-3 .9-.5.4-.7 1 .8.1 2 .1 1.7.3 1.4-.5 2.5.1 4.5-.6.1.2 1.6-.1 1.3.3 1.9-.3-.5-.2-.3-.5 2.9-.8 7 .1 11.2-1 2.9-.5 3.9-.9 5.8-1.4.7-.1 1.5-.1 2.2-.2-.1.2-1.2.5-1.2.5 1.9.1 3.3-.1 5-.4-.3.2 0 .3.6.4 1.4-.2.9-.7 2.8-.6-.3.2-.7.5-1.3.8 1.6-.3 3.2-.7 4.9-1 .5.2-1 .5-1.6.7 1.9-.3 5-.6 5.5-1.1h-.9c.2.1 0 .4-.4.5-1.6.5-2.4 0-2.5-.1l1.2-.2c-1.3-.8-4.9.5-7.3.7l.6-.5c4.1-.3 8.1-.7 12.2-1.1 2.6-.2 3.6-2.9 2-4.9l-.2-.2c.3-.1.6-.1.8-.2l.4.8.8.6c-.7.3-.9-.2-1.1-.6zm-53.1-102.5c.3.4.5.8.7 1-.1-.2-.3-.5-.7-1zm-1.6-2.3c0 .2-.3.2-.6-.3.2.2-.3-.9-.7-1.6.4.6.9 1.2 1.3 1.9zm-26.5 115.5c-.1-.1-.1-.3-.1-.4.6 0 1.1-.1 1.7-.1-.1.2-.6.4-1.6.5zm50.2-3.3l-.5-.2c.5 0 1-.1 1.4-.1-.1 0-.4.1-.9.3zm13.1-1c-.2-.1-.5-.2-.5-.3.6-.1 1.3-.1 1.9-.2l-1.4.5z"/><path d="M515.1 458.6c-.3.3-.6.6-.9.8l-1.2.6c-.4-.1 0-.3 0-.4-1.1.4-2.4.9-1.6 1.4.5-.3.9-.4 1.2-.5s.9-.3 1.4-.8c1-.5 1.6-1.1 1.6-.8.1-.2.4-.6.5-1.1.2-.5.2-1 0-1.3-.1.8-.5 1.5-1 2.1zM500.2 462c.3-.1.6-.1.8-.2-.2 0-.5.1-.8.2 0-.1 0 0 0 0zM503.7 434.9c.1.1.1.1 0 0zM499.7 462c-.3 0-.5 0-.8.1.4-.1.6-.1.8-.1zM483.6 388.3c0 .4 0 .7-.1.9.2-.3 1.2 1.9.1-.9zM500.2 461.7c-.1.1-.2.2-.5.2.2 0 .4 0 .6-.1l-.1-.1zM281.9 458.2l.9-2.5c-.3.7-.6 1.6-.9 2.5zM406.7 312.3c-.2 0-.5 0-.6.1l.6-.1zM285.9 446.5l-.8 1.7c.3-.4.5-.9.8-1.3v-.4zM340.4 469.4h-.3.3zM508.7 460.4h.3c-.1 0-.2-.1-.3 0zM397.7 313c.1 0 .3-.1.4-.1-.1 0-.3 0-.4.1zM289 436.5c0-.1.1-.3.1-.4-.1.2-.1.3-.1.4zM397.5 313h0zM411.6 311.6v.1l.4-.1zM447.7 465.3c.1 0 .2.1.4.1 0 0-.2 0-.4-.1zM459.6 464.7l1.7.1c-.7-.1-1.2-.1-1.7-.1zM468.8 464.3c.1-.1.1-.2.2-.2l-.2.2zM323.3 469.8h-.4c-.7.1-.2 0 .4 0zM366.6 468.3c-.5.1-.9.2-1.4.2.8.1 1.4.1 1.4-.2zM281.8 458.5c0-.1.1-.2.1-.3l-.1.3zM363.2 468.6c.8.1 1.4 0 2 0-.6-.1-1.3-.1-2 0zM508.8 461.4s0-.1 0 0h-.4.4zM509.3 461.2c-.2 0-.4 0-.5.1l.5-.1zM510.3 461l-1 .2c.4 0 .8 0 1-.2zM496.3 462.1l-.1.2s0-.1.1-.2zM492.6 462.5c.9 0 2.2.2 3.4 0l.1-.1c-.5.2-2.7-.3-3.5.1zM386.7 468.5l.6-.4-1.9.2z"/></g><g fill="#8cab5a"><path d="M431.1 380.2c.1.6.5.8 1.1.8 0 .2-.1.2-.2.3.4 0 1-.2 1.1-.8-.6.3-.5 0-1.2.4-.3-.1-.3-.4-.2-.6-.2 0-.3-.4-.6-.1zM435.9 382.4c-.1 0-.2-.1-.3-.1 0 .1.1.1.3.1-.1.1-.1 0 0 0zM424.8 375.6s.1 0 0 0zM435.9 382.6c.1 0 .1.1.2.2 0-.2-.1-.2-.2-.2zM409.6 374c.1.1.1.3.2.4-.1-.3.7-.3-.2-.4z"/><path d="M435.7 382.6c.1-.1.2-.1.2-.1l-.1-.1c-.1.1-.1.2-.1.2zM398.3 415.7l-.8-.1c.2.1.5.1.8.1zM374.3 381.4l.1-.1-.1.1zM395.2 415.7c-.1-.2-.3-.3-.4-.3l-.1.1.5.2zM372 382.7s.1-.1.1-.2c0 .1 0 .1-.1.2z"/><path d="M441.9 397.9c-.2-.2-.3-.6-.2-.9.2.6.6.1.8-.2-.1 0-.2-.1-.4-.1.7-.7-.7-.2-.2-1.1l.2.1c-.1-.4-.4-.7-.4-1.1.4-.2.2.4.6.4 0-.3-.2-.6-.4-.8-.2-.3-.3-.5-.1-.8.2.2.2.6.4.8.4-.6.3-.7.3-1.1v-.2-.4-.5l-.1.3c-.7-.2-.8-.5-.9-.9s-.2-.8-.8-1.1c1 .6.4 0 .9-.2 0-.3 0-.7.2-.7-.6-.2-.1-.9-.9-1.2.1-.1-.2-.4.2-.6-.4-.5-.2.3-.4.3-.5-.3-.6-.8-.9-1.3-.2-.6-.6-1.1-1.3-1.4-.9-.6-1.4-.4-2.2-.8l-.2-.2c0-.3.6-.1.6-.1-.2-.6-.6-.8-1.1-1 .2 0 .2-.2.2-.4-.4-.2-.6.3-.9-.3.2-.1.5-.2.7-.2-.5-.2-1.1-.3-1.6-.4.1-.3.5-.2.8-.2-.5-.3-1.4-.7-1.8-.4l.2.3c-.2-.1.1-.4.3-.4.6 0 .5.5.4.7l-.4-.1c-.2 1 1.3.7 1.8 1.3l-.5.3c-1.5-1.2-3-2.2-4.6-3.1h-.1c.2-.2.3-.4.5-.6 0 .1.1.1.2.2l.4-.4-.5-.1c.1-.3.1-.7-.3-1.1h-1l-.1-.5.6.3c-.2-.5-.6-.3-.9-.3 0-.2 0-.4-.1-.5 0 0-.3.1-.5.2-.3.1-.5.2-.5.2 0-.3.6-.4.1-.8-.5.2.1.8-.6.7-.2-.5 0-.7-.6-.6 0-.2.2-.3.4-.3-.5.1-1.1-.3-1.4 0-.2-.5-1.4-.4-1.1-1-.2.1-.9.3-1.2.2.9-.6-1.4-.4-1-1.3-.7.6-1.9-.1-2.9.2.1-.1.2-.2.3-.1-.5-.2-.6-.4-.9-.6-.2.6-1 .7-1.4 1-.6-.7.5-.7.3-1.3 0 .5-1.2.4-1 .9-.4-.4-.4-.2-.6-.8-.1.8-.5.1-.9.6-.7-.4-.1-.8-.9-.6-.4-.3.3-.5.3-.5-.8 0-.4.6-.6.9-.9.2-.4-.5-.7-.8-.6.1-1 .7-1.5.7 0-.1-.1-.1 0-.3-.3.2-.8.3-1.2.3h-.3s-.1 0-.1.1h-.2c-.1 0-.2.1-.3.1 0-.1-.1-.1-.1-.2.1.3 0 .6 0 .8-.3 0-.7.3-.7-.1.2 0 .2-.1.4-.2l-.4.1c-.2-.6.5-.1.6-.5-.7.1-1.6.5-2.1.2-.1-.6 1.3-.1.6-.6l.8.3c-.5-1 .5.1 0-.9-1.1-.3-1.3.1-2.4-.1-.3.3 0 .5-.2.8-1.6.4-1.2-1.5-2.3-.8-.3.4-.4 1.1-1.2.7l.3-.6c-1.1-.1-.6.9-1.7.5.2-.2.8-.2.7-.3-.7-.5-.5.4-1.1.4l-.1-.6c-1.1.1-2.4.6-3.6.8.1-.2.3-.4-.1-.5-1.6.4-3.4.4-5 .3 0 0-.1.1-.2.3-.1.1-.2.3-.2.3-.1 0-.3-.2-.2-.3-.6-.1 0 .3-.2.6-.3.1-.5-.2-.3-.4-1 .6-2.7 1.6-3.9 1.4l.2-.2c-.9 0-.6 1.2-1.5 1l.1-.1c-1.9.4-3.6 1.5-5.2 1.5 0 .7-1.8.5-1.5 1.4-1.2.1-1-.3-2.5.2-.4.2-.2.8-.6 1.2l-.3-.4-.3.8-.6-.3-.3.3c.2-.1.5 0 .5.1-.5.6-1.7.6-1.9.4 0 0-.3.3-.6.7-.3.3-.6.7-.6.7-.1-.1 0-.3.1-.5-.4.6-.4-.5-.8.4.2 0 .1.3.2.4-.5 0-1.3.5-1.8 1.1l-.1-.4c-1.1.7-2.1 1.8-3.1 2.8.5-.2.8.3.5.6l-.5-.3c0 .4.5-.2.3.5-.4.3-.7-.2-.6-.5l-.4.6c-.1-.1-.1-.3-.2-.4 0 .4-1.2.5-1.1 1.2l-.1-.1c-1 1.1-1.3 1.8-2 2.8.4.3 0 .6.1 1.1-.6.7-1.4 1.4-1.8 2.6-.1.8.3.4.4.8-.4-.1-.7 1.1-.8.4-.3 1.4-.4 1.8 0 3.6.2-.2.2-.4.4-.3.1.3-.1.7-.4.7v-.1c.2.5.3 1 .3 1.6.1.5.1 1.1.2 1.7 0 .3.1.6.1.8.1.3.2.5.3.8.2.5.5.8.9 1h-.1s.3.3.6.5.7.5.7.5c.4.6-.5-.1-.4.5.8.4 1.3.9 1.8 1.4.2.2.5.5.7.6.3.2.5.4.9.5.1.8 1 1.3 1.9 1.7.9.4 1.9.6 2.5 1.3v-.3c.4-.2.4.3.6.5 0-.2-.3-.4 0-.5 1.5.3 3 .8 4.5 1.3.8.2 1.5.5 2.3.7.7.2 1.5.4 2.2.5 1.1.2.8-1.4 2.1-.6l-.4.5c2.3-.4 4.5.4 6.7 0-.1.1-.1.3-.4.3.4.4 1.7.1 1.7-.2.3.1.1.3.3.5.4.3 1.2-.5 1.4-.1 0 .1-.1.1-.2.2.3-.2 1.4.1 1.1-.4.8.2 1.5-.2 2.2.1.4-.5 1.4.3 1.5-.5-.1.7 1.4.6 1.9.3-.2.2.4.2.2.5.6 0 1.1-.2 1-.5 1.1.9 2.1-.7 2.8.4 1.7-.4 3.3-.8 4.8-1 0 .7-1.7.1-1.6.9 1.4-.4 2.3-1 3.7-.9.4.1-.2.3-.3.5 1.5-.4 2.8 0 4.1-.5 0 .1-.1.2-.3.2.3 0 .6.1.6-.3l-.2.1c-.4-.5 1-1.1 1-1.3-.4 1 1.3.2.7 1.4.2-.1.4-.2.3-.5.3 0 .3.2.1.4.9-.2.6-.6 1.4-.6 0 .2-.2.2-.2.4.4-.4.8-.7 1.5-.6 0 .1.1.2-.1.2 1.2-.2 2-1.1 3.3-.9-.3.8.5.2.6.8l.7-.3-.3-.2c.6-.1 1.1-.6 1.7-.5l-.4.3 1.2-.3-.7-.1c.6-.4-.2-.7.6-.7-.2.1.6-.1 1 .2.3-.3.5-.5 1-.5.2.2.1.7.2.8.2-.6 1.4-.5 1.6-1.2-.1.2 0 .5.1.5l.1-.5c.3 0 .4.1.4.3.9-.2-.5-.7.6-.7-.1.1 0 .1-.2.2.5-.1 1-.3 1.4-.6.4-.2.9-.5 1.4-.6.5.4-.7.5-.2.8 1.3-.7 2.4-1.9 3.6-2.6l-.3.1c-.3-.8 1.1-.2 1.4-1-.1.2.1.5.1.4.4-.3.8-.6 1.1-1.1.2-.2.3-.5.5-.7.2-.3.3-.6.5-.9v.3c.3-.1.5-.4.8-.7.2-.3.5-.6.7-.8-.1-.3.1-.6-.3-.6.5-.2.9-.6 1.1-1s.3-.8.4-1.3c.2-.9.1-1.7.9-2.4 0 .2.1.5.1.4v-.2-.5-.7c-.5.1-.3.2-.7.4zm-3.5-11.6l-.2.4c-.1-.1-.2-.3-.4-.4.2-.1.3-.1.6 0zm-2.8-2.8c0 .1-.1.3-.2.4-.2-.2-.4-.3-.5-.4h.7zm-38.1-9.1c-.1 0-.2 0-.4.1.2-.1.3-.1.4-.1zm-1.2.2c.1.2 0 .3-.1.3.1-.1-.3-.2-.5-.3h.6zm44.5 25.7c.1-.2.1-.3.2-.4.1.1.2.2.2.6-.1-.1-.3-.1-.4-.2z"/><path d="M375.7 380.4v.1l.1-.2zM442.5 396.8s.1 0 .1-.1l-.1.1zM442.5 392.5v0zM441.8 390.2h-.2.2zM412.7 414.8h-.1c-.3.1-.1.1.1 0zM425.3 412.1c-.1.1-.2.2-.4.3.3 0 .5 0 .4-.3zM398.4 415.7z"/><path d="M425 412.4c-.2 0-.4 0-.6.1.2.1.4.1.6-.1zM433.8 380.8s-.1 0 0 0l.1.1-.1-.1zM433.7 380.8h-.2c.1 0 .2.1.2 0zM433.2 380.7l.3.1c0-.1-.1-.2-.3-.1zM437.5 384.1c-.2-.2-.3-.7-.6-.9l-.1.1c.3-.1.4.8.7.8zM431.3 411v-.4l-.4.3z"/></g><g><g fill="#b1d07a"><path d="M501.4 183.1c-.3-.4-.3-1.9-1-2.4-.1.8 0 1.7.2 2.6.2.9.5 1.9.9 2.9-.1.5-.4.1-.6 0 .7 1.3 1.6 2.8 2.2 1.8-1-1.3-.8-1.6-2-2.9-.2-1.2 0-2.1.3-2zM504.5 202.2c0-.4-.1-.8-.2-1.1 0 .3.1.7.1 1l.1.1zM489.7 151.2c-.1 0-.1.1-.1.1.1.1.2.1.1-.1zM504.4 202.8v1c.1-.4.1-.7 0-1zM438.6 114.2c-.2-.6 2.9.3-.7-.9.3.4.5.7.7.9zM504.1 202.2c.2.1.3.3.3.6 0-.2 0-.5-.1-.7 0 0-.1-.1-.2.1zM351.3 376.9l-2.7-1.9c.7.5 1.7 1.2 2.7 1.9zM296.4 140.5c-.2.2-.4.4-.5.6l.5-.6zM340.3 369.6c-.4-.5-.8-1-1.3-1.4-.1 0-.3-.1-.4-.1l1.7 1.5z"/><path d="M503.3 199.4c.3.4.7.9 1 1.7-.1-1-.3-2.1-.5-3.1s-.5-2.1-.7-3.1c.4-.6.7 1.2 1.1 2-.2-1.2-.4-2.8-.7-4.1-.3-1.3-.7-2.4-1.1-2.8v1.2c.1-.3.5 0 .7.5.8 2 .1 3-.1 3.1l-.3-1.5c-.6.9-.5 2.4-.1 4 .2.8.4 1.7.5 2.6.1.9.2 1.7.2 2.5l-.8-1c-.1-7.7-1.2-15.3-3.4-23 0-.1-.1-.2-.1-.3.4 0 .8.1 1.2.1 0 .2 0 .5.2.9l1 .6-.7-1.8c.4-.4.5-1.4.2-3.6 0 0-.1-.2-.3-.5-.2-.3-.4-.7-.6-1-.5-.7-.9-1.5-.9-1.5l.1-1.2 1.1 2.7c-.1-1.7-.9-2.6-1.6-3.5.2-.4.2-.9 0-1.6l-2.4-2.7c.2-.6 1.4 1 .7-1.2-1.2-1.2-.2 1.8-1.7-.4-.3-1.7.3-1.5-.9-3 .1-.4.5-.1 1 .5-1.1-1.4-2.4-3.9-3.3-4.4-.4-1.8-3.2-4.8-2.3-5.3-.5-.3-2.4-2-3.4-3.3 2.8 1.5-3.6-4.8-2.1-5-2.3-.9-5.5-5.5-8.8-7.6.2.1.6.2.8.5-1.5-1.6-1.7-2.2-2.6-3.3-.4.3-1.3-.1-2.3-.6s-2.1-1.1-3-1.4c-1.5-2.4 1.9.1 1.9-1.1-.2.3-1.2-.2-2.1-.7s-1.8-.9-1.6-.4c-1.3-1.6-1.2-1.2-1.6-2.5-1 .8-1.7-.9-3.5-1.1-2.2-2 0-1.4-3-2.7-1.2-1.1 1.6 0 1.6 0-2.9-1.6-1.8 0-2.6.1-1.7-.8-2.1-1.2-2.1-1.5s.3-.5-.1-1c-2.3-.9-4.3-.9-5.9-1.7-.1-.2-.4-.4.1-.4-2.6-.4-7-2.9-10.1-3-.2-.1-.3-.3-.3-.3.3.6.2 1.1 0 1.3-1.4-.5-2.7-.3-3-1 .8.3 1 .1 1.4 0l-1.5-.2c-1-1.2 2 .4 2.2-.2-2.9-.7-6.3-1-8.4-1.8-.2-1 5.1 1.2 2.4-.4l1.6.6c.8.3 1.6.7 1.6.7-2.2-2.1 2 .7.1-1.4-2.2-.8-3.4-1.1-4.7-1.3-1.3-.2-2.5-.5-4.7-1.1-1.1.2.2.7-.9 1-3.2-.3-4.4-1.1-5.3-1.8-.9-.7-1.7-1.3-4.1-1.2-1.3.3-2 1.3-5.2.2l1.3-.7c-4.4-.8-2.7.9-7.2-.3.9-.3 3.5.2 2.8 0-2.9-1.2-2.2.2-4.5-.1l-.4-.9c-4.7-.4-10-.3-15.2-.3.3-.2 1.2-.5 0-.8-6.6.2-14.1 0-20.6.3l-2.3 1.1c-.6.1-1.1-.2-.5-.4-2.5.1-.1.5-1.2.9-1.4.3-1.9-.1-1.1-.5-1.1.4-2.4.8-3.8 1.2-1.4.5-2.9.9-4.4 1.4s-3 .9-4.5 1.3c-1.4.4-2.8.7-3.9.9l.8-.5c-1.8.4-2.6 1.1-3.4 1.7-.8.7-1.6 1.2-3.3 1.5l.5-.4c-1.8.7-3.7 1.4-5.5 2.2l-2.7 1.2c-.9.4-1.8.9-2.6 1.3-3.5 1.7-6.7 3.5-9.5 4.6-.2.7-1.9 1.7-3.5 2.7s-3 2-2.8 2.8c-2 1-2.8 1.3-3.7 1.8-.9.5-2.1 1.1-4.6 2.9-1.4 1-1.3 2.3-2.7 3.8l-.6-.5-.8 1.2c-.4.6-.7 1.3-.7 1.3l-1.7.4-1.3 1.5c.6-.5 1.4-.9 1.5-.7-.5.6-1.1 1.2-1.7 1.8s-1.2 1.1-1.8 1.6c-1.2.9-2.2 1.5-2.3 1.5 0 0-1.1 1.5-2.1 3-.5.7-1 1.5-1.4 2.1s-.6 1-.6 1c-.1-.2.2-.9.6-1.6-1.3 2.4-.8-.4-2.3 2.6.4-.3.2.5.3.6-.7.6-1.6 1.7-2.6 3s-1.9 2.8-2.6 4.1l-.1-.8c-3.1 4.4-5.7 9.8-8.3 15.3.6-.9 1-1.2 1.2-1s.2.8-.1 1.6l-1 .3c0 1.2 1-1.5.6.8-1 2-1.5 1-1.2-.3 0 0-.2.7-.4 1.3l-.3.9c-.1.2-.1.4-.1.4-.3.1-.2-.6-.4-.9 0 .6-.6 1.6-1.3 2.7-.6 1.1-1.2 2.3-1.1 3.2l-.3.1c-.5 1.4-1 2.6-1.3 3.8-.3 1.1-.6 2.2-.9 3.1-.3 1-.5 1.9-.8 3-.3 1-.6 2.1-.9 3.2.6.3 0 2.1.2 3.6-.6 1.7-1.1 3.5-1.7 5.4-.5 1.9-1 3.9-1.3 6.1-.1 3.1.5 1 .7 2.4-.3.1-.7 1.2-.9 2-.2.8-.4 1.3-.5.2-.2 2.6-.4 4.2-.4 6.1 0 .9 0 1.9-.1 3 0 1.1.1 2.5.1 4.1.3-.7.4-1.5.6-1.1 0 .6-.1 1.3-.2 1.8s-.3.8-.4.7l-.1-.3c.4 3.7 0 7.9-.1 12-.2 4.1-.1 8 1 10.8l-.1-.3s.3 1.5.8 3c.4 1.5.8 2.9.8 2.9.2 1.4 0 1-.2.5s-.5-1-.5 0c.6 1.6 1 3 1.3 4.3s.6 2.6.8 3.8c.2 1.2.5 2.4.8 3.5.3 1.2.7 2.4 1.3 3.6-.1 1.1.1 2.6.5 4.2.5 1.6 1.1 3.4 1.8 5.2.8 1.8 1.5 3.6 2.3 5.4.7 1.7 1.3 3.4 1.6 4.8l.3-.5c1 1.2.5 1.7.9 2.7.2-.3-.3-1.6.3-.9 2.9 5.5 5.7 11.2 8.9 16.8 3.1 5.6 6.5 11.1 10.3 16.3 1.4 1.9 2.3 2 3.1 2.3.9.3 1.7.9 3.2 3.4l-1.7-.7c3.4 3.2 6.7 6.7 10 10.1 3.4 3.4 6.9 6.6 10.6 9.2-.5-.2-.7 0-1.4-.6 1.1 1.7 5.5 4.6 5.8 4.2 1.1.9 0 .6.5 1.3 1.3 1.5 4.3 2.4 4.8 3.4.1.1-.2 0-.5-.1 1.4.8 4.3 3.2 3.8 2.1 2.6 2.3 5.5 3.5 7.5 5.3 1.9.4 4.6 3.5 5.7 2.9-.8.8 4.5 4 6.5 4.7-.8-.1 1.4 1.3.4 1.2 2.1 1.3 4.1 2.3 4 1.6 3.1 3.6 8.3 3.8 9.6 6.6 3.3 1.6 6.5 3.1 9.7 4.4 3.2 1.4 6.3 2.7 9.4 3.7-.3.5-2.1-.2-3.7-.9s-3.2-1.4-3.3-.8c3 1.2 5.4 1.8 7.9 2.5 2.4.6 4.8 1.3 7.9 2.2 1.6.5-1 .2-1.6.3 1.1.2 2.1.4 3.2.6l1.5.3c.5.9 1.1 1.6 1.8 2.2 1.3 1 3.2 1.5 5 1 .9-.2 1.7-.7 2.2-1.2l.4-.4.2-.3.5-.5 1.8-2.1c.1.1-.3.6-.6 1 .7-.8 1.9-1.7 1.4-1.9l-.6.8c-.9.4-.4-.7.3-1.9s1.5-2.5 1.4-2.8c-.1 1.2.9.2 1.8-.6s1.8-1.5 1.5.2c.4-.6.8-1.4.5-1.5.8-.7 1.2-.8.7.2 2.4-3.1 1.1-2.4 3.4-5.1.2.2-.2.8-.2 1.2.4-.8.8-1.7 1.4-2.6.5-.9 1.3-1.9 2.3-3 0 .2.3.1 0 .5 3.1-3.9 4.4-7.4 8-11.6-.1 2 1.4-1.3 2.3-1 0 0 .4-.6.8-1.3.4-.7.8-1.3.8-1.3l-1.1.7c1.5-2.2 2.3-4.4 3.9-6.2l-.8 1.8s.7-1 1.3-2.1c.7-1 1.3-2.1 1.3-2.1l-1.9 2.1c1.1-2.5-1.1-.4 1.1-3.2-.3.6 1.5-2.2 2.7-3 .5-1.3.9-2.6 2.2-4.1.5-.3.6.9 1 .7 0-1.5 3.1-5.4 3.2-7.2-.1.6.3.8.5.7v-1.2c.8-.9 1-1 1.2-.7 2-3.1-1.6.4 1.1-3.1-.1.3 0 .2-.2.9 2.5-3.6 3.9-7.5 6.1-10.9 1.4-.6-1.5 3.2-.2 2.4 2.7-5.1 4.8-11.1 7.7-15.9l-.6.9c-.8-1.3 2.5-3.4 3.3-6.2-.2.7.2 1.1.2.9 2-3.3 3.3-7.1 5.6-12.5v.8c1.3-1.9 2.8-5.2 4.1-7.3 0-.8.7-2-.1-1.5 5.1-5.9 5.5-13.3 9.9-18.6-.3.7-.6 1.8-.3 1.3l2.2-5.3c-.7.2-.6.5-1.5 1.4 0-.8.4-2.4 1-3.6-.7 2.5.8.4 1.6-.5-.2.1-.3-.3-.5-.3 2.2-2.3-.8-.9 1.4-4.4l.2.3c.5-1.5.7-2.9 1.4-4.4.9-.4-.4 1.6.1 1.9.9-2.1.6-4.7 2-6.4-.2 1-.7 2.3-.9 3.3 1.6-1.8 1.5-2.1 2.2-3.7l-.1.1 1.7-3.5-.6.9c-.3-1.7.1-3.1.7-4.6.5-1.5 1.1-3.1 1.2-5.1-.1 3.9.4.8 1 1.3.5-.9 1.2-2.3 1.3-1.8 0-1.9 1.3-2.9 1.2-5.6.3 0 .5-1.9 1-1.4.4-2.4-.5.5-.8.2 0-1.9.8-3.9 1.5-6.3.7-2.3 1.3-4.8 1.2-7.6.1-2.3-.1-3.7-.2-5.1-.2-1.1-.3-2.2-.4-3.6 0-.5.1-.9.1-1.4.2-.3.3 0 .4.4.1.5.2 1.1.2 1.1.1-.6.2-1.1.3-1.6.1-.5.1-1 .1-1.5 0-1 0-2-.1-3.1.2.4.4 0 .7-.7-1.1-.9-1.9-.3-1.6-2.6zm-116.4-93.9h1-1zm-3.6 0c.2.2 0 .5-.7.5.3-.2-1.1-.3-2.1-.5h2.8zm96.8 173.7c-.2 0-.4 0-.6-.2.3-.6.6-1.2.9-1.9.2.3.1.9-.3 2.1zm21.4-58.6l-.7.7c.1-.8.3-1.6.4-2.4.1.3.2.7.3 1.7zm.9-15.7V202c.1.2.2.5.2.8.1.4.2.8.3 1.1.1.3.1.5.1.5-.1.3-.4.6-.6.5z"/><path d="M421.4 381.1c-.1.1-.1.2-.2.2.1 0 .2-.1.2-.2zM327.7 360.8c-.1-.1-.3-.1-.4-.2.1.1.2.1.4.2zM502.3 191.5v-.4.4zM288.5 149c0-.1.1-.2.1-.2 0 .1-.1.2-.1.2zM288.6 148.8c.1-.1.1-.3.2-.4 0 .1-.1.3-.2.4zM300.7 135.9l.1.1.3-.5zM487.9 265s-.2.1-.3.3l.3-.3zM493.5 251.8l1-1.9c-.5.8-.8 1.4-1 1.9zM497.7 241.1c-.1-.2-.1-.2-.2-.3l.2.3zM407.6 397.4l-.3.3c-.6.8-.2.3.3-.3zM439.8 354c-.2.5-.4 1.1-.7 1.6.6-.7 1-1.3.7-1.6zM351.6 377.1c-.1-.1-.2-.1-.3-.2l.3.2zM439.1 355.6c-.5.6-1 1.4-1.4 2.1.6-.7 1.1-1.4 1.4-2.1zM503.9 191.3s-.1 0-.1-.1l.2.6-.1-.5zM503.6 190.6c0 .3.1.5.2.6l-.2-.6zM503.2 189.4l.3 1.3c0-.5 0-1.1-.3-1.3zM504.2 207.2l.2.2c0-.1-.1-.2-.2-.2z"/><path d="M504.6 207.5l-.2-.2c.4.8-.8 3.4-.5 4.5.2-1.1.8-2.7.7-4.3zM452.5 334.4l1.1-1.2-.2-.9z"/></g><g fill="#eb7e44"><path d="M479.5 194.9c.4.5.9.9 1.5 1.3.1.3-.2.2-.3.2.8.5 1.9 1.1 1.9.3-1-.4-1-.7-2.1-1.1-.6-.5-.8-1.1-.6-1.2-.3-.1-.8-1-1.3-1.1.2.6.5 1.1.9 1.6zM487.9 204.6c-.2-.2-.3-.4-.5-.6.1.2.3.4.5.6-.1 0-.1 0 0 0zM462.3 180.1c0 .1 0 .1 0 0 .1.1.2.1 0 0zM488 205l.3.6c-.1-.3-.2-.5-.3-.6zM434.7 155.2c0 .3-.1.6-.1.8.2-.4 1 1.5.1-.8zM487.7 204.7c.1 0 .3.1.4.3-.1-.1-.2-.3-.2-.4-.2 0-.3 0-.2.1zM342.4 270.5c.6.2 1.4.4 2.2.6 0 0-.6-.1-1.1-.3-.5-.1-1.1-.3-1.1-.3zM357.2 164.6l.3.2c-.1-.1-.2-.2-.3-.2zM334.6 267.8l1.4.7c-.3-.3-.7-.5-1.1-.7h-.3zM399.4 270.2h-.2.2z"/><path d="M492.2 224.5c-.1-.6-.1-1.3-.1-2.1.1-.7.1-1.5.1-2.3s0-1.7-.1-2.5c-.1-.9-.4-1.7-.7-2.6-.9-2.7-1.6-3.3-2.6-5.2-.1-.3-.2-.6-.4-.9.1-.5.8.7.8.7-.2-.8-.4-1.4-.7-2-.3-.6-.6-1.2-1-1.8.2.2.2-.1.2-.6-.6-1-.9-.4-1.4-1.9.3.1.7.3 1.1.7-.4-.6-.8-1.1-1.3-1.7-.5-.5-.9-1.1-1.4-1.6 0-.5.9.5 1.3.8-.5-.7-1.1-1.5-1.7-2.2s-1.2-1.2-1.5-1.3l.4.7c0-.2.3-.2.6.1 1.1.9 1 1.7.9 1.9l-.7-.8c-.2 1.4 2.4 3.3 3.3 5.2l-.8-.3c-2.5-4.6-5.7-8.7-9.5-12.2-.1 0-.1-.1-.2-.1.2-.1.5-.2.7-.4.1.1.2.3.4.5h.8l-1-.8c.1-.4-.2-1-1.1-2.2 0 0-.1-.1-.3-.2-.2-.1-.5-.2-.7-.4-.5-.3-1-.5-1-.5l-.3-.8 1.5 1.2c-.6-1-1.4-1.2-2.1-1.5 0-.3-.2-.6-.5-.9 0 0-.6-.2-1.1-.4-.6-.2-1.1-.3-1.1-.3-.1-.4 1.2.1 0-.9-1.1-.3.5 1.1-1.1.3-.7-.9-.3-.9-1.6-1.4-.1-.3.2-.2.7 0-1.1-.4-2.7-1.5-3.4-1.4-.8-.9-3.5-1.7-3.1-2.3-.4 0-2.1-.4-3-.8 1.1 0 .2-.4-.9-.9s-2.3-1-1.9-1.3c-1.6.2-4.9-1.6-7.4-2 .2 0 .5 0 .6.1-1.3-.5-1.6-.9-2.4-1.3-.4.6-2.5 0-3.7 0-1.5-1.1 1.2-.4.9-1.1-.1.5-3-.4-2.6.2-.2-.2-.2-.2-.2-.3s-.1-.1-.1-.1c0-.1 0-.2.2-.4-.3.3-.4.2-.5 0-.1-.4-.3-.9-.7-1.3-.3-1.9.5-.7-.5-2.6-.1-1 .8.6.8.6-.8-2-.9-.7-1.4-1-1.1-2.3 0-1.2 0-2.2-.7-1.4-1.7-2.3-2.1-3.4.1-.1 0-.3.2-.1-1.1-1.4-1.8-4.6-3.1-6.1v-.3c-.2.4-.4.6-.7.6-.4-.9-1-1.5-.8-2 .2.5.4.5.6.7l-.5-.9c.2-1 .7 1.2 1.1 1-.9-1.7-2.2-3.6-2.6-5.1.4-.5 1.5 3.1 1.2 1.1l.7 2.2c.2-2 .5 1.3.7-.5-1-2.9-1.5-3-2.5-5.9-.5-.5-.3.4-.9-.1-.3-.5-.5-.9-.6-1.2-.1-.2-.1-.3-.2-.5 0-.1 0-.2-.1-.2 0-.1-.1-.2-.1-.3-.2-.7-.4-1.2-.7-1.7-.2-.5-.5-.9-1-1.3s-1.4-.8-2.7-.7c-.7.2-1.1.6-1.7 1-.1.1-.3.2-.5.4-.2.1-.3.3-.5.4-.2.2-.3.3-.6.5-.2.2-.4.3-.6.5l.1-1c-2 2.2-.5 1.8-2.8 3.9.2-.6 1.4-1.9 1-1.6-1.7 1.2-.7 1.3-1.7 2.5l-.6-.1c-2 2.5-3.8 5.5-5.7 8.4 0-.3.2-.8-.4-.3-2.3 3.7-5.3 7.8-7.6 11.3 0 0 .1.1.1.3s.1.4.1.4c-.1.1-.2-.1-.2-.3h-.2v.2c.1.1.2.4.1.4-.5-.1-.6-.5-.4-.5h-.8c-.1 0-.2 0-.3-.1-.2 0-.5-.1-.7-.1-1-.2-2-.3-3-.5-2.1-.4-4.2-.8-5.6-1.3h.6c-1.2-.3-1.9-.1-2.6 0s-1.3.2-2.4-.1h.4c-5.2-.8-10.9-.4-14.9-.9-.4.4-1.6.4-2.9.4-1.2.1-2.4.2-2.5.7-3-.1-2.2-.4-6.3-.1-1 .1-1.4.8-2.6.9v-.5s-.4.1-.7.2c-.2 0-.4.1-.5.1h-.2l-.2-.4c-.1-.2-.1-.4-.1-.4l-.7-.4c.2.3.4.6.3.7-.3-.2-.6-.4-.8-.8-.2-.3-.4-.8-.6-1.2-.3-.8-.3-1.5-.2-1.6l-.3-.6c-.2-.4-.4-.9-.7-1.4-.2-.6-.5-1.1-.7-1.5s-.3-.7-.3-.7c.2 0 .4.4.6.8-.7-1.4.6-.3-.6-2.1 0 .3-.3-.1-.5-.1-.1-1.2-1.3-3.8-2.7-5.5l.5.1c-1.1-1.7-2.7-3.3-4.6-4.4l-.2-.1-.1-.1-.1-.1-.6-.3c-.4-.2-.8-.2-1.2-.3-.8-.1-1.5-.1-2.3.1-.7.2-1.5.5-2.2 1.1-.3.3-.6.6-.9 1-.2.4-.4.9-.5 1 0-.1.1-.1.1-.2.1-.1.1-.2.2-.3.1-.2.2-.3.4-.4.2-.2.3-.2.4-.1 0 .1 0 .3-.1.5 0 .1-.1.3-.1.5-.1.2-.1.3-.1.4l-.7.2c0 .8.7-1 .4.5-.6 1.3-1 .7-.8-.2l-.5 1.7c-.2 0-.1-.4-.2-.6 0 .8-1.7 2.6-1.6 3.9h-.2c-1.5 3.7-2 5.4-3.1 8.4.4.2-.1 1.4-.1 2.4-1 2.2-2.2 4.5-3.1 7.2-.4 2 .2.7.2 1.6-.4 0-1.3 2.7-1.1 1.2-.5 1.6-.8 2.7-1.1 3.8-.2.6-.3 1.2-.5 1.9 0 .1 0 .3-.1.5-.1 0-.1.1-.2.1l-.1.1h-.1l-.2.1h.5c.1 0 .2.1.1.1-.1.1-.2.1-.4.1-.2.1-.4.1-.6.1-.3.1-.6.1-.6 0l.2-.1c-2.2 1.3-4.8 2.5-7.2 4-2.4 1.5-4.5 3.2-5.5 5l.1-.2s-.6.8-1.2 1.7c-.3.4-.6.9-.8 1.2-.2.3-.3.6-.3.6-1.2 1.5.4-1.1-.6-.1-1.1 2-2 3.4-3 4.8-.9 1.4-1.7 2.7-2.3 4.5-1.2 1-2.2 3.3-3 5.9-.8 2.5-1.4 5.2-2.2 7l.3-.2c.1 1-.4 1.1-.6 1.8.2-.1.5-1 .5-.4-.6 4.1-1.1 8.4-1 12.9 0 2.2.2 4.5.7 6.7s1.1 4.4 2 6.5c.7 1.5 1.3 1.7 1.8 2 .6.3 1 .8 2 2.6l-1.1-.6c2.1 2.5 4.4 4.9 6.9 7.1 2.5 2.1 5.3 3.9 8.1 5.1-.4-.1-.5.1-1-.2 1 1 4.2 2.2 4.4 1.9.8.5.1.4.5.8 1 .8 3.1 1 3.6 1.6.1.1-.2 0-.4 0 1 .4 3.3 1.5 2.8.9 2 1.1 4.1 1.5 5.7 2.4 1.3 0 3.6 1.6 4.2 1-.2.3.7.8 1.9 1.1 1.2.3 2.6.6 3.3.6-.5.1 1.2.5.6.7 1.6.4 3.2.5 3 .1 1.4.7 3 .8 4.4.8s2.6-.1 3.5.6c4.9-.2 9.4-.6 13.7-.9-.1.8-4.8.2-4.6 1 4.2-.4 6.5-1.1 10.6-1.1 1.1 0-.6.4-.9.5 4.1-.5 8-.4 11.6-1 0 .1-.4.2-.8.2.7-.1 1.7 0 1.6-.3l-.7.1c-1.2-.4 2.8-1.2 2.9-1.5-1.2 1 3.6 0 1.8 1.4.5-.1 1.1-.3.9-.5.7 0 .9.1.2.4 2.6-.3 1.6-.6 4-.8 0 .2-.5.3-.7.5 1.2-.4 2.3-.8 4.3-.7-.1.1.1.2-.3.2 3.3-.2 5.6-1.1 9.3-.9-1.1.7 1.3.2 1.5.8l2-.3-.8-.3c1.8-.1 3.3-.6 4.8-.4l-1.3.3 3.3-.2-1.9-.2c1.8-.4-.2-.8 2.1-.7-.5.1 1.8-.1 2.7.2.9-.2 1.7-.5 3-.4.3.2-.2.7 0 .8.8-.6 4.1-.4 5.2-1-.4.2-.3.5-.2.5l.7-.5c.8.1.9.1.8.4 2.5-.1-.8-.7 2.1-.6-.2.1-.1.1-.6.2 2.9-.1 5.6-.8 8.3-1 .9.5-2.3.5-1.3.9 3.9-.6 7.9-1.9 11.6-2.7l-.7.1c.3-1 2.8-.3 4.6-1.2-.4.2-.4.6-.4.5 2.5-.6 5-1.8 8.5-3.6l-.4.4c1.5-.4 3.7-1.6 5.2-2.3.3-.4 1.2-.8.5-.9 2.5-.7 4.5-2.1 6.3-3.7 1.8-1.5 3.4-3.2 5.4-4.3-.4.4-.8 1-.5.7 0 0 .7-.7 1.3-1.4.6-.7 1.3-1.5 1.3-1.5-.5 0-.5.2-1.3.6.2-.5.8-1.4 1.4-2.1-.9 1.5.5.4 1.1 0-.2 0-.1-.3-.2-.3.9-.6.8-.8.7-1-.1-.3-.1-.6.9-1.6l.1.2c.3-.4.5-.9.7-1.4s.4-.9.7-1.4c.6-.2-.4 1-.1 1.3.8-1.3.9-3 1.9-4.1-.2.7-.6 1.5-.8 2.1.6-.5.9-.9 1.1-1.2s.3-.6.6-1.1l-.1.1s.1-.1.2-.4c.1-.2.3-.5.4-.8l.6-1.2-.4.6c-.1-1.1.1-2.1.5-3.1.3-1 .7-2.1.6-3.5.1 2.6.3.5.8.8.3-.6.6-1.6.7-1.3-.1-.7.1-1.2.2-1.7.1-.3.1-.6.2-.9 0-.4 0-.8-.1-1.2.2-.1.1-1.4.5-1-.1-1.4-.3.6-.5.4zm-1.2-7.7s-.1.3-.3.6c-.1-.5-.2-1.1-.3-1.6.2.1.3.3.6 1zm-4-11.3c.4.4.7.8.7.8 0 .3-.1.6-.2.5l-.9-1.8c.1.2.2.4.4.5zm-74.3-50.3c-.1.2-.3.4-.6.9.2-.4.4-.7.6-.9zm-1.9 2.9c.2 0 .3.2 0 .5 0-.2-.6.5-1 1 .2-.5.6-1 1-1.5zm64.2 95.3c-.1-.1-.2-.1-.3-.3.4-.3.7-.6 1.1-.9 0 .2-.2.5-.8 1.2z"/><path d="M354.7 158.5c.1.2.2.3.3.6l-.3-.6zM326.4 264.5c-.1 0-.2-.1-.2-.1.1 0 .1.1.2.1zM483.1 198.8c0 .1 0 .1.1.2l-.1-.2zM359.9 165.6v.1l.3-.1h-.3zM483 246.5c.1 0 .2 0 .3-.2 0 0-.1.1-.3.2zM489.3 236.8c-.3.5-.6.9-.7 1.2l.4-.6c.1-.3.3-.6.3-.6zM491.3 230.8c-.1-.1-.1-.2-.2-.2l.2.2zM385.4 271.3h-.3c-.7.2-.2.1.3 0zM421.1 268.6c-.4.1-.7.2-1.1.3.6 0 1.1 0 1.1-.3zM344.9 271.2c-.1 0-.2 0-.2-.1l.2.1zM418.3 268.9c.6.1 1.2 0 1.7-.1-.6.1-1.2.1-1.7.1zM484 198.4l.2.3-.2-.3zM483.9 198.4l-.3-.3c.2.1.3.3.3.3zM483 197.5l.6.6c-.1-.3-.3-.6-.6-.6zM489.2 207.7h.2-.2zM489.5 207.8h-.2c.4.4.5 2.3 1 2.9-.1-.8-.3-2-.8-2.9zM437.7 268l.5-.5-1.5.3z"/></g><g fill="#bfaf9c"><path d="M497.4 207.2c.1.1 0 .1 0 .2.2-.1.5-.3.4-.6-.3.2-.3.1-.5.4-.2 0-.3-.1-.3-.2-.1.1-.3 0-.3.2.1.1.2.1.4.1 0 0 .1-.1.3-.1zM499.6 207.8c-.1 0-.1-.1-.2-.1.1.1.1.1.2.1zM484.9 209.1l.2.2c-.2-.2.2-.3-.2-.2zM499.7 207.9c-.1-.1-.1 0-.1 0h.1zM467.9 221.1c-.1-.1-.2-.1-.3-.1v.1h.3z"/><path d="M452.1 221.2c.1.2.2.3.4.5-.1.4.3 1 .9 1.3s1.3.5 1.8.7v-.2c.3-.1.3.1.5.2 0-.1-.3-.1-.1-.2 1.1-.1 1.7-.3 2.6-.4.8-.1 1.6-.1 2.4-.2.6-.1.1-.8.9-.6l-.1.3c1.1-.6 2.3-.5 3.4-1-.1.1 0 .2-.1.2.3.1.9-.2.8-.3.2 0 .1.1.2.2.3.1.5-.4.7-.2l-.1.1c.1-.1.7-.1.5-.3.4 0 .8-.3 1.1-.2.2-.3.7 0 .7-.4.1.4.8.1 1-.1-.1.1.3.1.2.2.3-.1.6-.2.5-.4.7.3 1-.6 1.5-.1.8-.4 1.6-.7 2.4-1 .1.4-.9.2-.8.6.7-.3 1.1-.7 1.9-.8.2 0-.1.2-.1.3.7-.3 1.5-.3 2.1-.7l-.1.1c.1 0 .3 0 .3-.2l-.1.1c-.3-.2.4-.6.4-.8-.1.5.7 0 .5.6.1-.1.2-.2.1-.3.1 0 .2.1.1.2.5-.2.2-.3.7-.4 0 .1-.1.1-.1.2.2-.2.4-.4.7-.4 0 .1 0 .1-.1.1.6-.2 1-.7 1.7-.7-.1.4.3.1.4.4l.3-.2-.2-.1c.3-.1.6-.4.9-.3l-.2.2.6-.2h-.4c.3-.2-.1-.4.3-.4-.1.1.3-.1.5.1.1-.1.3-.3.5-.3.1.1 0 .3.1.4.1-.3.7-.2.9-.6-.1.1 0 .2 0 .3l.1-.2c.2 0 .2.1.2.2.5-.1-.2-.3.3-.3 0 0 0 .1-.1.1.6 0 1-.4 1.5-.4.2.3-.4.2-.2.4.7-.2 1.4-.7 2.1-.8h-.1c0-.4.6.1.9-.2-.1.1-.1.3 0 .2.5 0 .9-.3 1.6-.6l-.1.1c.3 0 .7-.1 1.1-.1.1-.1.2-.2.1-.3 1.1.4 1.7-.7 2.6-.4-.1 0-.2.1-.1.1l.7-.3c-.1-.2-.1-.1-.3-.2.1-.1.2-.3.4-.3-.3.2.1.3.2.4v-.2c.4.2 0-.4.5-.3v.1c.2-.1.3-.3.5-.3.1.2-.2.1-.1.3.3-.1.5-.5.8-.4-.1.1-.3.1-.4.2.3.2.4.1.6.1h.5-.1c.1-.3.3-.4.5-.5.2 0 .4-.2.5-.5-.2.6 0 .2.1.4.2 0 .4-.1.4 0 0-.2.2-.2.3-.3.1-.1.2-.2.2-.5.1 0 .2-.3.3-.1.1-.4-.2 0-.2-.1 0-.2.1-.3.1-.4.1-.1.2-.3.2-.5.1-.3.2-.8 0-1.1-.2-.6-.5-.6-.8-1 0-.1-.1-.1-.1-.2.1-.1.3 0 .3 0 0-.3-.2-.6-.4-.7.1 0 .1-.1.1-.2-.2-.2-.3.1-.5-.2.1 0 .3-.1.4-.1-.3-.2-.6-.3-.9-.3 0-.2.3-.1.4-.1-.2-.1-.4-.2-.6-.2s-.4 0-.5.1l.2.1c-.1 0 0-.2.1-.2.4-.1.4.3.3.3l-.2-.1c0 .3.2.3.4.4.2.1.5.1.6.3H499.2c-.6-.7-1.6-1-2.7-.8v-.4h.1l.1-.3-.3.1c-.1-.1-.2-.3-.5-.3l-.4.3-.2-.2.3-.1c-.2-.1-.3.1-.4.2l-.2-.2-.3.4c-.1-.1.1-.3-.2-.3-.2.2.3.3 0 .5-.2-.1-.2-.3-.4-.1-.1-.1 0-.2.1-.2-.2.2-.5.2-.6.4-.3-.2-.7.2-.7-.1 0 .1-.3.4-.5.4.3-.5-.7.1-.7-.3-.2.4-.9.4-1.3.7l.1-.1c-.3 0-.4-.1-.5-.1 0 .3-.3.5-.5.7-.4-.2.1-.4-.1-.7.1.3-.5.4-.3.6-.3-.1-.2 0-.4-.3 0 .4-.2.1-.4.4-.4-.1-.2-.3-.5-.1-.2-.1.1-.3.1-.3-.4.1-.1.3-.2.5-.4.2-.3-.2-.5-.3-.3.1-.4.5-.6.5 0 0-.1-.1 0-.1-.3.3-.9.2-1.2.6 0 0-.1 0-.1-.1.1.1.1.3.1.4-.2 0-.3.3-.4.1.1 0 .1-.1.1-.2l-.2.1c-.2-.2.2-.2.2-.4-.3.2-.7.5-1 .5-.1-.3.6-.2.2-.4h.4c-.4-.4.3 0-.1-.4-.6 0-.6.3-1.2.3-.1.2.1.2 0 .4-.7.5-.8-.5-1.3 0-.1.2-.1.6-.5.5l.1-.3c-.5.1-.2.5-.8.4.1-.1.4-.2.3-.2-.4-.2-.2.2-.5.3l-.1-.3c-.6.2-1.1.5-1.8.7 0-.1.1-.2-.1-.2-.8.3-1.7.4-2.5.4l-.2.3c-.1 0-.2-.1-.1-.1-.3 0 0 .2-.1.3-.2.1-.3-.1-.2-.2-.5.3-1.4.8-2 .7l.1-.1c-.5 0-.4.6-.8.5l.1-.1c-1 .1-2 .6-2.8.4-.1.4-1 .1-.9.5-.6-.1-.5-.2-1.3-.2-.2 0-.2.4-.5.5l-.1-.2-.3.3-.2-.3-.2.1c.1 0 .2.1.2.1-.3.2-.9 0-1-.1l-.8.4c0-.1.1-.2.2-.3-.4.4-.1-.2-.5.1.1 0 0 .2 0 .2-.2-.1-.7 0-1.1.2v-.2c-.7.1-1.3.4-2.1.6.3 0 .3.3.1.4l-.1-.2c-.1.2.2 0 0 .3-.3 0-.2-.3-.1-.4l-.3.2v-.2c-.1.2-.6-.1-.8.2v-.1c-.7.2-1 .3-1.6.5 0 .2-.2.2-.3.5-.4 0-1 0-1.5.1-.3.2-.1.2-.2.4-.1-.2-.6-.1-.4-.3-.6.2-.8.2-1.5.6.1.1.2.1.2.2-.1.1-.3 0-.3-.1-.2.1-.5.2-.8.3s-.6.2-.9.4c-.6.3-1.1 1-1.1 1.5v-.1c-.1 0 0 1 0 1 0 .4-.2-.3-.3 0 .2.5.2.9.3 1.3-.1.7 0 .9.1 1zm41.7-7.1c0-.1 0-.1-.1-.2.1 0 .2 0 .2-.1.1.2 0 .3-.1.3zm6.3-3.7s-.1.1-.2.1v-.3c.1 0 .1.1.2.2zm-.7-2c0 .1-.1.2-.1.2-.1-.1-.1-.2-.2-.3.1 0 .3.1.3.1zm-20.5 2.4s-.1 0-.2.1c0-.1.1-.1.2-.1zm-.7.2v.2c0-.1-.2-.1-.3-.1.1-.1.2-.1.3-.1z"/><path d="M467.3 213v.1l.1-.1zM497.6 213.6h.3-.3zM499.1 213.1v-.1.1zM476.9 218.7s-.1 0 0 0c-.2.1-.1.1 0 0zM483.4 216.7l-.2.2c.1-.1.2-.1.2-.2zM469.6 220.7h-.1zM483.2 216.8c-.1 0-.2 0-.3.1.1 0 .2 0 .3-.1zM498.3 206.9c-.1 0-.1 0 0 0zM497.9 206.9h.2s-.1-.1-.2 0zM500.1 208.4c.1.1 0 .5.2.6 0-.1 0-.4-.2-.6zM486.5 216.1l-.2.1.2.1zM500.1 224.1c-.3.2-.3.1-.5.3-.1 0-.2-.1-.2-.2-.1.1-.2-.1-.3.1.2.2.4.2.7.2 0 .1 0 .1-.1.2.2-.2.4-.3.4-.6zM501.7 225.3l-.1-.1c0 .1 0 .1.1.1zM488.5 224c0-.2.3-.2-.1-.2 0 .1.1.2.1.2zM501.7 225.4c-.1-.1-.1 0-.1 0h.1zM472 232.1l-.2-.2v.1l.2.1z"/><path d="M502.1 228c0-.2 0-.4-.1-.5-.2-.6-.4-.7-.7-1v-.1c.1-.1.3.1.3.1.1-.3-.1-.5-.3-.7.1 0 .1-.1.1-.2-.2-.2-.3 0-.4-.3.1 0 .2-.1.4 0-.2-.2-.5-.3-.8-.4 0-.2.3-.1.4 0-.3-.2-.8-.4-1-.2l.1.2c-.1 0 0-.2.1-.2.3 0 .3.3.2.3l-.2-.1c0 .2.1.3.3.4.2.1.4.2.5.4H500.7c-.5-.7-1.2-1.1-2.3-1.1v-.4h.1l.1-.3-.2.1c0-.2-.1-.3-.4-.4l-.4.2-.1-.2h.3c-.2-.2-.3 0-.4.1 0-.1-.1-.2-.2-.2l-.4.4c0-.1.2-.3-.1-.4-.2.2.2.3-.1.5-.2-.2-.1-.3-.3-.2 0-.1 0-.2.1-.2-.2.1-.5.1-.6.3-.2-.2-.6.1-.6-.3-.1.1-.3.3-.5.3.3-.4-.7 0-.6-.5-.2.4-.8.2-1.3.4l.1-.1c-.2 0-.3-.1-.5-.2 0 .3-.4.4-.6.6-.3-.3.2-.4.1-.7 0 .3-.5.3-.4.5-.2-.2-.2-.1-.3-.4 0 .4-.2.1-.4.3-.3-.2-.1-.4-.4-.2-.2-.1.1-.3.1-.3-.4 0-.2.3-.2.5-.4.1-.2-.2-.4-.4-.3.1-.5.4-.7.4 0 0-.1-.1 0-.1-.3.2-.8 0-1.2.3v-.1c.1.2.1.3.1.4-.2 0-.3.2-.4 0 .1 0 .1-.1.1-.1l-.2.1c-.2-.3.2-.1.2-.3-.3.1-.7.3-1 .3-.1-.3.6-.1.2-.3l.4.1c-.3-.4.2 0 0-.4-.5-.1-.6.2-1.1.1-.1.2 0 .2-.1.4-.7.3-.6-.7-1.1-.3-.1.2-.2.5-.6.4l.1-.3c-.5 0-.3.5-.8.3.1-.1.4-.1.3-.1-.3-.2-.2.2-.5.2l-.1-.3c-.5.1-1.1.3-1.7.3 0-.1.1-.2 0-.3-.7.2-1.6 0-2.3-.1l-.3.2c-.1 0-.1-.1-.1-.2-.3-.1 0 .2-.1.3-.2 0-.2-.1-.1-.2-.5.2-1.4.5-1.9.2l.1-.1c-.4-.1-.4.5-.8.3h.1c-.9-.1-1.8.2-2.5-.2-.1.4-.9-.1-.9.4-.5-.2-.4-.3-1.1-.5-.2 0-.3.3-.5.4v-.3l-.3.3-.2-.3-.2.1c.1 0 .2.1.2.2-.3.1-.8-.2-.8-.3l-.8.2c0-.1.1-.1.3-.2-.4.3-.1-.3-.5 0 .1.1 0 .2 0 .2-.2-.1-.6-.1-1-.1l.1-.2c-.6 0-1.2.1-1.9.1.2.1.2.4 0 .4l-.1-.3c-.1.2.2.1 0 .3-.2 0-.2-.3 0-.4l-.3.1c0-.1 0-.1.1-.2-.1.2-.5-.3-.7 0v-.1c-.7 0-1 .1-1.5.1 0 .2-.2.2-.4.4-.4-.1-.8-.2-1.3-.2-.3.1-.1.2-.2.3 0-.2-.5-.2-.3-.3-.3 0-.5 0-.7.1-.2 0-.5.1-.9.3.1.1.2.1.2.2-.1 0-.4 0-.4-.1-.2.2-.5.2-.7.4-.1.1-.3.1-.4.2-.1.1-.3.2-.4.2-.5.3-.9.8-.9 1.3v-.1.9c-.1.4-.1-.3-.3 0 .1.3.1.5.1.6v.5c0 .2 0 .3.1.5 0 .2.1.3.2.5-.2.4.1 1 .6 1.4l.4.3c.1.1.3.2.4.2.3.2.5.3.7.4v-.2c.3-.1.2.2.4.2 0-.1-.2-.2-.1-.2 1 .1 1.6 0 2.3.1.7.1 1.4.2 2.1.2.5 0 .3-.8.9-.4l-.2.3c1-.4 2.1 0 3.1-.3-.1.1-.1.1-.2.1.2.2.8 0 .8-.2.2 0 0 .1.1.2.2.1.5-.3.7-.1l-.1.1c.1-.1.7 0 .5-.2.4.1.7-.1 1 0 .2-.3.7.1.7-.3 0 .4.7.3.9.1-.1.1.2.1.1.3.3 0 .5-.1.5-.3.5.4 1-.4 1.3.2.8-.2 1.6-.4 2.3-.5 0 .4-.8.1-.8.4.7-.2 1.1-.5 1.8-.4.2 0-.1.2-.2.2.7-.2 1.3 0 2-.2l-.1.1c.1 0 .3 0 .3-.1h-.1c-.2-.2.5-.5.5-.7-.2.5.6.1.3.7.1 0 .2-.1.2-.2.1 0 .2.1 0 .2.4-.1.3-.3.7-.3 0 .1-.1.1-.1.2.2-.2.4-.3.7-.3 0 0 0 .1-.1.1.6 0 1-.4 1.6-.3-.2.4.2.1.3.4l.3-.1-.1-.1c.3 0 .6-.2.8-.1l-.2.1.6-.1-.3-.1c.3-.2 0-.4.4-.3-.1 0 .3 0 .5.2.1-.1.3-.2.5-.1.1.1 0 .3 0 .4.1-.3.7-.1.9-.4-.1.1-.1.2 0 .3l.1-.2c.1.1.2.1.1.2.4 0-.1-.4.4-.2l-.1.1c.5.1.9-.2 1.4-.1.1.3-.4.1-.2.3.7-.1 1.3-.4 2-.3h-.1c.1-.4.5.2.8 0-.1 0-.1.2-.1.2.4.1.9-.1 1.5-.3l-.1.1c.3.1.7 0 1 .1.1-.1.2-.1.1-.3.9.6 1.6-.4 2.4.1-.1 0-.2.1-.1.1l.6-.1c-.1-.2-.1-.1-.2-.3.1-.1.3-.2.4-.2-.3.1 0 .3.1.4v-.2c.3.3 0-.4.5-.2v.1c.2-.1.3-.2.5-.2.1.2-.2.1-.2.3.3 0 .5-.5.8-.3-.1.1-.3.1-.4.2.3.2.3.2.6.2h.3-.2.5-.2c.1-.3.2-.4.4-.5.2-.1.4-.2.4-.5-.1.6.1.2.2.4.1 0 .3-.1.4 0 0-.3.4-.2.4-.7.1 0 .2-.2.3-.1.1-.3-.2 0-.2-.1 0-.3.2-.5.3-.8.5.3.6.1.6 0zm-.7-2.2c0 .1-.1.1-.2.2 0-.1-.1-.2-.2-.3.2 0 .4.1.4.1zm-18.6-1.5h-.2.2zm-.5 0c0 .1 0 .2-.1.2 0-.1-.1-.1-.2-.2h.3zm13.6 6.3v-.2h.2l-.2.2zm5.6-2.8v-.3c.1 0 .1.1.2.2 0 0-.1.1-.2.1zM472.3 224.1zM500.9 230.2c0-.1-.1-.1 0 0zM480.3 231.6s-.1 0 0 0c-.2.1-.1.1 0 0z"/><path d="M486.3 231c-.1 0-.1.1-.2.1.1 0 .2 0 .2-.1zM473.5 232.1zM485.8 231.1h.3c-.1 0-.2-.1-.3 0zM500.6 224.3zM500.3 224.2h.2-.2zM502.1 226.6c0-.1.1-.4 0-.6h-.1c.2 0-.1.5.1.6zM489.2 231l-.2.1.1.1zM495 240.4c.2-.1.5-.1.5-.4-.3.1-.3 0-.6.2-.1 0-.2-.2-.2-.3-.1.1-.2-.1-.3 0 .1.2.3.3.6.3.1.1 0 .2 0 .2zM496.7 241.5l.1.1s-.1 0-.1-.1zM483.8 237.9c0 .1.1.1.1.2-.1-.2.3-.2-.1-.2zM496.7 241.7c.1 0 .1 0 .1.1l-.1-.1zM465.2 243.8l-.2-.2v.1l.2.1z"/><path d="M496 240.9c.1-.1.3 0 .4.1l-.4-.4c-.2-.1-.3-.1-.5-.1l.1.2c-.1-.1.1-.2.2-.2.4.1.2.4.2.4l-.2-.1c-.1.2 0 .4.2.5.1.1.4.3.4.5h-.3c-.2-.8-.9-1.4-2-1.6 0-.1.1-.2.1-.4l.1.1.2-.2h-.3c0-.2-.1-.3-.3-.5l-.4.2-.1-.2h.3c-.2-.2-.3-.1-.4 0 0-.1-.1-.2-.1-.2l-.4.3c0-.2.2-.3 0-.4-.2.1.1.4-.2.4-.2-.2-.1-.3-.3-.2 0-.1 0-.2.1-.2-.2.1-.5 0-.6.2-.2-.2-.7 0-.6-.4-.1.1-.4.2-.6.2.4-.4-.7-.1-.5-.6-.3.4-.9.1-1.3.2l.1-.1c-.2-.1-.3-.2-.4-.3-.1.3-.5.3-.7.5-.3-.3.2-.4.2-.7 0 .3-.5.2-.5.4-.2-.2-.2-.1-.3-.4-.1.4-.2 0-.4.3-.3-.2 0-.4-.4-.3-.2-.1.2-.2.2-.2-.4-.1-.2.3-.3.4-.4 0-.2-.2-.3-.4-.3 0-.5.3-.7.3v-.1c-.3.2-.8-.1-1.2.2v-.1.4c-.2 0-.3.2-.4-.1.1 0 .1-.1.2-.1l-.2.1c-.1-.3.2-.1.3-.3-.3.1-.8.2-1 .1 0-.3.6 0 .3-.3l.4.2c-.2-.5.2.1 0-.4-.5-.1-.6.1-1.1-.1-.1.1 0 .2-.1.4-.8.2-.5-.8-1.1-.5-.2.2-.3.5-.6.3l.2-.3c-.5-.1-.3.4-.8.1.1-.1.4-.1.3-.1-.3-.3-.3.1-.5.1v-.3c-.5 0-1.1.1-1.7.1 0-.1.2-.2 0-.3-.8.1-1.6-.2-2.3-.5l-.3.2c-.1 0-.1-.1 0-.2-.3-.1 0 .2-.2.2s-.2-.2-.1-.2c-.5.1-1.5.3-1.9 0l.1-.1c-.4-.1-.5.4-.9.2h.1c-.9-.2-1.9-.1-2.5-.5-.2.3-.9-.2-1 .2-.5-.3-.3-.4-1-.6-.2 0-.3.3-.5.3v-.3l-.3.2-.5.1h-.2c.1 0 .2.1.2.2-.4.1-.8-.3-.8-.4l-.8.1c0-.1.2-.1.3-.2-.5.2-.1-.3-.5-.1 0 .1 0 .1-.1.2-.2-.2-.6-.2-1-.2l.1-.2c-.6-.1-1.3 0-1.9-.1.2.1.2.4 0 .4l-.1-.3c-.1.2.2.1-.1.3-.2-.1-.1-.3 0-.4l-.3.1c0-.1.1-.1.1-.2-.1.2-.5-.3-.7 0v-.1c-.7-.1-1 0-1.5 0 0 .2-.2.2-.4.3-.4-.1-.8-.3-1.3-.3-.4.1-.1.2-.3.3 0-.2-.5-.2-.2-.4-.6 0-.7 0-1.5.1.1.1.2.1.1.2-.1 0-.3-.1-.3-.2-.2.1-.5.1-.8 0h-.9c-.3.1-.7.1-.9.3-.2.2-.5.4-.5.7v-.1s-.1.2-.2.5c-.1.2-.1.5-.1.5-.2.4 0-.3-.3-.1 0 .3 0 .5-.1.7 0 .2-.1.4-.1.5-.1.3-.1.7.1 1.1-.1.2-.1.4-.1.7s.2.5.3.8c.3.5.8.9 1 1.4v-.1c.3 0 .2.2.3.4 0-.1-.1-.2 0-.2l.3.2.3.1c.2.1.4.2.7.2l.7.1.5.1c.7.2 1.4.3 2.1.5.5.1.4-.7 1-.3l-.2.3c1.1-.2 2.1.2 3.2 0-.1.1-.1.1-.2.1.2.2.8.1.8-.1.2 0 0 .1.1.2.2.1.6-.2.7 0l-.1.1c.2-.1.7.1.5-.2.4.1.7 0 1 .1.2-.2.6.2.7-.2-.1.4.6.4.9.2-.1.1.2.1.1.3.3 0 .5 0 .5-.2.5.5 1.1-.3 1.3.3.8-.1 1.6-.2 2.4-.2-.1.4-.8 0-.8.3.7-.1 1.2-.4 1.8-.2.2.1-.1.1-.2.2.7-.1 1.4.2 2 0l-.1.1c.1 0 .3.1.3-.1h-.1c-.2-.3.5-.5.6-.6-.3.5.6.2.2.8.1 0 .2-.1.2-.2.1 0 .1.1 0 .2.5 0 .3-.2.7-.2 0 .1-.1.1-.1.2.2-.1.4-.3.8-.2 0 0 0 .1-.1.1.6 0 1-.3 1.7-.1-.2.3.2.1.2.4l.4-.1-.1-.2c.3 0 .6-.2.8 0l-.2.1h.6l-.3-.2c.3-.1 0-.4.4-.3-.1 0 .3 0 .4.2.2-.1.3-.2.5-.1 0 .1-.1.3-.1.4.2-.2.7 0 .9-.2-.1.1-.1.2-.1.3l.1-.2c.1.1.1.1.1.2.4.1-.1-.4.4-.2l-.1.1c.5.1 1 0 1.4.1.1.3-.4 0-.3.3.7 0 1.4-.2 2-.1h-.1c.1-.4.4.3.8.1-.1 0-.1.2-.1.2.4.1.9 0 1.6 0l-.1.1c.2.1.7.1.9.2.1-.1.3-.1.2-.2.8.7 1.7-.1 2.4.5-.1 0-.2.1-.2.1h.7c0-.2-.1-.1-.2-.3.1-.1.3-.2.5-.1-.3.1 0 .3.1.4v-.2c.3.4.1-.4.5-.1v.1c.2 0 .4-.1.5-.1 0 .2-.2.1-.2.3.3 0 .6-.3.8-.1-.1.1-.3.1-.4.1.2.3.3.2.5.3 0 0 .1 0 .3.1h.3-.1c.2-.3.3-.4.5-.4s.4-.1.5-.4c-.3.5 0 .2.1.5.2 0 .4 0 .4.1.1-.3.5-.1.6-.6.1.1.2-.2.3 0 .2-.3-.2 0-.2-.1.1-.3.3-.4.6-.6.2-.2.5-.5.4-.9 0-.3 0-.5-.1-.7-.1-.1-.1-.3-.2-.5v-.1c.1-.1.3.2.3.2.1-.3.1-.5 0-.8.1 0 .1 0 .2-.1-.1-.2-.3-.1-.3-.4.1 0 .3 0 .4.1-.4 0-.7-.2-.9-.4zm-18.1-3.4h.2c0 .1-.1.1-.2 0zm-.4 0c0 .1 0 .2-.1.1l-.2-.2c.1.1.2.1.3.1zm11.9 8v-.2h.2c.1.1 0 .2-.2.2zm6.6-1.5h-.2c0-.1.1-.2.1-.3.1.1.1.1.1.3zm.1-1.9c0-.1 0-.2-.1-.3.1.1.3.2.3.2 0 .1-.1.1-.2.1zM467.5 236v.1-.1zM492.9 246.3l.3.1c-.1-.1-.2-.1-.3-.1zM494.4 246.1v-.1.1z"/><path d="M473.6 244.3s-.1 0 0 0c-.2.1-.1.1 0 0zM479.8 244.5c-.1 0-.1.1-.2.1.1 0 .1 0 .2-.1zM466.7 243.9zM479.3 244.5c.1.1.2.1.3 0h-.3zM496 240.3s-.1 0 0 0zM495.7 240.2l.2.1c-.1-.1-.2-.2-.2-.1zM496.9 242.4c.1.1-.2.5-.1.6 0-.1.2-.4.1-.6zM482.5 245.2l.2-.2h-.3zM317.3 224v.2c.2-.1.4-.3.3-.6-.2.2-.3.1-.5.4-.1 0-.3-.1-.2-.2 0 .1-.2 0-.3.2.3.2.5.2.7 0zM319.4 224.4h-.2.2zM306 225.8l.2.2c-.1-.2.3-.4-.2-.2zM319.5 224.5h-.1.1zM291.8 237.2c-.1-.1-.2-.1-.2-.1v.1h.2z"/><path d="M291.6 237.1c.1-.3.7 0 .6-.4.1.4.7.1.9-.1-.1.1.2.1.2.2.3-.1.5-.2.4-.4.6.3.9-.6 1.3-.1.8-.4 1.5-.7 2.2-.9.1.4-.8.2-.7.6.6-.3 1-.7 1.7-.8.2 0-.1.2-.1.3.6-.3 1.3-.3 1.9-.6l-.1.1c.1 0 .3 0 .2-.2l-.1.1c-.2-.2.4-.6.3-.7-.1.5.6 0 .4.6.1 0 .2-.2.1-.3.1 0 .2.1.1.2.4-.2.2-.3.6-.4 0 .1-.1.1-.1.2.2-.2.3-.4.7-.4 0 .1 0 .1-.1.1.6-.2.9-.6 1.5-.6-.1.4.2.1.3.4l.3-.2-.2-.1c.3-.1.5-.3.8-.3l-.2.2.5-.2h-.3c.3-.2-.1-.4.3-.4-.1 0 .3-.1.5.1.1-.1.2-.3.5-.2.1.1 0 .3.1.4.1-.3.7-.2.8-.5v.3l.1-.2c.2 0 .2.1.2.2.4-.1-.2-.3.3-.3 0 0 0 .1-.1.1.5 0 .9-.3 1.4-.4.2.3-.4.2-.2.4.6-.2 1.2-.7 1.9-.7h-.1c0-.4.5.1.8-.2-.1 0 0 .3 0 .2.4 0 .8-.3 1.5-.6l-.1.1c.3 0 .7-.1 1-.1.1-.1.2-.1.1-.3 1 .4 1.5-.7 2.4-.4-.1 0-.2.1-.1.1l.6-.2c-.1-.2-.1-.1-.3-.2.1-.1.2-.3.4-.3-.3.2.1.3.2.4v-.2c.4.3 0-.4.5-.3v.1c.2-.1.3-.3.5-.3.1.2-.2.1-.1.3.3-.1.4-.5.7-.4-.1.1-.3.2-.3.2.3.2.4.1.6 0h.3-.2.2c.1 0 .3-.1.3-.1h-.2c0-.4.2-.4.3-.6.1-.1.3-.3.3-.6 0 .6.1.2.3.4.1-.1.3-.2.3-.1 0-.2.1-.2.2-.3s.1-.2.1-.5c.1 0 .1-.3.3-.2 0-.4-.1.1-.2 0-.1-.3.1-.5.1-.9.1-.3.1-.7-.2-1-.2-.3-.3-.4-.5-.5-.1-.1-.3-.2-.4-.3 0 0 0-.1-.1-.1.1-.1.3 0 .3 0 0-.3-.2-.5-.5-.6.1 0 .1-.1.1-.2-.2-.1-.3.1-.5-.2.1 0 .2-.1.4-.1-.3-.1-.6-.1-.9-.2 0-.2.2-.1.4-.1-.3-.1-.8-.2-1 0l.2.1c-.1 0 0-.2.1-.2.3-.1.3.2.3.3h-.2c0 .2.2.3.4.3s.5.1.6.2c0 0-.1 0-.2.1 0 0-.1 0-.1.1-.6-.5-1.5-.8-2.5-.6v-.4h.1l.1-.3-.2.1c-.1-.1-.2-.3-.5-.3l-.3.3-.2-.2.3-.1c-.2-.1-.3 0-.4.2l-.2-.2-.3.4c-.1-.1.1-.3-.2-.4-.1.2.2.3 0 .5-.2-.1-.2-.3-.4-.1-.1-.1 0-.2.1-.2-.2.2-.5.2-.5.4-.2-.2-.6.2-.7-.2 0 .1-.3.4-.4.4.2-.5-.6.1-.7-.3-.1.4-.8.4-1.2.7 0 0 0-.1.1-.1-.2 0-.3-.1-.5-.1 0 .3-.3.5-.4.7-.4-.2.1-.4-.1-.7.1.3-.4.4-.3.6-.3-.1-.2 0-.4-.3.1.4-.2.1-.3.4-.4-.1-.2-.3-.5-.1-.2-.1.1-.3.1-.3-.4.1-.1.3-.1.5-.4.2-.2-.2-.4-.3-.2.1-.4.5-.6.5 0 0-.1-.1 0-.1-.2.3-.8.2-1.1.6l-.1-.1c.1.1.1.3.1.4-.2 0-.2.3-.4.1.1 0 .1-.1.1-.2l-.1.1c-.2-.2.2-.1.2-.4-.3.2-.6.5-.9.5-.1-.3.6-.2.2-.4h.4c-.4-.4.2 0-.1-.4-.5 0-.5.3-1 .3-.1.2.1.2 0 .4-.6.4-.7-.6-1.2-.1-.1.2-.1.6-.5.5l.1-.3c-.5.1-.2.5-.7.4.1-.1.4-.2.3-.2-.4-.2-.2.2-.4.3l-.1-.3c-.5.2-1 .5-1.6.7 0-.1.1-.2-.1-.2-.7.3-1.5.3-2.3.3l-.2.3c-.1 0-.1-.1-.1-.1-.3 0 0 .2-.1.3-.2.1-.2-.1-.2-.2-.4.3-1.3.7-1.8.6l.1-.1c-.4 0-.3.6-.7.5l.1-.1c-.9.1-1.8.5-2.5.3 0 .4-.9 0-.8.5-.5-.1-.4-.2-1.1-.2-.2 0-.2.4-.4.5l-.1-.2-.2.3-.2-.3-.2.1c.1 0 .2.1.2.1-.3.2-.8 0-.9-.1l-.7.4c0-.1.1-.2.2-.3-.4.4-.1-.2-.5.1.1 0 0 .2 0 .2-.2-.1-.7 0-1 .1v-.2c-.6.1-1.2.4-1.9.5.3 0 .3.3.1.4l-.1-.2c-.1.2.2.1 0 .3-.3 0-.2-.3-.1-.4l-.3.2v-.2c-.1.2-.6-.1-.7.2v-.1c-.7.2-.9.3-1.5.4 0 .2-.2.2-.3.4-.4 0-.9-.1-1.3.1-.3.2-.1.2-.2.4-.1-.2-.5-.1-.3-.3-.6.2-.7.2-1.5.7.1 0 .2 0 .2.1-.1.1-.4.1-.4 0-.4.4-1 .6-1.4 1.1-.5.5-.7 1.1-.6 1.5v-.1l.2.9c0 .4-.2-.2-.3.1.2.5.3.8.5 1.1.1.3.2.7.6.9-.1.4.4.9.9 1.1.1.1.3.1.4.2.1 0 .3.1.4.1.3.1.5.2.8.3v-.1c.2-.1.3.1.4.1 0-.1-.2-.1-.1-.2 1-.1 1.6-.3 2.3-.4.7-.1 1.5-.1 2.2-.2.5-.1.1-.8.8-.6l-.1.3c.9-.6 2.1-.5 3-1 0 .1 0 .2-.1.2.3.1.8-.2.7-.3.2 0 .1.1.2.2.2.1.5-.4.6-.2 0 0 0 .1-.1.1.1-.1.6-.1.5-.3.2.3.5 0 .8.1zm23.5-6.4c0-.1 0-.1-.1-.2.1 0 .1 0 .2-.1.1.2 0 .3-.1.3zm5-4s-.1.1-.2.1c0-.1 0-.2-.1-.3.2.1.2.1.3.2zm-.8-1.8c0 .1-.1.2-.1.2l-.2-.2h.3zm-18.7 2.5s-.1 0-.2.1c.1-.1.2-.1.2-.1zm-.5.1v.2c0-.1-.1-.1-.3-.1.1 0 .2 0 .3-.1z"/><path d="M290.2 229.4v.1l.1-.1zM319.9 229.3zM299.9 235c-.1.1-.1.1 0 0zM305.7 233.1l-.2.2c.2-.1.3-.1.2-.2zM293.3 236.9z"/><path d="M305.6 233.2c-.1 0-.2 0-.3.1.1 0 .2 0 .3-.1zM318.1 223.6c0 .1 0 .1 0 0zM317.8 223.7h.2s-.1-.1-.2 0zM320.2 225.5c-.1-.1 0-.4-.2-.6h-.1c.2 0 .1.5.3.6zM308.6 232.6l-.2.1.2.1zM316.6 231.7c-.1.3-.2.2-.2.5-.1.1-.2 0-.2-.1 0 .1-.2 0-.2.2.2.2.3.1.5-.1v.2c0-.2.2-.4.1-.7zM318 231.9h-.1.1zM308.6 234.5c.1 0 .1.1.2.2-.1-.2.1-.4-.2-.2zM318 231.9s-.1.1 0 0zM302.4 245.5c-.1-.1-.1-.1-.2-.1v.1h.2z"/><path d="M303.2 244.9c0 .1.2.1.2.2.2-.1.3-.2.2-.4.5.3.5-.6.9-.2.5-.4.9-.7 1.4-1 .1.4-.5.3-.4.6.4-.3.5-.7 1-.8.1 0 0 .2 0 .3.4-.3.9-.3 1.2-.7v.1c.1 0 .2 0 .1-.2l-.1.1c-.2-.2.1-.6.1-.7 0 .5.5-.1.5.6 0-.1.1-.2 0-.3.1 0 .1 0 .1.2.3-.2.1-.3.3-.4v.2c.1-.2.1-.4.4-.4 0 .1.1.1 0 .1.4-.2.5-.7 1-.7 0 .4.2 0 .3.3l.2-.2-.1-.1c.2-.1.3-.4.5-.3l-.1.2.3-.2h-.3c.1-.2-.2-.4.1-.4 0 .1.2-.1.4 0 .1-.1.1-.3.3-.3.1.1.1.3.1.4 0-.3.4-.3.5-.6 0 .1 0 .2.1.3v-.2c.1 0 .1 0 .2.2.3-.1-.2-.3.2-.3v.1c.4-.1.6-.4.9-.4.2.2-.2.2 0 .4.4-.2.8-.7 1.2-.8h-.1c-.1-.4.4.1.5-.2v.2c.3-.1.5-.3.9-.6v.1c.2 0 .5-.1.7-.2 0-.1.1-.2 0-.3.4.2.6 0 .9-.3.3-.2.4-.5.8-.5-.1 0-.1.2 0 .2l.2-.2c.1-.1.1-.2.1-.2-.2-.1-.1 0-.3 0v-.4c0 .2.2.2.4.2-.1 0-.1-.1-.1-.1.4 0-.3-.2.1-.4l.1.1v-.4c.2 0 0 .2.2.2.1-.2-.3-.5 0-.6v.3c.3-.1.3-.2.3-.3l.2-.3-.1.1c-.3-.2-.3-.3-.3-.4 0-.1 0-.3-.2-.4.4.3.2 0 .5.1.1-.1.1-.2.2-.2-.2-.1.1-.3-.2-.5.1 0 0-.2.2-.2-.1-.2-.1.1-.2.1-.2-.1-.2-.3-.2-.6 0-.2-.1-.5-.4-.6-.4-.2-.6-.2-.9-.2h-.1c0-.1.2-.1.2-.1-.1-.2-.2-.3-.5-.3.1 0 .1-.1 0-.2-.2 0-.2.2-.4 0 .1-.1.1-.2.3-.2-.2 0-.5.1-.7.1 0-.1.1-.2.2-.3-.1 0-.3 0-.4.1s-.2.1-.3.2l.1.1c-.1 0 0-.2 0-.2.2-.2.3.1.3.2h-.1c.1.2.2.2.3.2.2-.1.4-.1.5 0l-.1.1s0 .1-.1.1c-.5-.2-1.1-.2-1.8.1 0-.1-.1-.3-.1-.4h.1v-.3l-.1.1c-.1-.1-.2-.3-.4-.3l-.2.3-.2-.1.2-.1c-.2-.1-.2.1-.2.2-.1-.1-.1-.1-.2-.1l-.1.4c-.1-.1 0-.3-.2-.3-.1.2.2.3.1.4-.2-.1-.2-.3-.3-.1-.1-.1-.1-.2 0-.2-.1.2-.3.2-.3.4-.2-.1-.4.2-.5-.1 0 .1-.1.4-.2.4 0-.5-.4.2-.6-.3 0 .4-.5.4-.7.7v-.1c-.2 0-.3-.1-.4-.1.1.3-.1.5-.2.7-.3-.2 0-.4-.2-.6.1.2-.2.4-.1.6-.2-.1-.2 0-.3-.3.1.4-.1.1-.1.4-.3-.1-.2-.3-.4-.1-.2-.1 0-.3 0-.3-.2.1 0 .3 0 .5-.2.2-.2-.2-.4-.3-.1.1-.2.5-.3.5 0 0-.1 0-.1-.1-.1.3-.5.2-.6.6l-.1-.1c.1.1.2.3.2.4-.1 0-.1.3-.2.1.1 0 0-.1 0-.2l-.1.1c-.2-.2.1-.2 0-.3-.2.2-.3.5-.5.5-.1-.2.4-.2 0-.4h.3c-.4-.3.2 0-.2-.4-.4.1-.3.3-.7.3 0 .2.1.2.1.4-.4.5-.6-.5-.9 0 0 .2.1.6-.2.5v-.3c-.3.1 0 .5-.4.4 0-.1.2-.2.2-.2-.3-.1-.1.2-.3.3l-.1-.2c-.3.2-.6.5-1 .7 0-.1 0-.2-.1-.2-.4.3-1 .4-1.6.4l-.1.3-.1-.1c-.2 0 0 .1 0 .3-.1.1-.2-.1-.2-.2-.2.3-.8.8-1.2.7v-.1c-.3 0-.1.6-.4.5v-.1c-.6.1-1.2.6-1.7.4 0 .4-.6.1-.5.6-.4-.1-.4-.2-.9-.2-.1 0-.1.4-.2.5l-.1-.2-.1.3-.2-.2-.1.1c.1 0 .2.1.2.1-.2.2-.6.1-.7-.1l-.4.4c0-.1 0-.2.1-.3-.2.4-.2-.2-.3.1.1 0 0 .1.1.2-.2-.1-.5 0-.7.2v-.2c-.4.1-.8.4-1.2.6.2 0 .3.3.1.4l-.2-.2c0 .2.2 0 .1.3-.2 0-.2-.2-.2-.4l-.2.2v-.2c0 .2-.4-.1-.5.2v-.1c-.4.2-.6.3-1.1.6.1.2-.1.3-.1.5-.3.2-.8.3-1 .7-.1.3.1.2.1.4-.2-.1-.4.3-.4 0-.2.5-.3.7-.3 1.3.1-.1.2-.1.2-.1 0 .1-.1.2-.2.2.1.2 0 .4 0 .6 0 .2-.1.4-.2.6-.1.4-.1.9.2 1.1l.2.2.2.2c.1.3-.2-.1-.2.2.3.2.5.4.6.6.1.2.4.4.7.5 0 .2.1.3.3.4.1.1.2.1.3.1.1 0 .2 0 .3.1.5.1.9-.1 1.3.1l-.1-.1c.1-.2.2 0 .3 0 0-.1-.2-.1-.1-.2.7-.3 1.1-.4 1.6-.5l1.5-.3c.4-.1-.1-.8.5-.6v.3c.6-.6 1.4-.6 2-1.1 0 .1 0 .2-.1.2.2.1.5-.2.5-.4.1 0 .1.1.2.2.2 0 .3-.4.4-.2v.1c.1-.1.4-.2.3-.3.3 0 .4-.3.7-.2 0-.3.5-.1.4-.4.3 0 .8-.3.8-.5zm14.7-6.8s-.1-.1-.1-.2c0 0 .1 0 .1-.1.1.1.1.2 0 .3zm1.1-4.7s-.1.1-.1.2c0-.1-.1-.1-.1-.2h.2zm-1-1c0 .1 0 .2-.1.2s-.1-.1-.2-.1c.1 0 .3-.1.3-.1zm-12.9 3.9s-.1 0-.1.1c0-.1 0-.1.1-.1zm-.4.2c0 .1.1.2 0 .2 0-.1-.1-.1-.2-.1.1-.1.1-.1.2-.1zM297.9 238.8h.1z"/><path d="M319.7 236.1l.1-.2c-.1.1-.1.1-.1.2zM319.9 235c-.1 0-.1 0 0 0h-.1.1zM307.8 243c-.1.1 0 .1 0 0zM311.6 240.9c0 .1-.1.1-.1.2.1-.1.1-.1.1-.2zM303.4 245.1zM311.5 241c-.1 0-.1 0-.2.1.1 0 .2 0 .2-.1zM316.9 231.7c0-.1 0 0 0 0zM316.8 231.7s-.1 0-.1.1l.1-.1zM318.5 232.1c.1-.1.2.4.3.3-.1 0-.1-.3-.3-.3zM313.6 240.4v-.2l-.2.1zM319.7 240.8c0 .1-.1 0-.1.2.2.1.3.1.4-.1.1 0 .1.1.1.2 0-.2 0-.4-.1-.6 0 .3-.1.2 0 .5-.1 0-.2-.1-.3-.2zM321.1 240.2c-.1 0-.1 0 0 0-.1 0-.1 0 0 0zM314.4 243.8c-.1-.1 0-.3-.2-.1.1 0 .2.1.2.1zM321.1 240.2c-.1 0-.1.1 0 .1v-.1zM313.9 253.4c-.1 0-.1-.1-.2-.1v.1h.2z"/><path d="M324.1 243.7c-.1 0-.2-.1-.2-.2.1.2.3 0 .4-.1h-.2c.3-.3-.4 0-.2-.3h.1c-.1-.1-.2-.1-.2-.2.2-.1.1.1.3 0-.1-.2-.5-.2-.3-.4.1 0 .1.1.2.2.2-.2.1-.2.1-.4v-.3.1c-.6.1-.3-.3-.8-.3.4 0 .2-.1.4-.2 0-.1 0-.2.1-.3-.2 0-.1-.3-.4-.2 0-.1-.1-.1.1-.2-.2-.1-.1.1-.1.2-.2 0-.3-.1-.4-.3s-.3-.3-.5-.2c-.3 0-.5.2-.7.3h-.1c0-.1.1-.2.1-.2-.1-.2-.3-.2-.4 0v-.2c-.1 0-.1.3-.2.2 0-.1 0-.2.1-.3-.2.1-.3.2-.4.4-.1-.1 0-.2.1-.3-.2.1-.4.2-.4.5h.1c-.1 0-.1-.2-.1-.2.1-.2.2 0 .3.1l-.1.1c.1.2.2.2.3.1.1-.1.2-.2.3-.2l-.1.3c-.4 0-.9.2-1.4.5-.1-.1-.1-.2-.2-.3h.1l-.1-.3-.1.1c-.1-.1-.2-.2-.4-.3l-.1.3-.2-.1.1-.1c-.2-.1-.2.1-.2.2-.1-.1-.1-.1-.2-.1v.4c-.1-.1-.1-.3-.2-.3 0 .2.3.2.2.4-.2-.1-.2-.2-.3 0-.1-.1-.1-.1-.1-.2 0 .2-.2.2-.1.4-.2-.1-.3.2-.5-.1 0 .1 0 .3-.1.4-.1-.5-.3.2-.5-.2.1.4-.3.4-.4.7v-.1h-.3c.2.3 0 .5 0 .7-.3-.2-.1-.4-.3-.6.2.2-.1.4.1.5-.2-.1-.1 0-.3-.2.2.3-.1.1 0 .4-.3-.1-.2-.3-.3-.1-.1-.1-.1-.3-.1-.3-.2.1.1.3.1.5-.2.2-.2-.1-.4-.2-.1.1 0 .4-.1.5 0 0-.1 0-.1-.1 0 .3-.4.3-.4.6h-.1l.3.3c-.1.1 0 .3-.2.1v-.2.1c-.2-.2.1-.2-.1-.3-.1.2-.2.5-.3.5-.2-.2.2-.3-.1-.4h.2c-.4-.3.1 0-.3-.4-.3.1-.2.3-.5.4 0 .2.1.2.2.3-.2.5-.7-.4-.7.1 0 .2.2.5-.1.5l-.1-.3c-.2.1.1.5-.2.4 0-.1.1-.2.1-.2-.3-.1 0 .2-.1.3l-.2-.2c-.2.2-.4.5-.6.8 0-.1 0-.2-.1-.2-.3.3-.8.5-1.2.5v.3l-.1-.1c-.2 0 .1.1.1.3-.1.1-.2-.1-.2-.1-.1.3-.4.8-.8.7v-.1c-.2 0 .1.6-.2.5v-.1c-.5.2-.8.7-1.3.6.1.3-.5.1-.2.6-.4 0-.3-.2-.8-.1-.1 0 0 .3 0 .5l-.1-.2v.3l-.2-.2-.1.1s.1 0 .2.1c-.1.2-.5.1-.6 0l-.3.4v-.2c-.1.3-.2-.2-.2.1.1 0 .1.1.1.2-.2-.1-.4.1-.5.2l-.1-.2c-.1.1-.3.2-.5.4s-.4.3-.5.5c.2-.1.4.2.3.3l-.2-.1c.1.2.2 0 .2.2-.1.1-.3-.1-.3-.2l-.1.2c-.1 0-.1-.1-.1-.2.1.2-.5.2-.3.5h-.1c-.1.2-.2.4-.2.6 0 .2 0 .4-.1.6.2.1.1.2.3.3-.1.3-.3.6-.2 1 .1.2.2 0 .4.1-.2.1-.1.4-.3.2.2.4.2.5.5.9.1-.1.1-.2.1-.2.1.1 0 .2-.1.3.2.2.3.5.4.9.1.3.3.7.6.6 0 0 .1 0 .3.1h.3c.2.1-.2.1-.1.3.3 0 .5.1.7.2s.4.2.6.1c.1.3.5.3.9.2.3-.1.7-.3.9-.2l-.1-.1c0-.2.2 0 .3 0-.1-.1-.2-.1-.1-.2.5-.3.8-.5 1.2-.6.4-.1.8-.3 1.2-.4.3-.1-.3-.7.2-.6l.1.3c.3-.6 1-.6 1.3-1.2v.2c.2.1.4-.2.3-.4.1 0 .1.1.2.1.2 0 .1-.4.3-.2v.1c0-.1.3-.2.1-.3.2 0 .3-.3.5-.3 0-.3.4-.1.2-.4.2.3.5 0 .5-.2 0 .1.2 0 .2.2.1-.1.2-.2.1-.4.5.2.3-.6.7-.2.3-.4.6-.8.9-1.1.2.3-.4.3-.1.6.2-.3.3-.7.6-.9.1 0 0 .2 0 .2.2-.3.7-.4.8-.7v.1c.1 0 .2 0 .1-.2v.1c-.2-.1-.1-.6-.1-.7.2.5.4-.1.5.5v-.2c.1 0 .1 0 .1.2.2-.2 0-.3.2-.4 0 .1 0 .1.1.2 0-.2 0-.4.2-.4 0 0 .1.1 0 .1.3-.2.2-.7.6-.7.1.4.2 0 .3.3l.1-.2-.1-.1c.1-.1.1-.4.3-.3v.2l.2-.2h-.2c.1-.2-.2-.3 0-.4 0 .1.1-.1.3 0 0-.1 0-.3.2-.3.1.1.2.3.2.3-.1-.3.3-.3.2-.6 0 .1.1.2.1.2l-.1-.2c.1 0 .1 0 .2.1.2-.1-.3-.3 0-.3v.1c.3-.1.4-.4.6-.5.2.2-.1.2.1.4.3-.2.4-.7.8-.9h-.1c-.2-.4.3.1.4-.3 0 .1.1.2.1.2.3-.1.4-.4.6-.9l.1.1c.2-.1.3-.3.5-.5-.1-.1 0-.2-.2-.2.2 0 .3-.2.4-.3v-.4c0-.3-.1-.5.1-.7 0 .1.1.1.1.1l-.1-.4c-.5-.3-.5-.2-.6-.2zm-1.8-2.8v.2s-.1 0-.1-.1c-.1 0 0 0 .1-.1zm-1.2-.1l.1-.1v.2c0-.1-.1 0-.1-.1zm-9.3 4.9zm-.3.2c.1.1.1.1.1.2 0-.1-.1 0-.2-.1l.1-.1zm12.3-1.5v-.1c.1 0 .1.1.2.2 0 0-.1 0-.2-.1zM306.6 248.6zM323.7 241.6c-.1 0-.1 0 0 0zM317.6 250.6c0 .1 0 0 0 0zM320.2 248.3v0zM314.6 252.9z"/><path d="M320 248.5c.1 0 .1 0 .1-.1 0 0-.1 0-.1.1zM320.2 240.3zM320.1 240.4zM321.8 240.3c-.1 0-.2-.2-.3-.2v.1c0-.1.2.2.3.1zM321.5 247.6l.2.1-.1-.2z"/></g><g fill="#f6eaea"><path d="M350.7 206c0 .1 0 .1-.1.2.2-.1.4-.3.3-.5-.2.2-.2.1-.4.4-.1 0-.2-.1-.1-.2-.1.1-.1-.1-.2.1.1 0 .2.1.5 0zM352.1 205.9h-.1c.1.1.1.1.1 0zM341.9 205.2c.1.1.1.1.1.2 0-.2.2-.3-.1-.2zM352.2 206c-.1 0-.1 0 0 0-.1 0 0 0 0 0zM346.4 222.6c-.1-.1-.1-.1-.2-.1v.1h.2z"/><path d="M358.3 212.3h.1c.1-.2 0-.6-.1-.8-.1 0-.2-.2-.3 0 .2-.4 0-.7-.3-1-.2-.2-.5-.4-.5-.8 0 .1.2.1.2 0l-.4-.4c-.1.2 0 .1-.1.3-.1 0-.3 0-.4-.1.2.1.2-.2.2-.3 0 .1-.1.1-.1.1.1-.4-.3.2-.4-.2l.1-.1c-.1-.1-.3-.1-.4-.2.1-.2.2 0 .3-.1-.2-.1-.6 0-.6-.2.1 0 .2.1.3.1 0-.3 0-.3-.1-.4l-.2-.3v.1c-.6.3-.5-.2-1-.1.5-.1.2-.1.3-.3 0-.1-.1-.3 0-.3-.2.1-.2-.3-.5-.2 0-.1-.1-.1 0-.3-.2-.1 0 .1-.1.2-.4.1-.5-.7-1.1-.6-.4 0-.6.2-.9.2h-.1c0-.1.2-.2.2-.2-.1-.2-.3-.2-.5-.2.1-.1 0-.1 0-.2-.2 0-.2.2-.3.1.1-.1.2-.2.3-.2-.2 0-.4.1-.6.1 0-.1.2-.2.3-.2-.2 0-.6 0-.7.1l.1.1c-.1 0 0-.2.1-.2.2-.1.2.2.2.2h-.1c0 .5.5.1.8.2l-.2.2c-.7-.2-1.3-.4-1.9-.6 0-.1.1-.2.1-.4 0 0 0 .1.1.1l.1-.2h-.2c0-.2 0-.3-.2-.5l-.3.2-.1-.2h.3c-.1-.2-.2-.1-.4 0 0-.1 0-.2-.1-.2l-.3.3c0-.2.2-.3 0-.4-.2.2.1.3-.2.4-.1-.2-.1-.3-.2-.2 0-.1 0-.2.1-.2-.2.1-.4 0-.5.2-.1-.2-.5 0-.5-.3-.1.1-.3.3-.4.3.3-.4-.5 0-.4-.5-.2.4-.7.2-1 .4l.1-.1c-.2 0-.2-.1-.4-.2 0 .3-.3.4-.4.6-.3-.3.1-.4 0-.7 0 .3-.4.3-.3.5-.2-.2-.2-.1-.3-.3 0 .4-.2.1-.3.3-.3-.2-.1-.4-.4-.2-.2-.1.1-.3.1-.3-.3 0-.1.3-.1.5-.3.1-.2-.2-.3-.3-.2.1-.3.4-.5.4 0 0-.1-.1 0-.1-.2.3-.7.1-.8.5v-.1c.1.1.1.3.1.4-.1 0-.2.2-.3.1.1 0 .1-.1.1-.2l-.1.1c-.2-.3.2-.1.1-.3-.2.1-.5.5-.7.4-.1-.3.4-.2.1-.4h.3c-.3-.4.2 0-.1-.4-.4 0-.4.3-.8.3 0 .2.1.2.1.4-.5.4-.6-.5-.9 0 0 .2 0 .6-.2.4v-.3c-.4.1-.1.5-.6.4 0-.1.3-.2.2-.2-.3-.2-.1.2-.3.3l-.1-.3c-.4.2-.8.5-1.2.7 0-.1 0-.2-.1-.2-.5.3-1.2.4-1.8.5l-.1.3-.1-.1c-.2 0 .1.1 0 .3-.1.1-.2-.1-.2-.2-.3.3-.8.9-1.3.8v-.1c-.3.1-.1.6-.4.6v-.1c-.7.3-1.2.9-1.8.9.1.3-.7.3-.4.7-.5.1-.4-.1-1 .3-.1.1.1.4 0 .6l-.2-.2v.4l-.3-.1-.1.2c.1-.1.2-.1.2 0-.1.3-.5.5-.7.5l-.1.7c-.1-.1-.1-.2-.1-.3.1.5-.3 0-.2.4.1 0 .1.1.2.1-.2.1-.3.5-.3.8l-.2-.1c-.1.3-.1.6-.1.9 0 .3.1.6.1.9.1-.2.4-.2.4 0l-.3.1c.2.1.1-.2.3 0 0 .2-.3.2-.4.1l.1.3h-.2c.2.1-.2.5.2.6h-.1c.1.6.4.8.6 1.2.2-.1.3.1.5.1.1.2.1.4.1.5.1.2.2.4.3.5.3.2.2-.1.4 0-.2.2.1.4-.1.4.4.3.5.5 1.1.7v-.2c.1 0 .1.2.1.3.4.1.6.4.8.7.2.3.5.6.9.5h.6c.2.1-.2.1-.1.3.7-.1.9.4 1.4.3.2.7 1.3.3 1.7.8v-.1c.2-.1.1.1.2.2 0-.1-.1-.2 0-.2 1.1 0 2.2.5 3.3.7.4.1.3-.7.8-.4l-.1.3c.8-.3 1.7 0 2.5-.3 0 .1 0 .1-.1.2.2.2.6 0 .6-.2.1 0 0 .1.1.2.2.1.4-.3.5-.1 0 0 0 .1-.1.1.1-.1.5 0 .4-.3.3.1.6-.2.8-.1.1-.3.5 0 .5-.3 0 .4.6.2.7 0 0 .1.2.1.1.2.2-.1.4-.2.3-.3.5.4.7-.5 1 0 .6-.3 1.1-.7 1.6-.9.1.4-.6.2-.5.6.5-.3.7-.7 1.2-.8.2 0 0 .2 0 .3.5-.3 1-.4 1.4-.7 0 0 0 .1-.1.1.1 0 .2 0 .1-.2l-.1.1c-.2-.2.1-.6.1-.8.1.5.5-.1.5.6 0-.1.1-.2 0-.3.1 0 .2 0 .1.2.3-.2.1-.3.4-.5v.2c.1-.2.1-.4.4-.5 0 .1.1.1 0 .1.4-.2.4-.8.9-.9.1.4.2 0 .4.2l.2-.2-.2-.1c.2-.1.2-.4.4-.5l-.1.2.3-.3-.3.1c.1-.3-.3-.3 0-.4 0 .1.2-.2.4-.1 0-.1 0-.3.2-.4.1 0 .2.3.3.3-.1-.3.3-.5.2-.8 0 .1.1.2.2.2l-.1-.2h.2c.2-.3-.4-.1 0-.4v.1c.3-.3.3-.7.6-1 .3 0-.1.3.2.3.1-.3.1-.6.1-.9 0-.3.1-.6.1-.8v.1c-.4-.1.3-.3.1-.6 0 .1.2.1.2.1.1-.2 0-.4 0-.6.4.1.4-.1.2-.4zm-.8-1.7s-.1.1-.2.1c0-.1-.1-.1-.1-.2.1 0 .2 0 .3.1zm-4.1-3.5v.2c-.1 0-.1-.1-.2-.1.1-.1.1-.1.2-.1zm-1.3-.6v.2c-.1 0-.2-.1-.2-.1l.2-.1zm-14.3.2s-.1 0-.1.1c.1 0 .1 0 .1-.1zm-.4.2c0 .1.1.2 0 .2 0-.1-.1-.1-.2-.1.1 0 .1-.1.2-.1z"/><path d="M330.4 210.8h.1v-.1zM355.2 207.6c0 .1 0 .1 0 0zM352.6 220.5c-.1.1-.1.1 0 0zM356.3 217.5v.2c.1-.1.1-.1 0-.2zM347.5 222.4zM356.1 217.8c.1 0 .1-.1.2-.1-.1 0-.1.1-.2.1zM351.2 205.6zM351 205.7h.1c0-.1 0-.1-.1 0zM352.9 206.3c-.1-.1-.2-.3-.3-.3v.1c.1-.1.2.3.3.2zM357.8 216l.2-.1-.1-.2zM431.5 201.8c0 .1 0 .1-.1.2.2-.1.4-.3.3-.5-.2.2-.2.1-.4.4-.1 0-.2-.1-.1-.2-.1.1-.1-.1-.2.1.1 0 .3.1.5 0zM433 201.7h-.1c0 .1.1.1.1 0zM422.5 201c.1.1.1.1.1.2 0-.2.2-.3-.1-.2zM433.1 201.8c-.1 0-.1 0 0 0-.1 0-.1 0 0 0zM423.4 218.9c-.1-.1-.1-.1-.2-.1v.1h.2z"/><path d="M437.8 206.6s0-.1-.1-.3c-.1-.1-.1-.3-.1-.3-.2.1-.1.1-.2.2-.1 0-.3-.2-.3-.3.2.2.3-.1.4-.2-.1 0-.1 0-.2.1.2-.4-.4.1-.3-.3h.1c-.1-.1-.3-.2-.3-.3.2-.2.2.1.3 0-.1-.2-.6-.1-.5-.4.1 0 .2.1.3.2.1-.3 0-.3 0-.5l-.2-.4v.1c-.6.2-.5-.3-1-.3.5 0 .2-.1.4-.3 0-.1-.1-.3 0-.3-.3 0-.1-.3-.5-.2 0-.1-.2-.1 0-.3-.2-.1 0 .1-.1.2-.4 0-.5-.7-1.1-.6-.4 0-.6.1-.9.2h-.1c0-.1.2-.2.2-.2-.1-.2-.3-.2-.5-.2.1-.1 0-.1 0-.2-.2 0-.2.2-.4.1l.3-.3c-.2 0-.4.1-.6.1 0-.1.2-.2.3-.2-.2 0-.6 0-.7.2l.1.1c-.1 0 0-.2.1-.2.2-.1.2.2.2.2h-.1c0 .5.5.1.8.2l-.2.2c-.7-.2-1.3-.4-2-.5 0-.1.1-.2.1-.4 0 0 0 .1.1.1l.1-.2h-.2c0-.2 0-.3-.2-.5l-.3.2-.1-.2h.3c-.1-.2-.2-.1-.4 0 0-.1 0-.2-.1-.2l-.4.3c0-.2.2-.3 0-.4-.2.2.1.3-.2.4-.1-.2-.1-.3-.3-.2 0-.1 0-.2.1-.2-.2.1-.4 0-.5.2-.1-.2-.5 0-.5-.3-.1.1-.3.3-.4.3.3-.4-.5-.1-.5-.5-.2.4-.7.2-1 .4l.1-.1c-.2 0-.3-.1-.4-.2 0 .3-.3.4-.4.6-.3-.3.1-.4 0-.7 0 .3-.4.3-.3.5-.2-.2-.2-.1-.3-.3 0 .4-.2.1-.3.4-.3-.2-.1-.4-.4-.2-.2-.1.1-.3.1-.3-.3 0-.1.3-.1.5-.3.1-.2-.2-.3-.3-.2.1-.3.4-.5.4 0 0-.1-.1 0-.1-.2.3-.7.2-.9.5l-.1-.1c.1.1.1.3.1.4-.1 0-.2.2-.3.1.1 0 .1-.1.1-.2l-.1.1c-.2-.2.2-.1.1-.3-.2.1-.5.5-.7.4-.1-.3.4-.2.1-.4h.3c-.3-.4.2 0-.1-.4-.4 0-.4.3-.8.3 0 .2.1.2.1.4-.5.5-.7-.5-1 0 0 .2 0 .5-.3.5v-.3c-.4.1 0 .5-.5.5 0-.1.3-.2.2-.2-.4-.1-.1.2-.3.3l-.2-.2c-.4.2-.7.6-1.1.9 0-.1 0-.2-.1-.2-.5.4-1.1.6-1.7.8v.3s-.1 0-.1-.1c-.2.1.1.1 0 .3-.1.1-.2 0-.2-.1-.2.4-.6 1-1.1 1.1v-.1c-.2 0 .2.5-.2.4v-.1c-.7.2-1.3.7-1.9.6.1.3-.7.2-.5.6-.5 0-.4-.2-1 0-.1.1 0 .4-.2.5l-.2-.2-.1.4-.3-.2-.1.2c.1 0 .2 0 .2.1-.2.3-.7.3-.7.2l-.4.6c-.1-.1 0-.2 0-.3-.1.4-.2-.1-.3.3.1 0 .1.1.1.2-.2 0-.5.3-.6.6l-.1-.1c-.4.4-.6 1-.8 1.6.2-.2.4 0 .4.2h-.3c.1.2.2-.1.3.1-.1.2-.3 0-.4-.1v.3c-.1 0-.1-.1-.2-.1.1.1-.4.4-.1.7h-.1c-.1.3 0 .6 0 .8s0 .4.1.7c.2 0 .2.2.4.3-.1.4-.1.8 0 1.2.2.2.2 0 .4.1-.2.1 0 .5-.2.3.2.5.3.6.7 1.1 0-.1 0-.2.1-.2.1.1.1.3 0 .3.3.2.4.6.6 1s.4.8.8.8c0 0 .2 0 .3.1.2 0 .3.1.3.1.2.2-.2 0-.1.3.7 0 .9.6 1.5.5.2.7 1.4.4 1.8.9v-.2c.2-.1.1.1.2.2 0-.1-.1-.2 0-.2 1.2 0 2.3.4 3.5.5.4 0 .2-.8.7-.5l-.1.3c.8-.4 1.7-.2 2.5-.6 0 .1 0 .2-.1.2.2.2.6-.1.6-.3.1 0 .1.1.1.2.2.1.4-.3.5-.2 0 0 0 .1-.1.1.1-.1.5-.1.4-.3.3 0 .5-.2.8-.2.1-.3.5 0 .5-.4.1.4.6.2.7-.1 0 .1.2.1.2.2.2-.1.4-.2.3-.4.5.3.7-.6 1.1-.1.6-.4 1.1-.7 1.6-1 .1.4-.6.3-.4.6.5-.3.7-.7 1.2-.9.2 0 0 .2 0 .3.5-.4 1-.4 1.4-.8 0 0 0 .1-.1.1.1-.1.2 0 .1-.2l-.1.1c-.2-.2.1-.6.1-.8.1.5.5-.1.5.6 0-.1.1-.2 0-.3.1 0 .2 0 .1.2.3-.2.1-.3.3-.5v.2c.1-.2.1-.4.4-.5 0 .1.1.1 0 .1.4-.2.5-.7 1-.9.1.4.2 0 .4.3l.2-.2-.2-.1c.2-.1.3-.4.5-.5l-.1.2.3-.3h-.3c.1-.3-.2-.3.1-.4 0 .1.2-.1.4-.1 0-.1.1-.3.3-.3.1.1.2.3.2.3-.1-.3.4-.4.3-.7 0 .1.1.2.1.2l-.1-.2c.1 0 .2 0 .2.1.3-.2-.3-.2.1-.4v.1c.4-.2.5-.6.8-.8.3.1-.2.3.1.4.3-.4.5-1.1.9-1.4l-.1.1c-.3-.3.4-.2.4-.5 0 .1.2.2.1.2.2-.3.3-.7.4-1.3l.1.1c.2-.2.2-.5.4-.7-.1-.1 0-.2-.2-.2.4-.3.4-.7.3-1 0-.2-.1-.3-.1-.5s0-.3.1-.5c-.1.1 0 .2 0 .2zm-3.4-3.7v.2c-.1 0-.1-.1-.2-.1 0-.1.1-.1.2-.1zm-1.4-.7v.2c-.1 0-.2-.1-.2-.1l.2-.1zm-14.6.7s-.1 0-.1.1c0 0 .1 0 .1-.1zm-.4.3c.1.1.1.1 0 .2 0-.1-.1 0-.2-.1.1 0 .1-.1.2-.1zm19.3 4.1v-.2c.1 0 .2.1.2.2h-.2zM411 206.8h.1z"/><path d="M436.9 204.5l-.1-.2c0 .1 0 .1.1.2zM436.2 203.6c-.1 0-.1 0 0 0zM429.6 216.4c-.1 0-.1 0 0 0-.1.1-.1.1 0 0zM433.5 213.5c0 .1 0 .1-.1.2.1 0 .1-.1.1-.2zM424.6 218.5h-.1zM433.4 213.7c-.1 0-.1.1-.2.1.1 0 .2 0 .2-.1zM432.1 201.4zM431.9 201.5h.1c0-.1-.1-.1-.1 0zM433.8 202.1c-.1-.1-.2-.3-.3-.3v.1c.1-.1.2.3.3.2zM435.2 212.3h.2l-.1-.1z"/></g><g fill="#db5d43"><path d="M400.1 248.6c-.1.3.1.4.3.6 0 .1-.1.1-.2.1.2.1.5.2.7 0-.3-.1-.2-.2-.6-.2-.1-.1-.1-.3 0-.3 0 0 0-.3-.2-.2zM401.2 251.1v-.1.1zM393.5 239.7c0 .1 0 .2-.1.2.1-.1.4.2.1-.2zM401.2 251.2c-.1-.1-.1-.1 0 0-.1 0 0 0 0 0zM383.5 254.8c-.1 0-.2.1-.2.2v.1l.2-.3z"/><path d="M401.2 250.4c-.1-.3-.3-.8-.5-.8v.2c0-.1.2-.1.2 0 .2.2 0 .4-.1.4l-.1-.2c-.2.1-.1.3-.1.5.1.2.2.4.2.6 0 0-.2-.1-.3-.2.1-.8-.2-1.7-.9-2.5.1-.1.2-.1.3-.2v.1l.3-.1-.2-.2c.1-.1.1-.3.1-.6l-.4-.1.1-.2.2.2c0-.3-.2-.2-.3-.3.1-.1.1-.2 0-.3l-.5-.1c.1-.1.3-.1.2-.3-.2 0-.1.4-.4.2 0-.3.2-.3-.1-.4.1-.1.1-.1.2-.1-.2-.1-.4-.4-.6-.3 0-.3-.5-.5-.2-.7-.1 0-.4-.1-.6-.2.5 0-.4-.5 0-.8-.5.1-.7-.6-1.1-.7h.1c-.1-.2-.1-.3-.1-.5-.3.2-.6-.1-.8-.1 0-.4.4-.1.6-.4-.2.2-.5-.2-.6 0 0-.3-.1-.2.1-.5-.3.2-.2-.1-.5-.1-.1-.4.2-.3-.1-.5 0-.2.3-.1.3-.1-.2-.3-.3.1-.5.1-.3-.3 0-.3.1-.5-.2-.2-.6-.1-.7-.3 0 0 0-.1.1-.1-.4-.1-.6-.6-1-.7v-.1l-.3.3c-.1-.1-.3-.1-.2-.3.1.1.1 0 .2 0l-.2-.1c.1-.3.2.1.4 0-.3-.2-.7-.3-.8-.6.2-.2.5.4.4 0l.2.4c.1-.5.1.2.3-.3-.3-.5-.5-.4-.8-.8-.2 0-.2.2-.3.2-.7-.4.2-.9-.5-1.1-.2 0-.5.2-.7-.2l.3-.1c-.3-.4-.5.1-.8-.5.2 0 .4.2.3.1-.1-.4-.3-.1-.5-.3l.2-.2c-.4-.4-1.1-.7-1.6-1 .1 0 .2 0 .1-.2-.7-.4-1.5-1-2.4-1.4l-.4.2c-.1 0-.1-.1 0-.2-.3-.1 0 .1-.2.2-.2 0-.2-.2-.1-.2-.7.1-1.7.5-2.3.4l.1-.1c-.5.1-.3.7-.8.6l.1-.1c-.5.2-.9.5-1.3.9-.4.3-.7.7-1 .9.2.3-.7.7-.3 1-.5.4-.5.2-.9.8-.1.2.2.4.1.6l-.2-.1.1.4-.3.1v.2c0-.1.2-.1.2-.1 0 .4-.5.8-.6.7l-.1.9c-.1 0-.1-.2-.1-.3.1.5-.3 0-.2.5.1 0 .1.1.2.1-.2.1-.4.6-.4.9l-.1-.1-.3.9c-.1.3-.2.7-.3 1 .2-.2.4 0 .4.2h-.3c.1.2.2-.2.3.2-.1.2-.3.1-.4-.1v.3c-.1 0-.1-.1-.2-.1.1.2-.4.4-.2.7h-.1c-.2.7-.2 1-.4 1.5.2.1.1.3.2.5-.2.4-.5.7-.6 1.2 0 .4.2.2.2.3-.2 0-.3.4-.4.1-.1.6-.2.7-.2 1.5.1-.1.2-.1.2-.1 0 .1-.2.3-.3.2.1.9-1.1 1.7-.9 2.5v.7c-.1.3-.1-.2-.3 0 .1.8-.4 1.1-.3 1.8-.2.1-.3.2-.4.4s-.1.5-.1.8c0 .3.1.6.1.9s.1.5.1.8l.1-.1c.2.2 0 .3.1.5.1-.1 0-.3.1-.2.4.8 1.1 1.5 1.9 2.1.8.5 1.7.9 2.7.8.8-.1.3-.8 1.2-.7 0 0 0 .1-.1.2 0 .1-.1.2-.1.2.7-.4 1.2-.9 1.7-1.4.2-.3.4-.6.5-.9s.2-.7.2-.9c0 .1.1.1.1.2.3-.2.2-.8.1-.8.1-.2.2 0 .3-.1.2-.2-.1-.6.1-.7v.1c-.1-.2.2-.6 0-.6.2-.3.1-.7.3-1-.2-.3.3-.6 0-.8.3.1.5-.6.4-.9.1.1.2-.2.3 0 .1-.3.1-.5-.1-.5.6-.4 0-1.1.6-1.2 0-.9.1-1.6.3-2.4.3.2-.2.8.2.9 0-.7-.1-1.3.2-1.9.1-.2.1.1.2.2.1-.7.4-1.3.4-2 0 0 0 .1.1.2 0-.1.1-.3 0-.3v.1c-.3.1-.4-.6-.5-.7.4.3.3-.6.8-.1 0-.1-.1-.2-.2-.2.1-.1.1-.1.2 0 0-.4-.2-.4-.1-.7.1 0 .1.1.2.1-.1-.2-.2-.3-.1-.5 0 .1.1.1.1.1v-.6c0-.3.1-.6.2-.6 0 .4.1.4.1.4 0 .1.1.2.1.4l.1-.1-.1-.3c.1.1.2-.1.3.2l-.1.1.2.2-.1-.3c.2 0 .1-.5.3-.1-.1 0 .2.2.1.5.1 0 .3.1.4.3 0 .1-.3.2-.3.2.3 0 .5.5.8.5-.1 0-.2.1-.2.1h.2c0 .2 0 .2-.1.2.2.4.2-.3.4.2h-.1c.2.5.7.7.9 1.2-.2.3-.3-.3-.4 0 .2.2.5.5.8.7s.6.4.7.7l-.1-.1c.4-.2.2.5.5.6-.1 0-.3.1-.2.1.2.4.7.6 1.2 1h-.1c.1.3.4.6.6.8.1 0 .2.1.3-.1.1 1.1 1.4 1 1.5 2-.1-.1-.2-.1-.2 0l.5.4c.1-.2 0-.1 0-.3.1 0 .3.1.4.2-.3-.1-.2.2-.2.4 0-.1.1-.1.1-.1 0 .5.3-.2.5.3l-.1.1c.2.1.4.1.5.2 0 .2-.2 0-.3.1.3.2.7-.1.8.2-.1 0-.3-.1-.4-.1.1.4.2.4.4.4l.5.3-.1-.1c.3-.2.4-.3.6-.2.2 0 .4 0 .6-.2-.4.4 0 .2 0 .5.1 0 .4.1.3.2.2-.3.5 0 .7-.4 0 .1.2-.1.3.1.3-.2-.1-.1-.2-.2.1-.2.4-.3.7-.5.3-.1.6-.4.6-.8.2-.5.1-.8.1-1.2v-.1c.1 0 .2.2.2.2.2-.2.3-.5.2-.7.1.1.1 0 .2-.1 0-.2-.3-.2-.1-.5.1.1.2.1.3.2-.1-.3-.2-.6-.3-.8 0 .5.2.7.3.8zm-12.1-14.9c.1 0 .1.1.2.1-.1 0-.1 0-.2-.1zm-.4-.2c0 .1-.1.1-.2.1.1 0-.1-.2-.1-.3.1.1.2.1.3.2zm4.9 16.5l.1-.1.2.2c-.1 0-.2 0-.3-.1zm6.2 1.3s-.1 0-.2-.1l.2-.2v.3zm.7-1.7c0-.1.1-.2.1-.3.1.1.2.3.2.3h-.3zM379.5 238.9l.1.1-.1-.1zM397.7 254.8v-.1.1zM385.7 246.5c0 .2 0 .1 0 0z"/><path d="M387.3 244.2h-.2c.1.1.1.1.2 0zM384 253.3zM387 244.1c0 .1.1.1.1.2 0-.1 0-.2-.1-.2zM401.1 249.6zM400.9 249.4l.1.1s0-.1-.1-.1zM400.8 252.4c.1-.1.3-.3.3-.5h-.1c.1.1-.3.3-.2.5zM388.7 246.5v.2h.2zM427.8 233.7v.2c0-.1.1-.4.1-.6 0 .3 0 .2-.1.4-.1.1-.1-.1-.1-.2 0 .1 0-.1-.1.1.1.3.2.3.2.1zM428.3 233.3c0 .1 0 .1 0 0zM424.9 234c.1 0 .1.1.2.1-.2-.1-.1-.2-.2-.1zM428.4 233.3c-.1 0-.1 0 0 0-.1.1-.1.1 0 0-.1.1-.1.1 0 0zM430.5 240.6c-.1 0-.1-.1-.2-.1v.1h.2z"/><path d="M431.7 237.3l-.2-.1c0-.1-.2-.1-.1-.2l.1.1-.1-.1-.1.1c-.2-.1-.4 0-.3-.1 0 0 0-.1.2-.1-.1 0-.2 0-.1-.1h.4c-.3 0-.1-.2-.4-.2h.3-.2c.1 0 .1-.1.2-.1 0-.1-.4.1-.2 0h.1c.1-.1-.2-.2-.1-.3.3-.1.1.1.3 0-.1-.2-.5-.2-.5-.4-.4.2.2-.2-.1-.2l.2-.1c0-.1-.2-.2-.4-.2h.1v-.3c-.1 0-.1 0-.2.1.2-.3.1-.3-.1-.3-.1 0-.3 0-.2-.2h.1-.2c-.1.2-.1.1-.1.2-.1.1-.2.1-.2.1.1 0 .2-.2.2-.3l-.1.1c.2-.3-.3.3-.2 0l.1-.1c-.1 0-.2.1-.2.1.1-.2.1-.1.2-.2-.1 0-.3.3-.3.1.1 0 .1 0 .1-.1.1-.2 0-.2 0-.3v-.2.1c-.4.4-.2 0-.5.3.2-.3.1-.2.2-.4v-.2c-.1.2 0-.2-.2 0 0-.1-.1 0 0-.2-.1 0 0 .1-.1.2-.2.2-.1-.4-.4-.1-.2.1-.2.3-.4.4 0-.1.1-.2.1-.2 0-.1-.1-.1-.2 0v-.2c-.1 0-.1.3-.1.2s.1-.2.1-.3c-.1.1-.1.2-.2.3 0-.1.1-.2.1-.3-.1.1-.2.1-.2.3v.1-.2c.1-.2.1.1.1.2 0 .5.2-.1.2 0l-.1.3c-.2 0-.4-.1-.6-.1v-.4s0 .1 0 0v-.3l-.1.1c0-.2 0-.3-.1-.4l-.1.2v-.2h.1c-.1-.2-.1 0-.1.1 0-.1 0-.2-.1-.2l-.1.4c0-.1 0-.3-.1-.4 0 .2.1.3 0 .4-.1-.2-.1-.3-.1-.2v-.2c0 .1-.1.1-.1.3-.1-.2-.2.1-.2-.3 0 .1 0 .3-.1.3 0-.4-.2 0-.3-.4 0 .4-.2.2-.2.5v-.1c-.1 0-.1-.1-.2-.2.1.3 0 .4.1.6-.2-.2-.1-.4-.3-.6.1.2 0 .3.1.5-.1-.1-.1-.1-.2-.3.2.4 0 .1 0 .3-.2-.1-.2-.3-.2-.2-.1-.1-.1-.3-.1-.3-.1.1.1.3.2.4-.1.1-.2-.2-.3-.3 0 .1.1.4 0 .4 0 0-.1 0-.1-.1.1.2-.2.2-.1.5h-.1l.3.3s.1.2-.1.1c0 0 0-.1-.1-.1v.1c-.2-.2 0-.1-.2-.3 0 .1.1.4 0 .4-.2-.2 0-.2-.2-.3h.2c-.4-.3.1 0-.3-.3-.2.1 0 .2-.2.3.1.1.2.1.3.3.1.3-.6-.3-.4 0 .1.1.4.4.2.3l-.2-.2c-.1.1.3.3.1.3-.1-.1 0-.1-.1-.1-.3-.1.1.2.1.2l-.2-.1c-.1.1.1.4.1.6-.1 0-.1-.1-.2-.1 0 .2-.2.4-.4.5l.2.1h-.2c-.1.1.1 0 .2.1h-.2c.2.2.3.4.1.6h-.1c-.1.1.5.2.2.2-.1.2.1.5-.3.7.3 0-.1.2.3.2-.2.2-.3.1-.5.3 0 .1.3 0 .4.1l-.2.1h.3l-.3.1h.1s.1-.1.2-.1c.1.1-.1.3-.2.3l.3.2h-.2c.3 0-.3.1 0 .1 0 0 .1 0 .2-.1-.1.1-.1.2 0 .3l-.2.1c0 .2.2.3.3.5 0-.1.3-.2.4-.2l-.2.2c.2-.1.1-.1.3-.1 0 .1-.2.2-.3.2h.1c-.1 0-.1.1-.2.1.2-.1-.1.3.1.2h-.1c.1.2.2.2.4.3.2-.2.2-.1.4-.2 0 .1 0 .3.1.4.1 0 .1-.1.3-.2-.1.2 0 .2-.2.3.1.1.2.1.5.1 0-.1 0-.1.1-.2v.2c.3-.2.2.8.6.5l.3-.2c.1.1-.1.1-.1.3.3-.3.3.2.5 0 0 .6.5 0 .6.4v-.1c.1-.1.1.1.1.1v-.2c.4-.1.8.2 1.3.2.2 0-.1-.8.2-.5v.3c.2-.4.6-.2.8-.6 0 .1.1.1 0 .2.2.1.2-.1.1-.3l.2.2c.1.1 0-.3.1-.2v.1c0-.1.2-.1 0-.2.2 0 .1-.2.3-.2-.1-.2.2 0 0-.3.3.3.4.1.3-.1.1.1.1 0 .2.2.1-.1 0-.2-.1-.3.4.1-.1-.4.4-.2 0-.3 0-.6-.1-.8.3.2-.1.2.3.4 0-.3-.3-.5-.1-.6.1 0 .1.1.2.1-.1-.2.2-.4 0-.6 0 0 .1 0 .1.1 0 0 .1-.1-.1-.1s-.5-.2-.6-.3c.5.2.2-.1.7.1 0 0-.1-.1-.2-.1h.2c-.1-.1-.2-.1-.2-.2.1 0 .1 0 .2.1-.2-.1-.3-.2-.2-.2h.1c0-.2-.4-.3-.2-.4.2-.1 0-.2.3-.2zm-7.5-1.9zm-.1.2c.1 0 .1 0 0 0h0zm6-.8l-.1.1c0-.1.1-.1.1-.1zm-1.4-.9v.2h-.1c.1-.1.1-.1.1-.2zm-.4-.1v.2h-.1l.1-.2zM423.5 238.2zM429.4 233.7c0 .1 0 .1 0 0z"/><path d="M431.5 238.4c.1.1.1 0 0 0zM431.1 236.8h0zM430.9 240.3zM431.2 236.9c.1 0 .1 0 0 0zM428 233.2c0 .1 0 .1 0 0zM428 233.4c0-.1 0-.1 0 0zM428.6 233.4s0-.2-.1-.2v.1c0-.1 0 .2.1.1zM431.2 236.1h.1-.2zM425.3 245.6c0 .2.1.2.1.1v.2c0-.1.1-.4.1-.6-.1.3-.1.1-.1.5 0 0-.1-.1 0-.2 0-.1-.1-.2-.1 0zM426 245.2c-.1 0-.1 0 0 0-.1.1-.1.1 0 0zM422.5 245.9c.1 0 .1.1.2.1-.2-.1-.1-.2-.2-.1zM426 245.2c-.1.1-.1.1 0 0-.1.1 0 0 0 0zM428.2 252.5c-.1 0-.1-.1-.2-.1v.1h.2z"/><path d="M429.3 249.2l-.2-.1c0-.1-.2-.1-.1-.2l.1.1-.1-.1-.1.1c-.2-.1-.4 0-.3-.1 0 0 0-.1.2-.1-.1 0-.2 0-.1-.1h.4c-.3 0-.1-.2-.4-.2h.3-.2c.1 0 .1-.1.2-.1 0-.1-.4.1-.2 0h.1c.1-.1-.2-.2-.1-.3.3-.1.1.1.3 0-.1-.2-.5-.2-.5-.4-.4.2.2-.2-.1-.2l.2-.1c0-.1-.2-.2-.4-.2h.1v-.3c-.1 0-.1 0-.2.1.2-.3.1-.3-.1-.3-.1 0-.3 0-.2-.2h.1-.2c-.1.2-.1.1-.1.2-.1.1-.2.1-.2.1.1 0 .2-.2.2-.3l-.1.1c.2-.3-.3.3-.2 0l.1-.1c-.1 0-.2.1-.2.1.1-.2.1-.1.2-.2-.1 0-.3.3-.3.1.1 0 .1 0 .1-.1.1-.2 0-.2 0-.3v-.2.1c-.4.4-.2 0-.5.3.2-.3.1-.2.2-.4v-.2c-.1.2 0-.2-.2 0 0-.1-.1 0 0-.2-.1 0 0 .1-.1.2-.2.2-.1-.4-.4-.1-.2.1-.2.3-.4.4 0-.1.1-.2.1-.2 0-.1-.1-.1-.2 0v-.2c-.1 0-.1.3-.1.2s.1-.2.1-.3c-.1.1-.1.2-.2.3 0-.1.1-.2.1-.3-.1.1-.2.1-.2.3v.1-.2c.1-.2.1.1.1.2 0 .5.2-.1.2 0l-.1.3c-.2 0-.4-.1-.6-.1v-.4s0 .1 0 0v-.3l-.1.1c0-.2 0-.3-.1-.4l-.1.2v-.2h.1c-.1-.2-.1 0-.1.1 0-.1 0-.2-.1-.2l-.1.4c0-.1 0-.3-.1-.4 0 .2.1.3 0 .4-.1-.2-.1-.3-.1-.2v-.2c0 .1-.1.1-.1.3-.1-.2-.2.1-.2-.3 0 .1 0 .3-.1.3 0-.4-.2 0-.3-.4 0 .4-.2.2-.2.5v-.1c-.1 0-.1-.1-.2-.2.1.3 0 .4.1.6-.2-.2-.1-.4-.3-.6.1.2 0 .3.1.5-.1-.1-.1-.1-.2-.3.2.4 0 .1 0 .3-.2-.1-.2-.3-.2-.2-.1-.1-.1-.3-.1-.3-.1.1.1.3.2.4-.1.1-.2-.2-.3-.3 0 .1.1.4 0 .4 0 0-.1 0-.1-.1.1.2-.2.2-.1.5h-.1l.3.3s.1.2-.1.1c0 0 0-.1-.1-.1v.1c-.2-.2 0-.1-.2-.3 0 .1.1.4 0 .4-.2-.2 0-.2-.2-.3h.2c-.4-.3.1 0-.3-.3-.2.1 0 .2-.2.3.1.1.2.1.3.3.1.3-.6-.3-.4 0 .1.1.4.4.2.3l-.2-.2c-.1.1.3.3.1.3-.1-.1 0-.1-.1-.1-.3-.1.1.2.1.2l-.2-.1c-.1.1.1.4.1.6-.1 0-.1-.1-.2-.1 0 .2-.2.4-.4.5l.2.1h-.2c-.1.1.1 0 .2.1h-.2c.2.2.3.4.1.6h-.1c-.1.1.5.2.2.2-.1.2.1.5-.3.7.3 0-.1.2.3.2-.2.2-.3.1-.5.3 0 .1.3 0 .4.1l-.2.1h.3l-.3.1h.1s.1-.1.2-.1c.1.1-.1.3-.2.3l.3.2h-.2c.3 0-.3.1 0 .1 0 0 .1 0 .2-.1-.1.1-.1.2 0 .3l-.2.1c0 .2.2.3.3.5 0-.1.3-.2.4-.2l-.2.2c.2-.1.1-.1.3-.1 0 .1-.2.2-.3.2h.1c-.1 0-.1.1-.2.1.2-.1-.1.3.1.2h-.1c.1.2.2.2.4.3.2-.2.2-.1.4-.2 0 .1 0 .3.1.4.1 0 .1-.1.3-.2-.1.2 0 .2-.2.3.1.1.2.1.5.1 0-.1 0-.1.1-.2v.2c.3-.2.2.8.6.5l.3-.2c.1.1-.1.1-.1.3.3-.3.3.2.5 0 0 .6.5 0 .6.4v-.1c.1-.1.1.1.1.1v-.2c.4-.1.8.2 1.3.2.2 0-.1-.8.2-.5v.3c.2-.4.6-.2.8-.6 0 .1.1.1 0 .2.2.1.2-.1.1-.3l.2.2c.1.1 0-.3.1-.2v.1c0-.1.2-.1 0-.2.2 0 .1-.2.3-.2-.1-.2.2 0 0-.3.3.3.4.1.3-.1.1.1.1 0 .2.2.1-.1 0-.2-.1-.3.4.1-.1-.4.4-.2 0-.3 0-.6-.1-.8.3.2-.1.2.3.4 0-.3-.3-.5-.1-.6.1 0 .1.1.2.1-.1-.2.2-.4 0-.6 0 0 .1 0 .1.1 0 0 .1-.1-.1-.1s-.5-.2-.6-.3c.5.2.2-.1.7.1 0 0-.1-.1-.2-.1h.2c-.1-.1-.2-.1-.2-.2.1 0 .1 0 .2.1-.2-.1-.3-.2-.2-.2h.1c0-.2-.4-.3-.2-.4.2-.1 0-.2.3-.2zm-7.5-1.9zm0 .2h.2-.2zm5.9-.8l-.1.1c0-.1.1-.1.1-.1zm-1.4-.9v.2h-.1c.1-.1.1-.1.1-.2zm-.4-.1v.2h-.1l.1-.2z"/><path d="M421.1 250.1h.1l-.1-.1zM427 245.6c0 .1 0 .1 0 0zM429.1 250.3c.1.1.1 0 0 0zM428.7 248.7h0zM428.5 252.2zM428.9 248.8c-.1 0-.1 0 0 0zM425.6 245.2zM425.6 245.3c0-.1 0-.1 0 0zM426.2 245.3s0-.2-.1-.2v.1c.1-.1.1.2.1.1zM428.8 248h.1-.1zM442.7 246.2v.2c0-.1.1-.4.1-.6-.1.3-.1.1-.1.4-.1.1-.1-.1-.1-.2 0 .1 0-.1-.1.1.1.3.1.3.2.1zM443.2 245.8c0 .1 0 0 0 0zM439.7 246.5c.1 0 .1.1.2.1-.1-.1-.1-.2-.2-.1zM443.2 245.8c0 .1 0 .1 0 0 0 .1 0 0 0 0zM445.4 253.1c-.1 0-.1-.1-.2-.1v.1h.2z"/><path d="M446.5 250.6c-.1-.1-.2-.1-.2-.2.1 0 .1 0 .2.2-.2-.2-.3-.3-.2-.3h.1c0-.2-.4-.3-.2-.4.4.1.1-.1.4-.1l-.1-.1h-.1c0-.1-.2-.1-.1-.2l.1.1-.1-.1-.1.1c-.2-.1-.4 0-.3-.1 0 0 0-.1.2-.1-.1 0-.2 0-.1-.1h.4c-.3 0-.1-.2-.4-.2h.3-.2c.1 0 .1-.1.2-.1 0-.1-.4.1-.2 0h.1c.1-.1-.2-.2-.1-.3.3-.1.1.1.3 0-.1-.2-.5-.2-.5-.4-.4.2.2-.2-.1-.2l.2-.1c0-.1-.2-.2-.4-.2h.1v-.3c-.1 0-.1 0-.2.1.2-.3.1-.3-.1-.3-.1 0-.3 0-.2-.2h.1-.2c-.1.2-.1.1-.1.2-.1.1-.2.1-.2.1.1 0 .2-.2.2-.3l-.1.1c.2-.3-.3.3-.2 0l.1-.1c-.1 0-.2.1-.2.1.1-.2.1-.1.2-.2-.1 0-.3.3-.3.1.1 0 .1 0 .1-.1.1-.2 0-.2 0-.3v-.2.1c-.4.4-.2 0-.5.3.2-.3.1-.2.2-.4v-.2c-.1.2 0-.2-.2 0 0-.1-.1 0 0-.2-.1 0 0 .1-.1.2-.2.2-.1-.4-.4-.1-.2.1-.2.3-.4.4 0-.1.1-.2.1-.2 0-.1-.1-.1-.2 0v-.2c-.1 0-.1.3-.1.2s.1-.2.1-.3c-.1.1-.1.2-.2.3 0-.1.1-.2.1-.3-.1.1-.2.1-.2.3v.1-.2c.1-.2.1.1.1.2 0 .5.2-.1.2 0l-.1.3c-.2 0-.4-.1-.6-.1v-.4s0 .1 0 0v-.3l-.1.1c0-.2 0-.3-.1-.4l-.1.2v-.2h.1c-.1-.2-.1 0-.1.1 0-.1 0-.2-.1-.2l-.1.4c0-.1 0-.3-.1-.4 0 .2.1.3 0 .4-.1-.2-.1-.3-.1-.2v-.2c0 .1-.1.1-.1.3-.1-.2-.2.1-.2-.3 0 .1 0 .3-.1.3 0-.4-.2 0-.3-.4 0 .4-.2.2-.2.5v-.1c-.1 0-.1-.1-.2-.2.1.3 0 .4.1.6-.2-.2-.1-.4-.3-.6.1.2 0 .3.1.5-.1-.1-.1-.1-.2-.3.2.4 0 .1 0 .3-.2-.1-.2-.3-.2-.2-.1-.1-.1-.3-.1-.3-.1.1.1.3.2.4-.1.1-.2-.2-.3-.3 0 .1.1.4 0 .4 0 0-.1 0-.1-.1.1.2-.2.2-.1.5h-.1l.3.3s.1.2-.1.1c0 0 0-.1-.1-.1v.1c-.2-.2 0-.1-.2-.3 0 .1.1.4 0 .4-.2-.2 0-.2-.2-.3h.2c-.4-.3.1 0-.3-.3-.2.1 0 .2-.2.3.1.1.2.1.3.3.1.3-.6-.3-.4 0 .1.1.4.4.2.3l-.2-.2c-.1.1.3.3.1.3-.1-.1 0-.1-.1-.1-.3-.1.1.2.1.2l-.2-.1c-.1.1.1.4.1.6-.1 0-.1-.1-.2-.1 0 .2-.2.4-.4.5l.2.1h-.2c-.1.1.1 0 .2.1h-.2c.2.2.3.4.1.6h-.1c-.1.1.5.2.2.2-.1.2.1.5-.3.7.3 0-.1.2.3.2-.2.2-.3.1-.5.3 0 .1.3 0 .4.1l-.2.1h.3l-.3.1h.1s.1-.1.2-.1c.1.1-.1.3-.2.3l.3.2h-.2c.3 0-.3.1 0 .1 0 0 .1 0 .2-.1-.1.1-.1.2 0 .3l-.2.1c0 .2.2.3.3.5 0-.1.3-.2.4-.2l-.1-.1c.2-.1.1-.1.3-.1 0 .1-.2.2-.3.2h.1c-.1 0-.1.1-.2.1.2-.1-.1.3.1.2l-.1.1c.1.2.2.2.4.3.2-.2.2-.1.4-.2 0 .1 0 .3.1.4.1 0 .1-.1.3-.2-.1.2 0 .2-.2.3.1.1.2.1.5.1 0-.1 0-.1.1-.2v.2c.3-.2.2.8.6.5l.3-.2c.1.1-.1.1-.1.3.3-.3.3.2.5 0 0 .6.5 0 .6.4v-.1c.1-.1.1.1.1.1v-.2c.4-.1.8.2 1.3.2.2 0-.1-.8.2-.5v.3c.2-.4.6-.2.8-.6 0 .1.1.1 0 .2.2.1.2-.1.1-.3l.2.2c.1.1 0-.3.1-.2v.1c0-.1.2-.1 0-.2.2 0 .1-.2.3-.2-.1-.2.2 0 0-.3.3.3.4.1.3-.1.1.1.1 0 .2.2.1-.1 0-.2-.1-.3.4.1-.1-.4.4-.2 0-.3 0-.6-.1-.8.3.2-.1.2.3.4 0-.3-.3-.5-.1-.6.1 0 .1.1.2.1-.1-.2.2-.4 0-.6 0 0 .1 0 .1.1 0 0 .1-.1-.1-.1s-.5-.2-.6-.3c.2.2-.1-.1.5.1h-.2c0-.1.1-.1.2 0zm-7.4-2.7zm-.1.2h0zm6-.8l-.1.1c0-.1 0-.1.1-.1zm-1.4-.9v.2h-.1c0-.1.1-.1.1-.2zm-.4-.1v.2h-.1l.1-.2zM438.4 250.7v-.1zM444.3 246.2c0 .1 0 .1 0 0zM446.4 250.9c0 .1 0 0 0 0zM446 249.3h0zM445.7 252.8zM446.1 249.4zM442.9 245.7c0 .1 0 .1 0 0z"/><path d="M442.8 245.9c.1-.1 0-.1 0 0zM443.5 245.9s0-.2-.1-.2v.1c0-.1 0 .2.1.1zM446.1 248.6h.1-.2zM331 244.8c-.1 0 0-.1-.1 0-.1.2-.1.2.1.1l-.1.1c.1-.1.3-.2.5-.4l-.4.2c-.2.2-.1.1 0 0zM331.6 245.1c-.1 0 0 0 0 0zM328.4 243.1v.2c0-.1.1-.2 0-.2zM331.6 245.2c-.1 0-.1 0 0 0zM327.6 252.4c0-.1 0-.1-.1-.2v.1l.1.1z"/><path d="M331.8 247.3c-.1 0-.2-.1-.2-.1.1.1.3 0 .4 0h-.2c.3-.1-.4 0-.2-.1h.1c-.1 0-.2-.1-.2-.1h.3c0-.1-.4-.1-.2-.2.1 0 .1.1.1.1.2-.1.2-.1.2-.2l.1-.1h-.1c-.6 0-.1-.2-.5-.2.4 0 .2 0 .4-.1.1 0 .1-.1.2-.1-.2 0 .1-.1-.2-.1.1 0 0-.1.2-.1-.1-.1-.1.1-.2.1-.3 0 .2-.4-.2-.4-.2-.1-.4 0-.6 0 .1-.1.2-.1.2-.1.1-.1 0-.2-.1-.2.1 0 .1-.1.2-.1 0 0-.3.1-.2 0 .1 0 .2-.1.3-.1h-.4c.1-.1.2-.1.3-.1-.1 0-.2-.1-.4 0v.1s.1-.1.2-.1c.2-.1 0 .1-.1.2h-.1c-.3.3.2.1.2.2l-.2.1c-.1-.2-.3-.3-.4-.5l.3-.3v.1l.2-.2h-.1c.1-.1.2-.3.2-.4l-.2.1.1-.2.1.1c.1-.2-.1-.1-.2 0 .1-.1.1-.1.1-.2l-.3.2c.1-.1.2-.2.2-.3-.1.1-.2.3-.3.3.1-.2.2-.3 0-.2 0-.1.1-.1.1-.2-.1.1-.2 0-.3.1.1-.2-.2 0 0-.4-.1.1-.2.2-.3.2.3-.3-.2-.1.1-.5-.2.3-.3 0-.5.2l.1-.1c-.1-.1 0-.2-.1-.3-.1.3-.2.3-.4.5 0-.3.2-.3.2-.6-.1.2-.2.2-.3.4v-.4c-.1.4-.1 0-.2.3 0-.2.1-.4-.1-.3 0-.1.1-.2.1-.2-.1 0-.1.3-.2.4-.1.1 0-.2 0-.4-.1.1-.2.3-.3.3v-.1c-.1.2-.3 0-.4.3v-.1.4s-.1.2-.1 0v-.1.1c0-.3.1-.1.1-.3-.1.1-.2.3-.3.2 0-.3.2-.1.1-.3l.1.1c-.1-.4.1 0 0-.4-.2-.1-.2.1-.3.1v.4c-.2.3-.2-.7-.4-.3 0 .2 0 .5-.1.4v-.3c-.2 0 0 .5-.2.3 0-.1.1-.1.1-.2-.2-.2 0 .2-.1.2l-.1-.3c-.2.1-.3.3-.4.4 0-.1 0-.2-.1-.2-.2.2-.4.2-.7.2l.1.2-.1-.1c-.1 0 .1.1.1.2 0 0-.1-.1-.1-.2 0 .3-.1.6-.3.5v-.1c-.2 0 .2.5 0 .4-.2.1-.2.4-.6.2.2.3-.3 0 .1.4-.3-.1-.3-.2-.6-.1-.1 0 .2.3.2.3l-.2-.2.2.2-.3-.1v.1s.1 0 .2.1c0 .1-.3.1-.4 0l.1.3c-.1-.1-.1-.1-.1-.2.2.2-.2-.1-.1.1.1 0 .1.1.2.1-.2 0-.2.1-.2.2l-.2-.1c-.1.2-.1.4-.1.6.1-.1.4.1.4.1h-.3c.2.1.1 0 .3.1 0 .1-.3 0-.4-.1l.1.1c-.1 0-.1 0-.2-.1.2.1-.3.1 0 .2h-.1v.5c.2 0 .2.1.4.1-.1.1-.3.2-.2.4.1.1.2 0 .3.1-.2 0-.2.2-.3.1 0 .2.1.2.3.4.1 0 .1-.1.2-.1 0 0-.1.1-.2.1.2.1.1.2 0 .4s-.2.4.1.4c0 0 .1 0 .1.1.1 0 .1.1.1.1 0 .1-.2 0-.3.1.4.1.1.4.4.4-.4.5.3.4.2.8l.1-.1c.1-.1 0 .1 0 .2.1-.1.1-.1.1-.2.4.2.5.7.9 1.1.1.1.4-.6.5-.2l-.2.2c.4-.2.6.3 1 .1 0 .1-.1.1-.1.1 0 .2.2.1.3-.1v.2c0 .1.2-.2.2 0v.1c.1-.1.2.1.2-.2.1.1.2-.1.3.1.1-.2.2.1.2-.2 0 .4.2.3.3.1 0 .1.1.1.1.3.1 0 .2-.1.1-.3.2.4.2-.4.4.1.2-.2.4-.5.6-.6.1.4-.2.1-.1.5.2-.2.1-.6.4-.6.1 0 0 .2.1.2.1-.2.4-.2.4-.5v.1s.1 0 0-.1v.1c-.2-.2-.2-.5-.3-.6.2.4.2 0 .5.5 0 0 0-.1-.1-.2 0 0 .1 0 .2.2 0-.2-.1-.3 0-.3.1.1.1.1.1.2-.1-.2-.1-.3 0-.3l.1.1c.1-.1-.1-.5.1-.5.2.3.1 0 .3.3v-.1l-.1-.1c.1 0-.1-.2.1-.2l.1.1.1-.1h-.1c-.1-.2-.3-.3-.2-.3 0 0 .1 0 .2.1 0-.1-.1-.2 0-.2l.3.3c-.2-.2.1-.2-.1-.4 0 .1.2.2.2.2l-.1-.2c.1 0 .1 0 .2.1.1-.1-.3-.2-.1-.2v.1c.2-.1 0-.3.2-.3.3.1 0 .1.3.2.1-.2-.1-.5 0-.6-.4-.2.3 0 .1-.2l.2.1c.1-.1 0-.3-.1-.5h.1c.1 0 .1-.2.2-.2-.1 0-.1-.1-.2-.1.3-.1.3-.2.2-.3-.1-.1-.2-.2.1-.3 0 0 .1.1.1 0l-.1-.2c-.9.2-.9.2-1 .2zm-.4-1.4l-.2.1v-.1h.2zm-.2-.5s-.1.1-.2.1v-.1h.2zm-4.4-1.7zm-.1.1c0 .1.1.1 0 .2 0-.1-.1-.1 0-.2-.1 0-.1 0 0 0zm4.8 3.8h0zM324.3 245.3zM332.1 246.3c-.1 0-.1 0 0 0zM330 251.4c0 .1 0 0 0 0zM330.9 249.9v0zM328.1 252.4z"/><path d="M330.8 250.1c.1 0 .1 0 0 0 .1-.1 0-.1 0 0zM331.4 244.8zM331.4 244.8c-.1 0-.1 0 0 0zM331.7 245.4s.1-.2 0-.2h-.1c.2 0 0 .3.1.2zM331.5 249.5h.1l-.1-.1zM340.4 232.5v.2c0-.1.1-.4.1-.6-.1.3-.1.2-.1.4-.1.1-.1-.1-.1-.2 0 .1 0-.1-.1.1.1.3.1.3.2.1zM340.9 232.1s0 .1 0 0c0 .1 0 .1 0 0zM337.4 232.8c.1 0 .1.1.2.1-.1-.1-.1-.2-.2-.1zM340.9 232.1c0 .1 0 .1 0 0 0 .1 0 .1 0 0 0 .1 0 .1 0 0zM343.1 239.4c-.1 0-.1-.1-.2-.1v.1h.2z"/><path d="M344.2 236.1l-.2-.1c0-.1-.2-.1-.1-.2l.1.1-.1-.1-.1.1c-.2-.1-.4 0-.3-.1 0 0 0-.1.2-.1-.1 0-.2 0-.1-.1h.4c-.3 0-.1-.2-.4-.2h.3-.2c.1 0 .1-.1.2-.1 0-.1-.4.1-.2 0h.1c.1-.1-.2-.2-.1-.3.3-.1.1.1.3 0-.1-.2-.5-.2-.5-.4-.4.2.2-.2-.1-.2l.2-.1c0-.1-.2-.2-.4-.2h.1v-.3c-.1 0-.1 0-.2.1.2-.3.1-.3-.1-.3-.1 0-.3 0-.2-.2h.1-.2c-.1.2-.1.1-.1.2-.1.1-.2.1-.2.1.1 0 .2-.2.2-.3l-.1.1c.2-.3-.3.3-.2 0l.1-.1c-.1 0-.2.1-.2.1.1-.2.1-.1.2-.2-.1 0-.3.3-.3.1.1 0 .1 0 .1-.1.1-.2 0-.2 0-.3v-.2.1c-.4.4-.2 0-.5.3.2-.3.1-.2.2-.4v-.2c-.1.2 0-.2-.2 0 0-.1-.1 0 0-.2-.1 0 0 .1-.1.2-.2.2-.1-.4-.4-.1-.2.1-.2.3-.4.4 0-.1.1-.2.1-.2 0-.1-.1-.1-.2 0v-.2c-.1 0-.1.3-.1.2s.1-.2.1-.3c-.1.1-.1.2-.2.3 0-.1.1-.2.1-.3-.1.1-.2.1-.2.3v.1-.2c.1-.2.1.1.1.2 0 .5.2-.1.2 0l-.1.3c-.2 0-.4-.1-.6-.1v-.4s0 .1 0 0v-.3l-.1.1c0-.2 0-.3-.1-.4h.2v-.2h.1c-.1-.2-.1 0-.1.1 0-.1 0-.2-.1-.2l-.1.4c0-.1 0-.3-.1-.4 0 .2.1.3 0 .4-.1-.2-.1-.3-.1-.2v-.2c0 .1-.1.1-.1.3-.1-.2-.2.1-.2-.3 0 .1 0 .3-.1.3 0-.4-.2 0-.3-.4 0 .4-.2.2-.2.5v-.1c-.1 0-.1-.1-.2-.2.1.3 0 .4.1.6-.2-.2-.1-.4-.3-.6.1.2 0 .3.1.5-.1-.1-.1-.1-.2-.3.2.4 0 .1 0 .3-.2-.1-.2-.3-.2-.2-.1-.1-.1-.3-.1-.3-.1.1.1.3.2.4-.1.1-.2-.2-.3-.3 0 .1.1.4 0 .4 0 0-.1 0-.1-.1.1.2-.2.2-.1.5h-.1l.3.3s.1.2-.1.1c0 0 0-.1-.1-.1v.1c-.2-.2 0-.1-.2-.3 0 .1.1.4 0 .4-.2-.2 0-.2-.2-.3h.2c-.4-.3.1 0-.3-.3-.2.1 0 .2-.2.3.1.1.2.1.3.3.1.3-.6-.3-.4 0 .1.1.4.4.2.3l-.2-.2c-.1.1.3.3.1.3-.1-.1 0-.1-.1-.1-.3-.1.1.2.1.2l-.2-.1c-.1.1.1.4.1.6-.1 0-.1-.1-.2-.1 0 .2-.2.4-.4.5l.2.1h-.2c-.1.1.1 0 .2.1h-.2c.2.2.3.4.1.6h-.1c-.1.1.5.2.2.2-.1.2.1.5-.3.7.3 0-.1.2.3.2-.2.2-.3.1-.5.3 0 .1.3 0 .4.1l-.2.1h.3l-.3.1h.1s.1-.1.2-.1c.1.1-.1.3-.2.3l.3.2h-.2c.3 0-.3.1 0 .1 0 0 .1 0 .2-.1-.1.1-.1.2 0 .3l-.2.1c0 .2.2.3.3.5 0-.1.3-.2.4-.2l-.2.2c.2-.1.1-.1.3-.1 0 .1-.2.2-.3.2h.1c-.1 0-.1.1-.2.1.2-.1-.1.3.1.2h-.1c.1.2.2.2.4.3.2-.2.2-.1.4-.2 0 .1 0 .3.1.4.1 0 .1-.1.3-.2-.1.2 0 .2-.2.3.1.1.2.1.5.1 0-.1 0-.1.1-.2v.2c.3-.2.2.8.6.5l.3-.2c.1.1-.1.1-.1.3.3-.3.3.2.5 0 0 .6.5 0 .6.4v-.1c.1-.1.1.1.1.1v-.2c.4-.1.8.2 1.3.2.2 0-.1-.8.2-.5v.3c.2-.4.6-.2.8-.6 0 .1.1.1 0 .2.2.1.2-.1.1-.3l.2.2c.1.1 0-.3.1-.2v.1c0-.1.2-.1 0-.2.2 0 .1-.2.3-.2-.1-.2.2 0 0-.3.3.3.4.1.3-.1.1.1.1 0 .2.2.1-.1 0-.2-.1-.3.4.1-.1-.4.4-.2 0-.3 0-.6-.1-.8.3.2-.1.2.3.4 0-.3-.3-.5-.1-.6.1 0 .1.1.2.1-.1-.2.2-.4 0-.6 0 0 .1 0 .1.1 0 0 .1-.1-.1-.1s-.5-.2-.6-.3c.5.2.2-.1.7.1 0 0-.1-.1-.2-.1h.2c-.1-.1-.2-.1-.2-.2.1 0 .1 0 .2.1-.2-.1-.3-.2-.2-.2h.1c0-.2-.4-.3-.2-.4-.1.1-.3 0 0 0zm-7.4-1.9s0 .1 0 0c0 .1 0 0 0 0zm-.1.2h.2-.2zm6-.8l-.1.1c-.1 0 0-.1.1-.1zm-1.4-.9v.2h-.1s0-.1.1-.2zm-.4-.1v.2h-.1l.1-.2zM336 237h.1-.1zM342 232.6s-.1 0 0 0zM344.1 237.2c0 .1 0 .1 0 0zM343.7 235.6h0zM343.4 239.1zM343.8 235.7s-.1 0 0 0zM340.6 232.1zM340.5 232.2c0-.1 0-.1 0 0z"/><path d="M341.2 232.2s0-.2-.1-.2v.1c0-.1 0 .3.1.1zM343.8 234.9h.1-.2zM351.1 245v.2c0-.1.1-.4.1-.6-.1.3-.1.2-.1.4-.1.1-.1-.1-.1-.2 0 .1 0-.1-.1.1.1.3.1.3.2.1zM351.6 244.6c0 .1 0 .1 0 0zM348.1 245.3c.1 0 .1.1.2.1-.1-.1-.1-.2-.2-.1zM351.6 244.6c0 .1 0 .1 0 0 0 .1 0 .1 0 0zM353.8 251.9c-.1 0-.1-.1-.2-.1v.1h.2z"/><path d="M354.9 248.6l-.2-.1c0-.1-.2-.1-.1-.2l.1.1-.1-.1-.1.1c-.2-.1-.4 0-.3-.1 0 0 0-.1.2-.1-.1 0-.2 0-.1-.1h.4c-.3 0-.1-.2-.4-.2h.3-.2c.1 0 .1-.1.2-.1 0-.1-.4.1-.2 0h.1c.1-.1-.2-.2-.1-.3.3-.1.1.1.3 0-.1-.2-.5-.2-.5-.4-.4.2.2-.2-.1-.2l.2-.1c0-.1-.2-.2-.4-.2h.1v-.3c-.1 0-.1 0-.2.1.2-.3.1-.3-.1-.3-.1 0-.3 0-.2-.2h.1-.2c-.1.2-.1.1-.1.2-.1.1-.2.1-.2.1.1 0 .2-.2.2-.3l-.1.1c.2-.3-.3.3-.2 0l.1-.1c-.1 0-.2.1-.2.1.1-.2.1-.1.2-.2-.1 0-.3.3-.3.1.1 0 .1 0 .1-.1.1-.2 0-.2 0-.3v-.2.1c-.4.4-.2 0-.5.3.2-.3.1-.2.2-.4v-.2c-.1.2 0-.2-.2 0 0-.1-.1 0 0-.2-.1 0 0 .1-.1.2-.2.2-.1-.4-.4-.1-.2.1-.2.3-.4.4 0-.1.1-.2.1-.2 0-.1-.1-.1-.2 0v-.2c-.1 0-.1.3-.1.2s.1-.2.1-.3c-.1.1-.1.2-.2.3 0-.1.1-.2.1-.3-.1.1-.2.1-.2.3v.1-.2c.1-.2.1.1.1.2 0 .5.2-.1.2 0l-.1.3c-.2 0-.4-.1-.6-.1v-.4s0 .1 0 0v-.3l-.1.1c0-.2 0-.3-.1-.4l-.1.2v-.2h.1c-.1-.2-.1 0-.1.1 0-.1 0-.2-.1-.2l-.1.4c0-.1 0-.3-.1-.4 0 .2.1.3 0 .4-.1-.2-.1-.3-.1-.2v-.2c0 .1-.1.1-.1.3-.1-.2-.2.1-.2-.3 0 .1 0 .3-.1.3 0-.4-.2 0-.3-.4 0 .4-.2.2-.2.5v-.1c-.1 0-.1-.1-.2-.2.1.3 0 .4.1.6-.2-.2-.1-.4-.3-.6.1.2 0 .3.1.5-.1-.1-.1-.1-.2-.3.2.4 0 .1 0 .3-.2-.1-.2-.3-.2-.2-.1-.1-.1-.3-.1-.3-.1.1.1.3.2.4-.1.1-.2-.2-.3-.3 0 .1.1.4 0 .4 0 0-.1 0-.1-.1.1.2-.2.2-.1.5h-.1l.3.3s.1.2-.1.1c0 0 0-.1-.1-.1v.1c-.2-.2 0-.1-.2-.3 0 .1.1.4 0 .4-.2-.2 0-.2-.2-.3h.2c-.4-.3.1 0-.3-.3-.2.1 0 .2-.2.3.1.1.2.1.3.3.1.3-.6-.3-.4 0 .1.1.4.4.2.3l-.2-.2c-.1.1.3.3.1.3-.1-.1 0-.1-.1-.1-.3-.1.1.2.1.2l-.2-.1c-.1.1.1.4.1.6-.1 0-.1-.1-.2-.1 0 .2-.2.4-.4.5l.2.1h-.2c-.1.1.1 0 .2.1h-.2c.2.2.3.4.1.6h-.1c-.1.1.5.2.2.2-.1.2.1.5-.3.7.3 0-.1.2.3.2-.2.2-.3.1-.5.3 0 .1.3 0 .4.1l-.2.1h.3l-.3.1h.1s.1-.1.2-.1c.1.1-.1.3-.2.3l.3.2h-.2c.3 0-.3.1 0 .1 0 0 .1 0 .2-.1-.1.1-.1.2 0 .3l-.2.1c0 .2.2.3.3.5 0-.1.3-.2.4-.2l-.2.2c.2-.1.1-.1.3-.1 0 .1-.2.2-.3.2h.1c-.1 0-.1.1-.2.1.2-.1-.1.3.1.2h-.1c.1.2.2.2.4.3.2-.2.2-.1.4-.2 0 .1 0 .3.1.4.1 0 .1-.1.3-.2-.1.2 0 .2-.2.3.1.1.2.1.5.1 0-.1 0-.1.1-.2v.2c.3-.2.2.8.6.5l.3-.2c.1.1-.1.1-.1.3.3-.3.3.2.5 0 0 .6.5 0 .6.4v-.1c.1-.1.1.1.1.1v-.2c.4-.1.8.2 1.3.2.2 0-.1-.8.2-.5v.3c.2-.4.6-.2.8-.6 0 .1.1.1 0 .2.2.1.2-.1.1-.3l.2.2c.1.1 0-.3.1-.2v.1c0-.1.2-.1 0-.2.2 0 .1-.2.3-.2-.1-.2.2 0 0-.3.3.3.4.1.3-.1.1.1.1 0 .2.2.1-.1 0-.2-.1-.3.4.1-.1-.4.4-.2 0-.3 0-.6-.1-.8.3.2-.1.2.3.4 0-.3-.3-.5-.1-.6.1 0 .1.1.2.1-.1-.2.2-.4 0-.6 0 0 .1 0 .1.1 0 0 .1-.1-.1-.1s-.5-.2-.6-.3c.5.2.2-.1.7.1 0 0-.1-.1-.2-.1h.2c-.1-.1-.2-.1-.2-.2.1 0 .1 0 .2.1-.2-.1-.3-.2-.2-.2h.1c0-.2-.4-.3-.2-.4.3-.1 0-.2.3-.2zm-7.4-1.9zm-.1.2h.2-.2zm6-.8l-.1.1c0-.1 0-.1.1-.1zm-1.4-.9v.2h-.1c0-.1 0-.1.1-.2zm-.4-.1v.2h-.1l.1-.2zM346.8 249.5zM352.7 245.1zM354.8 249.7c0 .1 0 0 0 0zM354.4 248.1h0zM354.1 251.6zM354.5 248.2zM351.3 244.5c0 .1 0 .1 0 0zM351.2 244.7c0-.1 0-.1 0 0z"/><path d="M351.9 244.7s0-.2-.1-.2v.1c0-.1 0 .3.1.1zM354.5 247.4h.1-.2zM371.2 181.4c.1.1.4.2.6.1-.3-.1-.2-.1-.5-.2 0-.1.1-.2.2-.2-.1 0 0-.2-.1-.2-.2.1-.2.3 0 .5h-.2zM371.9 182.7s0-.1 0 0c-.1-.1-.1 0 0 0zM371.3 172.9c-.1.1-.1.1-.2.1.1 0 .3.2.2-.1zM371.9 182.8c-.1-.1-.1-.1-.1 0 0-.1.1-.1.1 0zM361.4 189.8c.1-.1.1-.1.1-.2h-.1v.2z"/><path d="M372.1 177.5c-.4-.2-.2-.6-.5-.9 0 0 .1 0 .1.1 0-.2.1-.2.2-.4-.3 0-.4-.3-.6-.4.3-.2.4.1.7 0-.3 0-.3-.4-.5-.3.2-.2.1-.2.3-.3-.4 0-.1-.1-.3-.3.2-.3.4-.1.2-.4.1-.1.3.1.3.1 0-.3-.3-.1-.5-.1-.1-.3.2-.2.3-.3-.1-.2-.4-.3-.4-.5 0 0 .1-.1.1 0-.3-.2-.1-.6-.5-.8h.1c-.1.1-.3.1-.4.1 0-.1-.2-.2-.1-.3 0 .1.1.1.2.1l-.1-.1c.3-.2.1.1.3.1-.2-.2-.4-.5-.4-.7.3-.1.2.4.4.1v.3c.4-.3 0 .2.4-.1 0-.4-.3-.4-.3-.8-.2 0-.2.1-.4.1-.5-.4.5-.7 0-.9-.2 0-.6.1-.5-.3h.3c-.2-.4-.5 0-.5-.5.1 0 .2.2.2.2.1-.4-.3-.1-.4-.3l.2-.2c-.1-.2-.3-.3-.5-.5s-.4-.3-.6-.5c.1 0 .2 0 .2-.2-.5-.4-.9-1-1.4-1.4l-.3.1v-.2c-.2-.2-.1.1-.2.2-.1-.1-.1-.2 0-.2-.2 0-.6 0-.8-.1-.3-.1-.6-.1-.7-.3h.1c-.3-.2-.5.4-.7.1h.1c-.7-.2-1.5 0-2.1-.2 0 .2-.2.2-.4.2s-.3.1-.3.3c-.2 0-.3-.1-.5-.1h-.6c-.2.1-.1.4-.2.5l-.1-.2-.1.4-.3-.1-.1.2c.1 0 .2 0 .2.1-.1.3-.7.3-.8.3l-.3.7c-.1-.1 0-.2 0-.3 0 .5-.3-.1-.3.3.1 0 .1.1.1.1-.2.1-.4.4-.5.7l-.1-.1c-.2.2-.2.5-.3.7-.1.3-.2.5-.2.8.1-.2.4-.1.4.1h-.3c.1.1.1-.2.3.1-.1.2-.3.1-.4-.1v.3c-.1 0-.1-.1-.2-.1.1.1-.3.5 0 .7h-.1c0 .3 0 .6.1.8s.2.5.2.4h.2l.2.2c-.1.3-.2.6-.2 1 .1.2.2.1.3.2-.2 0-.2.4-.3.2.1.4.1.6.3 1.1.1-.1.1-.1.2-.1 0 .1-.1.2-.2.2.4.6-.5 1.5 0 1.9l.3.5c0 .2-.2-.1-.3.1.4.5.1.9.4 1.3-.6.4.2 1.2-.1 1.8l.1-.1c.2.1-.1.2-.1.3.1 0 .1-.2.2-.1.4 1 .2 2.1.3 3.2.1.4.8 0 .6.6l-.3-.1c.5.7.4 1.6.9 2.2-.1 0-.2 0-.2-.1-.1.2.2.6.3.5 0 .1-.1.1-.2.2-.1.2.4.3.2.5h-.1c.1.1.1.5.3.3 0 .3.3.5.2.7.3.1.1.5.4.4-.4.1-.1.6.1.7-.1 0-.1.2-.2.2.1.2.2.3.4.2-.3.5.6.6.2 1 .4.5.8 1 1.1 1.4-.3.1-.3-.5-.6-.4.4.4.8.6.9 1.1 0 .1-.2 0-.3 0 .4.4.4.9.9 1.3h-.1c.1.1.1.3.2.1l-.1-.1c.1-.1.2-.1.4-.1s.3.1.4 0c-.5.2.3.5-.4.7.1 0 .2 0 .3-.1.1.1.1.2-.1.2.4.2.4 0 .7.2 0 .1-.1.1-.2.1.2 0 .5-.1.7.1 0 0 0 .1-.1.1.3.1.5 0 .7 0 .2-.1.5-.1.7-.1-.1.4.2.1.3.4l.3-.1-.2-.1c.3-.1.4-.3.6-.3l-.1.2.4-.2h-.3c.2-.2-.2-.4.1-.4 0 .1.2-.1.4 0 .1-.1.1-.3.3-.3.1.1.2.3.2.3-.1-.3.4-.4.3-.7 0 .1.1.2.2.2l-.1-.2c.1 0 .2 0 .2.1.3-.2-.4-.2 0-.4v.1c.3-.3.4-.7.6-1 .3 0-.1.3.2.3.3-.5.1-1.2.2-1.7v.1c-.4-.1.3-.3.1-.6 0 .1.2.1.2.1.1-.3 0-.7-.1-1.2l.1.1c.1-.2.1-.5.2-.7-.1-.1-.1-.2-.2-.1.7-.6-.3-1.2.3-1.8 0 .1.1.2.1.1l-.1-.5c-.2 0-.1.1-.3.2-.1-.1-.2-.2-.2-.3.1.2.3 0 .4-.1h-.2c.3-.2-.4-.1-.1-.4h.1c0-.1-.2-.2-.1-.4.2-.1.1.1.3.2 0-.2-.4-.4-.2-.6.1.1.1.2.1.3.3-.2.2-.2.2-.4l.1-.3-.1.1c-.6-.2-.1-.5-.5-.8.4.3.2.1.5.1.1-.1.1-.2.2-.2-.2-.2.2-.3-.1-.5.1 0 0-.2.2-.1-.1-.2-.1.1-.2 0-.3-.3.3-.7-.1-1.2-.2-.4-.4-.4-.6-.7v-.1c.1-.1.3.1.3.1.1-.2.1-.3 0-.5.1 0 .1 0 .2-.1 0-.1-.3-.1-.2-.3.1 0 .2.1.3.1-.1-.2-.2-.3-.3-.5.1-.1.2.1.3.2-.1-.2-.2-.5-.4-.6l-.1.1c0-.1.2-.1.2 0 .2.2-.1.3-.1.3l-.1-.1c-.5.2.1.5.1.8l-.3-.1c0-.6-.1-1.3-.1-1.9h.4s-.1 0 0 .1h.3l-.1-.1c.2 0 .3-.1.4-.3l-.3-.3.2-.1v.2c.2-.1 0-.2-.1-.3.1 0 .2-.1.2-.1l-.4-.3c.1 0 .3.1.4-.1-.2-.1-.3.1-.5-.1.2-.1.3-.1.2-.3.1 0 .2 0 .2.1-.1-.1-.1-.4-.3-.4.2-.2-.1-.5.3-.5-.1 0-.3-.2-.3-.4.8.3.3-.4.8-.4zm-3.1-8.6l.1.1c0-.1 0-.1-.1-.1zm-.2-.3c0 .1-.1.1-.2.1.1 0 0-.1 0-.3.1.1.1.2.2.2zm2.6 20.9h-.2v-.2c.1 0 .2.1.2.2zm.1-5.2l-.2.1v-.2s.1 0 .2.1zm-.1-1.4c-.1 0-.1.1-.2.1v-.2l.2.1z"/><path d="M361 167.2l.1.1v-.1zM371.9 186s-.1 0 0 0h-.1.1zM364.2 195.5c-.1-.1-.1-.1 0 0zM369 196.1c0 .1 0 .1-.1.2.1 0 .2-.1.1-.2zM361.8 190.9v-.1zM369 196.3c-.1 0-.2 0-.2.1.1 0 .1 0 .2-.1zM371.9 181.8s-.1 0 0 0zM371.7 181.6l.1.1-.1-.1zM371.9 183.5c0-.1.2-.2.1-.4h-.1c.1.1-.2.3 0 .4zM370.7 194.8l.2-.1-.1-.2c0 .1 0 .3-.1.3zM398.9 168.7c.2 0 .4-.2.5-.4-.2.1-.2 0-.5.2-.1 0-.1-.2 0-.2-.1 0-.1-.1-.2 0 0 .2.1.3.2.4.1-.1 0-.1 0 0zM400.3 169h-.1.1zM391.9 168.9h.2c-.2 0-.1-.3-.2 0zM400.3 169.1h-.1c.1 0 .1-.1.1 0zM401 191.1c-.1 0-.2 0-.2.1v.1l.2-.2z"/><path d="M401.9 178.1c-.5 0 .2-.2 0-.4 0 .1.2.1.2.1.1-.3-.1-.6-.2-1l.1.1c.1-.2.1-.4.1-.6-.1-.1-.1-.2-.3-.1.6-.6-.3-1.1.2-1.6 0 .1.1.1.1.1l-.1-.4c-.2 0-.1.1-.3.2-.1 0-.2-.2-.2-.3.1.2.3 0 .4-.1h-.2c.3-.3-.4 0-.2-.3h.1c-.1-.1-.2-.2-.2-.3.2-.1.1.1.3.1 0-.2-.5-.3-.3-.5.1.1.1.2.2.2.2-.2.2-.2.2-.4l.1-.3-.1.1c-.6-.1-.2-.4-.6-.6.4.2.2 0 .5-.1 0-.1.1-.2.2-.2-.2-.1.1-.3-.3-.4.1 0 0-.2.2-.2-.1-.2-.1.1-.2.1-.4-.2 0-.8-.5-1-.3-.2-.6-.2-.8-.3v-.1c.1-.1.3-.1.3-.1 0-.2-.1-.3-.3-.4.1 0 .1-.1.1-.2-.1-.1-.3.1-.3-.1.1 0 .2-.1.3-.1-.2-.1-.4-.1-.6-.1.1-.1.2-.1.3-.1-.2-.1-.5-.2-.7-.1v.1c-.1 0 .1-.2.2-.2.2 0 .1.2.1.3h-.1c-.2.4.4.2.5.5l-.3.1c-.4-.4-.8-.8-1.4-1 .3-.2.7-.3.6-.8l-.4-.1.1-.2.2.2c0-.2-.2-.2-.3-.2 0-.1.1-.2 0-.2l-.5.1c0-.1.3-.2.1-.4-.2.1-.1.4-.3.3 0-.2.1-.3-.2-.3 0-.1.1-.1.2-.1-.2 0-.4-.1-.6 0-.1-.3-.5-.1-.4-.4-.1.1-.3.2-.5.2.3-.4-.5 0-.5-.5-.2.4-.7.2-1 .6 0 0 0-.1.1-.1-.2 0-.3-.1-.4-.1.1.3-.2.5-.2.7-.3-.2 0-.4-.2-.6.1.2-.3.4-.1.6-.2-.1-.2 0-.4-.2.2.4-.1.1-.1.4-.3 0-.3-.3-.4 0-.2 0-.1-.3-.1-.3-.3.2.1.3.1.5-.2.3-.3-.1-.4-.1v.1c.1-.1 0 0 0 0v.2c0 .1 0 .2-.1.3 0 0-.1 0-.1-.1 0 .3-.5.6-.3 1h-.1c.2 0 .3.1.4.2 0 .1.1.3-.1.2 0-.1 0-.1-.1-.2v.1c-.3 0 0-.2-.2-.3 0 .3.1.6 0 .8-.3 0 0-.5-.3-.3l.2-.3c-.5.1.1-.2-.4-.1-.2.4 0 .5-.2.9.1.1.2 0 .4.1.2.6-.8.4-.4.9.2.1.5.1.4.4l-.3-.1c0 .4.5.2.3.6-.1 0-.2-.3-.2-.2-.2.3.2.2.3.3l-.3.1c0 .1.1.2.2.3 0 0 .1 0 .1.1.1.1.2.3.2.5-.1 0-.2-.1-.3 0 .2.4 0 1-.1 1.4l.2.2s-.1.1-.2 0c-.1.2.2 0 .2.1s-.1.1-.2.1c.2.3.4.9.2 1.2l-.1-.1c-.1.2.5.3.2.5-.1.6 0 1.2-.4 1.6.3.1-.2.5.3.6-.3.3-.3.2-.5.6 0 .1.3.2.3.4h-.3l.2.2-.3.1.1.1c0-.1.1-.1.2-.1.1.2-.2.5-.4.5l.2.5c-.1 0-.1-.1-.2-.2.2.3-.3 0-.1.3h.2c-.2.1-.2.4-.1.6l-.2-.1c-.1.4 0 .8 0 1.3.1-.2.4-.1.4 0h-.3c.2.1.1-.1.3.1 0 .2-.3.1-.4 0l.1.2c-.1 0-.1 0-.2-.1.2.1-.3.3 0 .5h-.1c0 .4.1.7.1 1 .2 0 .2.2.4.3-.1.3-.3.6-.2.9.1.2.2.1.3.2-.2 0-.2.3-.3.2 0 .4.1.5.3 1 .1-.1.1-.1.2-.1 0 .1-.1.2-.2.2.4.5-.5 1.3.1 1.8l.2.2.2.2c0 .2-.2-.1-.3.1.2.2.3.4.4.6.1.2.1.4.3.5-.2.3 0 .6.2.8.2.3.5.5.5.8l.1-.1c.2 0 0 .2.1.3.1-.1 0-.2.1-.2.2.2.4.3.6.5s.4.4.7.5c.5.3 1 .7 1.7.8.5.1.3-.7.8-.4l-.1.3c.2-.1.5-.2.7-.3s.4-.1.6-.2c.4-.2.8-.4 1-.8 0 .1.1.1 0 .2.3.1.5-.4.4-.5.1-.1.1.1.2.1.2-.1.1-.5.3-.4v.1c0-.2.4-.4.1-.5.3-.2.2-.5.4-.7-.2-.2.3-.4 0-.6.3.2.5-.4.3-.6.1.1.2-.1.3 0 0-.2 0-.4-.2-.4.5-.3-.2-.8.4-.9-.1-.6-.2-1.1-.2-1.6.4.1 0 .5.4.6-.1-.5-.4-.8-.3-1.2.1-.1.2.1.2.1-.1-.5.1-.9 0-1.3l.1.1c0-.1.1-.2-.1-.2v.1c-.3.1-.5-.4-.6-.4.5.2.2-.4.7-.1 0-.1-.1-.1-.2-.1 0-.1.1-.1.2 0-.1-.3-.2-.2-.2-.5.1 0 .1.1.2.1-.1-.1-.3-.3-.2-.5 0 0 .1 0 .1.1 0-.4-.4-.7-.2-1.1.3.2.1-.1.4-.1l-.1-.2-.2.1c0-.2-.2-.4-.1-.5l.1.2v-.4l-.1.2c-.1-.2-.4 0-.3-.3 0 .1 0-.2.2-.3-.1-.1-.2-.2-.1-.3.1 0 .3.1.4 0-.2-.1 0-.5-.3-.6.1 0 .2.1.3 0l-.2-.1c.1-.1.1-.1.2-.1.1-.3-.4.1-.2-.3l.1.1c.1-.3-.1-.6 0-.9.3-.1.1.3.3.2.2-.2-.1-.7 0-1.1zm-9.8-5v-.1.1zm8.6-2.6l-.1.1c0-.1-.1-.1-.1-.2.1.1.1.1.2.1zm-.6-1.1c0 .1-.1.1-.1.2 0-.1-.1-.1-.1-.2h.2zm-8 4.1v-.2h.2c-.1 0-.1.1-.2.2zm9.4 1.6v-.1c.1 0 .2 0 .2.1h-.2zM391.4 179.7h.1-.1zM401.7 171.9s-.1 0 0 0h-.1.1z"/><path d="M401.7 185.4s.1 0 0 0c.1.1.1.1 0 0zM401.6 181.4l.1.1c0-.1 0-.1-.1-.1zM401.4 190h-.1zM401.7 181.7c.1-.1 0-.1 0-.2v.2zM399.7 168.4s-.1 0 0 0zM399.5 168.4h.1c-.1 0-.1-.1-.1 0zM400.7 169.7c0-.1 0-.3-.1-.4h-.1c.2 0 .1.4.2.4zM401.9 179.7l.2-.1-.2-.1zM386.1 166.5c-.1 0 0-.2-.2-.2-.2.2-.1.4.1.5 0 .1-.1 0-.2 0 .2.1.4.2.6 0-.3 0-.2-.1-.5-.1 0-.1.1-.2.2-.2zM386.8 168.1c0-.1 0-.1 0 0 0-.1 0-.1 0 0zM378.8 162c.1 0 .1.1.2.2-.1-.1.2-.3-.2-.2zM386.8 168.1c-.1-.1-.1-.1-.1 0h.1zM384.6 192.6l-.2.3c0-.1.1-.2.2-.3zM383.6 193.8h-.3v.1l.3-.1z"/><path d="M375.9 179.2c-.1.5 0 .8.1 1.2.2 0 .2.2.4.3-.1.3-.2.7-.2 1 .1.3.2.1.3.2-.2 0-.2.4-.3.2.1.4.1.6.3 1.1.1-.1.1-.1.2-.1 0 .1-.1.2-.2.2.4.6-.5 1.5 0 2l.3.5c0 .2-.2-.1-.3.1.4.5 0 .9.3 1.3-.6.4.2 1.3-.1 1.8h.1c.2.1-.1.2-.1.3.1 0 .1-.2.2-.1.2.5.2 1.1.2 1.6V192c0 .2.1.4.1.6.1.3.3.3.5.3s.3.1.3.4h-.3c.2.2.4.4.7.6.2.2.5.4.7.5.5.3 1.1.4 1.6.3-.1.1-.1.1-.2.1.2.2.8 0 .8-.2.2 0 .1.1.2.2.2.1.5-.4.6-.2 0 0 0 .1-.1.1.1-.1.6-.2.4-.4.4 0 .6-.4.9-.5 0-.3.6-.3.4-.6.2.3.7-.3.6-.6.1.1.2-.1.3 0 .2-.3.2-.5 0-.6.3-.2.3-.5.3-.7s-.1-.5.2-.5c-.2-.6-.2-1.2-.2-1.7.4.1 0 .6.4.6-.1-.5-.4-.9-.2-1.4.1-.1.1.1.2.2-.1-.5.2-1 .1-1.5l.1.1c0-.1.1-.2-.1-.2v.1c-.3.1-.4-.5-.6-.5.4.2.2-.4.8-.1 0-.1-.1-.2-.2-.2 0-.1.1-.1.2 0 0-.3-.2-.3-.2-.6.1 0 .1.1.2.1-.1-.2-.3-.4-.1-.6 0 0 .1 0 .1.1.1-.4-.3-.8 0-1.3.3.2.1-.1.5-.1v-.3l-.2.1c.1-.2-.1-.5 0-.6l.1.2v-.4l-.2.2c-.1-.3-.4-.1-.2-.3 0 .1 0-.2.2-.3-.1-.1-.2-.3 0-.4.1 0 .3.1.4.1-.2-.2 0-.5-.2-.7.1.1.2.1.2.1l-.2-.1c.1-.1.1-.1.2-.1.1-.3-.4 0-.2-.3l.1.1c.1-.4 0-.7.1-1.1.3-.1 0 .3.3.2 0-.5-.2-1.1-.1-1.6v.1c-.4-.1.2-.3.1-.6 0 .1.2.1.2.1.1-.3-.1-.7-.2-1.2l.1.1c.1-.2.1-.5.2-.7-.1-.1-.1-.2-.2-.1.7-.6-.2-1.3.3-1.8 0 .1.1.2.1.1l-.1-.5c-.2 0-.1.1-.3.2-.1-.1-.2-.2-.2-.3.1.2.3 0 .4-.1h-.2c.4-.2-.4-.1-.1-.4h.1c0-.1-.2-.3-.1-.4.2 0 .1.1.3.2 0-.2-.4-.4-.2-.6.1.1.1.2.1.3.3-.2.2-.2.2-.4l.1-.3-.1.1c-.6-.3-.1-.5-.5-.9.4.3.2.1.5.1.1-.1.1-.2.2-.2-.2-.2.2-.3-.1-.5.1 0 0-.2.2-.1-.1-.2-.1.1-.2 0-.3-.3.3-.8-.1-1.2-.2-.4-.4-.4-.6-.7v-.1c.1-.1.3.1.3.1.1-.2 0-.4-.1-.5.1 0 .1 0 .2-.1 0-.2-.3-.1-.2-.3.1 0 .2 0 .3.1-.1-.2-.3-.3-.4-.5.1-.1.2.1.3.1-.1-.2-.2-.5-.5-.5v.2c0-.1.2-.1.2 0 .2.1 0 .3-.1.3l-.1-.1c-.4.2.2.5.2.8h-.3c-.1-.7-.3-1.3-.5-1.9.1 0 .3-.1.4-.1v.1h.3l-.1-.1c.1-.1.2-.2.3-.5 0 0-.1-.1-.2-.1s-.2-.1-.2-.1l.1-.2.2.3c.1-.2-.1-.3-.3-.3.1-.1.1-.2.1-.2h-.6c.1-.1.3-.1.2-.3-.2 0-.2.3-.4.2 0-.2.2-.3-.1-.3 0-.1.1-.1.2-.1-.2 0-.4-.3-.6-.2 0-.3-.5-.3-.3-.6-.1 0-.4.1-.6.1.2-.1.1-.2-.1-.3s-.4-.1-.3-.3c-.1.1-.1.1-.2.1s-.2 0-.2.1c0 0-.1 0-.1.1h-.1s.1-.1.1 0v-.1c-.2.1-.5-.1-.7 0 0-.4.4-.2.5-.5-.2.2-.6-.1-.6.1-.1-.3-.1-.2-.1-.5-.2.3-.2 0-.5.1-.2-.3 0-.4-.3-.4-.1-.2.2-.2.2-.2-.4-.1-.2.2-.4.4-.4 0-.1-.3-.3-.4-.3 0-.5.3-.7.3 0-.1-.1-.1 0-.1-.3.2-.8.1-1.1.5l-.1-.1c.1.1.1.3.2.4-.1 0-.2.2-.3.1.1 0 .1-.1.1-.2l-.1.1c-.2-.2.2-.2.1-.4-.3.2-.5.5-.7.6-.2-.2.4-.3 0-.4l.4-.1c-.4-.3.2-.1-.2-.4-.5.1-.5.4-1 .6 0 .2.2.2.2.4-.2.3-.4.3-.6.3s-.4 0-.4.3c.1.2.4.4.1.7l-.2-.2c-.2.5.3.4 0 .8-.1-.1 0-.4-.1-.3-.3.3.1.3.1.5h-.3c0 .6.2 1 .2 1.4-.1 0-.2-.1-.3 0 .1.6-.1 1.2-.3 1.7l.2.2s-.1.1-.2 0c-.1.2.2 0 .2.1s-.1.2-.2.1c.2.4.4 1.1.1 1.5l-.1-.1c-.1.3.5.4.3.6v-.1c-.1.7.1 1.4-.3 1.9.3.1-.2.7.3.7-.2.4-.3.3-.5.8 0 .1.3.2.4.4h-.3l.3.2-.3.1.1.2c0-.1.1-.1.2-.1.1.3-.2.6-.3.6l.2.6c-.1 0-.1-.1-.2-.2.3.3-.3.1 0 .4h.2c-.2.2-.1.5-.1.7h-.2c0 .5.1 1 .1 1.5.1-.2.4-.2.4 0l-.3.1c.2.1.1-.2.3 0 0 .2-.3.1-.4 0l.1.2h-.2c.3-.4-.1-.1.2 0zm10.5-4.1h-.2v-.2c.1.1.2.1.2.2zm.1-5.4l-.2.1v-.2s.1.1.2.1zm-.1-1.4c-.1 0-.1.1-.2.1v-.3l.2.2zm-9.9-1.9v-.1.1zm0 .3c.1 0 .2 0 .2.1-.1 0-.1.1-.2.2v-.3zM383 162.9c0 .1 0 .1 0 0zM375.9 174.4v-.1zM387 171.5c-.1 0-.1 0 0 0h-.1.1z"/><path d="M385.3 187.1c.1.1.1.1 0 0zM385.7 182.5c0 .1.1.1.1.2 0-.1 0-.2-.1-.2zM384.6 192.6z"/><path d="M385.8 182.6c0 .1-.1.1 0 .2v-.2zM386.7 167.1c-.1 0-.1 0 0 0zM386.6 167.1c0-.1 0-.1 0 0zM386.9 168.9c0-.1.2-.3.1-.4h-.1c.1.1-.2.3 0 .4zM386.3 180.5l.1-.1-.2-.1z"/></g><g fill="#66454d"><path d="M344.5 209.1v.2c.1-.1.2-.4.2-.6-.1.2-.1.1-.2.4-.1.1-.1-.1-.1-.2 0 .1-.1-.1-.1.1.1.2.1.2.2.1zM345.4 208.7c-.1 0-.1 0 0 0-.1 0-.1 0 0 0zM339.8 209.9c.1 0 .1.1.2.1-.2-.1-.1-.3-.2-.1zM345.4 208.7c-.1.1-.1.1 0 0 0 .1 0 0 0 0zM348.3 220.3c-.1-.1-.1-.1-.2-.1v.1h.2z"/><path d="M350.9 215.2l-.1-.2-.1.1c0-.1-.2-.2-.1-.4l.1.1-.1-.2-.1.1c-.2-.1-.4 0-.3-.1 0 0 0-.1.2-.2-.1 0-.2-.1-.2-.2.1 0 .3 0 .4-.1-.3 0-.1-.3-.4-.3h.3-.2c0-.1.1-.1.2-.1 0-.2-.4.2-.3-.1h.1c0-.2-.2-.3-.2-.6.3-.2.1.1.3 0-.1-.3-.6-.4-.6-.7v.1c-.4.2.1-.3-.1-.3l.2-.1c0-.2-.3-.3-.6-.4h.1c0-.2-.1-.3-.2-.4-.1 0-.1 0-.2.1.1-.3 0-.4-.2-.5s-.4-.1-.3-.4h.1l-.3-.1c-.1.2-.1.1-.1.3-.1.1-.2.1-.3 0 .2 0 .2-.2.2-.3l-.1.1c.1-.3-.3.3-.3 0l.1-.1c-.1 0-.2.1-.3 0 .1-.2.1 0 .2-.2-.1-.1-.4.2-.4 0h.2c.1-.3 0-.2 0-.3l-.1-.2v.1c-.4.4-.3-.1-.6.2.3-.2.1-.2.3-.4v-.2c-.2.1-.1-.2-.3 0 0-.1-.1 0 0-.2-.1 0 0 .1-.1.2-.3.2-.3-.5-.6-.2-.2.1-.4.3-.5.4 0-.1.1-.2.1-.2-.1-.1-.2-.1-.3-.1v-.2c-.1 0-.1.3-.2.1 0-.1.1-.2.1-.3-.1.1-.2.2-.3.2 0-.1.1-.2.1-.3-.1 0-.3.1-.4.3l.1.1v-.2c.1-.2.1.1.1.2h-.1c0 .5.3 0 .4 0l-.1.3c-.3-.1-.7-.1-1-.1v-.4s0 .1 0 0v-.3l-.1.1c0-.2-.1-.3-.2-.4l-.2.2-.1-.2h.1c-.1-.2-.1 0-.2.1 0-.1 0-.2-.1-.2l-.1.4c0-.1 0-.3-.1-.4-.1.2.1.3 0 .4-.1-.2-.1-.3-.2-.2v-.2c-.1.1-.2.1-.2.3-.1-.2-.3.1-.3-.2 0 .1-.1.3-.2.3 0-.5-.3 0-.4-.4 0 .4-.3.3-.4.6v-.1c-.1 0-.2-.1-.3-.1.1.3 0 .4 0 .7-.2-.2-.1-.4-.2-.6.1.2-.1.3 0 .5-.2-.1-.1 0-.3-.3.2.4-.1.1 0 .4-.2-.1-.2-.3-.3-.1-.1-.1-.1-.3-.1-.3-.2.1.1.3.1.5-.1.2-.2-.1-.3-.2-.1.1 0 .4-.1.5 0 0-.1 0-.1-.1 0 .3-.3.2-.2.6h-.1l.3.3s0 .2-.1.1v-.1.1c-.2-.2 0-.1-.1-.3 0 .2 0 .5-.1.5-.2-.2.1-.2-.2-.3h.2c-.4-.2.1 0-.3-.3-.2.1-.1.3-.3.4.1.1.2.2.2.3 0 .4-.7-.3-.6.1.1.2.4.4.1.4l-.2-.2c-.2.2.3.4 0 .4-.1-.1 0-.2 0-.2-.3 0 .1.2 0 .3l-.2-.1c-.1.2-.1.5-.2.8-.1-.1-.1-.1-.2-.1 0 .4-.4.6-.6.9l.2.2h-.2c-.1.1.1.1.2.1 0 .1-.2 0-.2 0 .1.3.3.7-.1.9l-.1-.1c-.1.2.4.3.2.4-.1.4 0 .8-.3 1.1.3.1-.1.4.3.4-.2.2-.3.2-.4.5 0 .1.3.1.4.2h-.2l.3.1-.3.1.1.1s.1-.1.2-.1c.1.1-.1.4-.2.4l.3.3c-.1 0-.2 0-.2-.1.3.1-.2.1 0 .2 0 0 .1 0 .2-.1-.1.1-.1.3.1.4h-.2c.1.3.3.5.5.8 0-.1.3-.3.4-.2l-.2.2c.2 0 0-.1.3-.1 0 .1-.2.2-.3.2l.2.1c-.1.1-.1 0-.2.1.2 0-.1.4.2.3l-.1.1c.2.3.4.3.5.5.2-.2.2 0 .4-.1.1.2.1.5.3.6.2 0 .2-.1.3-.2-.1.2.1.3-.1.3.2.1.3.2.7.2 0-.1 0-.1.1-.2.1 0 .1.1 0 .2.2 0 .4.2.5.4s.3.4.5.2l.4-.1c.1.1-.1.1-.1.3.4-.2.5.2.8 0 .1.7.8 0 1 .4v-.1c.1-.1.1.1.2.1 0-.1-.1-.1 0-.2.6-.2 1.3.1 2 0 .3 0-.1-.8.3-.5v.3c.2-.2.4-.3.6-.5.2-.1.1 0 .2-.1l.1-.1c.1 0 .1-.1.1-.1v.2c.2.2.4-.1.3-.3.1 0 .1.1.1.2.1.1.1-.3.3-.2v.1c0-.1.3-.1.1-.3.2 0 .3-.3.4-.2-.1-.3.3-.1.1-.4.2.3.4.1.4-.2 0 .1.2 0 .2.2.1-.1.1-.2 0-.3.5.2.1-.6.6-.3.1-.4.2-.8.3-1.1.3.2-.2.3.1.5.1-.4-.1-.7.1-.9.1 0 .1.1.2.2 0-.4.3-.5.2-.9l.1.1c0-.1.1-.1-.1-.2v.1c-.3 0-.4-.4-.5-.4.4.2.2-.2.7.1 0 0-.1-.1-.2-.1h.2c0-.2-.2-.2-.2-.4.1 0 .1.1.2.1-.1-.1-.3-.2-.2-.4 0 0 .1 0 .1.1 0-.3-.3-.5-.2-.7.6-.2.3-.4.7-.4zm-2.5-4.2l-.1.1-.1-.1h.2zm-2.3-1.6v.2h-.1c0-.1 0-.1.1-.2zm-.7-.2v.2h-.1l.1-.2zm-7 2.8zm0 .2c.1 0 .1.1.1.1h-.2l.1-.1z"/><path d="M337.2 216.5h.1l-.1-.1zM347.1 209.5zM350.5 217.1s0 .1 0 0c0 .1 0 .1 0 0zM350.3 214.4s.1 0 .1.1c0 0 0-.1-.1-.1zM348.9 219.9zM350.4 214.6v-.1.1zM344.8 208.6zM344.7 208.7c.1-.1.1-.1 0 0zM345.8 208.9s-.1-.2-.2-.2v.1c.1-.2.1.2.2.1zM350.2 213.3l.1-.1h-.2zM428.4 210.3c.1.1.4.2.6.1-.3-.1-.1-.1-.5-.2 0 0 .1-.1.2-.1-.1 0 .1-.1-.1-.1-.2.1-.2.1 0 .2-.1.1-.1.1-.2.1zM428.9 211.1c0-.1 0-.1 0 0 0-.1 0-.1 0 0zM427.8 206.3c.1-.1.3-.1.1-.2 0 .1-.1.2-.1.2zM428.9 211.1c0-.1-.1-.1 0 0 0-.1 0 0 0 0zM418.9 214.7c0-.1.1-.1.1-.2h-.1v.2z"/><path d="M429.1 209.4c.1 0 .3.1.4-.1-.2 0-.4.2-.4.1.1-.2.2-.1.1-.2h.2c-.1-.1-.1-.2-.3-.2.2-.1-.1-.2.3-.3-.1 0-.3-.1-.3-.1.5 0 0-.3.4-.3-.4 0-.3-.3-.5-.4h.1c0-.1.1-.2.1-.3-.3.1-.4 0-.6 0 .2-.2.4-.1.6-.3-.2.1-.3-.1-.5.1.1-.2 0-.1.3-.3-.4.2-.1 0-.4 0 .1-.2.3-.2.1-.3.1-.1.3-.1.3-.1-.1-.1-.3.1-.5.2-.2-.1.1-.2.2-.3-.1 0-.4.1-.4 0 0 0 0-.1.1-.1-.3.1-.2-.3-.5-.1v-.1l-.3.3s-.2.1-.1-.1c0 0 .1 0 .1-.1h-.1c.2-.2.1 0 .3-.2-.2 0-.4 0-.4-.1.2-.2.2.1.3-.2v.2c.2-.4 0 .1.3-.3-.1-.2-.3-.1-.4-.3-.1.1-.1.2-.3.3-.4.1.2-.7-.2-.5-.2.1-.4.4-.4.2l.2-.2c-.2-.1-.3.3-.4 0 .1-.1.2 0 .2-.1 0-.3-.2.1-.3.1l.1-.3c-.2-.1-.5 0-.7 0 0-.1.1-.1.1-.2-.3 0-.6-.2-.8-.4l-.2.2v-.2c-.1-.1 0 .1-.1.2-.1 0-.1-.2 0-.2-.2.2-.6.4-.8.1v-.1c-.2-.1-.2.5-.3.3h-.7v-.1l-.1-.1c0 .4-.4-.1-.3.4-.2-.2-.2-.3-.5-.4-.1 0 0 .3-.1.4l-.1-.2-.1.3-.2-.3-.1.1s.1.1.1.2c-.1.2-.4-.1-.4-.2l-.2.3v-.2c-.1.3-.1-.2-.2.1 0 0 .1.1.1.2-.1-.1-.3 0-.4.1l-.1-.2c-.2.1-.4.3-.6.5.1 0 .3.3.3.3l-.2-.2c.1.2.1 0 .2.3-.1 0-.2-.2-.3-.3v.1c-.1-.1-.1-.1-.1-.2.1.2-.3-.1-.2.2l-.1-.1c-.2.2-.2.4-.4.5.2.2.1.2.2.4-.2.1-.4.1-.5.3 0 .2.1.1.2.3-.2-.1-.3.1-.3-.1-.1.2-.1.3-.1.6h.2c0 .1-.1.1-.2 0 .1.4-.8.5-.5.9h.1c0 .1.1.2.1.2-.1.1-.1-.1-.3-.1.2.4-.2.4-.1.7-.3 0-.4.2-.4.4s.1.4-.2.5h.1c.1.1-.1.1-.1.1.1 0 .1-.1.2 0 0 .3 0 .6-.1.9-.1.3-.2.6-.1.9 0 .2.8-.1.5.3h-.3c.4.3.3.8.7 1.1h-.2c-.1.2.2.3.3.2 0 .1-.1.1-.2.2 0 .1.3 0 .2.2h-.1c.1 0 .1.2.3.1 0 .2.3.2.2.3.2-.1.1.3.4 0-.3.2 0 .4.2.3-.1.1 0 .1-.1.2.1.1.2.1.3-.1-.1.5.5 0 .3.5.4 0 .7 0 1 .1-.2.3-.3-.1-.5.2.3 0 .6-.2.8-.1 0 .1-.1.1-.1.2.3-.1.5.2.8.1 0 0 0 .1-.1.1.1 0 .1.1.1-.1h-.1c0-.3.3-.5.3-.6-.2.5.2.2 0 .7 0 0 .1-.1.1-.2v.2c.2-.1.1-.3.3-.2 0 .1 0 .1-.1.2.1-.2.2-.3.3-.2v.1c.2 0 .4-.4.6-.3 0 .4.1.1.1.4l.1-.1-.1-.1c.1 0 .2-.2.3-.2l-.1.1.2-.1-.1-.1c.1-.2-.1-.4.1-.3 0 0 .1 0 .2.1 0-.1 0-.2.1-.2.1.1.1.3.1.4 0-.3.2-.2.2-.4 0 .1.1.2.1.2v-.2c.1 0 .1.1.1.2.2 0-.2-.3 0-.3v.1c.2 0 .3-.3.4-.3.2.2-.1.1.1.3.2-.2.2-.6.5-.7h-.1c-.2-.4.3.1.2-.2l.1.2c.2 0 .2-.3.3-.6l.1.1c.1 0 .2-.1.3-.2-.1-.1 0-.1-.2-.2.7.2.1-.6.7-.5v.1l.1-.2c-.2-.1-.1 0-.3-.1-.1-.1-.1-.2-.1-.2 0 .2.2.2.4.2-.1 0-.1-.1-.1-.1.3.1-.3-.2 0-.2l.1.1c0-.1-.1-.2 0-.2.2.1 0 .1.2.2 0-.1-.2-.4 0-.3v.2c.3.1.2 0 .3 0l.2-.1h-.1c-.4-.4 0-.3-.2-.6.2.3.2.1.4.3h.2c-.1-.2.2 0 0-.3.1 0 0-.1.2 0 0-.1-.1 0-.2-.1s0-.2.1-.2c.1-.1.2-.2.1-.3-.1-.2-.2-.4-.3-.5.1 0 .2.1.2.1.1 0 .2-.1.1-.2h.2c0-.1-.3-.1-.1-.2.1 0 .2.1.3.2 0-.1-.2-.2-.2-.3.1 0 .2.1.3.1 0-.1-.1-.3-.3-.4l-.1.1h.2c.2.1-.1.1-.2.1v-.1c-.5 0 0 .2 0 .4l-.3-.1c.1-.3.1-.6.1-.9h.6c.1 0 .3 0 .5-.2l-.3-.1h.2l.1.1c.1-.1-.1-.1-.2-.2.1 0 .2 0 .2-.1v.3zm-3.3-4.2c.1 0 .1 0 0 0 .1 0 .1 0 0 0zm-.1 0c0 .1-.1.2-.1.1v-.2s0 .1.1.1zm1 8.3s0-.1 0 0c.1 0 .1.1.2.1-.1 0-.1-.1-.2-.1zm1.3-2c.1-.1.1 0 .2 0h-.2zm.4-.5c-.1 0-.2 0-.2-.1v-.1l.2.2zM424.2 215.6zM418.1 208.7zM421.9 204.7zM428.2 212.5c-.1 0-.1 0 0 0zM421.9 216.2zM424.2 215.6v.1c0 .1.1.1 0-.1zM419.4 215.2zM424.1 215.8h.1s-.1-.1-.1 0zM429.1 210.6s-.1 0 0 0zM429 210.5zM428.7 211.5l.2-.1h-.1c.2 0-.2 0-.1.1zM425.2 215.5l.1.1v-.2zM389 229.5c0 .2.1.3.3.2 0 .1-.1.1-.1.2.1-.1.3-.3.4-.5-.2.2-.2.1-.4.3-.1 0-.1-.1 0-.2-.1 0-.1-.1-.2 0zM390.3 229.7zM383.8 228.6c0 .1.1.1.1.2 0-.2.1-.3-.1-.2zM390.3 229.8zM385.8 243.2c0-.1 0 0 0 0z"/><path d="M392.5 233.4l-.2-.3c-.2.1-.1.1-.2.2-.1 0-.2-.1-.2-.2.1.1.3-.1.4-.1h-.2c.3-.2-.4.1-.2-.2h.1c-.1-.1-.2-.1-.2-.2.2-.1.1.1.3 0-.1-.1-.5-.1-.3-.3.1 0 .1.1.2.1.2-.2.1-.2.1-.3v-.3.1c-.6.1-.2-.3-.7-.3.4 0 .2-.1.4-.2 0-.1.1-.2.1-.2-.2 0 0-.2-.3-.2.1-.1-.1-.1.1-.2-.1-.1-.1.1-.2.2-.3 0-.1-.6-.6-.6-.3-.1-.5.1-.7.1 0-.1.2-.2.2-.2 0-.2-.1-.2-.3-.2.1 0 .1-.1.1-.2-.1 0-.2.2-.3 0 .1-.1.2-.2.3-.2-.1 0-.3.1-.5.1 0-.1.2-.1.3-.2-.2 0-.4-.1-.5.1v.1l.1-.2c.2-.1.1.1.1.2h-.1c-.2.4.3.1.5.2l-.2.2c-.3-.2-.7-.4-1.1-.6.1-.1.1-.2.2-.4v.1l.1-.2h-.1v-.5l-.3.2v-.2h.2c0-.2-.1-.1-.2 0v-.2l-.3.3c0-.2.2-.3 0-.4-.1.1 0 .3-.2.4-.1-.2 0-.3-.1-.2 0-.1 0-.2.1-.2-.1.1-.3 0-.4.2-.1-.2-.3 0-.3-.4 0 .1-.2.3-.3.3.2-.4-.3-.1-.3-.5-.2.4-.5.2-.7.4 0 0 0-.1.1-.1-.1 0-.2-.2-.2-.2 0 .3-.2.4-.3.6-.2-.3.1-.4 0-.7 0 .3-.2.3-.2.5-.1-.2-.1-.1-.2-.3 0 .4-.1.1-.2.3-.2-.2-.1-.4-.2-.2-.1-.1 0-.3 0-.3-.2 0-.1.3-.1.5-.2.1-.1-.2-.2-.4-.1.1-.2.4-.3.4v-.1c-.1.3-.4.1-.5.4v-.1c.1.1.1.3.1.4-.1 0-.1.2-.2 0v-.1l-.1.1c-.1-.3.1-.1 0-.3-.1.1-.3.4-.4.3-.1-.3.3-.2 0-.4l.2.1c-.2-.4.1 0-.1-.4-.3 0-.2.2-.5.2 0 .2.1.2.1.4-.3.4-.5-.6-.6-.2 0 .2.1.5-.2.4v-.3c-.2.1 0 .5-.3.4 0-.1.1-.2.1-.2-.2-.2 0 .2-.2.3l-.1-.3c-.2.1-.4.5-.7.6 0-.1 0-.2-.1-.2-.3.3-.7.3-1.1.4v.3l-.1-.1c-.2 0 .1.1.1.2-.1.1-.2-.1-.2-.1-.1.3-.3.8-.7.7v-.1c-.2 0 .1.5-.2.5v-.1c-.4.2-.6.7-1.1.7.2.3-.4.2-.1.6-.3.1-.4-.1-.7.2-.1.1.2.3.2.4l.1.3-.3-.1v.1h.2c0 .2-.4.3-.5.3v.5c-.1 0-.1-.1-.1-.2.2.3-.3 0-.1.2.1 0 .1.1.2.1-.2.1-.3.3-.2.5l-.2-.1c-.1.4-.1.8 0 1.2.1-.1.4-.1.4 0l-.3.1c.2.1.1-.1.3 0 0 .1-.3.1-.4 0l.1.2h-.2c.2.1-.3.4.1.4h-.1c.1.4.2.6.3.9.2-.1.2.1.4.1 0 .2-.1.5.1.8.2.1.2 0 .4 0-.2.1 0 .3-.2.3.2.2.2.3.6.5 0-.1 0-.1.1-.2.1 0 0 .2-.1.2.5.1.2 1.2.7 1.1l.4.1c.1.1-.2.1-.2.2.5 0 .4.4.8.4-.2.6.7.5.8.9l.1-.1c.1-.1 0 .1.1.2.1-.1 0-.2.1-.2.7.2 1.1.9 1.8 1.3.2.1.4-.7.6-.2l-.2.2c.3-.1.6 0 .8.1.1 0 .3.1.4.1h.5c0 .1-.1.1-.1.1.1.2.5.1.5-.1.1 0 0 .1.1.2s.3-.3.4-.1c0 0 0 .1-.1.1.1-.1.4 0 .3-.2.1 0 .3 0 .3-.1.1 0 .1-.1.1 0 0-.2.1.1.2-.2 0 .4.4.3.5.1 0 .1.1.1.1.3.2 0 .3-.1.2-.3.4.4.5-.5.8 0 .4-.4.7-.7.9-1 .2.3-.3.3-.1.6.3-.4.2-.7.6-.9.1 0 .1.2.1.2.2-.4.6-.5.6-.9v.1c0-.1.1-.1 0-.2v.1c-.3-.1-.3-.5-.4-.6.3.4.3-.2.7.3 0 0 0-.1-.1-.2.1 0 .1 0 .2.1 0-.2-.1-.3 0-.4.1 0 .1.1.1.2-.1-.2-.2-.3 0-.4l.1.1c.1-.2-.1-.6.2-.8.2.3.2 0 .4.1v-.2h-.2c.1-.1 0-.3.1-.4l.1.2.1-.3-.2.1c-.1-.2-.3-.2-.2-.3 0 0 .1-.1.3-.1 0-.1-.1-.2 0-.3.1 0 .3.2.4.2-.2-.2.1-.3-.1-.5 0 .1.2.1.2.1l-.2-.1h.2c.1-.2-.4-.1-.1-.3v.1c.2-.2.1-.5.3-.6.3.1 0 .2.3.2.1-.3-.1-.8.1-1h-.1c-.4-.2.3-.2.1-.4l.2.1c.1-.2 0-.5-.1-.8l.1.1c.1-.1.1-.3.2-.5-.1-.1-.1-.1-.3-.1.3-.2.2-.4.1-.6-.1-.2-.2-.4 0-.6.2 0 .3.1.3 0zm-1.7-2.6s-.1.1-.1.2l-.1-.1c0-.1.1-.1.2-.1zm-.7-.6c0 .1-.1.1-.1.2l-.1-.1.2-.1zm-8.8-.4zm-.2.2c0 .1.1.1 0 .2 0-.1-.1-.1-.2-.1.1-.1.1-.1.2-.1zm10.8 3.9v-.1c.1 0 .2 0 .2.1h-.2zM377 233v-.1zM391.8 231.5z"/><path d="M389.8 241c-.1.1 0 .1 0 0zM390.9 238.3v.1c.1 0 .1 0 0-.1zM386.6 243.3zM390.9 238.5c.1 0 .1-.1.1-.1l-.1.1zM389.8 229.4zM389.6 229.4c.1 0 .1 0 0 0zM390.7 230.1c0-.1 0-.2-.1-.3.1 0 0 .4.1.3zM391.7 237.3l.2-.1-.2-.1z"/></g></g></svg>