<svg version="1.1" id="Capa_1" xmlns="http://www.w3.org/2000/svg" x="0" y="0" width="800" height="600" viewBox="0 0 800 600" xml:space="preserve"><g fill="#eb7e44"><path d="M435.7 355.5c-.2-.4.1-1.7-.4-2.2-.2.7-.4 1.5-.3 2.3 0 .8.1 1.7.3 2.7-.2.4-.3 0-.5-.1.3 1.3.7 2.8 1.4 2-.6-1.3-.2-1.6-1-3 0-1.1.3-1.9.5-1.7zM433.3 372.6c.1-.4.2-.7.2-1-.1.4-.2.7-.2 1-.1 0 0 0 0 0zM428.5 326.1c-.1 0-.1 0 0 0 0 .1.1.1 0 0zM433 373.2c-.1.3-.2.6-.4.8l.4-.8zM381.9 294.8c-.1-.5 2.5.3-.7-.8.4.3.5.6.7.8zM433 372.5c.1.2.1.3 0 .6.1-.2.1-.4.2-.6-.1 0-.1-.1-.2 0zM199.5 386.6c.3.3.5.7.9 1.1s.7.8 1.1 1.2c0 0-.5-.6-1-1.1-.5-.5-1-1.2-1-1.2zM306.8 292.6h.7c-.3-.1-.5-.1-.7 0zM193.4 378.5c.2.5.5.9.5.9-.2-.6-.4-1.1-.6-1.7-.1-.1-.2-.2-.3-.2 0 .1.2.6.4 1zM297.4 291.7h0zM268.3 417.4h-.3.3z"/><path d="M434.8 362.7c.2-.2.4.1.5.6.1 1.9-.7 2.6-.9 2.7 0 0 .1-.3.1-.7 0-.3.1-.7.1-.7-.7.6-1 1.9-1.2 3.4-.1.8-.3 1.6-.4 2.3-.2.8-.4 1.5-.7 2.2l-.3-1.1c2.5-6.4 3.4-13.3 2.6-20.3v-.3c.3.1.7.3 1 .3 0 .2-.1.4 0 .8l.7.7-.3-1.7c.4-.3.6-1.2.6-3.2 0 0-.1-.2-.2-.5s-.3-.6-.4-1c-.3-.7-.6-1.5-.6-1.5s.1-.3.1-.5c.1-.3.1-.5.1-.5s.2.6.3 1.3c.1.6.3 1.3.3 1.3.1-.8 0-1.4-.2-1.9s-.5-1-.8-1.4c.2-.3.2-.8.2-1.4 0 0-.1-.2-.3-.4-.2-.2-.4-.6-.6-.9-.4-.7-.9-1.3-.9-1.3.2-.5 1.1 1.1.7-1-.9-1.2-.3 1.6-1.4-.5-.1-1.5.4-1.3-.7-2.7.1-.3.4 0 .8.5-.5-.7-.9-1.6-1.3-2.4-.5-.8-.9-1.5-1.3-1.8-.1-.8-.8-1.9-1.3-2.9-.6-.9-1-1.7-.6-1.9-.2-.1-.7-.6-1.3-1.2-.6-.6-1.2-1.2-1.7-1.8 1.2.7.5-.4-.5-1.6-.9-1.3-2.2-2.6-1.5-2.8-1-.4-2.3-1.6-3.7-2.9-1.4-1.3-3-2.7-4.5-3.6.2.1.6.2.8.4-1.4-1.3-1.7-1.9-2.5-2.8-.7.5-3.2-1.1-4.8-1.6-1.5-2 1.7 0 1.5-1-.1.3-1.1-.2-1.9-.5-.9-.4-1.6-.7-1.5-.3-1.2-1.4-1.2-1-1.6-2.1-.8.7-1.5-.7-3.1-.9-2-1.7-.1-1.2-2.8-2.2-1.1-.9 1.4-.1 1.4-.1-2.6-1.3-1.5 0-2.3.2-3.2-1.3-1.2-1.2-2.1-2.1-2-.7-3.8-.7-5.3-1.4-.1-.2-.3-.3.1-.3-2.3-.3-6.3-2.4-9-2.5-.2-.1-.2-.2-.3-.3.3.5.2.9 0 1.1-1.2-.4-2.4-.3-2.7-.9.7.2.9.1 1.3 0l-1.3-.2c-.9-1 1.8.3 2-.2-2.6-.6-5.6-.9-7.5-1.6-.2-.8 4.6 1 2.2-.3l2.9 1.1c-1.9-1.7 1.8.6 0-1.1-1.9-.7-3.1-.9-4.2-1.1-.3-.1-.6-.1-.9-.2-.1 0-.3-.1-.4-.1h-.2c-.2-.1-.6-.1-.8-.3-.2 0-.3.1-.5.2-.1.1-.3.3-.5.2-.1-.3-.2-.7-.3-1-.1-.4-.1-.9-.1-1.3 0-.8.1-1.3.3-1.8.3-1 .5-1.8-.3-3.8-.6-1-1.6-1.3-1.7-4.3l1 .9c-.6-3.9-1.5-2-1.8-6.1.5.6.9 3 .8 2.4.1-2.7-.8-1.8-1.2-3.8l.6-.6c-1-4.1-2.6-8.4-3.9-12.8.3.2.7.9.6-.2-.5-1.4-.9-2.8-1.4-4.3-.2-.7-.4-1.5-.6-2.2l-.3-1.1c0-.1-.2-.5-.3-.8-.1-.3-.2-.5-.4-.8-1.2-2.1-3.3-3.5-5.8-3.6-1.2-.1-2.5.3-3.6 1-.3.2-.5.3-.8.5-.2.2-.5.4-.6.5-.3.2-.5.5-.8.7l-1 2c-.3.4-.8.5-.6 0-1.6 1.5.2.3-.3 1.3-.8 1-1.4 1-1 .3-2.2 3.3-6.2 9.2-9.2 12l.3-.7c-2.1 2.4-1.2 3.6-3.3 5.7l.2-.5c-4.3 5.4-7.9 12.2-11.3 16.2.1.7-.8 2.1-1.7 3.5-.8 1.4-1.6 2.8-1.2 3.3-.3.4-.6.7-.8 1-.2.2-.3.2-.4.3-.2.1-.3.2-.5.2-.2-.1-.3-.2-.6-.3H319c-.2 0-.4-.1-.7-.1-.5-.1-1.1-.2-1.8-.3-1.5-.2-2.2.6-4.1.6v-.6l-2.5.5-1.3-.8h-1.7c.7.1 1.4.4 1.3.6-2.7.1-6.4-.9-6.5-1.2H296c.1-.2.8-.2 1.4-.3-2.4.2-.2-.8-3-.4.4.2-.2.4-.3.5-1.5-.5-5-.7-7.6-.7l.5-.4c-2.3-.2-4.8-.3-7.3-.4-1.3 0-2.5-.1-3.4-.3-.9-.2-1.2-.4-1.7-1 .3.5.2.7.1.9-.2.1-.5.1-.9-.3 0 0 .1-.2.1-.4l.2-.4c-.8-.4.5 1.2-.8.1-.4-.8-.3-1.1-.1-1.2.2 0 .6.2.9.5l-.6-.8c-.1-.2-.3-.5-.4-.7s-.2-.3-.2-.3c.1-.2.5.3.7.3-.8-.7-1.1-4-2.3-5l.1-.2c-2.2-4.8-3.3-6.8-5.1-10.7-.6.2-1.1-1.4-2.1-2.4-1.1-2.9-2.1-6.3-3.7-9.7-1.4-2.3-.8-.5-1.6-1.4.4-.4-1.2-3.8 0-2.2-.2-.4-.3-.7-.4-.8-.7-1.5-2-2.5-3.1-2.9-1.2-.5-2.3-.5-3.4-.4-1.1.2-2.3.6-3.4 1.6-.3.2-.5.5-.8.9-.1.2-.2.3-.3.5s-.2.4-.3.5c-.2.5-.5 1.1-.7 1.7.5-.4.9-1 .9-.6-.4 1-1.3 2-1.5 1.7l.1-.3c-2.3 6.1-8.2 12.5-9.5 17.6l.1-.3-1.8 5c-1.1 2.2.3-1.5-.8 0-1.7 5.6-4 8.1-5.5 12.7-1.5 1.3-2.8 4.3-4.1 7.5-.3.8-.6 1.5-.9 2.3l-.1.2s-.1.1-.2.1l-.9.3c-.4.1-.7.2-1.1.3-.7.2-1.4.4-2 .5l.4.2c-1.1.8-1.5.4-2.5.7.2.2 1.4-.2.8.3-5 2.3-10.2 4.6-15.2 7.8-4.9 3.1-9.7 7.1-13.1 12.1-1.3 1.8-1.1 2.7-1.1 3.5 0 .4 0 .9-.3 1.5-.2.6-.7 1.4-1.3 2.6v-.9-.9c-1.4 4.2-2.4 8.6-2.8 13-.4 4.4-.1 8.8 1 12.9-.2-.5-.4-.4-.6-1.3-.3 1.9 1.4 6.4 1.8 6.3.3 1.3-.3.4-.2 1.2.2 1.8 2 4 2 5 0 .2-.3-.4-.5-.7.6 1 2.2 4.9 2.2 3.7l.9 2.1c.3.7.7 1.3 1.1 1.9.8 1.2 1.5 2.3 2 3.5.6.5 1.4 1.6 2 2.6.7 1 1.3 1.9 1.8 1.8-.2.1-.2.5.1.9.3.5.7 1.1 1.2 1.7 1 1.3 2.4 2.7 3.2 3.2-.7-.3 1 1.4.2 1.1 1.6 1.6 3.1 2.9 3.2 2.3 1.2 1.8 2.8 3 4.4 4 1.6 1 2.9 1.9 3.4 3.1 5.7 3.5 11.2 6.2 16.6 8.5-.6.8-5.9-2.9-6.1-1.9 2.6 1.1 4.7 1.9 6.8 2.6 1.1.3 2.1.7 3.2 1.1 1.1.4 2.3.8 3.5 1.4 1.3.6-.9.1-1.4.1 2.7.9 5.2 1.7 7.7 2.5 1.3.4 2.5.7 3.7 1 .6.2 1.2.3 1.9.4.6.1 1.2.2 1.9.3 0 .1-.6.1-1.1 0 1 .2 2.2.6 2.2.2l-1-.1c-1.4-1 4.1-.4 4.3-.7-1.9.9 4.7 1.1 1.9 2.2.7 0 1.5 0 1.4-.3.9.2 1.2.5.2.6 3.5.3 2.3-.3 5.5.1 0 .2-.7.2-1 .4 1.6-.2 3.3-.4 5.9 0-.1.1 0 .2-.4.2 4.4.3 7.7-.5 12.5 0-1.5.9 1.7.3 2 1.1l2.7-.2-1.1-.4c2.4 0 4.4-.6 6.5-.4l-1.7.4s1.1 0 2.2-.1l2.2-.2-2.5-.2c2.4-.5-.3-1 2.8-.9-.6.1 2.3-.1 3.6.3 1.1-.3 2.3-.6 4.1-.6.5.2-.3.9 0 1 1.1-.7 5.5-.6 6.9-1.4-.5.2-.5.6-.3.7l.9-.6c1.1.1 1.3.1 1.1.5 3.3-.2-1.1-.9 2.8-.8-.3.1-.1.1-.8.3 1.9-.1 3.8-.4 5.6-.6.9-.1 1.8-.3 2.7-.4.5-.1.8-.1 1.4-.2.5-.1 1.1-.3 1.3-.4h.1c.2.2.2.3 0 .4-.1.1-.1.1-.5.3-.3.1-.7.2-1 .3-.3.1-.5.1-.6.2s0 .1.2.2c.3 0 .8-.1 1.2-.3.2-.1.4-.1.6-.2.1 0 .1-.1.2-.1h.5l.9-.1c.6-.1 1.2-.1 1.8-.2 1.2-.1 2.3-.3 3.5-.4 2.3-.3 4.6-.6 6.8-.7h-.9c.6-1.2 3.8.2 6.2-.6-.6.1-.7.7-.6.6 3.4-.2 6.9-1.1 12-2.2l-.6.4c2 0 5.3-.7 7.4-.9.6-.4 1.8-.6 1-.8 6.9.4 12.4-3.3 18.5-3.4-.7.2-1.6.6-1 .5l4.9-1.5c-.5-.4-.7-.1-1.8-.2.6-.4 1.9-1 3.1-1.3-2.1.9.2.7 1.2.8-.2-.1.1-.3 0-.5 2.8.1.2-1 3.8-1.4l-.1.3c1.3-.5 2.4-1.2 3.8-1.5.7.3-1.3.7-1.3 1.1 2-.6 3.5-2.2 5.5-2.3-.8.4-2 .8-2.7 1.3 2.1 0 2.3-.3 3.8-.7h-.1s.8-.2 1.7-.5c.8-.3 1.7-.5 1.7-.5l-.9.2c1.9-2.3 4.8-2.2 7.5-4.7-2.6 2.3-.3.7-.2 1.4.9-.3 2.2-.7 1.9-.4 1.2-1.2 2.7-1 4.3-2.9.2.1 1.5-1 1.5-.3 1.7-1.4-.6 0-.6-.3.6-.6 1.3-1.1 2.1-1.7.4-.3.8-.5 1.3-.8.4-.3.9-.6 1.3-.9 1.8-1.2 3.6-2.8 4.9-4.9 1.3-1.7 1.8-2.9 2.3-3.9.4-.9.8-1.9 1.4-3.1l.6-.9c.6-.4-.1 1.4-.1 1.4l.9-1.2c.3-.4.5-.8.7-1.2.4-.8.7-1.6 1-2.6 0 .4.3.1.8-.3.5-1.5-.3-1.2.7-3.1.1.4.3 1 .2 1.8.5-1.8.7-3.7 1-5.6.5-.4.2 1.3.3 2 .5-2.2.9-5.6.4-6.4l-1.6 1.1zm-70.2-103.3c.2.5.3 1 .4 1.3-.1-.3-.3-.7-.4-1.3-.1 0 0 0 0 0zm-.9-3c-.1.2-.4.1-.5-.4.2.3 0-1-.1-1.9.1.6.3 1.4.6 2.3zm8.7 151.1c-.1-.1-.2-.3-.2-.5.6-.1 1.2-.3 1.8-.4-.1.3-.5.5-1.6.9zm50.6-21.6s-.4.1-.9.2c.5-.5 1.1-1 1.6-1.6 0 .2-.2.6-.7 1.4zm8.4-12c-.3.3-.6.4-.7.2.4-.8.7-1.6 1.1-2.4 0 .2-.1.5-.1.8-.2.7-.3 1.4-.3 1.4zM297.7 291.7h.4-.4z"/><path d="M434.8 362.7c0 .1-.1.2-.1.3l.1-.3zM313 292.7v.2l.5-.1zM386.1 404.9c.1 0 .2.1.4 0h-.4zM398.8 401.1l1.8-.5c-.7.3-1.3.4-1.8.5zM408.4 397.4c.1-.2.1-.2.1-.3l-.1.3zM249.4 414.8c-.1 0-.3-.1-.4-.1-.9-.1-.3 0 .4.1zM297.4 416.9c-.5.1-1 .3-1.5.4.9-.1 1.5-.1 1.5-.4zM201.7 389.2c.1 0 .1 0 0 0-.1-.1-.1-.2-.2-.2l.2.2zM295.9 417.2c-.7 0-1.5 0-2.2.1.8.1 1.6 0 2.2-.1zM436 363.2s0-.1 0 0l-.1.5.1-.5zM435.9 363.1v-.6.6zM436 361.3v1.2c0-.4.1-.9 0-1.2zM431.3 376.9c0-.1 0-.2-.1-.2l.1.2zM430.2 378.5c-.5.6-1.1 1.3-1.2 1.8.3-.4.7-.9 1.2-1.4.4-.5.9-1.1 1.1-1.8l-.1-.2c.1.4-.4 1-1 1.6zM319.6 415.8l.6-.5-2 .3z"/></g><g fill="#db5d43"><path d="M292.1 307.2c-.7 0-.4-.1-1.2-.1-.1-.1.2-.3.4-.3-.2 0 .1-.2-.3-.2-.5.3-.5.5 0 .6-.1.1-.3.1-.4.1.3.1.9.2 1.5-.1zM292.5 308.7s-.1-.1-.2-.1l.1.1h.1zM291.7 295.7c-.1.1-.3.2-.4.3.3-.2.6.2.4-.3zM292.4 308.8c0-.1 0-.1 0 0-.1-.1-.2 0-.3 0 .2-.1.3-.1.3 0zM277.7 327.1l-.1-.4c0 .2.1.3.1.4zM274.9 296.4c-.1-.1-.1 0 0 0zM277.2 325.7c.2-.1.3-.2.3-.3h-.2l-.1.3z"/><path d="M279.3 329.4c.3.2.5.4.8.6.5.3 1.1.6 1.6.7-.5.8-1.1-.6-1.6.1.6.3 1.1.3 1.6.3s.9 0 1.3.2c.2.2-.2.4-.4.5.6 0 1 .1 1.5.1s.9 0 1.3-.3c0 .1-.1.2-.1.3.2 0 .4.1.3-.3l-.1.1c-.3-.6.4-1.4.3-1.7.1 1.2.8.1.8 1.7.1-.1.2-.3 0-.6.2 0 .3.2.2.5.5-.4.1-.8.6-1 .1.2 0 .3.1.5.1-.5.1-.9.6-1 0 .1.2.2.1.3.3-.2.4-.7.5-1s.1-.6.5-.7c.5.8.4.1.9.6l.1-.4-.4-.2c.2-.2 0-.8.4-.8l.1.4.3-.6-.4.1c-.1-.5-.8-.6-.4-.8 0 .1.2-.2.7-.1-.1-.3-.2-.5 0-.6.2.1.7.5.8.6-.5-.5.2-.7-.2-1.2.1.1.5.3.5.4l-.4-.4c.2 0 .3 0 .6.2.3-.3-.9-.3-.3-.6 0 .1.1.1.1.2.4-.4.1-1 .5-1.4.8.2 0 .5.7.6.1-.7-.4-1.7-.1-2.3l-.1.1c-1-.3.6-.4.2-.8.1.1.6.2.5.2.3-.4-.1-1-.4-1.7l.3.1c.3-.2.2-.7.3-1-.3-.1-.2-.3-.6-.2.8-.4.6-.8.4-1.2-.3-.4-.6-.7.1-1.2 0 .1.3.2.3.1 0 0-.1-.2-.1-.3-.1-.2-.2-.3-.2-.3-.5.1-.3.1-.6.3-.3-.1-.5-.2-.5-.4.3.3.8-.1 1-.2h-.5c.8-.4-1 0-.4-.5h.3c-.1-.2-.5-.3-.4-.5.5-.1.3.1.7.1-.1-.3-1.1-.4-.6-.7.2.1.2.2.4.3.6-.3.4-.3.5-.5l.2-.5-.2.1c-1.5-.1-.4-.6-1.4-.9 1 .3.5 0 1.1-.1.2-.1.3-.3.5-.3-.5-.1.3-.4-.4-.6.2-.1 0-.2.5-.3-.2-.2-.3.1-.6.1-.8-.3.6-1.1-.4-1.5-.4-.4-1.1-.4-1.5-.7v-.1c.3-.1.7 0 .7 0 .2-.3.1-.5-.1-.7.2 0 .3-.1.5-.2-.1-.2-.7 0-.5-.3h.8c-.2-.2-.6-.3-.9-.5.3-.1.6 0 .8.1-.2-.2-.4-.6-1-.6l-.2.2c0-.1.5-.1.6-.1.5.1-.1.4-.3.4l-.2-.1c-1.1.4.3.6.3.9h-.7c-.2-.8-.3-1.7-.5-2.5.3 0 .7-.1 1-.1-.1 0-.1.1-.1.1h.7l-.2-.2c.4-.1.8-.2 1-.5 0 0-.2-.1-.3-.1-.2-.1-.3-.1-.3-.1l.5-.2.1.2c.4-.2 0-.2-.3-.3.2 0 .4-.1.5-.2 0 0-.2-.1-.5-.1-.2-.1-.5-.1-.5-.1.4-.1.8.1 1-.1-.4-.1-.8.2-1.1 0 .4-.2.8-.1.4-.3.2 0 .4 0 .5.1-.3-.1-.1-.4-.7-.5.5-.2-.1-.6.8-.6-.2-.1-.7-.3-.7-.5 1.1.3.1-.6 1.2-.5-1-.2-.4-.8-1-1.3.1 0 .2.1.2.1.1-.2.4-.3.6-.5-.8 0-1-.4-1.5-.6.8-.3 1 .2 1.7 0-.7 0-.7-.5-1.2-.4.5-.3.2-.2.9-.4-1 0-.2-.2-.8-.4.5-.4.9-.2.6-.6.3-.2.7.1.7.1 0-.4-.8-.1-1.2-.1-.3-.5.5-.3.9-.5-.3-.3-1-.4-1-.6.1 0 .2-.1.3-.1-.7-.2-.3-1-1.2-1.1.1-.1.1-.1.2-.1-.3.2-.7.4-1 .4-.1-.2-.6-.1-.1-.4 0 .1.2 0 .4 0l-.3-.1c.6-.5.3.1.8-.1-.4-.3-1.1-.4-1.1-.7.6-.4.5.5.9-.2v.5c.8-.8.1.3 1-.5-.2-.7-.7-.5-.9-1.2-.4.1-.4.4-.8.5-.5-.2-.3-.5-.1-.9.2-.4.4-.7-.2-.7-.5.2-1.1.8-1.1.1l.7-.5c-.4-.5-1 .6-1.2-.2.3-.2.5.1.5 0 0-.8-.5.2-.8 0l.3-.6c-.7-.3-1.6-.2-2.3-.3.1-.2.3-.3.2-.6-1 0-2-.6-3-.9 0 0-.1.2-.2.3-.1.2-.2.3-.2.3-.1 0-.2-.3-.1-.4-.4-.2 0 .4-.1.6-.2.1-.3-.3-.2-.5-.2.2-.4.4-.7.6-.1 0-.1.1-.2.1v.1c0 .1-.1.1-.1.1-.1 0-.1 0-.1-.1 0 0-.1-.1-.3-.2l.2-.2c-.6-.3-.6 1.2-1.1.7l.1-.1c-.6-.1-1.3.2-1.8.5-.6.3-1.1.6-1.8.7.2.4 0 .5-.3.8-.2.2-.4.5.1.8-.8.4-1 .1-1.7 1-.1.1.1.3.3.4.2.1.4.2.5.4l-.6-.1.6.4h-.8l.1.2c.1-.1.3-.1.5-.1.2.4-.6.7-.9.7l.4.9c-.3-.1-.3-.2-.5-.3.6.5-.7 0-.1.5.2 0 .4.1.5.1-.4.1-.5.6-.4.9l-.4-.1c-.2.6.1 1.3 0 1.9.2-.2 1-.1 1 .1h-.7c.4.2.3-.2.8.1-.1.2-.8.1-1-.1l.2.3c-.2 0-.3-.1-.6-.1.4.2-.7.5 0 .7h-.2c0 .7.2 1 .2 1.5.6 0 .4.2.9.4-.2.4-.7.8-.6 1.3.3.3.5.1.8.3-.5 0-.5.5-.9.2.1.6.1.7.5 1.5.2-.1.3-.2.5-.1.1.1-.2.3-.5.3h-.1c.8.8-1.5 2-.3 2.6h-.1l.6.6c-.1.3-.4-.2-.7.1 1 .7 0 1.2.6 1.7-1.5.7.3 1.6-.6 2.4l.4-.1c.4.1-.2.2-.2.4.3-.1.3-.2.5-.2.7 1.3 0 2.9 0 4.4 0 .5 1.9-.2 1.2.7h-.7c1 .8.6 2.1 1.5 2.9-.2 0-.4.1-.4 0-.4.4.2.8.6.6 0 .2-.3.2-.5.3-.2.3.8.3.3.6h-.2c.3.1.2.6.7.3-.1.5.5.6.3 1 .7 0-.1.7.8.5-.9.3-.5.9 0 1-.3 0-.2.3-.6.4.1.3.4.4.8.2-.8.9 1.2.6 0 1.4.1 0 .1.1.2.1l.2.2.4 1zm13.3-11.7h-.5v-.2c.2 0 .3.1.5.2zm-.9-6.8l-.5.2c0-.1 0-.2-.1-.3.2 0 .3 0 .6.1zm-.3-1.7c-.1.1-.3.1-.5.2 0-.1 0-.2-.1-.3l.6.1zm-5.4-17.7h0zm-.5-.1c0 .2-.1.4-.2.4.1-.1-.1-.3-.2-.5.2 0 .3 0 .4.1z"/><path d="M274.7 295.6h.2l-.1-.1zM293 314.2l.2-.3c-.1.2-.2.3-.2.3zM293.1 313h-.2.2zM285.3 331.9c-.2.2-.1.1 0 0zM290.4 326.9c0 .1.1.2.1.3.1 0 .1-.1-.1-.3zM277.7 327.2v-.1zM290.3 327.5c.2 0 .2-.1.2-.2-.1 0-.3.1-.2.2zM292.3 307.5c0 .1 0 .1 0 0zM292.3 307.6c-.1-.1-.1 0 0 0zM292 307.4l.2.1s0-.1-.2-.1zM292.6 309.7c0-.1.4-.4.2-.5h-.2c.3 0-.4.5 0 .5zM292.2 324.8h.4l-.4-.3zM319.5 304.9c-.7 0-.4-.1-1.2-.1-.1-.1.2-.2.4-.3-.2 0 .1-.2-.3-.2-.5.3-.5.5 0 .6-.1.1-.3.1-.4.1.3.1.9.2 1.5-.1zM319.9 306.3s-.1-.1-.2-.1l.1.1h.1zM319.6 300.9c.1 0 .1 0 0 0 .1 0 0 0 0 0zM316.2 294.8c.3-.3.7-.1.3-.4-.1.2-.2.3-.3.4z"/><path d="M319.8 306.4c0-.1 0-.1 0 0-.1-.1-.2 0-.3 0 .2-.1.3-.1.3 0zM306.9 325.9c0 .2.1.3.2.5 0 0 0-.1-.1-.3 0-.1-.1-.2-.1-.2zM301.2 298.5l-.1-.1.1.1zM306.4 324.9c.2-.1.2-.3.3-.3h-.2l-.1.3z"/><path d="M300.4 303.9h-.2c0 .6.3.9.4 1.4.6-.1.5.2 1 .2-.1.4-.5.9-.4 1.3.3.3.5 0 .9.1-.5.1-.4.5-.8.4.2.5.2.7.8 1.2.2-.1.3-.2.5-.2.1.1-.2.3-.4.3h-.1c.9.5-1.2 2 .1 2.3h-.1l.7.5c0 .3-.4-.1-.7.2 1 .4.1 1 .9 1.4-1.4.8.5 1.4-.3 2.2l.3-.1c.4 0-.1.2-.2.4.3-.1.3-.3.5-.2.8 1 .3 2.6.4 3.9.1.5 1.9-.4 1.3.4l-.7.1c1.1.6.7 1.8 1.6 2.4-.2 0-.4.1-.4 0-.4.4.2.7.6.5 0 .1-.3.2-.5.3-.2.3.8.2.4.5h-.2c.3 0 .2.6.7.2-.1.4.5.5.3.9.7-.1 0 .7.8.3-.8.4-.4.9.1 1-.3 0-.1.4-.5.5.2.3.6.5.9.2-.2.6.2.8.6.9s.7.1.4.9c.6.2 1.3.2 1.8.2l-.4-.2c.6.1 1.2.2 1.7.2-.2.9-1.1-.2-1.4.7 1.2.1 1.8-.7 2.7-.5.2.1-.1.4-.2.6.9-.4 1.8-.1 2.4-.9 0 .1 0 .2-.1.3.1-.1.4 0 .2-.4l-.1.2c-.2-.2-.2-.6-.2-.9s.1-.6 0-.8c.3 1.2.7 0 1.1 1.5.1-.1.1-.4-.1-.6.2 0 .3.1.3.5.4-.5-.1-.8.3-1 .1.2.1.3.2.5 0-.5-.1-.9.3-1 .1.1.2.2.1.3.5-.6 0-1.5.6-1.9.7.6.4-.1 1.1.2v-.5h-.4c.2-.4-.3-.7 0-.9l.2.3v-.5l-.4.2c-.3-.4-.9-.3-.6-.5.1.1.1-.2.6-.3-.2-.2-.4-.4-.2-.5.3 0 .8.3 1 .3-.6-.3 0-.7-.6-1 .1.1.5.2.6.2l-.5-.2c.2-.1.3-.1.6 0 .2-.3-1-.1-.5-.4 0 0 .1 0 .2.1.3-.4-.1-.9.2-1.3.8 0 .1.4.8.4 0-.6-.7-1.4-.5-1.9l-.1.1c-1.1-.2.6-.4.1-.7.1.1.6.2.5.1.2-.4-.2-.8-.5-1.4l.3.1c.3-.2.2-.6.3-.8-.3-.1-.2-.2-.6-.1 1.6-.8-.8-1.4.5-2.1 0 .1.3.2.3.1l-.3-.6c-.5.1-.3.1-.7.2-.3-.1-.5-.2-.5-.3.3.2.8 0 1-.2h-.5c.8-.3-1 0-.4-.4h.3c-.1-.1-.5-.3-.4-.4.5-.1.3.1.7.1 0-.2-1.1-.4-.5-.6.2.1.2.2.3.3.6-.3.5-.3.6-.5l.3-.4-.2.1c-1.5-.1-.3-.6-1.3-.8.9.3.5 0 1.1 0 .2-.1.3-.3.5-.3-.5-.1.4-.4-.4-.5.2 0 0-.2.5-.2-.2-.2-.3.1-.6.1-.7-.3.7-1-.3-1.4-.4-.4-1-.4-1.4-.6v-.1c.3-.1.7 0 .7 0 .3-.3.2-.4-.1-.6.2 0 .3-.1.5-.2-.1-.2-.7 0-.5-.3h.8c-.2-.2-.6-.3-.9-.5.3-.1.5 0 .8.1-.2-.2-.4-.5-1-.5l-.2.2c0-.1.5-.1.6-.1.5.1-.1.3-.3.4l-.2-.1c-1.1.4.3.6.3.9h-.7c-.1-.7-.3-1.5-.5-2.2.3-.1.7-.1 1-.2-.1 0-.1.1-.1.1l.7-.1-.4-.5c.4-.1.8-.3 1-.6l-.6-.2.4-.2.1.3c.4-.3 0-.3-.3-.3.2-.1.4-.2.5-.3l-1-.1c.4-.1.8 0 .9-.3-.5-.1-.8.3-1.1.2.4-.3.7-.3.3-.4.2-.1.4-.1.5 0-.3-.1-.2-.4-.8-.4.5-.3-.3-.5.6-.7-.2 0-.8-.1-.9-.3 1.1 0-.1-.6 1-.9-1 .1-.7-.7-1.3-.9h.2c0-.2.3-.4.4-.6-.8.2-1.1 0-1.6 0 .6-.5 1-.2 1.6-.5-.6.2-.8-.2-1.3.1.4-.4.1-.3.7-.6-.9.4-.2-.1-.9 0 .3-.5.8-.5.4-.7.2-.3.7-.2.7-.2-.2-.4-.8.2-1.2.3-.4-.3.4-.4.7-.8-.3-.2-1 0-1.1-.2.1-.1.1-.1.3-.2-.7.1-.5-.8-1.3-.6 0-.1.1-.1.1-.1-.3.3-.6.5-.8.7-.1-.1-.6.1-.2-.3 0 .1.2 0 .4-.1h-.3c.5-.6.3 0 .8-.3-.4-.1-1.1 0-1.1-.4.5-.5.6.3.8-.4v.4c.7-1 .1.3.8-.7-.2-.6-.7-.3-1-.9-.4.2-.4.5-.7.6-1.1.1.6-1.8-.5-1.5-.4.3-.9 1-1.1.4l.5-.6c-.5-.4-.8.8-1.1.1.2-.3.5-.1.5-.2-.1-.7-.5.3-.7.2l.2-.7c-.7-.2-1.5.3-2.1.3.1-.2.2-.4 0-.6-.4.2-.9.1-1.4 0-.4-.1-.9-.2-1.4-.4 0 0 0 .2-.1.3 0 .2-.1.3-.1.3-.1 0-.2-.2-.1-.4-.4-.1.1.4 0 .7-.2.1-.3-.3-.3-.5-.5.6-1.1 1.6-1.9 1.3v-.2c-.6.1.2 1.3-.4 1.1v-.1c-.5.2-.8.7-1.2 1-.3.4-.7.7-1.2.8.7.5-.8.7.3 1.3-.7.2-.9 0-1.6.6-.1.2.6.5.7.8l-.6-.2.6.5h-.8l.1.3c.1-.1.3-.1.5-.1.2.4-.6.7-.9.7 0 0 .1.2.2.5l.2.4c-.3 0-.3-.2-.5-.3.6.5-.7 0-.1.5.1 0 .4.1.5.1-.4.2-.5.6-.3.9l-.4-.1c-.1.6.2 1.3.2 1.9.2-.2 1-.2 1 0l-.7.1c.4.1.2-.2.8 0-.1.2-.8.2-1 .1l.2.3h-.6c.7.4-.4.8.3.9zm19.1 10.6h-.5v-.2c.2 0 .4.1.5.2zm-.5-6.2l-.5.2v-.2c.1-.1.3 0 .5 0zm-.2-1.6c-.1.1-.3.1-.5.2 0-.1 0-.2-.1-.3l.6.1zm-8.3-14.8h0zm-.4.1c0 .2 0 .4-.1.4 0-.1-.1-.3-.2-.4 0-.1.2 0 .3 0z"/><path d="M301.1 297.6h.2l-.1-.1zM320.1 311.4l.2-.2c-.1.1-.1.2-.2.2zM320.3 310.2h-.3.3zM315.5 328.8c-.1.2 0 .1 0 0zM318.9 323l.2.2s.1-.1-.2-.2zM307.1 326.4zM319 323.5c.1-.1.1-.1.1-.2-.1 0-.2.1-.1.2zM319.8 305.2c-.1 0-.1 0 0 0zM319.7 305.2c-.1 0-.1 0 0 0zM319.4 305.1l.2.1c0-.1 0-.1-.2-.1zM319.9 307.3c0-.1.4-.4.2-.5h-.2c.4 0-.3.4 0 .5zM319.9 320.8l.4-.1-.5-.1zM321.5 377.1c0 .4.1.6.5.9 0 .1-.1.1-.2.1.2.1.7.3.9.1-.4-.1-.3-.3-.8-.3-.1-.2-.1-.4 0-.4-.1-.1-.2-.4-.4-.4zM322.8 381v-.2.2zM318.7 372.5zM311.3 364.6c0 .1 0 .2-.1.3.1-.2.6.2.1-.3zM322.7 381.2v-.1h-.1c.1-.1.1 0 .1.1zM293.7 385.1l-.3.5c.1-.1.2-.3.3-.5zM292.6 387.1c-.1 0-.2.1-.3.2v.1l.3-.3z"/><path d="M322.9 380c0-.2-.1-.6-.2-.8-.1-.3-.3-.5-.4-.5v.3c0-.2.2-.1.3 0 .3.4 0 .6-.1.6l-.1-.3c-.3.2-.3.4-.2.7.1.3.1.7.1.9l-.2-.2-.1-.1c.3-1.2.1-2.5-1-3.7.1-.1.3-.2.4-.3 0 .1 0 .1.1.2l.4-.1-.3-.2c.1-.2.2-.4 0-.8l-.6-.2v-.3l.3.3c0-.4-.3-.3-.5-.4.1-.1.1-.2 0-.4l-.7-.1c.1-.2.4-.1.3-.4-.3-.1-.1.5-.5.2 0-.4.2-.4-.2-.5.1-.1.2-.1.3-.1-.3-.1-.6-.5-.8-.5 0-.4-.7-.7-.3-1-.1 0-.6-.1-.8-.3.7 0-.6-.8-.1-1.1-.6.1-1-.8-1.7-1.1.1 0 .2 0 .2.1-.2-.3-.2-.5-.3-.7-.3.2-.8-.1-1.2-.2 0-.6.5-.1.7-.5-.2.2-.8-.3-.9 0 0-.4-.1-.3 0-.6-.4.3-.3-.2-.7-.2-.1-.5.3-.4-.2-.7-.1-.3.4-.1.4-.1-.4-.4-.4.1-.7.1-.5-.4 0-.4 0-.7-.3-.2-.8-.2-1-.5 0-.1 0-.1.1-.1-.5-.1-.9-.9-1.5-1v-.1c-.1.2-.2.3-.3.4-.2-.2-.5-.2-.4-.4.1.1.2.1.3.1l-.3-.1c.1-.4.3.2.5 0-.4-.3-1-.5-1.2-.9.2-.3.7.6.6 0l.3.5c.1-.7.2.3.4-.4-.4-.6-.7-.5-1.2-1.2-.3 0-.2.2-.4.2-1-.6.1-1.2-.8-1.5-.3 0-.7.2-.9-.3l.4-.1c-.5-.6-.7.1-1.1-.7.2 0 .5.3.5.2-.2-.6-.4-.1-.7-.4l.2-.3c-.7-.5-1.5-.9-2.4-1.4.1-.1.3-.1.2-.3-1.1-.5-2.4-1.3-3.8-1.5l-.5.3c-.1 0-.2-.1-.1-.2-.5-.1 0 .2-.2.3-.3 0-.4-.1-.2-.2-.2.1-.5.2-.7.4-.3.1-.5.3-.8.4-.5.3-1 .6-1.5.7l.1-.2c-.7.3-.2 1-.9 1.1l.1-.1c-1.2.9-1.8 2.3-2.8 2.9.3.4-.9 1.1-.4 1.5-.6.5-.6.3-1.3 1.2-.2.2.2.6.1.9l-.3-.1.1.6-.5.1-.1.3c.1-.1.2-.2.3-.1-.1.5-.7 1-.9 1l-.3 1.2c-.1-.1-.1-.3-.1-.5 0 .7-.4 0-.3.6.1 0 .2.1.2.2-.3.2-.6.8-.7 1.2l-.2-.2c-.4.7-.8 1.7-1.3 2.6.3-.3.6 0 .4.3l-.4-.1c.1.3.3-.2.3.3-.2.3-.5 0-.5-.2l-.1.5c-.1 0-.1-.1-.2-.2.1.3-.7.5-.5.9h-.1c-.5.9-.6 1.3-1 2.1.2.2 0 .4.1.7-.4.5-.9 1-1.2 1.6-.1.5.1.2.2.5-.3-.1-.6.6-.6.1-.4.8-.5 1-.8 2.1.2-.1.3-.1.3 0-.1.2-.3.3-.4.3v-.1c-.2 1.3-2 2.1-2 3.3v-.1l-.2 1c-.3.4 0-.3-.4-.1-.1 1.2-.9 1.5-1.1 2.4-.3.1-.5.2-.6.6-.2.3-.4.7-.4 1.2l-.1.7v1.9l.2-.1c.3.3 0 .4 0 .7.1-.1 0-.4.2-.2.6 1.3 1.4 2.3 2.6 3.1 1.1.8 2.6 1.3 4.2.9.6-.2.6-.4.7-.7.1-.3.2-.5.8-.7l-.1.5.6-.6c.2-.2.4-.4.5-.6.3-.4.6-.9.8-1.2.4-.7.8-1.4 1-2.1 0 .1.1.2 0 .3.4-.2.6-1 .4-1.1.1-.2.2 0 .3 0 .3-.2.1-.9.4-.9v.2c0-.2.5-.9.2-.8.4-.4.4-1 .8-1.4-.1-.4.6-.8.3-1.1.4.3.8-.7.8-1.1.1.2.3-.2.4 0 .2-.4.3-.7.1-.8.9-.4.3-1.6 1.2-1.6.4-1.2.8-2.3 1.2-3.3.4.3-.5 1.1-.1 1.3.3-1 .3-1.7.9-2.6.2-.2.1.2.1.4.3-1 1-1.8 1.2-2.7v.2c.1-.2.3-.3.1-.4v.2c-.4.1-.2-1-.3-1.1.4.6.6-.7 1 .1 0-.1 0-.3-.1-.4.1-.1.2-.1.3.1.2-.6-.1-.5.2-1.1.1.1.1.2.1.3 0-.4-.1-.7.3-1.1 0 .1.1 0 .1.2.4-.8.3-1.6.9-2.3.3.4.2-.1.5.2v-.3l-.2-.1c.1-.2.1-.7.3-.8v.4l.2-.5h-.2c.1-.6-.2-.8.1-1 0 0 0 .1.1.2s.2.4.2.6c.1 0 .2 0 .4.3 0 .2-.2.4-.2.6.2-.2.4.4.9.4-.1 0-.3.1-.3.2h.3c.1.2.1.3-.1.4.4.5.2-.5.6.2h-.2c.5.6 1.2.9 1.6 1.4-.1.4-.5-.3-.6.1.7.6 1.7 1.1 2.3 1.9l-.1-.2c.5-.3.3.7.8.9-.1-.1-.3.1-.3.1.4.5 1 .9 1.8 1.5h-.2c.2.4.6.8.9 1.2.2 0 .3.2.4-.1.3 1.5 2 1.5 2.2 2.8-.1-.1-.3-.2-.2-.1l.8.6c.1-.2 0-.2 0-.5.2 0 .5.1.6.3-.4-.2-.3.3-.3.5 0-.1.1-.1.2-.1 0 .7.4-.3.7.4l-.1.1c.2.1.5.2.7.4-.1.3-.3-.1-.5 0 .3.3.9.2.9.7-.2-.1-.3-.2-.5-.3 0 .5.1.5.3.7l.5.6-.1-.2c.4-.1.7 0 .9.2.1.1.3.2.4.2h.5c-.8.2-.2.2-.3.5.2.1.5.3.4.4.2-.1.4 0 .6 0s.4.1.7-.1c0 .1.4-.1.4.2.5-.2-.2-.2-.1-.3.3-.2.8-.2 1.2-.3.4-.1 1-.3 1.2-.9.3-.3.3-.7.4-.9.1-.2.1-.4.1-.7 0-.1.1-.1.1-.2.2 0 .1.4.1.4.4-.3.5-.6.5-1 .1.1.2.1.3 0 .1-.3-.3-.3-.1-.7.1.1.3.2.3.4 0-.2 0-.4-.1-.6s-.1-.4-.2-.6c.3-.7.4-.3.5-.1zm-18.3-21.3c.1 0 .1 0 .1.1 0-.1 0-.1-.1-.1zm-.6-.3c0 .1-.1.2-.2.1.1 0-.1-.2-.2-.4.1.1.3.2.4.3zm7.5 20.9c0-.1.1-.1.2-.2.1.1.2.2.2.3 0 0-.2 0-.4-.1zm8.8 4.2s-.1 0-.3-.1c.1-.1.2-.2.3-.2.1.1.1.2 0 .3zm1.5-2.3c.1-.2.1-.3.1-.5 0 0 0 .1.1.2 0 .2.1.3.1.3-.1.1-.2.1-.3 0z"/><path d="M291.4 365.7h.1v-.1zM314.8 383.4l.2.4c-.1-.2-.2-.3-.2-.4zM316.6 384.7l.1-.1-.1.1zM298.4 375.9c-.1 0-.1 0 0 0-.1.3-.1.1 0 0zM301.8 369.1h-.1c.1.2.1.3.1 0zM293.8 385.1h-.1zM301.5 369c.1.2.2.2.2.2 0-.1-.1-.2-.2-.2zM322.8 378.8l.1.1-.1-.1c.1 0 .1 0 0 0zM322.7 378.5l.1.2c0-.1-.1-.2-.1-.2zM321.9 382.7c.1-.2.5-.4.6-.7l-.1-.1c.1.3-.5.6-.5.8zM304.1 371.9l.1.3.2-.1zM363.2 356.1v.2c.1-.2.1-.4.1-.8-.1.4-.1.3-.1.6-.1.1-.1-.1-.1-.2 0 .1-.1-.1-.1.1 0 .3.1.4.2.1zM363.8 355.6c0 .1 0 .1 0 0zM359.4 356.4c.1 0 .1.1.2.2-.1-.1-.1-.3-.2-.2zM363.8 355.6v0zM366.6 364.8c-.1-.1-.1-.1-.2-.1v.1h.2z"/><path d="M362.6 365.9c.5-.2 1 .2 1.6.3.2 0-.1-1 .2-.6v.3c.2-.5.8-.2 1-.7 0 .1.1.2 0 .2.2.2.3-.1.2-.3.1 0 .1.1.2.2.2.1 0-.4.2-.2v.1c0-.1.2-.1 0-.3.2 0 .1-.3.3-.2-.2-.3.3-.1 0-.4.3.3.5.1.3-.1.1.1.2 0 .3.2.1-.1 0-.2-.1-.4.6.2-.2-.6.5-.2 0-.4-.1-.7-.1-1 .4.2-.1.3.4.5-.1-.3-.4-.6-.2-.8.1 0 .2.1.2.2-.1-.3.2-.4 0-.7 0 0 .1 0 .1.1 0 0 .1-.1-.1-.1v.1c-.3 0-.6-.3-.7-.3.6.2.2-.2.9.1 0 0-.1-.1-.3-.1h.3c-.1-.2-.3-.2-.3-.3.1 0 .1 0 .3.1-.2-.1-.4-.2-.3-.3h.1c0-.2-.5-.4-.3-.5.4.1.2-.1.5-.1l-.1-.1h-.2c0-.1-.3-.2-.2-.3l.2.1-.1-.2-.1.1c-.2-.1-.5 0-.4-.1 0 0 0-.1.2-.2-.1 0-.3-.1-.2-.1.1 0 .4 0 .5-.1-.3 0-.1-.2-.5-.2h.3-.3c.1-.1.1-.1.3-.1 0-.1-.5.1-.3-.1h.1c.1-.2-.2-.2-.1-.4.4-.2.1.1.4 0-.1-.2-.6-.3-.6-.5v.1c-.5.2.2-.2-.1-.2 0 0 .3-.1.2-.1 0-.2-.2-.2-.5-.3l.1-.1c.1-.1-.1-.2-.1-.3-.1.1-.1 0-.3.1.2-.3.1-.4-.1-.4s-.4 0-.2-.3c0 0 .1 0 .1-.1l-.2-.1c-.1.2-.1.1-.2.3-.1.1-.2.1-.3.1.2-.1.3-.3.3-.4 0 .1-.1.1-.2.2.2-.4-.3.4-.2 0l.1-.1c-.1 0-.2.1-.2.1.1-.2.1-.1.3-.3-.1 0-.4.3-.3.1.1 0 .1 0 .2-.1.1-.3.1-.2 0-.3v-.2.1c-.5.6-.3 0-.6.4.3-.3.1-.2.3-.5 0-.1 0-.2.1-.3-.2.2 0-.3-.3.1 0-.1-.1 0 0-.3-.1 0 0 .2-.1.3-.2.3-.2-.5-.5-.1-.2.1-.3.4-.5.5 0-.2.1-.3.1-.3 0-.2-.1-.1-.2 0v-.3c-.1 0-.1.4-.2.2 0-.1.1-.3.1-.4-.1.1-.2.3-.3.3 0-.2.1-.3.1-.4-.1.1-.2.1-.3.4V355.7c.1-.2.1.1.1.2l-.1.1c0 .6.2-.1.3 0l-.1.3c-.2 0-.5-.1-.7-.1v-.5.1-.3l-.1.1c0-.2 0-.4-.1-.5l-.1.3-.1-.2h.1c-.1-.2-.1 0-.1.1 0-.1 0-.2-.1-.3l-.1.5c0-.2 0-.4-.1-.5 0 .2.1.4 0 .6-.1-.2-.1-.4-.1-.2v-.3c0 .2-.2.1-.2.3-.1-.3-.2.1-.3-.4 0 .1 0 .4-.1.4 0-.6-.2 0-.4-.5 0 .5-.2.3-.3.6v-.1c-.1 0-.2-.1-.3-.2.1.4.1.5.1.8-.3-.3-.1-.5-.3-.8.1.3 0 .4.1.6-.2-.2-.1-.1-.3-.4.2.5 0 .1.1.4-.2-.2-.3-.4-.3-.2-.1-.1-.1-.3-.1-.3-.1.1.1.4.2.6-.1.2-.2-.2-.4-.3 0 .1.1.5 0 .5l-.1-.1c.1.3-.2.2-.1.6 0 0-.1 0-.1-.1l.4.4s.1.2-.1.1c0 0 0-.1-.1-.2v.1c-.3-.2 0-.1-.2-.3 0 .2.1.5 0 .4-.3-.2.1-.2-.2-.4h.2c-.5-.3.1 0-.4-.4-.2.1 0 .3-.2.3.1.2.2.2.3.3.1.4-.8-.4-.6 0 .2.2.5.5.2.4l-.3-.3c-.1.1.4.4.1.4-.1-.1 0-.2-.1-.2-.3-.1.1.2.1.3l-.3-.2c-.1.2.1.5.1.7-.1-.1-.2-.1-.3-.1.1.3-.3.5-.5.7l.3.2h-.2c-.1.1.2.1.3.1 0 .1-.2 0-.3 0 .2.2.4.6.1.7h-.1c-.1.1.6.2.3.3h-.1c-.2.3.1.6-.3.8.4 0-.2.3.4.3-.3.2-.4.2-.6.4 0 .1.4 0 .5.1l-.3.1h.4l-.4.1.1.1s.1-.1.2-.1c.2.1-.1.3-.3.4l.3.2h-.3c.4 0-.3.1 0 .2.1 0 .2-.1.2-.1-.2.1-.1.3 0 .4l-.2.1c0 .2.3.4.4.6 0-.1.4-.3.5-.3l-.3.2c.2-.1.1-.1.3-.2 0 .1-.3.2-.4.3h.2c-.1.1-.1.1-.3.1.2-.1-.2.4.2.2l-.1.1c.2.2.3.2.4.4.2-.2.2-.1.4-.2 0 .2 0 .4.1.5.2 0 .2-.2.3-.3-.2.2 0 .3-.2.4.2.1.3.1.6.1 0-.1 0-.2.1-.2s0 .1 0 .3c.4-.2.3 1.1.7.6l.3-.2c.1.1-.1.2-.1.3.4-.3.4.2.7 0 0 .8.6 0 .8.5v-.2c.1-.2.1.1.1.2 1.2 0 1.1 0 1.1-.1zm-4-7.6zm-.1.2s.1 0 0 0c.1-.1.2 0 .2 0h-.2zm7.5-1l-.2.2c.1-.2.2-.2.2-.2zm-1.7-1.1l-.1.2h-.1l.2-.2zm-.5-.2v.3h-.1l.1-.3zM357.7 361.7z"/><path d="M365.2 356.2s0 .1-.1.1l.1-.1zM367.8 362c.1.1.1.1 0 0zM367.3 360h0zM367 364.4zM367.4 360.2c.1-.1.1-.1 0 0 0-.1 0-.1 0 0zM363.4 355.5s0 .1 0 0zM363.3 355.7c.1-.1 0-.1 0 0zM364.1 355.7s-.1-.3-.1-.2v.1c0-.1.1.3.1.1zM367.4 359.2l.2-.1h-.3zM344.5 375.6v.2c.1-.2.1-.5.1-.8-.1.4-.1.2-.1.6-.1.1-.1-.1-.1-.2 0 .1-.1-.1-.1.1 0 .3.1.3.2.1zM345.2 375.1zM340.4 376.2c.1 0 .1.1.2.2-.1-.2-.1-.3-.2-.2zM345.2 375.1l-.1.1c.1 0 .1-.1.1-.1zM348.2 385.4c-.1-.1-.2-.1-.2-.1v.1h.2z"/><path d="M349.5 381.8c-.1-.2-.3-.1-.3-.3.1 0 .1 0 .3.1-.2-.1-.4-.1-.3-.2h.1c0-.2-.5-.3-.3-.5.4.1.1-.1.5-.1l-.1-.1h-.2c0-.1-.3-.2-.1-.3l.2.1-.1-.2-.1.1c-.2-.1-.5 0-.4-.1 0 0 0-.1.2-.1-.1 0-.3-.1-.2-.2h.5c-.3 0-.1-.3-.4-.3h.3-.3c.1-.1.1-.1.3-.1 0-.2-.5.1-.3-.1h.1c.1-.2-.2-.3-.1-.5.4-.1.1.1.4 0-.1-.2-.6-.4-.6-.6v.1c-.5.2.2-.2-.1-.3 0 0 .3-.1.2-.1 0-.2-.3-.2-.5-.4h.1c.1-.1-.1-.2-.1-.4-.1 0-.1 0-.3.1.5-.7-.7-.2-.3-.8h.1l-.2-.1c-.2.2-.1.1-.2.3-.1.1-.2.1-.3.1.2 0 .3-.3.3-.4 0 .1-.1.1-.2.2.2-.4-.3.3-.3 0l.1-.1c-.1 0-.2.1-.3 0 .2-.2.1-.1.3-.2-.1-.1-.5.3-.4 0h.2c.1-.3.1-.2.1-.3v-.2.1c-.5.5-.3 0-.6.3.4-.3.2-.2.3-.5 0-.1 0-.2.1-.3-.2.2 0-.2-.3 0 0-.1-.1 0 .1-.3-.1 0-.1.2-.1.3-.3.2-.2-.5-.6-.2-.2.1-.4.4-.5.5 0-.2.1-.3.1-.3 0-.2-.1-.2-.2-.1v-.3c-.1 0-.1.3-.2.2 0-.1.1-.3.1-.4-.1.1-.2.3-.3.3 0-.2.1-.3.1-.4-.1.1-.3.1-.3.4l.1.1v-.3c.1-.2.1.1.1.2l-.1.1c0 .6.2-.1.4 0l-.1.3c-.3-.1-.5-.1-.8-.1v-.5.1-.3l-.1.1c0-.2-.1-.4-.2-.5l-.1.3-.1-.2h.1c-.1-.2-.1 0-.2.1 0-.1-.1-.2-.1-.2l-.1.5c0-.2 0-.4-.1-.5 0 .2.1.4 0 .6-.1-.2-.1-.4-.2-.2v-.3c0 .2-.2.1-.2.4-.1-.2-.2.1-.3-.3 0 .1 0 .4-.1.4 0-.6-.2 0-.4-.5.1.5-.3.3-.3.6v-.1c-.1 0-.2-.1-.3-.2.2.4.1.5.1.8-.3-.3-.2-.5-.4-.8.2.3 0 .4.1.6l-.3-.3c.2.4 0 .1.1.4-.2-.1-.3-.4-.3-.2-.1-.1-.1-.3-.1-.3-.1.1.2.4.2.6-.1.2-.2-.2-.4-.3 0 .1.1.5 0 .5l-.1-.1c.1.3-.2.2-.1.6 0 0-.1 0-.1-.1l.4.4s.1.2-.1.1c0 0 0-.1-.1-.2v.1c-.3-.2 0-.1-.2-.3 0 .2.1.5 0 .5-.3-.2.1-.2-.3-.4h.2c-.5-.3.1 0-.4-.4-.2.1 0 .3-.2.4.1.2.2.2.4.3.1.4-.8-.4-.6.1.2.2.5.4.3.4l-.3-.3c-.1.2.4.4.1.4-.1-.1 0-.2-.1-.2-.3 0 .1.2.1.3l-.3-.1c-.1.2.1.5.1.8-.1 0-.2-.1-.3-.1.1.3-.2.6-.5.8l.3.2h-.2c-.1.1.2 0 .3.1 0 .1-.2.1-.3 0 .2.2.5.6.2.8h-.1c-.1.1.6.1.3.3h-.1c-.1.3.1.6-.3.8.4 0-.2.3.4.3-.3.2-.4.1-.6.4 0 .1.4.1.5.2h-.3l.3.1-.4.1.1.1s.1-.1.2-.1c.2.1-.2.4-.3.4l.3.3h-.3c.4.1-.3.1 0 .2.1 0 .2 0 .2-.1-.2.1-.1.3 0 .4h-.2c0 .3.3.4.4.7 0-.1.4-.3.5-.2l-.3.2c.2-.1.1-.1.3-.2 0 .1-.3.2-.4.2h.2c-.1.1-.1.1-.3.1.2-.1-.2.4.2.2l-.1.1c.1.2.3.3.5.4.2-.2.2-.1.5-.2 0 .2 0 .5.1.6.2 0 .2-.1.4-.2-.2.2 0 .3-.2.4.2.1.3.2.6.2 0-.1 0-.2.1-.2s0 .2-.1.3c.2-.1.3.2.3.4.1.2.2.5.4.3 0 0 .1 0 .2-.1.1 0 .2-.1.2-.1.1.1-.1.2-.1.3.4-.3.4.2.8 0 0 .8.7.1.9.6v-.2c.1-.2.1.1.1.2 0-.1-.1-.2 0-.3.6-.2 1.1.2 1.8.2.2 0-.2-.9.2-.6v.3c.2-.5.8-.3 1-.8 0 .1.1.2 0 .2.2.2.3-.2.2-.3.1 0 .1.1.2.2.2.1 0-.4.2-.2v.1c0-.1.2-.1 0-.3.2 0 .1-.3.3-.2-.2-.3.3-.1 0-.4.3.3.5.1.4-.2.1.1.2 0 .3.2.1-.1.1-.2-.1-.4.6.2-.2-.6.5-.3 0-.4-.1-.8-.1-1.1.4.2-.1.3.4.5-.1-.4-.4-.6-.2-.8.1-.1.2.1.3.1-.1-.3.2-.5 0-.8 0 0 .1 0 .1.1 0 0 .1-.1-.1-.1l.1.1c-.3 0-.6-.3-.8-.3.9 0 .5-.3 1.3-.2h-.3.3zm-9.9-3.5zm-.1.3v-.1c.1 0 .2.1.2.1 0-.1-.1 0-.2 0zm8.1-1.3c-.1 0-.1.1-.2.2v-.1c0-.1.1-.1.2-.1zm-1.9-1.4l-.1.2h-.1c.1-.1.2-.1.2-.2zm-.5-.2v.3h-.1l.1-.3zM338.7 381.9zM346.7 375.8l-.1.1.1-.1zM349.4 382.3z"/><path d="M348.8 380.2c.1 0 .1 0 .1.1 0-.1 0-.1-.1-.1zM348.6 384.9z"/><path d="M348.9 380.4c.1-.1 0-.1 0 0 0-.1 0-.1 0 0zM344.7 375zM344.6 375.1c.1-.1.1-.1 0 0zM345.6 375.2l-.1-.2v.1c0-.1 0 .3.1.1zM349 379.3l.1-.1h-.2zM368.4 376.4v.2c.1-.2.1-.4.1-.8-.1.3-.1.2-.1.6-.1.1-.1-.1-.1-.2 0 .1-.1-.1-.1.1.1.2.1.3.2.1zM369 375.8s0 .1 0 0c0 .1 0 .1 0 0zM364.7 376.7c.1 0 .1.1.2.2-.2-.2-.1-.4-.2-.2zM369.1 375.9c-.1 0-.1 0 0 0v.1c-.1-.1-.1-.1 0-.1zM371.8 385c-.1-.1-.1-.1-.2-.1v.1h.2z"/><path d="M373.2 381.9c-.1-.2-.3-.2-.3-.3.1 0 .1 0 .3.1-.2-.1-.4-.2-.3-.3h.1c0-.2-.5-.4-.3-.5.4.1.2-.1.5-.1l-.1-.1h-.2c0-.1-.3-.2-.2-.3l.2.1-.1-.2-.1.1c-.2-.1-.5 0-.4-.1 0 0 0-.1.2-.2-.1 0-.3-.1-.2-.1.1 0 .4 0 .5-.1-.3 0-.1-.2-.5-.2h.3-.3c.1-.1.1-.1.3-.1 0-.1-.5.1-.3-.1h.1c.1-.2-.2-.2-.1-.4.4-.2.1.1.4 0-.1-.2-.6-.3-.6-.5v.1c-.5.2.2-.2-.1-.2 0 0 .3-.1.2-.1 0-.2-.2-.2-.5-.3l.1-.1c.1-.1-.1-.2-.1-.3-.1.1-.1 0-.3.1.2-.3.1-.4-.1-.4s-.4 0-.2-.3c0 0 .1 0 .1-.1l-.2-.1c-.1.2-.1.1-.2.3-.1.1-.2.1-.3.1.2-.1.3-.3.3-.4 0 .1-.1.1-.2.2.2-.4-.3.4-.2 0l.1-.1c-.1 0-.2.1-.2.1.1-.2.1-.1.3-.3-.1 0-.4.3-.3.1.1 0 .1 0 .2-.1.1-.3.1-.2 0-.3v-.2.1c-.5.6-.3 0-.6.4.3-.3.1-.2.3-.5 0-.1 0-.2.1-.3-.2.2 0-.3-.3.1 0-.1-.1 0 0-.3-.1 0 0 .2-.1.3-.2.3-.2-.5-.5-.1-.2.1-.3.4-.5.5 0-.2.1-.3.1-.3 0-.2-.1-.1-.2 0v-.3c-.1 0-.1.4-.2.2 0-.1.1-.3.1-.4-.1.1-.2.3-.3.3 0-.2.1-.3.1-.4-.1.1-.2.1-.3.4V375.8c.1-.2.1.1.1.2l-.1.1c0 .6.2-.1.3 0l-.1.3c-.2 0-.5-.1-.7-.1v-.5.1-.3l-.1.1c0-.2 0-.4-.1-.5l-.1.3-.1-.2h.1c-.1-.2-.1 0-.1.1 0-.1 0-.2-.1-.3l-.1.5c0-.2 0-.4-.1-.5 0 .2.1.4 0 .6-.1-.2-.1-.4-.1-.2v-.3c0 .2-.2.1-.2.3-.1-.3-.2.1-.3-.4 0 .1 0 .4-.1.4 0-.6-.2 0-.4-.5 0 .5-.2.3-.3.6v-.1c-.1 0-.2-.1-.3-.2.1.4.1.5.1.8-.3-.3-.1-.5-.3-.8.1.3 0 .4.1.6-.2-.2-.1-.1-.3-.4.2.5 0 .1.1.4-.2-.2-.3-.4-.3-.2-.1-.1-.1-.3-.1-.3-.1.1.1.4.2.6-.1.2-.2-.2-.4-.3 0 .1.1.5 0 .5l-.1-.1c.1.3-.2.2-.1.6 0 0-.1 0-.1-.1l.4.4s.1.2-.1.1c0 0 0-.1-.1-.2v.1c-.3-.2 0-.1-.2-.3 0 .2.1.5 0 .4-.3-.2.1-.2-.2-.4h.2c-.5-.3.1 0-.4-.4-.2.1 0 .3-.2.3.1.2.2.2.3.3.1.4-.8-.4-.6 0 .2.2.5.5.2.4l-.3-.3c-.1.1.4.4.1.4-.1-.1 0-.2-.1-.2-.3-.1.1.2.1.3l-.3-.2c-.1.2.1.5.1.7-.1-.1-.2-.1-.3-.1.1.3-.3.5-.5.7l.3.2h-.2c-.1.1.2.1.3.1 0 .1-.2 0-.3 0 .2.2.4.6.1.7h-.1c-.1.1.6.2.3.3h-.1c-.2.3.1.6-.3.8.4 0-.2.3.4.3-.3.2-.4.2-.6.4 0 .1.4 0 .5.1l-.3.1h.4l-.4.1.1.1s.1-.1.2-.1c.2.1-.1.3-.3.4l.3.2h-.3c.4 0-.3.1 0 .2.1 0 .2-.1.2-.1-.2.1-.1.3 0 .4l-.2.1c0 .2.3.4.4.6 0-.1.4-.3.5-.3l-.3.2c.2-.1.1-.1.3-.2 0 .1-.3.2-.4.3h.2c-.1.1-.1.1-.3.1.2-.1-.2.4.2.2l-.1.1c.2.2.3.2.4.4.2-.2.2-.1.4-.2 0 .2 0 .4.1.5.2 0 .2-.2.3-.3-.2.2 0 .3-.2.4.2.1.3.1.6.1 0-.1 0-.2.1-.2s0 .1 0 .3c.4-.2.3 1.1.7.6l.3-.2c.1.1-.1.2-.1.3.4-.3.4.2.7 0 0 .8.6 0 .8.5v-.2c.1-.2.1.1.1.2 0-.1-.1-.2 0-.3.5-.2 1 .2 1.6.3.2 0-.1-1 .2-.6v.3c.2-.5.8-.2 1-.7 0 .1.1.2 0 .2.2.2.3-.1.2-.3.1 0 .1.1.2.2.2.1 0-.4.2-.2v.1c0-.1.2-.1 0-.3.2 0 .1-.3.3-.2-.2-.3.3-.1 0-.4.3.3.5.1.3-.1.1.1.2 0 .3.2.1-.1 0-.2-.1-.4.6.2-.2-.6.5-.2 0-.4-.1-.7-.1-1 .4.2-.1.3.4.5-.1-.3-.4-.6-.2-.8.1 0 .2.1.2.2-.1-.3.2-.4 0-.7 0 0 .1 0 .1.1 0 0 .1-.1-.1-.1v.1c-.3 0-.6-.3-.7-.3 1.6.3 1.2 0 2 .2h-.3c0-.1.1-.1.3 0zm-9.3-3.4zm-.1.2c.1-.1.2 0 .2 0h-.2zm7.5-1l-.2.2c0-.2.1-.2.2-.2zm-1.8-1.1l-.1.2h-.1c.1-.1.2-.1.2-.2zm-.5-.2v.3h-.1l.1-.3zM362.9 381.9h.1-.1z"/><path d="M370.4 376.4s0 .1-.1.1l.1-.1zM373.1 382.2c0 .1 0 .1 0 0zM372.5 380.2h0zM372.2 384.6zM372.7 380.4c0-.1 0-.1 0 0 0-.1-.1-.1 0 0zM368.6 375.7c0 .1 0 .1 0 0zM368.6 375.9c0-.1 0-.1 0 0zM369.4 376s-.1-.3-.1-.2v.1c0-.2 0 .2.1.1zM372.7 379.4l.1-.1h-.2zM256.2 364.9c-.1.1 0-.1-.2 0-.1.2-.1.3.1.2 0 .1-.1.1-.2.2.2-.1.4-.2.6-.5-.3.2-.2.1-.5.3.1 0 .2-.1.2-.2zM257.1 365.2h-.1.1zM253 362.7v.3c0-.3.2-.3 0-.3zM257 365.3h-.1.1zM252 374.3c0-.1-.1-.2-.1-.2v.1l.1.1z"/><path d="M254.4 373.3c.1 0 .1.2.1.3.2-.3.5-.2.5-.6v.1s.1 0 0-.2v.1c-.2-.2-.2-.6-.3-.8.3.5.3 0 .6.7 0-.1 0-.2-.1-.3.1 0 .1.1.2.2.1-.2-.1-.3 0-.4.1.1.1.1.1.2-.1-.2-.2-.4 0-.4l.1.1c.1-.2-.2-.6.1-.6.3.4.1.1.4.3v-.2l-.2-.1c.1-.1-.1-.3.1-.3l.1.2.1-.2h-.2c-.1-.2-.4-.3-.2-.3 0 0 .1-.1.3.1-.1-.1-.1-.2 0-.2.1.1.3.3.4.3-.2-.3.1-.2-.1-.5l.2.2-.2-.2c.1 0 .1 0 .3.1.1-.1-.4-.3-.1-.3l.1.1c.2-.1.1-.4.2-.4.4.2 0 .2.3.3.1-.3-.2-.6 0-.8h-.1c-.5-.2.3 0 .1-.2 0 0 .3.1.2.1.1-.1 0-.3-.1-.6l.1.1c.1-.1.1-.2.2-.3-.1-.1-.1-.1-.3-.1.4-.1.3-.2.2-.4-.1-.1-.2-.3.1-.4l.1.1-.1-.2c-.2 0-.1 0-.3.1-.1 0-.3-.1-.3-.1.2.1.4 0 .5-.1h-.2c.4-.1-.5 0-.2-.2h.1c-.1-.1-.2-.1-.2-.1.3-.1.1 0 .4 0 0-.1-.5-.1-.3-.2.1 0 .1.1.2.1.3-.1.2-.1.3-.2l.1-.2-.1.1c-.7 0-.2-.2-.7-.2.5 0 .3 0 .6-.1.1-.1.2-.1.2-.2-.3 0 .2-.2-.2-.2.1 0 0-.1.2-.1-.1-.1-.2.1-.3.1-.4 0 .3-.5-.3-.5-.2-.1-.5 0-.8 0 .1-.1.3-.1.3-.1.1-.1 0-.2-.1-.2.1 0 .1-.1.2-.2-.1 0-.3.2-.3 0 .1-.1.3-.1.4-.2h-.5c.1-.1.2-.1.4-.2-.1 0-.3-.1-.5.1v.1l.2-.2c.2-.1 0 .2-.1.2h-.1c-.4.4.2.1.3.2l-.3.2c-.1-.2-.3-.4-.5-.6.1-.1.2-.2.3-.4v.1l.3-.2h-.1c.1-.2.2-.3.3-.5l-.3.1.1-.2.1.1c.1-.2-.1-.1-.2 0 .1-.1.1-.2.1-.2l-.4.3c.1-.2.3-.3.3-.4-.2.1-.2.4-.4.4.1-.2.2-.4 0-.2.1-.1.1-.2.2-.2-.1.1-.2-.1-.4.1.1-.3-.2-.1 0-.5-.1.1-.3.2-.4.2.4-.4-.2-.1.1-.7-.3.4-.4.1-.7.2l.1-.1c-.1-.1 0-.2-.1-.3-.2.4-.3.4-.5.6 0-.4.2-.4.3-.8-.1.3-.3.3-.3.5v-.5c-.1.5-.1.1-.2.3-.1-.3.1-.5-.1-.4 0-.2.1-.3.1-.3-.1 0-.1.4-.2.6-.2.1 0-.3 0-.5-.1.1-.3.4-.3.4v-.2c-.1.3-.3 0-.5.4v-.1.5c-.1 0-.1.2-.1 0 0 0 0-.1.1-.2l-.1.1c0-.4.1-.1.1-.4-.1.1-.3.4-.3.3 0-.4.2-.1.1-.4l.1.1c-.1-.6.1 0 0-.6-.2-.1-.2.2-.4.1v.5c-.2.4-.3-.9-.5-.4 0 .2 0 .7-.1.5v-.4c-.2 0 0 .6-.2.4 0-.2.1-.2.1-.2-.2-.3 0 .2-.1.3l-.1-.3c-.2.1-.3.4-.5.6 0-.1 0-.2-.1-.3-.2.3-.6.2-.9.2l.1.3s-.1-.1-.1-.2c-.2 0 .1.2.1.3 0 .1-.2-.1-.2-.2 0 .3-.1.7-.4.6v-.1c-.2 0 .3.6 0 .4v-.1c-.3.1-.3.5-.8.3.3.3-.3 0 .1.5-.3-.1-.4-.2-.7-.1-.1 0 .2.3.2.4l-.3-.2.2.3-.3-.2v.1s.2 0 .2.1c0 .2-.4.1-.5.1l.1.4-.2-.2c.2.3-.3-.1-.1.1.1 0 .2.1.2.1-.2 0-.3.1-.3.3l-.2-.1c-.2.2-.1.5-.2.8.1-.1.5.1.5.1l-.3-.1c.2.1.1 0 .4.1-.1.1-.4 0-.5-.1l.1.1c-.1 0-.1-.1-.3-.1.2.1-.4.1 0 .3h-.1v.6c.3 0 .2.1.5.2-.1.1-.3.3-.3.5.1.1.2 0 .4.1-.3 0-.2.2-.4.1 0 .2.1.3.3.5.1 0 .1-.1.2-.1 0 0-.1.1-.2.1.2.1.1.3-.1.5-.1.2-.2.4.1.5 0 0 .1 0 .2.1.1 0 .2.1.2.1 0 .1-.2 0-.3.2.5.1.1.5.5.5-.6.6.4.5.2 1l.1-.1c.2-.1 0 .1 0 .2.1-.1.1-.2.2-.2.5.2.6.9 1.1 1.4.2.1.5-.8.6-.3l-.2.3c.5-.2.8.4 1.3.1 0 .1-.1.2-.1.2 0 .3.3.1.3-.1.1 0 0 .2 0 .3.1.2.3-.3.3 0 0 0 0 .1-.1.1.1-.1.3.1.2-.2.1.2.3-.1.4.1.1-.3.3.2.3-.3 0 .5.3.4.4.1 0 .1.1.1.1.3.1 0 .2-.1.2-.4.3.5.3-.5.6.2.3-.3.5-.6.7-.8.2.4-.3.1 0 .5-.2.4-.3 0 0 0zm2.8-4.9h-.3v-.1c.2 0 .2 0 .3.1zm-.4-2.2l-.2.1v-.1h.2zm-.2-.6l-.2.2v-.1l.2-.1zm-5.6-2.1zm-.2.1c0 .1.1.2.1.2 0-.1-.1-.1-.1-.2-.1 0 0 0 0 0zM247.8 365.4l.1.1-.1-.1zM257.6 366.7h-.1.1zM255.1 373.1c-.1.1 0 .1 0 0z"/><path d="M256.1 371.3c0 .1 0 .1.1.1l-.1-.1zM252.6 374.3z"/><path d="M256.1 371.5c.1 0 .1-.1 0 0 0-.1 0-.1 0 0zM256.8 364.8s0 .1 0 0zM256.7 364.9c0-.1 0-.1 0 0zM257.2 365.6s.1-.2 0-.2h-.1c.2 0-.1.3.1.2zM256.9 370.6v.1l.1.1zM241.9 377.8v.2c.1-.2.1-.4.1-.8-.1.4-.1.3-.1.6-.1.1-.1-.1-.1-.2 0 .1-.1-.1-.1.1.1.3.1.4.2.1zM242.5 377.3s0 .1 0 0c0 .1 0 .1 0 0zM238.2 378.2c.1 0 .1.1.2.2-.2-.2-.1-.4-.2-.2zM242.5 377.4v0zM245.3 386.5c-.1-.1-.1-.1-.2-.1v.1h.2z"/><path d="M246.7 382.3l-.1-.1h-.2c0-.1-.3-.2-.2-.3l.2.1-.1-.2-.1.1c-.2-.1-.5 0-.4-.1 0 0 0-.1.2-.2-.1 0-.3-.1-.2-.1s.4 0 .5-.1c-.3 0-.1-.2-.5-.2h.3-.3c.1-.1.1-.1.3-.1 0-.1-.5.1-.3-.1h.1c.1-.2-.2-.2-.1-.4.4-.2.1.1.4 0-.1-.2-.6-.3-.6-.5v.1c-.5.2.2-.2-.1-.2 0 0 .3-.1.2-.1 0-.2-.2-.2-.5-.3l.1-.1c.1-.1-.1-.2-.1-.3-.1.1-.1 0-.3.1.2-.3.1-.4-.1-.4s-.4 0-.2-.3c0 0 .1 0 .1-.1l-.2-.1c-.1.2-.1.1-.2.3-.1.1-.2.1-.3.1.2-.1.3-.3.3-.4 0 .1-.1.1-.2.2.2-.4-.3.4-.2 0l.1-.1c-.1 0-.2.1-.2.1.1-.2.1-.1.3-.3-.1 0-.4.3-.3.1.1 0 .1 0 .2-.1.1-.3.1-.2 0-.3v-.2.1c-.5.6-.3 0-.6.4.3-.3.1-.2.3-.5 0-.1 0-.2.1-.3-.2.2 0-.3-.3.1 0-.1-.1 0 0-.3-.1 0 0 .2-.1.3-.2.3-.2-.5-.5-.1-.2.1-.3.4-.5.5 0-.2.1-.3.1-.3 0-.2-.1-.1-.2 0v-.3c-.1 0-.1.4-.2.2 0-.1.1-.3.1-.4-.1.1-.2.3-.3.3 0-.2.1-.3.1-.4-.1.1-.2.1-.3.4V377.3c.1-.2.1.1.1.2l-.1.1c0 .6.2-.1.3 0l-.1.3c-.2 0-.5-.1-.7-.1v-.5.1-.3l-.1.1c0-.2 0-.4-.1-.5l-.1.3-.1-.2h.1c-.1-.2-.1 0-.1.1 0-.1 0-.2-.1-.3l-.1.5c0-.2 0-.4-.1-.5 0 .2.1.4 0 .6-.1-.2-.1-.4-.1-.2v-.3c0 .2-.2.1-.2.3-.1-.3-.2.1-.3-.4 0 .1 0 .4-.1.4 0-.6-.2 0-.4-.5 0 .5-.2.3-.3.6v-.1c-.1 0-.2-.1-.3-.2.1.4.1.5.1.8-.3-.3-.1-.5-.3-.8.1.3 0 .4.1.6-.2-.2-.1-.1-.3-.4.2.5 0 .1.1.4-.2-.2-.3-.4-.3-.2-.1-.1-.1-.3-.1-.3-.1.1.1.4.2.6-.1.2-.2-.2-.4-.3 0 .1.1.5 0 .5l-.1-.1c.1.3-.2.2-.1.6 0 0-.1 0-.1-.1l.4.4s.1.2-.1.1c0 0 0-.1-.1-.2v.1c-.3-.2 0-.1-.2-.3 0 .2.1.5 0 .4-.3-.2.1-.2-.2-.4h.2c-.5-.3.1 0-.4-.4-.2.1 0 .3-.2.3.1.2.2.2.3.3.1.4-.8-.4-.6 0 .2.2.5.5.2.4l-.3-.3c-.1.1.4.4.1.4-.1-.1 0-.2-.1-.2-.3-.1.1.2.1.3l-.3-.2c-.1.2.1.5.1.7-.1-.1-.2-.1-.3-.1.1.3-.3.5-.5.7l.3.2h-.2c-.1.1.2.1.3.1 0 .1-.2 0-.3 0 .2.2.4.6.1.7h-.1c-.1.1.6.2.3.3h-.1c-.2.3.1.6-.3.8.4 0-.2.3.4.3-.3.2-.4.2-.6.4 0 .1.4 0 .5.1l-.3.1h.4l-.4.1.1.1s.1-.1.2-.1c.2.1-.1.3-.3.4l.3.2h-.3c.4 0-.3.1 0 .2.1 0 .2-.1.2-.1-.2.1-.1.3 0 .4l-.2.1c0 .2.3.4.4.6 0-.1.4-.3.5-.3l-.3.2c.2-.1.1-.1.3-.2 0 .1-.3.2-.4.3h.2c-.1.1-.1.1-.3.1.2-.1-.2.4.2.2l-.1.1c.2.2.3.2.4.4.2-.2.2-.1.4-.2 0 .2 0 .4.1.5.2 0 .2-.2.3-.3-.2.2 0 .3-.2.4.2.1.3.1.6.1 0-.1 0-.2.1-.2s0 .1 0 .3c.4-.2.3 1.1.7.6l.3-.2c.1.1-.1.2-.1.3.4-.3.4.2.7 0 0 .8.6 0 .8.5v-.2c.1-.2.1.1.1.2 0-.1-.1-.2 0-.3.5-.2 1 .2 1.6.3.2 0-.1-1 .2-.6v.3c.2-.5.8-.2 1-.7 0 .1.1.2 0 .2.2.2.3-.1.2-.3.1 0 .1.1.2.2.2.1 0-.4.2-.2v.1c0-.1.2-.1 0-.3.2 0 .1-.3.3-.2-.2-.3.3-.1 0-.4.3.3.5.1.3-.1.1.1.2 0 .3.2.1-.1 0-.2-.1-.4.6.2-.2-.6.5-.2 0-.4-.1-.7-.1-1 .4.2-.1.3.4.5-.1-.3-.4-.6-.2-.8.1 0 .2.1.2.2-.1-.3.2-.4 0-.7 0 0 .1 0 .1.1 0 0 .1-.1-.1-.1v.1c-.3 0-.6-.3-.7-.3.6.2.2-.2.9.1 0 0-.1-.1-.3-.1h.3c-.1-.2-.3-.2-.3-.3.1 0 .1 0 .3.1-.2-.1-.4-.2-.3-.3h.1c0-.2-.5-.4-.3-.5 1.5.2 1.2.1 1.6.1zm-9.4-2.3zm0 .2c.1-.1.2 0 .2 0h-.2zm7.5-1l-.2.2c0-.2.1-.2.2-.2zm-1.8-1.1l-.1.2h-.1c.1-.1.2-.1.2-.2zm-.5-.2v.3h-.1l.1-.3zM236.4 383.4h.1-.1z"/><path d="M243.9 377.9s0 .1-.1.1l.1-.1zM246.5 383.7c.1.1.1.1 0 0zM246 381.7h0zM245.7 386.1zM246.2 381.9c0-.1 0-.1 0 0 0-.1-.1-.1 0 0zM242.1 377.2s0 .1 0 0zM242 377.4c.1-.1.1-.1 0 0zM242.9 377.4s-.1-.3-.1-.2v.1c0-.1 0 .3.1.1zM246.1 380.9l.2-.1h-.3zM260.6 380.1v.2c.1-.2.1-.5.1-.8 0 .4 0 .2-.1.6-.1.1-.1-.1-.1-.2 0 .1-.1-.1-.1.1.1.3.1.3.2.1zM261.3 379.6zM256.7 380l.2.2c-.1-.2 0-.3-.2-.2zM261.3 379.6c0 .1-.1.1 0 .1v-.1zM263.4 389.2c-.1-.1-.1-.1-.2-.1v.1h.2z"/><path d="M265.6 385l-.1-.1h-.2c0-.1-.3-.2-.1-.3l.2.1-.1-.2-.1.1c-.2-.1-.5 0-.4-.1 0 0 0-.1.2-.2-.1 0-.3-.1-.2-.2h.5c-.3 0-.1-.2-.5-.2h.3-.3c.1-.1.1-.1.3-.1 0-.1-.5.1-.3-.1h.1c.1-.2-.2-.3-.1-.4.4-.2.1.1.4 0-.1-.2-.6-.3-.6-.5v.1c-.5.2.2-.2-.1-.2 0 0 .3-.1.2-.1 0-.2-.3-.2-.5-.3h.1c.1-.1-.1-.2-.1-.3-.1.1-.1 0-.3.1.5-.7-.7-.1-.3-.8h.1l-.3-.1c-.2.2-.1.1-.2.3-.1.1-.2.1-.3.1.2-.1.3-.3.3-.4 0 .1-.1.1-.2.2.2-.4-.3.3-.2 0l.1-.1c-.1 0-.2.1-.2.1.2-.2.1-.1.3-.2-.1 0-.4.3-.3.1.1 0 .1 0 .2-.1.1-.3.1-.3 0-.3v-.2.1c-.5.5-.3 0-.6.3.3-.3.1-.2.3-.5 0-.1 0-.2.1-.3-.2.2 0-.2-.3 0 0-.1-.1 0 .1-.3-.1 0-.1.2-.1.3-.3.2-.2-.5-.5-.2-.2.1-.3.4-.5.5 0-.2.1-.3.1-.3 0-.2-.1-.2-.2-.1v-.3c-.1 0-.1.4-.2.2 0-.1.1-.3.1-.4-.1.1-.2.3-.3.3 0-.2.1-.3.1-.4-.1.1-.3.1-.3.4V379.8c.1-.2.1.1.1.2l-.1.1c0 .6.2-.1.3 0l-.1.3c-.2 0-.5-.1-.8-.1v-.5.1-.3l-.1.1c0-.2 0-.4-.1-.6l-.1.3v-.2h.1c-.1-.2-.1 0-.1.1v-.3l-.1.5v-.5c-.1.2 0 .4 0 .6-.1-.2 0-.4-.1-.2v-.3c-.1.1-.1.1-.2.3-.1-.3-.2.1-.2-.4 0 .1-.1.4-.2.4.1-.6-.2 0-.3-.6 0 .5-.3.3-.4.6v-.1c-.1 0-.2-.2-.2-.2.1.4 0 .5 0 .8-.2-.3-.1-.5-.2-.8.1.3-.1.4 0 .6-.2-.2-.1-.1-.3-.4.2.5 0 .1 0 .4-.2-.2-.2-.4-.3-.2-.1-.1-.1-.3-.1-.3-.1 0 .1.4.1.6-.1.2-.2-.2-.3-.4-.1.1 0 .5 0 .5 0-.1-.1-.1-.1-.1 0 .3-.3.2-.2.6l-.1-.1c.1.2.2.3.3.4 0 0 0 .3-.1.1v-.2.1c-.2-.3 0-.1-.1-.4 0 .2 0 .5-.1.4-.2-.3.1-.2-.2-.4h.2c-.4-.4.1 0-.3-.5-.2 0-.1.3-.3.3.1.2.2.2.3.4 0 .4-.7-.5-.6-.1.1.2.4.5.1.5l-.2-.3c-.2.1.3.5 0 .4-.1-.1 0-.2-.1-.2-.3-.1.1.2 0 .3l-.3-.2c-.1.2 0 .5-.1.7-.1-.1-.1-.2-.3-.2 0 .3-.4.5-.7.6l.2.2s-.1 0-.2-.1c-.2.1.2.1.3.2 0 .1-.2 0-.3-.1.2.3.3.7 0 .8l-.1-.1c-.2.1.6.3.3.4-.2.3.1.7-.4.9.4 0-.2.3.4.3-.3.2-.4.2-.6.4 0 .1.4 0 .5.1l-.3.1.3.1-.4.1.1.1s.1-.1.2-.1c.2.1-.1.3-.3.4l.3.2h-.3c.4.1-.3.1 0 .2.1 0 .2-.1.2-.1-.2.1-.1.3 0 .4l-.2.1c0 .2.3.4.4.6 0-.1.4-.3.5-.3l-.3.2c.2-.1.1-.1.3-.2 0 .1-.3.2-.4.3h.2c-.1.1-.1.1-.3.1.2-.1-.2.4.2.2l-.1.1c.2.2.3.3.5.4.2-.2.2-.1.4-.2 0 .2 0 .5.1.6.2 0 .2-.2.4-.2-.2.2 0 .3-.2.4.2.1.3.1.6.1 0-.1 0-.2.1-.2s0 .2-.1.3c.2-.1.3.2.3.4.1.2.2.5.4.3l.3-.2c.1.1-.1.2-.1.3.4-.3.4.2.7 0 0 .8.6.1.8.6v-.2c.1-.2.1.1.1.2 0-.1-.1-.2 0-.3.3-.1.5 0 .7.1.1.1.2.1.3.2.1.1.3.1.4.1.2 0 0-1 .3-.6v.3c.3-.5.9-.2 1.1-.6v.2c.2.2.3-.1.2-.3.1 0 .1.2.2.2.1.1.1-.4.2-.2v.1c0-.1.2-.1.1-.3.2.1.2-.2.4-.2-.1-.3.3 0 .1-.4.3.4.4.2.4-.1.1.1.2.1.2.2.1-.1.1-.2-.1-.4.5.3 0-.6.5-.1 0-.4.1-.7.2-1 .4.3-.1.3.2.6 0-.3-.2-.7 0-.8.1 0 .2.1.2.2 0-.3.3-.4.2-.8l.1.1s.1-.1-.1-.2v.1c-.3-.1-.5-.4-.7-.5.5.3.2-.1.9.2l-.2-.2c.1 0 .1 0 .3.1-.1-.2-.3-.2-.2-.3.1 0 .1.1.2.1-.2-.1-.3-.3-.2-.3.1 0 .1 0 .1.1 0-.2-.5-.4-.2-.6 1.1.4.8.2 1.2.2zm-2-3.4c-.1 0-.1.1-.2.2.1-.1.1-.2.2-.2zm-1.8-1.2l-.1.2h-.1c.1-.1.2-.1.2-.2zm-.5-.2v.3h-.1l.1-.3zm-5.7 1.5s-.1 0 0 0c-.1 0-.1 0 0 0zm-.2.2s.1 0 0 0h0zM254.2 385.3h.1-.1zM262.7 380.2l-.1.1.1-.1zM265.2 386.6c0 .1 0 0 0 0z"/><path d="M264.9 384.3c.1 0 .1 0 .1.1.1 0 .1-.1-.1-.1zM263.9 388.8h-.1zM265.1 384.5s0-.1 0 0c-.1-.1-.1 0 0 0zM260.9 379.5zM260.8 379.6c0-.1 0-.1 0 0zM261.7 379.7s0-.2-.1-.2v.1c0-.1 0 .3.1.1zM265 383.4l.2-.1-.3.1z"/></g><g fill="#bfaf9c"><path d="M441.6 307.8c-.1 0 0-.3-.3-.3-.1.3 0 .6.3.8-.1.1-.2 0-.2 0 .2.1.6.4.8.1-.4-.2-.3-.3-.7-.4-.1 0-.1-.2.1-.2zM442 311v-.2.2zM437.4 304zM428.5 307.7c.1.1.2.1.2.2-.1-.2.3-.5-.2-.2zM441.9 311.1v-.1h-.1c.1 0 .2.1.1.1zM402.5 328.8c-.1-.1-.2-.1-.3-.1v.1h.3z"/><path d="M398.7 330c0 .1 0 .2-.1.2.4.1 1-.4.9-.6.2-.1.1.2.3.2.3 0 .5-.6.8-.4 0 0 0 .1-.1.1.1-.2.8-.3.5-.5.5-.1.8-.5 1.3-.5.1-.4.8-.2.7-.6.1.4.9 0 1.2-.3 0 .2.3 0 .3.3.3-.1.6-.3.5-.5.8.3 1.1-.9 1.7-.4.9-.6 1.7-1.2 2.6-1.6.1.4-1 .4-.7.9.8-.5 1.1-1.1 2-1.3.2 0 0 .2-.1.3.8-.5 1.6-.6 2.3-1.2 0 0 0 .1-.1.2.1-.1.4-.1.3-.3l-.1.1c-.4-.2.3-.8.3-1 0 .7.8-.2.7.7.1-.1.2-.2.1-.3.2 0 .2 0 .2.2.5-.3.2-.5.7-.6v.3c.2-.3.3-.6.8-.6 0 .1.1.1 0 .2.7-.3 1-1 1.8-1.1-.1.5.3 0 .5.4l.4-.3-.2-.1c.4-.1.6-.5.9-.5l-.2.3.6-.3h-.4c.3-.3-.2-.4.3-.5-.1.1.4-.1.6 0 .1-.2.3-.4.6-.4.1.1.1.4.2.5.1-.4.8-.4.9-.8 0 .1 0 .3.1.3v-.3c.2 0 .2 0 .3.2.5-.2-.3-.4.3-.4 0 0 0 .1-.1.1.6-.1 1.1-.6 1.7-.7.3.3-.4.3-.1.5.8-.4 1.5-1.1 2.3-1.3h-.2c-.1-.6.7 0 1-.4-.1.1 0 .3 0 .3.6-.1 1-.6 1.7-1v.2c.4 0 .8-.3 1.2-.3 0-.2.2-.2.1-.4 1.3.3 1.8-1.2 3-.9-.1 0-.2.2-.1.2l.7-.4c-.2-.2-.2-.1-.4-.2 0-.2.2-.4.4-.4-.3.3.1.4.3.4-.1-.1 0-.2-.1-.2.6.2-.1-.5.5-.4v.1c.2-.1.3-.4.5-.4.2.2-.2.2-.1.4.3-.1.4-.7.8-.6-.1.1-.3.2-.4.3.4.2.4.1.7 0l.6-.1h-.2c.1-.8.7-.4 1.1-1.1-.3.6 0 .3.1.6.2 0 .4 0 .4.1.1-.3.5 0 .6-.4 0 .1.2 0 .2.2.1-.1-.1-.2-.1-.3.3-.3 1.6.2 2.1-.7.5-.6.4-.9.6-1.4l.1-.1c.2 0 .1.4.1.4.4-.2.5-.5.6-.8 0 .1.1.1.3 0 .1-.3-.3-.3 0-.6.1.1.2.2.3.4 0-.4-.1-.8-.2-1.1.2-.1.2.2.3.4 0-.4-.1-1.1-.4-1.2l-.1.3c0-.1.2-.1.3 0 .2.3-.1.5-.2.5l-.1-.2c-.3.1-.3.3-.2.6.1.3.1.6 0 .8l-.2-.2-.1-.1c.4-1.1.2-2.3-.4-3.3.1 0 .3-.1.4-.1v.1h.4l-.2-.2c.1-.1.2-.3.2-.8 0 0-.2-.1-.3-.2-.1-.1-.3-.2-.3-.2v-.3l.4.4c0-.4-.3-.4-.6-.5.1-.1 0-.3 0-.4h-.8c0-.2.5-.1.1-.5-.4 0 0 .5-.5.4-.2-.3 0-.5-.4-.4 0-.1.1-.2.3-.2-.4 0-.9-.2-1.1 0-.3-.3-1 0-1-.4-.1.1-.5.4-.8.5.2-.3-.1-.3-.4-.2-.3.1-.7.2-.7-.1-.1.3-.4.5-.7.8l-.1.1c-.1.1-.3.2-.3.3 0 0 0-.1.1-.1-.3.1-.4 0-.7 0 .1.4-.3.7-.4 1-.5-.2 0-.5-.2-.8.1.3-.5.5-.3.8-.4-.1-.3 0-.5-.3.1.5-.2.2-.3.6-.5-.1-.3-.4-.6-.1-.3-.1 0-.4 0-.4-.4.2-.1.4-.1.7-.5.3-.3-.2-.6-.3-.3.2-.4.6-.6.7 0-.1-.1-.1-.1-.1-.2.4-1 .4-1.3.9 0 0-.1 0-.1-.1.1.2.2.3.3.5-.2.1-.3.4-.4.2.1 0 .1-.1.1-.2l-.2.2c-.3-.3.2-.2.1-.5-.3.3-.7.7-1 .8-.2-.3.7-.4.1-.5l.5-.1c-.6-.4.3-.1-.3-.5-.7.2-.6.4-1.3.6-.1.2.2.2.1.5-.7.7-1-.5-1.5.1-.1.3 0 .7-.5.7v-.4c-.6.2-.1.7-.8.7.1-.2.4-.3.3-.3-.5-.1-.2.3-.5.4l-.2-.3c-.6.3-1.2.8-1.9 1.2 0-.1.1-.3-.1-.3-.8.5-1.9.7-2.8.9l-.2.4c-.1 0-.2-.1-.1-.2-.4 0 .1.2-.1.4-.2.1-.3-.1-.2-.2-.5.5-1.5 1.2-2.2 1.1l.1-.1c-.5.1-.3.8-.9.7l.1-.1c-1.1.3-2.1 1-3.1.9 0 .5-1.1.2-.9.8-.7 0-.6-.2-1.5-.1-.2.1-.2.5-.4.7l-.1-.3-.3.5-.3-.3-.2.2c.1 0 .3 0 .3.1-.4.3-1.1.2-1.1 0l-.9.6c0-.1.1-.2.2-.4-.4.5-.2-.3-.6.2.1 0 0 .2.1.3-.3-.1-.8.1-1.2.4v-.2c-.7.2-1.5.7-2.3 1 .3 0 .4.4.2.5l-.2-.3c-.1.3.3 0 .1.4-.3.1-.3-.3-.2-.4l-.3.3c-.1-.1 0-.2 0-.3-.1.3-.8-.1-.8.4l-.1-.1c-.8.3-1.1.6-1.8.9.1.3-.2.3-.3.6-.5.1-1.1.1-1.7.4-.4.3 0 .3-.1.5-.1-.2-.7 0-.5-.3-.7.3-.9.4-1.7 1 .1.1.3.1.2.2-.1.1-.4 0-.4-.1-.8.8-2.6.2-3.1 1l-.7.6c-.5.2.2-.3-.2-.3-.2.2-.4.4-.7.5-.2.2-.4.3-.6.4s-.4.3-.5.5-.3.4-.4.6c-.3.1-.5.3-.7.6-.1.3-.3.7-.3 1-.1.8 0 1.5-.1 2.1l.2-.1c.2.2 0 .3 0 .6.1-.1.1-.3.2-.2.4 1.1.9 2.2 2 3.1s2.8 1 3.9.6c.7-.2 0-1 1-.9l-.1.4c.4-1.6 1.9-1.7 3-2.5zm32.2-14c0-.1-.1-.1-.1-.2l.3-.1c0 .1 0 .2-.2.3zm8.6-3.2l-.2-.2c.1-.1.2-.1.3-.2 0 .2 0 .3-.1.4zm1.8-1.7c-.1 0-.2 0-.3-.1.1-.1.1-.3.2-.4.1.2.1.5.1.5zm-19.4-.3s-.1.1-.2.1c.1-.1.1-.1.2-.1zm-.7.3c.1.1.1.2 0 .2 0-.1-.2-.1-.4-.1.2 0 .3-.1.4-.1zM409 315.4v.1l.1-.1zM435.2 314.7h.3-.3zM436.8 314.2v-.1.1z"/><path d="M412.4 324.4s-.1 0 0 0c-.2.2-.1.1 0 0zM419.4 320.9c-.1.1-.1.2-.2.2.2-.1.3-.1.2-.2zM404.4 328l-.1.1zM419.2 321.1c-.1 0-.3 0-.3.1.2 0 .3 0 .3-.1zM442.3 309.1zM442.2 309c0-.1 0-.2-.1-.2l.1.2zM441 312.4c.2-.1.5-.2.6-.5l-.1-.1c.1.3-.5.4-.5.6zM423 319.6l-.3.2.3.1zM446 329.5c.1.1 0 .2 0 .2.2-.1.5-.4.4-.7-.3.3-.3.1-.6.5-.2 0-.3-.1-.3-.2-.1.1-.3-.1-.4.2.3.2.5.1.9 0zM448.5 330c-.1 0-.1 0-.2-.1.1.1.1.1.2.1zM431.8 330.9l.2.2c-.1-.1.4-.3-.2-.2zM448.6 330.1h-.2.2zM414.3 344.9c-.1-.1-.2-.1-.3-.1v.1h.3z"/><path d="M416.1 344.5c.3-.1.6-.2.5-.5.7.4 1.1-.7 1.6-.1.9-.5 1.8-.8 2.7-1.2.1.5-1 .3-.8.7.8-.4 1.2-.9 2.1-1 .2 0-.1.2-.1.3.8-.4 1.6-.3 2.3-.7 0 0-.1.1-.1.2.1 0 .4 0 .3-.2l-.1.1c-.3-.3.5-.8.4-.9-.1.6.8 0 .5.8.1-.1.2-.2.1-.3.2 0 .2.1.1.3.5-.2.3-.4.8-.5 0 .1-.1.2-.1.3.2-.2.4-.5.8-.5 0 .1.1.1-.1.2.7-.2 1.1-.8 1.9-.7-.1.5.3.1.4.5l.4-.2-.2-.1c.4-.1.6-.4 1-.3l-.2.2.7-.2-.4-.1c.3-.3-.1-.5.4-.5-.1.1.4-.1.6.1.2-.2.3-.3.6-.3.1.1 0 .4.1.5.1-.4.8-.3 1-.6-.1.1 0 .3 0 .3l.1-.3c.2 0 .2.1.2.2.5-.1-.3-.4.4-.4 0 0 0 .1-.1.1.6 0 1.1-.4 1.7-.4.2.3-.5.2-.2.5.8-.2 1.6-.8 2.4-.8h-.2c0-.6.6.2 1-.2-.1.1-.1.3-.1.3.5 0 1.1-.3 1.8-.7l-.1.2c.3.1.8-.1 1.2-.1.1-.2.3-.2.1-.3 1.2.6 1.9-.8 3-.3-.1 0-.2.2-.2.2l.8-.3c-.1-.2-.1-.1-.3-.3.1-.2.3-.3.5-.3-.3.2.1.4.2.5v-.2c.5.3 0-.5.6-.3v.1c.2-.1.4-.3.6-.3.1.3-.2.2-.2.4.3-.1.5-.7.9-.5-.1.1-.3.2-.4.3.4.2.5.1.7.1h.1c.1 0 .3-.1.3-.1h-.2c.2 0 .5-.1.5-.1h-.2c0-.4.2-.5.4-.7.2-.2.4-.3.4-.7 0 .7.1.2.4.5.2-.1.4-.3.4-.2 0-.4.4-.4.3-1 .1 0 .1-.3.3-.2 0-.4-.2.1-.3 0-.1-.3.1-.7.1-1.1.1-.4.1-.9-.3-1.2-.4-.6-.7-.6-1.1-.9 0-.1-.1-.1-.1-.1.1-.2.4 0 .4 0-.1-.4-.3-.6-.6-.7.1 0 .1-.1.1-.3-.2-.2-.4.2-.6-.2.1-.1.3-.1.5-.1-.3-.2-.7-.2-1-.2 0-.2.3-.1.5-.2-.4-.2-1-.3-1.2 0l.2.2c-.1 0 0-.3.1-.3.4-.1.4.2.4.4h-.2c0 .3.2.4.4.4.3 0 .6.1.8.3l-.3.2c-.8-.7-1.8-1-3.1-.8v-.5s.1.1.1 0l.1-.4-.3.1c-.1-.2-.2-.4-.6-.5l-.4.4-.2-.2.4-.1c-.3-.2-.4 0-.5.2-.1-.1-.1-.2-.2-.2l-.4.5c-.1-.2.1-.4-.2-.5-.2.2.3.4-.1.6-.3-.2-.2-.4-.5-.1-.1-.1 0-.2.1-.3-.2.2-.6.2-.7.4-.3-.2-.8.2-.8-.2-.1.1-.3.4-.6.5.3-.6-.8.1-.8-.5-.2.5-1 .4-1.5.8l.1-.1c-.3 0-.4-.1-.6-.2 0 .4-.4.6-.6.9-.4-.3.1-.5-.1-.9.1.3-.6.4-.4.7-.3-.2-.3-.1-.5-.4 0 .5-.2.1-.4.5-.4-.2-.2-.4-.6-.2-.2-.1.1-.4.1-.4-.4.1-.1.4-.2.6-.5.2-.3-.2-.5-.4-.3.2-.5.6-.7.6 0-.1-.1-.1 0-.2-.3.4-1 .2-1.4.7l-.1-.1c.1.2.2.4.2.5-.2 0-.3.3-.4.1.1 0 .1-.1.2-.2l-.2.1c-.3-.3.3-.2.2-.4-.4.2-.8.6-1.1.5-.1-.3.7-.3.2-.5h.5c-.5-.5.3 0-.2-.5-.6 0-.7.3-1.3.3-.1.2.1.3 0 .5-.8.5-.9-.7-1.4-.1-.1.3-.1.7-.6.6l.1-.4c-.6.1-.2.6-.9.5.1-.2.4-.2.3-.3-.5-.2-.2.3-.6.3l-.1-.3c-.6.2-1.3.6-2 .8 0-.1.1-.2-.1-.3-.9.4-1.9.4-2.8.4l-.3.4c-.1 0-.2-.1-.1-.2-.4 0 0 .2-.1.3-.2.1-.3-.1-.2-.2-.5.4-1.6.9-2.3.7l.1-.1c-.5 0-.4.7-.9.6l.1-.1c-1.1.1-2.2.6-3.1.4-.1.5-1.1.1-1 .7-.7-.2-.5-.3-1.4-.3-.2 0-.3.5-.5.6l-.1-.3-.3.4-.3-.3-.2.1c.1 0 .3.1.3.2-.4.2-1.1 0-1.1-.1l-.9.5c0-.1.1-.2.3-.3-.4.4-.2-.3-.6.1.1.1 0 .2 0 .3-.3-.1-.8 0-1.2.2v-.2c-.7.1-1.5.5-2.3.7.3 0 .3.4.1.5l-.2-.3c-.1.2.3.1 0 .4-.3 0-.3-.3-.1-.5l-.3.2v-.3c-.1.2-.7-.2-.8.2v-.1c-.8.2-1.1.4-1.8.6.1.3-.2.3-.4.6-.5 0-1.1-.1-1.7.1-.4.2-.1.3-.2.5-.1-.2-.7-.1-.4-.3-.3.1-.6.2-.8.3-.3.1-.6.3-1.1.6.2 0 .3 0 .3.1-.2.1-.4.1-.5 0v-.1c-.2.3-.5.4-.8.7-.1.1-.3.2-.5.3l-.4.4c-.3.3-.5.6-.6 1-.1.3-.1.7 0 1v-.1l.3 1.1c0 .5-.2-.3-.3.1.3.6.4 1 .6 1.4s.3.8.7 1.1c-.1.5.5 1.1 1.2 1.4.2.1.4.2.5.2.2.1.4.1.5.1.4.1.7.2 1 .3l-.1-.2c.3-.2.3.1.6.2 0-.1-.3-.2-.1-.3 1.2-.2 2-.4 2.9-.5l2.7-.3c.6-.1.1-1 1-.8l-.1.4c1.2-.7 2.6-.6 3.7-1.3-.1.1 0 .2-.2.2.3.2 1-.2.9-.4.2 0 .1.2.2.2.3.1.6-.5.8-.3l-.1.1c.1-.2.8-.2.6-.4.5 0 .9-.3 1.3-.3.2-.4.8 0 .8-.5.1.5.9.2 1.1-.1-.5.1-.1.1-.2.3zm27.2-6.9c0-.1 0-.2-.1-.2.1 0 .2 0 .3-.1 0 .1-.1.2-.2.3zm6.2-4.8l-.2.2c0-.1 0-.2-.1-.3.1 0 .2 0 .3.1zm-1.1-2.1c0 .1-.1.2-.2.2l-.3-.3c.2 0 .5.1.5.1zm-23.3 2.1s-.1 0-.2.1c.1-.1.1-.1.2-.1zm-.7.2c.1.1 0 .2 0 .2 0-.1-.2-.1-.3-.1 0-.1.1-.1.3-.1zM412.1 335.1v.1-.1z"/><path d="M449.3 336.1c0-.1-.1-.1-.1-.1l.1.1zM424.3 342.3s-.1 0 0 0c-.2.1-.1.1 0 0zM431.5 340.1l-.2.2c.2 0 .3-.1.2-.2zM416.1 344.5zM431.3 340.3c-.1 0-.2 0-.3.1.1 0 .2-.1.3-.1zM446.9 329c0 .1 0 .1 0 0zM446.6 329.1h.2c-.1-.1-.1-.1-.2 0zM449.3 330.9c0 .2 0 .3.2.4-.1-.2 0-.5-.3-.7h-.1c.1 0 .2.2.2.3zM435.1 339.6l-.3.1.3.1zM450.1 363.6c-.1.1-.2-.1-.3.1.1.3.3.4.5.2 0 .1-.1.2-.1.2.2-.1.5-.3.5-.6-.3.2-.3.1-.5.4-.1 0-.2-.2-.1-.3zM452.2 364.4s-.1 0-.1-.1c0 .1 0 .1.1.1zM440.9 361.6c0-.2.3-.2-.1-.3.1.1.1.2.1.3zM452.2 364.5h-.1.1zM428 369.4c0-.1-.1-.2-.1-.2v.1l.1.1z"/><path d="M452.7 367.9c-.1-.2 0-.4.1-.7.1-.3.2-.6-.1-.9-.2-.5-.6-.5-.9-.7v-.1c.1-.1.3 0 .3 0 .1-.3-.1-.5-.3-.6.1 0 .1-.1.2-.2-.2-.1-.3.1-.4-.2.1 0 .3-.1.4-.1-.2-.1-.6-.1-.8-.2.1-.2.3-.1.4-.1-.3-.2-.7-.3-.9-.1l.1.2c-.1 0 .1-.2.2-.2.3-.1.2.3.2.3s-.2-.1-.2 0c-.1.3 0 .4.2.4s.5.1.5.2l-.3.1c-.4-.5-1.1-.9-2-1 0-.2.1-.3.1-.5 0 0 0 .1.1.1l.2-.3h-.2c0-.2 0-.4-.2-.6l-.4.2-.1-.2h.3c-.1-.2-.2-.1-.4.1 0-.1 0-.2-.1-.3l-.4.4c0-.2.2-.3 0-.5-.2.2.1.4-.2.5-.1-.2 0-.4-.3-.3 0-.1 0-.2.1-.2-.2.1-.4 0-.6.2-.1-.3-.6 0-.5-.5-.1.1-.3.3-.5.3.4-.5-.6-.1-.4-.7-.3.5-.8.1-1.2.3l.1-.1c-.2-.1-.2-.2-.3-.3-.1.4-.4.4-.6.7-.2-.4.2-.4.2-.8 0 .3-.5.3-.4.5-.2-.3-.1-.1-.2-.5-.1.5-.2.1-.4.3-.2-.3 0-.5-.3-.4-.1-.2.2-.3.2-.3-.3-.1-.2.3-.3.6-.4.1-.1-.3-.2-.5-.2.1-.5.4-.6.3v-.2c-.3.3-.7-.1-1 .2v-.1.5c-.1 0-.3.2-.3-.1.1 0 .1-.1.2-.1l-.2.1c-.1-.4.2-.1.3-.4-.3.1-.7.3-.9.2 0-.4.5 0 .3-.4l.3.2c-.2-.6.2.1.1-.6-.4-.2-.5.1-.9-.1-.1.2 0 .3-.1.5-.7.3-.4-.9-.9-.6-.2.2-.3.6-.6.4l.2-.4c-.4-.1-.3.5-.7.2.1-.1.4-.1.3-.1-.2-.4-.2.2-.5.2v-.4c-.5 0-1 .2-1.5.2 0-.1.1-.2 0-.3-.7.1-1.3-.2-1.9-.5l-.3.3c-.1 0-.1-.2 0-.2-.2-.1 0 .2-.2.3-.1 0-.2-.2-.1-.3-.5.2-1.3.4-1.7 0l.1-.1c-.3-.2-.5.6-.8.2h.1c-.7-.2-1.6-.1-2.1-.6-.2.4-.7-.3-.8.3-.4-.4-.2-.5-.8-.7-.2-.1-.3.3-.5.4v-.3l-.3.3-.1-.4-.2.1c.1 0 .1.2.1.3-.3.1-.7-.3-.6-.5l-.7.2c0-.1.2-.2.3-.2-.4.3 0-.3-.4-.1 0 .1-.1.2-.1.2-.1-.2-.5-.3-.8-.2l.1-.2c-.5-.1-1.1-.1-1.6-.1.2.1.1.5-.1.5v-.3c-.1.2.2.2-.1.4-.2-.1-.1-.4.1-.5l-.3.1c0-.1.1-.1.1-.3-.1.2-.4-.4-.6-.1v-.1h-.8c-.3 0-.5 0-.8.1 0 .3-.2.3-.4.5-.4-.1-1-.1-1.5.2-.3.3 0 .3 0 .5-.2-.2-.6.1-.5-.2-.3.2-.4.4-.5.5-.1.2-.3.4-.4.8.1 0 .2 0 .3.1 0 .1-.3.2-.4.1l-.3.6c-.2.2-.4.4-.5.6-.4.4-.6.9-.4 1.3 0 0 0 .2.1.4s.1.4.1.4c-.1.3-.2-.2-.4.1.2.4.3.7.3 1.1.1.3.1.6.4.9-.2.4.1.9.6 1.2.5.4 1 .5 1.3.9v-.2c.2-.1.2.2.3.2 0-.1-.1-.2 0-.3.9.1 1.4.2 2 .4.6.2 1.2.5 1.8.6.4.1.4-.9.9-.4l-.2.3c.9-.3 1.8.3 2.7.1-.1.1-.1.2-.2.2.1.3.7.1.7-.1.1 0 0 .2.1.3.2.2.5-.2.6 0l-.1.1c.1-.1.6.1.5-.2.3.2.6 0 .9.2.2-.3.5.2.7-.2-.1.5.5.5.7.3-.1.1.2.2 0 .4.2 0 .5 0 .5-.3.3.6.9-.3 1.1.4.7-.1 1.4-.2 2-.2-.1.5-.7-.1-.7.4.6-.1 1-.4 1.6-.2.1.1-.1.2-.2.3.6-.1 1.1.2 1.7 0l-.1.1c.1 0 .2.1.3-.1h-.1c-.1-.3.5-.6.6-.7-.3.6.5.2.1.9.1 0 .2-.1.2-.3.1.1.1.1 0 .3.4-.1.3-.3.6-.2 0 .1-.1.1-.1.2.2-.2.4-.3.7-.2 0 .1 0 .1-.1.1.5 0 .9-.4 1.4-.1-.2.4.2.2.1.6l.3-.1-.1-.2c.3 0 .5-.2.7 0l-.2.1h.5l-.2-.2c.3-.2 0-.5.4-.3-.1 0 .3 0 .3.3.1-.1.3-.2.5-.1 0 .1-.1.4-.1.5.2-.3.6 0 .8-.3-.1.1-.1.3-.1.3l.1-.2c.1.1.1.1.1.3.3.1 0-.5.3-.2 0 0 0 .1-.1.1.4.2.8 0 1.2.1.1.4-.4 0-.3.4.6 0 1.2-.3 1.7-.1l-.1-.1c.2-.5.4.3.7.1-.1 0-.1.3-.1.2.4.1.8 0 1.4-.1l-.1.1c.2.2.6.2.8.3.1-.1.2-.1.2-.3.3.5.8.4 1.1.2.4-.2.7-.3 1.1-.2-.1 0-.2.2-.1.2l.6-.4c-.1-.2-.1-.1-.3-.2 0-.2.1-.3.2-.4-.1.3.2.3.4.4-.1-.1-.1-.1-.1-.2.5.2-.2-.4.3-.4l.1.1c.1-.1.1-.4.2-.5.2.2 0 .2.1.4.2-.2 0-.7.3-.7 0 .1-.1.2-.1.4.4.1.4 0 .5-.1l.4-.3h-.1c-.4-.6.2-.6 0-1.2.2.5.2.2.5.3.1-.1.3-.2.3-.1-.2-.3.3-.3.1-.7.1 0 .1-.2.3-.1-.4-.6-.6-.2-.7-.3zm-.8-2.9c0 .1-.1.2-.2.2-.1-.1-.1-.2-.2-.2h.4zm-16-3.9h0zm-.3-.1c0 .1 0 .2-.1.2 0-.1-.1-.1-.2-.2h.3zm13 10.2v-.2h.2s0 .1-.2.2zm3.5-4.5v-.2c.1 0 .2.1.3.1 0 0-.2.1-.3.1zM427.2 359.2z"/><path d="M451.6 369.9l.2-.1c-.1 0-.1.1-.2.1zM452.4 368.9l-.1-.1.1.1zM435.1 370.1c-.1.1-.1.1 0 0zM440.4 370.2c-.1 0-.1.1-.2.1.1.1.1.1.2-.1zM429.3 369.6zM439.9 370.3c.1.1.2.1.2 0h-.2zM451.2 363.5c0 .1 0 .1 0 0zM450.9 363.6h.2c-.1-.1-.1-.1-.2 0zM452.7 365.5c0-.1.1-.4-.1-.6h-.1c.2.1 0 .6.2.6zM442.7 371l.1-.2-.2.1zM218 357.1c.1.1 0 .2-.1.2.2-.1.6-.3.5-.7-.3.3-.4.1-.7.5-.2 0-.3-.1-.3-.3-.1.1-.3-.1-.4.1.4.3.6.3 1 .2zM220.5 358.2c-.1-.1-.1-.1-.2-.1.1 0 .1.1.2.1zM203.6 357.7c.1.1.1.2.2.2-.1-.1.3-.2-.2-.2zM220.5 358.3s0-.1-.1-.1c0 0-.1 0-.1.1h.2zM184.9 370h-.5.5zM183.1 370.2c-.1-.1-.2-.1-.3-.2v.1l.3.1z"/><path d="M179.1 370.4c-.1.1-.1.2-.2.2.3.2 1-.1 1-.3.2 0 .1.2.2.3.3.1.6-.4.8-.2l-.1.1c.2-.1.8-.1.6-.3.5.1.9-.2 1.3-.1.2-.3.8.1.9-.4 0 .5.9.3 1.2 0-.1.2.3.1.2.3.3 0 .7-.2.6-.4.7.5 1.2-.6 1.7.1 1-.4 1.9-.7 2.8-.9 0 .5-1 .2-.9.7.9-.3 1.3-.8 2.2-.8.2 0-.1.2-.2.3.9-.3 1.7-.2 2.4-.5 0 0-.1.1-.2.1.2 0 .4 0 .3-.2l-.1.1c-.3-.3.5-.7.5-.9-.2.6.8.1.5.9.1-.1.2-.2.2-.3.2 0 .2.1.1.3.5-.2.3-.4.8-.4 0 .1-.1.2-.1.3.2-.2.5-.5.9-.4 0 .1 0 .1-.1.2.7-.1 1.2-.7 2-.6-.2.5.3.1.4.5l.4-.2-.2-.2c.4 0 .7-.4 1-.3l-.3.2.7-.2-.4-.1c.4-.2-.1-.5.4-.4-.1.1.4 0 .6.2.2-.1.3-.3.6-.2.1.1 0 .4.1.5.1-.3.9-.2 1.1-.6-.1.1 0 .3 0 .3l.1-.3c.2.1.2.1.2.3.5 0-.2-.5.4-.3 0 0 0 .1-.1.1.6 0 1.2-.3 1.8-.3.2.4-.5.2-.3.5.8-.2 1.6-.7 2.5-.7h-.2c0-.6.6.2 1-.1-.1.1-.1.3-.1.3.6 0 1.1-.3 1.9-.5l-.1.2c.3.1.9 0 1.2 0 .1-.2.3-.2.1-.3 1.2.7 2-.7 3-.1-.1 0-.3.2-.2.1l.8-.2c-.1-.2-.1-.1-.3-.3.1-.2.3-.3.5-.3-.3.2.1.4.2.5v-.2c.5.4 0-.5.6-.3v.1c.2-.1.4-.3.6-.3.1.3-.2.2-.2.4.3 0 .6-.6.9-.4-.1.1-.3.2-.5.3.4.3.4.2.7.1h.3c.2 0 .3-.1.3-.1h-.2c.1-.4.3-.5.5-.7.2-.1.4-.3.5-.6-.2.7.1.3.3.5.2 0 .4-.2.4 0 0-.4.6-.3.5-.9.1 0 .2-.3.4-.1.2-.4-.2 0-.3-.1 0-.3.2-.6.5-1 .2-.3.4-.8.2-1.2-.1-.4-.2-.6-.4-.8-.1-.2-.2-.3-.4-.5v-.1c.1-.1.4.1.4.1v-.5c-.1-.1-.2-.3-.3-.4.1 0 .1-.1.2-.2-.2-.3-.4 0-.5-.4.1 0 .3-.1.5 0-.1-.1-.3-.2-.5-.3-.2-.1-.4-.1-.5-.2 0-.2.3-.1.5-.1-.2-.1-.4-.3-.7-.3-.2-.1-.5-.1-.6.1l.2.2c-.1 0 0-.2.2-.2.4 0 .4.4.3.4l-.2-.1c-.1.3.1.4.4.5.2.1.5.3.7.5 0 0-.2 0-.4.1-.5-.9-1.5-1.4-2.9-1.2v-.5s.1.1.2 0l.1-.3-.3.1c-.1-.2-.2-.4-.5-.5l-.4.4-.2-.2.4-.1c-.3-.2-.4 0-.5.2-.1-.1-.1-.2-.2-.2l-.4.5c-.1-.2.2-.4-.2-.5-.2.2.3.4-.1.6-.3-.2-.2-.4-.5-.2-.1-.1 0-.2.1-.3-.2.2-.6.1-.7.4-.3-.2-.8.2-.8-.3-.1.1-.4.4-.6.5.3-.6-.8.1-.8-.5-.2.5-1 .3-1.5.7l.1-.1c-.3 0-.4-.1-.6-.2 0 .4-.4.6-.7.8-.4-.3.2-.5 0-.9.1.3-.6.4-.4.7-.3-.2-.3-.1-.4-.4 0 .5-.2.1-.4.5-.4-.2-.2-.5-.6-.3-.2-.1.1-.4.1-.4-.5 0-.2.4-.2.6-.5.2-.3-.2-.5-.4-.3.1-.5.5-.8.5 0-.1-.1-.1 0-.2-.3.3-1 .1-1.4.6l-.1-.1c.1.2.1.4.1.5-.2 0-.3.3-.5 0 .1 0 .1-.1.2-.2l-.2.1c-.2-.3.3-.2.2-.4-.4.2-.8.5-1.2.5-.1-.3.7-.2.3-.5l.5.1c-.4-.5.3 0-.1-.5-.7 0-.7.3-1.3.2-.1.2.1.3 0 .5-.9.5-.8-.8-1.4-.2-.1.3-.2.7-.7.5l.1-.4c-.6 0-.3.6-1 .4.1-.2.5-.2.4-.2-.5-.3-.3.3-.6.3l-.1-.3c-.7.1-1.4.5-2.1.6 0-.1.1-.2 0-.3-.9.3-2 .2-2.9.1l-.3.3c-.1 0-.2-.1-.1-.2-.4-.1 0 .2-.1.3-.2 0-.3-.1-.2-.2-.6.3-1.7.8-2.4.5l.1-.1c-.5-.1-.5.7-1 .5l.1-.1c-1.1 0-2.3.4-3.2.1-.1.5-1.1-.1-1.1.6-.7-.2-.5-.4-1.4-.4-.2 0-.3.4-.6.5v-.3l-.4.4-.3-.4-.3.1c.1 0 .2.1.2.2-.4.2-1.1-.1-1.1-.3l-1 .4c0-.1.2-.2.3-.3-.5.4-.1-.3-.6 0 .1.1 0 .2 0 .3-.3-.2-.8-.1-1.2 0l.1-.2c-.8 0-1.6.3-2.4.4.3.1.3.5.1.5l-.1-.3c-.1.2.3.1 0 .4-.3 0-.3-.4-.1-.5l-.4.2c0-.1 0-.2.1-.3-.1.2-.7-.3-.9.1v-.1c-.8.1-1.2.3-1.9.4 0 .3-.3.3-.4.5-.5 0-1.1-.2-1.7-.1-.4.2-.1.3-.3.5-.1-.3-.7-.2-.4-.4-.7.2-.8.1-2 .6.2.1.3.1.2.2-.2.1-.5 0-.5-.1-.3.2-.6.3-.9.5-.3.2-.7.3-1 .5s-.6.4-.8.7c-.2.3-.3.6-.3.9v-.1s0 .3-.1.6v.5c-.2.5-.1-.3-.4 0 .1.6.1 1.1.1 1.5s0 .9.3 1.3c-.1.2-.1.6 0 .9.2.3.4.7.7.9.3.3.7.5 1.1.7.2.1.3.2.5.3.2.1.3.1.4.2v-.2c.3-.1.3.2.6.3 0-.1-.3-.2-.1-.3 1.3 0 2-.2 3-.1.9 0 1.8.1 2.7 0 .7 0 .2-1 1.1-.7l-.2.4c1.4-.9 2.8-.7 4-1.2zm34-5.1v-.2h.3c-.1 0-.2.1-.3.2zm7.3-4.1s-.1 0-.3.1v-.3c.2 0 .2.1.3.2zm-.3-2.4c0 .1-.1.2-.2.2-.1-.1-.1-.3-.2-.4l.4.2zm-23.5.2h-.2c.1.1.2 0 .2 0zm-.7.2c0 .1 0 .2-.1.2 0-.1-.2-.1-.3-.2h.4zM183.3 360.2h.1zM217.9 365.1h-.4.4zM219.3 364.3v-.1.1z"/><path d="M193.5 368.6c-.1 0-.1 0 0 0-.2.1-.1.1 0 0zM201 367l-.2.2c.1 0 .2-.1.2-.2zM185 370h-.1zM200.4 367.2h.4c-.1-.1-.3-.1-.4 0zM219.1 356.8s-.1 0 0 0zM219 356.8h-.1c.1 0 .1.1.1 0zM218.7 356.8h.2c-.1 0-.1-.1-.2 0zM221 359.8c0-.2.1-.5 0-.8h-.1c.2.1-.1.7.1.8zM204.7 366.7l-.3.1.2.2zM216.5 370.3c-.2.4-.2.2-.4.7-.1.1-.3 0-.3-.1 0 .1-.3 0-.3.3.3.2.5 0 .8-.2.1.1 0 .2 0 .2.2-.3.4-.6.2-.9zM218.7 370.5h-.2.2zM204.3 376.1c.1 0 .2.1.2.2-.1-.2.2-.5-.2-.2zM218.8 370.6h-.1v.1c0-.1.1-.1.1-.1zM193.4 393.2c-.1-.1-.2-.1-.3-.1v.1h.3z"/><path d="M201.9 388.1l-.1.1c-.3-.2.2-.8.1-1 .1.6.7-.2.7.7.1-.1.1-.2 0-.3.1 0 .2 0 .2.2.4-.3.1-.5.5-.7v.3c.1-.3.2-.6.6-.7 0 .1.1.1 0 .2.6-.3.7-1 1.5-1.2 0 .5.3 0 .5.3l.3-.3-.2-.1c.3-.2.4-.5.8-.6l-.1.3.5-.4h-.4c.2-.3-.3-.4.2-.5-.1.1.3-.2.6 0 .1-.2.2-.4.5-.4.1.1.2.4.2.5 0-.4.7-.5.7-.9 0 .1.1.3.1.3v-.3c.2 0 .2 0 .3.2.4-.2-.4-.4.2-.4 0 0 0 .1-.1.1.6-.2.9-.7 1.4-.8.3.3-.4.3 0 .5.6-.4 1.2-1.1 1.8-1.4h-.1c-.2-.5.6 0 .8-.4-.1.1 0 .3 0 .3.5-.2.8-.6 1.4-1.1v.2c.3 0 .7-.3 1-.4 0-.2.2-.2 0-.4 1.2.2 1.4-1.3 2.5-1.1-.1.1-.2.2-.1.2l.6-.5c-.2-.2-.2-.1-.4-.2 0-.2.1-.4.3-.5-.2.3.2.3.4.4-.1-.1-.1-.1-.1-.2.5.2-.2-.4.4-.5v.1c.1-.2.2-.4.4-.5.3.2-.1.2 0 .4.3-.2.1-.8.5-.8 0 .1-.2.3-.2.4.5 0 .4-.1.6-.3l.4-.5-.2.1c-.1-.2-.1-.3-.1-.4v-.3c.1-.2.2-.5-.1-.7.4.6.2.1.6.2.1-.1.2-.4.3-.3-.2-.3.2-.5-.2-.9.1 0 0-.3.2-.3-.2-.4-.1.1-.3.1-.3-.2-.2-.6-.3-.9 0-.2-.1-.4-.2-.5-.1-.2-.3-.3-.5-.4-.3-.2-.5-.3-.7-.3s-.4-.1-.6-.1l-.1-.1c0-.2.3-.2.3-.2-.2-.3-.4-.4-.7-.5.1-.1.1-.1 0-.3-.3-.1-.3.3-.6 0 .1-.1.2-.2.4-.3-.4 0-.7.1-1 .2-.1-.2.2-.3.4-.3-.4 0-1 .1-1.1.4l.2.1c-.1 0-.1-.2 0-.3.3-.2.4.1.4.2l-.2.1c.1.3.3.3.5.2.2 0 .6-.2.7 0l-.3.3c-.9-.3-1.9-.3-2.9.2-.1-.2-.1-.3-.2-.4h.1v-.4l-.2.2c-.1-.2-.3-.3-.6-.3l-.2.5h.1l.3-.2c-.3-.1-.3.1-.4.3-.1-.1-.2-.1-.3-.1l-.2.6c-.1-.1 0-.4-.3-.4-.1.3.4.3.1.6-.3-.1-.3-.3-.4 0-.1-.1-.1-.2 0-.3-.1.2-.5.3-.5.6-.3-.1-.6.4-.8 0 0 .1-.2.5-.3.6.1-.7-.7.3-.9-.2 0 .6-.8.7-1.1 1.1 0 0 0-.1.1-.1-.3.1-.4 0-.6 0 .2.4-.2.7-.2 1-.5-.2 0-.5-.3-.8.2.3-.4.6-.1.7-.3-.1-.2 0-.5-.2.2.5-.2.2-.2.6-.4 0-.3-.4-.6 0-.2 0 0-.4 0-.4-.4.2 0 .4 0 .7-.4.3-.3-.1-.6-.2-.2.2-.3.7-.5.7 0 0-.1 0-.1-.1-.1.4-.8.5-1 1 0 0-.1 0-.1-.1.1.1.2.3.3.4-.2.1-.2.4-.4.2.1 0 .1-.1.1-.2l-.1.2c-.3-.2.2-.2 0-.5-.3.3-.5.8-.8.8-.2-.3.5-.4.1-.5l.5-.1c-.6-.3.3-.1-.3-.5-.6.2-.5.5-1.1.7 0 .2.2.2.2.5-.6.7-1-.5-1.3.2 0 .3.1.7-.4.7l-.1-.4c-.5.2 0 .7-.7.7 0-.2.3-.3.2-.3-.5-.1-.1.3-.4.5l-.2-.3c-.5.3-1 .9-1.5 1.2 0-.1 0-.3-.2-.3-.7.6-1.6.8-2.4 1l-.1.4c-.1 0-.2-.1-.1-.1-.3 0 .1.2 0 .4-.1.1-.3 0-.2-.2-.4.5-1.1 1.2-1.8 1.2l.1-.1c-.5.1-.2.8-.7.7v-.1c-.9.4-1.8 1.1-2.7 1.1.1.5-1 .3-.7.9-.6 0-.6-.2-1.4 0-.2.1-.1.5-.3.7l-.2-.3-.2.5-.3-.2-.2.2c.1 0 .3 0 .3.1-.3.3-.9.3-1 .1l-.7.7c0-.1.1-.2.1-.4-.3.5-.2-.3-.5.2.1 0 .1.2.1.2-.3-.1-.7.2-1 .4v-.2c-.6.3-1.2.8-1.9 1.1.3 0 .4.3.2.5l-.2-.3c0 .3.3 0 .1.4-.3.1-.4-.2-.3-.4l-.3.3c-.1-.1 0-.2-.1-.3 0 .3-.7 0-.7.4l-.1-.1c-.7.4-.9.6-1.5.9.1.3-.1.3-.2.6-.4.1-1 .2-1.5.5-.3.3 0 .3-.1.5-.1-.1-.2-.1-.4-.1-.1 0-.2 0-.1-.1-.4.3-.6.4-.8.6-.2.3-.4.5-.6 1 .2 0 .3-.1.3 0-.1.2-.3.3-.4.2v-.1c0 .2-.1.3-.2.5 0 .2-.1.3-.2.5-.2.3-.3.6-.4 1-.1.3-.1.7-.1 1s.2.6.4.8c0 0 .1.2.3.4.2.2.3.4.3.4.2.4-.3-.1-.3.2.5.3.7.7 1 1 .2.3.6.6 1 .7.1.5.7.8 1.5.9.7.1 1.4-.1 2 .1l-.1-.2c.2-.2.3.1.5 0-.1-.1-.3-.1-.2-.2 1-.5 1.6-.8 2.4-1.1.8-.3 1.6-.5 2.3-.8.5-.2-.2-1 .7-1v.4c.9-.9 2.2-1.1 3-2 0 .1 0 .2-.1.2.3.1.8-.4.7-.6.2-.1.1.1.3.2.3 0 .4-.6.6-.4 0 0 0 .1-.1.1.1-.2.7-.3.4-.5.5-.1.7-.5 1.1-.5 0-.4.7-.2.6-.7.2.4.9 0 1-.4 0 .2.3 0 .3.2.3-.2.5-.4.3-.6.8.2.8-1 1.4-.5.7-.7 1.4-1.2 2.1-1.7.2.4-.8.5-.5.9.6-.5.8-1.1 1.6-1.4.2 0 0 .2 0 .3.6-.5 1.4-.7 1.9-1.3 0 0 0 .1-.1.2.5 0 .7 0 .6-.2zm15.2-9c0-.1-.1-.1-.1-.2.1 0 .2-.1.2-.1 0 .1 0 .2-.1.3zm3.3-6.4s-.1.1-.1.2c-.1-.1-.1-.2-.2-.3.1 0 .2 0 .3.1zm-1.6-1.5c0 .1 0 .2-.1.3-.1-.1-.2-.1-.3-.2.1-.1.4-.1.4-.1zm-19.9 8.3s-.1.1-.2.1c.1 0 .1-.1.2-.1zm-.6.4c.1.1.1.2 0 .2 0-.1-.2 0-.3-.1.1 0 .2-.1.3-.1z"/><path d="M187.9 384.8l.1.1v-.1zM220.8 377.1l.3-.2c-.2.1-.3.1-.3.2zM221.6 375.5s-.1 0-.1-.1l.1.1zM201.7 388.4c-.1 0-.1 0 0 0-.2.2-.1.1 0 0zM207.5 384.5c0 .1-.1.2-.1.2.1 0 .2 0 .1-.2zM195 392.4h-.1zM207.4 384.7c-.1 0-.2.1-.3.1.1.1.2 0 .3-.1zM217.1 370.2h-.1.1zM216.9 370.2c-.1 0-.2 0-.2.1l.2-.1zM219.5 370.8c.1 0 .2.6.5.5-.1-.1-.2-.4-.5-.5zM210.5 383.4v-.3l-.2.2zM227.1 383.2c.1 0 .1.1.1.2 0-.2.1-.6-.2-.8 0 .4-.1.3 0 .7-.1.1-.3.1-.3 0 0 .1-.2.1-.1.3.3.1.4-.1.5-.4zM229 381.9c-.1 0-.1.1-.2.1.1 0 .1 0 .2-.1zM219.2 391.7c-.2-.1 0-.4-.3-.1.1 0 .2 0 .3.1zM229.1 382h-.1v.1c0-.1 0-.1.1-.1zM216.8 410h-.3v.1l.3-.1zM227.6 382.8c0 .1 0 .1 0 0z"/><path d="M233.2 386.4c-.4-.2-.5-.3-.5-.5s-.1-.4-.4-.5c.6.3.3 0 .6-.1 0-.2 0-.4.1-.4-.3-.1 0-.5-.5-.6.1-.1-.1-.2.1-.3-.2-.2-.1.2-.2.2-.3-.1-.4-.4-.5-.7-.2-.3-.4-.6-.8-.6-.6-.2-.8.1-1.3.1h-.1c0-.2.2-.3.2-.3-.2-.3-.5-.2-.8-.2.1-.1 0-.2-.1-.3-.2 0-.2.4-.5.2 0-.1.1-.3.2-.4-.3.1-.6.3-.8.5-.1-.1.1-.3.2-.5-.3.2-.8.4-.8.8h.2c-.1 0-.1-.2-.1-.3.2-.3.4 0 .5 0l-.2.1c.2.2.3.2.5 0 .2-.1.4-.3.6-.3 0 0 0 .1-.1.2v.1c-.8 0-1.6.4-2.3 1.2l-.3-.3s.1 0 .1-.1l-.2-.3-.1.2c-.2-.1-.4-.1-.7 0v.5h-.3l.2-.3c-.3 0-.2.2-.2.4-.1-.1-.2-.1-.3 0l.1.6c-.2-.1-.2-.4-.4-.2.1.3.4.1.4.5-.3 0-.4-.1-.4.1-.1-.1-.1-.1-.1-.2 0 .2-.3.4-.1.7-.3 0-.4.6-.7.3 0 .1.1.5 0 .6-.2-.6-.4.5-.8.1.2.5-.4.8-.4 1.3v-.1c-.2.2-.3.1-.5.2.3.3.1.6.2.9-.5 0-.3-.4-.6-.6.3.2-.1.6.2.7-.3 0-.2.1-.5 0 .4.3-.1.2.1.6-.4.1-.4-.2-.5.1-.2 0-.2-.3-.2-.3-.2.3.2.4.3.6-.2.4-.3 0-.6 0-.1.3.1.7-.1.8-.1 0-.1 0-.1-.1.1.4-.5.7-.4 1.2h-.1c.2.1.3.2.4.3-.1.1 0 .4-.2.3.1-.1 0-.1 0-.2v.2c-.4-.1.1-.3-.2-.4-.1.3-.1.8-.4 1-.3-.2.3-.5-.2-.5l.4-.2c-.6-.1.2-.2-.5-.3-.4.3-.2.6-.6.9.1.2.2.2.3.4-.2.8-1.1-.1-1 .6.1.3.4.6 0 .7l-.4-.5c-.3.4.3.6-.3.8-.1-.2.1-.4.1-.4-.5.1 0 .3-.1.5l-.3-.2c-.3.5-.5 1.1-.8 1.6-.1-.1-.1-.2-.3-.2-.3.7-1 1.2-1.7 1.7l.1.4s-.2 0-.2-.1c-.3.1.1.1.1.3-.1.1-.3.1-.3-.1-.1.6-.5 1.5-1 1.7v-.1c-.4.2.2.8-.3.9v-.1c-.7.6-1.1 1.6-1.8 1.8.3.4-.7.6-.3 1-.6.2-.5 0-1.2.5-.1.1.1.5 0 .7l-.3-.2.1.5-.4-.1-.1.2c.1-.1.2-.1.3 0-.1.4-.7.5-.8.4l-.3.8c-.1-.1 0-.2 0-.4 0 .5-.3-.1-.3.4.1 0 .1.1.2.2-.3 0-.6.4-.7.7l-.1-.2c-.4.4-.7 1.1-1.2 1.6.2-.1.5.2.4.3l-.3-.1c.1.2.2-.1.3.3-.2.2-.4-.1-.4-.3l-.1.3c-.1 0-.1-.1-.2-.2.1.2-.6.2-.4.6h-.1c-.4.5-.5.8-.9 1.3.2.2 0 .3.1.6-.2.1-.4.2-.6.4-.2.2-.4.4-.6.7-.1.5.2.2.2.5-.3-.1-.5.5-.5.1-.1.4-.2.6-.2.9s0 .6.1 1.1c.1-.1.1-.2.2-.2 0 .2-.1.4-.2.4.2.5.2 1.1.3 1.7s.3 1.2.8 1.4h-.1l.4.2.4.2c.3.3-.3 0-.2.3.5.2.8.3 1.1.6.3.2.6.4 1.1.3.1.2.4.4.6.4.3 0 .6 0 1-.1.3-.1.6-.3.9-.4.3-.2.5-.3.8-.3l-.2-.1c.1-.3.3-.1.4-.2-.1-.1-.3 0-.2-.1.7-.8 1.1-1.3 1.6-1.8s1.1-1 1.7-1.5c.4-.4-.6-.8.2-1.1l.1.4c.3-1.1 1.4-1.7 1.8-2.7 0 .1.1.2 0 .2.3 0 .5-.6.4-.8.1-.1.2.1.3.1.3-.1.1-.6.4-.6v.1c0-.2.4-.5.1-.6.4-.2.4-.7.7-.8-.1-.4.5-.4.2-.8.3.3.7-.3.7-.6.1.2.2-.1.3.1.2-.2.3-.5 0-.6.8-.1.3-1.1 1-.9.3-.8.7-1.5 1.1-2.2.3.3-.5.7-.1 1 .3-.7.2-1.3.8-1.7.2-.1.1.2.1.3.3-.7.9-1.1 1.1-1.7v.2c.1-.1.2-.2.1-.3v.1c-.4 0-.2-.8-.3-.9.3.5.5-.4.9.3 0-.1 0-.2-.1-.3.1-.1.2 0 .2.1.2-.4-.1-.4.2-.8.1.1.1.2.1.3 0-.3-.1-.6.2-.8 0 .1.1.1.1.2.3-.5.2-1.1.8-1.5.2.4.3-.1.6.1l.1-.3h-.2c.2-.2.1-.6.4-.7v.3l.3-.5-.3.2c0-.4-.4-.3-.1-.5 0 .1.2-.2.5-.2 0-.2 0-.4.2-.5.1 0 .3.3.4.3-.2-.3.4-.6.2-1 0 .1.2.2.2.2l-.1-.3c.2-.1.2 0 .3.1.3-.3-.5-.2 0-.5v.1c.4-.3.5-.9.9-1.2.4.1-.2.4.2.5.4-.6.5-1.4 1-1.8l-.1.1c-.4-.4.5-.2.5-.6 0 .1.2.3.1.2.3-.3.5-.8.8-1.4l.1.2c.3-.1.5-.5.7-.7-.1-.2.1-.3-.2-.3 1.2-.2.7-1.6 1.7-1.8-.1.1 0 .3 0 .2 0 0 .1-.2.2-.3l.2-.4c-.2-.1-.2 0-.4 0-.1-.2-.1-.4 0-.5 0 .3.3.2.5.1-.1 0-.1-.1-.2-.1.5-.2-.4-.3 0-.6l.1.1c0-.2-.1-.4-.1-.6.3 0 .1.2.3.3 0-.3-.4-.6-.1-.9.1.1.1.3.1.4.4-.3.3-.3.3-.5l.1-.5.3.1zm-2.1-3s0 .1-.1.3l-.2-.2c0-.1.1-.1.3-.1zm-2.1-.7l.2-.2c0 .1.1.2 0 .3h-.3s.1 0 .1-.1zm-13.3 13.7s0 .1-.1.2c0-.2.1-.2.1-.2zm-.3.4c.1 0 .2.1.1.2 0-.1-.2 0-.3.1 0-.1.1-.2.2-.3zm15.9-6.7c-.1 0-.1-.1-.2-.1 0-.1.1-.1.1-.2.1 0 .1.1.1.3z"/><path d="M208.5 404.5h.1l-.1-.1zM233.2 386.8l.1-.3c-.1.1-.1.2-.1.3zM233 385.2h-.1.1zM221.9 403.2c0 .1 0 .1 0 0zM225.3 397.9v.2s.1-.1 0-.2zM217.8 408.8zM225.1 398.3c.1-.1.2-.1.2-.2-.1.1-.2.1-.2.2zM227.4 382.2c0 .1 0 .1 0 0zM227.2 382.5l.1-.2c-.1.1-.1.1-.1.2zM230.3 382.3c-.1-.1-.3-.4-.5-.3v.1c.1-.2.3.3.5.2zM227.2 395.9h.2l-.1-.2z"/></g><g fill="#f6eaea"><path d="M357.9 323.4c0 .3.2.4.5.3 0 .1-.1.1-.1.2.2-.1.5-.3.5-.6-.3.2-.2.1-.5.4-.1 0-.1-.2-.1-.3-.1 0-.2-.2-.3 0zM360 323.9h-.1c0 .1 0 .1.1 0zM349.1 321.2c0 .1.1.2.1.3 0-.2.3-.3-.1-.3zM360.1 324c-.1 0-.1 0 0 0-.1 0-.1 0-.1.1 0-.1 0-.1.1-.1zM346 342c-.1-.1-.1-.2-.2-.2v.1l.2.1zM334.7 327.1v.1c.1 0 .1 0 0-.1z"/><path d="M362.6 330.2c-.2 0-.1.1-.3.2-.1-.1-.2-.2-.2-.4.1.2.4 0 .5-.1h-.2c.4-.3-.5-.1-.2-.4h.1c-.1-.1-.2-.3-.2-.4.3-.1.1.1.4.1 0-.2-.5-.4-.3-.6.1.1.1.2.2.3.3-.3.2-.3.2-.5l.1-.4-.1.1c-.8-.1-.2-.6-.8-.8.6.2.3 0 .6-.1 0-.1.1-.3.2-.3-.3-.1.1-.4-.4-.5.1-.1-.1-.2.2-.3-.2-.2-.1.1-.2.2-.5-.1-.1-1-.9-1.2-.4-.2-.7-.1-1.1-.2l-.1-.1c.1-.2.3-.2.3-.2-.1-.3-.2-.4-.5-.4.1 0 .1-.1.1-.3-.2-.1-.3.2-.4 0 .1-.1.2-.2.4-.2h-.7c0-.2.2-.2.4-.2-.3-.1-.6-.2-.8 0l.1.2c-.1 0 .1-.2.2-.2.3-.1.2.2.2.3h-.2c-.2.6.5.2.8.4l-.3.2c-.5-.4-1.2-.7-1.9-1 .1-.1.1-.3.2-.4 0 0 0 .1.1.1l.2-.3h-.2c0-.2 0-.4-.1-.6l-.4.2v-.3l.3.1c-.1-.3-.2-.1-.4 0 0-.1 0-.2-.1-.3l-.4.3c0-.2.2-.3.1-.5-.2.2 0 .4-.3.5-.1-.2 0-.4-.2-.3 0-.1.1-.2.1-.2-.2.1-.4 0-.6.2-.1-.3-.6 0-.4-.5-.1.1-.4.3-.5.3.4-.5-.5-.1-.4-.7-.3.5-.8.1-1.2.3l.1-.1c-.2-.1-.2-.2-.4-.3-.1.4-.4.5-.6.7-.2-.4.2-.5.1-.8 0 .3-.5.3-.4.6-.2-.3-.2-.1-.2-.5-.1.5-.2.1-.4.4-.3-.3 0-.5-.4-.3-.1-.2.1-.3.1-.3-.3 0-.2.4-.2.6-.4.1-.2-.3-.3-.5-.2.1-.4.4-.6.4v-.2c-.2.3-.7 0-1 .4v-.1c.1.2.1.4.1.5-.1 0-.2.2-.3 0 .1 0 .1-.1.1-.2l-.1.1c-.1-.4.2-.1.2-.4-.3.1-.6.4-.8.4-.1-.3.5-.1.2-.4l.3.1c-.3-.5.2 0-.1-.6-.4-.1-.5.2-.9.1-.1.2.1.3 0 .5-.6.4-.6-.8-1-.3-.1.2-.1.7-.4.5l.1-.4c-.4 0-.2.6-.6.4.1-.2.3-.2.2-.2-.3-.3-.2.3-.4.3l-.1-.3c-.4.1-.9.5-1.4.6 0-.1.1-.2-.1-.3-.6.3-1.3.3-2 .2l-.1.4c-.1 0-.1-.1-.1-.2-.3 0 0 .2 0 .3-.1.1-.2-.1-.2-.2-.3.4-.9.9-1.5.8v-.1c-.4 0-.1.7-.5.6v-.1c-.7.2-1.3.8-2.1.8.1.4-.8.3-.4.8-.5 0-.5-.1-1.1.1-.2.1.1.5 0 .7l-.2-.2v.4l-.4-.1-.1.2c.1-.1.2 0 .3 0-.1.3-.7.5-.8.4 0 0-.1.2-.1.4 0 .1-.1.2 0 .2v.1l-.1-.1c0 .1-.3-.2-.1 0 .1 0 .1.1.2.2-.1-.1-.2-.1-.2-.1-.1.1-.3.2-.4.3l-.1-.2c-.2.1-.5.3-.7.6-.2.2-.4.5-.6.7.2-.1.5.2.4.4l-.3-.2c.1.2.2 0 .3.3-.2.1-.4-.1-.4-.3l-.1.3c-.1 0-.1-.1-.2-.2.1.2-.6.2-.4.6h-.1c-.4.5-.4.9-.6 1.5.3.1.1.3.3.5-.2.4-.5.8-.5 1.3.1.4.2.1.4.3-.3 0-.2.5-.4.3 0 .3.1.5.2.7s.2.4.4.7c.1-.1.1-.2.2-.2.1.1 0 .3-.1.3.2.2.2.3.3.6.1.2.1.4.1.7.1.5.2.9.6 1 0 0 .2.1.3.2.2.1.3.1.3.1.2.2-.3 0-.2.3.8.2.7.8 1.4.9-.1.5.3.7.6.8.4.2.8.3.9.7l.1-.2c.2-.1.1.2.2.3.1-.1-.1-.2.1-.3.6.2 1.1.5 1.7.8l.9.5c.3.1.6.3.9.4.4.2.5-.9.9-.3l-.2.3c1-.2 1.8.3 2.7.1-.1.1-.1.2-.2.2.2.3.7.1.7-.1.1 0 0 .2.1.3.2.2.5-.3.6 0l-.1.1c.1-.1.6.1.5-.2.3.1.6-.1.9.1.2-.3.6.1.6-.3 0 .5.6.4.8.1-.1.1.2.1.1.3.2 0 .5-.1.4-.4.5.5.8-.5 1.1.2.7-.3 1.3-.6 1.9-.8.1.5-.7.2-.6.6.6-.3.8-.7 1.4-.8.2 0 0 .2-.1.3.5-.3 1.1-.3 1.6-.6 0 0 0 .1-.1.2.1 0 .3 0 .2-.2l-.1.1c-.2-.2.2-.7.2-.9 0 .6.5 0 .5.8.1-.1.1-.2 0-.3.1 0 .2.1.1.3.3-.2.1-.4.4-.5v.3c.1-.2.2-.5.5-.5 0 .1.1.1 0 .2.4-.2.6-.8 1.1-.9.1.5.2 0 .4.4l.2-.2-.2-.1c.2-.1.3-.5.5-.5l-.1.2.4-.3h-.3c.1-.3-.3-.4.1-.5 0 .1.2-.1.4 0 0-.2.1-.3.3-.4.1.1.2.4.3.4-.1-.3.4-.4.3-.8 0 .1.1.3.2.3l-.1-.3c.1 0 .2 0 .3.2.3-.2-.4-.3.1-.4v.1c.4-.2.5-.7.9-.8.4.2-.2.3.1.4.4-.5.5-1.2.9-1.6l-.1.1c-.4-.4.5-.2.4-.5 0 .1.2.2.2.2.3-.3.3-.7.4-1.3l.1.1c.2-.1.3-.5.5-.7-.1-.1 0-.2-.3-.2.5-.2.5-.6.5-1s-.1-.7.3-1c0 .1.1.2.1.1-.4-.5-.5-1.1-.5-1.1zm-1.8-4.3c0-.1-.1-.1-.1-.2h.3c-.1 0-.2.1-.2.2zm-1-1.3c0 .1-.1.2-.1.3l-.2-.2c.1-.1.3-.1.3-.1zm-15.3-2.4s-.1 0-.1.1c0-.1 0-.1.1-.1zm-.5.1v.2c0-.1-.1-.1-.2-.2 0 .1.1.1.2 0zm17.8 9v-.2c.1 0 .2.1.2.2-.1.1-.1.1-.2 0z"/><path d="M335.9 325.6l.1.1v-.1zM362.4 327.3h-.1.1zM353 340.6s0 .1 0 0c-.1.2 0 .1 0 0zM357.4 337.9c0 .1 0 .1-.1.2.2-.1.2-.1.1-.2zM347.3 342zM357.4 338.1c-.1 0-.2 0-.2.1.1 0 .1-.1.2-.1zM359.1 323.3zM358.9 323.4h.2c-.1-.1-.2-.1-.2 0zM360.7 324.7c-.1-.1-.1-.4-.2-.4l-.1.1c.2-.2.1.3.3.3zM359.4 336.7h.2l-.1-.2zM256.9 330.6c.2 0 .5-.1.7-.3-.3.1-.3 0-.7.1-.1-.1 0-.2.1-.3-.1 0-.1-.2-.3-.1-.1.3 0 .4.3.4.1.2 0 .2-.1.2zM258.4 331.5s-.1 0-.1-.1c0 .1.1.1.1.1zM249.1 325.9c0 .1.1.2.1.3 0-.2.3-.3-.1-.3zM258.4 331.6h-.1c.1-.1.1-.1.1 0zM239.5 345.7c0-.1-.1-.2-.1-.2v.1l.1.1z"/><path d="M259.3 334.4c-.1-.2-.2.1-.3 0-.4-.3.4-.9-.2-1.4-.2-.4-.6-.4-.9-.6v-.1c.1-.1.3 0 .3 0 .1-.3 0-.4-.2-.5.1 0 .1-.1.2-.2-.1-.1-.4.1-.3-.2.1 0 .3-.1.4 0-.2-.1-.4-.2-.6-.4.1-.1.3 0 .4 0-.2-.2-.5-.4-.7-.3v.2c-.1-.1.2-.2.2-.1.3 0 .1.3 0 .4l-.1-.1c-.4.4.4.4.5.7l-.4.1c-.3-.6-.7-1.2-1.2-1.7.1-.1.3-.2.4-.3v.1l.3-.2-.2-.1c.1-.2.2-.3.1-.6h-.5l.1-.3.2.2c0-.3-.2-.2-.4-.2.1-.1.1-.2.1-.3l-.6.2c.1-.2.3-.2.2-.4-.3.1-.1.4-.4.4 0-.3.1-.4-.1-.4 0-.1.1-.2.2-.2-.2 0-.4-.2-.6 0 0-.3-.5-.2-.3-.6-.1.1-.4.2-.6.1.5-.4-.5-.3-.2-.8-.4.4-.8-.1-1.2.1l.1-.1c-.2-.1-.2-.3-.3-.4-.1.4-.5.4-.7.6-.1-.4.3-.4.3-.8-.1.3-.5.2-.5.5-.1-.3-.1-.2-.1-.5-.2.5-.2 0-.4.3-.2-.3 0-.5-.3-.4-.1-.2.2-.3.2-.3-.3-.1-.2.3-.3.5-.4 0-.1-.3-.2-.5-.2.1-.5.4-.6.3v-.2c-.3.3-.7-.1-1 .3v-.1.5c-.1 0-.3.2-.3 0 .1 0 .1-.1.1-.2l-.1.1c-.1-.4.2-.1.2-.4-.3.1-.6.4-.8.3 0-.4.5-.1.2-.4l.3.2c-.2-.6.2.1 0-.6-.4-.1-.5.2-.9 0-.1.2 0 .3-.1.5-.6.3-.5-.9-.9-.4-.1.2-.2.7-.5.5l.1-.4c-.4 0-.2.6-.7.3.1-.2.3-.1.3-.2-.3-.3-.2.2-.4.2l-.1-.3c-.4.1-.9.4-1.4.5 0-.1.1-.2 0-.3-.6.2-1.3.1-1.9 0l-.2.3c-.1 0-.1-.1-.1-.2-.2-.1 0 .2-.1.3-.1 0-.2-.1-.1-.2-.4.3-1 .8-1.5.5l.1-.1c-.4 0-.2.7-.6.5v-.1c-.7 0-1.4.5-2.1.3 0 .4-.7.1-.6.7-.5-.1-.4-.3-1-.2-.2 0-.1.4-.2.6l-.1-.3-.1.4-.3-.3-.1.2c.1 0 .2.1.2.1-.2.2-.7.1-.8 0 0 0-.1.1-.2.3-.1.2-.2.3-.2.3-.1-.1 0-.2.1-.3-.1.5-.2-.2-.4.2.1 0 .1.2.1.2-.3-.1-.6.2-.8.4l-.1-.2-.3.3-.2.2s-.1.1-.2.1l-.4.2c.2 0 .4.3.3.5l-.2-.3c0 .2.2 0 .2.4-.2.1-.3-.3-.3-.4l-.2.2c-.1-.1 0-.2-.1-.3 0 .2-.6 0-.5.4l-.1-.1c-.5.4-.7.7-1 1.1.2.2 0 .3.1.6-.3.2-.7.5-.9.9 0 .4.2.2.3.4-.2-.1-.4.3-.5 0-.2.5-.2.7-.1 1.4.1-.1.2-.1.3-.1 0 .1-.2.2-.3.2.1.4-.1.8-.3 1.2-.2.4-.3.8 0 1.1l.4.6c0 .3-.2-.1-.3.1.5.6.2 1.1.7 1.5-.2.4-.1.7.2 1.1.3.3.6.6.6 1l.1-.1c.2 0 0 .2.1.3.1-.1 0-.2.1-.2 1 .8 1.8 1.9 2.9 2.6.4.3.6-.7 1-.1l-.3.3c1 0 1.7.7 2.6.5-.1.1-.1.2-.2.1.1.3.6.2.7 0 .1.1 0 .2 0 .3.1.2.5-.2.6 0l-.1.1c.1-.1.5.1.5-.2.3.2.6 0 .8.2.2-.3.5.2.6-.2-.1.5.5.4.7.2-.1.1.2.2.1.4.2 0 .4 0 .4-.3.4.6.9-.4 1.1.3.7-.2 1.3-.4 1.9-.5 0 .5-.7.1-.6.5.6-.2.9-.6 1.5-.5.2.1-.1.2-.1.3.6-.2 1.1 0 1.6-.4 0 0 0 .1-.1.1.1 0 .2 0 .2-.2l-.1.1c-.2-.3.3-.7.3-.9-.1.6.5.1.4.9.1-.1.1-.2.1-.3.1 0 .1.1.1.3.3-.2.2-.4.5-.4v.3c.1-.2.2-.4.5-.4v.2c.5-.1.7-.7 1.2-.7 0 .5.2.1.3.5l.2-.2-.2-.1c.2-.1.4-.4.6-.4l-.1.2.4-.2-.3-.1c.2-.3-.2-.5.1-.5 0 .1.2-.1.4.1.1-.2.1-.3.3-.3.1.1.1.4.2.5 0-.3.5-.3.5-.7 0 .1.1.3.1.3v-.3c.1 0 .2.1.2.2.3-.1-.3-.4.1-.4v.1c.4-.1.6-.5 1-.6.3.3-.2.2 0 .5.4-.3.7-1 1.2-1.2h-.1c-.3-.5.5 0 .5-.4 0 .1.1.3.1.2.3-.2.5-.6.7-1.1l.1.1c.2-.1.5-.3.6-.5-.1-.1 0-.2-.2-.3.5 0 .7-.4.7-.7.1-.3.1-.7.6-.8v.2l.1-.5c-.2-.1-.2 0-.4 0-.1-.1-.1-.3-.1-.4 0 .3.3.2.5.1-.1 0-.1-.1-.2-.1.5-.1-.4-.2 0-.5l.1.1c0-.2-.1-.3 0-.5.3 0 .1.2.3.3.1-.2-.4-.6 0-.7 0 .1 0 .2.1.3.4-.1.3-.2.4-.3l.2-.3-.1.1c-.6-.4 0-.6-.4-1 .4.4.2.1.6.2.1-.1.2-.2.3-.2-.2-.2.2-.3-.1-.6.4.2.3 0 .6 0zm-1.3-2.5c0 .1-.1.1-.2.2 0-.1-.1-.2-.1-.2h.3zm-13.8 5.2zm0 0zm-.1 0zm.1-.1zm0 .1zm0 0s0-.1 0 0zm-.2 0zm.1 0zm.1-.1s0 .1 0 0c0 .1 0 .1 0 0zm0 .1zm.1 0zm0 0s0-.1 0 0c0-.1 0-.1 0 0 0-.1 0-.1 0 0 0-.1 0-.1 0 0zm-.2 0zm0 .1zm.1-.1s0 .1 0 0zm.3-10.7h-.1.1zm-.4.1v.2c0-.1-.1-.1-.2-.2h.2zm12.8 12.2l.1-.1c.1.1.1.1.1.3-.1-.1-.2-.1-.2-.2zm1.3-5.2v-.2c.1 0 .2 0 .3.1-.1 0-.2 0-.3.1zM236 328v.1-.1zM259 335.4h-.1.1zM246.4 345.5c-.1 0-.1 0 0 0z"/><path d="M251.1 343.6c0 .1-.1.1-.1.2.1 0 .1 0 .1-.2zM240.8 345.9h-.1zM251 343.8c-.1 0-.2 0-.2.1.1 0 .1 0 .2-.1zM257.9 330.5s0 .1 0 0zM257.7 330.5l.1.1c0-.1 0-.2-.1-.1zM258.7 332.4c0-.1.1-.3 0-.5h-.1c.2.1-.1.5.1.5zM253.1 342.9l.2.1v-.2z"/></g><g fill="#66454d"><path d="M250.3 334.2h-.1.1zM247.6 329.5c0 .1 0 .2-.1.3.1-.2.3-.2.1-.3zM250.3 334.3h-.1.1zM241.3 341.4v-.2l-.1.1.1.1z"/><path d="M250.6 335.6c-.1-.1-.2 0-.3 0-.3-.2.4-.4-.1-.6-.2-.2-.5-.2-.7-.3.1-.1.3 0 .3 0 .1-.1.1-.2 0-.3.1 0 .2 0 .3-.1 0-.1-.4 0-.3-.1h.4c-.1-.1-.3-.1-.4-.2.2-.1.3 0 .4 0-.1-.1-.2-.2-.5-.2l-.1.1s.2-.1.3-.1c.2 0-.1.2-.2.2h-.1c-.6.2.2.2.2.4h-.4l-.3-.9H249.4c-.2.2-.2.2 0 .2-.1 0-.2.1-.2.1.2 0 .5 0 .8-.2-.3 0-.2 0-.6.1-.1 0 .1-.1.2-.2-.1 0 0-.1-.1-.1.3 0 .6-.1.7-.3l-.3-.1.2-.1v.1c.2-.1 0-.1-.1-.2.1 0 .2-.1.2-.1l-.5-.1c.2-.1.4 0 .5-.2-.2 0-.4.2-.6.1.2-.1.4-.2.2-.2.1-.1.2-.1.3 0-.2 0-.1-.2-.4-.2.2-.2-.2-.2.2-.4-.1 0-.4 0-.5-.1.6-.1-.1-.3.4-.6-.5.2-.4-.2-.7-.2h.1c0-.1.1-.2.1-.3-.3.3-.5.2-.7.3.2-.4.4-.3.6-.6-.2.2-.4.1-.6.3.1-.2 0-.1.2-.4-.4.4-.1 0-.4.2.1-.3.3-.4.1-.4 0-.2.3-.2.3-.2-.1-.1-.3.2-.5.4-.2 0 .1-.3.2-.5-.2 0-.5.2-.5.2 0-.1 0-.1.1-.1-.3.2-.4-.2-.7.1v-.1c-.1.2-.1.4-.2.5-.1 0-.2.2-.1-.1l.1-.1-.1.1c.1-.4.1-.1.2-.3-.2 0-.4.3-.5.1.1-.3.3 0 .2-.4l.1.2c.1-.6.1.1.2-.5-.2-.2-.3.1-.6-.1-.1.2-.1.3-.2.5-.4.3-.1-.9-.4-.5-.1.2-.2.7-.3.4l.1-.4c-.2-.1-.2.6-.4.3 0-.2.2-.1.1-.2-.1-.3-.1.2-.2.2v-.4c-.2 0-.5.3-.5.4h-.1v-.3c0 .1-.2 0-.4 0-.2-.1-.3-.2-.5-.3l-.1.3s-.1-.1 0-.2c-.1-.1 0 .2-.1.3-.1 0-.1-.2-.1-.3-.2.3-.5.6-.8.3v-.1c-.2-.1-.1.6-.3.4v-.1c-.4-.1-.7.3-1.1 0 .1.4-.4-.1-.2.5-.3-.2-.3-.3-.6-.4-.1 0 .1.4 0 .5l-.1-.3v.4l-.3-.3-.1.1s.2.1.2.2c-.1.2-.5 0-.6-.1l-.1.5c-.1-.1-.1-.2-.1-.3.1.4-.3-.2-.2.1.1 0 .1.1.2.2-.2-.1-.4.1-.4.3l-.2-.2c-.2.2-.3.6-.4.9.1-.1.5.2.5.2l-.3-.1c.2.1.2 0 .3.2-.1.1-.4-.1-.4-.2v.2c-.1 0-.1-.1-.2-.2.2.1-.4.1-.1.3h-.1c-.1.3-.1.5-.1.7.3.1.2.2.4.3-.1.2-.3.1-.4.2.1.1.2.1.4.2-.2-.1-.3.1-.4-.1 0 .3-.1.3.1.7h.3c0 .1-.1.1-.3.1.3.4-.9.7-.4 1.1l.3.3c0 .1-.2-.1-.4 0 .4.3-.1.5.3.8-.8.3.2.7-.2 1.1l.2-.1c.2 0-.1.1-.1.2.1-.1.1-.1.2-.1.4.5.2 1.2.4 1.9.1.2.9-.4.7 0l-.3.1c.6.1.6.8 1.2.8-.1 0-.1.1-.2.1-.1.3.3.2.4.1 0 .1-.1.2-.1.3 0 .2.4-.1.3.1 0 0-.1 0-.1.1.1-.1.2.2.3-.1.1.2.3.1.4.3.2-.2.2.3.4-.1-.2.4.1.5.3.3-.1.1 0 .2-.1.3.1 0 .3 0 .3-.2 0 .6.6-.3.5.4.4-.2.8-.2 1.1-.3-.1.5-.4 0-.4.5.4-.1.6-.5.8-.4.1.1-.1.2-.1.3.3-.2.6.1.9-.2v.1c.1 0 .1.1.1-.2v.1c-.1-.3.1-.7.1-.8 0 .6.3.1.2.9 0 0 .1-.1 0-.3.1 0 .1.1.1.3.2-.1.1-.4.2-.4v.3c0-.2.1-.4.2-.4v.1c.2-.1.2-.6.5-.5.1.4.1.1.3.5l.1-.2-.1-.1c.1 0 .1-.3.2-.3v.2l.2-.2-.2-.1c0-.2-.2-.4 0-.4 0 0 .1 0 .3.1 0-.1 0-.3.1-.2.1.1.2.4.3.4-.1-.3.2-.2.1-.6 0 .1.1.2.2.3l-.1-.2c.1 0 .1.1.2.2.2-.1-.3-.4-.1-.3v.1c.2 0 .2-.4.4-.4.3.2-.1.2.2.4.2-.2.1-.7.3-.8h-.1c-.4-.4.3 0 .2-.2l.2.2c.2-.1.1-.4.1-.7l.1.1c.2 0 .2-.2.3-.3-.1-.1-.1-.1-.3-.2.9.1-.1-.7.6-.7l.1.1v-.3c-.2-.1-.1 0-.3 0l-.2-.2c.1.1.4.1.5.1-.1 0-.1-.1-.2-.1.4 0-.5-.2-.1-.2h.1c0-.1-.2-.2-.1-.2.3 0 .1.1.3.2 0-.1-.5-.3-.2-.3.1.1.1.1.1.2.3 0 .3-.1.3-.1l.2-.2h-.1c-.7-.2-.1-.3-.5-.5.4.2.3.1.6.1.1 0 .2-.1.3-.1-.2-.1.2-.1-.2-.3.1.1 0 0 .3 0zm-.8-1.1c-.1 0-.2.1-.3.1v-.1h.3zm-4.7-4.9zm-.1 0c0 .1 0 .2-.1.2 0-.1 0-.1-.1-.2h.2zm4.1 8c.1 0 .2 0 .2.1 0 0-.1-.1-.2-.1zm.5-2.4s0-.1 0 0c.1-.1.1-.1.2 0h-.2zM240.9 329.8v.1-.1zM250.3 336.1h-.1.1zM244.9 341.9c0 .1 0 0 0 0z"/><path d="M247.1 340.5v.2c.1 0 .1 0 0-.2zM241.9 341.7zM247 340.7h.1-.1zM250.2 333.7zM250.1 333.7zM250.3 334.7c0-.1.2-.2.1-.2h-.1c.2 0-.2.2 0 .2zM248.1 340.1l.2.1-.2-.2zM351.9 327.3c-.3.2-.2.1-.5.3-.1 0 0-.1.1-.2-.1.1 0-.1-.2 0-.1.2-.1.3.1.2 0 .1-.1.1-.2.2.3-.1.5-.3.7-.5zM352.4 327.7s-.1 0 0 0c-.1 0-.1 0 0 0zM347.9 325.1v.3c0-.3.2-.3 0-.3zM352.4 327.7c-.1 0-.1 0-.1.1l.1-.1zM347.8 337.9c0-.1-.1-.2-.1-.2v.1l.1.1z"/><path d="M353.6 331.7c-.1 0-.1-.1-.3-.1.8-.3-.4-.6.2-.9 0 0 .1.1.1 0l-.2-.2c-.2.1-.1.1-.3.1-.1 0-.3-.1-.3-.1.2.1.4-.1.5-.1h-.2c.4-.2-.5.1-.2-.1h.1c-.1 0-.3-.1-.2-.1.3-.1.1 0 .4 0 0-.1-.5 0-.3-.2.1 0 .1.1.2.1.3-.2.2-.2.2-.3l.1-.2-.1.1c-.7.1-.2-.2-.7-.2.5 0 .2-.1.5-.2.1-.1.1-.2.2-.2-.3 0 .1-.2-.3-.2.1 0 0-.1.2-.2-.1-.1-.1.1-.3.2-.4 0 .2-.6-.4-.5-.3-.1-.5.1-.8.1.1-.1.3-.2.3-.2.1-.2 0-.2-.2-.2.1 0 .1-.1.2-.2-.1 0-.3.2-.3 0 .1-.1.2-.2.4-.2-.1 0-.3.1-.5.1.1-.1.2-.1.3-.2-.1 0-.3-.1-.5.1v.1l.2-.2c.2-.1 0 .2 0 .2h-.1c-.4.5.2.1.3.2l-.3.2c-.2-.2-.4-.4-.7-.6.4-.3.8-.5.9-.9l-.3.1.1-.2.1.1c.1-.2-.1-.1-.2-.1.1-.1.1-.2.1-.2l-.4.2c.1-.2.3-.2.3-.4-.2.1-.2.4-.4.4.1-.2.2-.3 0-.3l.2-.2c-.2.1-.2-.1-.4.1.1-.3-.3-.1 0-.5-.1.1-.3.2-.4.2.4-.4-.2-.2.1-.7-.3.4-.5 0-.8.2l.1-.1c-.1-.1-.1-.2-.1-.3-.1.4-.3.4-.5.7 0-.4.2-.4.2-.8-.1.3-.3.3-.3.6 0-.3-.1-.1 0-.5-.1.5-.1.1-.2.4-.1-.3 0-.5-.1-.3-.1-.2.1-.3.1-.3-.2 0-.1.4-.2.6-.2.1 0-.3-.1-.5-.1.1-.2.4-.3.4v-.2c-.1.3-.4 0-.5.4v-.1.5c-.1 0-.1.2-.1 0 0 0 0-.1.1-.2l-.1.1c-.1-.4.1-.1.1-.4-.1.1-.3.4-.4.3 0-.3.2-.1.1-.4l.2.1c-.1-.6.1 0 0-.6-.2-.1-.2.2-.5.1v.5c-.2.4-.4-.8-.5-.3 0 .2.1.7-.1.5v-.4c-.2 0 0 .6-.3.4 0-.2.1-.2.1-.2-.2-.3 0 .2-.1.3l-.1-.3c-.2.1-.3.4-.5.6 0-.1 0-.2-.1-.3-.2.3-.6.2-1 .2l.1.3s-.1-.1-.1-.2c-.2 0 .1.2.1.3 0 .1-.2-.1-.2-.2v.5c-.1.1-.2.2-.4.1v-.1c-.2 0 .2.6-.1.5v-.1c-.4.1-.4.6-1 .6.3.3-.4.2.1.6-.4 0-.4-.1-.8.1-.1.1.3.3.3.4l-.3-.1.3.3-.4-.1v.1h.2c.1.2-.3.2-.5.2l.1.4c-.1 0-.1-.1-.2-.2.2.3-.3-.1-.1.2.1 0 .2.1.2.1-.2 0-.3.1-.2.3l-.2-.1c-.1.2 0 .6-.1.8.1-.1.5 0 .5.1h-.3c.2.1.1-.1.4.1-.1.1-.4 0-.5-.1l.1.1c-.1 0-.1 0-.3-.1.2.1-.4.2 0 .3h-.1c0 .3.1.5.1.7.3 0 .2.1.5.1-.1.2-.3.4-.2.6.2.1.3 0 .4 0-.3.1-.2.2-.4.2.1.2.1.3.4.5.1-.1.1-.1.2-.1s-.1.1-.2.2c.5.2-.5 1 .2 1.1l.4.1c0 .1-.2 0-.3.2.5 0 .2.5.6.5-.5.6.5.5.3 1l.1-.1c.2-.1 0 .1 0 .2.1-.1.1-.2.2-.2.6.2.8 1 1.3 1.5.2.2.5-.8.6-.3l-.2.3c.6-.2.9.3 1.4.1 0 .1-.1.2-.1.2 0 .3.3.1.4-.1.1 0 0 .2 0 .3.1.2.3-.3.3 0 0 0 0 .1-.1.1.1-.1.3.1.2-.2.2.1.3-.1.4.1.1-.3.3.1.3-.3 0 .5.3.4.4.1 0 .1.1.1.1.3.1 0 .2-.1.2-.4.3.5.3-.5.6.2.3-.3.5-.6.8-.8.2.4-.3.2-.1.6.2-.3.2-.7.5-.7.1 0 0 .2.1.3.2-.3.5-.2.6-.6v.1s.1 0 0-.2v.1c-.2-.2-.2-.6-.3-.8.3.6.3 0 .6.7 0-.1 0-.2-.1-.3.1 0 .1.1.2.2.1-.2-.1-.3 0-.4.1.1.1.1.1.2-.1-.2-.1-.4 0-.4 0 .1.1.1.1.1.2-.2-.1-.6.2-.7.3.4.2 0 .5.3v-.2l-.2-.1c.1-.1-.1-.3.1-.3l.1.2.1-.2h-.2c-.1-.2-.4-.3-.2-.3 0 0 .1-.1.3 0-.1-.1-.1-.2 0-.2.1.1.3.3.4.3-.2-.2.1-.3-.2-.5.1.1.2.2.3.2l-.2-.2c.1 0 .1 0 .3.1.1-.1-.5-.2-.2-.3 0 0 .1 0 .1.1.2-.1 0-.4.2-.5.4.1 0 .2.4.3.1-.3-.2-.7-.1-.9h-.1c-.5-.2.3-.1.1-.3 0 0 .3.1.2.1.1-.2-.1-.4-.2-.6h.1v-.6zm-1.2-3l-.2.2v-.1s.1-.1.2-.1zm-.4-.5c0 .1-.1.1-.2.2 0 0 0-.1-.1-.1l.3-.1zm-6.3-2.3c0 .1 0 .1 0 0 0 .1 0 .1 0 0zm-.2.2c.1.1.1.2.1.2 0-.1-.1-.1-.2-.2h.1zm7.4 5c.1-.1.2-.1.2 0h-.2zM342.2 328.5v-.1zM353.3 329.3h-.1.1z"/><path d="M351.1 336.6s-.1 0 0 0c-.1.1 0 .1 0 0zM352.4 334.5c0 .1.1.1.1.1l-.1-.1zM348.5 337.9zM352.4 334.7s.1 0 0 0zM352.1 327.3zM352 327.4c0-.1 0-.1 0 0zM352.6 328.1c0-.1.1-.2 0-.3h-.1c.2 0-.1.4.1.3zM353.1 333.8h.2l-.2-.1zM310.8 356.4c.2.1.5.2.8.1-.3-.1-.2-.1-.6-.2 0-.1.1-.2.2-.2-.1 0 .1-.2-.2-.2-.2.2-.2.3 0 .5h-.2zM311.6 357.8s0-.1-.1-.1c.1 0 .1 0 .1.1zM307.1 348.9c0 .1 0 .2-.1.3.1-.2.4-.2.1-.3z"/><path d="M311.6 357.8c0-.1-.1-.1-.1-.1 0 .1.1.1.1.1zM293.7 367.9v-.2h-.1l.1.2zM311.7 354.8l.1.3c.2-.2 0-.2-.2-.3.1-.1.2-.1.2-.2l-.5-.2c.2-.1.4 0 .4-.2-.2-.1-.4.3-.6.1.2-.2.3-.2.1-.3.1-.1.2-.1.3 0-.2-.1-.2-.4-.5-.3.2-.3-.3-.4.1-.6-.1 0-.4-.1-.5-.2.6 0-.2-.5.3-.7-.5.1-.6-.5-1-.6h.1c-.1-.2 0-.3 0-.5-.3.2-.6.1-.9.1.1-.4.4-.2.7-.5-.2.2-.5-.1-.7.2 0-.3 0-.2.1-.5-.4.3-.2-.1-.5.1 0-.4.3-.4-.1-.5 0-.2.3-.2.3-.2-.2-.2-.3.2-.5.3-.3-.1.1-.3.1-.5-.2-.1-.6.1-.7 0 0-.1 0-.1.1-.1-.4.1-.6-.4-1-.2v-.1c-.1.2-.2.4-.2.5-.1-.1-.3.1-.2-.1.1 0 .1 0 .2-.1h-.2c.1-.4.2 0 .3-.3-.3 0-.7.1-.8-.1.1-.3.5.1.4-.3l.2.3c.1-.6.1.1.2-.5-.3-.3-.5 0-.8-.3-.2.1-.1.3-.2.4-.6.1-.1-1-.7-.7-.2.2-.3.6-.6.3l.2-.4c-.4-.1-.4.5-.7.1.1-.1.3-.1.3-.1-.2-.4-.2.2-.4.1v-.4c-.4 0-.9.1-1.4.2 0-.1.1-.2 0-.3-.6.1-1.3-.1-1.8-.3l-.2.3c-.1 0-.1-.1-.1-.2-.2-.1 0 .2-.1.3-.1 0-.2-.2-.1-.3-.4.3-1 .7-1.4.5l.1-.1c-.3-.1-.2.7-.5.5v-.1c-.7 0-1.3.5-1.9.3.1.4-.7.1-.5.6-.5-.1-.4-.3-1-.2-.1 0 0 .4-.2.6l-.1-.3-.1.4-.3-.3-.1.1c.1 0 .2.1.2.1-.2.2-.7.1-.7 0l-.4.5c-.1-.1 0-.2 0-.3-.1.4-.2-.3-.3.1.1 0 .1.2.1.2-.2-.1-.5.1-.7.3l-.1-.2c-.4.2-.7.6-1.1.9.2 0 .4.3.3.4l-.3-.2c.1.2.2 0 .2.3-.2.1-.3-.2-.3-.4l-.1.2c-.1-.1-.1-.1-.1-.3.1.2-.5 0-.4.4l-.1-.1c-.4.4-.5.6-.8.9.2.2 0 .3.1.5-.3.2-.7.3-.9.6-.1.3.1.2.2.4-.2-.2-.4.2-.5-.1-.2.4-.3.5-.4 1.2.1 0 .2-.1.3 0 0 .1-.2.2-.3.1 0 .4-.3.7-.6 1-.3.3-.5.7-.2 1.1 0 0 .1.2.1.3.1.1.1.3.1.3-.1.3-.2-.2-.4 0 .2.3.3.6.3.8 0 .2 0 .5.2.7-.3.3-.2.7 0 1s.4.6.3 1l.2-.1c.2 0 0 .2 0 .3.1-.1.1-.2.2-.2.7.9 1 2 1.6 3 .2.3.9-.5.9.2l-.3.1c.8.3 1.1 1.2 1.8 1.5-.1 0-.2.1-.2 0-.1.3.4.4.5.3.1.1-.1.1-.1.3 0 .2.5 0 .4.3h-.1c.2 0 .3.4.4.1.1.3.5.3.5.5.3-.1.2.4.6.1-.3.3.1.6.3.6-.1.1 0 .2-.2.3.1.1.3.2.5 0-.1.3.1.3.3.4.2.1.4.2.2.5.8.3 1.5.5 2.2.6-.1.5-.8-.2-.9.3.8.1 1.2-.2 1.8-.1.2.1-.1.2-.2.3.3-.1.6-.1.9-.2h.1s.1 0 .1-.1h.1v.1s0 .1.1-.1c0-.2 0-.3.1-.4l.3-.3c-.1.3-.1.3 0 .4s.2.2-.1.5c.1 0 .2-.1.2-.2.1.1.1.2-.1.3.4 0 .3-.2.7-.2 0 .1-.1.1-.2.2.2-.2.4-.3.7-.2 0 .1 0 .1-.1.1.5 0 .8-.5 1.4-.5 0 .5.2.1.4.4l.3-.2-.2-.1c.3-.1.3-.5.6-.5l-.1.2.4-.3h-.3c.1-.3-.3-.4 0-.5 0 .1.2-.1.4-.1 0-.2 0-.3.2-.4.1 0 .3.3.4.3-.2-.3.2-.4.1-.8 0 .1.2.2.2.2l-.1-.2c.1 0 .2 0 .3.1.2-.2-.4-.2 0-.4v.1c.3-.2.3-.6.6-.8.4.2-.1.3.2.4.3-.4.3-1 .7-1.3h-.1c-.4-.4.4-.1.4-.4 0 .1.2.3.1.2.3-.2.3-.6.5-1.1l.1.1c.2-.1.4-.3.5-.4-.1-.1 0-.2-.2-.3 1 0 .4-1.2 1.2-1.2v.2l.2-.5c-.2-.1-.2 0-.4-.1-.1-.1-.1-.3 0-.4 0 .3.3.2.5.2-.1 0-.1-.1-.2-.1.5 0-.4-.3 0-.4l.1.1c0-.1-.1-.3 0-.4.3.1 0 .2.2.3.1-.2-.3-.6.1-.6v.3c.4 0 .3-.1.4-.2l.3-.2h-.1c-.5-.5.1-.5-.2-1 .3.5.2.2.5.3.1 0 .3-.1.3 0-.2-.2.3-.2 0-.5.1 0 .1-.2.3 0 0-.2-.2 0-.3-.1-.2-.4.7-.6.3-1.2-.1-.4-.3-.6-.5-.9v-.1c.2 0 .3.2.3.2.2-.2.2-.3.1-.5h.3c0-.2-.3-.1-.2-.3.1 0 .3.1.4.2-.1-.2-.3-.4-.4-.6.2 0 .3.1.4.2-.1-.2-.1-.6-.4-.6l-.1.1c0-.1.2 0 .3 0 .2.2-.1.3-.2.3l-.1-.1c-.6.1.1.5 0 .8l-.3-.1c.1-.6 0-1.2-.1-1.9.2 0 .3 0 .5-.1 0 0-.1.1 0 .1h.3l-.1-.1c.2-.1.4-.2.5-.4l-.4-.2.3.4zm-9.1-6.8h0zm-.3 0c0 .1 0 .2-.1.2 0-.1-.1-.1-.2-.2.2-.1.2 0 .3 0zm5.8 15.6l.1-.1c.1.1.1.2.1.3 0-.1-.1-.2-.2-.2zm2.6-4.4h-.3v-.2c.2 0 .2.1.3.2zm.3-1.3h-.3v-.2l.3.2zM294.8 349.2h.1zM310.6 361l-.1-.1.1.1zM299.6 370.4z"/><path d="M304 369.1v.2c.1 0 .2-.1 0-.2zM294.5 368.7h-.1zM303.8 369.5c.1 0 .2-.1.2-.2l-.2.2zM311.7 356.8zM311.6 356.6l.1.1c-.1 0-.1-.1-.1-.1zM311.4 358.6c0-.1.3-.2.2-.4h-.1c.2.1-.2.3-.1.4zM305.5 367.9h.2l-.2-.2z"/></g><g><g fill="#a5937a"><path d="M572.4 189.7c.1.3-.2.3-.3.3.8.2 1.9.3 1.9-.5-1 0-1-.3-2.2-.2-.6-.3-.8-.9-.6-1-.3 0-.8-.7-1.3-.5.4.9 1.3 1.5 2.5 1.9zM579.9 194.9c-.2-.1-.4-.2-.5-.3.1.1.3.2.5.3-.1.1-.1 0 0 0zM554.2 179.2v.1c.1 0 .1-.1 0-.1zM580 195.2l.4.4-.4-.4zM518.9 188c.3 0 .6 0 .8.1-.4-.2 1-1.3-.8-.1zM579.6 195.2c.2 0 .3 0 .4.1l-.3-.3s-.1.1-.1.2zM563.3 231.6l-.4-1.8c.1.5.3 1.2.4 1.8zM495.4 266.1c0 .2 0 .3.1.4l-.1-.4zM561.2 224.2c0 .3.1.6.1.6.1-.4.1-.7 0-1.1-.1-.1-.1-.1-.2-.1 0 0 .1.3.1.6zM558 217.3c0 .1.1.1.2.2l-.2-.2zM496 272.5c0-.1-.1-.2-.2-.4.1.1.1.3.2.4z"/><path d="M600.1 275.8c-.1 0-.2.1-.2-.1s.1-.5.3-1.2c0 .2.1.1.2.6.1-.3.1-.6.1-.9-.1-2.2-.6-4.2-.6-6.2.7-.7.3 1.9.9 1.1-.4-3.2-1.4-6.6-1.4-9.7v.6c-1.1-.3.4-2.4-.3-3.9.1.4.7.5.5.4 0-2.2-.6-4.3-1.3-7.5l.3.4c.1-1.3-.2-3.3-.3-4.7-.3-.4-.4-1.1-.7-.6 1-4.4-2-7.8-1.4-11.7.1.4.4 1 .4.7 0 0-.2-.8-.4-1.5-.2-.8-.5-1.5-.5-1.5-.4.3-.2.5-.4 1.2-.4-.3-.8-1.2-.9-1.9.6 1.3.8-.2.9-.8-.1.1-.3 0-.5 0 .4-1.8-1-.1-1-2.4l.3.1c-.3-.8-.9-1.5-1-2.4.4-.5.5.8.9.7-.3-1.3-1.7-2.2-1.5-3.4.3.5.5 1.2.8 1.7.3-1.4.1-1.5-.1-2.4v.1l-.4-2.2v.6c-.9-.5-1.3-1.3-1.6-2.1s-.6-1.8-1.4-2.6c1.6 1.6.6.1 1.3 0-.1-.6-.2-1.4.1-1.3-.9-.8-.3-1.8-1.6-2.8.2-.1-.4-1 .1-1-.7-1.2-.2.4-.5.4-.7-.8-1.1-2-1.6-3.2s-1.1-2.6-2.3-3.6c-.4-.5-.8-.9-1.2-1.2s-.7-.5-1-.7c-.5-.4-1.1-.8-1.7-1.3-.1-.2-.3-.3-.4-.5 0-.5 1 .2 1 .2-.6-1.2-1.2-2-2.2-2.7.3.1.2-.2.2-.7-.7-.7-1 0-1.6-1.2.3 0 .8 0 1.3.2-.9-.8-2.1-1.3-3-2 0-.5.9.1 1.4.3-1.1-.9-2.8-2.2-3.5-2l.4.5c0-.2.3-.3.6-.2 1.2.4 1.1 1.2 1 1.4l-.4-.2-.4-.2c-.1.7.6 1.3 1.4 1.8.8.5 1.8 1.1 2.3 1.7h-.9c-2.9-3.1-6.1-5.9-9.9-8.2-.1 0-.1-.1-.2-.1.2-.2.5-.4.7-.7.1.1.2.2.4.3l.8-.3-1-.4c.1-.4-.2-1-1.1-1.9l-1-.2-1-.2-.4-.7 1.5.7c-.6-.8-1.4-.7-2.1-.8 0-.3-.2-.6-.5-.8l-2.1.1c-.1-.4 1.1-.4 0-1.1-1 .1.5 1.1-1 .8-.7-.7-.4-1-1.5-1-.1-.3.2-.4.7-.3-1-.1-2.5-.7-3.2-.3-.8-.8-3.3-.6-3-1.5-.3.1-1.8.4-2.7.4.9-.4 0-.6-1-.7-1-.1-2.2-.2-1.9-.8-.6.4-1.8.6-3 .6-1.2.1-2.6.1-3.6.6.1-.1.3-.3.5-.2-1.2.1-1.6-.2-2.4-.3 0 .8-1.9 1.3-2.8 2-1.6-.4.7-1.1.1-1.8.2.6-2.4 1.2-1.8 1.7-1.2-.2-1 0-1.8-.5.1 1-1 .5-1.7 1.4-1.7.1-.7-.8-2.3.2-.9 0 .5-.9.5-.9-1.8.6-.5 1-.8 1.6-1.9 1.1-1.2-.1-2-.2-1.2.8-1.8 1.9-2.7 2.3-.1-.1-.3 0-.2-.3-1 1.2-3.8 2.2-4.7 3.8h-.3c.4.2.7.5.8.7-.7.5-.9 1.2-1.5 1 .4-.3.3-.5.4-.7l-.6.7c-1-.1.8-.9.5-1.3-.6.6-1.2 1.3-1.8 1.9-.6.6-1.1 1.2-1.7 1.6-.3-.2.2-.7.6-1.1.4-.4.7-.7-.2-.4l1.7-1c-1.9.1 1-.7-.8-.8-1.1.7-1.6 1.3-2.1 1.8-.5.6-1 1.1-2 1.9-.2.7.5.3.4 1-1.1 1.5-1.9 1.8-2.6 1.9-.7.2-1.4.3-1.9 1.6-.1.9.4 1.6-1.1 2.8l-.2-1c-1.6 2 .1 1.8-1.9 3.7 0-.6.9-1.8.6-1.5-1.5 1.1-.3 1.2-1 2.4l-.7-.1c-1.4 2.4-2.3 5.3-3.3 8.1-.1-.2-.1-.8-.6-.2-1.1 3.7-2.6 7.6-3.9 11l.3 1.5c-.1.3-.4.5-.4.2-.5 1.3.4.1.5.9-.1.8-.6 1-.6.4 0 1.3 0 3-.1 4.8s-.4 3.5-.8 4.8l-.1-.5c-.4 2 1 2.4.3 4.2l-.1-.4c-.6 4.3-.2 9.1-1 12.4.9.6-.3 4.3.9 4.5-.5 2.5-.8 1.8-1 5.3 0 .9.9 1.3 1.1 2.5l-.6.1.8 1.5-.7.9.3 1.1c0-.4.2-.9.4-.9.4 1.6 0 4.1-.4 4.2l1 3.9c-.2 0-.3-.4-.5-.8.2.7.1.8 0 .8s-.2.1-.2.2c0 .2 0 .3.3 1.1.1-.4.4.1.6.2 0 .7.4 2 1.3 3.1.9 1 2.3 1.7 3.5 1.9 0 0-.1.1-.3.2-.1.1-.3.1-.3.1.7.2 1.5.4 2.3.4h1.3l.5.2c.6.3 1.2.5 1.9.7 1.3.3 2.7.5 4.1.5-1.5-.2-1-1 0-1 0 0 .1.2.2.3.1.2.2.3.2.3.7-.5-1.2-.2.3-.8 1.4-.1 1.1.6.2 1 0 0 .5-.1.9-.2.2-.1.4-.1.6-.2.2-.1.3-.1.3-.1.2.2-.2.4-.3.7.3-.3 1.2-.3 2-.5.9-.2 1.7-.5 2-1.1l.2.1c1.8-1.1 2.8-2.2 3.7-3.3.4-.5.8-1.1 1.1-1.7.2-.3.4-.6.5-.9.2-.3.3-.7.5-1-.3-.2-.2-.5-.1-.9s.2-1 .1-1.4c.9-2 1.7-4.3 1.8-6.9-.2-1.8-.5-.5-.8-1.3.6-.1.5-2.6.9-1.3-.1-3-.2-3.8-.9-7.3-.2.4-.3.8-.5.6-.1-.6.1-1.5.4-1.4l.1.2c-.3-1-.3-2-.3-3.1.1-1.1.2-2.3.4-3.4.3-2.2.6-4.3 0-5.9l.1.2-.6-3.3c.1-1.5.4.9.7-.2-.8-3.5.3-5.5-.1-8.4.9-1 1.1-3 1.3-5s.6-4.1 1.5-5.3h-.4c-.1-.8.5-.8.7-1.3-.3 0-.6.6-.6.1.8-3 2.5-5.9 4.8-7.7 2.3-1.9 5.1-2.7 8-2.9 1-.1 1.3-.5 1.7-.9s.9-.7 2.3-.2c0 0-.2.2-.4.3-.2.2-.4.3-.4.3 2.2-.3 4.5.2 6.5 1.2s3.7 2.4 5.4 3.9c-.3-.1-.5 0-.7-.3.3 1 2.2 2.7 2.5 2.5.4.6-.2.3-.1.8s.6.9 1 1.3.7.8.6 1.2c0 .1-.1 0-.2-.1.5.7 1.2 2.4 1.4 1.7.5 1.7 1.6 3 1.8 4.5.9.7.7 3 1.7 3-.9.1.2 3.3.9 4.3-.4-.3 0 1.1-.5.7.3 1.3.8 2.4 1.2 2.1-.5 2.6 1.9 4.7.8 6.3 1.2 3.8 2.3 7.5 3.2 11-.9.1-.9-3.9-1.8-3.6 1 3.3 2.2 5.1 2.7 8.5 0 .9-.5-.4-.7-.7 1 3.3 1.3 6.6 2.2 9.4-.1 0-.2-.3-.3-.6.1.6.1 1.4.5 1.3l-.2-.6c.5-1 1.6 2.2 2 2.2-1.4-.8.2 3.1-1.6 1.7.2.4.4.9.7.7 0 .6-.1.8-.5.3.7 2.2.9 1.3 1.5 3.3-.2.1-.4-.3-.7-.5.3.5.7.9 1 1.5.4.6.6 1.2 1.1 2-.1 0-.2.2-.4-.1.4.7.8 1.3 1.4 1.7.3.2.6.5.9.7l1 .6c1.3.6 2.6 1.1 4.2 1.7-.6.3-.3.5.1.6.4.1 1 .3 1 .7H584.1c.5 0 .9-.1.9-.1l-.7-.4c1.6.2 2.9-.5 4.3-.3l-1.1.4 1.4-.2 1.4-.2-1.6-.1c1.5-.6-.3-.9 1.7-1-.4.1 1.5-.2 2.3.1.7-.4 1.4-.8 2.5-.8.3.2 0 .9.2 1 .1-.2.4-.3.8-.5.2-.1.4-.1.6-.2.2-.1.4-.1.7-.2 1.2-.4 2-1.3 2-1.9-.1.4.1.7.3.6l.1-.9c.6-.6.7-.7.9-.4.3-.6.3-.9.3-1-.7-.6-.8-.5-1-.5zm-3.9-38.8c-.1.1-.3.1-.5.1-.1-.4-.1-.8-.2-1.1.2 0 .4.3.7 1zm-11.1-32.9l-.2.7c-.2-.4-.5-.8-.7-1.2.2 0 .4.1.9.5zm-5.3-7.5c0 .3 0 .5-.2.6-.4-.4-.7-.8-1.1-1.2l1.3.6zm-78 14c-.1.2-.1.4-.3.8.1-.3.2-.6.3-.8zm-1 2.7c.2 0 .4.1.3.5-.1-.2-.4.5-.8 1 .1-.4.3-.9.5-1.5z"/><path d="M574 276c0-.1-.1-.1-.1-.2 0 .1 0 .2.1.2zM574.5 191.4c0 .1 0 .1.1.2l-.1-.2zM494.9 262.7h.2l-.2-.3zM595.1 228.3s.1-.1.1-.3c-.1 0-.1.1-.1.3zM593 220.2l-.2-1.2c.1.5.2.9.2 1.2zM591.2 214.1h-.3.3zM570.6 264.1c0-.1 0-.2-.1-.2-.2-.5-.1-.2.1.2zM592.1 280.1c-.3.2-.6.3-.9.4.5 0 1-.1.9-.4zM563.3 231.8v-.2.2zM591.2 280.6c-.4 0-1 0-1.4.2.5 0 1-.1 1.4-.2zM575.5 190.6s-.1 0 0 0l.2.2-.2-.2zM575.1 190.4c.1.1.2.2.3.2l-.3-.2z"/><path d="M574.5 190.1l.7.4c-.3-.2-.5-.4-.7-.4zM581.5 197.2l.2-.1s-.1.1-.2.1zM583.2 199.2c-.3-.5-.6-1.5-1.2-2.1h-.2c.5.2.8 1.9 1.4 2.1zM600.5 271.1l.3-.9-.5-.3z"/></g><g fill="#b1d07a"><path d="M633.5 398c-.1-.9.2-1.5.4-1.4-.2-.3.1-1.4-.4-1.8-.5 1.2-.4 2.6.1 4.1-.1.3-.3 0-.5-.1.3 1 .9 2.2 1.5 1.6-.6-1.1-.3-1.3-1.1-2.4zM632.7 411c.1-.3.2-.6.2-.8-.1.2-.2.5-.2.8-.1 0-.1 0 0 0zM633.9 372.1c-.1.1 0 .1 0 0zM632.4 411.5c-.1.2-.2.5-.4.7.2-.3.3-.6.4-.7zM630 325.7c-.1.3-.3.6-.5.7.5-.2.8 2 .5-.7zM632.4 410.9c.1.1.1.3 0 .6.1-.2.1-.4.2-.5-.1-.1-.1-.2-.2-.1zM466.5 368.2v-2.4c-.1.6-.1 1.5 0 2.4zM569.1 259.4h.6-.6zM466.1 358.5c.2-.4.3-.9.3-1.4 0-.1-.1-.2-.2-.3l-.1 1.7zM489.3 417.4h-.3.3z"/><path d="M633.6 402.2c0 .1-.1.2-.1.3.1-.2.5.1.5.5.3 1.6-.5 2.2-.7 2.3v-1.1c-.7.5-.8 1.6-.9 2.9-.1 1.3-.3 2.7-.8 3.8l-.2-.6c0-.1-.1-.3-.1-.4 2.1-5.1 1.8-11.3 1.4-16.8v-.2c.3.1.7.2 1 .2 0 .1-.1.4 0 .7l.7.6-.3-1.3c.4-.2.7-.9.9-2.5l-.8-2.4.4-.8.2 2.1c.3-1.2-.1-1.9-.4-2.7.2-.2.4-.6.4-1.1l-1.1-2.3c.4-.3.8 1 .9-.6-.5-1.1-.8 1.1-1.2-.7.3-1.2.7-.9.3-2.2.2-.2.4.1.6.6-.4-1.2-.4-3.2-.9-3.8.4-1.3-.5-4.1.5-4.1-.2-.4-.9-2.1-1-3.2 1.2 2-.3-4.2 1-3.8-1.1-1.5-.9-5.5-1.6-8.2.1.1.3.4.2.7 0-1.5.2-2 .3-3-.8-.1-1.2-2.5-1.8-3.7.6-1.9 1 1.1 1.7.4-.6.1-.9-3.2-1.4-2.5.4-1.5.1-1.2.8-2-1-.2-.3-1.3-1-2.5.3-2.1.9-.6.4-2.9.2-1.1.7.9.7.9-.2-2.3-.8-1-1.3-1.5-.4-2.7.5-1.3.8-2.3-.3-1.7-1.1-3-1.2-4.3.1-.1.1-.4.3-.1-.7-1.8-.4-5.4-1.4-7.5.1-.2.1-.2.2-.3-.4.4-.7.5-1 .4-.1-1-.6-1.9-.2-2.3 0 .6.2.7.4 1l-.3-1.1c.6-1 .4 1.5.9 1.4-.4-2.1-1.2-4.5-1.1-6.2.7-.4.5 3.8 1 1.6l-.1 2.5c1-2 0 1.5 1.1-.3 0-3.3-.6-3.7-.7-7-.4-.7-.6.3-1-.4-1.1-4.6 1.5-3.8.3-7.2-.5-.9-1.4-1.1-1.2-3.6l.9.8c-.2-3.2-1.3-1.7-1-5.1.4.6.5 2.5.5 2 .5-2.2-.6-1.5-.7-3.2l.7-.4c-.2-1.7-.5-3.5-.8-5.3-.1-.9-.3-1.8-.4-2.8-.1-.9-.2-1.8-.3-2.8.2.2.5.8.6-.1-.6-4.7-.2-10.4-1.8-15.5 0 0-.3-.4-.7-.8-.3-.4-.7-.8-.7-.8-.2-.4-.2-.9.2-.5-.9-1.9-.4.1-1.1-.6-.7-.9-.6-1.5 0-1-1.3-1.4-3.3-3.2-5.8-4.3-2.4-1.1-4.9-1.5-6.5-2.1l.7-.1c-2.7-.7-3.1.9-5.5.1l.5-.1c-5.6-.8-11.9-.8-16.1-2.1-.9.8-5.6-.8-6 .4-3.2-.8-2.2-1-6.8-1.7-1.2-.1-1.8.7-3.4.7v-.6l-2.1.6-1-.8-1.4.1c.6.1 1.2.3 1.1.5-2.2.2-5.3-.7-5.4-1l-5.2.4c.1-.2.6-.3 1.2-.4-1.9.3-.1-.7-2.5-.3.3.2-.2.4-.3.5-1.3-.4-4.1-.5-6.3-.4l.4-.4c-3.9-.2-8.1.1-12.5.1 1.6.2 1.2 1-.1 1l-.5-.7c-.8.4 1.3.3-.4.8-1.6-.1-1.1-.8-.2-1l-2 .2c-.1-.2.3-.3.5-.6-.8.4-3.4-.7-4.6.1l-.1-.2c-4.3 0-6.3.3-9.8.4-.1.6-1.4.5-2.5 1-2.6-.1-5.5-.5-8.6-.3-2.2.4-.6.5-1.6.9-.2-.5-3.3-.3-1.7-.8-3.8.3-4.8.3-9.5 1.2.5.2 1.1.2.8.4-.9.2-2 0-1.9-.3l.2-.1c-2.6.7-5.7.7-8.8.8-3 .2-5.8.5-7.8 1.5l.2-.1s-1.1.4-2.1.8c-1.1.4-2.1.9-2.1.9-2 .5 1.1-.8-.5-.6-2.2 1.1-4.1 1.9-5.8 2.6-1.7.7-3.4 1.6-4.9 3.2-.4.1-.9.4-1.4.7-.5.4-1 .8-1.5 1.4s-.9 1.2-1.4 2c-.2.4-.4.8-.5 1.2l-.3.6-.2.6c-.5 1.7-.6 3.5-.6 5s.1 2.9 0 4l.3-.3c.5 1.1 0 1.4.1 2.2.3-.2.1-1.2.4-.6.5 2.4 1.2 4.6 1.6 6.9.2 1.1.4 2.3.5 3.5l.2 1.8.1.9.1.4v.2c0 2.2-.1 4.4-.1 6.5 0 2.2-.1 4.5-.1 6.7 0 3.3 2 1.8 1.3 6.1l-.7-1.2c1.1 6.7.5 13.8 1.5 20.3-.2-.4-.4-.4-.4-1-.4 1.4.2 5.1.6 5.2 0 1-.4.3-.5.9-.2 1.4.8 3.5.3 4.2 0 .1-.1-.1-.2-.3.2 1.2.1 3.8.6 3-.2 2.5.4 4.7.2 6.7.7 1.3-.1 4.2.8 4.6-.9-.1-.6 4.4-.1 5.9-.3-.5-.2 1.4-.7.8.1 1.8.3 3.4.8 3.1-1 3.3 1.2 6.6-.2 8.5.7 5.3 1.3 10.2 1.7 14.9-.9-.1-.3-5.3-1.3-5 .3 2.3.7 4 .9 5.8.3 1.8.5 3.5.6 5.9 0 1.2-.5-.6-.7-1 .4 2.3.7 4.7 1.5 7s2.3 4.5 4.2 5.8c-.1.1-.5-.2-.9-.5.7.7 1.6 1.5 1.8 1.1l-.8-.5c-.4-.7.6-.3 1.6.1.5.2 1.1.3 1.5.5.4.1.8.1.8.1-.9.2 0 .8.9 1.2.9.4 1.7.8.3 1.2.6.1 1.3.1 1.3-.2.8.3 1 .5.1.6 1.6.3 2.1.1 2.5.1.5-.1.9-.1 2.2 0 0 .2-.6.2-.9.4 1.4-.2 2.8-.6 5-.4-.1.1 0 .2-.3.3 3.7-.1 6.2-1.1 10.2-.6-1.2.8 1.4.3 1.6 1.1l2.2-.2-.9-.4c1.9.1 3.7-.4 5.3-.1l-1.4.3h3.6l-2-.4c2-.3-.2-1 2.4-.7-.5.1 1.9.1 2.9.6 1-.2 2-.4 3.4-.2.4.3-.3.8-.1 1 1-.6 4.5 0 5.7-.7-.4.1-.4.6-.3.6l.8-.5c.9.2 1 .3.9.6 2.7.2-.8-1 2.4-.5-.3 0-.1.1-.7.2 3.2.3 6.2-.1 9.1.2.8.8-2.6.1-1.6.8 4.2 0 8.8-.6 12.9-.3l-.8-.1c.6-1.1 3 .7 5.1.2-.5.1-.7.6-.5.5 2.8.3 5.8-.1 10-.3l-.5.3c1.6.3 4.4.3 6.1.5.5-.3 1.6-.2 1-.6 5.5 1.8 10.6-.5 15.4 1-.6 0-1.4.2-.9.2l4.2-.1c-.3-.5-.5-.3-1.4-.7.5-.3 1.7-.4 2.8-.4-1.9.3 0 .8.8 1.1-.1-.2.2-.3.1-.5 2.1.9.4-.9 3.4-.3l-.2.2c1.1-.1 2.2-.4 3.4-.3.5.6-1.2.2-1.3.7 1.7 0 3.4-.9 4.9-.3-.7.1-1.8.1-2.5.2 1.6.7 1.8.6 3.1.7h-.1l2.8.4-.7-.2c2.2-1.4 4.3-.1 7.2-.8-2.8.7-.5.5-.7 1.1.7.2 1.8.5 1.5.6 1.4-.4 2.3.5 4.2-.2.1.2 1.5 0 1.2.5 1.8-.2-.4-.3-.3-.6 1.4-.4 3-.2 4.8-.3 1.8-.1 3.9-.4 5.7-1.6.4-.2.7-.4 1.1-.6.3-.2.6-.4.8-.6.5-.4.8-.8 1.2-1.2.3-.4.7-.8 1-1.2.2-.2.4-.5.6-.7.1-.1.1-.2.2-.3.2-.2.4-.4.6-.7.3-.1.2.1.1.4-.1.4-.4.8-.4.8 1.5-1 2.2-2.2 2.9-3.8 0 .4.3.2.7-.2.6-1.3-.3-1.1.6-2.6.1.4.3.8.3 1.6.5-1.6.5-3.2.6-4.8.4-.4.4 1.1.4 1.7.3-1.9.4-4.8-.2-5.4.1 0 0 .3 0 .5zm-7.3-113.7c0 .5.1.9.1 1.1 0-.2 0-.5-.1-1.1zm-.2-4.6c0 .6.1 1.3.1 2-.2.2-.4 0-.4-.5.1.3.1-.8.3-1.5zm-50.7 134.9c0-.1-.1-.3 0-.5.5 0 1 0 1.5.1-.2.2-.6.4-1.5.4zm45.8.4s-.1-.1-.4-.1c-.1 0-.2-.1-.4-.2.6-.2 1.2-.3 1.7-.5 0 .1-.3.4-.9.8zm8.9-7.2c.4-.6.7-1.3 1-1.9-.1.7-.3 1.9-.3 1.9-.3.1-.6.2-.7 0z"/><path d="M465.6 347.4c0-.1 0-.2-.1-.3.1.1.1.2.1.3zM633.5 402.5c0 .1-.1.1-.1.3 0 0 0-.1.1-.3zM561.5 258.9c.1 0 .2 0 .3-.1-.1 0-.2.1-.3.1zM561.3 258.9h0zM574.2 259.4v.2l.4-.2zM586.8 419.9c0 .1.1.1.3.2 0-.1-.1-.2-.3-.2zM597.7 420.4l1.5.3c-.7-.2-1.2-.3-1.5-.3zM605.9 421.1c.1-.1.1-.2.2-.2l-.2.2zM473.2 412.8l-.3-.3c-.7-.5-.2-.1.3.3zM513.1 417c-.4.1-.8.2-1.3.2.7.1 1.3.1 1.3-.2zM466.5 368.4v-.3.3zM510 417.2c.7.1 1.3.1 1.8.1-.5-.1-1.2-.2-1.8-.1zM634.7 403.3l.1-.4s-.1 0-.1-.1v.5zM634.6 402.8v-.5.5zM634.5 401.4l.1 1c0-.4.1-.8-.1-1zM630.5 414.5c0-.1 0-.2-.1-.2l.1.2zM629.3 415.8c-.6.5-1.2.8-1.4 1.2.3-.3.9-.5 1.4-.9s1-.8 1.3-1.3l-.1-.2c0 .3-.6.7-1.2 1.2zM531.3 418.5l.5-.4h-1.6z"/></g><g fill="#8cab5a"><path d="M629.9 410.5c-.3-.4-.6-.7-.4-.7-.2-.1-.7-.5-1-.4.5.5 1.1.9 1.7 1.6 0 .2-.1.1-.2.1.4.4.9 1 1.1.6-.5-.7-.5-.9-1.2-1.2zM629 417.3c.1-.1.2-.3.3-.4l-.3.4zM616.7 406.4zM628.8 417.4l-.4.2c.1 0 .3-.1.4-.2zM591.8 404.5c.2.1.3.2.4.3-.2-.3 1-.3-.4-.3z"/><path d="M628.9 417.2c0 .1-.1.2-.2.3.1-.1.2-.2.2-.3.1 0 .1 0 0 0zM519.1 413.8l-1.3-.1c.4 0 .9.1 1.3.1zM514 413.7c-.2-.1-.5-.2-.7-.2-.1 0-.1 0-.2.1l.9.1z"/><path d="M630.7 413.1c0-.4.2-.2.3.1.1.5 0 .8-.1 1s-.3.3-.3.3 0-.2.1-.3v-.3c-.2.1-.3.3-.4.6-.1.1-.1.3-.1.4-.1.1-.1.3-.2.5-.1.3-.3.6-.5 1-.2.3-.5.6-.7.7 0 0 .1-.3.1-.5 2.4-2 2.5-6.4-1.3-7.1h-.1c.1-.1.2-.3.2-.4.1.1.2.1.4.1 0 0 .1-.1.2-.1.1-.1.2-.1.2-.1l-.8-.1c-.1-.2-.4-.5-1.2-.7l-1.5-.2-.4-.3 1.1.2c-.6-.3-1-.2-1.5-.1-.1-.1-.3-.3-.5-.3 0 0-.3.1-.7.1-.3.1-.7.1-.7.1-.1-.2.6-.3-.2-.5-.6.1.5.5-.5.5-.6-.3-.4-.5-1.2-.4-.1-.1.1-.2.4-.2-.7.1-1.7-.2-2.1 0-.6-.4-2.2-.2-2.1-.7-.2.1-1.2.2-1.8.2 1.2-.4-2.3-.3-1.9-.8-.9.4-3-.1-4.5 0 .1 0 .3-.1.4-.1-.8-.1-1-.3-1.6-.4-.1.4-1.4.4-2.1.6-1-.5.6-.4.4-.8 0 .3-1.8.2-1.4.5-.7-.3-.7-.2-1-.5-.2.5-.7 0-1.4.3-1.1-.3-.3-.5-1.5-.4-.6-.2.5-.3.5-.3-1.2-.1-.6.3-.9.5-1.5 0-.7-.3-1.2-.6-.9 0-1.7.3-2.4.3 0-.1-.2-.1 0-.2-1 .2-2.9-.1-4.1.2-.1 0-.1-.1-.1-.1.2.2.2.4.1.5-.6 0-1 .2-1.2-.1.3 0 .4-.1.5-.1l-.6.1c-.5-.4.8-.1.8-.4-1.1.1-2.5.3-3.3.2-.2-.4 2 0 .9-.4l1.3.2c-1-.6.8.1-.1-.6-1.8-.2-2 .1-3.8-.1-.4.2.1.3-.3.5-2.5.3-1.9-1-3.8-.5-.5.2-.7.7-2 .4l.5-.4c-1.7-.1-1 .5-2.8.2.3-.1 1.4-.1 1.1-.1-1.2-.3-.8.2-1.7.2l-.2-.4c-1.8 0-3.8.2-5.9.2.1-.1.5-.2 0-.3-2.6.1-5.4-.2-7.9-.4l-.9.3c-.2 0-.4-.1-.2-.2-1-.1-.1.2-.5.3-.5 0-.7-.2-.4-.3-1.7.2-4.8.5-6.6.1l.3-.1c-1.4-.2-1.6.6-2.9.3h.2c-3-.2-6.3 0-8.6-.5-.4.4-3-.3-3.2.3-1.7-.3-1.2-.4-3.6-.7-.6 0-1 .4-1.8.4v-.3l-1.1.3-.6-.4-.8.1c.3 0 .6.2.6.2-1.2.1-2.9-.3-2.9-.4l-2.8.2c0-.1.3-.1.6-.2-1 .2-.1-.4-1.3-.1.2.1-.1.2-.1.3-.7-.2-2.2-.2-3.4-.2l.2-.2c-2.1-.1-4.3 0-6.6 0 .8.1.6.5 0 .5l-.3-.3c-.4.2.7.1-.2.4-.9 0-.6-.4-.1-.5l-1.1.1c-.1-.1.2-.2.3-.3-.4.2-1.8-.4-2.4 0l-.1-.1c-2.3 0-3.4.1-5.2.1 0 .3-.8.2-1.3.5-1.4-.1-2.9-.3-4.6-.3-1.2.1-.3.2-.9.4-.1-.3-1.7-.2-.9-.4-2 0-2.6 0-5.1.3.3.1.6.2.4.2-.5 0-1-.1-1-.2h.1c-2.8.4-6.6-.8-8.8-.2h.1l-2.3.3c-1.1 0 .6-.2-.2-.4-1.3.2-2.3.2-3.2.2H478.3c-.3 0-.6.1-.9.2-.3-.1-.6-.1-.9 0-.2 0-.4.1-.6.1l-.6.3c-.8.4-1.5 1.2-1.9 2.1-.9 1.9-.5 3.9-.1 5.3l.1-.2c.2.3.3.5.4.7s.1.4.3.6c.1-.2-.4-.8 0-.5.5.6 1.2 1.1 1.9 1.5.4.1.8.3 1.1.4l1.1.1c1.2 0 2.5 0 3.7.1 2.5.1 5 .2 7.4.3 1.8 0 1-1 3.3-.5l-.6.3c3.6-.4 7.4 0 10.9-.3-.2.1-.2.2-.6.2.7.3 2.8 0 2.8-.2.5 0 .1.2.5.3.7.2 1.9-.3 2.3-.1.1 0-.2.1-.3.1.5-.1 2.3 0 1.8-.2 1.3.1 2.5-.1 3.6.1.7-.3 2.3.2 2.5-.3-.1.5 2.3.4 3.2.2-.3.1.7.2.4.3 1 0 1.8-.1 1.7-.3 1.7.6 3.5-.4 4.5.3 2.8-.2 5.5-.3 8-.4-.1.5-2.8 0-2.7.5 2.4-.2 3.8-.5 6.2-.4.6.1-.4.2-.6.3 2.4-.1 4.7.1 6.8-.1 0 0-.2.1-.5.1.4 0 1 .1.9-.1h-.4c-.7-.3 1.7-.6 1.8-.8-.7.6 2.1.2 1 .9.3 0 .6-.1.6-.3.4.1.5.1.1.3 1.5-.1 1-.3 2.4-.3 0 .1-.3.1-.4.3.7-.2 1.4-.4 2.6-.3-.1.1.1.1-.3.1 2 0 3.4-.5 5.6-.2-.7.4.7.2.9.6l1.2-.1-.5-.2c1 0 1.9-.2 2.8-.1l-.8.1h1.9l-1.1-.2c1-.2-.1-.5 1.3-.4-.3 0 1 0 1.6.3.5-.1 1-.2 1.8-.1.2.1-.2.4 0 .5.5-.3 2.4 0 3.1-.4-.2.1-.2.3-.2.3l.4-.3c.5.1.5.1.5.3 1.4.1-.4-.5 1.3-.3-.1 0-.1.1-.4.1 1.7.1 3.3-.1 4.9.1.5.4-1.4.1-.9.4 2.3 0 4.7-.4 6.9-.2l-.4-.1c.3-.5 1.6.3 2.7.1-.3 0-.4.3-.3.2 1.5.1 3.1 0 5.4-.1l-.3.1c.9.2 2.3.2 3.3.3.3-.1.8-.1.5-.3 2.9 1 5.6-.1 8.2.7-.3 0-.8.1-.5.1h2.2c-.2-.3-.3-.2-.7-.4.3-.1.9-.2 1.5-.1-1 .1 0 .4.4.6-.1-.1.1-.1.1-.2 1.1.5.2-.5 1.8 0v.2c.6 0 1.2-.1 1.8 0 .2.3-.6.1-.7.3.9.1 1.8-.4 2.6 0h-1.3c.9.4 1 .3 1.6.5h-.1l1.5.3-.4-.1c1.2-.6 2.3.1 3.9-.2-1.5.3-.3.2-.4.5.4.1.9.3.8.4.7-.2 1.2.3 2.2.1 0 .1.8.1.6.3.9.1-.2-.2-.1-.3 1.5-.1 3.3.9 5.4.7h2c.4 0 .9-.1 1.5-.1h.5c.1.1 0 .1-.1.2-.2.1-.5.1-.5.1 1 .2 1.8 0 2.5-.5-.1.2.1.1.4.1.3-.2.4-.4.4-.5.1-.2.2-.3.6-.6 0 .2 0 .5-.2.8.7-.7 1-1.6 1.2-2.5.2-.2.1.6 0 1 .1-.2.2-.5.3-.8s.1-.6.2-.9c.1-.6-.1-1.1-.2-1.3-.2-.1-.3.6-.3.6zm-59-8.8h.6-.6zm-1.4 0c.1.1 0 .2-.3.2.1-.1-.4-.1-.8-.2.4-.1.8-.1 1.1 0zm26.8 10.1v-.2h.8c0 .1-.2.2-.8.2zm24.1 2.3c.3 0 .6.1 1 .2-.1.1-.3.1-.7.1l-.3-.3zm6.7.6c-.2 0-.3-.1-.3-.2.4-.1.7-.3 1-.6-.1.1-.1.2-.2.3l-.5.5z"/><path d="M528.8 402.9c.1 0 .2 0 .3-.1-.1 0-.2 0-.3.1zM535.7 403h.2zM603.3 415.2s.1.1.2.1c-.1 0-.2-.1-.2-.1zM609 415.8l.8.2c-.3-.1-.6-.2-.8-.2zM613.4 416.4c.1 0 .1-.1.1-.1l-.1.1zM542.8 413.8h-.2c-.4.1-.1.1.2 0zM563.9 413.6c-.2 0-.4.1-.7.1.4 0 .6 0 .7-.1zM519.3 413.8zM562.2 413.7c.4.1.7.1 1 0-.3 0-.7-.1-1 0zM631.3 413v.3-.3c0 .1 0 .1 0 0zM631.3 413v-.3.3zM631.2 412.5v.3c0-.2 0-.5-.1-.6.1 0 .1.1.1.3zM624.8 418.1c.2.1.5.1.8.2.2 0 .4.1.5.1.2 0 .4 0 .6-.1l.1-.1c-.3.3-1.6-.2-2-.1zM573.6 414.2l.3-.3-.9.1zM581.8 375.7c-.2-.4-.2-.6-.3-.8-.1-.2-.1-.4-.5-.7 0-.4.2-.8.5-.7-.2-.1.1-.8-.4-.9-.4.7-.3 1.3 0 2.1-.2.1-.3-.1-.4-.1.1.3.4 1.2 1.1 1.1zM576.7 379.2c.1 0 .2-.1.4-.2-.2 0-.3.1-.4.1v.1zM578.9 362.1c-.1 0-.1.1 0 0-.1.1 0 .1 0 0zM576.5 379.2h-.3.3zM569.8 343.4c.3-.3.9.6.3-.5-.1.2-.2.4-.3.5z"/><path d="M576.7 378.9c0 .1-.1.2-.2.3h.2c.1-.2.1-.3 0-.3zM533.3 333.6l.4-1c-.2.3-.3.7-.4 1zM574.4 296.5c0-.1 0-.2-.1-.3l.1.3zM534.5 329.8c.2 0 .3 0 .4-.1h-.1c0 .1-.3.2-.3.1zM573.5 292.4l.2.2-.2-.2zM580.3 376.3s-.1 0-.1.1c-.1 0 0-.1.1-.1z"/><path d="M523.7 367.9c.2 1 1 .1.6 1.2-.1-.2-.1.9-.5 1.4.3.5.6.9.6 1.6-.2.3-.9.1-1 .3.4.2.6.7 1 1.2s.9 1 1.3.9c-.3 0-.6.2-.6.4l.7-.1c.2.4.3.5 0 .7.6.5.6.2.7 0 .1-.2.1-.3.7.2-.1 0-.1.1-.4 0 .7.5 1.5.8 2.2.9s1.5.2 2.1.4c.3.8-1.3 0-.9.7 1.1.1 2.1 0 3.1-.1s1.9-.2 2.9 0l-.3-.1c.4-1.1 1.3.6 2.3.2-.2.1-.4.6-.3.5 1.3.3 2.6-.1 4.6-.3l-.3.3c.7.3 2 .3 2.8.5.3-.3.7-.2.5-.6 1.2.9 2.4.8 3.6.6 1.2-.2 2.3-.4 3.4.3-.3 0-.6.2-.4.2l1.9-.2c-.1-.5-.2-.3-.6-.7.2-.3.8-.5 1.3-.5-.9.3 0 .8.3 1-.1-.1.1-.3 0-.5 1 .9.2-1 1.5-.4l-.1.3c.5-.1 1-.4 1.5-.4.2.6-.5.3-.6.7.8 0 1.5-1 2.2-.5-.3.2-.8.2-1.1.3.7.7.8.5 1.4.6h-.1l1.3.3-.3-.2c1-1.4 2-.3 3.2-1.2-1.2.9-.2.5-.3 1.1.3.2.8.4.7.5.6-.5 1 .4 1.9-.4 0 .2.7 0 .5.5.8-.2-.2-.3-.1-.6 1.2-.7 2.9.8 4.6-.3 1.4-.4 1.7-1.1 2.9-1.5h.3c.3.3-.4.7-.4.7.8.3 1.4.2 2.1-.1-.1.2 0 .3.3.5.6-.1.3-.7 1.2-.6-.1.3-.2.6-.6.9.9-.3 1.6-.9 2.3-1.5.4.2-.2.8-.4 1.1.5-.3 1.1-.7 1.4-1.3.4-.5.4-1.1.3-1.3 0 0-.2.2-.4.3.2 0 .4.3.3.5-.1.5-.4.7-.7.7s-.5-.1-.5-.2l.4-.5c-.6-.2-.9.1-1.4.5-.2.2-.5.4-.8.6-.3.1-.6.3-.9.2l.3-.7c3-.2 4.4-3 3.2-5.6v-.1c.3-.1.6-.1.9-.3v.4h.4c.2 0 .4.1.4.1l-.4-.7c.3-.2.6-.7.6-1.4l-1-.8.3-.5.4.8c.2-.7-.3-.8-.7-1.1.2-.2.3-.4.3-.6l-1.3-.6c.3-.3.9.2.8-.6-.6-.3-.6.8-1.2.1.2-.7.6-.7 0-1.1.2-.2.4-.1.6.1-.5-.4-.7-1.3-1.3-1.4.3-.7-.9-1.7 0-2-.3-.1-1-.6-1.3-1.1 1.4.4-.7-1.8.5-2-1.2-.2-1.4-2.1-2.4-3 .1 0 .3.1.3.2-.2-.7 0-1 0-1.4-.8.2-1.4-.7-2.1-1 .4-1.1 1.1.1 1.7-.5-.6.3-1.2-1.1-1.6-.6.2-.8 0-.6.5-1.2-1 .3-.4-.5-1.2-.7.1-1.1.8-.6.1-1.4.1-.6.8.1.8.1-.4-1-.9-.2-1.4-.2-.7-1.1.3-.8.5-1.3-.5-.6-1.4-.9-1.6-1.5.1-.1.1-.2.3-.2-.9-.5-1.1-2.3-2.2-2.8 0-.1.1-.2.1-.2-.3.3-.6.5-.9.6-.2-.4-.8-.6-.4-1 .1.3.3.2.5.3l-.4-.4c.5-.7.5.5 1 .3-.6-.8-1.6-1.5-1.8-2.3.6-.4.9 1.4 1.1.3l.2 1.1c.6-1.3.2.7 1-.6-.5-1.4-1-1.3-1.5-2.8-.5-.1-.5.3-1 .2-1.5-1.6 1-2.2-.4-3.2-.6-.2-1.5 0-1.4-1.2l.9.1c-.3-1.3-1.4-.4-1.1-1.7.3.2.4.8.5.6.2-.4.1-.5-.1-.6-.2-.1-.5-.1-.5-.4l.7-.2c-.2-1-.4-2.5.1-4 .2.2.3.5.6.2.2-1 .7-1.9 1.3-2.9s1.3-2 1.9-2.9l-.2-1c.1-.2.4-.2.4 0 .5-.7-.3-.2-.4-.6.1-.5.6-.4.6-.1.1-1.6.5-4.3 1.5-5.6l.1.3c.6-1.1-.7-1.7.1-2.6v.2c1-2.5 1-5.4 2.2-7.3-.8-.5.7-2.6-.5-2.9.3-.7.5-1 .7-1.4s.4-.8.5-1.9c0-.6-.8-.9-1-1.6l.6-.1-.8-.9.7-.6-.3-.7c0 .3-.2.6-.4.6-.1-.3-.2-.5-.2-.8v-.9c.1-.6.2-1 .4-1.1l-.2-.4c-.1-.2-.3-.5-.4-.8-.4-.6-.7-1.1-.7-1.1.2 0 .4.2.6.4-.6-.8.7-.3-.3-1.3-.1.2-.4.1-.5.1.1-.7-.6-2.1-1.3-2.9l.5-.1c-.5-.8-1.1-1.7-1.9-2.5l-1.2-1.2c-.4-.4-.8-.8-1.2-1.1.5.7-.2 1.1-.7.7l.3-.7c-.6 0 .3.6-.6.4-.5-.6.1-.9.6-.8l-.9-.5c.1-.2.3-.1.5-.3-.3 0-.5-.4-.8-.8s-.7-.7-1.1-.6l.1-.2c-.9-.7-1.7-1-2.4-1.3s-1.4-.5-2.3-.8c-.2.6-.8.1-1.5.5-.6-.2-1.3-.6-2-.8-.7-.2-1.5-.4-2.3-.4-1.1.3-.3.5-.8.9-.1-.5-1.7-.4-.9-.8-1.9.3-2.5.4-4.6 1.6.3.1.6.1.5.3-.4.2-1 .1-1-.1l.1-.1c-.5.5-1.2.7-1.9 1s-1.4.5-2.1.8c-.7.3-1.4.6-2 1-.5.4-1 .9-1.2 1.5v-.1s-.1.1-.2.3c-.1.2-.3.4-.4.7-.3.5-.5 1-.5 1-.7.7.1-.7-.6-.4-.2.6-.5 1.1-.7 1.5-.3.4-.5.8-.8 1.1-.5.7-1 1.4-1.2 2.4-1 .3-1.6 1.5-2 2.8-.2.6-.4 1.3-.6 1.9-.2.6-.5 1.2-.9 1.5h.4c.2.6-.4.5-.6.9.3 0 .5-.4.6-.1-.8 4.2-2.4 8.5-2.8 13-.1 1.6 1.9.9 1.1 2.9 0 0-.2-.1-.4-.3-.2-.1-.3-.3-.3-.3 1 3.2.6 6.6 2.1 9.5-.2-.1-.4-.1-.5-.4-.2.4 0 1 .2 1.5.3.5.6.9.8.8.1.5-.3.2-.4.6-.1.7 1.1 1.4.8 1.9-.1.1-.2-.1-.3-.2.4.3.6 1.9 1 1.3.1.6.3 1 .5 1.5.1.2.1.1.1.1s0 .1.1.1v.2s-.1 0-.1.1c.2 0 .2.1.2.2v.1l-.1.1c-.2.4-.3.8.1 1-.9-.4-1.3 1.6-1.1 2.4-.2-.3-.5.5-.8.1-.2.8-.3 1.5.2 1.5-1.5 1.1-.1 3.1-1.7 3.5-.3 2.4-.7 4.6-1.1 6.8-.9-.4.7-2.3-.3-2.5-.3 2.1.1 3.4-.7 5.3-.3.5-.3-.4-.4-.6-.3 2.1-1.3 3.7-1.4 5.6-.1 0-.1-.2-.1-.4-.1.4-.4.7 0 .8v-.4c.8-.3.8 1.8 1.1 1.9-1-.9-.9 1.6-2 .2 0 .2.1.6.4.6-.2.3-.4.3-.6-.1-.2 1.2.4 1 0 2.1-.2-.1-.2-.3-.4-.5.2.7.3 1.4-.2 2.2-.1-.1-.3-.1-.2-.3-.5 1.6 0 3.1-1 4.7-.7-.8-.5.5-1.2.4l-.1 1.1.5-.3c-.3.9.1 1.8-.3 2.5l-.2-.7s-.1.4-.1.9c0 .2 0 .4-.1.6v.3s.1-.3.2-.5c0 .9.1.6.1.6zm26.1 10.3v-.5h.7c-.1.2-.2.4-.7.5zm20.7.1l-.3-.5h.8c0 .1-.1.2-.5.5zm6-.6c-.2.2-.5.4-.5.4-.1-.1-.3-.4-.2-.6h1c-.1 0-.2.1-.3.2zm-10.6-48.6c0-.1.1-.2.1-.5 0 .2 0 .4-.1.5zm.5-1.5c-.2 0-.4-.2-.3-.4.1.2.4-.2.7-.4-.1.2-.2.5-.4.8z"/><path d="M575 298.7h-.2l.2.2zM555.2 379.2s-.1-.1-.1-.2c-.1.1 0 .1.1.2zM559.9 379.2l.7.2c-.3-.1-.5-.1-.7-.2zM563.7 379.5c0-.1.1-.2.1-.3l-.1.3zM527.6 352.8v-.1.1zM523.8 370.6l-.3-.6c0 .3 0 .6.3.6zM533.2 333.8v-.1.1zM523.6 369c-.2.3-.1.7-.1.9.1-.3.1-.6.1-.9zM581.2 377.1s-.1 0 0 0l-.2.2.2-.2zM581.1 377.1l.1-.3c0 .1-.1.2-.1.3zM581.4 376.2l-.2.6c.2-.2.3-.4.2-.6zM573.6 379.2c.4 0 .9.4 1.4.2v-.2c-.2.4-1.1-.3-1.4 0zM529.6 377.7l.4-.4h-.8l.4.4z"/></g></g></svg>